<?xml version="1.0" encoding="utf-8" standalone="no"?>
<!DOCTYPE svg PUBLIC "-//W3C//DTD SVG 1.1//EN"
  "http://www.w3.org/Graphics/SVG/1.1/DTD/svg11.dtd">
<svg xmlns:xlink="http://www.w3.org/1999/xlink" width="936pt" height="403.2pt" viewBox="0 0 936 403.2" xmlns="http://www.w3.org/2000/svg" version="1.1">
 <metadata>
  <rdf:RDF xmlns:dc="http://purl.org/dc/elements/1.1/" xmlns:cc="http://creativecommons.org/ns#" xmlns:rdf="http://www.w3.org/1999/02/22-rdf-syntax-ns#">
   <cc:Work>
    <dc:type rdf:resource="http://purl.org/dc/dcmitype/StillImage"/>
    <dc:date>2026-04-29T16:25:33.236665</dc:date>
    <dc:format>image/svg+xml</dc:format>
    <dc:creator>
     <cc:Agent>
      <dc:title>Matplotlib v3.10.9, https://matplotlib.org/</dc:title>
     </cc:Agent>
    </dc:creator>
   </cc:Work>
  </rdf:RDF>
 </metadata>
 <defs>
  <style type="text/css">*{stroke-linejoin: round; stroke-linecap: butt}</style>
 </defs>
 <g id="figure_1">
  <g id="patch_1">
   <path d="M 0 403.2 
L 936 403.2 
L 936 0 
L 0 0 
L 0 403.2 
z
" style="fill: none"/>
  </g>
  <g id="axes_1">
   <g id="patch_2">
    <path d="M 46.8 155.82389 
L 185.989655 155.82389 
L 185.989655 66.74251 
L 46.8 66.74251 
L 46.8 155.82389 
z
" style="fill: none"/>
   </g>
   <g id="patch_3">
    <path d="M 60.718966 145.941424 
C 62.527728 145.941424 64.262653 145.222795 65.541641 143.943807 
C 66.82063 142.664818 67.539259 140.929894 67.539259 139.121131 
C 67.539259 137.312368 66.82063 135.577444 65.541641 134.298456 
C 64.262653 133.019467 62.527728 132.300838 60.718966 132.300838 
C 58.910203 132.300838 57.175279 133.019467 55.89629 134.298456 
C 54.617302 135.577444 53.898672 137.312368 53.898672 139.121131 
C 53.898672 140.929894 54.617302 142.664818 55.89629 143.943807 
C 57.175279 145.222795 58.910203 145.941424 60.718966 145.941424 
z
" clip-path="url(#p081d74f18d)" style="fill: #2ca02c; stroke: #1f7a1f; stroke-width: 0.5; stroke-linejoin: miter"/>
   </g>
   <g id="patch_4">
    <path d="M 85.773103 143.157631 
C 86.843596 143.157631 87.870388 142.73232 88.62734 141.975368 
C 89.384292 141.218415 89.809603 140.191623 89.809603 139.121131 
C 89.809603 138.050639 89.384292 137.023847 88.62734 136.266895 
C 87.870388 135.509942 86.843596 135.084631 85.773103 135.084631 
C 84.702611 135.084631 83.675819 135.509942 82.918867 136.266895 
C 82.161915 137.023847 81.736603 138.050639 81.736603 139.121131 
C 81.736603 140.191623 82.161915 141.218415 82.918867 141.975368 
C 83.675819 142.73232 84.702611 143.157631 85.773103 143.157631 
z
" clip-path="url(#p081d74f18d)" style="fill: #2ca02c; stroke: #1f7a1f; stroke-width: 0.5; stroke-linejoin: miter"/>
   </g>
   <g id="patch_5">
    <path d="M 110.827241 144.967097 
C 112.37761 144.967097 113.864687 144.351129 114.960963 143.254853 
C 116.057239 142.158577 116.673207 140.671499 116.673207 139.121131 
C 116.673207 137.570763 116.057239 136.083685 114.960963 134.987409 
C 113.864687 133.891133 112.37761 133.275166 110.827241 133.275166 
C 109.276873 133.275166 107.789795 133.891133 106.69352 134.987409 
C 105.597244 136.083685 104.981276 137.570763 104.981276 139.121131 
C 104.981276 140.671499 105.597244 142.158577 106.69352 143.254853 
C 107.789795 144.351129 109.276873 144.967097 110.827241 144.967097 
z
" clip-path="url(#p081d74f18d)" style="fill: #2ca02c; stroke: #1f7a1f; stroke-width: 0.5; stroke-linejoin: miter"/>
   </g>
   <g id="patch_6">
    <path d="M 135.881379 143.853579 
C 137.136439 143.853579 138.340264 143.354939 139.227726 142.467477 
C 140.115187 141.580016 140.613828 140.376191 140.613828 139.121131 
C 140.613828 137.866071 140.115187 136.662246 139.227726 135.774785 
C 138.340264 134.887323 137.136439 134.388683 135.881379 134.388683 
C 134.626319 134.388683 133.422494 134.887323 132.535033 135.774785 
C 131.647572 136.662246 131.148931 137.866071 131.148931 139.121131 
C 131.148931 140.376191 131.647572 141.580016 132.535033 142.467477 
C 133.422494 143.354939 134.626319 143.853579 135.881379 143.853579 
z
" clip-path="url(#p081d74f18d)" style="fill: #2ca02c; stroke: #1f7a1f; stroke-width: 0.5; stroke-linejoin: miter"/>
   </g>
   <g id="patch_7">
    <path d="M 160.935517 142.879252 
C 161.932182 142.879252 162.888161 142.483272 163.59291 141.778524 
C 164.297659 141.073775 164.693638 140.117796 164.693638 139.121131 
C 164.693638 138.124466 164.297659 137.168487 163.59291 136.463738 
C 162.888161 135.75899 161.932182 135.36301 160.935517 135.36301 
C 159.938852 135.36301 158.982873 135.75899 158.278125 136.463738 
C 157.573376 137.168487 157.177397 138.124466 157.177397 139.121131 
C 157.177397 140.117796 157.573376 141.073775 158.278125 141.778524 
C 158.982873 142.483272 159.938852 142.879252 160.935517 142.879252 
z
" clip-path="url(#p081d74f18d)" style="fill: #2ca02c; stroke: #1f7a1f; stroke-width: 0.5; stroke-linejoin: miter"/>
   </g>
   <g id="patch_8">
    <path d="M 60.718966 128.821097 
C 62.416988 128.821097 64.045692 128.146465 65.246375 126.945782 
C 66.447058 125.745099 67.12169 124.116395 67.12169 122.418372 
C 67.12169 120.72035 66.447058 119.091646 65.246375 117.890963 
C 64.045692 116.69028 62.416988 116.015648 60.718966 116.015648 
C 59.020943 116.015648 57.392239 116.69028 56.191556 117.890963 
C 54.990873 119.091646 54.316241 120.72035 54.316241 122.418372 
C 54.316241 124.116395 54.990873 125.745099 56.191556 126.945782 
C 57.392239 128.146465 59.020943 128.821097 60.718966 128.821097 
z
" clip-path="url(#p081d74f18d)" style="fill: #2ca02c; stroke: #1f7a1f; stroke-width: 0.5; stroke-linejoin: miter"/>
   </g>
   <g id="patch_9">
    <path d="M 85.773103 127.4292 
C 87.10199 127.4292 88.376629 126.901228 89.316294 125.961563 
C 90.255959 125.021898 90.783931 123.747259 90.783931 122.418372 
C 90.783931 121.089485 90.255959 119.814847 89.316294 118.875182 
C 88.376629 117.935517 87.10199 117.407545 85.773103 117.407545 
C 84.444216 117.407545 83.169578 117.935517 82.229913 118.875182 
C 81.290248 119.814847 80.762276 121.089485 80.762276 122.418372 
C 80.762276 123.747259 81.290248 125.021898 82.229913 125.961563 
C 83.169578 126.901228 84.444216 127.4292 85.773103 127.4292 
z
" clip-path="url(#p081d74f18d)" style="fill: #2ca02c; stroke: #1f7a1f; stroke-width: 0.5; stroke-linejoin: miter"/>
   </g>
   <g id="patch_10">
    <path d="M 110.827241 126.872441 
C 112.008474 126.872441 113.141486 126.403133 113.976744 125.567875 
C 114.812002 124.732617 115.28131 123.599605 115.28131 122.418372 
C 115.28131 121.23714 114.812002 120.104128 113.976744 119.26887 
C 113.141486 118.433612 112.008474 117.964303 110.827241 117.964303 
C 109.646008 117.964303 108.512997 118.433612 107.677739 119.26887 
C 106.842481 120.104128 106.373172 121.23714 106.373172 122.418372 
C 106.373172 123.599605 106.842481 124.732617 107.677739 125.567875 
C 108.512997 126.403133 109.646008 126.872441 110.827241 126.872441 
z
" clip-path="url(#p081d74f18d)" style="fill: #2ca02c; stroke: #1f7a1f; stroke-width: 0.5; stroke-linejoin: miter"/>
   </g>
   <g id="patch_11">
    <path d="M 135.881379 127.846769 
C 137.321007 127.846769 138.701865 127.274799 139.719835 126.256828 
C 140.737806 125.238858 141.309776 123.858 141.309776 122.418372 
C 141.309776 120.978745 140.737806 119.597887 139.719835 118.579916 
C 138.701865 117.561946 137.321007 116.989976 135.881379 116.989976 
C 134.441752 116.989976 133.060894 117.561946 132.042923 118.579916 
C 131.024953 119.597887 130.452983 120.978745 130.452983 122.418372 
C 130.452983 123.858 131.024953 125.238858 132.042923 126.256828 
C 133.060894 127.274799 134.441752 127.846769 135.881379 127.846769 
z
" clip-path="url(#p081d74f18d)" style="fill: #2ca02c; stroke: #1f7a1f; stroke-width: 0.5; stroke-linejoin: miter"/>
   </g>
   <g id="patch_12">
    <path d="M 160.935517 126.594062 
C 162.042923 126.594062 163.105122 126.154085 163.888176 125.371031 
C 164.67123 124.587977 165.111207 123.525778 165.111207 122.418372 
C 165.111207 121.310967 164.67123 120.248768 163.888176 119.465714 
C 163.105122 118.68266 162.042923 118.242683 160.935517 118.242683 
C 159.828111 118.242683 158.765913 118.68266 157.982859 119.465714 
C 157.199805 120.248768 156.759828 121.310967 156.759828 122.418372 
C 156.759828 123.525778 157.199805 124.587977 157.982859 125.371031 
C 158.765913 126.154085 159.828111 126.594062 160.935517 126.594062 
z
" clip-path="url(#p081d74f18d)" style="fill: #2ca02c; stroke: #1f7a1f; stroke-width: 0.5; stroke-linejoin: miter"/>
   </g>
   <g id="patch_13">
    <path d="M 60.718966 111.839959 
C 62.343161 111.839959 63.901052 111.194659 65.049531 110.04618 
C 66.198011 108.8977 66.84331 107.339809 66.84331 105.715614 
C 66.84331 104.091419 66.198011 102.533527 65.049531 101.385048 
C 63.901052 100.236569 62.343161 99.591269 60.718966 99.591269 
C 59.09477 99.591269 57.536879 100.236569 56.3884 101.385048 
C 55.23992 102.533527 54.594621 104.091419 54.594621 105.715614 
C 54.594621 107.339809 55.23992 108.8977 56.3884 110.04618 
C 57.536879 111.194659 59.09477 111.839959 60.718966 111.839959 
z
" clip-path="url(#p081d74f18d)" style="fill: #2ca02c; stroke: #1f7a1f; stroke-width: 0.5; stroke-linejoin: miter"/>
   </g>
   <g id="patch_14">
    <path d="M 85.773103 110.448062 
C 87.028163 110.448062 88.231988 109.949421 89.11945 109.06196 
C 90.006911 108.174499 90.505552 106.970674 90.505552 105.715614 
C 90.505552 104.460554 90.006911 103.256729 89.11945 102.369268 
C 88.231988 101.481806 87.028163 100.983166 85.773103 100.983166 
C 84.518043 100.983166 83.314219 101.481806 82.426757 102.369268 
C 81.539296 103.256729 81.040655 104.460554 81.040655 105.715614 
C 81.040655 106.970674 81.539296 108.174499 82.426757 109.06196 
C 83.314219 109.949421 84.518043 110.448062 85.773103 110.448062 
z
" clip-path="url(#p081d74f18d)" style="fill: #2ca02c; stroke: #1f7a1f; stroke-width: 0.5; stroke-linejoin: miter"/>
   </g>
   <g id="patch_15">
    <path d="M 110.827241 109.612924 
C 111.86082 109.612924 112.852205 109.202279 113.583056 108.471428 
C 114.313907 107.740578 114.724552 106.749193 114.724552 105.715614 
C 114.724552 104.682035 114.313907 103.69065 113.583056 102.959799 
C 112.852205 102.228949 111.86082 101.818303 110.827241 101.818303 
C 109.793663 101.818303 108.802277 102.228949 108.071427 102.959799 
C 107.340576 103.69065 106.929931 104.682035 106.929931 105.715614 
C 106.929931 106.749193 107.340576 107.740578 108.071427 108.471428 
C 108.802277 109.202279 109.793663 109.612924 110.827241 109.612924 
z
" clip-path="url(#p081d74f18d)" style="fill: #2ca02c; stroke: #1f7a1f; stroke-width: 0.5; stroke-linejoin: miter"/>
   </g>
   <g id="patch_16">
    <path d="M 135.881379 111.42239 
C 137.394834 111.42239 138.846505 110.821088 139.916679 109.750914 
C 140.986853 108.68074 141.588155 107.229068 141.588155 105.715614 
C 141.588155 104.202159 140.986853 102.750488 139.916679 101.680314 
C 138.846505 100.61014 137.394834 100.008838 135.881379 100.008838 
C 134.367925 100.008838 132.916253 100.61014 131.846079 101.680314 
C 130.775905 102.750488 130.174603 104.202159 130.174603 105.715614 
C 130.174603 107.229068 130.775905 108.68074 131.846079 109.750914 
C 132.916253 110.821088 134.367925 111.42239 135.881379 111.42239 
z
" clip-path="url(#p081d74f18d)" style="fill: #2ca02c; stroke: #1f7a1f; stroke-width: 0.5; stroke-linejoin: miter"/>
   </g>
   <g id="patch_17">
    <path d="M 160.935517 110.308872 
C 162.153664 110.308872 163.322082 109.824898 164.183442 108.963538 
C 165.044801 108.102179 165.528776 106.93376 165.528776 105.715614 
C 165.528776 104.497467 165.044801 103.329049 164.183442 102.467689 
C 163.322082 101.60633 162.153664 101.122355 160.935517 101.122355 
C 159.717371 101.122355 158.548953 101.60633 157.687593 102.467689 
C 156.826233 103.329049 156.342259 104.497467 156.342259 105.715614 
C 156.342259 106.93376 156.826233 108.102179 157.687593 108.963538 
C 158.548953 109.824898 159.717371 110.308872 160.935517 110.308872 
z
" clip-path="url(#p081d74f18d)" style="fill: #2ca02c; stroke: #1f7a1f; stroke-width: 0.5; stroke-linejoin: miter"/>
   </g>
   <g id="matplotlib.axis_1"/>
   <g id="matplotlib.axis_2"/>
   <g id="text_1">
    <text style="font-style: italic; font-size: 8.5px; font-family: 'DejaVu Sans', 'Bitstream Vera Sans', 'Computer Modern Sans Serif', 'Lucida Grande', 'Verdana', 'Geneva', 'Lucid', 'Arial', 'Helvetica', 'Avant Garde', sans-serif; text-anchor: middle; fill: #555555" x="116.394828" y="154.431993" transform="rotate(-0 116.394828 154.431993)">15 cells, varied amplitudes</text>
   </g>
   <g id="text_2">
    <text style="font-size: 11.5px; font-family: 'DejaVu Sans', 'Bitstream Vera Sans', 'Computer Modern Sans Serif', 'Lucida Grande', 'Verdana', 'Geneva', 'Lucid', 'Arial', 'Helvetica', 'Avant Garde', sans-serif; text-anchor: start; fill: #222222" x="46.8" y="60.74251" transform="rotate(-0 46.8 60.74251)">Ordinary aggregation</text>
   </g>
  </g>
  <g id="axes_2">
   <g id="patch_18">
    <path d="M 212.899655 174.1824 
L 700.063448 174.1824 
L 700.063448 48.384 
L 212.899655 48.384 
L 212.899655 174.1824 
z
" style="fill: none"/>
   </g>
   <g id="matplotlib.axis_3">
    <g id="xtick_1">
     <g id="line2d_1">
      <defs>
       <path id="m247c5f10b4" d="M 0 0 
L 0 3.5 
" style="stroke: #000000; stroke-width: 0.8"/>
      </defs>
      <g>
       <use xlink:href="#m247c5f10b4" x="212.899655" y="174.1824" style="stroke: #000000; stroke-width: 0.8"/>
      </g>
     </g>
    </g>
    <g id="xtick_2">
     <g id="line2d_2">
      <g>
       <use xlink:href="#m247c5f10b4" x="334.690603" y="174.1824" style="stroke: #000000; stroke-width: 0.8"/>
      </g>
     </g>
    </g>
    <g id="xtick_3">
     <g id="line2d_3">
      <g>
       <use xlink:href="#m247c5f10b4" x="456.481552" y="174.1824" style="stroke: #000000; stroke-width: 0.8"/>
      </g>
     </g>
    </g>
    <g id="xtick_4">
     <g id="line2d_4">
      <g>
       <use xlink:href="#m247c5f10b4" x="578.2725" y="174.1824" style="stroke: #000000; stroke-width: 0.8"/>
      </g>
     </g>
    </g>
    <g id="xtick_5">
     <g id="line2d_5">
      <g>
       <use xlink:href="#m247c5f10b4" x="700.063448" y="174.1824" style="stroke: #000000; stroke-width: 0.8"/>
      </g>
     </g>
    </g>
   </g>
   <g id="matplotlib.axis_4">
    <g id="ytick_1">
     <g id="line2d_6">
      <defs>
       <path id="ma714749a1b" d="M 0 0 
L -3.5 0 
" style="stroke: #000000; stroke-width: 0.8"/>
      </defs>
      <g>
       <use xlink:href="#ma714749a1b" x="212.899655" y="150.2208" style="stroke: #000000; stroke-width: 0.8"/>
      </g>
     </g>
     <g id="text_3">
      <text style="font-size: 8.5px; font-family: 'DejaVu Sans', 'Bitstream Vera Sans', 'Computer Modern Sans Serif', 'Lucida Grande', 'Verdana', 'Geneva', 'Lucid', 'Arial', 'Helvetica', 'Avant Garde', sans-serif; text-anchor: end" x="205.899655" y="153.450136" transform="rotate(-0 205.899655 153.450136)">0</text>
     </g>
    </g>
    <g id="ytick_2">
     <g id="line2d_7">
      <g>
       <use xlink:href="#ma714749a1b" x="212.899655" y="120.2688" style="stroke: #000000; stroke-width: 0.8"/>
      </g>
     </g>
     <g id="text_4">
      <text style="font-size: 8.5px; font-family: 'DejaVu Sans', 'Bitstream Vera Sans', 'Computer Modern Sans Serif', 'Lucida Grande', 'Verdana', 'Geneva', 'Lucid', 'Arial', 'Helvetica', 'Avant Garde', sans-serif; text-anchor: end" x="205.899655" y="123.498136" transform="rotate(-0 205.899655 123.498136)">5</text>
     </g>
    </g>
    <g id="ytick_3">
     <g id="line2d_8">
      <g>
       <use xlink:href="#ma714749a1b" x="212.899655" y="90.3168" style="stroke: #000000; stroke-width: 0.8"/>
      </g>
     </g>
     <g id="text_5">
      <text style="font-size: 8.5px; font-family: 'DejaVu Sans', 'Bitstream Vera Sans', 'Computer Modern Sans Serif', 'Lucida Grande', 'Verdana', 'Geneva', 'Lucid', 'Arial', 'Helvetica', 'Avant Garde', sans-serif; text-anchor: end" x="205.899655" y="93.546136" transform="rotate(-0 205.899655 93.546136)">10</text>
     </g>
    </g>
    <g id="ytick_4">
     <g id="line2d_9">
      <g>
       <use xlink:href="#ma714749a1b" x="212.899655" y="60.3648" style="stroke: #000000; stroke-width: 0.8"/>
      </g>
     </g>
     <g id="text_6">
      <text style="font-size: 8.5px; font-family: 'DejaVu Sans', 'Bitstream Vera Sans', 'Computer Modern Sans Serif', 'Lucida Grande', 'Verdana', 'Geneva', 'Lucid', 'Arial', 'Helvetica', 'Avant Garde', sans-serif; text-anchor: end" x="205.899655" y="63.594136" transform="rotate(-0 205.899655 63.594136)">15</text>
     </g>
    </g>
    <g id="text_7">
     <text style="font-size: 9px; font-family: 'DejaVu Sans', 'Bitstream Vera Sans', 'Computer Modern Sans Serif', 'Lucida Grande', 'Verdana', 'Geneva', 'Lucid', 'Arial', 'Helvetica', 'Avant Garde', sans-serif; text-anchor: middle" x="189.211686" y="111.2832" transform="rotate(-90 189.211686 111.2832)">fluorescence (a.u.)</text>
    </g>
   </g>
   <g id="line2d_10">
    <path d="M 212.899655 150.220794 
L 312.287586 150.116875 
L 330.21 149.865029 
L 341.615172 149.505205 
L 351.391034 148.984438 
L 359.537586 148.341205 
L 367.684138 147.457325 
L 374.201379 146.548744 
L 380.718621 145.444787 
L 387.235862 144.140508 
L 393.753103 142.643997 
L 401.899655 140.541064 
L 413.304828 137.326835 
L 424.71 134.135236 
L 431.227241 132.497768 
L 437.744483 131.107204 
L 442.632414 130.275329 
L 447.520345 129.656382 
L 452.408276 129.272017 
L 457.296207 129.135908 
L 462.184138 129.252935 
L 467.072069 129.618899 
L 471.96 130.220772 
L 476.847931 131.037464 
L 483.365172 132.411494 
L 489.882414 134.037298 
L 499.658276 136.753572 
L 515.951379 141.312375 
L 524.097931 143.329969 
L 530.615172 144.743221 
L 537.132414 145.958851 
L 543.649655 146.974934 
L 550.166897 147.801133 
L 558.313448 148.594456 
L 566.46 149.163637 
L 576.235862 149.617572 
L 587.641034 149.925834 
L 603.934138 150.126065 
L 633.261724 150.212046 
L 700.063448 150.220792 
L 700.063448 150.220792 
" clip-path="url(#p16d2412414)" style="fill: none; stroke: #2ca02c; stroke-opacity: 0.55; stroke-width: 1.1; stroke-linecap: square"/>
   </g>
   <g id="line2d_11">
    <path d="M 212.899655 150.2208 
L 366.054828 150.115331 
L 382.347931 149.851848 
L 395.382414 149.412934 
L 410.046207 148.673309 
L 427.968621 147.766341 
L 437.744483 147.515964 
L 445.891034 147.522302 
L 455.666897 147.78584 
L 468.701379 148.42886 
L 489.882414 149.50073 
L 502.916897 149.902218 
L 517.58069 150.119834 
L 542.020345 150.212177 
L 672.365172 150.2208 
L 700.063448 150.2208 
L 700.063448 150.2208 
" clip-path="url(#p16d2412414)" style="fill: none; stroke: #2ca02c; stroke-opacity: 0.55; stroke-width: 1.1; stroke-linecap: square"/>
   </g>
   <g id="line2d_12">
    <path d="M 212.899655 150.2208 
L 349.761724 150.119122 
L 367.684138 149.865178 
L 379.08931 149.508491 
L 388.865172 149.007979 
L 398.641034 148.27283 
L 406.787586 147.455698 
L 416.563448 146.230227 
L 427.968621 144.5338 
L 447.520345 141.543772 
L 455.666897 140.562384 
L 462.184138 140.000525 
L 468.701379 139.682857 
L 475.218621 139.633486 
L 481.735862 139.856205 
L 488.253103 140.334006 
L 494.770345 141.031227 
L 502.916897 142.134386 
L 517.58069 144.420698 
L 530.615172 146.354625 
L 540.391034 147.556399 
L 548.537586 148.352245 
L 558.313448 149.063722 
L 568.08931 149.544909 
L 579.494483 149.88549 
L 594.158276 150.099642 
L 618.597931 150.204211 
L 700.063448 150.220798 
L 700.063448 150.220798 
" clip-path="url(#p16d2412414)" style="fill: none; stroke: #2ca02c; stroke-opacity: 0.55; stroke-width: 1.1; stroke-linecap: square"/>
   </g>
   <g id="line2d_13">
    <path d="M 212.899655 150.220799 
L 302.511724 150.12416 
L 317.175517 149.891298 
L 326.951379 149.550686 
L 335.097931 149.087278 
L 343.244483 148.414927 
L 351.391034 147.511108 
L 359.537586 146.391423 
L 375.83069 143.83124 
L 383.977241 142.676732 
L 390.494483 141.968487 
L 395.382414 141.61338 
L 400.270345 141.434593 
L 405.158276 141.443497 
L 410.046207 141.639523 
L 416.563448 142.168883 
L 423.08069 142.949853 
L 432.856552 144.414505 
L 449.149655 146.926213 
L 457.296207 147.952423 
L 465.442759 148.749827 
L 473.58931 149.322399 
L 483.365172 149.761437 
L 494.770345 150.032468 
L 511.063448 150.177821 
L 550.166897 150.220334 
L 700.063448 150.2208 
L 700.063448 150.2208 
" clip-path="url(#p16d2412414)" style="fill: none; stroke: #2ca02c; stroke-opacity: 0.55; stroke-width: 1.1; stroke-linecap: square"/>
   </g>
   <g id="line2d_14">
    <path d="M 212.899655 150.2208 
L 403.528966 150.114291 
L 421.451379 149.866675 
L 439.373793 149.38031 
L 467.072069 148.573723 
L 478.477241 148.501323 
L 489.882414 148.654784 
L 506.175517 149.13947 
L 528.985862 149.817591 
L 546.908276 150.094165 
L 571.347931 150.205638 
L 660.96 150.2208 
L 700.063448 150.2208 
L 700.063448 150.2208 
" clip-path="url(#p16d2412414)" style="fill: none; stroke: #2ca02c; stroke-opacity: 0.55; stroke-width: 1.1; stroke-linecap: square"/>
   </g>
   <g id="line2d_15">
    <path d="M 212.899655 150.2208 
L 366.054828 150.126039 
L 379.08931 149.902436 
L 388.865172 149.510493 
L 397.011724 148.927701 
L 403.528966 148.225624 
L 410.046207 147.264618 
L 416.563448 146.014679 
L 423.08069 144.473909 
L 429.597931 142.680567 
L 441.003103 139.219298 
L 449.149655 136.865795 
L 454.037586 135.667558 
L 458.925517 134.719225 
L 463.813448 134.08122 
L 467.072069 133.849995 
L 470.33069 133.782836 
L 473.58931 133.881775 
L 476.847931 134.143822 
L 481.735862 134.824295 
L 486.623793 135.80827 
L 491.511724 137.033416 
L 498.028966 138.914588 
L 514.322069 143.775902 
L 520.83931 145.425931 
L 527.356552 146.795189 
L 533.873793 147.870626 
L 540.391034 148.672474 
L 546.908276 149.241252 
L 555.054828 149.698728 
L 564.83069 149.995128 
L 579.494483 150.166743 
L 610.451379 150.219451 
L 700.063448 150.2208 
L 700.063448 150.2208 
" clip-path="url(#p16d2412414)" style="fill: none; stroke: #2ca02c; stroke-opacity: 0.55; stroke-width: 1.1; stroke-linecap: square"/>
   </g>
   <g id="line2d_16">
    <path d="M 212.899655 150.2208 
L 372.572069 150.117812 
L 383.977241 149.885174 
L 392.123793 149.522972 
L 398.641034 149.048841 
L 405.158276 148.366563 
L 411.675517 147.457001 
L 418.192759 146.339867 
L 439.373793 142.473828 
L 444.261724 141.911953 
L 449.149655 141.603438 
L 454.037586 141.578432 
L 458.925517 141.839411 
L 463.813448 142.360774 
L 468.701379 143.092978 
L 476.847931 144.600119 
L 489.882414 147.054821 
L 496.399655 148.048097 
L 502.916897 148.816107 
L 509.434138 149.365239 
L 517.58069 149.797499 
L 527.356552 150.059926 
L 542.020345 150.191496 
L 582.753103 150.220747 
L 700.063448 150.2208 
L 700.063448 150.2208 
" clip-path="url(#p16d2412414)" style="fill: none; stroke: #2ca02c; stroke-opacity: 0.55; stroke-width: 1.1; stroke-linecap: square"/>
   </g>
   <g id="line2d_17">
    <path d="M 212.899655 150.2208 
L 331.83931 150.123533 
L 344.873793 149.8995 
L 354.649655 149.535284 
L 362.796207 149.043405 
L 370.942759 148.358486 
L 382.347931 147.139483 
L 395.382414 145.72504 
L 401.899655 145.203228 
L 408.416897 144.908423 
L 414.934138 144.88513 
L 421.451379 145.136937 
L 427.968621 145.62561 
L 437.744483 146.643632 
L 454.037586 148.410337 
L 462.184138 149.082507 
L 470.33069 149.56171 
L 480.106552 149.913932 
L 493.141034 150.128721 
L 515.951379 150.214056 
L 664.218621 150.2208 
L 700.063448 150.2208 
L 700.063448 150.2208 
" clip-path="url(#p16d2412414)" style="fill: none; stroke: #2ca02c; stroke-opacity: 0.55; stroke-width: 1.1; stroke-linecap: square"/>
   </g>
   <g id="line2d_18">
    <path d="M 212.899655 150.2208 
L 313.916897 150.110344 
L 326.951379 149.872454 
L 336.727241 149.491786 
L 344.873793 148.976147 
L 353.020345 148.245743 
L 361.166897 147.30787 
L 387.235862 144.043987 
L 393.753103 143.590645 
L 398.641034 143.440558 
L 403.528966 143.467353 
L 408.416897 143.668937 
L 414.934138 144.181038 
L 423.08069 145.112976 
L 449.149655 148.39371 
L 457.296207 149.084491 
L 465.442759 149.563971 
L 475.218621 149.911878 
L 488.253103 150.124892 
L 511.063448 150.21291 
L 646.296207 150.2208 
L 700.063448 150.2208 
L 700.063448 150.2208 
" clip-path="url(#p16d2412414)" style="fill: none; stroke: #2ca02c; stroke-opacity: 0.55; stroke-width: 1.1; stroke-linecap: square"/>
   </g>
   <g id="line2d_19">
    <path d="M 212.899655 150.2208 
L 338.356552 150.114367 
L 357.908276 149.862827 
L 375.83069 149.401236 
L 413.304828 148.292737 
L 424.71 148.243908 
L 436.115172 148.404681 
L 452.408276 148.891044 
L 480.106552 149.752822 
L 498.028966 150.052207 
L 520.83931 150.189742 
L 577.865172 150.220734 
L 700.063448 150.2208 
L 700.063448 150.2208 
" clip-path="url(#p16d2412414)" style="fill: none; stroke: #2ca02c; stroke-opacity: 0.55; stroke-width: 1.1; stroke-linecap: square"/>
   </g>
   <g id="line2d_20">
    <path d="M 212.899655 150.2208 
L 397.011724 150.125756 
L 408.416897 149.910333 
L 416.563448 149.568651 
L 423.08069 149.110892 
L 429.597931 148.433106 
L 436.115172 147.495805 
L 442.632414 146.289786 
L 449.149655 144.85407 
L 467.072069 140.712211 
L 471.96 139.882472 
L 476.847931 139.323426 
L 480.106552 139.126746 
L 483.365172 139.081054 
L 486.623793 139.188225 
L 491.511724 139.624351 
L 496.399655 140.353891 
L 501.287586 141.31364 
L 509.434138 143.210246 
L 520.83931 145.882248 
L 527.356552 147.163445 
L 533.873793 148.181818 
L 540.391034 148.933893 
L 546.908276 149.452117 
L 555.054828 149.847257 
L 564.83069 150.080554 
L 581.123793 150.199996 
L 634.891034 150.220797 
L 700.063448 150.2208 
L 700.063448 150.2208 
" clip-path="url(#p16d2412414)" style="fill: none; stroke: #2ca02c; stroke-opacity: 0.55; stroke-width: 1.1; stroke-linecap: square"/>
   </g>
   <g id="line2d_21">
    <path d="M 212.899655 150.2208 
L 375.83069 150.116379 
L 390.494483 149.857657 
L 400.270345 149.481537 
L 408.416897 148.97857 
L 416.563448 148.268088 
L 424.71 147.34931 
L 436.115172 145.816272 
L 449.149655 144.101353 
L 455.666897 143.455141 
L 462.184138 143.053276 
L 467.072069 142.943048 
L 471.96 143.00645 
L 478.477241 143.351557 
L 484.994483 143.953483 
L 493.141034 144.957875 
L 515.951379 147.957564 
L 524.097931 148.745771 
L 532.244483 149.321501 
L 542.020345 149.76603 
L 553.425517 150.038994 
L 569.718621 150.18169 
L 608.822069 150.22047 
L 700.063448 150.2208 
L 700.063448 150.2208 
" clip-path="url(#p16d2412414)" style="fill: none; stroke: #2ca02c; stroke-opacity: 0.55; stroke-width: 1.1; stroke-linecap: square"/>
   </g>
   <g id="line2d_22">
    <path d="M 212.899655 150.2208 
L 387.235862 150.122734 
L 403.528966 149.895189 
L 416.563448 149.512429 
L 429.597931 148.91083 
L 462.184138 147.228163 
L 470.33069 147.081419 
L 478.477241 147.13 
L 488.253103 147.431086 
L 501.287586 148.10989 
L 524.097931 149.344258 
L 537.132414 149.796535 
L 551.796207 150.066357 
L 572.977241 150.195844 
L 633.261724 150.220787 
L 700.063448 150.2208 
L 700.063448 150.2208 
" clip-path="url(#p16d2412414)" style="fill: none; stroke: #2ca02c; stroke-opacity: 0.55; stroke-width: 1.1; stroke-linecap: square"/>
   </g>
   <g id="line2d_23">
    <path d="M 212.899655 150.2208 
L 322.063448 150.115139 
L 336.727241 149.885347 
L 348.132414 149.485235 
L 356.278966 149.007945 
L 364.425517 148.31965 
L 372.572069 147.387817 
L 380.718621 146.207595 
L 390.494483 144.519492 
L 411.675517 140.71972 
L 418.192759 139.842511 
L 423.08069 139.365079 
L 427.968621 139.0707 
L 432.856552 138.975113 
L 437.744483 139.083487 
L 442.632414 139.389964 
L 447.520345 139.878177 
L 454.037586 140.766846 
L 462.184138 142.147336 
L 486.623793 146.509565 
L 494.770345 147.632322 
L 502.916897 148.504511 
L 511.063448 149.138977 
L 520.83931 149.639204 
L 532.244483 149.963666 
L 546.908276 150.142975 
L 574.606552 150.215595 
L 700.063448 150.2208 
L 700.063448 150.2208 
" clip-path="url(#p16d2412414)" style="fill: none; stroke: #2ca02c; stroke-opacity: 0.55; stroke-width: 1.1; stroke-linecap: square"/>
   </g>
   <g id="line2d_24">
    <path d="M 212.899655 150.2208 
L 413.304828 150.120682 
L 427.968621 149.878162 
L 439.373793 149.478267 
L 450.778966 148.850377 
L 480.106552 147.051436 
L 488.253103 146.907377 
L 496.399655 147.029266 
L 504.546207 147.388496 
L 517.58069 148.247679 
L 533.873793 149.285771 
L 545.278966 149.764648 
L 558.313448 150.055807 
L 576.235862 150.191862 
L 623.485862 150.220756 
L 700.063448 150.2208 
L 700.063448 150.2208 
" clip-path="url(#p16d2412414)" style="fill: none; stroke: #2ca02c; stroke-opacity: 0.55; stroke-width: 1.1; stroke-linecap: square"/>
   </g>
   <g id="line2d_25">
    <path d="M 212.899655 150.2208 
L 700.063448 150.2208 
" clip-path="url(#p16d2412414)" style="fill: none; stroke: #999999; stroke-width: 0.4; stroke-linecap: square"/>
   </g>
   <g id="patch_19">
    <path d="M 212.899655 174.1824 
L 212.899655 48.384 
" style="fill: none; stroke: #444444; stroke-width: 0.8; stroke-linejoin: miter; stroke-linecap: square"/>
   </g>
   <g id="patch_20">
    <path d="M 212.899655 174.1824 
L 700.063448 174.1824 
" style="fill: none; stroke: #444444; stroke-width: 0.8; stroke-linejoin: miter; stroke-linecap: square"/>
   </g>
   <g id="line2d_26">
    <path d="M 212.899655 150.220793 
L 294.365172 150.124788 
L 307.399655 149.897194 
L 315.546207 149.570694 
L 322.063448 149.124817 
L 328.58069 148.432465 
L 333.468621 147.694496 
L 338.356552 146.718563 
L 343.244483 145.456638 
L 346.503103 144.433087 
L 349.761724 143.248552 
L 353.020345 141.891752 
L 356.278966 140.353603 
L 359.537586 138.627801 
L 362.796207 136.711326 
L 366.054828 134.60483 
L 369.313448 132.312852 
L 374.201379 128.5466 
L 379.08931 124.426496 
L 383.977241 120.010869 
L 390.494483 113.780076 
L 400.270345 104.018788 
L 418.192759 86.009665 
L 426.33931 78.145613 
L 431.227241 73.657839 
L 436.115172 69.451998 
L 439.373793 66.864959 
L 442.632414 64.501561 
L 445.891034 62.409503 
L 449.149655 60.638868 
L 452.408276 59.240078 
L 455.666897 58.261606 
L 457.296207 57.944016 
L 458.925517 57.747583 
L 460.554828 57.676758 
L 462.184138 57.735431 
L 463.813448 57.926875 
L 465.442759 58.253684 
L 467.072069 58.717729 
L 468.701379 59.320109 
L 470.33069 60.061123 
L 471.96 60.940242 
L 473.58931 61.956089 
L 476.847931 64.388214 
L 480.106552 67.329565 
L 483.365172 70.739238 
L 486.623793 74.564499 
L 489.882414 78.7425 
L 494.770345 85.514508 
L 501.287586 95.080392 
L 509.434138 107.033571 
L 514.322069 113.792971 
L 517.58069 118.01452 
L 520.83931 121.96295 
L 524.097931 125.611596 
L 527.356552 128.944345 
L 530.615172 131.954882 
L 533.873793 134.645572 
L 537.132414 137.026104 
L 540.391034 139.112004 
L 543.649655 140.923121 
L 546.908276 142.482191 
L 550.166897 143.813524 
L 553.425517 144.941892 
L 556.684138 145.891617 
L 561.572069 147.031526 
L 566.46 147.892331 
L 571.347931 148.535034 
L 577.865172 149.138517 
L 586.011724 149.611079 
L 595.787586 149.92375 
L 610.451379 150.126559 
L 636.520345 150.211145 
L 700.063448 150.220791 
L 700.063448 150.220791 
" clip-path="url(#p16d2412414)" style="fill: none; stroke: #1a1a1a; stroke-width: 2.4; stroke-linecap: square"/>
   </g>
  </g>
  <g id="axes_3">
   <g id="patch_21">
    <path d="M 46.8 344.52149 
L 185.989655 344.52149 
L 185.989655 255.44011 
L 46.8 255.44011 
L 46.8 344.52149 
z
" style="fill: none"/>
   </g>
   <g id="patch_22">
    <path d="M 60.718966 333.943076 
C 62.343161 333.943076 63.901052 333.297776 65.049531 332.149297 
C 66.198011 331.000817 66.84331 329.442926 66.84331 327.818731 
C 66.84331 326.194536 66.198011 324.636645 65.049531 323.488165 
C 63.901052 322.339686 62.343161 321.694386 60.718966 321.694386 
C 59.09477 321.694386 57.536879 322.339686 56.3884 323.488165 
C 55.23992 324.636645 54.594621 326.194536 54.594621 327.818731 
C 54.594621 329.442926 55.23992 331.000817 56.3884 332.149297 
C 57.536879 333.297776 59.09477 333.943076 60.718966 333.943076 
z
" clip-path="url(#p79cc27f7ba)" style="fill: #2ca02c; stroke: #1f7a1f; stroke-width: 0.5; stroke-linejoin: miter"/>
   </g>
   <g id="patch_23">
    <path d="M 85.773103 333.247128 
C 87.212731 333.247128 88.593589 332.675157 89.611559 331.657187 
C 90.62953 330.639217 91.2015 329.258359 91.2015 327.818731 
C 91.2015 326.379103 90.62953 324.998245 89.611559 323.980275 
C 88.593589 322.962305 87.212731 322.390334 85.773103 322.390334 
C 84.333476 322.390334 82.952618 322.962305 81.934647 323.980275 
C 80.916677 324.998245 80.344707 326.379103 80.344707 327.818731 
C 80.344707 329.258359 80.916677 330.639217 81.934647 331.657187 
C 82.952618 332.675157 84.333476 333.247128 85.773103 333.247128 
z
" clip-path="url(#p79cc27f7ba)" style="fill: #2ca02c; stroke: #1f7a1f; stroke-width: 0.5; stroke-linejoin: miter"/>
   </g>
   <g id="patch_24">
    <path d="M 110.827241 332.551179 
C 112.082301 332.551179 113.286126 332.052539 114.173588 331.165077 
C 115.061049 330.277616 115.55969 329.073791 115.55969 327.818731 
C 115.55969 326.563671 115.061049 325.359846 114.173588 324.472385 
C 113.286126 323.584923 112.082301 323.086283 110.827241 323.086283 
C 109.572181 323.086283 108.368357 323.584923 107.480895 324.472385 
C 106.593434 325.359846 106.094793 326.563671 106.094793 327.818731 
C 106.094793 329.073791 106.593434 330.277616 107.480895 331.165077 
C 108.368357 332.052539 109.572181 332.551179 110.827241 332.551179 
z
" clip-path="url(#p79cc27f7ba)" style="fill: #2ca02c; stroke: #1f7a1f; stroke-width: 0.5; stroke-linejoin: miter"/>
   </g>
   <g id="patch_25">
    <path d="M 135.881379 331.855231 
C 136.951872 331.855231 137.978663 331.42992 138.735616 330.672968 
C 139.492568 329.916015 139.917879 328.889223 139.917879 327.818731 
C 139.917879 326.748239 139.492568 325.721447 138.735616 324.964495 
C 137.978663 324.207542 136.951872 323.782231 135.881379 323.782231 
C 134.810887 323.782231 133.784095 324.207542 133.027143 324.964495 
C 132.27019 325.721447 131.844879 326.748239 131.844879 327.818731 
C 131.844879 328.889223 132.27019 329.916015 133.027143 330.672968 
C 133.784095 331.42992 134.810887 331.855231 135.881379 331.855231 
z
" clip-path="url(#p79cc27f7ba)" style="fill: #2ca02c; stroke: #1f7a1f; stroke-width: 0.5; stroke-linejoin: miter"/>
   </g>
   <g id="patch_26">
    <path d="M 160.935517 333.664697 
C 162.485885 333.664697 163.972963 333.048729 165.069239 331.952453 
C 166.165515 330.856177 166.781483 329.369099 166.781483 327.818731 
C 166.781483 326.268363 166.165515 324.781285 165.069239 323.685009 
C 163.972963 322.588733 162.485885 321.972766 160.935517 321.972766 
C 159.385149 321.972766 157.898071 322.588733 156.801795 323.685009 
C 155.70552 324.781285 155.089552 326.268363 155.089552 327.818731 
C 155.089552 329.369099 155.70552 330.856177 156.801795 331.952453 
C 157.898071 333.048729 159.385149 333.664697 160.935517 333.664697 
z
" clip-path="url(#p79cc27f7ba)" style="fill: #2ca02c; stroke: #1f7a1f; stroke-width: 0.5; stroke-linejoin: miter"/>
   </g>
   <g id="patch_27">
    <path d="M 60.718966 316.1268 
C 62.047853 316.1268 63.322491 315.598828 64.262156 314.659163 
C 65.201821 313.719498 65.729793 312.444859 65.729793 311.115972 
C 65.729793 309.787085 65.201821 308.512447 64.262156 307.572782 
C 63.322491 306.633117 62.047853 306.105145 60.718966 306.105145 
C 59.390079 306.105145 58.11544 306.633117 57.175775 307.572782 
C 56.23611 308.512447 55.708138 309.787085 55.708138 311.115972 
C 55.708138 312.444859 56.23611 313.719498 57.175775 314.659163 
C 58.11544 315.598828 59.390079 316.1268 60.718966 316.1268 
z
" clip-path="url(#p79cc27f7ba)" style="fill: #2ca02c; stroke: #1f7a1f; stroke-width: 0.5; stroke-linejoin: miter"/>
   </g>
   <g id="patch_28">
    <path d="M 85.773103 315.570041 
C 86.954336 315.570041 88.087348 315.100733 88.922606 314.265475 
C 89.757864 313.430217 90.227172 312.297205 90.227172 311.115972 
C 90.227172 309.93474 89.757864 308.801728 88.922606 307.96647 
C 88.087348 307.131212 86.954336 306.661903 85.773103 306.661903 
C 84.591871 306.661903 83.458859 307.131212 82.623601 307.96647 
C 81.788343 308.801728 81.319034 309.93474 81.319034 311.115972 
C 81.319034 312.297205 81.788343 313.430217 82.623601 314.265475 
C 83.458859 315.100733 84.591871 315.570041 85.773103 315.570041 
z
" clip-path="url(#p79cc27f7ba)" style="fill: #2ca02c; stroke: #1f7a1f; stroke-width: 0.5; stroke-linejoin: miter"/>
   </g>
   <g id="patch_29">
    <path d="M 110.827241 316.405179 
C 112.229955 316.405179 113.575407 315.847875 114.567275 314.856006 
C 115.559144 313.864138 116.116448 312.518686 116.116448 311.115972 
C 116.116448 309.713258 115.559144 308.367807 114.567275 307.375938 
C 113.575407 306.38407 112.229955 305.826766 110.827241 305.826766 
C 109.424527 305.826766 108.079076 306.38407 107.087207 307.375938 
C 106.095339 308.367807 105.538034 309.713258 105.538034 311.115972 
C 105.538034 312.518686 106.095339 313.864138 107.087207 314.856006 
C 108.079076 315.847875 109.424527 316.405179 110.827241 316.405179 
z
" clip-path="url(#p79cc27f7ba)" style="fill: #2ca02c; stroke: #1f7a1f; stroke-width: 0.5; stroke-linejoin: miter"/>
   </g>
   <g id="patch_30">
    <path d="M 135.881379 315.848421 
C 137.136439 315.848421 138.340264 315.34978 139.227726 314.462319 
C 140.115187 313.574857 140.613828 312.371032 140.613828 311.115972 
C 140.613828 309.860912 140.115187 308.657088 139.227726 307.769626 
C 138.340264 306.882165 137.136439 306.383524 135.881379 306.383524 
C 134.626319 306.383524 133.422494 306.882165 132.535033 307.769626 
C 131.647572 308.657088 131.148931 309.860912 131.148931 311.115972 
C 131.148931 312.371032 131.647572 313.574857 132.535033 314.462319 
C 133.422494 315.34978 134.626319 315.848421 135.881379 315.848421 
z
" clip-path="url(#p79cc27f7ba)" style="fill: #2ca02c; stroke: #1f7a1f; stroke-width: 0.5; stroke-linejoin: miter"/>
   </g>
   <g id="patch_31">
    <path d="M 160.935517 315.291662 
C 162.042923 315.291662 163.105122 314.851685 163.888176 314.068631 
C 164.67123 313.285577 165.111207 312.223378 165.111207 311.115972 
C 165.111207 310.008567 164.67123 308.946368 163.888176 308.163314 
C 163.105122 307.38026 162.042923 306.940283 160.935517 306.940283 
C 159.828111 306.940283 158.765913 307.38026 157.982859 308.163314 
C 157.199805 308.946368 156.759828 310.008567 156.759828 311.115972 
C 156.759828 312.223378 157.199805 313.285577 157.982859 314.068631 
C 158.765913 314.851685 159.828111 315.291662 160.935517 315.291662 
z
" clip-path="url(#p79cc27f7ba)" style="fill: #2ca02c; stroke: #1f7a1f; stroke-width: 0.5; stroke-linejoin: miter"/>
   </g>
   <g id="patch_32">
    <path d="M 60.718966 299.84161 
C 62.158593 299.84161 63.539451 299.26964 64.557422 298.25167 
C 65.575392 297.233699 66.147362 295.852841 66.147362 294.413214 
C 66.147362 292.973586 65.575392 291.592728 64.557422 290.574758 
C 63.539451 289.556787 62.158593 288.984817 60.718966 288.984817 
C 59.279338 288.984817 57.89848 289.556787 56.88051 290.574758 
C 55.862539 291.592728 55.290569 292.973586 55.290569 294.413214 
C 55.290569 295.852841 55.862539 297.233699 56.88051 298.25167 
C 57.89848 299.26964 59.279338 299.84161 60.718966 299.84161 
z
" clip-path="url(#p79cc27f7ba)" style="fill: #2ca02c; stroke: #1f7a1f; stroke-width: 0.5; stroke-linejoin: miter"/>
   </g>
   <g id="patch_33">
    <path d="M 85.773103 299.284852 
C 87.065077 299.284852 88.304308 298.771545 89.217872 297.857982 
C 90.131435 296.944419 90.644741 295.705187 90.644741 294.413214 
C 90.644741 293.12124 90.131435 291.882009 89.217872 290.968446 
C 88.304308 290.054882 87.065077 289.541576 85.773103 289.541576 
C 84.48113 289.541576 83.241898 290.054882 82.328335 290.968446 
C 81.414772 291.882009 80.901466 293.12124 80.901466 294.413214 
C 80.901466 295.705187 81.414772 296.944419 82.328335 297.857982 
C 83.241898 298.771545 84.48113 299.284852 85.773103 299.284852 
z
" clip-path="url(#p79cc27f7ba)" style="fill: #2ca02c; stroke: #1f7a1f; stroke-width: 0.5; stroke-linejoin: miter"/>
   </g>
   <g id="patch_34">
    <path d="M 110.827241 298.728093 
C 111.971561 298.728093 113.069166 298.27345 113.878322 297.464294 
C 114.687478 296.655138 115.142121 295.557533 115.142121 294.413214 
C 115.142121 293.268894 114.687478 292.171289 113.878322 291.362133 
C 113.069166 290.552977 111.971561 290.098334 110.827241 290.098334 
C 109.682922 290.098334 108.585317 290.552977 107.776161 291.362133 
C 106.967005 292.171289 106.512362 293.268894 106.512362 294.413214 
C 106.512362 295.557533 106.967005 296.655138 107.776161 297.464294 
C 108.585317 298.27345 109.682922 298.728093 110.827241 298.728093 
z
" clip-path="url(#p79cc27f7ba)" style="fill: #2ca02c; stroke: #1f7a1f; stroke-width: 0.5; stroke-linejoin: miter"/>
   </g>
   <g id="patch_35">
    <path d="M 135.881379 299.563231 
C 137.24718 299.563231 138.557225 299.020593 139.522991 298.054826 
C 140.488758 297.089059 141.031397 295.779014 141.031397 294.413214 
C 141.031397 293.047413 140.488758 291.737369 139.522991 290.771602 
C 138.557225 289.805835 137.24718 289.263197 135.881379 289.263197 
C 134.515579 289.263197 133.205534 289.805835 132.239767 290.771602 
C 131.274 291.737369 130.731362 293.047413 130.731362 294.413214 
C 130.731362 295.779014 131.274 297.089059 132.239767 298.054826 
C 133.205534 299.020593 134.515579 299.563231 135.881379 299.563231 
z
" clip-path="url(#p79cc27f7ba)" style="fill: #2ca02c; stroke: #1f7a1f; stroke-width: 0.5; stroke-linejoin: miter"/>
   </g>
   <g id="patch_36">
    <path d="M 160.935517 299.9808 
C 162.412058 299.9808 163.828323 299.394164 164.872395 298.350092 
C 165.916467 297.30602 166.503103 295.889755 166.503103 294.413214 
C 166.503103 292.936673 165.916467 291.520408 164.872395 290.476336 
C 163.828323 289.432264 162.412058 288.845628 160.935517 288.845628 
C 159.458976 288.845628 158.042712 289.432264 156.998639 290.476336 
C 155.954567 291.520408 155.367931 292.936673 155.367931 294.413214 
C 155.367931 295.889755 155.954567 297.30602 156.998639 298.350092 
C 158.042712 299.394164 159.458976 299.9808 160.935517 299.9808 
z
" clip-path="url(#p79cc27f7ba)" style="fill: #2ca02c; stroke: #1f7a1f; stroke-width: 0.5; stroke-linejoin: miter"/>
   </g>
   <g id="patch_37">
    <path d="M 60.718966 274.787472 
C 62.158593 274.787472 63.539451 274.215502 64.557422 273.197532 
C 65.575392 272.179561 66.147362 270.798703 66.147362 269.359076 
C 66.147362 267.919448 65.575392 266.53859 64.557422 265.52062 
C 63.539451 264.502649 62.158593 263.930679 60.718966 263.930679 
C 59.279338 263.930679 57.89848 264.502649 56.88051 265.52062 
C 55.862539 266.53859 55.290569 267.919448 55.290569 269.359076 
C 55.290569 270.798703 55.862539 272.179561 56.88051 273.197532 
C 57.89848 274.215502 59.279338 274.787472 60.718966 274.787472 
z
" clip-path="url(#p79cc27f7ba)" style="fill: #d62728; stroke: #7a1f1f; stroke-width: 0.5; stroke-linejoin: miter"/>
   </g>
   <g id="patch_38">
    <path d="M 85.773103 274.091524 
C 87.028163 274.091524 88.231988 273.592884 89.11945 272.705422 
C 90.006911 271.817961 90.505552 270.614136 90.505552 269.359076 
C 90.505552 268.104016 90.006911 266.900191 89.11945 266.01273 
C 88.231988 265.125268 87.028163 264.626628 85.773103 264.626628 
C 84.518043 264.626628 83.314219 265.125268 82.426757 266.01273 
C 81.539296 266.900191 81.040655 268.104016 81.040655 269.359076 
C 81.040655 270.614136 81.539296 271.817961 82.426757 272.705422 
C 83.314219 273.592884 84.518043 274.091524 85.773103 274.091524 
z
" clip-path="url(#p79cc27f7ba)" style="fill: #d62728; stroke: #7a1f1f; stroke-width: 0.5; stroke-linejoin: miter"/>
   </g>
   <g id="patch_39">
    <path d="M 110.827241 273.673955 
C 111.971561 273.673955 113.069166 273.219312 113.878322 272.410156 
C 114.687478 271.601 115.142121 270.503395 115.142121 269.359076 
C 115.142121 268.214756 114.687478 267.117151 113.878322 266.307995 
C 113.069166 265.498839 111.971561 265.044197 110.827241 265.044197 
C 109.682922 265.044197 108.585317 265.498839 107.776161 266.307995 
C 106.967005 267.117151 106.512362 268.214756 106.512362 269.359076 
C 106.512362 270.503395 106.967005 271.601 107.776161 272.410156 
C 108.585317 273.219312 109.682922 273.673955 110.827241 273.673955 
z
" clip-path="url(#p79cc27f7ba)" style="fill: #d62728; stroke: #7a1f1f; stroke-width: 0.5; stroke-linejoin: miter"/>
   </g>
   <g id="patch_40">
    <path d="M 135.881379 274.369903 
C 137.210266 274.369903 138.484904 273.841931 139.424569 272.902266 
C 140.364234 271.962601 140.892207 270.687963 140.892207 269.359076 
C 140.892207 268.030189 140.364234 266.755551 139.424569 265.815886 
C 138.484904 264.876221 137.210266 264.348248 135.881379 264.348248 
C 134.552492 264.348248 133.277854 264.876221 132.338189 265.815886 
C 131.398524 266.755551 130.870552 268.030189 130.870552 269.359076 
C 130.870552 270.687963 131.398524 271.962601 132.338189 272.902266 
C 133.277854 273.841931 134.552492 274.369903 135.881379 274.369903 
z
" clip-path="url(#p79cc27f7ba)" style="fill: #d62728; stroke: #7a1f1f; stroke-width: 0.5; stroke-linejoin: miter"/>
   </g>
   <g id="patch_41">
    <path d="M 160.935517 273.952334 
C 162.153664 273.952334 163.322082 273.46836 164.183442 272.607 
C 165.044801 271.745641 165.528776 270.577222 165.528776 269.359076 
C 165.528776 268.140929 165.044801 266.972511 164.183442 266.111152 
C 163.322082 265.249792 162.153664 264.765817 160.935517 264.765817 
C 159.717371 264.765817 158.548953 265.249792 157.687593 266.111152 
C 156.826233 266.972511 156.342259 268.140929 156.342259 269.359076 
C 156.342259 270.577222 156.826233 271.745641 157.687593 272.607 
C 158.548953 273.46836 159.717371 273.952334 160.935517 273.952334 
z
" clip-path="url(#p79cc27f7ba)" style="fill: #d62728; stroke: #7a1f1f; stroke-width: 0.5; stroke-linejoin: miter"/>
   </g>
   <g id="matplotlib.axis_5"/>
   <g id="matplotlib.axis_6"/>
   <g id="text_8">
    <text style="font-style: italic; font-size: 8.5px; font-family: 'DejaVu Sans', 'Bitstream Vera Sans', 'Computer Modern Sans Serif', 'Lucida Grande', 'Verdana', 'Geneva', 'Lucid', 'Arial', 'Helvetica', 'Avant Garde', sans-serif; text-anchor: middle; fill: #555555" x="116.394828" y="343.129593" transform="rotate(-0 116.394828 343.129593)">15 positive + 5 negative</text>
   </g>
   <g id="text_9">
    <text style="font-size: 11.5px; font-family: 'DejaVu Sans', 'Bitstream Vera Sans', 'Computer Modern Sans Serif', 'Lucida Grande', 'Verdana', 'Geneva', 'Lucid', 'Arial', 'Helvetica', 'Avant Garde', sans-serif; text-anchor: start; fill: #222222" x="46.8" y="249.44011" transform="rotate(-0 46.8 249.44011)">Mixed polarities</text>
   </g>
  </g>
  <g id="axes_4">
   <g id="patch_42">
    <path d="M 212.899655 362.88 
L 700.063448 362.88 
L 700.063448 237.0816 
L 212.899655 237.0816 
L 212.899655 362.88 
z
" style="fill: none"/>
   </g>
   <g id="matplotlib.axis_7">
    <g id="xtick_6">
     <g id="line2d_27">
      <g>
       <use xlink:href="#m247c5f10b4" x="212.899655" y="362.88" style="stroke: #000000; stroke-width: 0.8"/>
      </g>
     </g>
     <g id="text_10">
      <text style="font-size: 8.5px; font-family: 'DejaVu Sans', 'Bitstream Vera Sans', 'Computer Modern Sans Serif', 'Lucida Grande', 'Verdana', 'Geneva', 'Lucid', 'Arial', 'Helvetica', 'Avant Garde', sans-serif; text-anchor: middle" x="212.899655" y="376.338672" transform="rotate(-0 212.899655 376.338672)">0.0</text>
     </g>
    </g>
    <g id="xtick_7">
     <g id="line2d_28">
      <g>
       <use xlink:href="#m247c5f10b4" x="334.690603" y="362.88" style="stroke: #000000; stroke-width: 0.8"/>
      </g>
     </g>
     <g id="text_11">
      <text style="font-size: 8.5px; font-family: 'DejaVu Sans', 'Bitstream Vera Sans', 'Computer Modern Sans Serif', 'Lucida Grande', 'Verdana', 'Geneva', 'Lucid', 'Arial', 'Helvetica', 'Avant Garde', sans-serif; text-anchor: middle" x="334.690603" y="376.338672" transform="rotate(-0 334.690603 376.338672)">0.5</text>
     </g>
    </g>
    <g id="xtick_8">
     <g id="line2d_29">
      <g>
       <use xlink:href="#m247c5f10b4" x="456.481552" y="362.88" style="stroke: #000000; stroke-width: 0.8"/>
      </g>
     </g>
     <g id="text_12">
      <text style="font-size: 8.5px; font-family: 'DejaVu Sans', 'Bitstream Vera Sans', 'Computer Modern Sans Serif', 'Lucida Grande', 'Verdana', 'Geneva', 'Lucid', 'Arial', 'Helvetica', 'Avant Garde', sans-serif; text-anchor: middle" x="456.481552" y="376.338672" transform="rotate(-0 456.481552 376.338672)">1.0</text>
     </g>
    </g>
    <g id="xtick_9">
     <g id="line2d_30">
      <g>
       <use xlink:href="#m247c5f10b4" x="578.2725" y="362.88" style="stroke: #000000; stroke-width: 0.8"/>
      </g>
     </g>
     <g id="text_13">
      <text style="font-size: 8.5px; font-family: 'DejaVu Sans', 'Bitstream Vera Sans', 'Computer Modern Sans Serif', 'Lucida Grande', 'Verdana', 'Geneva', 'Lucid', 'Arial', 'Helvetica', 'Avant Garde', sans-serif; text-anchor: middle" x="578.2725" y="376.338672" transform="rotate(-0 578.2725 376.338672)">1.5</text>
     </g>
    </g>
    <g id="xtick_10">
     <g id="line2d_31">
      <g>
       <use xlink:href="#m247c5f10b4" x="700.063448" y="362.88" style="stroke: #000000; stroke-width: 0.8"/>
      </g>
     </g>
     <g id="text_14">
      <text style="font-size: 8.5px; font-family: 'DejaVu Sans', 'Bitstream Vera Sans', 'Computer Modern Sans Serif', 'Lucida Grande', 'Verdana', 'Geneva', 'Lucid', 'Arial', 'Helvetica', 'Avant Garde', sans-serif; text-anchor: middle" x="700.063448" y="376.338672" transform="rotate(-0 700.063448 376.338672)">2.0</text>
     </g>
    </g>
    <g id="text_15">
     <text style="font-size: 9.5px; font-family: 'DejaVu Sans', 'Bitstream Vera Sans', 'Computer Modern Sans Serif', 'Lucida Grande', 'Verdana', 'Geneva', 'Lucid', 'Arial', 'Helvetica', 'Avant Garde', sans-serif; text-anchor: middle" x="456.481552" y="389.324922" transform="rotate(-0 456.481552 389.324922)">time (s)</text>
    </g>
   </g>
   <g id="matplotlib.axis_8">
    <g id="ytick_5">
     <g id="line2d_32">
      <g>
       <use xlink:href="#ma714749a1b" x="212.899655" y="338.9184" style="stroke: #000000; stroke-width: 0.8"/>
      </g>
     </g>
     <g id="text_16">
      <text style="font-size: 8.5px; font-family: 'DejaVu Sans', 'Bitstream Vera Sans', 'Computer Modern Sans Serif', 'Lucida Grande', 'Verdana', 'Geneva', 'Lucid', 'Arial', 'Helvetica', 'Avant Garde', sans-serif; text-anchor: end" x="205.899655" y="342.147736" transform="rotate(-0 205.899655 342.147736)">0</text>
     </g>
    </g>
    <g id="ytick_6">
     <g id="line2d_33">
      <g>
       <use xlink:href="#ma714749a1b" x="212.899655" y="308.9664" style="stroke: #000000; stroke-width: 0.8"/>
      </g>
     </g>
     <g id="text_17">
      <text style="font-size: 8.5px; font-family: 'DejaVu Sans', 'Bitstream Vera Sans', 'Computer Modern Sans Serif', 'Lucida Grande', 'Verdana', 'Geneva', 'Lucid', 'Arial', 'Helvetica', 'Avant Garde', sans-serif; text-anchor: end" x="205.899655" y="312.195736" transform="rotate(-0 205.899655 312.195736)">5</text>
     </g>
    </g>
    <g id="ytick_7">
     <g id="line2d_34">
      <g>
       <use xlink:href="#ma714749a1b" x="212.899655" y="279.0144" style="stroke: #000000; stroke-width: 0.8"/>
      </g>
     </g>
     <g id="text_18">
      <text style="font-size: 8.5px; font-family: 'DejaVu Sans', 'Bitstream Vera Sans', 'Computer Modern Sans Serif', 'Lucida Grande', 'Verdana', 'Geneva', 'Lucid', 'Arial', 'Helvetica', 'Avant Garde', sans-serif; text-anchor: end" x="205.899655" y="282.243736" transform="rotate(-0 205.899655 282.243736)">10</text>
     </g>
    </g>
    <g id="ytick_8">
     <g id="line2d_35">
      <g>
       <use xlink:href="#ma714749a1b" x="212.899655" y="249.0624" style="stroke: #000000; stroke-width: 0.8"/>
      </g>
     </g>
     <g id="text_19">
      <text style="font-size: 8.5px; font-family: 'DejaVu Sans', 'Bitstream Vera Sans', 'Computer Modern Sans Serif', 'Lucida Grande', 'Verdana', 'Geneva', 'Lucid', 'Arial', 'Helvetica', 'Avant Garde', sans-serif; text-anchor: end" x="205.899655" y="252.291736" transform="rotate(-0 205.899655 252.291736)">15</text>
     </g>
    </g>
    <g id="text_20">
     <text style="font-size: 9px; font-family: 'DejaVu Sans', 'Bitstream Vera Sans', 'Computer Modern Sans Serif', 'Lucida Grande', 'Verdana', 'Geneva', 'Lucid', 'Arial', 'Helvetica', 'Avant Garde', sans-serif; text-anchor: middle" x="189.211686" y="299.9808" transform="rotate(-90 189.211686 299.9808)">fluorescence (a.u.)</text>
    </g>
   </g>
   <g id="line2d_36">
    <path d="M 212.899655 338.9184 
L 331.83931 338.818417 
L 348.132414 338.582722 
L 359.537586 338.22865 
L 370.942759 337.64251 
L 380.718621 336.930277 
L 393.753103 335.733358 
L 411.675517 334.0522 
L 419.822069 333.503412 
L 426.33931 333.243539 
L 432.856552 333.171841 
L 439.373793 333.295565 
L 447.520345 333.7043 
L 457.296207 334.481228 
L 491.511724 337.545148 
L 501.287586 338.092813 
L 512.692759 338.504822 
L 527.356552 338.772684 
L 548.537586 338.894638 
L 612.08069 338.918388 
L 700.063448 338.9184 
L 700.063448 338.9184 
" clip-path="url(#p617b4d53db)" style="fill: none; stroke: #2ca02c; stroke-opacity: 0.55; stroke-width: 1.1; stroke-linecap: square"/>
   </g>
   <g id="line2d_37">
    <path d="M 212.899655 338.918399 
L 338.356552 338.816652 
L 359.537586 338.568403 
L 374.201379 338.19167 
L 387.235862 337.641263 
L 400.270345 336.847772 
L 413.304828 335.82122 
L 452.408276 332.527552 
L 462.184138 332.07948 
L 470.33069 331.928473 
L 478.477241 331.995537 
L 486.623793 332.274441 
L 496.399655 332.851744 
L 507.804828 333.766003 
L 543.649655 336.854916 
L 556.684138 337.646469 
L 569.718621 338.195087 
L 584.382414 338.570295 
L 602.304828 338.794419 
L 631.632414 338.90192 
L 700.063448 338.91837 
L 700.063448 338.91837 
" clip-path="url(#p617b4d53db)" style="fill: none; stroke: #2ca02c; stroke-opacity: 0.55; stroke-width: 1.1; stroke-linecap: square"/>
   </g>
   <g id="line2d_38">
    <path d="M 212.899655 338.9184 
L 370.942759 338.8181 
L 387.235862 338.594133 
L 400.270345 338.194568 
L 410.046207 337.697154 
L 419.822069 336.993112 
L 429.597931 336.082342 
L 444.261724 334.453805 
L 457.296207 333.0397 
L 465.442759 332.351497 
L 471.96 331.982744 
L 478.477241 331.810926 
L 484.994483 331.851257 
L 491.511724 332.100144 
L 499.658276 332.669704 
L 509.434138 333.630154 
L 540.391034 336.926084 
L 550.166897 337.647604 
L 559.942759 338.161009 
L 571.347931 338.538338 
L 586.011724 338.781664 
L 608.822069 338.89782 
L 683.770345 338.918397 
L 700.063448 338.9184 
L 700.063448 338.9184 
" clip-path="url(#p617b4d53db)" style="fill: none; stroke: #2ca02c; stroke-opacity: 0.55; stroke-width: 1.1; stroke-linecap: square"/>
   </g>
   <g id="line2d_39">
    <path d="M 212.899655 338.9184 
L 390.494483 338.814434 
L 413.304828 338.567487 
L 434.485862 338.11487 
L 473.58931 337.186903 
L 488.253103 337.128601 
L 502.916897 337.308376 
L 524.097931 337.837273 
L 551.796207 338.503733 
L 572.977241 338.77579 
L 602.304828 338.898243 
L 691.916897 338.918398 
L 700.063448 338.918399 
L 700.063448 338.918399 
" clip-path="url(#p617b4d53db)" style="fill: none; stroke: #2ca02c; stroke-opacity: 0.55; stroke-width: 1.1; stroke-linecap: square"/>
   </g>
   <g id="line2d_40">
    <path d="M 212.899655 338.9184 
L 370.942759 338.813188 
L 388.865172 338.558737 
L 401.899655 338.159225 
L 413.304828 337.599652 
L 426.33931 336.711022 
L 458.925517 334.261191 
L 467.072069 333.94419 
L 475.218621 333.856228 
L 483.365172 334.009727 
L 491.511724 334.383103 
L 501.287586 335.048722 
L 537.132414 337.726099 
L 548.537586 338.244645 
L 561.572069 338.605907 
L 577.865172 338.817889 
L 605.563448 338.909022 
L 700.063448 338.9184 
L 700.063448 338.9184 
" clip-path="url(#p617b4d53db)" style="fill: none; stroke: #2ca02c; stroke-opacity: 0.55; stroke-width: 1.1; stroke-linecap: square"/>
   </g>
   <g id="line2d_41">
    <path d="M 212.899655 338.9184 
L 357.908276 338.821547 
L 370.942759 338.597344 
L 380.718621 338.219538 
L 388.865172 337.683878 
L 397.011724 336.889162 
L 405.158276 335.814603 
L 413.304828 334.500862 
L 431.227241 331.465444 
L 437.744483 330.650415 
L 442.632414 330.24742 
L 447.520345 330.057493 
L 452.408276 330.095128 
L 457.296207 330.357435 
L 462.184138 330.824511 
L 468.701379 331.704721 
L 476.847931 333.063626 
L 491.511724 335.564604 
L 499.658276 336.693431 
L 506.175517 337.397023 
L 514.322069 338.031791 
L 522.468621 338.437612 
L 532.244483 338.708633 
L 546.908276 338.868629 
L 579.494483 338.917517 
L 700.063448 338.9184 
L 700.063448 338.9184 
" clip-path="url(#p617b4d53db)" style="fill: none; stroke: #2ca02c; stroke-opacity: 0.55; stroke-width: 1.1; stroke-linecap: square"/>
   </g>
   <g id="line2d_42">
    <path d="M 212.899655 338.9184 
L 380.718621 338.820626 
L 393.753103 338.572718 
L 403.528966 338.156776 
L 411.675517 337.591243 
L 419.822069 336.812373 
L 432.856552 335.289303 
L 442.632414 334.254235 
L 449.149655 333.802619 
L 454.037586 333.646751 
L 458.925517 333.666087 
L 465.442759 333.9586 
L 471.96 334.507086 
L 481.735862 335.611239 
L 494.770345 337.091964 
L 502.916897 337.802526 
L 511.063448 338.297551 
L 520.83931 338.64689 
L 533.873793 338.845317 
L 556.684138 338.914269 
L 700.063448 338.9184 
L 700.063448 338.9184 
" clip-path="url(#p617b4d53db)" style="fill: none; stroke: #2ca02c; stroke-opacity: 0.55; stroke-width: 1.1; stroke-linecap: square"/>
   </g>
   <g id="line2d_43">
    <path d="M 212.899655 338.9184 
L 361.166897 338.812287 
L 377.46 338.579047 
L 388.865172 338.230848 
L 398.641034 337.744854 
L 408.416897 337.041675 
L 418.192759 336.106454 
L 429.597931 334.767708 
L 452.408276 331.987121 
L 460.554828 331.279794 
L 467.072069 330.926912 
L 473.58931 330.796343 
L 480.106552 330.899233 
L 486.623793 331.226788 
L 494.770345 331.908793 
L 504.546207 333.011372 
L 532.244483 336.364935 
L 542.020345 337.242127 
L 551.796207 337.887384 
L 563.201379 338.379826 
L 576.235862 338.688372 
L 594.158276 338.859294 
L 630.003103 338.916377 
L 700.063448 338.9184 
L 700.063448 338.9184 
" clip-path="url(#p617b4d53db)" style="fill: none; stroke: #2ca02c; stroke-opacity: 0.55; stroke-width: 1.1; stroke-linecap: square"/>
   </g>
   <g id="line2d_44">
    <path d="M 212.899655 338.9184 
L 325.322069 338.816678 
L 343.244483 338.565667 
L 356.278966 338.153946 
L 366.054828 337.648215 
L 375.83069 336.934789 
L 385.606552 336.006878 
L 398.641034 334.508248 
L 416.563448 332.398333 
L 424.71 331.648718 
L 431.227241 331.229518 
L 437.744483 331.007173 
L 444.261724 330.999636 
L 450.778966 331.207521 
L 457.296207 331.614022 
L 465.442759 332.3516 
L 476.847931 333.655575 
L 498.028966 336.129389 
L 507.804828 337.032409 
L 517.58069 337.719721 
L 527.356552 338.202355 
L 538.761724 338.555445 
L 553.425517 338.784555 
L 577.865172 338.899784 
L 660.96 338.918399 
L 700.063448 338.9184 
L 700.063448 338.9184 
" clip-path="url(#p617b4d53db)" style="fill: none; stroke: #2ca02c; stroke-opacity: 0.55; stroke-width: 1.1; stroke-linecap: square"/>
   </g>
   <g id="line2d_45">
    <path d="M 212.899655 338.918397 
L 328.58069 338.817194 
L 351.391034 338.560706 
L 367.684138 338.166164 
L 382.347931 337.606533 
L 400.270345 336.679528 
L 429.597931 335.114368 
L 441.003103 334.753522 
L 450.778966 334.643003 
L 460.554828 334.733267 
L 471.96 335.074171 
L 484.994483 335.695583 
L 527.356552 337.904624 
L 543.649655 338.406075 
L 561.572069 338.710772 
L 586.011724 338.871564 
L 638.149655 338.917676 
L 700.063448 338.918399 
L 700.063448 338.918399 
" clip-path="url(#p617b4d53db)" style="fill: none; stroke: #2ca02c; stroke-opacity: 0.55; stroke-width: 1.1; stroke-linecap: square"/>
   </g>
   <g id="line2d_46">
    <path d="M 212.899655 338.9184 
L 393.753103 338.814485 
L 413.304828 338.577499 
L 427.968621 338.199401 
L 441.003103 337.660686 
L 455.666897 336.819931 
L 491.511724 334.568185 
L 501.287586 334.252027 
L 511.063448 334.181436 
L 520.83931 334.367759 
L 530.615172 334.781291 
L 543.649655 335.574318 
L 574.606552 337.556489 
L 587.641034 338.127649 
L 602.304828 338.536871 
L 620.227241 338.786117 
L 647.925517 338.900525 
L 700.063448 338.918276 
L 700.063448 338.918276 
" clip-path="url(#p617b4d53db)" style="fill: none; stroke: #2ca02c; stroke-opacity: 0.55; stroke-width: 1.1; stroke-linecap: square"/>
   </g>
   <g id="line2d_47">
    <path d="M 212.899655 338.9184 
L 397.011724 338.812123 
L 408.416897 338.572635 
L 416.563448 338.207795 
L 424.71 337.599483 
L 431.227241 336.908276 
L 439.373793 335.81279 
L 457.296207 333.269153 
L 462.184138 332.81348 
L 467.072069 332.558703 
L 471.96 332.531946 
L 476.847931 332.736098 
L 481.735862 333.149306 
L 488.253103 333.949432 
L 512.692759 337.330445 
L 519.21 337.915053 
L 527.356552 338.402714 
L 537.132414 338.715592 
L 550.166897 338.87189 
L 579.494483 338.917748 
L 700.063448 338.9184 
L 700.063448 338.9184 
" clip-path="url(#p617b4d53db)" style="fill: none; stroke: #2ca02c; stroke-opacity: 0.55; stroke-width: 1.1; stroke-linecap: square"/>
   </g>
   <g id="line2d_48">
    <path d="M 212.899655 338.9184 
L 395.382414 338.807592 
L 416.563448 338.543385 
L 434.485862 338.083412 
L 455.666897 337.282051 
L 476.847931 336.533104 
L 489.882414 336.321975 
L 501.287586 336.367593 
L 514.322069 336.668061 
L 533.873793 337.407135 
L 556.684138 338.227843 
L 574.606552 338.625059 
L 595.787586 338.837248 
L 630.003103 338.912951 
L 700.063448 338.918398 
L 700.063448 338.918398 
" clip-path="url(#p617b4d53db)" style="fill: none; stroke: #2ca02c; stroke-opacity: 0.55; stroke-width: 1.1; stroke-linecap: square"/>
   </g>
   <g id="line2d_49">
    <path d="M 212.899655 338.9184 
L 408.416897 338.821398 
L 424.71 338.570042 
L 436.115172 338.191185 
L 447.520345 337.586574 
L 460.554828 336.652935 
L 478.477241 335.360965 
L 486.623793 334.993684 
L 494.770345 334.86823 
L 502.916897 335.008804 
L 511.063448 335.388324 
L 522.468621 336.183343 
L 543.649655 337.715225 
L 555.054828 338.277079 
L 566.46 338.618505 
L 581.123793 338.825287 
L 605.563448 338.910205 
L 700.063448 338.9184 
L 700.063448 338.9184 
" clip-path="url(#p617b4d53db)" style="fill: none; stroke: #2ca02c; stroke-opacity: 0.55; stroke-width: 1.1; stroke-linecap: square"/>
   </g>
   <g id="line2d_50">
    <path d="M 212.899655 338.917658 
L 276.442759 338.809374 
L 295.994483 338.567933 
L 310.658276 338.167314 
L 322.063448 337.647959 
L 333.468621 336.89231 
L 343.244483 336.033961 
L 354.649655 334.794612 
L 369.313448 332.929794 
L 387.235862 330.639339 
L 397.011724 329.626631 
L 405.158276 329.021079 
L 411.675517 328.730998 
L 418.192759 328.63201 
L 424.71 328.729759 
L 431.227241 329.018673 
L 439.373793 329.62296 
L 447.520345 330.448551 
L 458.925517 331.848478 
L 484.994483 335.167869 
L 496.399655 336.338236 
L 506.175517 337.131649 
L 517.58069 337.816482 
L 528.985862 338.277672 
L 543.649655 338.625742 
L 563.201379 338.829912 
L 597.416897 338.911205 
L 700.063448 338.9184 
L 700.063448 338.9184 
" clip-path="url(#p617b4d53db)" style="fill: none; stroke: #2ca02c; stroke-opacity: 0.55; stroke-width: 1.1; stroke-linecap: square"/>
   </g>
   <g id="line2d_51">
    <path d="M 212.899655 338.9184 
L 436.115172 339.021256 
L 450.778966 339.274337 
L 462.184138 339.703608 
L 471.96 340.288569 
L 483.365172 341.195267 
L 499.658276 342.528292 
L 507.804828 342.962911 
L 514.322069 343.10657 
L 520.83931 343.044578 
L 527.356552 342.785958 
L 535.503103 342.244031 
L 568.08931 339.753196 
L 577.865172 339.350936 
L 589.270345 339.09272 
L 607.192759 338.94911 
L 652.813448 338.918468 
L 700.063448 338.9184 
L 700.063448 338.9184 
" clip-path="url(#p617b4d53db)" style="fill: none; stroke: #d62728; stroke-opacity: 0.55; stroke-width: 1.1; stroke-linecap: square"/>
   </g>
   <g id="line2d_52">
    <path d="M 212.899655 338.9184 
L 364.425517 339.020102 
L 380.718621 339.255432 
L 392.123793 339.616031 
L 401.899655 340.128429 
L 411.675517 340.880641 
L 421.451379 341.893457 
L 431.227241 343.135604 
L 457.296207 346.614672 
L 463.813448 347.219483 
L 470.33069 347.608109 
L 476.847931 347.747 
L 483.365172 347.623918 
L 489.882414 347.249715 
L 496.399655 346.656755 
L 504.546207 345.684041 
L 520.83931 343.413795 
L 532.244483 341.93978 
L 542.020345 340.916635 
L 551.796207 340.153989 
L 561.572069 339.632712 
L 572.977241 339.26459 
L 587.641034 339.037644 
L 612.08069 338.932818 
L 700.063448 338.9184 
L 700.063448 338.9184 
" clip-path="url(#p617b4d53db)" style="fill: none; stroke: #d62728; stroke-opacity: 0.55; stroke-width: 1.1; stroke-linecap: square"/>
   </g>
   <g id="line2d_53">
    <path d="M 212.899655 338.9184 
L 341.615172 339.025342 
L 357.908276 339.273314 
L 370.942759 339.703502 
L 382.347931 340.312023 
L 395.382414 341.257163 
L 418.192759 342.97822 
L 426.33931 343.350044 
L 434.485862 343.485398 
L 442.632414 343.361691 
L 450.778966 342.999589 
L 460.554828 342.334223 
L 489.882414 340.13652 
L 501.287586 339.585316 
L 514.322069 339.210208 
L 530.615172 339.002813 
L 558.313448 338.924442 
L 700.063448 338.9184 
L 700.063448 338.9184 
" clip-path="url(#p617b4d53db)" style="fill: none; stroke: #d62728; stroke-opacity: 0.55; stroke-width: 1.1; stroke-linecap: square"/>
   </g>
   <g id="line2d_54">
    <path d="M 212.899655 338.9184 
L 344.873793 339.022137 
L 362.796207 339.276413 
L 375.83069 339.681384 
L 387.235862 340.257429 
L 398.641034 341.05973 
L 414.934138 342.482189 
L 429.597931 343.710844 
L 437.744483 344.205081 
L 445.891034 344.480089 
L 454.037586 344.498318 
L 462.184138 344.257235 
L 470.33069 343.7899 
L 481.735862 342.875283 
L 507.804828 340.653392 
L 519.21 339.956665 
L 530.615172 339.484558 
L 543.649655 339.171037 
L 561.572069 338.986716 
L 595.787586 338.921374 
L 700.063448 338.9184 
L 700.063448 338.9184 
" clip-path="url(#p617b4d53db)" style="fill: none; stroke: #d62728; stroke-opacity: 0.55; stroke-width: 1.1; stroke-linecap: square"/>
   </g>
   <g id="line2d_55">
    <path d="M 212.899655 338.9184 
L 375.83069 339.027388 
L 390.494483 339.267241 
L 401.899655 339.665492 
L 411.675517 340.217184 
L 421.451379 340.977599 
L 436.115172 342.377305 
L 447.520345 343.404835 
L 455.666897 343.92168 
L 462.184138 344.13199 
L 468.701379 344.133237 
L 475.218621 343.925269 
L 483.365172 343.410738 
L 493.141034 342.543267 
L 514.322069 340.578656 
L 524.097931 339.919147 
L 533.873793 339.468539 
L 545.278966 339.162044 
L 561.572069 338.979635 
L 592.528966 338.920595 
L 700.063448 338.9184 
L 700.063448 338.9184 
" clip-path="url(#p617b4d53db)" style="fill: none; stroke: #d62728; stroke-opacity: 0.55; stroke-width: 1.1; stroke-linecap: square"/>
   </g>
   <g id="line2d_56">
    <path d="M 212.899655 338.9184 
L 700.063448 338.9184 
" clip-path="url(#p617b4d53db)" style="fill: none; stroke: #999999; stroke-width: 0.4; stroke-linecap: square"/>
   </g>
   <g id="patch_43">
    <path d="M 212.899655 362.88 
L 212.899655 237.0816 
" style="fill: none; stroke: #444444; stroke-width: 0.8; stroke-linejoin: miter; stroke-linecap: square"/>
   </g>
   <g id="patch_44">
    <path d="M 212.899655 362.88 
L 700.063448 362.88 
" style="fill: none; stroke: #444444; stroke-width: 0.8; stroke-linejoin: miter; stroke-linecap: square"/>
   </g>
   <g id="line2d_57">
    <path d="M 212.899655 338.917653 
L 276.442759 338.805092 
L 295.994483 338.542965 
L 309.028966 338.152031 
L 318.804828 337.664524 
L 328.58069 336.938452 
L 336.727241 336.096387 
L 343.244483 335.233586 
L 349.761724 334.17604 
L 356.278966 332.899824 
L 362.796207 331.382247 
L 369.313448 329.602078 
L 375.83069 327.539419 
L 382.347931 325.175485 
L 387.235862 323.194308 
L 392.123793 321.027646 
L 397.011724 318.671333 
L 401.899655 316.124942 
L 408.416897 312.445263 
L 414.934138 308.47983 
L 424.71 302.197585 
L 432.856552 297.004919 
L 437.744483 294.110464 
L 442.632414 291.52746 
L 445.891034 290.040624 
L 449.149655 288.784209 
L 452.408276 287.791386 
L 455.666897 287.090803 
L 458.925517 286.705081 
L 462.184138 286.649539 
L 465.442759 286.931255 
L 468.701379 287.54856 
L 471.96 288.49099 
L 475.218621 289.73973 
L 478.477241 291.268493 
L 481.735862 293.044781 
L 484.994483 295.031403 
L 489.882414 298.317353 
L 496.399655 303.052871 
L 507.804828 311.467908 
L 512.692759 314.861565 
L 517.58069 318.027538 
L 522.468621 320.926483 
L 527.356552 323.538414 
L 532.244483 325.859248 
L 537.132414 327.897137 
L 542.020345 329.668931 
L 546.908276 331.196963 
L 551.796207 332.506299 
L 556.684138 333.622523 
L 563.201379 334.852474 
L 569.718621 335.834425 
L 576.235862 336.612207 
L 584.382414 337.351621 
L 594.158276 337.971088 
L 605.563448 338.422544 
L 618.597931 338.701003 
L 638.149655 338.865299 
L 678.882414 338.916941 
L 700.063448 338.918241 
L 700.063448 338.918241 
" clip-path="url(#p617b4d53db)" style="fill: none; stroke: #1a1a1a; stroke-width: 2.4; stroke-linecap: square"/>
   </g>
  </g>
  <g id="axes_5">
   <g id="patch_45">
    <path d="M 726.973448 362.88 
L 907.92 362.88 
L 907.92 48.384 
L 726.973448 48.384 
L 726.973448 362.88 
z
" style="fill: none"/>
   </g>
   <g id="matplotlib.axis_9"/>
   <g id="matplotlib.axis_10"/>
   <g id="legend_1">
    <g id="line2d_58">
     <path d="M 741.990162 168.458625 
L 756.990162 168.458625 
L 771.990162 168.458625 
" style="fill: none; stroke: #2ca02c; stroke-opacity: 0.7; stroke-width: 2.5; stroke-linecap: square"/>
    </g>
    <g id="text_21">
     <text style="font-size: 12px; font-family: 'DejaVu Sans', 'Bitstream Vera Sans', 'Computer Modern Sans Serif', 'Lucida Grande', 'Verdana', 'Geneva', 'Lucid', 'Arial', 'Helvetica', 'Avant Garde', sans-serif; fill: #222222" transform="translate(781.590162 164.692125)">positive-response</text>
     <text style="font-size: 12px; font-family: 'DejaVu Sans', 'Bitstream Vera Sans', 'Computer Modern Sans Serif', 'Lucida Grande', 'Verdana', 'Geneva', 'Lucid', 'Arial', 'Helvetica', 'Avant Garde', sans-serif; fill: #222222" transform="translate(781.590162 178.1295)">cell</text>
    </g>
    <g id="line2d_59">
     <path d="M 741.990162 212.70975 
L 756.990162 212.70975 
L 771.990162 212.70975 
" style="fill: none; stroke: #d62728; stroke-opacity: 0.7; stroke-width: 2.5; stroke-linecap: square"/>
    </g>
    <g id="text_22">
     <text style="font-size: 12px; font-family: 'DejaVu Sans', 'Bitstream Vera Sans', 'Computer Modern Sans Serif', 'Lucida Grande', 'Verdana', 'Geneva', 'Lucid', 'Arial', 'Helvetica', 'Avant Garde', sans-serif; fill: #222222" transform="translate(781.590162 208.94325)">negative-response</text>
     <text style="font-size: 12px; font-family: 'DejaVu Sans', 'Bitstream Vera Sans', 'Computer Modern Sans Serif', 'Lucida Grande', 'Verdana', 'Geneva', 'Lucid', 'Arial', 'Helvetica', 'Avant Garde', sans-serif; fill: #222222" transform="translate(781.590162 222.380625)">cell</text>
    </g>
    <g id="line2d_60">
     <path d="M 741.990162 248.994375 
L 756.990162 248.994375 
L 771.990162 248.994375 
" style="fill: none; stroke: #1a1a1a; stroke-width: 3; stroke-linecap: square"/>
    </g>
    <g id="text_23">
     <text style="font-size: 12px; font-family: 'DejaVu Sans', 'Bitstream Vera Sans', 'Computer Modern Sans Serif', 'Lucida Grande', 'Verdana', 'Geneva', 'Lucid', 'Arial', 'Helvetica', 'Avant Garde', sans-serif; text-anchor: start; fill: #222222" x="781.590162" y="253.194375" transform="rotate(-0 781.590162 253.194375)">photometry signal</text>
    </g>
   </g>
  </g>
  <g id="text_24">
   <text style="font-weight: 700; font-size: 14px; font-family: 'DejaVu Sans', 'Bitstream Vera Sans', 'Computer Modern Sans Serif', 'Lucida Grande', 'Verdana', 'Geneva', 'Lucid', 'Arial', 'Helvetica', 'Avant Garde', sans-serif; text-anchor: middle; fill: #222222" x="468" y="16.128" transform="rotate(-0 468 16.128)">Photometry's signal is an aggregator</text>
  </g>
 </g>
 <defs>
  <clipPath id="p081d74f18d">
   <rect x="46.8" y="66.74251" width="139.189655" height="89.081379"/>
  </clipPath>
  <clipPath id="p16d2412414">
   <rect x="212.899655" y="48.384" width="487.163793" height="125.7984"/>
  </clipPath>
  <clipPath id="p79cc27f7ba">
   <rect x="46.8" y="255.44011" width="139.189655" height="89.081379"/>
  </clipPath>
  <clipPath id="p617b4d53db">
   <rect x="212.899655" y="237.0816" width="487.163793" height="125.7984"/>
  </clipPath>
 </defs>
</svg>
