<?xml version="1.0" encoding="utf-8" standalone="no"?>
<!DOCTYPE svg PUBLIC "-//W3C//DTD SVG 1.1//EN"
  "http://www.w3.org/Graphics/SVG/1.1/DTD/svg11.dtd">
<svg xmlns:xlink="http://www.w3.org/1999/xlink" width="432pt" height="331.2pt" viewBox="0 0 432 331.2" xmlns="http://www.w3.org/2000/svg" version="1.1">
 <metadata>
  <rdf:RDF xmlns:dc="http://purl.org/dc/elements/1.1/" xmlns:cc="http://creativecommons.org/ns#" xmlns:rdf="http://www.w3.org/1999/02/22-rdf-syntax-ns#">
   <cc:Work>
    <dc:type rdf:resource="http://purl.org/dc/dcmitype/StillImage"/>
    <dc:date>2026-04-28T18:22:57.437693</dc:date>
    <dc:format>image/svg+xml</dc:format>
    <dc:creator>
     <cc:Agent>
      <dc:title>Matplotlib v3.10.9, https://matplotlib.org/</dc:title>
     </cc:Agent>
    </dc:creator>
   </cc:Work>
  </rdf:RDF>
 </metadata>
 <defs>
  <style type="text/css">*{stroke-linejoin: round; stroke-linecap: butt}</style>
 </defs>
 <g id="figure_1">
  <g id="patch_1">
   <path d="M 0 331.2 
L 432 331.2 
L 432 0 
L 0 0 
L 0 331.2 
z
" style="fill: none"/>
  </g>
  <g id="axes_1">
   <g id="patch_2">
    <path d="M 54.02 129.04 
L 413.325 129.04 
L 413.325 25.44 
L 54.02 25.44 
L 54.02 129.04 
z
" style="fill: none"/>
   </g>
   <g id="matplotlib.axis_1">
    <g id="xtick_1">
     <g id="line2d_1">
      <defs>
       <path id="m81668aad88" d="M 0 0 
L 0 3.5 
" style="stroke: #444444; stroke-width: 0.8"/>
      </defs>
      <g>
       <use xlink:href="#m81668aad88" x="70.352045" y="129.04" style="fill: #444444; stroke: #444444; stroke-width: 0.8"/>
      </g>
     </g>
     <g id="text_1">
      <!-- −2.0 -->
      <g style="fill: #444444" transform="translate(58.210639 143.638438) scale(0.1 -0.1)">
       <defs>
        <path id="DejaVuSans-2212" d="M 678 2272 
L 4684 2272 
L 4684 1741 
L 678 1741 
L 678 2272 
z
" transform="scale(0.015625)"/>
        <path id="DejaVuSans-32" d="M 1228 531 
L 3431 531 
L 3431 0 
L 469 0 
L 469 531 
Q 828 903 1448 1529 
Q 2069 2156 2228 2338 
Q 2531 2678 2651 2914 
Q 2772 3150 2772 3378 
Q 2772 3750 2511 3984 
Q 2250 4219 1831 4219 
Q 1534 4219 1204 4116 
Q 875 4013 500 3803 
L 500 4441 
Q 881 4594 1212 4672 
Q 1544 4750 1819 4750 
Q 2544 4750 2975 4387 
Q 3406 4025 3406 3419 
Q 3406 3131 3298 2873 
Q 3191 2616 2906 2266 
Q 2828 2175 2409 1742 
Q 1991 1309 1228 531 
z
" transform="scale(0.015625)"/>
        <path id="DejaVuSans-2e" d="M 684 794 
L 1344 794 
L 1344 0 
L 684 0 
L 684 794 
z
" transform="scale(0.015625)"/>
        <path id="DejaVuSans-30" d="M 2034 4250 
Q 1547 4250 1301 3770 
Q 1056 3291 1056 2328 
Q 1056 1369 1301 889 
Q 1547 409 2034 409 
Q 2525 409 2770 889 
Q 3016 1369 3016 2328 
Q 3016 3291 2770 3770 
Q 2525 4250 2034 4250 
z
M 2034 4750 
Q 2819 4750 3233 4129 
Q 3647 3509 3647 2328 
Q 3647 1150 3233 529 
Q 2819 -91 2034 -91 
Q 1250 -91 836 529 
Q 422 1150 422 2328 
Q 422 3509 836 4129 
Q 1250 4750 2034 4750 
z
" transform="scale(0.015625)"/>
       </defs>
       <use xlink:href="#DejaVuSans-2212"/>
       <use xlink:href="#DejaVuSans-32" transform="translate(83.789062 0)"/>
       <use xlink:href="#DejaVuSans-2e" transform="translate(147.412109 0)"/>
       <use xlink:href="#DejaVuSans-30" transform="translate(179.199219 0)"/>
      </g>
     </g>
    </g>
    <g id="xtick_2">
     <g id="line2d_2">
      <g>
       <use xlink:href="#m81668aad88" x="111.28449" y="129.04" style="fill: #444444; stroke: #444444; stroke-width: 0.8"/>
      </g>
     </g>
     <g id="text_2">
      <!-- −1.5 -->
      <g style="fill: #444444" transform="translate(99.143084 143.638438) scale(0.1 -0.1)">
       <defs>
        <path id="DejaVuSans-31" d="M 794 531 
L 1825 531 
L 1825 4091 
L 703 3866 
L 703 4441 
L 1819 4666 
L 2450 4666 
L 2450 531 
L 3481 531 
L 3481 0 
L 794 0 
L 794 531 
z
" transform="scale(0.015625)"/>
        <path id="DejaVuSans-35" d="M 691 4666 
L 3169 4666 
L 3169 4134 
L 1269 4134 
L 1269 2991 
Q 1406 3038 1543 3061 
Q 1681 3084 1819 3084 
Q 2600 3084 3056 2656 
Q 3513 2228 3513 1497 
Q 3513 744 3044 326 
Q 2575 -91 1722 -91 
Q 1428 -91 1123 -41 
Q 819 9 494 109 
L 494 744 
Q 775 591 1075 516 
Q 1375 441 1709 441 
Q 2250 441 2565 725 
Q 2881 1009 2881 1497 
Q 2881 1984 2565 2268 
Q 2250 2553 1709 2553 
Q 1456 2553 1204 2497 
Q 953 2441 691 2322 
L 691 4666 
z
" transform="scale(0.015625)"/>
       </defs>
       <use xlink:href="#DejaVuSans-2212"/>
       <use xlink:href="#DejaVuSans-31" transform="translate(83.789062 0)"/>
       <use xlink:href="#DejaVuSans-2e" transform="translate(147.412109 0)"/>
       <use xlink:href="#DejaVuSans-35" transform="translate(179.199219 0)"/>
      </g>
     </g>
    </g>
    <g id="xtick_3">
     <g id="line2d_3">
      <g>
       <use xlink:href="#m81668aad88" x="152.216935" y="129.04" style="fill: #444444; stroke: #444444; stroke-width: 0.8"/>
      </g>
     </g>
     <g id="text_3">
      <!-- −1.0 -->
      <g style="fill: #444444" transform="translate(140.075529 143.638438) scale(0.1 -0.1)">
       <use xlink:href="#DejaVuSans-2212"/>
       <use xlink:href="#DejaVuSans-31" transform="translate(83.789062 0)"/>
       <use xlink:href="#DejaVuSans-2e" transform="translate(147.412109 0)"/>
       <use xlink:href="#DejaVuSans-30" transform="translate(179.199219 0)"/>
      </g>
     </g>
    </g>
    <g id="xtick_4">
     <g id="line2d_4">
      <g>
       <use xlink:href="#m81668aad88" x="193.14938" y="129.04" style="fill: #444444; stroke: #444444; stroke-width: 0.8"/>
      </g>
     </g>
     <g id="text_4">
      <!-- −0.5 -->
      <g style="fill: #444444" transform="translate(181.007973 143.638438) scale(0.1 -0.1)">
       <use xlink:href="#DejaVuSans-2212"/>
       <use xlink:href="#DejaVuSans-30" transform="translate(83.789062 0)"/>
       <use xlink:href="#DejaVuSans-2e" transform="translate(147.412109 0)"/>
       <use xlink:href="#DejaVuSans-35" transform="translate(179.199219 0)"/>
      </g>
     </g>
    </g>
    <g id="xtick_5">
     <g id="line2d_5">
      <g>
       <use xlink:href="#m81668aad88" x="234.081824" y="129.04" style="fill: #444444; stroke: #444444; stroke-width: 0.8"/>
      </g>
     </g>
     <g id="text_5">
      <!-- 0.0 -->
      <g style="fill: #444444" transform="translate(226.130262 143.638438) scale(0.1 -0.1)">
       <use xlink:href="#DejaVuSans-30"/>
       <use xlink:href="#DejaVuSans-2e" transform="translate(63.623047 0)"/>
       <use xlink:href="#DejaVuSans-30" transform="translate(95.410156 0)"/>
      </g>
     </g>
    </g>
    <g id="xtick_6">
     <g id="line2d_6">
      <g>
       <use xlink:href="#m81668aad88" x="275.014269" y="129.04" style="fill: #444444; stroke: #444444; stroke-width: 0.8"/>
      </g>
     </g>
     <g id="text_6">
      <!-- 0.5 -->
      <g style="fill: #444444" transform="translate(267.062707 143.638438) scale(0.1 -0.1)">
       <use xlink:href="#DejaVuSans-30"/>
       <use xlink:href="#DejaVuSans-2e" transform="translate(63.623047 0)"/>
       <use xlink:href="#DejaVuSans-35" transform="translate(95.410156 0)"/>
      </g>
     </g>
    </g>
    <g id="xtick_7">
     <g id="line2d_7">
      <g>
       <use xlink:href="#m81668aad88" x="315.946714" y="129.04" style="fill: #444444; stroke: #444444; stroke-width: 0.8"/>
      </g>
     </g>
     <g id="text_7">
      <!-- 1.0 -->
      <g style="fill: #444444" transform="translate(307.995151 143.638438) scale(0.1 -0.1)">
       <use xlink:href="#DejaVuSans-31"/>
       <use xlink:href="#DejaVuSans-2e" transform="translate(63.623047 0)"/>
       <use xlink:href="#DejaVuSans-30" transform="translate(95.410156 0)"/>
      </g>
     </g>
    </g>
    <g id="xtick_8">
     <g id="line2d_8">
      <g>
       <use xlink:href="#m81668aad88" x="356.879159" y="129.04" style="fill: #444444; stroke: #444444; stroke-width: 0.8"/>
      </g>
     </g>
     <g id="text_8">
      <!-- 1.5 -->
      <g style="fill: #444444" transform="translate(348.927596 143.638438) scale(0.1 -0.1)">
       <use xlink:href="#DejaVuSans-31"/>
       <use xlink:href="#DejaVuSans-2e" transform="translate(63.623047 0)"/>
       <use xlink:href="#DejaVuSans-35" transform="translate(95.410156 0)"/>
      </g>
     </g>
    </g>
    <g id="xtick_9">
     <g id="line2d_9">
      <g>
       <use xlink:href="#m81668aad88" x="397.811603" y="129.04" style="fill: #444444; stroke: #444444; stroke-width: 0.8"/>
      </g>
     </g>
     <g id="text_9">
      <!-- 2.0 -->
      <g style="fill: #444444" transform="translate(389.860041 143.638438) scale(0.1 -0.1)">
       <use xlink:href="#DejaVuSans-32"/>
       <use xlink:href="#DejaVuSans-2e" transform="translate(63.623047 0)"/>
       <use xlink:href="#DejaVuSans-30" transform="translate(95.410156 0)"/>
      </g>
     </g>
    </g>
    <g id="text_10">
     <!-- time within trial (s) -->
     <g style="fill: #444444" transform="translate(186.080312 157.316563) scale(0.1 -0.1)">
      <defs>
       <path id="DejaVuSans-74" d="M 1172 4494 
L 1172 3500 
L 2356 3500 
L 2356 3053 
L 1172 3053 
L 1172 1153 
Q 1172 725 1289 603 
Q 1406 481 1766 481 
L 2356 481 
L 2356 0 
L 1766 0 
Q 1100 0 847 248 
Q 594 497 594 1153 
L 594 3053 
L 172 3053 
L 172 3500 
L 594 3500 
L 594 4494 
L 1172 4494 
z
" transform="scale(0.015625)"/>
       <path id="DejaVuSans-69" d="M 603 3500 
L 1178 3500 
L 1178 0 
L 603 0 
L 603 3500 
z
M 603 4863 
L 1178 4863 
L 1178 4134 
L 603 4134 
L 603 4863 
z
" transform="scale(0.015625)"/>
       <path id="DejaVuSans-6d" d="M 3328 2828 
Q 3544 3216 3844 3400 
Q 4144 3584 4550 3584 
Q 5097 3584 5394 3201 
Q 5691 2819 5691 2113 
L 5691 0 
L 5113 0 
L 5113 2094 
Q 5113 2597 4934 2840 
Q 4756 3084 4391 3084 
Q 3944 3084 3684 2787 
Q 3425 2491 3425 1978 
L 3425 0 
L 2847 0 
L 2847 2094 
Q 2847 2600 2669 2842 
Q 2491 3084 2119 3084 
Q 1678 3084 1418 2786 
Q 1159 2488 1159 1978 
L 1159 0 
L 581 0 
L 581 3500 
L 1159 3500 
L 1159 2956 
Q 1356 3278 1631 3431 
Q 1906 3584 2284 3584 
Q 2666 3584 2933 3390 
Q 3200 3197 3328 2828 
z
" transform="scale(0.015625)"/>
       <path id="DejaVuSans-65" d="M 3597 1894 
L 3597 1613 
L 953 1613 
Q 991 1019 1311 708 
Q 1631 397 2203 397 
Q 2534 397 2845 478 
Q 3156 559 3463 722 
L 3463 178 
Q 3153 47 2828 -22 
Q 2503 -91 2169 -91 
Q 1331 -91 842 396 
Q 353 884 353 1716 
Q 353 2575 817 3079 
Q 1281 3584 2069 3584 
Q 2775 3584 3186 3129 
Q 3597 2675 3597 1894 
z
M 3022 2063 
Q 3016 2534 2758 2815 
Q 2500 3097 2075 3097 
Q 1594 3097 1305 2825 
Q 1016 2553 972 2059 
L 3022 2063 
z
" transform="scale(0.015625)"/>
       <path id="DejaVuSans-20" transform="scale(0.015625)"/>
       <path id="DejaVuSans-77" d="M 269 3500 
L 844 3500 
L 1563 769 
L 2278 3500 
L 2956 3500 
L 3675 769 
L 4391 3500 
L 4966 3500 
L 4050 0 
L 3372 0 
L 2619 2869 
L 1863 0 
L 1184 0 
L 269 3500 
z
" transform="scale(0.015625)"/>
       <path id="DejaVuSans-68" d="M 3513 2113 
L 3513 0 
L 2938 0 
L 2938 2094 
Q 2938 2591 2744 2837 
Q 2550 3084 2163 3084 
Q 1697 3084 1428 2787 
Q 1159 2491 1159 1978 
L 1159 0 
L 581 0 
L 581 4863 
L 1159 4863 
L 1159 2956 
Q 1366 3272 1645 3428 
Q 1925 3584 2291 3584 
Q 2894 3584 3203 3211 
Q 3513 2838 3513 2113 
z
" transform="scale(0.015625)"/>
       <path id="DejaVuSans-6e" d="M 3513 2113 
L 3513 0 
L 2938 0 
L 2938 2094 
Q 2938 2591 2744 2837 
Q 2550 3084 2163 3084 
Q 1697 3084 1428 2787 
Q 1159 2491 1159 1978 
L 1159 0 
L 581 0 
L 581 3500 
L 1159 3500 
L 1159 2956 
Q 1366 3272 1645 3428 
Q 1925 3584 2291 3584 
Q 2894 3584 3203 3211 
Q 3513 2838 3513 2113 
z
" transform="scale(0.015625)"/>
       <path id="DejaVuSans-72" d="M 2631 2963 
Q 2534 3019 2420 3045 
Q 2306 3072 2169 3072 
Q 1681 3072 1420 2755 
Q 1159 2438 1159 1844 
L 1159 0 
L 581 0 
L 581 3500 
L 1159 3500 
L 1159 2956 
Q 1341 3275 1631 3429 
Q 1922 3584 2338 3584 
Q 2397 3584 2469 3576 
Q 2541 3569 2628 3553 
L 2631 2963 
z
" transform="scale(0.015625)"/>
       <path id="DejaVuSans-61" d="M 2194 1759 
Q 1497 1759 1228 1600 
Q 959 1441 959 1056 
Q 959 750 1161 570 
Q 1363 391 1709 391 
Q 2188 391 2477 730 
Q 2766 1069 2766 1631 
L 2766 1759 
L 2194 1759 
z
M 3341 1997 
L 3341 0 
L 2766 0 
L 2766 531 
Q 2569 213 2275 61 
Q 1981 -91 1556 -91 
Q 1019 -91 701 211 
Q 384 513 384 1019 
Q 384 1609 779 1909 
Q 1175 2209 1959 2209 
L 2766 2209 
L 2766 2266 
Q 2766 2663 2505 2880 
Q 2244 3097 1772 3097 
Q 1472 3097 1187 3025 
Q 903 2953 641 2809 
L 641 3341 
Q 956 3463 1253 3523 
Q 1550 3584 1831 3584 
Q 2591 3584 2966 3190 
Q 3341 2797 3341 1997 
z
" transform="scale(0.015625)"/>
       <path id="DejaVuSans-6c" d="M 603 4863 
L 1178 4863 
L 1178 0 
L 603 0 
L 603 4863 
z
" transform="scale(0.015625)"/>
       <path id="DejaVuSans-28" d="M 1984 4856 
Q 1566 4138 1362 3434 
Q 1159 2731 1159 2009 
Q 1159 1288 1364 580 
Q 1569 -128 1984 -844 
L 1484 -844 
Q 1016 -109 783 600 
Q 550 1309 550 2009 
Q 550 2706 781 3412 
Q 1013 4119 1484 4856 
L 1984 4856 
z
" transform="scale(0.015625)"/>
       <path id="DejaVuSans-73" d="M 2834 3397 
L 2834 2853 
Q 2591 2978 2328 3040 
Q 2066 3103 1784 3103 
Q 1356 3103 1142 2972 
Q 928 2841 928 2578 
Q 928 2378 1081 2264 
Q 1234 2150 1697 2047 
L 1894 2003 
Q 2506 1872 2764 1633 
Q 3022 1394 3022 966 
Q 3022 478 2636 193 
Q 2250 -91 1575 -91 
Q 1294 -91 989 -36 
Q 684 19 347 128 
L 347 722 
Q 666 556 975 473 
Q 1284 391 1588 391 
Q 1994 391 2212 530 
Q 2431 669 2431 922 
Q 2431 1156 2273 1281 
Q 2116 1406 1581 1522 
L 1381 1569 
Q 847 1681 609 1914 
Q 372 2147 372 2553 
Q 372 3047 722 3315 
Q 1072 3584 1716 3584 
Q 2034 3584 2315 3537 
Q 2597 3491 2834 3397 
z
" transform="scale(0.015625)"/>
       <path id="DejaVuSans-29" d="M 513 4856 
L 1013 4856 
Q 1481 4119 1714 3412 
Q 1947 2706 1947 2009 
Q 1947 1309 1714 600 
Q 1481 -109 1013 -844 
L 513 -844 
Q 928 -128 1133 580 
Q 1338 1288 1338 2009 
Q 1338 2731 1133 3434 
Q 928 4138 513 4856 
z
" transform="scale(0.015625)"/>
      </defs>
      <use xlink:href="#DejaVuSans-74"/>
      <use xlink:href="#DejaVuSans-69" transform="translate(39.208984 0)"/>
      <use xlink:href="#DejaVuSans-6d" transform="translate(66.992188 0)"/>
      <use xlink:href="#DejaVuSans-65" transform="translate(164.404297 0)"/>
      <use xlink:href="#DejaVuSans-20" transform="translate(225.927734 0)"/>
      <use xlink:href="#DejaVuSans-77" transform="translate(257.714844 0)"/>
      <use xlink:href="#DejaVuSans-69" transform="translate(339.501953 0)"/>
      <use xlink:href="#DejaVuSans-74" transform="translate(367.285156 0)"/>
      <use xlink:href="#DejaVuSans-68" transform="translate(406.494141 0)"/>
      <use xlink:href="#DejaVuSans-69" transform="translate(469.873047 0)"/>
      <use xlink:href="#DejaVuSans-6e" transform="translate(497.65625 0)"/>
      <use xlink:href="#DejaVuSans-20" transform="translate(561.035156 0)"/>
      <use xlink:href="#DejaVuSans-74" transform="translate(592.822266 0)"/>
      <use xlink:href="#DejaVuSans-72" transform="translate(632.03125 0)"/>
      <use xlink:href="#DejaVuSans-69" transform="translate(673.144531 0)"/>
      <use xlink:href="#DejaVuSans-61" transform="translate(700.927734 0)"/>
      <use xlink:href="#DejaVuSans-6c" transform="translate(762.207031 0)"/>
      <use xlink:href="#DejaVuSans-20" transform="translate(789.990234 0)"/>
      <use xlink:href="#DejaVuSans-28" transform="translate(821.777344 0)"/>
      <use xlink:href="#DejaVuSans-73" transform="translate(860.791016 0)"/>
      <use xlink:href="#DejaVuSans-29" transform="translate(912.890625 0)"/>
     </g>
    </g>
   </g>
   <g id="matplotlib.axis_2">
    <g id="ytick_1">
     <g id="line2d_10">
      <defs>
       <path id="m0ffdfbbdb4" d="M 0 0 
L -3.5 0 
" style="stroke: #444444; stroke-width: 0.8"/>
      </defs>
      <g>
       <use xlink:href="#m0ffdfbbdb4" x="54.02" y="112.216062" style="fill: #444444; stroke: #444444; stroke-width: 0.8"/>
      </g>
     </g>
     <g id="text_11">
      <!-- 0.0 -->
      <g style="fill: #444444" transform="translate(31.116875 116.01528) scale(0.1 -0.1)">
       <use xlink:href="#DejaVuSans-30"/>
       <use xlink:href="#DejaVuSans-2e" transform="translate(63.623047 0)"/>
       <use xlink:href="#DejaVuSans-30" transform="translate(95.410156 0)"/>
      </g>
     </g>
    </g>
    <g id="ytick_2">
     <g id="line2d_11">
      <g>
       <use xlink:href="#m0ffdfbbdb4" x="54.02" y="73.380663" style="fill: #444444; stroke: #444444; stroke-width: 0.8"/>
      </g>
     </g>
     <g id="text_12">
      <!-- 0.5 -->
      <g style="fill: #444444" transform="translate(31.116875 77.179882) scale(0.1 -0.1)">
       <use xlink:href="#DejaVuSans-30"/>
       <use xlink:href="#DejaVuSans-2e" transform="translate(63.623047 0)"/>
       <use xlink:href="#DejaVuSans-35" transform="translate(95.410156 0)"/>
      </g>
     </g>
    </g>
    <g id="ytick_3">
     <g id="line2d_12">
      <g>
       <use xlink:href="#m0ffdfbbdb4" x="54.02" y="34.545265" style="fill: #444444; stroke: #444444; stroke-width: 0.8"/>
      </g>
     </g>
     <g id="text_13">
      <!-- 1.0 -->
      <g style="fill: #444444" transform="translate(31.116875 38.344484) scale(0.1 -0.1)">
       <use xlink:href="#DejaVuSans-31"/>
       <use xlink:href="#DejaVuSans-2e" transform="translate(63.623047 0)"/>
       <use xlink:href="#DejaVuSans-30" transform="translate(95.410156 0)"/>
      </g>
     </g>
    </g>
    <g id="text_14">
     <!-- amplitude -->
     <g style="fill: #444444" transform="translate(25.037188 102.506406) rotate(-90) scale(0.1 -0.1)">
      <defs>
       <path id="DejaVuSans-70" d="M 1159 525 
L 1159 -1331 
L 581 -1331 
L 581 3500 
L 1159 3500 
L 1159 2969 
Q 1341 3281 1617 3432 
Q 1894 3584 2278 3584 
Q 2916 3584 3314 3078 
Q 3713 2572 3713 1747 
Q 3713 922 3314 415 
Q 2916 -91 2278 -91 
Q 1894 -91 1617 61 
Q 1341 213 1159 525 
z
M 3116 1747 
Q 3116 2381 2855 2742 
Q 2594 3103 2138 3103 
Q 1681 3103 1420 2742 
Q 1159 2381 1159 1747 
Q 1159 1113 1420 752 
Q 1681 391 2138 391 
Q 2594 391 2855 752 
Q 3116 1113 3116 1747 
z
" transform="scale(0.015625)"/>
       <path id="DejaVuSans-75" d="M 544 1381 
L 544 3500 
L 1119 3500 
L 1119 1403 
Q 1119 906 1312 657 
Q 1506 409 1894 409 
Q 2359 409 2629 706 
Q 2900 1003 2900 1516 
L 2900 3500 
L 3475 3500 
L 3475 0 
L 2900 0 
L 2900 538 
Q 2691 219 2414 64 
Q 2138 -91 1772 -91 
Q 1169 -91 856 284 
Q 544 659 544 1381 
z
M 1991 3584 
L 1991 3584 
z
" transform="scale(0.015625)"/>
       <path id="DejaVuSans-64" d="M 2906 2969 
L 2906 4863 
L 3481 4863 
L 3481 0 
L 2906 0 
L 2906 525 
Q 2725 213 2448 61 
Q 2172 -91 1784 -91 
Q 1150 -91 751 415 
Q 353 922 353 1747 
Q 353 2572 751 3078 
Q 1150 3584 1784 3584 
Q 2172 3584 2448 3432 
Q 2725 3281 2906 2969 
z
M 947 1747 
Q 947 1113 1208 752 
Q 1469 391 1925 391 
Q 2381 391 2643 752 
Q 2906 1113 2906 1747 
Q 2906 2381 2643 2742 
Q 2381 3103 1925 3103 
Q 1469 3103 1208 2742 
Q 947 2381 947 1747 
z
" transform="scale(0.015625)"/>
      </defs>
      <use xlink:href="#DejaVuSans-61"/>
      <use xlink:href="#DejaVuSans-6d" transform="translate(61.279297 0)"/>
      <use xlink:href="#DejaVuSans-70" transform="translate(158.691406 0)"/>
      <use xlink:href="#DejaVuSans-6c" transform="translate(222.167969 0)"/>
      <use xlink:href="#DejaVuSans-69" transform="translate(249.951172 0)"/>
      <use xlink:href="#DejaVuSans-74" transform="translate(277.734375 0)"/>
      <use xlink:href="#DejaVuSans-75" transform="translate(316.943359 0)"/>
      <use xlink:href="#DejaVuSans-64" transform="translate(380.322266 0)"/>
      <use xlink:href="#DejaVuSans-65" transform="translate(443.798828 0)"/>
     </g>
    </g>
   </g>
   <g id="line2d_13">
    <path d="M 70.352045 111.825439 
L 71.170694 112.626489 
L 71.989343 110.226376 
L 72.807992 111.890155 
L 73.626641 113.880296 
L 75.263939 108.164753 
L 76.082588 109.27364 
L 76.901237 114.402449 
L 77.719886 116.147513 
L 79.357183 112.087669 
L 80.175832 119.439541 
L 80.994481 112.89581 
L 81.81313 116.086897 
L 82.631779 114.491093 
L 84.269077 113.198753 
L 85.906374 108.977148 
L 86.725023 112.615397 
L 87.543672 107.970689 
L 88.362321 114.28271 
L 89.18097 111.123979 
L 89.999619 109.409132 
L 91.636917 114.525989 
L 92.455566 115.079707 
L 93.274215 113.638139 
L 94.092863 111.531952 
L 94.911512 115.352775 
L 95.730161 112.865935 
L 96.54881 112.710747 
L 97.367459 110.535745 
L 98.186108 111.549152 
L 99.004757 111.111978 
L 99.823406 114.247397 
L 100.642055 112.618749 
L 101.460703 109.780382 
L 102.279352 107.576222 
L 103.098001 116.127766 
L 103.91665 107.512555 
L 104.735299 108.034653 
L 107.191246 113.191367 
L 108.009895 107.686236 
L 108.828544 106.125868 
L 109.647192 106.618684 
L 110.465841 108.130254 
L 111.28449 111.10574 
L 112.103139 115.970103 
L 112.921788 112.229898 
L 113.740437 110.176502 
L 114.559086 116.218781 
L 115.377735 110.98848 
L 116.196384 110.880542 
L 117.015032 110.053568 
L 117.833681 115.894909 
L 118.65233 114.271851 
L 119.470979 113.57198 
L 120.289628 115.850424 
L 121.108277 106.812119 
L 121.926926 113.756749 
L 122.745575 111.193979 
L 123.564224 113.019367 
L 124.382873 107.296433 
L 125.201521 108.113866 
L 126.02017 110.248273 
L 126.838819 119.061911 
L 127.657468 112.054312 
L 128.476117 110.091835 
L 129.294766 109.096764 
L 130.113415 114.135601 
L 130.932064 106.555142 
L 131.750713 116.318129 
L 132.569361 114.270965 
L 133.38801 109.310588 
L 134.206659 112.063133 
L 135.025308 105.994328 
L 135.843957 111.629593 
L 136.662606 114.182355 
L 137.481255 113.387959 
L 138.299904 115.604707 
L 139.118553 116.183958 
L 139.937202 110.255505 
L 140.75585 110.408106 
L 141.574499 108.191241 
L 142.393148 114.557091 
L 143.211797 106.96422 
L 144.030446 113.104071 
L 144.849095 107.318854 
L 145.667744 113.553772 
L 146.486393 114.49291 
L 147.305042 111.430327 
L 148.12369 109.000035 
L 148.942339 111.702268 
L 150.579637 116.364146 
L 151.398286 116.548164 
L 152.216935 110.628255 
L 153.035584 109.110637 
L 153.854233 112.69073 
L 154.672882 115.512127 
L 155.491531 109.454881 
L 156.310179 116.137191 
L 157.128828 114.365327 
L 157.947477 110.209877 
L 158.766126 119.117836 
L 159.584775 110.912603 
L 160.403424 113.90399 
L 161.222073 111.739074 
L 162.040722 112.292868 
L 162.859371 111.405939 
L 163.678019 109.850156 
L 164.496668 114.332286 
L 165.315317 107.526677 
L 166.133966 109.646323 
L 166.952615 109.236546 
L 167.771264 108.188957 
L 168.589913 109.304995 
L 169.408562 109.066528 
L 170.227211 111.383537 
L 171.04586 115.972239 
L 171.864508 111.870961 
L 173.501806 115.664204 
L 174.320455 110.319706 
L 175.139104 112.754581 
L 175.957753 114.038805 
L 176.776402 113.915417 
L 177.595051 109.659803 
L 178.4137 109.179895 
L 179.232348 105.966395 
L 180.050997 109.877914 
L 180.869646 106.334748 
L 181.688295 104.927476 
L 182.506944 105.397158 
L 183.325593 115.977795 
L 184.144242 104.440983 
L 184.962891 106.800888 
L 185.78154 106.103969 
L 186.600189 105.796677 
L 187.418837 105.253394 
L 188.237486 104.903947 
L 189.056135 106.424532 
L 189.874784 110.588215 
L 190.693433 104.345045 
L 191.512082 105.784345 
L 192.330731 99.164506 
L 193.14938 102.601611 
L 193.968029 100.578744 
L 194.786677 102.559579 
L 195.605326 100.535485 
L 196.423975 97.960187 
L 197.242624 101.459923 
L 198.061273 94.77662 
L 198.879922 94.850659 
L 199.698571 96.959832 
L 200.51722 99.426594 
L 201.335869 89.026716 
L 202.154518 90.136347 
L 202.973166 89.396832 
L 203.791815 86.970993 
L 204.610464 79.031479 
L 205.429113 83.220073 
L 206.247762 81.141879 
L 207.066411 84.334871 
L 207.88506 72.862001 
L 208.703709 73.359806 
L 209.522358 71.094839 
L 210.341006 72.434268 
L 211.159655 67.885351 
L 211.978304 67.714779 
L 212.796953 65.084661 
L 213.615602 65.57918 
L 214.434251 67.80209 
L 215.2529 58.14928 
L 216.071549 65.492658 
L 216.890198 58.380859 
L 217.708847 56.450905 
L 218.527495 57.268042 
L 219.346144 50.375071 
L 220.164793 51.200405 
L 220.983442 50.286376 
L 221.802091 45.724898 
L 222.62074 47.297889 
L 223.439389 40.052095 
L 224.258038 41.904877 
L 225.076687 43.185037 
L 225.895335 46.557384 
L 226.713984 43.481697 
L 227.532633 35.04532 
L 228.351282 37.688275 
L 229.169931 37.629902 
L 229.98858 30.977944 
L 230.807229 39.518091 
L 231.625878 36.922027 
L 232.444527 36.261665 
L 233.263176 32.785726 
L 234.081824 36.606758 
L 234.900473 36.513163 
L 235.719122 39.780344 
L 236.537771 32.836521 
L 237.35642 33.028576 
L 238.175069 37.563273 
L 238.993718 36.24281 
L 239.812367 41.547091 
L 240.631016 39.887765 
L 241.449665 35.137666 
L 242.268313 40.095187 
L 243.086962 34.533454 
L 243.905611 45.442464 
L 244.72426 42.564576 
L 245.542909 46.424642 
L 246.361558 45.582058 
L 247.998856 52.321562 
L 248.817505 54.975481 
L 249.636153 44.50239 
L 250.454802 56.055786 
L 251.273451 63.900842 
L 252.910749 59.239202 
L 253.729398 64.77641 
L 254.548047 60.879665 
L 255.366696 63.875453 
L 256.185345 69.340539 
L 257.003994 72.200338 
L 257.822642 75.704126 
L 258.641291 76.584305 
L 259.45994 80.787095 
L 260.278589 74.23815 
L 261.097238 74.772746 
L 261.915887 85.3136 
L 262.734536 86.73664 
L 263.553185 90.169433 
L 264.371834 89.231833 
L 265.190482 97.401052 
L 266.009131 92.760672 
L 266.82778 86.591385 
L 267.646429 93.049634 
L 268.465078 90.620951 
L 269.283727 96.040255 
L 270.102376 90.240701 
L 270.921025 96.226175 
L 271.739674 99.111173 
L 272.558323 91.019115 
L 273.376971 100.928076 
L 274.19562 104.632224 
L 275.014269 101.077162 
L 275.832918 102.641046 
L 276.651567 99.974394 
L 277.470216 106.870027 
L 278.288865 102.180033 
L 279.107514 102.660103 
L 279.926163 107.970706 
L 280.744811 105.935385 
L 281.56346 109.531025 
L 282.382109 100.132524 
L 283.200758 110.043673 
L 284.019407 109.665923 
L 284.838056 111.940573 
L 285.656705 110.04587 
L 286.475354 109.302333 
L 287.294003 107.186177 
L 288.112652 111.731363 
L 288.9313 110.652216 
L 289.749949 114.695023 
L 290.568598 113.064329 
L 291.387247 102.113157 
L 293.024545 113.415947 
L 293.843194 115.277744 
L 294.661843 114.274957 
L 295.480492 111.420607 
L 296.29914 111.343506 
L 297.117789 113.852096 
L 297.936438 115.615565 
L 298.755087 107.269847 
L 299.573736 110.348588 
L 300.392385 112.971713 
L 301.211034 112.543439 
L 302.029683 113.547336 
L 302.848332 121.063228 
L 303.666981 111.616817 
L 304.485629 115.332833 
L 305.304278 115.149046 
L 306.122927 114.046863 
L 306.941576 109.803449 
L 307.760225 115.733572 
L 308.578874 116.56906 
L 309.397523 110.139113 
L 310.216172 109.795577 
L 311.034821 115.12919 
L 311.853469 110.411947 
L 312.672118 113.073329 
L 313.490767 111.238192 
L 314.309416 116.097886 
L 315.128065 109.597846 
L 315.946714 108.451683 
L 316.765363 110.214597 
L 317.584012 110.462533 
L 318.402661 123.919879 
L 319.22131 111.392765 
L 320.039958 112.28364 
L 320.858607 112.663214 
L 321.677256 114.166987 
L 322.495905 112.037169 
L 323.314554 110.929896 
L 324.133203 113.030751 
L 324.951852 113.651463 
L 325.770501 108.392019 
L 326.58915 115.647408 
L 327.407798 109.013171 
L 328.226447 111.664761 
L 329.045096 114.713263 
L 329.863745 113.115624 
L 330.682394 115.073198 
L 331.501043 110.117816 
L 332.319692 111.134418 
L 333.138341 113.945298 
L 333.95699 115.639945 
L 334.775639 111.27825 
L 335.594287 109.241272 
L 336.412936 112.569442 
L 337.231585 110.916074 
L 338.050234 113.384121 
L 338.868883 112.005978 
L 339.687532 113.1209 
L 340.506181 111.302418 
L 341.32483 116.906586 
L 342.143479 110.214601 
L 342.962127 112.930368 
L 343.780776 111.101882 
L 344.599425 113.273312 
L 345.418074 111.220724 
L 346.236723 115.54831 
L 347.055372 108.52154 
L 347.874021 117.508673 
L 348.69267 115.44479 
L 350.329968 107.671249 
L 351.148616 111.351964 
L 351.967265 112.986267 
L 352.785914 116.643573 
L 353.604563 112.810323 
L 354.423212 112.277814 
L 355.241861 106.963747 
L 356.06051 110.283222 
L 356.879159 116.966695 
L 357.697808 105.919199 
L 358.516456 113.44329 
L 359.335105 114.948394 
L 360.153754 107.634035 
L 360.972403 112.370644 
L 361.791052 113.357519 
L 363.42835 109.591134 
L 364.246999 109.129933 
L 365.065648 116.488584 
L 365.884297 106.007116 
L 366.702945 109.274322 
L 367.521594 113.394175 
L 368.340243 114.7595 
L 369.158892 115.22662 
L 369.977541 111.832745 
L 370.79619 114.229339 
L 371.614839 114.592396 
L 372.433488 109.69563 
L 373.252137 111.083412 
L 374.070785 113.441928 
L 374.889434 109.934878 
L 375.708083 107.967846 
L 376.526732 115.616478 
L 377.345381 114.090388 
L 378.16403 109.287494 
L 378.982679 109.982434 
L 379.801328 111.511746 
L 380.619977 108.604614 
L 381.438626 115.596952 
L 382.257274 116.811494 
L 383.075923 114.908154 
L 383.894572 111.835338 
L 384.713221 114.689369 
L 385.53187 113.729766 
L 386.350519 115.245223 
L 387.169168 114.143631 
L 387.987817 115.337766 
L 388.806466 111.074406 
L 389.625114 109.746469 
L 390.443763 113.708726 
L 391.262412 112.860002 
L 392.081061 114.021232 
L 392.89971 110.565553 
L 393.718359 111.939379 
L 394.537008 107.263284 
L 395.355657 115.619509 
L 396.174306 111.089827 
L 396.992955 110.836655 
L 396.992955 110.836655 
" clip-path="url(#pd01edf0531)" style="fill: none; stroke: #1f77b4; stroke-width: 1.6; stroke-linecap: square"/>
   </g>
   <g id="line2d_14">
    <path d="M 70.352045 113.335889 
L 71.170694 110.403119 
L 71.989343 116.68531 
L 72.807992 105.633297 
L 73.626641 116.385568 
L 74.44529 109.358375 
L 75.263939 115.699201 
L 76.082588 108.640461 
L 76.901237 113.41149 
L 77.719886 111.723868 
L 78.538534 112.050331 
L 79.357183 108.796266 
L 80.175832 113.215055 
L 80.994481 121.434602 
L 81.81313 114.577436 
L 82.631779 111.645298 
L 83.450428 113.584522 
L 84.269077 109.824358 
L 85.087726 109.061611 
L 85.906374 112.675164 
L 86.725023 116.844139 
L 87.543672 107.915693 
L 88.362321 108.851196 
L 89.18097 113.145598 
L 89.999619 105.665964 
L 90.818268 113.299959 
L 91.636917 115.748901 
L 92.455566 112.700334 
L 93.274215 108.867413 
L 94.092863 115.128572 
L 94.911512 106.153933 
L 95.730161 115.001418 
L 96.54881 109.250832 
L 97.367459 110.524508 
L 98.186108 112.694691 
L 99.004757 108.859027 
L 99.823406 116.875684 
L 100.642055 107.998314 
L 101.460703 112.413917 
L 102.279352 113.901317 
L 103.098001 109.888504 
L 103.91665 108.923134 
L 104.735299 109.824437 
L 105.553948 106.003939 
L 106.372597 108.858427 
L 107.191246 108.228422 
L 108.009895 113.893328 
L 108.828544 111.88511 
L 109.647192 110.466969 
L 110.465841 112.271184 
L 111.28449 111.278932 
L 112.103139 110.892226 
L 112.921788 109.593138 
L 113.740437 112.531743 
L 114.559086 113.302829 
L 115.377735 114.789499 
L 116.196384 114.986524 
L 117.015032 108.573453 
L 117.833681 112.478656 
L 118.65233 109.771158 
L 119.470979 116.246753 
L 120.289628 118.237624 
L 121.108277 115.475412 
L 121.926926 108.653684 
L 122.745575 108.897725 
L 123.564224 111.184473 
L 124.382873 114.708269 
L 125.201521 112.622443 
L 126.02017 113.141153 
L 126.838819 113.287836 
L 127.657468 120.001999 
L 128.476117 114.881495 
L 129.294766 112.806698 
L 130.113415 107.504775 
L 130.932064 111.71666 
L 131.750713 107.863737 
L 132.569361 113.439243 
L 133.38801 113.001122 
L 134.206659 124.330909 
L 135.025308 110.776572 
L 135.843957 110.516327 
L 136.662606 106.736359 
L 137.481255 113.728347 
L 138.299904 111.92354 
L 139.118553 114.408018 
L 139.937202 115.870494 
L 140.75585 114.431568 
L 141.574499 113.287913 
L 142.393148 108.004943 
L 143.211797 112.20919 
L 144.030446 114.67215 
L 144.849095 111.775269 
L 145.667744 111.540102 
L 146.486393 114.316998 
L 147.305042 108.664224 
L 148.12369 118.08284 
L 148.942339 112.879504 
L 149.760988 110.149807 
L 150.579637 116.374339 
L 151.398286 111.093697 
L 152.216935 108.199248 
L 153.035584 110.806566 
L 153.854233 117.467085 
L 154.672882 114.478418 
L 155.491531 108.387473 
L 156.310179 111.289148 
L 157.128828 112.246647 
L 157.947477 110.84527 
L 158.766126 109.975815 
L 159.584775 114.417059 
L 161.222073 111.771924 
L 162.040722 113.905889 
L 162.859371 112.63048 
L 163.678019 108.183555 
L 164.496668 115.222626 
L 165.315317 106.229891 
L 166.133966 106.376824 
L 166.952615 117.538906 
L 167.771264 112.653559 
L 168.589913 111.150605 
L 169.408562 114.579026 
L 170.227211 114.517345 
L 171.04586 112.95231 
L 171.864508 109.917918 
L 172.683157 113.802715 
L 173.501806 106.53846 
L 174.320455 111.312318 
L 175.139104 112.531341 
L 175.957753 107.709386 
L 176.776402 110.265455 
L 177.595051 111.062964 
L 178.4137 113.237976 
L 179.232348 106.572139 
L 180.869646 112.836551 
L 181.688295 117.10259 
L 182.506944 111.041357 
L 183.325593 115.75061 
L 184.144242 117.525032 
L 184.962891 113.057283 
L 185.78154 111.311026 
L 186.600189 108.195841 
L 187.418837 111.296725 
L 188.237486 109.663109 
L 189.056135 115.967833 
L 189.874784 112.219948 
L 190.693433 111.753371 
L 191.512082 109.448172 
L 192.330731 111.752408 
L 193.14938 109.598791 
L 193.968029 113.64505 
L 194.786677 110.94557 
L 195.605326 110.744954 
L 196.423975 115.889674 
L 197.242624 111.43079 
L 198.061273 112.936741 
L 198.879922 117.817855 
L 199.698571 108.880274 
L 200.51722 112.932227 
L 201.335869 114.400132 
L 202.973166 111.189029 
L 203.791815 106.854671 
L 204.610464 111.966926 
L 205.429113 109.885526 
L 206.247762 106.976505 
L 207.066411 109.465024 
L 207.88506 107.668344 
L 208.703709 112.319811 
L 209.522358 108.279467 
L 210.341006 110.673851 
L 211.159655 106.956214 
L 211.978304 113.192939 
L 212.796953 112.256638 
L 213.615602 105.629833 
L 214.434251 109.893277 
L 215.2529 110.08576 
L 216.071549 108.388189 
L 216.890198 110.40045 
L 217.708847 103.717912 
L 218.527495 111.301493 
L 219.346144 107.417901 
L 220.164793 105.364633 
L 220.983442 106.220813 
L 221.802091 107.802021 
L 222.62074 107.378093 
L 223.439389 102.685037 
L 224.258038 106.488815 
L 225.076687 100.512625 
L 225.895335 106.439735 
L 226.713984 102.562327 
L 227.532633 99.807199 
L 228.351282 102.839293 
L 229.169931 95.898668 
L 229.98858 96.902709 
L 230.807229 98.929705 
L 231.625878 99.240041 
L 232.444527 98.140023 
L 233.263176 91.817133 
L 234.081824 94.21476 
L 234.900473 93.452255 
L 235.719122 88.468566 
L 236.537771 79.161489 
L 237.35642 83.812693 
L 238.175069 80.695089 
L 238.993718 80.75011 
L 239.812367 77.282192 
L 240.631016 82.152757 
L 241.449665 77.547815 
L 242.268313 73.597653 
L 243.086962 72.638043 
L 243.905611 71.329734 
L 244.72426 70.936013 
L 245.542909 67.792489 
L 246.361558 67.511645 
L 247.180207 70.747196 
L 247.998856 65.056894 
L 248.817505 58.00329 
L 249.636153 52.797837 
L 250.454802 50.180999 
L 251.273451 53.727459 
L 252.0921 49.504349 
L 252.910749 47.757079 
L 253.729398 51.079833 
L 254.548047 52.615173 
L 255.366696 45.721277 
L 256.185345 49.842284 
L 257.003994 43.990756 
L 257.822642 39.822047 
L 258.641291 44.928797 
L 259.45994 39.318391 
L 260.278589 34.569393 
L 261.097238 36.407898 
L 261.915887 35.127514 
L 262.734536 33.26616 
L 263.553185 30.149091 
L 264.371834 34.632041 
L 265.190482 30.973562 
L 266.009131 34.80674 
L 266.82778 36.24212 
L 267.646429 33.629281 
L 268.465078 36.675573 
L 269.283727 36.883103 
L 270.102376 37.421264 
L 270.921025 43.214747 
L 271.739674 36.42251 
L 272.558323 41.457581 
L 273.376971 38.755188 
L 274.19562 34.913918 
L 275.014269 42.13554 
L 275.832918 43.395296 
L 276.651567 38.759352 
L 277.470216 42.670142 
L 278.288865 42.783333 
L 279.107514 48.443789 
L 279.926163 46.604931 
L 280.744811 52.709824 
L 281.56346 54.380165 
L 282.382109 52.17562 
L 283.200758 57.674532 
L 284.019407 55.252108 
L 284.838056 52.050502 
L 285.656705 66.58435 
L 286.475354 65.559941 
L 287.294003 61.626236 
L 288.112652 67.44047 
L 288.9313 65.259937 
L 289.749949 73.871343 
L 290.568598 71.552948 
L 291.387247 74.877379 
L 292.205896 75.774179 
L 293.024545 76.951285 
L 293.843194 83.505141 
L 294.661843 84.748155 
L 295.480492 78.718134 
L 296.29914 83.763999 
L 297.936438 87.887118 
L 298.755087 88.104086 
L 299.573736 94.211984 
L 300.392385 95.079497 
L 301.211034 89.223112 
L 302.029683 94.051124 
L 302.848332 93.069056 
L 303.666981 98.726808 
L 304.485629 93.647102 
L 305.304278 97.876345 
L 306.122927 98.424846 
L 306.941576 99.133278 
L 307.760225 104.180636 
L 308.578874 108.316873 
L 309.397523 106.626517 
L 310.216172 98.940905 
L 311.034821 100.639147 
L 311.853469 106.387275 
L 312.672118 106.833571 
L 313.490767 103.221996 
L 315.128065 111.457137 
L 315.946714 103.9242 
L 316.765363 106.775783 
L 317.584012 116.447038 
L 318.402661 109.943558 
L 319.22131 108.837718 
L 320.039958 108.076416 
L 320.858607 109.361975 
L 321.677256 112.050191 
L 322.495905 110.653873 
L 323.314554 109.577834 
L 324.133203 111.507632 
L 324.951852 111.994808 
L 325.770501 107.098179 
L 326.58915 114.063626 
L 327.407798 112.329709 
L 328.226447 117.664028 
L 329.045096 109.770696 
L 329.863745 108.966214 
L 330.682394 109.914338 
L 331.501043 108.837884 
L 332.319692 110.382697 
L 333.138341 110.743855 
L 333.95699 110.385408 
L 334.775639 112.732656 
L 335.594287 108.249494 
L 336.412936 113.059113 
L 337.231585 116.550113 
L 338.050234 109.39374 
L 338.868883 106.307853 
L 339.687532 115.061616 
L 340.506181 112.41268 
L 341.32483 114.242542 
L 342.143479 113.309434 
L 342.962127 111.996071 
L 343.780776 116.008034 
L 344.599425 113.021845 
L 345.418074 116.72179 
L 346.236723 113.939643 
L 347.055372 115.865213 
L 347.874021 115.475833 
L 348.69267 117.533479 
L 349.511319 108.405546 
L 350.329968 110.615641 
L 351.148616 118.157293 
L 351.967265 114.05674 
L 352.785914 114.287526 
L 353.604563 114.353015 
L 354.423212 116.703111 
L 355.241861 109.865429 
L 356.06051 113.440158 
L 356.879159 110.756745 
L 357.697808 110.575451 
L 358.516456 107.93938 
L 359.335105 117.851721 
L 360.153754 106.812146 
L 360.972403 108.272091 
L 361.791052 110.434001 
L 362.609701 104.809279 
L 363.42835 111.578099 
L 364.246999 109.662931 
L 365.065648 114.509418 
L 365.884297 108.691168 
L 366.702945 111.694131 
L 367.521594 113.617434 
L 368.340243 105.638734 
L 369.158892 113.162733 
L 369.977541 112.188294 
L 370.79619 112.828784 
L 371.614839 114.563646 
L 372.433488 110.565359 
L 373.252137 109.921843 
L 374.070785 111.115001 
L 374.889434 119.549913 
L 375.708083 109.084329 
L 376.526732 113.304148 
L 377.345381 115.994938 
L 378.16403 110.34174 
L 378.982679 110.46736 
L 379.801328 115.456697 
L 380.619977 104.534605 
L 381.438626 115.974156 
L 382.257274 117.6002 
L 383.075923 115.80187 
L 383.894572 107.801869 
L 384.713221 112.762414 
L 385.53187 113.371975 
L 386.350519 112.409172 
L 387.169168 114.069638 
L 387.987817 114.360592 
L 388.806466 114.208209 
L 389.625114 110.016562 
L 390.443763 109.045676 
L 391.262412 115.494056 
L 392.081061 111.47282 
L 392.89971 109.767234 
L 393.718359 115.576883 
L 394.537008 113.777451 
L 395.355657 115.441152 
L 396.174306 116.22707 
L 396.992955 111.899591 
L 396.992955 111.899591 
" clip-path="url(#pd01edf0531)" style="fill: none; stroke: #d62728; stroke-width: 1.6; stroke-linecap: square"/>
   </g>
   <g id="patch_3">
    <path d="M 54.02 129.04 
L 54.02 25.44 
" style="fill: none; stroke: #444444; stroke-width: 0.8; stroke-linejoin: miter; stroke-linecap: square"/>
   </g>
   <g id="patch_4">
    <path d="M 54.02 129.04 
L 413.325 129.04 
" style="fill: none; stroke: #444444; stroke-width: 0.8; stroke-linejoin: miter; stroke-linecap: square"/>
   </g>
   <g id="text_15">
    <!-- two event-aligned traces -->
    <g style="fill: #222222" transform="translate(54.02 19.44) scale(0.11 -0.11)">
     <defs>
      <path id="DejaVuSans-6f" d="M 1959 3097 
Q 1497 3097 1228 2736 
Q 959 2375 959 1747 
Q 959 1119 1226 758 
Q 1494 397 1959 397 
Q 2419 397 2687 759 
Q 2956 1122 2956 1747 
Q 2956 2369 2687 2733 
Q 2419 3097 1959 3097 
z
M 1959 3584 
Q 2709 3584 3137 3096 
Q 3566 2609 3566 1747 
Q 3566 888 3137 398 
Q 2709 -91 1959 -91 
Q 1206 -91 779 398 
Q 353 888 353 1747 
Q 353 2609 779 3096 
Q 1206 3584 1959 3584 
z
" transform="scale(0.015625)"/>
      <path id="DejaVuSans-76" d="M 191 3500 
L 800 3500 
L 1894 563 
L 2988 3500 
L 3597 3500 
L 2284 0 
L 1503 0 
L 191 3500 
z
" transform="scale(0.015625)"/>
      <path id="DejaVuSans-2d" d="M 313 2009 
L 1997 2009 
L 1997 1497 
L 313 1497 
L 313 2009 
z
" transform="scale(0.015625)"/>
      <path id="DejaVuSans-67" d="M 2906 1791 
Q 2906 2416 2648 2759 
Q 2391 3103 1925 3103 
Q 1463 3103 1205 2759 
Q 947 2416 947 1791 
Q 947 1169 1205 825 
Q 1463 481 1925 481 
Q 2391 481 2648 825 
Q 2906 1169 2906 1791 
z
M 3481 434 
Q 3481 -459 3084 -895 
Q 2688 -1331 1869 -1331 
Q 1566 -1331 1297 -1286 
Q 1028 -1241 775 -1147 
L 775 -588 
Q 1028 -725 1275 -790 
Q 1522 -856 1778 -856 
Q 2344 -856 2625 -561 
Q 2906 -266 2906 331 
L 2906 616 
Q 2728 306 2450 153 
Q 2172 0 1784 0 
Q 1141 0 747 490 
Q 353 981 353 1791 
Q 353 2603 747 3093 
Q 1141 3584 1784 3584 
Q 2172 3584 2450 3431 
Q 2728 3278 2906 2969 
L 2906 3500 
L 3481 3500 
L 3481 434 
z
" transform="scale(0.015625)"/>
      <path id="DejaVuSans-63" d="M 3122 3366 
L 3122 2828 
Q 2878 2963 2633 3030 
Q 2388 3097 2138 3097 
Q 1578 3097 1268 2742 
Q 959 2388 959 1747 
Q 959 1106 1268 751 
Q 1578 397 2138 397 
Q 2388 397 2633 464 
Q 2878 531 3122 666 
L 3122 134 
Q 2881 22 2623 -34 
Q 2366 -91 2075 -91 
Q 1284 -91 818 406 
Q 353 903 353 1747 
Q 353 2603 823 3093 
Q 1294 3584 2113 3584 
Q 2378 3584 2631 3529 
Q 2884 3475 3122 3366 
z
" transform="scale(0.015625)"/>
     </defs>
     <use xlink:href="#DejaVuSans-74"/>
     <use xlink:href="#DejaVuSans-77" transform="translate(39.208984 0)"/>
     <use xlink:href="#DejaVuSans-6f" transform="translate(120.996094 0)"/>
     <use xlink:href="#DejaVuSans-20" transform="translate(182.177734 0)"/>
     <use xlink:href="#DejaVuSans-65" transform="translate(213.964844 0)"/>
     <use xlink:href="#DejaVuSans-76" transform="translate(275.488281 0)"/>
     <use xlink:href="#DejaVuSans-65" transform="translate(334.667969 0)"/>
     <use xlink:href="#DejaVuSans-6e" transform="translate(396.191406 0)"/>
     <use xlink:href="#DejaVuSans-74" transform="translate(459.570312 0)"/>
     <use xlink:href="#DejaVuSans-2d" transform="translate(498.779297 0)"/>
     <use xlink:href="#DejaVuSans-61" transform="translate(534.863281 0)"/>
     <use xlink:href="#DejaVuSans-6c" transform="translate(596.142578 0)"/>
     <use xlink:href="#DejaVuSans-69" transform="translate(623.925781 0)"/>
     <use xlink:href="#DejaVuSans-67" transform="translate(651.708984 0)"/>
     <use xlink:href="#DejaVuSans-6e" transform="translate(715.185547 0)"/>
     <use xlink:href="#DejaVuSans-65" transform="translate(778.564453 0)"/>
     <use xlink:href="#DejaVuSans-64" transform="translate(840.087891 0)"/>
     <use xlink:href="#DejaVuSans-20" transform="translate(903.564453 0)"/>
     <use xlink:href="#DejaVuSans-74" transform="translate(935.351562 0)"/>
     <use xlink:href="#DejaVuSans-72" transform="translate(974.560547 0)"/>
     <use xlink:href="#DejaVuSans-61" transform="translate(1015.673828 0)"/>
     <use xlink:href="#DejaVuSans-63" transform="translate(1076.953125 0)"/>
     <use xlink:href="#DejaVuSans-65" transform="translate(1131.933594 0)"/>
     <use xlink:href="#DejaVuSans-73" transform="translate(1193.457031 0)"/>
    </g>
   </g>
   <g id="legend_1">
    <g id="line2d_15">
     <path d="M 334.664062 38.538438 
L 344.664062 38.538438 
L 354.664062 38.538438 
" style="fill: none; stroke: #1f77b4; stroke-width: 1.6; stroke-linecap: square"/>
    </g>
    <g id="text_16">
     <!-- region A -->
     <g style="fill: #222222" transform="translate(362.664062 42.038438) scale(0.1 -0.1)">
      <defs>
       <path id="DejaVuSans-41" d="M 2188 4044 
L 1331 1722 
L 3047 1722 
L 2188 4044 
z
M 1831 4666 
L 2547 4666 
L 4325 0 
L 3669 0 
L 3244 1197 
L 1141 1197 
L 716 0 
L 50 0 
L 1831 4666 
z
" transform="scale(0.015625)"/>
      </defs>
      <use xlink:href="#DejaVuSans-72"/>
      <use xlink:href="#DejaVuSans-65" transform="translate(38.863281 0)"/>
      <use xlink:href="#DejaVuSans-67" transform="translate(100.386719 0)"/>
      <use xlink:href="#DejaVuSans-69" transform="translate(163.863281 0)"/>
      <use xlink:href="#DejaVuSans-6f" transform="translate(191.646484 0)"/>
      <use xlink:href="#DejaVuSans-6e" transform="translate(252.828125 0)"/>
      <use xlink:href="#DejaVuSans-20" transform="translate(316.207031 0)"/>
      <use xlink:href="#DejaVuSans-41" transform="translate(347.994141 0)"/>
     </g>
    </g>
    <g id="line2d_16">
     <path d="M 334.664062 53.216563 
L 344.664062 53.216563 
L 354.664062 53.216563 
" style="fill: none; stroke: #d62728; stroke-width: 1.6; stroke-linecap: square"/>
    </g>
    <g id="text_17">
     <!-- region B -->
     <g style="fill: #222222" transform="translate(362.664062 56.716563) scale(0.1 -0.1)">
      <defs>
       <path id="DejaVuSans-42" d="M 1259 2228 
L 1259 519 
L 2272 519 
Q 2781 519 3026 730 
Q 3272 941 3272 1375 
Q 3272 1813 3026 2020 
Q 2781 2228 2272 2228 
L 1259 2228 
z
M 1259 4147 
L 1259 2741 
L 2194 2741 
Q 2656 2741 2882 2914 
Q 3109 3088 3109 3444 
Q 3109 3797 2882 3972 
Q 2656 4147 2194 4147 
L 1259 4147 
z
M 628 4666 
L 2241 4666 
Q 2963 4666 3353 4366 
Q 3744 4066 3744 3513 
Q 3744 3084 3544 2831 
Q 3344 2578 2956 2516 
Q 3422 2416 3680 2098 
Q 3938 1781 3938 1306 
Q 3938 681 3513 340 
Q 3088 0 2303 0 
L 628 0 
L 628 4666 
z
" transform="scale(0.015625)"/>
      </defs>
      <use xlink:href="#DejaVuSans-72"/>
      <use xlink:href="#DejaVuSans-65" transform="translate(38.863281 0)"/>
      <use xlink:href="#DejaVuSans-67" transform="translate(100.386719 0)"/>
      <use xlink:href="#DejaVuSans-69" transform="translate(163.863281 0)"/>
      <use xlink:href="#DejaVuSans-6f" transform="translate(191.646484 0)"/>
      <use xlink:href="#DejaVuSans-6e" transform="translate(252.828125 0)"/>
      <use xlink:href="#DejaVuSans-20" transform="translate(316.207031 0)"/>
      <use xlink:href="#DejaVuSans-42" transform="translate(347.994141 0)"/>
     </g>
    </g>
   </g>
  </g>
  <g id="axes_2">
   <g id="patch_5">
    <path d="M 54.02 289.24 
L 413.325 289.24 
L 413.325 185.64 
L 54.02 185.64 
L 54.02 289.24 
z
" style="fill: none"/>
   </g>
   <g id="matplotlib.axis_3">
    <g id="xtick_10">
     <g id="line2d_17">
      <g>
       <use xlink:href="#m81668aad88" x="54.02" y="289.24" style="fill: #444444; stroke: #444444; stroke-width: 0.8"/>
      </g>
     </g>
     <g id="text_18">
      <!-- −2.0 -->
      <g style="fill: #444444" transform="translate(41.878594 303.838437) scale(0.1 -0.1)">
       <use xlink:href="#DejaVuSans-2212"/>
       <use xlink:href="#DejaVuSans-32" transform="translate(83.789062 0)"/>
       <use xlink:href="#DejaVuSans-2e" transform="translate(147.412109 0)"/>
       <use xlink:href="#DejaVuSans-30" transform="translate(179.199219 0)"/>
      </g>
     </g>
    </g>
    <g id="xtick_11">
     <g id="line2d_18">
      <g>
       <use xlink:href="#m81668aad88" x="98.933125" y="289.24" style="fill: #444444; stroke: #444444; stroke-width: 0.8"/>
      </g>
     </g>
     <g id="text_19">
      <!-- −1.5 -->
      <g style="fill: #444444" transform="translate(86.791719 303.838437) scale(0.1 -0.1)">
       <use xlink:href="#DejaVuSans-2212"/>
       <use xlink:href="#DejaVuSans-31" transform="translate(83.789062 0)"/>
       <use xlink:href="#DejaVuSans-2e" transform="translate(147.412109 0)"/>
       <use xlink:href="#DejaVuSans-35" transform="translate(179.199219 0)"/>
      </g>
     </g>
    </g>
    <g id="xtick_12">
     <g id="line2d_19">
      <g>
       <use xlink:href="#m81668aad88" x="143.84625" y="289.24" style="fill: #444444; stroke: #444444; stroke-width: 0.8"/>
      </g>
     </g>
     <g id="text_20">
      <!-- −1.0 -->
      <g style="fill: #444444" transform="translate(131.704844 303.838437) scale(0.1 -0.1)">
       <use xlink:href="#DejaVuSans-2212"/>
       <use xlink:href="#DejaVuSans-31" transform="translate(83.789062 0)"/>
       <use xlink:href="#DejaVuSans-2e" transform="translate(147.412109 0)"/>
       <use xlink:href="#DejaVuSans-30" transform="translate(179.199219 0)"/>
      </g>
     </g>
    </g>
    <g id="xtick_13">
     <g id="line2d_20">
      <g>
       <use xlink:href="#m81668aad88" x="188.759375" y="289.24" style="fill: #444444; stroke: #444444; stroke-width: 0.8"/>
      </g>
     </g>
     <g id="text_21">
      <!-- −0.5 -->
      <g style="fill: #444444" transform="translate(176.617969 303.838437) scale(0.1 -0.1)">
       <use xlink:href="#DejaVuSans-2212"/>
       <use xlink:href="#DejaVuSans-30" transform="translate(83.789062 0)"/>
       <use xlink:href="#DejaVuSans-2e" transform="translate(147.412109 0)"/>
       <use xlink:href="#DejaVuSans-35" transform="translate(179.199219 0)"/>
      </g>
     </g>
    </g>
    <g id="xtick_14">
     <g id="line2d_21">
      <g>
       <use xlink:href="#m81668aad88" x="233.6725" y="289.24" style="fill: #444444; stroke: #444444; stroke-width: 0.8"/>
      </g>
     </g>
     <g id="text_22">
      <!-- 0.0 -->
      <g style="fill: #444444" transform="translate(225.720937 303.838437) scale(0.1 -0.1)">
       <use xlink:href="#DejaVuSans-30"/>
       <use xlink:href="#DejaVuSans-2e" transform="translate(63.623047 0)"/>
       <use xlink:href="#DejaVuSans-30" transform="translate(95.410156 0)"/>
      </g>
     </g>
    </g>
    <g id="xtick_15">
     <g id="line2d_22">
      <g>
       <use xlink:href="#m81668aad88" x="278.585625" y="289.24" style="fill: #444444; stroke: #444444; stroke-width: 0.8"/>
      </g>
     </g>
     <g id="text_23">
      <!-- 0.5 -->
      <g style="fill: #444444" transform="translate(270.634062 303.838437) scale(0.1 -0.1)">
       <use xlink:href="#DejaVuSans-30"/>
       <use xlink:href="#DejaVuSans-2e" transform="translate(63.623047 0)"/>
       <use xlink:href="#DejaVuSans-35" transform="translate(95.410156 0)"/>
      </g>
     </g>
    </g>
    <g id="xtick_16">
     <g id="line2d_23">
      <g>
       <use xlink:href="#m81668aad88" x="323.49875" y="289.24" style="fill: #444444; stroke: #444444; stroke-width: 0.8"/>
      </g>
     </g>
     <g id="text_24">
      <!-- 1.0 -->
      <g style="fill: #444444" transform="translate(315.547187 303.838437) scale(0.1 -0.1)">
       <use xlink:href="#DejaVuSans-31"/>
       <use xlink:href="#DejaVuSans-2e" transform="translate(63.623047 0)"/>
       <use xlink:href="#DejaVuSans-30" transform="translate(95.410156 0)"/>
      </g>
     </g>
    </g>
    <g id="xtick_17">
     <g id="line2d_24">
      <g>
       <use xlink:href="#m81668aad88" x="368.411875" y="289.24" style="fill: #444444; stroke: #444444; stroke-width: 0.8"/>
      </g>
     </g>
     <g id="text_25">
      <!-- 1.5 -->
      <g style="fill: #444444" transform="translate(360.460312 303.838437) scale(0.1 -0.1)">
       <use xlink:href="#DejaVuSans-31"/>
       <use xlink:href="#DejaVuSans-2e" transform="translate(63.623047 0)"/>
       <use xlink:href="#DejaVuSans-35" transform="translate(95.410156 0)"/>
      </g>
     </g>
    </g>
    <g id="xtick_18">
     <g id="line2d_25">
      <g>
       <use xlink:href="#m81668aad88" x="413.325" y="289.24" style="fill: #444444; stroke: #444444; stroke-width: 0.8"/>
      </g>
     </g>
     <g id="text_26">
      <!-- 2.0 -->
      <g style="fill: #444444" transform="translate(405.373437 303.838437) scale(0.1 -0.1)">
       <use xlink:href="#DejaVuSans-32"/>
       <use xlink:href="#DejaVuSans-2e" transform="translate(63.623047 0)"/>
       <use xlink:href="#DejaVuSans-30" transform="translate(95.410156 0)"/>
      </g>
     </g>
    </g>
    <g id="text_27">
     <!-- lag (s) -->
     <g style="fill: #444444" transform="translate(217.949844 317.516563) scale(0.1 -0.1)">
      <use xlink:href="#DejaVuSans-6c"/>
      <use xlink:href="#DejaVuSans-61" transform="translate(27.783203 0)"/>
      <use xlink:href="#DejaVuSans-67" transform="translate(89.0625 0)"/>
      <use xlink:href="#DejaVuSans-20" transform="translate(152.539062 0)"/>
      <use xlink:href="#DejaVuSans-28" transform="translate(184.326172 0)"/>
      <use xlink:href="#DejaVuSans-73" transform="translate(223.339844 0)"/>
      <use xlink:href="#DejaVuSans-29" transform="translate(275.439453 0)"/>
     </g>
    </g>
   </g>
   <g id="matplotlib.axis_4">
    <g id="ytick_4">
     <g id="line2d_26">
      <g>
       <use xlink:href="#m0ffdfbbdb4" x="54.02" y="284.149439" style="fill: #444444; stroke: #444444; stroke-width: 0.8"/>
      </g>
     </g>
     <g id="text_28">
      <!-- 0.00 -->
      <g style="fill: #444444" transform="translate(24.754375 287.948657) scale(0.1 -0.1)">
       <use xlink:href="#DejaVuSans-30"/>
       <use xlink:href="#DejaVuSans-2e" transform="translate(63.623047 0)"/>
       <use xlink:href="#DejaVuSans-30" transform="translate(95.410156 0)"/>
       <use xlink:href="#DejaVuSans-30" transform="translate(159.033203 0)"/>
      </g>
     </g>
    </g>
    <g id="ytick_5">
     <g id="line2d_27">
      <g>
       <use xlink:href="#m0ffdfbbdb4" x="54.02" y="260.699352" style="fill: #444444; stroke: #444444; stroke-width: 0.8"/>
      </g>
     </g>
     <g id="text_29">
      <!-- 0.25 -->
      <g style="fill: #444444" transform="translate(24.754375 264.49857) scale(0.1 -0.1)">
       <use xlink:href="#DejaVuSans-30"/>
       <use xlink:href="#DejaVuSans-2e" transform="translate(63.623047 0)"/>
       <use xlink:href="#DejaVuSans-32" transform="translate(95.410156 0)"/>
       <use xlink:href="#DejaVuSans-35" transform="translate(159.033203 0)"/>
      </g>
     </g>
    </g>
    <g id="ytick_6">
     <g id="line2d_28">
      <g>
       <use xlink:href="#m0ffdfbbdb4" x="54.02" y="237.249265" style="fill: #444444; stroke: #444444; stroke-width: 0.8"/>
      </g>
     </g>
     <g id="text_30">
      <!-- 0.50 -->
      <g style="fill: #444444" transform="translate(24.754375 241.048483) scale(0.1 -0.1)">
       <use xlink:href="#DejaVuSans-30"/>
       <use xlink:href="#DejaVuSans-2e" transform="translate(63.623047 0)"/>
       <use xlink:href="#DejaVuSans-35" transform="translate(95.410156 0)"/>
       <use xlink:href="#DejaVuSans-30" transform="translate(159.033203 0)"/>
      </g>
     </g>
    </g>
    <g id="ytick_7">
     <g id="line2d_29">
      <g>
       <use xlink:href="#m0ffdfbbdb4" x="54.02" y="213.799178" style="fill: #444444; stroke: #444444; stroke-width: 0.8"/>
      </g>
     </g>
     <g id="text_31">
      <!-- 0.75 -->
      <g style="fill: #444444" transform="translate(24.754375 217.598397) scale(0.1 -0.1)">
       <defs>
        <path id="DejaVuSans-37" d="M 525 4666 
L 3525 4666 
L 3525 4397 
L 1831 0 
L 1172 0 
L 2766 4134 
L 525 4134 
L 525 4666 
z
" transform="scale(0.015625)"/>
       </defs>
       <use xlink:href="#DejaVuSans-30"/>
       <use xlink:href="#DejaVuSans-2e" transform="translate(63.623047 0)"/>
       <use xlink:href="#DejaVuSans-37" transform="translate(95.410156 0)"/>
       <use xlink:href="#DejaVuSans-35" transform="translate(159.033203 0)"/>
      </g>
     </g>
    </g>
    <g id="ytick_8">
     <g id="line2d_30">
      <g>
       <use xlink:href="#m0ffdfbbdb4" x="54.02" y="190.349091" style="fill: #444444; stroke: #444444; stroke-width: 0.8"/>
      </g>
     </g>
     <g id="text_32">
      <!-- 1.00 -->
      <g style="fill: #444444" transform="translate(24.754375 194.14831) scale(0.1 -0.1)">
       <use xlink:href="#DejaVuSans-31"/>
       <use xlink:href="#DejaVuSans-2e" transform="translate(63.623047 0)"/>
       <use xlink:href="#DejaVuSans-30" transform="translate(95.410156 0)"/>
       <use xlink:href="#DejaVuSans-30" transform="translate(159.033203 0)"/>
      </g>
     </g>
    </g>
    <g id="text_33">
     <!-- normalised correlation -->
     <g style="fill: #444444" transform="translate(18.674688 293.619688) rotate(-90) scale(0.1 -0.1)">
      <use xlink:href="#DejaVuSans-6e"/>
      <use xlink:href="#DejaVuSans-6f" transform="translate(63.378906 0)"/>
      <use xlink:href="#DejaVuSans-72" transform="translate(124.560547 0)"/>
      <use xlink:href="#DejaVuSans-6d" transform="translate(163.923828 0)"/>
      <use xlink:href="#DejaVuSans-61" transform="translate(261.335938 0)"/>
      <use xlink:href="#DejaVuSans-6c" transform="translate(322.615234 0)"/>
      <use xlink:href="#DejaVuSans-69" transform="translate(350.398438 0)"/>
      <use xlink:href="#DejaVuSans-73" transform="translate(378.181641 0)"/>
      <use xlink:href="#DejaVuSans-65" transform="translate(430.28125 0)"/>
      <use xlink:href="#DejaVuSans-64" transform="translate(491.804688 0)"/>
      <use xlink:href="#DejaVuSans-20" transform="translate(555.28125 0)"/>
      <use xlink:href="#DejaVuSans-63" transform="translate(587.068359 0)"/>
      <use xlink:href="#DejaVuSans-6f" transform="translate(642.048828 0)"/>
      <use xlink:href="#DejaVuSans-72" transform="translate(703.230469 0)"/>
      <use xlink:href="#DejaVuSans-72" transform="translate(742.59375 0)"/>
      <use xlink:href="#DejaVuSans-65" transform="translate(781.457031 0)"/>
      <use xlink:href="#DejaVuSans-6c" transform="translate(842.980469 0)"/>
      <use xlink:href="#DejaVuSans-61" transform="translate(870.763672 0)"/>
      <use xlink:href="#DejaVuSans-74" transform="translate(932.042969 0)"/>
      <use xlink:href="#DejaVuSans-69" transform="translate(971.251953 0)"/>
      <use xlink:href="#DejaVuSans-6f" transform="translate(999.035156 0)"/>
      <use xlink:href="#DejaVuSans-6e" transform="translate(1060.216797 0)"/>
     </g>
    </g>
   </g>
   <g id="line2d_31">
    <path d="M -1 284.258721 
L 1.920775 284.327598 
L 2.819038 284.253739 
L 4.615563 284.260954 
L 9.106875 284.2657 
L 10.005137 284.404917 
L 10.9034 284.286092 
L 13.598187 284.330306 
L 32.4617 284.3733 
L 33.359963 284.226797 
L 39.6478 284.14691 
L 40.546063 283.997491 
L 42.342588 284.058703 
L 45.037375 284.058508 
L 47.732163 283.968062 
L 48.630425 284.018588 
L 49.528688 283.849064 
L 50.42695 283.96161 
L 54.918262 283.780297 
L 55.816525 283.849402 
L 57.61305 283.761581 
L 58.511313 283.817782 
L 60.307838 283.724033 
L 63.002625 283.626218 
L 63.900888 283.67079 
L 64.79915 283.507266 
L 67.493937 283.521535 
L 68.3922 283.483424 
L 69.290462 283.643154 
L 70.188725 283.481909 
L 73.781775 283.603745 
L 76.476562 283.490278 
L 77.374825 283.565562 
L 79.17135 283.514447 
L 80.069613 283.561394 
L 80.967875 283.493088 
L 82.7644 283.55472 
L 86.35745 283.454592 
L 87.255713 283.596541 
L 89.9505 283.453221 
L 90.848762 283.558447 
L 91.747025 283.451427 
L 97.1366 283.446108 
L 98.933125 283.33952 
L 99.831388 283.33745 
L 102.526175 283.048474 
L 107.017488 282.722692 
L 108.814013 282.458577 
L 109.712275 282.446731 
L 110.610537 282.127934 
L 111.5088 282.070413 
L 112.407062 281.829216 
L 113.305325 281.772661 
L 115.10185 281.14182 
L 116.898375 280.882467 
L 117.796638 280.448124 
L 118.6949 280.329211 
L 121.389688 279.24454 
L 124.084475 278.074853 
L 124.982737 277.818108 
L 127.677525 276.226194 
L 130.372313 274.580015 
L 133.965362 272.031802 
L 138.456675 268.031877 
L 139.354938 266.989714 
L 140.2532 266.220571 
L 143.84625 262.065942 
L 145.642775 259.836894 
L 147.4393 257.629116 
L 152.828875 249.765929 
L 154.6254 246.941783 
L 157.320188 242.375902 
L 161.8115 234.764392 
L 174.387175 212.516976 
L 177.980225 206.67395 
L 182.471538 200.47825 
L 184.268062 198.353264 
L 186.96285 195.427992 
L 189.657637 193.192729 
L 190.5559 192.737432 
L 192.352425 191.587396 
L 195.945475 190.349091 
L 196.843738 190.430169 
L 197.742 190.371845 
L 199.538525 190.578631 
L 200.436787 190.771421 
L 201.33505 191.168509 
L 202.233312 191.29184 
L 205.826362 193.57038 
L 207.622887 195.089829 
L 209.419412 196.767302 
L 212.1142 199.966462 
L 213.910725 202.191392 
L 214.808988 203.622599 
L 216.605512 206.115986 
L 220.198562 211.732386 
L 221.995087 214.869763 
L 222.89335 216.323234 
L 223.791612 217.993253 
L 225.588137 221.062374 
L 235.469025 238.944221 
L 239.062075 244.923683 
L 241.756862 249.470582 
L 242.655125 250.733144 
L 244.45165 253.490477 
L 248.942962 259.800058 
L 250.739487 262.047977 
L 251.63775 262.904072 
L 253.434275 265.052856 
L 257.027325 268.882199 
L 257.925588 269.598217 
L 259.722112 271.310824 
L 266.00995 275.850756 
L 266.908212 276.204545 
L 267.806475 276.821355 
L 272.297787 279.049721 
L 274.094313 279.663219 
L 274.992575 280.179839 
L 280.38215 281.687637 
L 281.280413 281.85692 
L 282.178675 282.209501 
L 287.56825 282.938266 
L 288.466512 283.022057 
L 289.364775 283.296925 
L 290.263037 283.318371 
L 292.059562 283.523004 
L 292.957825 283.659676 
L 294.75435 283.629221 
L 297.449137 283.904494 
L 298.3474 283.817035 
L 300.143925 284.015279 
L 301.042187 284.038451 
L 301.94045 283.823607 
L 303.736975 284.09224 
L 305.5335 284.106526 
L 306.431762 284.219946 
L 307.330025 284.062268 
L 308.228287 284.178408 
L 309.12655 284.14603 
L 310.024812 284.23334 
L 310.923075 284.15193 
L 312.7196 284.292983 
L 313.617863 284.113976 
L 315.414387 284.276156 
L 316.31265 284.15008 
L 318.109175 284.280681 
L 319.007437 284.22801 
L 321.702225 284.370328 
L 323.49875 284.292686 
L 324.397012 284.409476 
L 326.193537 284.411224 
L 327.990062 284.407363 
L 329.786587 284.391383 
L 330.68485 284.527882 
L 332.481375 284.424432 
L 333.379638 284.456558 
L 334.2779 284.366807 
L 340.565737 284.461425 
L 341.464 284.403559 
L 343.260525 284.473633 
L 344.158787 284.382955 
L 345.05705 284.457186 
L 345.955312 284.390077 
L 347.751837 284.433416 
L 350.446625 284.278739 
L 351.344887 284.412246 
L 354.039675 284.313244 
L 354.937937 284.350205 
L 355.8362 284.179447 
L 357.632725 284.199025 
L 359.42925 284.102085 
L 360.327512 284.213387 
L 361.225775 284.083068 
L 362.124037 284.108163 
L 363.0223 283.996828 
L 363.920562 284.098319 
L 364.818825 283.960404 
L 368.411875 283.943438 
L 371.106662 283.817815 
L 374.699712 283.857815 
L 376.496238 283.680107 
L 377.3945 283.668782 
L 378.292762 283.790058 
L 380.089287 283.651836 
L 380.98755 283.72451 
L 382.784075 283.567469 
L 384.5806 283.596281 
L 386.377125 283.626852 
L 387.275387 283.513677 
L 388.17365 283.650427 
L 390.868437 283.642042 
L 391.7667 283.519906 
L 392.664963 283.685545 
L 394.461487 283.652566 
L 396.258012 283.704469 
L 397.156275 283.598597 
L 401.647587 283.840965 
L 402.54585 283.705776 
L 407.935425 283.913446 
L 408.833687 283.789568 
L 412.426737 283.965903 
L 414.223262 283.90817 
L 416.91805 283.992412 
L 419.612837 283.954475 
L 420.5111 283.936737 
L 421.409362 284.090265 
L 425.900675 284.056651 
L 426.798937 284.14238 
L 427.6972 284.070213 
L 428.595462 284.136451 
L 429.493725 284.052065 
L 430.391987 284.16879 
L 431.29025 284.084292 
L 432.188512 284.150326 
L 433 284.09714 
L 433 284.09714 
" clip-path="url(#p3806a5ef73)" style="fill: none; stroke: #333333; stroke-width: 1.6; stroke-linecap: square"/>
   </g>
   <g id="line2d_32">
    <path d="M 195.945475 289.24 
L 195.945475 185.64 
" clip-path="url(#p3806a5ef73)" style="fill: none; stroke-dasharray: 1.5,2.475; stroke-dashoffset: 0; stroke: #333333; stroke-opacity: 0.4; stroke-width: 1.5"/>
   </g>
   <g id="line2d_33">
    <path d="M 54.02 284.149439 
L 413.325 284.149439 
" clip-path="url(#p3806a5ef73)" style="fill: none; stroke: #888888; stroke-width: 0.6; stroke-linecap: square"/>
   </g>
   <g id="patch_6">
    <path d="M 54.02 289.24 
L 54.02 185.64 
" style="fill: none; stroke: #444444; stroke-width: 0.8; stroke-linejoin: miter; stroke-linecap: square"/>
   </g>
   <g id="patch_7">
    <path d="M 54.02 289.24 
L 413.325 289.24 
" style="fill: none; stroke: #444444; stroke-width: 0.8; stroke-linejoin: miter; stroke-linecap: square"/>
   </g>
   <g id="patch_8">
    <path d="M 268.014172 213.041842 
Q 232.932148 201.995331 198.703256 191.217452 
" style="fill: none; stroke: #333333; stroke-width: 0.8; stroke-linecap: round"/>
    <path d="M 201.596441 194.015572 
L 198.703256 191.217452 
L 202.677664 190.581776 
" style="fill: none; stroke: #333333; stroke-width: 0.8; stroke-linecap: round"/>
   </g>
   <g id="text_34">
    <!-- peak at lag = -0.42 s -->
    <g style="fill: #222222" transform="translate(258.82385 222.481216) scale(0.09 -0.09)">
     <defs>
      <path id="DejaVuSans-6b" d="M 581 4863 
L 1159 4863 
L 1159 1991 
L 2875 3500 
L 3609 3500 
L 1753 1863 
L 3688 0 
L 2938 0 
L 1159 1709 
L 1159 0 
L 581 0 
L 581 4863 
z
" transform="scale(0.015625)"/>
      <path id="DejaVuSans-3d" d="M 678 2906 
L 4684 2906 
L 4684 2381 
L 678 2381 
L 678 2906 
z
M 678 1631 
L 4684 1631 
L 4684 1100 
L 678 1100 
L 678 1631 
z
" transform="scale(0.015625)"/>
      <path id="DejaVuSans-34" d="M 2419 4116 
L 825 1625 
L 2419 1625 
L 2419 4116 
z
M 2253 4666 
L 3047 4666 
L 3047 1625 
L 3713 1625 
L 3713 1100 
L 3047 1100 
L 3047 0 
L 2419 0 
L 2419 1100 
L 313 1100 
L 313 1709 
L 2253 4666 
z
" transform="scale(0.015625)"/>
     </defs>
     <use xlink:href="#DejaVuSans-70"/>
     <use xlink:href="#DejaVuSans-65" transform="translate(63.476562 0)"/>
     <use xlink:href="#DejaVuSans-61" transform="translate(125 0)"/>
     <use xlink:href="#DejaVuSans-6b" transform="translate(186.279297 0)"/>
     <use xlink:href="#DejaVuSans-20" transform="translate(244.189453 0)"/>
     <use xlink:href="#DejaVuSans-61" transform="translate(275.976562 0)"/>
     <use xlink:href="#DejaVuSans-74" transform="translate(337.255859 0)"/>
     <use xlink:href="#DejaVuSans-20" transform="translate(376.464844 0)"/>
     <use xlink:href="#DejaVuSans-6c" transform="translate(408.251953 0)"/>
     <use xlink:href="#DejaVuSans-61" transform="translate(436.035156 0)"/>
     <use xlink:href="#DejaVuSans-67" transform="translate(497.314453 0)"/>
     <use xlink:href="#DejaVuSans-20" transform="translate(560.791016 0)"/>
     <use xlink:href="#DejaVuSans-3d" transform="translate(592.578125 0)"/>
     <use xlink:href="#DejaVuSans-20" transform="translate(676.367188 0)"/>
     <use xlink:href="#DejaVuSans-2d" transform="translate(708.154297 0)"/>
     <use xlink:href="#DejaVuSans-30" transform="translate(744.238281 0)"/>
     <use xlink:href="#DejaVuSans-2e" transform="translate(807.861328 0)"/>
     <use xlink:href="#DejaVuSans-34" transform="translate(839.648438 0)"/>
     <use xlink:href="#DejaVuSans-32" transform="translate(903.271484 0)"/>
     <use xlink:href="#DejaVuSans-20" transform="translate(966.894531 0)"/>
     <use xlink:href="#DejaVuSans-73" transform="translate(998.681641 0)"/>
    </g>
    <!-- (B trails A by ~0.4 s) -->
    <g style="fill: #222222" transform="translate(258.82385 232.559247) scale(0.09 -0.09)">
     <defs>
      <path id="DejaVuSans-62" d="M 3116 1747 
Q 3116 2381 2855 2742 
Q 2594 3103 2138 3103 
Q 1681 3103 1420 2742 
Q 1159 2381 1159 1747 
Q 1159 1113 1420 752 
Q 1681 391 2138 391 
Q 2594 391 2855 752 
Q 3116 1113 3116 1747 
z
M 1159 2969 
Q 1341 3281 1617 3432 
Q 1894 3584 2278 3584 
Q 2916 3584 3314 3078 
Q 3713 2572 3713 1747 
Q 3713 922 3314 415 
Q 2916 -91 2278 -91 
Q 1894 -91 1617 61 
Q 1341 213 1159 525 
L 1159 0 
L 581 0 
L 581 4863 
L 1159 4863 
L 1159 2969 
z
" transform="scale(0.015625)"/>
      <path id="DejaVuSans-79" d="M 2059 -325 
Q 1816 -950 1584 -1140 
Q 1353 -1331 966 -1331 
L 506 -1331 
L 506 -850 
L 844 -850 
Q 1081 -850 1212 -737 
Q 1344 -625 1503 -206 
L 1606 56 
L 191 3500 
L 800 3500 
L 1894 763 
L 2988 3500 
L 3597 3500 
L 2059 -325 
z
" transform="scale(0.015625)"/>
      <path id="DejaVuSans-7e" d="M 4684 2553 
L 4684 1997 
Q 4356 1750 4076 1644 
Q 3797 1538 3494 1538 
Q 3150 1538 2694 1722 
Q 2659 1734 2644 1741 
Q 2622 1750 2575 1766 
Q 2091 1959 1797 1959 
Q 1522 1959 1253 1839 
Q 984 1719 678 1459 
L 678 2016 
Q 1006 2263 1286 2370 
Q 1566 2478 1869 2478 
Q 2213 2478 2672 2291 
Q 2703 2278 2719 2272 
Q 2744 2263 2788 2247 
Q 3272 2053 3566 2053 
Q 3834 2053 4098 2172 
Q 4363 2291 4684 2553 
z
" transform="scale(0.015625)"/>
     </defs>
     <use xlink:href="#DejaVuSans-28"/>
     <use xlink:href="#DejaVuSans-42" transform="translate(39.013672 0)"/>
     <use xlink:href="#DejaVuSans-20" transform="translate(107.617188 0)"/>
     <use xlink:href="#DejaVuSans-74" transform="translate(139.404297 0)"/>
     <use xlink:href="#DejaVuSans-72" transform="translate(178.613281 0)"/>
     <use xlink:href="#DejaVuSans-61" transform="translate(219.726562 0)"/>
     <use xlink:href="#DejaVuSans-69" transform="translate(281.005859 0)"/>
     <use xlink:href="#DejaVuSans-6c" transform="translate(308.789062 0)"/>
     <use xlink:href="#DejaVuSans-73" transform="translate(336.572266 0)"/>
     <use xlink:href="#DejaVuSans-20" transform="translate(388.671875 0)"/>
     <use xlink:href="#DejaVuSans-41" transform="translate(420.458984 0)"/>
     <use xlink:href="#DejaVuSans-20" transform="translate(488.867188 0)"/>
     <use xlink:href="#DejaVuSans-62" transform="translate(520.654297 0)"/>
     <use xlink:href="#DejaVuSans-79" transform="translate(584.130859 0)"/>
     <use xlink:href="#DejaVuSans-20" transform="translate(643.310547 0)"/>
     <use xlink:href="#DejaVuSans-7e" transform="translate(675.097656 0)"/>
     <use xlink:href="#DejaVuSans-30" transform="translate(758.886719 0)"/>
     <use xlink:href="#DejaVuSans-2e" transform="translate(822.509766 0)"/>
     <use xlink:href="#DejaVuSans-34" transform="translate(854.296875 0)"/>
     <use xlink:href="#DejaVuSans-20" transform="translate(917.919922 0)"/>
     <use xlink:href="#DejaVuSans-73" transform="translate(949.707031 0)"/>
     <use xlink:href="#DejaVuSans-29" transform="translate(1001.806641 0)"/>
    </g>
   </g>
   <g id="text_35">
    <!-- cross-correlogram -->
    <g style="fill: #222222" transform="translate(54.02 179.64) scale(0.11 -0.11)">
     <use xlink:href="#DejaVuSans-63"/>
     <use xlink:href="#DejaVuSans-72" transform="translate(54.980469 0)"/>
     <use xlink:href="#DejaVuSans-6f" transform="translate(93.84375 0)"/>
     <use xlink:href="#DejaVuSans-73" transform="translate(155.025391 0)"/>
     <use xlink:href="#DejaVuSans-73" transform="translate(207.125 0)"/>
     <use xlink:href="#DejaVuSans-2d" transform="translate(259.224609 0)"/>
     <use xlink:href="#DejaVuSans-63" transform="translate(295.308594 0)"/>
     <use xlink:href="#DejaVuSans-6f" transform="translate(350.289062 0)"/>
     <use xlink:href="#DejaVuSans-72" transform="translate(411.470703 0)"/>
     <use xlink:href="#DejaVuSans-72" transform="translate(450.833984 0)"/>
     <use xlink:href="#DejaVuSans-65" transform="translate(489.697266 0)"/>
     <use xlink:href="#DejaVuSans-6c" transform="translate(551.220703 0)"/>
     <use xlink:href="#DejaVuSans-6f" transform="translate(579.003906 0)"/>
     <use xlink:href="#DejaVuSans-67" transform="translate(640.185547 0)"/>
     <use xlink:href="#DejaVuSans-72" transform="translate(703.662109 0)"/>
     <use xlink:href="#DejaVuSans-61" transform="translate(744.775391 0)"/>
     <use xlink:href="#DejaVuSans-6d" transform="translate(806.054688 0)"/>
    </g>
   </g>
  </g>
 </g>
 <defs>
  <clipPath id="pd01edf0531">
   <rect x="54.02" y="25.44" width="359.305" height="103.6"/>
  </clipPath>
  <clipPath id="p3806a5ef73">
   <rect x="54.02" y="185.64" width="359.305" height="103.6"/>
  </clipPath>
 </defs>
</svg>
