<?xml version="1.0" encoding="utf-8" standalone="no"?>
<!DOCTYPE svg PUBLIC "-//W3C//DTD SVG 1.1//EN"
  "http://www.w3.org/Graphics/SVG/1.1/DTD/svg11.dtd">
<svg xmlns:xlink="http://www.w3.org/1999/xlink" width="561.6pt" height="331.2pt" viewBox="0 0 561.6 331.2" xmlns="http://www.w3.org/2000/svg" version="1.1">
 <metadata>
  <rdf:RDF xmlns:dc="http://purl.org/dc/elements/1.1/" xmlns:cc="http://creativecommons.org/ns#" xmlns:rdf="http://www.w3.org/1999/02/22-rdf-syntax-ns#">
   <cc:Work>
    <dc:type rdf:resource="http://purl.org/dc/dcmitype/StillImage"/>
    <dc:date>2026-04-28T18:22:58.871293</dc:date>
    <dc:format>image/svg+xml</dc:format>
    <dc:creator>
     <cc:Agent>
      <dc:title>Matplotlib v3.10.9, https://matplotlib.org/</dc:title>
     </cc:Agent>
    </dc:creator>
   </cc:Work>
  </rdf:RDF>
 </metadata>
 <defs>
  <style type="text/css">*{stroke-linejoin: round; stroke-linecap: butt}</style>
 </defs>
 <g id="figure_1">
  <g id="patch_1">
   <path d="M 0 331.2 
L 561.6 331.2 
L 561.6 0 
L 0 0 
L 0 331.2 
z
" style="fill: none"/>
  </g>
  <g id="axes_1">
   <g id="patch_2">
    <path d="M 57.8 143.4 
L 281.135 143.4 
L 281.135 25.44 
L 57.8 25.44 
L 57.8 143.4 
z
" style="fill: none"/>
   </g>
   <g id="matplotlib.axis_1">
    <g id="xtick_1">
     <g id="line2d_1">
      <defs>
       <path id="m77be80d2da" d="M 0 0 
L 0 3.5 
" style="stroke: #444444; stroke-width: 0.8"/>
      </defs>
      <g>
       <use xlink:href="#m77be80d2da" x="57.8" y="143.4" style="fill: #444444; stroke: #444444; stroke-width: 0.8"/>
      </g>
     </g>
     <g id="text_1">
      <!-- −1.5 -->
      <g style="fill: #444444" transform="translate(45.658594 157.998437) scale(0.1 -0.1)">
       <defs>
        <path id="DejaVuSans-2212" d="M 678 2272 
L 4684 2272 
L 4684 1741 
L 678 1741 
L 678 2272 
z
" transform="scale(0.015625)"/>
        <path id="DejaVuSans-31" d="M 794 531 
L 1825 531 
L 1825 4091 
L 703 3866 
L 703 4441 
L 1819 4666 
L 2450 4666 
L 2450 531 
L 3481 531 
L 3481 0 
L 794 0 
L 794 531 
z
" transform="scale(0.015625)"/>
        <path id="DejaVuSans-2e" d="M 684 794 
L 1344 794 
L 1344 0 
L 684 0 
L 684 794 
z
" transform="scale(0.015625)"/>
        <path id="DejaVuSans-35" d="M 691 4666 
L 3169 4666 
L 3169 4134 
L 1269 4134 
L 1269 2991 
Q 1406 3038 1543 3061 
Q 1681 3084 1819 3084 
Q 2600 3084 3056 2656 
Q 3513 2228 3513 1497 
Q 3513 744 3044 326 
Q 2575 -91 1722 -91 
Q 1428 -91 1123 -41 
Q 819 9 494 109 
L 494 744 
Q 775 591 1075 516 
Q 1375 441 1709 441 
Q 2250 441 2565 725 
Q 2881 1009 2881 1497 
Q 2881 1984 2565 2268 
Q 2250 2553 1709 2553 
Q 1456 2553 1204 2497 
Q 953 2441 691 2322 
L 691 4666 
z
" transform="scale(0.015625)"/>
       </defs>
       <use xlink:href="#DejaVuSans-2212"/>
       <use xlink:href="#DejaVuSans-31" transform="translate(83.789062 0)"/>
       <use xlink:href="#DejaVuSans-2e" transform="translate(147.412109 0)"/>
       <use xlink:href="#DejaVuSans-35" transform="translate(179.199219 0)"/>
      </g>
     </g>
    </g>
    <g id="xtick_2">
     <g id="line2d_2">
      <g>
       <use xlink:href="#m77be80d2da" x="95.0225" y="143.4" style="fill: #444444; stroke: #444444; stroke-width: 0.8"/>
      </g>
     </g>
     <g id="text_2">
      <!-- −1.0 -->
      <g style="fill: #444444" transform="translate(82.881094 157.998437) scale(0.1 -0.1)">
       <defs>
        <path id="DejaVuSans-30" d="M 2034 4250 
Q 1547 4250 1301 3770 
Q 1056 3291 1056 2328 
Q 1056 1369 1301 889 
Q 1547 409 2034 409 
Q 2525 409 2770 889 
Q 3016 1369 3016 2328 
Q 3016 3291 2770 3770 
Q 2525 4250 2034 4250 
z
M 2034 4750 
Q 2819 4750 3233 4129 
Q 3647 3509 3647 2328 
Q 3647 1150 3233 529 
Q 2819 -91 2034 -91 
Q 1250 -91 836 529 
Q 422 1150 422 2328 
Q 422 3509 836 4129 
Q 1250 4750 2034 4750 
z
" transform="scale(0.015625)"/>
       </defs>
       <use xlink:href="#DejaVuSans-2212"/>
       <use xlink:href="#DejaVuSans-31" transform="translate(83.789062 0)"/>
       <use xlink:href="#DejaVuSans-2e" transform="translate(147.412109 0)"/>
       <use xlink:href="#DejaVuSans-30" transform="translate(179.199219 0)"/>
      </g>
     </g>
    </g>
    <g id="xtick_3">
     <g id="line2d_3">
      <g>
       <use xlink:href="#m77be80d2da" x="132.245" y="143.4" style="fill: #444444; stroke: #444444; stroke-width: 0.8"/>
      </g>
     </g>
     <g id="text_3">
      <!-- −0.5 -->
      <g style="fill: #444444" transform="translate(120.103594 157.998437) scale(0.1 -0.1)">
       <use xlink:href="#DejaVuSans-2212"/>
       <use xlink:href="#DejaVuSans-30" transform="translate(83.789062 0)"/>
       <use xlink:href="#DejaVuSans-2e" transform="translate(147.412109 0)"/>
       <use xlink:href="#DejaVuSans-35" transform="translate(179.199219 0)"/>
      </g>
     </g>
    </g>
    <g id="xtick_4">
     <g id="line2d_4">
      <g>
       <use xlink:href="#m77be80d2da" x="169.4675" y="143.4" style="fill: #444444; stroke: #444444; stroke-width: 0.8"/>
      </g>
     </g>
     <g id="text_4">
      <!-- 0.0 -->
      <g style="fill: #444444" transform="translate(161.515938 157.998437) scale(0.1 -0.1)">
       <use xlink:href="#DejaVuSans-30"/>
       <use xlink:href="#DejaVuSans-2e" transform="translate(63.623047 0)"/>
       <use xlink:href="#DejaVuSans-30" transform="translate(95.410156 0)"/>
      </g>
     </g>
    </g>
    <g id="xtick_5">
     <g id="line2d_5">
      <g>
       <use xlink:href="#m77be80d2da" x="206.69" y="143.4" style="fill: #444444; stroke: #444444; stroke-width: 0.8"/>
      </g>
     </g>
     <g id="text_5">
      <!-- 0.5 -->
      <g style="fill: #444444" transform="translate(198.738438 157.998437) scale(0.1 -0.1)">
       <use xlink:href="#DejaVuSans-30"/>
       <use xlink:href="#DejaVuSans-2e" transform="translate(63.623047 0)"/>
       <use xlink:href="#DejaVuSans-35" transform="translate(95.410156 0)"/>
      </g>
     </g>
    </g>
    <g id="xtick_6">
     <g id="line2d_6">
      <g>
       <use xlink:href="#m77be80d2da" x="243.9125" y="143.4" style="fill: #444444; stroke: #444444; stroke-width: 0.8"/>
      </g>
     </g>
     <g id="text_6">
      <!-- 1.0 -->
      <g style="fill: #444444" transform="translate(235.960938 157.998437) scale(0.1 -0.1)">
       <use xlink:href="#DejaVuSans-31"/>
       <use xlink:href="#DejaVuSans-2e" transform="translate(63.623047 0)"/>
       <use xlink:href="#DejaVuSans-30" transform="translate(95.410156 0)"/>
      </g>
     </g>
    </g>
    <g id="xtick_7">
     <g id="line2d_7">
      <g>
       <use xlink:href="#m77be80d2da" x="281.135" y="143.4" style="fill: #444444; stroke: #444444; stroke-width: 0.8"/>
      </g>
     </g>
     <g id="text_7">
      <!-- 1.5 -->
      <g style="fill: #444444" transform="translate(273.183437 157.998437) scale(0.1 -0.1)">
       <use xlink:href="#DejaVuSans-31"/>
       <use xlink:href="#DejaVuSans-2e" transform="translate(63.623047 0)"/>
       <use xlink:href="#DejaVuSans-35" transform="translate(95.410156 0)"/>
      </g>
     </g>
    </g>
   </g>
   <g id="matplotlib.axis_2">
    <g id="ytick_1">
     <g id="line2d_8">
      <defs>
       <path id="mdbf0eb2c99" d="M 0 0 
L -3.5 0 
" style="stroke: #444444; stroke-width: 0.8"/>
      </defs>
      <g>
       <use xlink:href="#mdbf0eb2c99" x="57.8" y="125.924444" style="fill: #444444; stroke: #444444; stroke-width: 0.8"/>
      </g>
     </g>
     <g id="text_8">
      <!-- 0.0 -->
      <g style="fill: #444444" transform="translate(34.896875 129.723663) scale(0.1 -0.1)">
       <use xlink:href="#DejaVuSans-30"/>
       <use xlink:href="#DejaVuSans-2e" transform="translate(63.623047 0)"/>
       <use xlink:href="#DejaVuSans-30" transform="translate(95.410156 0)"/>
      </g>
     </g>
    </g>
    <g id="ytick_2">
     <g id="line2d_9">
      <g>
       <use xlink:href="#mdbf0eb2c99" x="57.8" y="82.235556" style="fill: #444444; stroke: #444444; stroke-width: 0.8"/>
      </g>
     </g>
     <g id="text_9">
      <!-- 0.5 -->
      <g style="fill: #444444" transform="translate(34.896875 86.034774) scale(0.1 -0.1)">
       <use xlink:href="#DejaVuSans-30"/>
       <use xlink:href="#DejaVuSans-2e" transform="translate(63.623047 0)"/>
       <use xlink:href="#DejaVuSans-35" transform="translate(95.410156 0)"/>
      </g>
     </g>
    </g>
    <g id="ytick_3">
     <g id="line2d_10">
      <g>
       <use xlink:href="#mdbf0eb2c99" x="57.8" y="38.546667" style="fill: #444444; stroke: #444444; stroke-width: 0.8"/>
      </g>
     </g>
     <g id="text_10">
      <!-- 1.0 -->
      <g style="fill: #444444" transform="translate(34.896875 42.345885) scale(0.1 -0.1)">
       <use xlink:href="#DejaVuSans-31"/>
       <use xlink:href="#DejaVuSans-2e" transform="translate(63.623047 0)"/>
       <use xlink:href="#DejaVuSans-30" transform="translate(95.410156 0)"/>
      </g>
     </g>
    </g>
    <g id="text_11">
     <!-- uniformly jittered timing -->
     <g style="fill: #444444" transform="translate(29.025156 139.168125) rotate(-90) scale(0.09 -0.09)">
      <defs>
       <path id="DejaVuSans-75" d="M 544 1381 
L 544 3500 
L 1119 3500 
L 1119 1403 
Q 1119 906 1312 657 
Q 1506 409 1894 409 
Q 2359 409 2629 706 
Q 2900 1003 2900 1516 
L 2900 3500 
L 3475 3500 
L 3475 0 
L 2900 0 
L 2900 538 
Q 2691 219 2414 64 
Q 2138 -91 1772 -91 
Q 1169 -91 856 284 
Q 544 659 544 1381 
z
M 1991 3584 
L 1991 3584 
z
" transform="scale(0.015625)"/>
       <path id="DejaVuSans-6e" d="M 3513 2113 
L 3513 0 
L 2938 0 
L 2938 2094 
Q 2938 2591 2744 2837 
Q 2550 3084 2163 3084 
Q 1697 3084 1428 2787 
Q 1159 2491 1159 1978 
L 1159 0 
L 581 0 
L 581 3500 
L 1159 3500 
L 1159 2956 
Q 1366 3272 1645 3428 
Q 1925 3584 2291 3584 
Q 2894 3584 3203 3211 
Q 3513 2838 3513 2113 
z
" transform="scale(0.015625)"/>
       <path id="DejaVuSans-69" d="M 603 3500 
L 1178 3500 
L 1178 0 
L 603 0 
L 603 3500 
z
M 603 4863 
L 1178 4863 
L 1178 4134 
L 603 4134 
L 603 4863 
z
" transform="scale(0.015625)"/>
       <path id="DejaVuSans-66" d="M 2375 4863 
L 2375 4384 
L 1825 4384 
Q 1516 4384 1395 4259 
Q 1275 4134 1275 3809 
L 1275 3500 
L 2222 3500 
L 2222 3053 
L 1275 3053 
L 1275 0 
L 697 0 
L 697 3053 
L 147 3053 
L 147 3500 
L 697 3500 
L 697 3744 
Q 697 4328 969 4595 
Q 1241 4863 1831 4863 
L 2375 4863 
z
" transform="scale(0.015625)"/>
       <path id="DejaVuSans-6f" d="M 1959 3097 
Q 1497 3097 1228 2736 
Q 959 2375 959 1747 
Q 959 1119 1226 758 
Q 1494 397 1959 397 
Q 2419 397 2687 759 
Q 2956 1122 2956 1747 
Q 2956 2369 2687 2733 
Q 2419 3097 1959 3097 
z
M 1959 3584 
Q 2709 3584 3137 3096 
Q 3566 2609 3566 1747 
Q 3566 888 3137 398 
Q 2709 -91 1959 -91 
Q 1206 -91 779 398 
Q 353 888 353 1747 
Q 353 2609 779 3096 
Q 1206 3584 1959 3584 
z
" transform="scale(0.015625)"/>
       <path id="DejaVuSans-72" d="M 2631 2963 
Q 2534 3019 2420 3045 
Q 2306 3072 2169 3072 
Q 1681 3072 1420 2755 
Q 1159 2438 1159 1844 
L 1159 0 
L 581 0 
L 581 3500 
L 1159 3500 
L 1159 2956 
Q 1341 3275 1631 3429 
Q 1922 3584 2338 3584 
Q 2397 3584 2469 3576 
Q 2541 3569 2628 3553 
L 2631 2963 
z
" transform="scale(0.015625)"/>
       <path id="DejaVuSans-6d" d="M 3328 2828 
Q 3544 3216 3844 3400 
Q 4144 3584 4550 3584 
Q 5097 3584 5394 3201 
Q 5691 2819 5691 2113 
L 5691 0 
L 5113 0 
L 5113 2094 
Q 5113 2597 4934 2840 
Q 4756 3084 4391 3084 
Q 3944 3084 3684 2787 
Q 3425 2491 3425 1978 
L 3425 0 
L 2847 0 
L 2847 2094 
Q 2847 2600 2669 2842 
Q 2491 3084 2119 3084 
Q 1678 3084 1418 2786 
Q 1159 2488 1159 1978 
L 1159 0 
L 581 0 
L 581 3500 
L 1159 3500 
L 1159 2956 
Q 1356 3278 1631 3431 
Q 1906 3584 2284 3584 
Q 2666 3584 2933 3390 
Q 3200 3197 3328 2828 
z
" transform="scale(0.015625)"/>
       <path id="DejaVuSans-6c" d="M 603 4863 
L 1178 4863 
L 1178 0 
L 603 0 
L 603 4863 
z
" transform="scale(0.015625)"/>
       <path id="DejaVuSans-79" d="M 2059 -325 
Q 1816 -950 1584 -1140 
Q 1353 -1331 966 -1331 
L 506 -1331 
L 506 -850 
L 844 -850 
Q 1081 -850 1212 -737 
Q 1344 -625 1503 -206 
L 1606 56 
L 191 3500 
L 800 3500 
L 1894 763 
L 2988 3500 
L 3597 3500 
L 2059 -325 
z
" transform="scale(0.015625)"/>
       <path id="DejaVuSans-20" transform="scale(0.015625)"/>
       <path id="DejaVuSans-6a" d="M 603 3500 
L 1178 3500 
L 1178 -63 
Q 1178 -731 923 -1031 
Q 669 -1331 103 -1331 
L -116 -1331 
L -116 -844 
L 38 -844 
Q 366 -844 484 -692 
Q 603 -541 603 -63 
L 603 3500 
z
M 603 4863 
L 1178 4863 
L 1178 4134 
L 603 4134 
L 603 4863 
z
" transform="scale(0.015625)"/>
       <path id="DejaVuSans-74" d="M 1172 4494 
L 1172 3500 
L 2356 3500 
L 2356 3053 
L 1172 3053 
L 1172 1153 
Q 1172 725 1289 603 
Q 1406 481 1766 481 
L 2356 481 
L 2356 0 
L 1766 0 
Q 1100 0 847 248 
Q 594 497 594 1153 
L 594 3053 
L 172 3053 
L 172 3500 
L 594 3500 
L 594 4494 
L 1172 4494 
z
" transform="scale(0.015625)"/>
       <path id="DejaVuSans-65" d="M 3597 1894 
L 3597 1613 
L 953 1613 
Q 991 1019 1311 708 
Q 1631 397 2203 397 
Q 2534 397 2845 478 
Q 3156 559 3463 722 
L 3463 178 
Q 3153 47 2828 -22 
Q 2503 -91 2169 -91 
Q 1331 -91 842 396 
Q 353 884 353 1716 
Q 353 2575 817 3079 
Q 1281 3584 2069 3584 
Q 2775 3584 3186 3129 
Q 3597 2675 3597 1894 
z
M 3022 2063 
Q 3016 2534 2758 2815 
Q 2500 3097 2075 3097 
Q 1594 3097 1305 2825 
Q 1016 2553 972 2059 
L 3022 2063 
z
" transform="scale(0.015625)"/>
       <path id="DejaVuSans-64" d="M 2906 2969 
L 2906 4863 
L 3481 4863 
L 3481 0 
L 2906 0 
L 2906 525 
Q 2725 213 2448 61 
Q 2172 -91 1784 -91 
Q 1150 -91 751 415 
Q 353 922 353 1747 
Q 353 2572 751 3078 
Q 1150 3584 1784 3584 
Q 2172 3584 2448 3432 
Q 2725 3281 2906 2969 
z
M 947 1747 
Q 947 1113 1208 752 
Q 1469 391 1925 391 
Q 2381 391 2643 752 
Q 2906 1113 2906 1747 
Q 2906 2381 2643 2742 
Q 2381 3103 1925 3103 
Q 1469 3103 1208 2742 
Q 947 2381 947 1747 
z
" transform="scale(0.015625)"/>
       <path id="DejaVuSans-67" d="M 2906 1791 
Q 2906 2416 2648 2759 
Q 2391 3103 1925 3103 
Q 1463 3103 1205 2759 
Q 947 2416 947 1791 
Q 947 1169 1205 825 
Q 1463 481 1925 481 
Q 2391 481 2648 825 
Q 2906 1169 2906 1791 
z
M 3481 434 
Q 3481 -459 3084 -895 
Q 2688 -1331 1869 -1331 
Q 1566 -1331 1297 -1286 
Q 1028 -1241 775 -1147 
L 775 -588 
Q 1028 -725 1275 -790 
Q 1522 -856 1778 -856 
Q 2344 -856 2625 -561 
Q 2906 -266 2906 331 
L 2906 616 
Q 2728 306 2450 153 
Q 2172 0 1784 0 
Q 1141 0 747 490 
Q 353 981 353 1791 
Q 353 2603 747 3093 
Q 1141 3584 1784 3584 
Q 2172 3584 2450 3431 
Q 2728 3278 2906 2969 
L 2906 3500 
L 3481 3500 
L 3481 434 
z
" transform="scale(0.015625)"/>
      </defs>
      <use xlink:href="#DejaVuSans-75"/>
      <use xlink:href="#DejaVuSans-6e" transform="translate(63.378906 0)"/>
      <use xlink:href="#DejaVuSans-69" transform="translate(126.757812 0)"/>
      <use xlink:href="#DejaVuSans-66" transform="translate(154.541016 0)"/>
      <use xlink:href="#DejaVuSans-6f" transform="translate(189.746094 0)"/>
      <use xlink:href="#DejaVuSans-72" transform="translate(250.927734 0)"/>
      <use xlink:href="#DejaVuSans-6d" transform="translate(290.291016 0)"/>
      <use xlink:href="#DejaVuSans-6c" transform="translate(387.703125 0)"/>
      <use xlink:href="#DejaVuSans-79" transform="translate(415.486328 0)"/>
      <use xlink:href="#DejaVuSans-20" transform="translate(474.666016 0)"/>
      <use xlink:href="#DejaVuSans-6a" transform="translate(506.453125 0)"/>
      <use xlink:href="#DejaVuSans-69" transform="translate(534.236328 0)"/>
      <use xlink:href="#DejaVuSans-74" transform="translate(562.019531 0)"/>
      <use xlink:href="#DejaVuSans-74" transform="translate(601.228516 0)"/>
      <use xlink:href="#DejaVuSans-65" transform="translate(640.4375 0)"/>
      <use xlink:href="#DejaVuSans-72" transform="translate(701.960938 0)"/>
      <use xlink:href="#DejaVuSans-65" transform="translate(740.824219 0)"/>
      <use xlink:href="#DejaVuSans-64" transform="translate(802.347656 0)"/>
      <use xlink:href="#DejaVuSans-20" transform="translate(865.824219 0)"/>
      <use xlink:href="#DejaVuSans-74" transform="translate(897.611328 0)"/>
      <use xlink:href="#DejaVuSans-69" transform="translate(936.820312 0)"/>
      <use xlink:href="#DejaVuSans-6d" transform="translate(964.603516 0)"/>
      <use xlink:href="#DejaVuSans-69" transform="translate(1062.015625 0)"/>
      <use xlink:href="#DejaVuSans-6e" transform="translate(1089.798828 0)"/>
      <use xlink:href="#DejaVuSans-67" transform="translate(1153.177734 0)"/>
     </g>
    </g>
   </g>
   <g id="line2d_11">
    <path d="M -1 125.940552 
L 10.1552 125.92629 
L 33.23315 125.851579 
L 36.9554 125.834728 
L 86.83355 125.443507 
L 93.5336 124.976329 
L 99.4892 124.140794 
L 103.21145 123.32269 
L 107.67815 121.927202 
L 109.9115 121.017438 
L 112.8893 119.543759 
L 115.12265 118.254241 
L 118.10045 116.241314 
L 121.07825 113.848957 
L 124.05605 111.09547 
L 127.03385 107.993869 
L 130.7561 103.586098 
L 133.7339 99.757475 
L 137.45615 94.587848 
L 142.6673 86.959162 
L 148.6229 78.2212 
L 153.0896 72.112986 
L 156.0674 68.426461 
L 158.30075 65.914592 
L 161.27855 63.040958 
L 163.5119 61.253284 
L 165.74525 59.79767 
L 167.23415 59.021545 
L 169.4675 58.233623 
L 170.9564 57.941636 
L 172.4453 57.819914 
L 173.9342 57.884618 
L 175.4231 58.138594 
L 176.912 58.600924 
L 178.4009 59.271749 
L 179.8898 60.078689 
L 182.12315 61.690439 
L 184.3565 63.686026 
L 186.58985 66.040674 
L 188.8232 68.74148 
L 191.801 72.781696 
L 194.7788 77.190792 
L 199.2455 84.275297 
L 206.69 96.191922 
L 210.41225 101.737503 
L 214.1345 106.735021 
L 217.1123 110.281253 
L 220.0901 113.372873 
L 222.32345 115.429167 
L 224.5568 117.232354 
L 227.5346 119.269303 
L 230.5124 120.929928 
L 233.4902 122.232703 
L 235.72355 123.022527 
L 238.70135 123.848229 
L 241.67915 124.466146 
L 244.65695 124.914359 
L 255.07925 125.629494 
L 261.03485 125.777166 
L 275.92385 125.88476 
L 293.0462 125.945919 
L 300.4907 125.988457 
L 309.4241 125.985631 
L 313.8908 125.992935 
L 339.94655 125.927378 
L 453.8474 125.926131 
L 466.50305 125.92439 
L 466.50305 125.92439 
" clip-path="url(#pec61c22074)" style="fill: none; stroke: #333333; stroke-width: 1.6; stroke-linecap: square"/>
   </g>
   <g id="line2d_12">
    <path d="M 169.4675 143.4 
L 169.4675 25.44 
" clip-path="url(#pec61c22074)" style="fill: none; stroke: #888888; stroke-opacity: 0.5; stroke-width: 0.5; stroke-linecap: square"/>
   </g>
   <g id="patch_3">
    <path d="M 57.8 143.4 
L 57.8 25.44 
" style="fill: none; stroke: #444444; stroke-width: 0.8; stroke-linejoin: miter; stroke-linecap: square"/>
   </g>
   <g id="patch_4">
    <path d="M 57.8 143.4 
L 281.135 143.4 
" style="fill: none; stroke: #444444; stroke-width: 0.8; stroke-linejoin: miter; stroke-linecap: square"/>
   </g>
   <g id="text_12">
    <!-- trial-averaged correlogram (what the GUI shows) -->
    <g style="fill: #222222" transform="translate(57.8 19.44) scale(0.11 -0.11)">
     <defs>
      <path id="DejaVuSans-61" d="M 2194 1759 
Q 1497 1759 1228 1600 
Q 959 1441 959 1056 
Q 959 750 1161 570 
Q 1363 391 1709 391 
Q 2188 391 2477 730 
Q 2766 1069 2766 1631 
L 2766 1759 
L 2194 1759 
z
M 3341 1997 
L 3341 0 
L 2766 0 
L 2766 531 
Q 2569 213 2275 61 
Q 1981 -91 1556 -91 
Q 1019 -91 701 211 
Q 384 513 384 1019 
Q 384 1609 779 1909 
Q 1175 2209 1959 2209 
L 2766 2209 
L 2766 2266 
Q 2766 2663 2505 2880 
Q 2244 3097 1772 3097 
Q 1472 3097 1187 3025 
Q 903 2953 641 2809 
L 641 3341 
Q 956 3463 1253 3523 
Q 1550 3584 1831 3584 
Q 2591 3584 2966 3190 
Q 3341 2797 3341 1997 
z
" transform="scale(0.015625)"/>
      <path id="DejaVuSans-2d" d="M 313 2009 
L 1997 2009 
L 1997 1497 
L 313 1497 
L 313 2009 
z
" transform="scale(0.015625)"/>
      <path id="DejaVuSans-76" d="M 191 3500 
L 800 3500 
L 1894 563 
L 2988 3500 
L 3597 3500 
L 2284 0 
L 1503 0 
L 191 3500 
z
" transform="scale(0.015625)"/>
      <path id="DejaVuSans-63" d="M 3122 3366 
L 3122 2828 
Q 2878 2963 2633 3030 
Q 2388 3097 2138 3097 
Q 1578 3097 1268 2742 
Q 959 2388 959 1747 
Q 959 1106 1268 751 
Q 1578 397 2138 397 
Q 2388 397 2633 464 
Q 2878 531 3122 666 
L 3122 134 
Q 2881 22 2623 -34 
Q 2366 -91 2075 -91 
Q 1284 -91 818 406 
Q 353 903 353 1747 
Q 353 2603 823 3093 
Q 1294 3584 2113 3584 
Q 2378 3584 2631 3529 
Q 2884 3475 3122 3366 
z
" transform="scale(0.015625)"/>
      <path id="DejaVuSans-28" d="M 1984 4856 
Q 1566 4138 1362 3434 
Q 1159 2731 1159 2009 
Q 1159 1288 1364 580 
Q 1569 -128 1984 -844 
L 1484 -844 
Q 1016 -109 783 600 
Q 550 1309 550 2009 
Q 550 2706 781 3412 
Q 1013 4119 1484 4856 
L 1984 4856 
z
" transform="scale(0.015625)"/>
      <path id="DejaVuSans-77" d="M 269 3500 
L 844 3500 
L 1563 769 
L 2278 3500 
L 2956 3500 
L 3675 769 
L 4391 3500 
L 4966 3500 
L 4050 0 
L 3372 0 
L 2619 2869 
L 1863 0 
L 1184 0 
L 269 3500 
z
" transform="scale(0.015625)"/>
      <path id="DejaVuSans-68" d="M 3513 2113 
L 3513 0 
L 2938 0 
L 2938 2094 
Q 2938 2591 2744 2837 
Q 2550 3084 2163 3084 
Q 1697 3084 1428 2787 
Q 1159 2491 1159 1978 
L 1159 0 
L 581 0 
L 581 4863 
L 1159 4863 
L 1159 2956 
Q 1366 3272 1645 3428 
Q 1925 3584 2291 3584 
Q 2894 3584 3203 3211 
Q 3513 2838 3513 2113 
z
" transform="scale(0.015625)"/>
      <path id="DejaVuSans-47" d="M 3809 666 
L 3809 1919 
L 2778 1919 
L 2778 2438 
L 4434 2438 
L 4434 434 
Q 4069 175 3628 42 
Q 3188 -91 2688 -91 
Q 1594 -91 976 548 
Q 359 1188 359 2328 
Q 359 3472 976 4111 
Q 1594 4750 2688 4750 
Q 3144 4750 3555 4637 
Q 3966 4525 4313 4306 
L 4313 3634 
Q 3963 3931 3569 4081 
Q 3175 4231 2741 4231 
Q 1884 4231 1454 3753 
Q 1025 3275 1025 2328 
Q 1025 1384 1454 906 
Q 1884 428 2741 428 
Q 3075 428 3337 486 
Q 3600 544 3809 666 
z
" transform="scale(0.015625)"/>
      <path id="DejaVuSans-55" d="M 556 4666 
L 1191 4666 
L 1191 1831 
Q 1191 1081 1462 751 
Q 1734 422 2344 422 
Q 2950 422 3222 751 
Q 3494 1081 3494 1831 
L 3494 4666 
L 4128 4666 
L 4128 1753 
Q 4128 841 3676 375 
Q 3225 -91 2344 -91 
Q 1459 -91 1007 375 
Q 556 841 556 1753 
L 556 4666 
z
" transform="scale(0.015625)"/>
      <path id="DejaVuSans-49" d="M 628 4666 
L 1259 4666 
L 1259 0 
L 628 0 
L 628 4666 
z
" transform="scale(0.015625)"/>
      <path id="DejaVuSans-73" d="M 2834 3397 
L 2834 2853 
Q 2591 2978 2328 3040 
Q 2066 3103 1784 3103 
Q 1356 3103 1142 2972 
Q 928 2841 928 2578 
Q 928 2378 1081 2264 
Q 1234 2150 1697 2047 
L 1894 2003 
Q 2506 1872 2764 1633 
Q 3022 1394 3022 966 
Q 3022 478 2636 193 
Q 2250 -91 1575 -91 
Q 1294 -91 989 -36 
Q 684 19 347 128 
L 347 722 
Q 666 556 975 473 
Q 1284 391 1588 391 
Q 1994 391 2212 530 
Q 2431 669 2431 922 
Q 2431 1156 2273 1281 
Q 2116 1406 1581 1522 
L 1381 1569 
Q 847 1681 609 1914 
Q 372 2147 372 2553 
Q 372 3047 722 3315 
Q 1072 3584 1716 3584 
Q 2034 3584 2315 3537 
Q 2597 3491 2834 3397 
z
" transform="scale(0.015625)"/>
      <path id="DejaVuSans-29" d="M 513 4856 
L 1013 4856 
Q 1481 4119 1714 3412 
Q 1947 2706 1947 2009 
Q 1947 1309 1714 600 
Q 1481 -109 1013 -844 
L 513 -844 
Q 928 -128 1133 580 
Q 1338 1288 1338 2009 
Q 1338 2731 1133 3434 
Q 928 4138 513 4856 
z
" transform="scale(0.015625)"/>
     </defs>
     <use xlink:href="#DejaVuSans-74"/>
     <use xlink:href="#DejaVuSans-72" transform="translate(39.208984 0)"/>
     <use xlink:href="#DejaVuSans-69" transform="translate(80.322266 0)"/>
     <use xlink:href="#DejaVuSans-61" transform="translate(108.105469 0)"/>
     <use xlink:href="#DejaVuSans-6c" transform="translate(169.384766 0)"/>
     <use xlink:href="#DejaVuSans-2d" transform="translate(197.167969 0)"/>
     <use xlink:href="#DejaVuSans-61" transform="translate(233.251953 0)"/>
     <use xlink:href="#DejaVuSans-76" transform="translate(294.53125 0)"/>
     <use xlink:href="#DejaVuSans-65" transform="translate(353.710938 0)"/>
     <use xlink:href="#DejaVuSans-72" transform="translate(415.234375 0)"/>
     <use xlink:href="#DejaVuSans-61" transform="translate(456.347656 0)"/>
     <use xlink:href="#DejaVuSans-67" transform="translate(517.626953 0)"/>
     <use xlink:href="#DejaVuSans-65" transform="translate(581.103516 0)"/>
     <use xlink:href="#DejaVuSans-64" transform="translate(642.626953 0)"/>
     <use xlink:href="#DejaVuSans-20" transform="translate(706.103516 0)"/>
     <use xlink:href="#DejaVuSans-63" transform="translate(737.890625 0)"/>
     <use xlink:href="#DejaVuSans-6f" transform="translate(792.871094 0)"/>
     <use xlink:href="#DejaVuSans-72" transform="translate(854.052734 0)"/>
     <use xlink:href="#DejaVuSans-72" transform="translate(893.416016 0)"/>
     <use xlink:href="#DejaVuSans-65" transform="translate(932.279297 0)"/>
     <use xlink:href="#DejaVuSans-6c" transform="translate(993.802734 0)"/>
     <use xlink:href="#DejaVuSans-6f" transform="translate(1021.585938 0)"/>
     <use xlink:href="#DejaVuSans-67" transform="translate(1082.767578 0)"/>
     <use xlink:href="#DejaVuSans-72" transform="translate(1146.244141 0)"/>
     <use xlink:href="#DejaVuSans-61" transform="translate(1187.357422 0)"/>
     <use xlink:href="#DejaVuSans-6d" transform="translate(1248.636719 0)"/>
     <use xlink:href="#DejaVuSans-20" transform="translate(1346.048828 0)"/>
     <use xlink:href="#DejaVuSans-28" transform="translate(1377.835938 0)"/>
     <use xlink:href="#DejaVuSans-77" transform="translate(1416.849609 0)"/>
     <use xlink:href="#DejaVuSans-68" transform="translate(1498.636719 0)"/>
     <use xlink:href="#DejaVuSans-61" transform="translate(1562.015625 0)"/>
     <use xlink:href="#DejaVuSans-74" transform="translate(1623.294922 0)"/>
     <use xlink:href="#DejaVuSans-20" transform="translate(1662.503906 0)"/>
     <use xlink:href="#DejaVuSans-74" transform="translate(1694.291016 0)"/>
     <use xlink:href="#DejaVuSans-68" transform="translate(1733.5 0)"/>
     <use xlink:href="#DejaVuSans-65" transform="translate(1796.878906 0)"/>
     <use xlink:href="#DejaVuSans-20" transform="translate(1858.402344 0)"/>
     <use xlink:href="#DejaVuSans-47" transform="translate(1890.189453 0)"/>
     <use xlink:href="#DejaVuSans-55" transform="translate(1967.679688 0)"/>
     <use xlink:href="#DejaVuSans-49" transform="translate(2040.873047 0)"/>
     <use xlink:href="#DejaVuSans-20" transform="translate(2070.365234 0)"/>
     <use xlink:href="#DejaVuSans-73" transform="translate(2102.152344 0)"/>
     <use xlink:href="#DejaVuSans-68" transform="translate(2154.251953 0)"/>
     <use xlink:href="#DejaVuSans-6f" transform="translate(2217.630859 0)"/>
     <use xlink:href="#DejaVuSans-77" transform="translate(2278.8125 0)"/>
     <use xlink:href="#DejaVuSans-73" transform="translate(2360.599609 0)"/>
     <use xlink:href="#DejaVuSans-29" transform="translate(2412.699219 0)"/>
    </g>
   </g>
  </g>
  <g id="axes_2">
   <g id="patch_5">
    <path d="M 319.545 143.4 
L 542.88 143.4 
L 542.88 25.44 
L 319.545 25.44 
L 319.545 143.4 
z
" style="fill: none"/>
   </g>
   <g id="patch_6">
    <path d="M 319.545 143.4 
L 328.850625 143.4 
L 328.850625 143.4 
L 319.545 143.4 
z
" clip-path="url(#pa920b926a7)" style="fill: #888888; opacity: 0.75; stroke: #ffffff; stroke-width: 0.4; stroke-linejoin: miter"/>
   </g>
   <g id="patch_7">
    <path d="M 328.850625 143.4 
L 338.15625 143.4 
L 338.15625 143.4 
L 328.850625 143.4 
z
" clip-path="url(#pa920b926a7)" style="fill: #888888; opacity: 0.75; stroke: #ffffff; stroke-width: 0.4; stroke-linejoin: miter"/>
   </g>
   <g id="patch_8">
    <path d="M 338.15625 143.4 
L 347.461875 143.4 
L 347.461875 143.4 
L 338.15625 143.4 
z
" clip-path="url(#pa920b926a7)" style="fill: #888888; opacity: 0.75; stroke: #ffffff; stroke-width: 0.4; stroke-linejoin: miter"/>
   </g>
   <g id="patch_9">
    <path d="M 347.461875 143.4 
L 356.7675 143.4 
L 356.7675 143.4 
L 347.461875 143.4 
z
" clip-path="url(#pa920b926a7)" style="fill: #888888; opacity: 0.75; stroke: #ffffff; stroke-width: 0.4; stroke-linejoin: miter"/>
   </g>
   <g id="patch_10">
    <path d="M 356.7675 143.4 
L 366.073125 143.4 
L 366.073125 143.4 
L 356.7675 143.4 
z
" clip-path="url(#pa920b926a7)" style="fill: #888888; opacity: 0.75; stroke: #ffffff; stroke-width: 0.4; stroke-linejoin: miter"/>
   </g>
   <g id="patch_11">
    <path d="M 366.073125 143.4 
L 375.37875 143.4 
L 375.37875 143.4 
L 366.073125 143.4 
z
" clip-path="url(#pa920b926a7)" style="fill: #888888; opacity: 0.75; stroke: #ffffff; stroke-width: 0.4; stroke-linejoin: miter"/>
   </g>
   <g id="patch_12">
    <path d="M 375.37875 143.4 
L 384.684375 143.4 
L 384.684375 143.4 
L 375.37875 143.4 
z
" clip-path="url(#pa920b926a7)" style="fill: #888888; opacity: 0.75; stroke: #ffffff; stroke-width: 0.4; stroke-linejoin: miter"/>
   </g>
   <g id="patch_13">
    <path d="M 384.684375 143.4 
L 393.99 143.4 
L 393.99 143.4 
L 384.684375 143.4 
z
" clip-path="url(#pa920b926a7)" style="fill: #888888; opacity: 0.75; stroke: #ffffff; stroke-width: 0.4; stroke-linejoin: miter"/>
   </g>
   <g id="patch_14">
    <path d="M 393.99 143.4 
L 403.295625 143.4 
L 403.295625 143.4 
L 393.99 143.4 
z
" clip-path="url(#pa920b926a7)" style="fill: #888888; opacity: 0.75; stroke: #ffffff; stroke-width: 0.4; stroke-linejoin: miter"/>
   </g>
   <g id="patch_15">
    <path d="M 403.295625 143.4 
L 412.60125 143.4 
L 412.60125 80.987302 
L 403.295625 80.987302 
z
" clip-path="url(#pa920b926a7)" style="fill: #888888; opacity: 0.75; stroke: #ffffff; stroke-width: 0.4; stroke-linejoin: miter"/>
   </g>
   <g id="patch_16">
    <path d="M 412.60125 143.4 
L 421.906875 143.4 
L 421.906875 62.263492 
L 412.60125 62.263492 
z
" clip-path="url(#pa920b926a7)" style="fill: #888888; opacity: 0.75; stroke: #ffffff; stroke-width: 0.4; stroke-linejoin: miter"/>
   </g>
   <g id="patch_17">
    <path d="M 421.906875 143.4 
L 431.2125 143.4 
L 431.2125 74.746032 
L 421.906875 74.746032 
z
" clip-path="url(#pa920b926a7)" style="fill: #888888; opacity: 0.75; stroke: #ffffff; stroke-width: 0.4; stroke-linejoin: miter"/>
   </g>
   <g id="patch_18">
    <path d="M 431.2125 143.4 
L 440.518125 143.4 
L 440.518125 49.780952 
L 431.2125 49.780952 
z
" clip-path="url(#pa920b926a7)" style="fill: #888888; opacity: 0.75; stroke: #ffffff; stroke-width: 0.4; stroke-linejoin: miter"/>
   </g>
   <g id="patch_19">
    <path d="M 440.518125 143.4 
L 449.82375 143.4 
L 449.82375 31.057143 
L 440.518125 31.057143 
z
" clip-path="url(#pa920b926a7)" style="fill: #888888; opacity: 0.75; stroke: #ffffff; stroke-width: 0.4; stroke-linejoin: miter"/>
   </g>
   <g id="patch_20">
    <path d="M 449.82375 143.4 
L 459.129375 143.4 
L 459.129375 62.263492 
L 449.82375 62.263492 
z
" clip-path="url(#pa920b926a7)" style="fill: #888888; opacity: 0.75; stroke: #ffffff; stroke-width: 0.4; stroke-linejoin: miter"/>
   </g>
   <g id="patch_21">
    <path d="M 459.129375 143.4 
L 468.435 143.4 
L 468.435 143.4 
L 459.129375 143.4 
z
" clip-path="url(#pa920b926a7)" style="fill: #888888; opacity: 0.75; stroke: #ffffff; stroke-width: 0.4; stroke-linejoin: miter"/>
   </g>
   <g id="patch_22">
    <path d="M 468.435 143.4 
L 477.740625 143.4 
L 477.740625 143.4 
L 468.435 143.4 
z
" clip-path="url(#pa920b926a7)" style="fill: #888888; opacity: 0.75; stroke: #ffffff; stroke-width: 0.4; stroke-linejoin: miter"/>
   </g>
   <g id="patch_23">
    <path d="M 477.740625 143.4 
L 487.04625 143.4 
L 487.04625 143.4 
L 477.740625 143.4 
z
" clip-path="url(#pa920b926a7)" style="fill: #888888; opacity: 0.75; stroke: #ffffff; stroke-width: 0.4; stroke-linejoin: miter"/>
   </g>
   <g id="patch_24">
    <path d="M 487.04625 143.4 
L 496.351875 143.4 
L 496.351875 143.4 
L 487.04625 143.4 
z
" clip-path="url(#pa920b926a7)" style="fill: #888888; opacity: 0.75; stroke: #ffffff; stroke-width: 0.4; stroke-linejoin: miter"/>
   </g>
   <g id="patch_25">
    <path d="M 496.351875 143.4 
L 505.6575 143.4 
L 505.6575 143.4 
L 496.351875 143.4 
z
" clip-path="url(#pa920b926a7)" style="fill: #888888; opacity: 0.75; stroke: #ffffff; stroke-width: 0.4; stroke-linejoin: miter"/>
   </g>
   <g id="patch_26">
    <path d="M 505.6575 143.4 
L 514.963125 143.4 
L 514.963125 143.4 
L 505.6575 143.4 
z
" clip-path="url(#pa920b926a7)" style="fill: #888888; opacity: 0.75; stroke: #ffffff; stroke-width: 0.4; stroke-linejoin: miter"/>
   </g>
   <g id="patch_27">
    <path d="M 514.963125 143.4 
L 524.26875 143.4 
L 524.26875 143.4 
L 514.963125 143.4 
z
" clip-path="url(#pa920b926a7)" style="fill: #888888; opacity: 0.75; stroke: #ffffff; stroke-width: 0.4; stroke-linejoin: miter"/>
   </g>
   <g id="patch_28">
    <path d="M 524.26875 143.4 
L 533.574375 143.4 
L 533.574375 143.4 
L 524.26875 143.4 
z
" clip-path="url(#pa920b926a7)" style="fill: #888888; opacity: 0.75; stroke: #ffffff; stroke-width: 0.4; stroke-linejoin: miter"/>
   </g>
   <g id="patch_29">
    <path d="M 533.574375 143.4 
L 542.88 143.4 
L 542.88 143.4 
L 533.574375 143.4 
z
" clip-path="url(#pa920b926a7)" style="fill: #888888; opacity: 0.75; stroke: #ffffff; stroke-width: 0.4; stroke-linejoin: miter"/>
   </g>
   <g id="matplotlib.axis_3">
    <g id="xtick_8">
     <g id="line2d_13">
      <g>
       <use xlink:href="#m77be80d2da" x="319.545" y="143.4" style="fill: #444444; stroke: #444444; stroke-width: 0.8"/>
      </g>
     </g>
     <g id="text_13">
      <!-- −1.5 -->
      <g style="fill: #444444" transform="translate(307.403594 157.998437) scale(0.1 -0.1)">
       <use xlink:href="#DejaVuSans-2212"/>
       <use xlink:href="#DejaVuSans-31" transform="translate(83.789062 0)"/>
       <use xlink:href="#DejaVuSans-2e" transform="translate(147.412109 0)"/>
       <use xlink:href="#DejaVuSans-35" transform="translate(179.199219 0)"/>
      </g>
     </g>
    </g>
    <g id="xtick_9">
     <g id="line2d_14">
      <g>
       <use xlink:href="#m77be80d2da" x="356.7675" y="143.4" style="fill: #444444; stroke: #444444; stroke-width: 0.8"/>
      </g>
     </g>
     <g id="text_14">
      <!-- −1.0 -->
      <g style="fill: #444444" transform="translate(344.626094 157.998437) scale(0.1 -0.1)">
       <use xlink:href="#DejaVuSans-2212"/>
       <use xlink:href="#DejaVuSans-31" transform="translate(83.789062 0)"/>
       <use xlink:href="#DejaVuSans-2e" transform="translate(147.412109 0)"/>
       <use xlink:href="#DejaVuSans-30" transform="translate(179.199219 0)"/>
      </g>
     </g>
    </g>
    <g id="xtick_10">
     <g id="line2d_15">
      <g>
       <use xlink:href="#m77be80d2da" x="393.99" y="143.4" style="fill: #444444; stroke: #444444; stroke-width: 0.8"/>
      </g>
     </g>
     <g id="text_15">
      <!-- −0.5 -->
      <g style="fill: #444444" transform="translate(381.848594 157.998437) scale(0.1 -0.1)">
       <use xlink:href="#DejaVuSans-2212"/>
       <use xlink:href="#DejaVuSans-30" transform="translate(83.789062 0)"/>
       <use xlink:href="#DejaVuSans-2e" transform="translate(147.412109 0)"/>
       <use xlink:href="#DejaVuSans-35" transform="translate(179.199219 0)"/>
      </g>
     </g>
    </g>
    <g id="xtick_11">
     <g id="line2d_16">
      <g>
       <use xlink:href="#m77be80d2da" x="431.2125" y="143.4" style="fill: #444444; stroke: #444444; stroke-width: 0.8"/>
      </g>
     </g>
     <g id="text_16">
      <!-- 0.0 -->
      <g style="fill: #444444" transform="translate(423.260937 157.998437) scale(0.1 -0.1)">
       <use xlink:href="#DejaVuSans-30"/>
       <use xlink:href="#DejaVuSans-2e" transform="translate(63.623047 0)"/>
       <use xlink:href="#DejaVuSans-30" transform="translate(95.410156 0)"/>
      </g>
     </g>
    </g>
    <g id="xtick_12">
     <g id="line2d_17">
      <g>
       <use xlink:href="#m77be80d2da" x="468.435" y="143.4" style="fill: #444444; stroke: #444444; stroke-width: 0.8"/>
      </g>
     </g>
     <g id="text_17">
      <!-- 0.5 -->
      <g style="fill: #444444" transform="translate(460.483437 157.998437) scale(0.1 -0.1)">
       <use xlink:href="#DejaVuSans-30"/>
       <use xlink:href="#DejaVuSans-2e" transform="translate(63.623047 0)"/>
       <use xlink:href="#DejaVuSans-35" transform="translate(95.410156 0)"/>
      </g>
     </g>
    </g>
    <g id="xtick_13">
     <g id="line2d_18">
      <g>
       <use xlink:href="#m77be80d2da" x="505.6575" y="143.4" style="fill: #444444; stroke: #444444; stroke-width: 0.8"/>
      </g>
     </g>
     <g id="text_18">
      <!-- 1.0 -->
      <g style="fill: #444444" transform="translate(497.705937 157.998437) scale(0.1 -0.1)">
       <use xlink:href="#DejaVuSans-31"/>
       <use xlink:href="#DejaVuSans-2e" transform="translate(63.623047 0)"/>
       <use xlink:href="#DejaVuSans-30" transform="translate(95.410156 0)"/>
      </g>
     </g>
    </g>
    <g id="xtick_14">
     <g id="line2d_19">
      <g>
       <use xlink:href="#m77be80d2da" x="542.88" y="143.4" style="fill: #444444; stroke: #444444; stroke-width: 0.8"/>
      </g>
     </g>
     <g id="text_19">
      <!-- 1.5 -->
      <g style="fill: #444444" transform="translate(534.928437 157.998437) scale(0.1 -0.1)">
       <use xlink:href="#DejaVuSans-31"/>
       <use xlink:href="#DejaVuSans-2e" transform="translate(63.623047 0)"/>
       <use xlink:href="#DejaVuSans-35" transform="translate(95.410156 0)"/>
      </g>
     </g>
    </g>
   </g>
   <g id="matplotlib.axis_4">
    <g id="ytick_4">
     <g id="line2d_20">
      <g>
       <use xlink:href="#mdbf0eb2c99" x="319.545" y="143.4" style="fill: #444444; stroke: #444444; stroke-width: 0.8"/>
      </g>
     </g>
     <g id="text_20">
      <!-- 0 -->
      <g style="fill: #444444" transform="translate(306.1825 147.199219) scale(0.1 -0.1)">
       <use xlink:href="#DejaVuSans-30"/>
      </g>
     </g>
    </g>
    <g id="ytick_5">
     <g id="line2d_21">
      <g>
       <use xlink:href="#mdbf0eb2c99" x="319.545" y="112.193651" style="fill: #444444; stroke: #444444; stroke-width: 0.8"/>
      </g>
     </g>
     <g id="text_21">
      <!-- 5 -->
      <g style="fill: #444444" transform="translate(306.1825 115.99287) scale(0.1 -0.1)">
       <use xlink:href="#DejaVuSans-35"/>
      </g>
     </g>
    </g>
    <g id="ytick_6">
     <g id="line2d_22">
      <g>
       <use xlink:href="#mdbf0eb2c99" x="319.545" y="80.987302" style="fill: #444444; stroke: #444444; stroke-width: 0.8"/>
      </g>
     </g>
     <g id="text_22">
      <!-- 10 -->
      <g style="fill: #444444" transform="translate(299.82 84.78652) scale(0.1 -0.1)">
       <use xlink:href="#DejaVuSans-31"/>
       <use xlink:href="#DejaVuSans-30" transform="translate(63.623047 0)"/>
      </g>
     </g>
    </g>
    <g id="ytick_7">
     <g id="line2d_23">
      <g>
       <use xlink:href="#mdbf0eb2c99" x="319.545" y="49.780952" style="fill: #444444; stroke: #444444; stroke-width: 0.8"/>
      </g>
     </g>
     <g id="text_23">
      <!-- 15 -->
      <g style="fill: #444444" transform="translate(299.82 53.580171) scale(0.1 -0.1)">
       <use xlink:href="#DejaVuSans-31"/>
       <use xlink:href="#DejaVuSans-35" transform="translate(63.623047 0)"/>
      </g>
     </g>
    </g>
   </g>
   <g id="line2d_24">
    <path d="M 431.2125 143.4 
L 431.2125 25.44 
" clip-path="url(#pa920b926a7)" style="fill: none; stroke: #888888; stroke-opacity: 0.5; stroke-width: 0.5; stroke-linecap: square"/>
   </g>
   <g id="patch_30">
    <path d="M 319.545 143.4 
L 319.545 25.44 
" style="fill: none; stroke: #444444; stroke-width: 0.8; stroke-linejoin: miter; stroke-linecap: square"/>
   </g>
   <g id="patch_31">
    <path d="M 319.545 143.4 
L 542.88 143.4 
" style="fill: none; stroke: #444444; stroke-width: 0.8; stroke-linejoin: miter; stroke-linecap: square"/>
   </g>
   <g id="text_24">
    <!-- per-trial peak lags (80 trials, computed from HDF5) -->
    <g style="fill: #222222" transform="translate(319.545 19.44) scale(0.11 -0.11)">
     <defs>
      <path id="DejaVuSans-70" d="M 1159 525 
L 1159 -1331 
L 581 -1331 
L 581 3500 
L 1159 3500 
L 1159 2969 
Q 1341 3281 1617 3432 
Q 1894 3584 2278 3584 
Q 2916 3584 3314 3078 
Q 3713 2572 3713 1747 
Q 3713 922 3314 415 
Q 2916 -91 2278 -91 
Q 1894 -91 1617 61 
Q 1341 213 1159 525 
z
M 3116 1747 
Q 3116 2381 2855 2742 
Q 2594 3103 2138 3103 
Q 1681 3103 1420 2742 
Q 1159 2381 1159 1747 
Q 1159 1113 1420 752 
Q 1681 391 2138 391 
Q 2594 391 2855 752 
Q 3116 1113 3116 1747 
z
" transform="scale(0.015625)"/>
      <path id="DejaVuSans-6b" d="M 581 4863 
L 1159 4863 
L 1159 1991 
L 2875 3500 
L 3609 3500 
L 1753 1863 
L 3688 0 
L 2938 0 
L 1159 1709 
L 1159 0 
L 581 0 
L 581 4863 
z
" transform="scale(0.015625)"/>
      <path id="DejaVuSans-38" d="M 2034 2216 
Q 1584 2216 1326 1975 
Q 1069 1734 1069 1313 
Q 1069 891 1326 650 
Q 1584 409 2034 409 
Q 2484 409 2743 651 
Q 3003 894 3003 1313 
Q 3003 1734 2745 1975 
Q 2488 2216 2034 2216 
z
M 1403 2484 
Q 997 2584 770 2862 
Q 544 3141 544 3541 
Q 544 4100 942 4425 
Q 1341 4750 2034 4750 
Q 2731 4750 3128 4425 
Q 3525 4100 3525 3541 
Q 3525 3141 3298 2862 
Q 3072 2584 2669 2484 
Q 3125 2378 3379 2068 
Q 3634 1759 3634 1313 
Q 3634 634 3220 271 
Q 2806 -91 2034 -91 
Q 1263 -91 848 271 
Q 434 634 434 1313 
Q 434 1759 690 2068 
Q 947 2378 1403 2484 
z
M 1172 3481 
Q 1172 3119 1398 2916 
Q 1625 2713 2034 2713 
Q 2441 2713 2670 2916 
Q 2900 3119 2900 3481 
Q 2900 3844 2670 4047 
Q 2441 4250 2034 4250 
Q 1625 4250 1398 4047 
Q 1172 3844 1172 3481 
z
" transform="scale(0.015625)"/>
      <path id="DejaVuSans-2c" d="M 750 794 
L 1409 794 
L 1409 256 
L 897 -744 
L 494 -744 
L 750 256 
L 750 794 
z
" transform="scale(0.015625)"/>
      <path id="DejaVuSans-48" d="M 628 4666 
L 1259 4666 
L 1259 2753 
L 3553 2753 
L 3553 4666 
L 4184 4666 
L 4184 0 
L 3553 0 
L 3553 2222 
L 1259 2222 
L 1259 0 
L 628 0 
L 628 4666 
z
" transform="scale(0.015625)"/>
      <path id="DejaVuSans-44" d="M 1259 4147 
L 1259 519 
L 2022 519 
Q 2988 519 3436 956 
Q 3884 1394 3884 2338 
Q 3884 3275 3436 3711 
Q 2988 4147 2022 4147 
L 1259 4147 
z
M 628 4666 
L 1925 4666 
Q 3281 4666 3915 4102 
Q 4550 3538 4550 2338 
Q 4550 1131 3912 565 
Q 3275 0 1925 0 
L 628 0 
L 628 4666 
z
" transform="scale(0.015625)"/>
      <path id="DejaVuSans-46" d="M 628 4666 
L 3309 4666 
L 3309 4134 
L 1259 4134 
L 1259 2759 
L 3109 2759 
L 3109 2228 
L 1259 2228 
L 1259 0 
L 628 0 
L 628 4666 
z
" transform="scale(0.015625)"/>
     </defs>
     <use xlink:href="#DejaVuSans-70"/>
     <use xlink:href="#DejaVuSans-65" transform="translate(63.476562 0)"/>
     <use xlink:href="#DejaVuSans-72" transform="translate(125 0)"/>
     <use xlink:href="#DejaVuSans-2d" transform="translate(159.738281 0)"/>
     <use xlink:href="#DejaVuSans-74" transform="translate(195.822266 0)"/>
     <use xlink:href="#DejaVuSans-72" transform="translate(235.03125 0)"/>
     <use xlink:href="#DejaVuSans-69" transform="translate(276.144531 0)"/>
     <use xlink:href="#DejaVuSans-61" transform="translate(303.927734 0)"/>
     <use xlink:href="#DejaVuSans-6c" transform="translate(365.207031 0)"/>
     <use xlink:href="#DejaVuSans-20" transform="translate(392.990234 0)"/>
     <use xlink:href="#DejaVuSans-70" transform="translate(424.777344 0)"/>
     <use xlink:href="#DejaVuSans-65" transform="translate(488.253906 0)"/>
     <use xlink:href="#DejaVuSans-61" transform="translate(549.777344 0)"/>
     <use xlink:href="#DejaVuSans-6b" transform="translate(611.056641 0)"/>
     <use xlink:href="#DejaVuSans-20" transform="translate(668.966797 0)"/>
     <use xlink:href="#DejaVuSans-6c" transform="translate(700.753906 0)"/>
     <use xlink:href="#DejaVuSans-61" transform="translate(728.537109 0)"/>
     <use xlink:href="#DejaVuSans-67" transform="translate(789.816406 0)"/>
     <use xlink:href="#DejaVuSans-73" transform="translate(853.292969 0)"/>
     <use xlink:href="#DejaVuSans-20" transform="translate(905.392578 0)"/>
     <use xlink:href="#DejaVuSans-28" transform="translate(937.179688 0)"/>
     <use xlink:href="#DejaVuSans-38" transform="translate(976.193359 0)"/>
     <use xlink:href="#DejaVuSans-30" transform="translate(1039.816406 0)"/>
     <use xlink:href="#DejaVuSans-20" transform="translate(1103.439453 0)"/>
     <use xlink:href="#DejaVuSans-74" transform="translate(1135.226562 0)"/>
     <use xlink:href="#DejaVuSans-72" transform="translate(1174.435547 0)"/>
     <use xlink:href="#DejaVuSans-69" transform="translate(1215.548828 0)"/>
     <use xlink:href="#DejaVuSans-61" transform="translate(1243.332031 0)"/>
     <use xlink:href="#DejaVuSans-6c" transform="translate(1304.611328 0)"/>
     <use xlink:href="#DejaVuSans-73" transform="translate(1332.394531 0)"/>
     <use xlink:href="#DejaVuSans-2c" transform="translate(1384.494141 0)"/>
     <use xlink:href="#DejaVuSans-20" transform="translate(1416.28125 0)"/>
     <use xlink:href="#DejaVuSans-63" transform="translate(1448.068359 0)"/>
     <use xlink:href="#DejaVuSans-6f" transform="translate(1503.048828 0)"/>
     <use xlink:href="#DejaVuSans-6d" transform="translate(1564.230469 0)"/>
     <use xlink:href="#DejaVuSans-70" transform="translate(1661.642578 0)"/>
     <use xlink:href="#DejaVuSans-75" transform="translate(1725.119141 0)"/>
     <use xlink:href="#DejaVuSans-74" transform="translate(1788.498047 0)"/>
     <use xlink:href="#DejaVuSans-65" transform="translate(1827.707031 0)"/>
     <use xlink:href="#DejaVuSans-64" transform="translate(1889.230469 0)"/>
     <use xlink:href="#DejaVuSans-20" transform="translate(1952.707031 0)"/>
     <use xlink:href="#DejaVuSans-66" transform="translate(1984.494141 0)"/>
     <use xlink:href="#DejaVuSans-72" transform="translate(2019.699219 0)"/>
     <use xlink:href="#DejaVuSans-6f" transform="translate(2058.5625 0)"/>
     <use xlink:href="#DejaVuSans-6d" transform="translate(2119.744141 0)"/>
     <use xlink:href="#DejaVuSans-20" transform="translate(2217.15625 0)"/>
     <use xlink:href="#DejaVuSans-48" transform="translate(2248.943359 0)"/>
     <use xlink:href="#DejaVuSans-44" transform="translate(2324.138672 0)"/>
     <use xlink:href="#DejaVuSans-46" transform="translate(2401.140625 0)"/>
     <use xlink:href="#DejaVuSans-35" transform="translate(2458.660156 0)"/>
     <use xlink:href="#DejaVuSans-29" transform="translate(2522.283203 0)"/>
    </g>
   </g>
  </g>
  <g id="axes_3">
   <g id="patch_32">
    <path d="M 57.8 289.24 
L 281.135 289.24 
L 281.135 171.28 
L 57.8 171.28 
L 57.8 289.24 
z
" style="fill: none"/>
   </g>
   <g id="matplotlib.axis_5">
    <g id="xtick_15">
     <g id="line2d_25">
      <g>
       <use xlink:href="#m77be80d2da" x="57.8" y="289.24" style="fill: #444444; stroke: #444444; stroke-width: 0.8"/>
      </g>
     </g>
     <g id="text_25">
      <!-- −1.5 -->
      <g style="fill: #444444" transform="translate(45.658594 303.838437) scale(0.1 -0.1)">
       <use xlink:href="#DejaVuSans-2212"/>
       <use xlink:href="#DejaVuSans-31" transform="translate(83.789062 0)"/>
       <use xlink:href="#DejaVuSans-2e" transform="translate(147.412109 0)"/>
       <use xlink:href="#DejaVuSans-35" transform="translate(179.199219 0)"/>
      </g>
     </g>
    </g>
    <g id="xtick_16">
     <g id="line2d_26">
      <g>
       <use xlink:href="#m77be80d2da" x="95.0225" y="289.24" style="fill: #444444; stroke: #444444; stroke-width: 0.8"/>
      </g>
     </g>
     <g id="text_26">
      <!-- −1.0 -->
      <g style="fill: #444444" transform="translate(82.881094 303.838437) scale(0.1 -0.1)">
       <use xlink:href="#DejaVuSans-2212"/>
       <use xlink:href="#DejaVuSans-31" transform="translate(83.789062 0)"/>
       <use xlink:href="#DejaVuSans-2e" transform="translate(147.412109 0)"/>
       <use xlink:href="#DejaVuSans-30" transform="translate(179.199219 0)"/>
      </g>
     </g>
    </g>
    <g id="xtick_17">
     <g id="line2d_27">
      <g>
       <use xlink:href="#m77be80d2da" x="132.245" y="289.24" style="fill: #444444; stroke: #444444; stroke-width: 0.8"/>
      </g>
     </g>
     <g id="text_27">
      <!-- −0.5 -->
      <g style="fill: #444444" transform="translate(120.103594 303.838437) scale(0.1 -0.1)">
       <use xlink:href="#DejaVuSans-2212"/>
       <use xlink:href="#DejaVuSans-30" transform="translate(83.789062 0)"/>
       <use xlink:href="#DejaVuSans-2e" transform="translate(147.412109 0)"/>
       <use xlink:href="#DejaVuSans-35" transform="translate(179.199219 0)"/>
      </g>
     </g>
    </g>
    <g id="xtick_18">
     <g id="line2d_28">
      <g>
       <use xlink:href="#m77be80d2da" x="169.4675" y="289.24" style="fill: #444444; stroke: #444444; stroke-width: 0.8"/>
      </g>
     </g>
     <g id="text_28">
      <!-- 0.0 -->
      <g style="fill: #444444" transform="translate(161.515938 303.838437) scale(0.1 -0.1)">
       <use xlink:href="#DejaVuSans-30"/>
       <use xlink:href="#DejaVuSans-2e" transform="translate(63.623047 0)"/>
       <use xlink:href="#DejaVuSans-30" transform="translate(95.410156 0)"/>
      </g>
     </g>
    </g>
    <g id="xtick_19">
     <g id="line2d_29">
      <g>
       <use xlink:href="#m77be80d2da" x="206.69" y="289.24" style="fill: #444444; stroke: #444444; stroke-width: 0.8"/>
      </g>
     </g>
     <g id="text_29">
      <!-- 0.5 -->
      <g style="fill: #444444" transform="translate(198.738438 303.838437) scale(0.1 -0.1)">
       <use xlink:href="#DejaVuSans-30"/>
       <use xlink:href="#DejaVuSans-2e" transform="translate(63.623047 0)"/>
       <use xlink:href="#DejaVuSans-35" transform="translate(95.410156 0)"/>
      </g>
     </g>
    </g>
    <g id="xtick_20">
     <g id="line2d_30">
      <g>
       <use xlink:href="#m77be80d2da" x="243.9125" y="289.24" style="fill: #444444; stroke: #444444; stroke-width: 0.8"/>
      </g>
     </g>
     <g id="text_30">
      <!-- 1.0 -->
      <g style="fill: #444444" transform="translate(235.960938 303.838437) scale(0.1 -0.1)">
       <use xlink:href="#DejaVuSans-31"/>
       <use xlink:href="#DejaVuSans-2e" transform="translate(63.623047 0)"/>
       <use xlink:href="#DejaVuSans-30" transform="translate(95.410156 0)"/>
      </g>
     </g>
    </g>
    <g id="xtick_21">
     <g id="line2d_31">
      <g>
       <use xlink:href="#m77be80d2da" x="281.135" y="289.24" style="fill: #444444; stroke: #444444; stroke-width: 0.8"/>
      </g>
     </g>
     <g id="text_31">
      <!-- 1.5 -->
      <g style="fill: #444444" transform="translate(273.183437 303.838437) scale(0.1 -0.1)">
       <use xlink:href="#DejaVuSans-31"/>
       <use xlink:href="#DejaVuSans-2e" transform="translate(63.623047 0)"/>
       <use xlink:href="#DejaVuSans-35" transform="translate(95.410156 0)"/>
      </g>
     </g>
    </g>
    <g id="text_32">
     <!-- lag (s) -->
     <g style="fill: #444444" transform="translate(153.744844 317.516562) scale(0.1 -0.1)">
      <use xlink:href="#DejaVuSans-6c"/>
      <use xlink:href="#DejaVuSans-61" transform="translate(27.783203 0)"/>
      <use xlink:href="#DejaVuSans-67" transform="translate(89.0625 0)"/>
      <use xlink:href="#DejaVuSans-20" transform="translate(152.539062 0)"/>
      <use xlink:href="#DejaVuSans-28" transform="translate(184.326172 0)"/>
      <use xlink:href="#DejaVuSans-73" transform="translate(223.339844 0)"/>
      <use xlink:href="#DejaVuSans-29" transform="translate(275.439453 0)"/>
     </g>
    </g>
   </g>
   <g id="matplotlib.axis_6">
    <g id="ytick_8">
     <g id="line2d_32">
      <g>
       <use xlink:href="#mdbf0eb2c99" x="57.8" y="271.764444" style="fill: #444444; stroke: #444444; stroke-width: 0.8"/>
      </g>
     </g>
     <g id="text_33">
      <!-- 0.0 -->
      <g style="fill: #444444" transform="translate(34.896875 275.563663) scale(0.1 -0.1)">
       <use xlink:href="#DejaVuSans-30"/>
       <use xlink:href="#DejaVuSans-2e" transform="translate(63.623047 0)"/>
       <use xlink:href="#DejaVuSans-30" transform="translate(95.410156 0)"/>
      </g>
     </g>
    </g>
    <g id="ytick_9">
     <g id="line2d_33">
      <g>
       <use xlink:href="#mdbf0eb2c99" x="57.8" y="228.075556" style="fill: #444444; stroke: #444444; stroke-width: 0.8"/>
      </g>
     </g>
     <g id="text_34">
      <!-- 0.5 -->
      <g style="fill: #444444" transform="translate(34.896875 231.874774) scale(0.1 -0.1)">
       <use xlink:href="#DejaVuSans-30"/>
       <use xlink:href="#DejaVuSans-2e" transform="translate(63.623047 0)"/>
       <use xlink:href="#DejaVuSans-35" transform="translate(95.410156 0)"/>
      </g>
     </g>
    </g>
    <g id="ytick_10">
     <g id="line2d_34">
      <g>
       <use xlink:href="#mdbf0eb2c99" x="57.8" y="184.386667" style="fill: #444444; stroke: #444444; stroke-width: 0.8"/>
      </g>
     </g>
     <g id="text_35">
      <!-- 1.0 -->
      <g style="fill: #444444" transform="translate(34.896875 188.185885) scale(0.1 -0.1)">
       <use xlink:href="#DejaVuSans-31"/>
       <use xlink:href="#DejaVuSans-2e" transform="translate(63.623047 0)"/>
       <use xlink:href="#DejaVuSans-30" transform="translate(95.410156 0)"/>
      </g>
     </g>
    </g>
    <g id="text_36">
     <!-- bimodal timing -->
     <g style="fill: #444444" transform="translate(18.947125 264.154844) rotate(-90) scale(0.09 -0.09)">
      <defs>
       <path id="DejaVuSans-62" d="M 3116 1747 
Q 3116 2381 2855 2742 
Q 2594 3103 2138 3103 
Q 1681 3103 1420 2742 
Q 1159 2381 1159 1747 
Q 1159 1113 1420 752 
Q 1681 391 2138 391 
Q 2594 391 2855 752 
Q 3116 1113 3116 1747 
z
M 1159 2969 
Q 1341 3281 1617 3432 
Q 1894 3584 2278 3584 
Q 2916 3584 3314 3078 
Q 3713 2572 3713 1747 
Q 3713 922 3314 415 
Q 2916 -91 2278 -91 
Q 1894 -91 1617 61 
Q 1341 213 1159 525 
L 1159 0 
L 581 0 
L 581 4863 
L 1159 4863 
L 1159 2969 
z
" transform="scale(0.015625)"/>
      </defs>
      <use xlink:href="#DejaVuSans-62"/>
      <use xlink:href="#DejaVuSans-69" transform="translate(63.476562 0)"/>
      <use xlink:href="#DejaVuSans-6d" transform="translate(91.259766 0)"/>
      <use xlink:href="#DejaVuSans-6f" transform="translate(188.671875 0)"/>
      <use xlink:href="#DejaVuSans-64" transform="translate(249.853516 0)"/>
      <use xlink:href="#DejaVuSans-61" transform="translate(313.330078 0)"/>
      <use xlink:href="#DejaVuSans-6c" transform="translate(374.609375 0)"/>
      <use xlink:href="#DejaVuSans-20" transform="translate(402.392578 0)"/>
      <use xlink:href="#DejaVuSans-74" transform="translate(434.179688 0)"/>
      <use xlink:href="#DejaVuSans-69" transform="translate(473.388672 0)"/>
      <use xlink:href="#DejaVuSans-6d" transform="translate(501.171875 0)"/>
      <use xlink:href="#DejaVuSans-69" transform="translate(598.583984 0)"/>
      <use xlink:href="#DejaVuSans-6e" transform="translate(626.367188 0)"/>
      <use xlink:href="#DejaVuSans-67" transform="translate(689.746094 0)"/>
     </g>
     <!-- (half +0.2 s, half -0.2 s) -->
     <g style="fill: #444444" transform="translate(29.025156 283.635625) rotate(-90) scale(0.09 -0.09)">
      <defs>
       <path id="DejaVuSans-2b" d="M 2944 4013 
L 2944 2272 
L 4684 2272 
L 4684 1741 
L 2944 1741 
L 2944 0 
L 2419 0 
L 2419 1741 
L 678 1741 
L 678 2272 
L 2419 2272 
L 2419 4013 
L 2944 4013 
z
" transform="scale(0.015625)"/>
       <path id="DejaVuSans-32" d="M 1228 531 
L 3431 531 
L 3431 0 
L 469 0 
L 469 531 
Q 828 903 1448 1529 
Q 2069 2156 2228 2338 
Q 2531 2678 2651 2914 
Q 2772 3150 2772 3378 
Q 2772 3750 2511 3984 
Q 2250 4219 1831 4219 
Q 1534 4219 1204 4116 
Q 875 4013 500 3803 
L 500 4441 
Q 881 4594 1212 4672 
Q 1544 4750 1819 4750 
Q 2544 4750 2975 4387 
Q 3406 4025 3406 3419 
Q 3406 3131 3298 2873 
Q 3191 2616 2906 2266 
Q 2828 2175 2409 1742 
Q 1991 1309 1228 531 
z
" transform="scale(0.015625)"/>
      </defs>
      <use xlink:href="#DejaVuSans-28"/>
      <use xlink:href="#DejaVuSans-68" transform="translate(39.013672 0)"/>
      <use xlink:href="#DejaVuSans-61" transform="translate(102.392578 0)"/>
      <use xlink:href="#DejaVuSans-6c" transform="translate(163.671875 0)"/>
      <use xlink:href="#DejaVuSans-66" transform="translate(191.455078 0)"/>
      <use xlink:href="#DejaVuSans-20" transform="translate(226.660156 0)"/>
      <use xlink:href="#DejaVuSans-2b" transform="translate(258.447266 0)"/>
      <use xlink:href="#DejaVuSans-30" transform="translate(342.236328 0)"/>
      <use xlink:href="#DejaVuSans-2e" transform="translate(405.859375 0)"/>
      <use xlink:href="#DejaVuSans-32" transform="translate(437.646484 0)"/>
      <use xlink:href="#DejaVuSans-20" transform="translate(501.269531 0)"/>
      <use xlink:href="#DejaVuSans-73" transform="translate(533.056641 0)"/>
      <use xlink:href="#DejaVuSans-2c" transform="translate(585.15625 0)"/>
      <use xlink:href="#DejaVuSans-20" transform="translate(616.943359 0)"/>
      <use xlink:href="#DejaVuSans-68" transform="translate(648.730469 0)"/>
      <use xlink:href="#DejaVuSans-61" transform="translate(712.109375 0)"/>
      <use xlink:href="#DejaVuSans-6c" transform="translate(773.388672 0)"/>
      <use xlink:href="#DejaVuSans-66" transform="translate(801.171875 0)"/>
      <use xlink:href="#DejaVuSans-20" transform="translate(836.376953 0)"/>
      <use xlink:href="#DejaVuSans-2d" transform="translate(868.164062 0)"/>
      <use xlink:href="#DejaVuSans-30" transform="translate(904.248047 0)"/>
      <use xlink:href="#DejaVuSans-2e" transform="translate(967.871094 0)"/>
      <use xlink:href="#DejaVuSans-32" transform="translate(999.658203 0)"/>
      <use xlink:href="#DejaVuSans-20" transform="translate(1063.28125 0)"/>
      <use xlink:href="#DejaVuSans-73" transform="translate(1095.068359 0)"/>
      <use xlink:href="#DejaVuSans-29" transform="translate(1147.167969 0)"/>
     </g>
    </g>
   </g>
   <g id="line2d_35">
    <path d="M -1 271.720228 
L 7.1774 271.698198 
L 32.4887 271.707934 
L 39.9332 271.791462 
L 57.05555 271.875683 
L 65.98895 271.837263 
L 68.96675 271.814813 
L 74.92235 271.788603 
L 79.38905 271.717849 
L 92.0447 271.267815 
L 95.76695 270.934265 
L 98.74475 270.53999 
L 101.72255 270.0063 
L 105.4448 269.022518 
L 107.67815 268.269832 
L 110.65595 266.992691 
L 112.8893 265.818427 
L 115.8671 263.914164 
L 118.10045 262.220918 
L 120.3338 260.283051 
L 123.3116 257.338459 
L 127.03385 252.998964 
L 130.01165 249.121519 
L 133.7339 243.786036 
L 137.45615 238.098123 
L 146.38955 224.227945 
L 150.1118 218.954953 
L 152.34515 216.044718 
L 154.5785 213.384958 
L 156.81185 210.98446 
L 159.0452 208.920282 
L 161.27855 207.146068 
L 163.5119 205.749468 
L 165.0008 204.99513 
L 166.4897 204.410768 
L 168.72305 203.852247 
L 170.21195 203.685568 
L 171.70085 203.682492 
L 173.9342 204.00342 
L 176.16755 204.739212 
L 177.65645 205.439425 
L 179.14535 206.29201 
L 181.3787 207.92343 
L 183.61205 209.927969 
L 185.8454 212.261342 
L 188.07875 214.927248 
L 191.05655 218.9482 
L 194.03435 223.33537 
L 198.50105 230.44926 
L 205.94555 242.506483 
L 209.6678 248.107173 
L 212.6456 252.184958 
L 214.87895 254.979923 
L 217.85675 258.316551 
L 220.83455 261.171475 
L 223.0679 263.022733 
L 225.30125 264.615063 
L 228.27905 266.393042 
L 231.25685 267.789228 
L 234.23465 268.877516 
L 237.9569 269.871763 
L 240.9347 270.440151 
L 243.9125 270.844072 
L 251.357 271.397408 
L 266.246 271.693015 
L 275.92385 271.713989 
L 278.90165 271.757492 
L 291.5573 271.799139 
L 296.024 271.809621 
L 340.691 271.749097 
L 347.39105 271.768481 
L 357.81335 271.757031 
L 366.0023 271.763731 
L 377.9135 271.757649 
L 385.358 271.761868 
L 409.92485 271.766697 
L 466.50305 271.764847 
L 466.50305 271.764847 
" clip-path="url(#pc3d7a4b0f8)" style="fill: none; stroke: #333333; stroke-width: 1.6; stroke-linecap: square"/>
   </g>
   <g id="line2d_36">
    <path d="M 169.4675 289.24 
L 169.4675 171.28 
" clip-path="url(#pc3d7a4b0f8)" style="fill: none; stroke: #888888; stroke-opacity: 0.5; stroke-width: 0.5; stroke-linecap: square"/>
   </g>
   <g id="patch_33">
    <path d="M 57.8 289.24 
L 57.8 171.28 
" style="fill: none; stroke: #444444; stroke-width: 0.8; stroke-linejoin: miter; stroke-linecap: square"/>
   </g>
   <g id="patch_34">
    <path d="M 57.8 289.24 
L 281.135 289.24 
" style="fill: none; stroke: #444444; stroke-width: 0.8; stroke-linejoin: miter; stroke-linecap: square"/>
   </g>
  </g>
  <g id="axes_4">
   <g id="patch_35">
    <path d="M 319.545 289.24 
L 542.88 289.24 
L 542.88 171.28 
L 319.545 171.28 
L 319.545 289.24 
z
" style="fill: none"/>
   </g>
   <g id="patch_36">
    <path d="M 319.545 289.24 
L 328.850625 289.24 
L 328.850625 289.24 
L 319.545 289.24 
z
" clip-path="url(#pfdb25aefd7)" style="fill: #888888; opacity: 0.75; stroke: #ffffff; stroke-width: 0.4; stroke-linejoin: miter"/>
   </g>
   <g id="patch_37">
    <path d="M 328.850625 289.24 
L 338.15625 289.24 
L 338.15625 289.24 
L 328.850625 289.24 
z
" clip-path="url(#pfdb25aefd7)" style="fill: #888888; opacity: 0.75; stroke: #ffffff; stroke-width: 0.4; stroke-linejoin: miter"/>
   </g>
   <g id="patch_38">
    <path d="M 338.15625 289.24 
L 347.461875 289.24 
L 347.461875 289.24 
L 338.15625 289.24 
z
" clip-path="url(#pfdb25aefd7)" style="fill: #888888; opacity: 0.75; stroke: #ffffff; stroke-width: 0.4; stroke-linejoin: miter"/>
   </g>
   <g id="patch_39">
    <path d="M 347.461875 289.24 
L 356.7675 289.24 
L 356.7675 289.24 
L 347.461875 289.24 
z
" clip-path="url(#pfdb25aefd7)" style="fill: #888888; opacity: 0.75; stroke: #ffffff; stroke-width: 0.4; stroke-linejoin: miter"/>
   </g>
   <g id="patch_40">
    <path d="M 356.7675 289.24 
L 366.073125 289.24 
L 366.073125 289.24 
L 356.7675 289.24 
z
" clip-path="url(#pfdb25aefd7)" style="fill: #888888; opacity: 0.75; stroke: #ffffff; stroke-width: 0.4; stroke-linejoin: miter"/>
   </g>
   <g id="patch_41">
    <path d="M 366.073125 289.24 
L 375.37875 289.24 
L 375.37875 289.24 
L 366.073125 289.24 
z
" clip-path="url(#pfdb25aefd7)" style="fill: #888888; opacity: 0.75; stroke: #ffffff; stroke-width: 0.4; stroke-linejoin: miter"/>
   </g>
   <g id="patch_42">
    <path d="M 375.37875 289.24 
L 384.684375 289.24 
L 384.684375 289.24 
L 375.37875 289.24 
z
" clip-path="url(#pfdb25aefd7)" style="fill: #888888; opacity: 0.75; stroke: #ffffff; stroke-width: 0.4; stroke-linejoin: miter"/>
   </g>
   <g id="patch_43">
    <path d="M 384.684375 289.24 
L 393.99 289.24 
L 393.99 289.24 
L 384.684375 289.24 
z
" clip-path="url(#pfdb25aefd7)" style="fill: #888888; opacity: 0.75; stroke: #ffffff; stroke-width: 0.4; stroke-linejoin: miter"/>
   </g>
   <g id="patch_44">
    <path d="M 393.99 289.24 
L 403.295625 289.24 
L 403.295625 289.24 
L 393.99 289.24 
z
" clip-path="url(#pfdb25aefd7)" style="fill: #888888; opacity: 0.75; stroke: #ffffff; stroke-width: 0.4; stroke-linejoin: miter"/>
   </g>
   <g id="patch_45">
    <path d="M 403.295625 289.24 
L 412.60125 289.24 
L 412.60125 289.24 
L 403.295625 289.24 
z
" clip-path="url(#pfdb25aefd7)" style="fill: #888888; opacity: 0.75; stroke: #ffffff; stroke-width: 0.4; stroke-linejoin: miter"/>
   </g>
   <g id="patch_46">
    <path d="M 412.60125 289.24 
L 421.906875 289.24 
L 421.906875 187.596463 
L 412.60125 187.596463 
z
" clip-path="url(#pfdb25aefd7)" style="fill: #888888; opacity: 0.75; stroke: #ffffff; stroke-width: 0.4; stroke-linejoin: miter"/>
   </g>
   <g id="patch_47">
    <path d="M 421.906875 289.24 
L 431.2125 289.24 
L 431.2125 289.24 
L 421.906875 289.24 
z
" clip-path="url(#pfdb25aefd7)" style="fill: #888888; opacity: 0.75; stroke: #ffffff; stroke-width: 0.4; stroke-linejoin: miter"/>
   </g>
   <g id="patch_48">
    <path d="M 431.2125 289.24 
L 440.518125 289.24 
L 440.518125 289.24 
L 431.2125 289.24 
z
" clip-path="url(#pfdb25aefd7)" style="fill: #888888; opacity: 0.75; stroke: #ffffff; stroke-width: 0.4; stroke-linejoin: miter"/>
   </g>
   <g id="patch_49">
    <path d="M 440.518125 289.24 
L 449.82375 289.24 
L 449.82375 176.897143 
L 440.518125 176.897143 
z
" clip-path="url(#pfdb25aefd7)" style="fill: #888888; opacity: 0.75; stroke: #ffffff; stroke-width: 0.4; stroke-linejoin: miter"/>
   </g>
   <g id="patch_50">
    <path d="M 449.82375 289.24 
L 459.129375 289.24 
L 459.129375 289.24 
L 449.82375 289.24 
z
" clip-path="url(#pfdb25aefd7)" style="fill: #888888; opacity: 0.75; stroke: #ffffff; stroke-width: 0.4; stroke-linejoin: miter"/>
   </g>
   <g id="patch_51">
    <path d="M 459.129375 289.24 
L 468.435 289.24 
L 468.435 289.24 
L 459.129375 289.24 
z
" clip-path="url(#pfdb25aefd7)" style="fill: #888888; opacity: 0.75; stroke: #ffffff; stroke-width: 0.4; stroke-linejoin: miter"/>
   </g>
   <g id="patch_52">
    <path d="M 468.435 289.24 
L 477.740625 289.24 
L 477.740625 289.24 
L 468.435 289.24 
z
" clip-path="url(#pfdb25aefd7)" style="fill: #888888; opacity: 0.75; stroke: #ffffff; stroke-width: 0.4; stroke-linejoin: miter"/>
   </g>
   <g id="patch_53">
    <path d="M 477.740625 289.24 
L 487.04625 289.24 
L 487.04625 289.24 
L 477.740625 289.24 
z
" clip-path="url(#pfdb25aefd7)" style="fill: #888888; opacity: 0.75; stroke: #ffffff; stroke-width: 0.4; stroke-linejoin: miter"/>
   </g>
   <g id="patch_54">
    <path d="M 487.04625 289.24 
L 496.351875 289.24 
L 496.351875 289.24 
L 487.04625 289.24 
z
" clip-path="url(#pfdb25aefd7)" style="fill: #888888; opacity: 0.75; stroke: #ffffff; stroke-width: 0.4; stroke-linejoin: miter"/>
   </g>
   <g id="patch_55">
    <path d="M 496.351875 289.24 
L 505.6575 289.24 
L 505.6575 289.24 
L 496.351875 289.24 
z
" clip-path="url(#pfdb25aefd7)" style="fill: #888888; opacity: 0.75; stroke: #ffffff; stroke-width: 0.4; stroke-linejoin: miter"/>
   </g>
   <g id="patch_56">
    <path d="M 505.6575 289.24 
L 514.963125 289.24 
L 514.963125 289.24 
L 505.6575 289.24 
z
" clip-path="url(#pfdb25aefd7)" style="fill: #888888; opacity: 0.75; stroke: #ffffff; stroke-width: 0.4; stroke-linejoin: miter"/>
   </g>
   <g id="patch_57">
    <path d="M 514.963125 289.24 
L 524.26875 289.24 
L 524.26875 289.24 
L 514.963125 289.24 
z
" clip-path="url(#pfdb25aefd7)" style="fill: #888888; opacity: 0.75; stroke: #ffffff; stroke-width: 0.4; stroke-linejoin: miter"/>
   </g>
   <g id="patch_58">
    <path d="M 524.26875 289.24 
L 533.574375 289.24 
L 533.574375 289.24 
L 524.26875 289.24 
z
" clip-path="url(#pfdb25aefd7)" style="fill: #888888; opacity: 0.75; stroke: #ffffff; stroke-width: 0.4; stroke-linejoin: miter"/>
   </g>
   <g id="patch_59">
    <path d="M 533.574375 289.24 
L 542.88 289.24 
L 542.88 289.24 
L 533.574375 289.24 
z
" clip-path="url(#pfdb25aefd7)" style="fill: #888888; opacity: 0.75; stroke: #ffffff; stroke-width: 0.4; stroke-linejoin: miter"/>
   </g>
   <g id="matplotlib.axis_7">
    <g id="xtick_22">
     <g id="line2d_37">
      <g>
       <use xlink:href="#m77be80d2da" x="319.545" y="289.24" style="fill: #444444; stroke: #444444; stroke-width: 0.8"/>
      </g>
     </g>
     <g id="text_37">
      <!-- −1.5 -->
      <g style="fill: #444444" transform="translate(307.403594 303.838437) scale(0.1 -0.1)">
       <use xlink:href="#DejaVuSans-2212"/>
       <use xlink:href="#DejaVuSans-31" transform="translate(83.789062 0)"/>
       <use xlink:href="#DejaVuSans-2e" transform="translate(147.412109 0)"/>
       <use xlink:href="#DejaVuSans-35" transform="translate(179.199219 0)"/>
      </g>
     </g>
    </g>
    <g id="xtick_23">
     <g id="line2d_38">
      <g>
       <use xlink:href="#m77be80d2da" x="356.7675" y="289.24" style="fill: #444444; stroke: #444444; stroke-width: 0.8"/>
      </g>
     </g>
     <g id="text_38">
      <!-- −1.0 -->
      <g style="fill: #444444" transform="translate(344.626094 303.838437) scale(0.1 -0.1)">
       <use xlink:href="#DejaVuSans-2212"/>
       <use xlink:href="#DejaVuSans-31" transform="translate(83.789062 0)"/>
       <use xlink:href="#DejaVuSans-2e" transform="translate(147.412109 0)"/>
       <use xlink:href="#DejaVuSans-30" transform="translate(179.199219 0)"/>
      </g>
     </g>
    </g>
    <g id="xtick_24">
     <g id="line2d_39">
      <g>
       <use xlink:href="#m77be80d2da" x="393.99" y="289.24" style="fill: #444444; stroke: #444444; stroke-width: 0.8"/>
      </g>
     </g>
     <g id="text_39">
      <!-- −0.5 -->
      <g style="fill: #444444" transform="translate(381.848594 303.838437) scale(0.1 -0.1)">
       <use xlink:href="#DejaVuSans-2212"/>
       <use xlink:href="#DejaVuSans-30" transform="translate(83.789062 0)"/>
       <use xlink:href="#DejaVuSans-2e" transform="translate(147.412109 0)"/>
       <use xlink:href="#DejaVuSans-35" transform="translate(179.199219 0)"/>
      </g>
     </g>
    </g>
    <g id="xtick_25">
     <g id="line2d_40">
      <g>
       <use xlink:href="#m77be80d2da" x="431.2125" y="289.24" style="fill: #444444; stroke: #444444; stroke-width: 0.8"/>
      </g>
     </g>
     <g id="text_40">
      <!-- 0.0 -->
      <g style="fill: #444444" transform="translate(423.260937 303.838437) scale(0.1 -0.1)">
       <use xlink:href="#DejaVuSans-30"/>
       <use xlink:href="#DejaVuSans-2e" transform="translate(63.623047 0)"/>
       <use xlink:href="#DejaVuSans-30" transform="translate(95.410156 0)"/>
      </g>
     </g>
    </g>
    <g id="xtick_26">
     <g id="line2d_41">
      <g>
       <use xlink:href="#m77be80d2da" x="468.435" y="289.24" style="fill: #444444; stroke: #444444; stroke-width: 0.8"/>
      </g>
     </g>
     <g id="text_41">
      <!-- 0.5 -->
      <g style="fill: #444444" transform="translate(460.483437 303.838437) scale(0.1 -0.1)">
       <use xlink:href="#DejaVuSans-30"/>
       <use xlink:href="#DejaVuSans-2e" transform="translate(63.623047 0)"/>
       <use xlink:href="#DejaVuSans-35" transform="translate(95.410156 0)"/>
      </g>
     </g>
    </g>
    <g id="xtick_27">
     <g id="line2d_42">
      <g>
       <use xlink:href="#m77be80d2da" x="505.6575" y="289.24" style="fill: #444444; stroke: #444444; stroke-width: 0.8"/>
      </g>
     </g>
     <g id="text_42">
      <!-- 1.0 -->
      <g style="fill: #444444" transform="translate(497.705937 303.838437) scale(0.1 -0.1)">
       <use xlink:href="#DejaVuSans-31"/>
       <use xlink:href="#DejaVuSans-2e" transform="translate(63.623047 0)"/>
       <use xlink:href="#DejaVuSans-30" transform="translate(95.410156 0)"/>
      </g>
     </g>
    </g>
    <g id="xtick_28">
     <g id="line2d_43">
      <g>
       <use xlink:href="#m77be80d2da" x="542.88" y="289.24" style="fill: #444444; stroke: #444444; stroke-width: 0.8"/>
      </g>
     </g>
     <g id="text_43">
      <!-- 1.5 -->
      <g style="fill: #444444" transform="translate(534.928437 303.838437) scale(0.1 -0.1)">
       <use xlink:href="#DejaVuSans-31"/>
       <use xlink:href="#DejaVuSans-2e" transform="translate(63.623047 0)"/>
       <use xlink:href="#DejaVuSans-35" transform="translate(95.410156 0)"/>
      </g>
     </g>
    </g>
    <g id="text_44">
     <!-- lag (s) -->
     <g style="fill: #444444" transform="translate(415.489844 317.516562) scale(0.1 -0.1)">
      <use xlink:href="#DejaVuSans-6c"/>
      <use xlink:href="#DejaVuSans-61" transform="translate(27.783203 0)"/>
      <use xlink:href="#DejaVuSans-67" transform="translate(89.0625 0)"/>
      <use xlink:href="#DejaVuSans-20" transform="translate(152.539062 0)"/>
      <use xlink:href="#DejaVuSans-28" transform="translate(184.326172 0)"/>
      <use xlink:href="#DejaVuSans-73" transform="translate(223.339844 0)"/>
      <use xlink:href="#DejaVuSans-29" transform="translate(275.439453 0)"/>
     </g>
    </g>
   </g>
   <g id="matplotlib.axis_8">
    <g id="ytick_11">
     <g id="line2d_44">
      <g>
       <use xlink:href="#mdbf0eb2c99" x="319.545" y="289.24" style="fill: #444444; stroke: #444444; stroke-width: 0.8"/>
      </g>
     </g>
     <g id="text_45">
      <!-- 0 -->
      <g style="fill: #444444" transform="translate(306.1825 293.039219) scale(0.1 -0.1)">
       <use xlink:href="#DejaVuSans-30"/>
      </g>
     </g>
    </g>
    <g id="ytick_12">
     <g id="line2d_45">
      <g>
       <use xlink:href="#mdbf0eb2c99" x="319.545" y="262.491701" style="fill: #444444; stroke: #444444; stroke-width: 0.8"/>
      </g>
     </g>
     <g id="text_46">
      <!-- 10 -->
      <g style="fill: #444444" transform="translate(299.82 266.290919) scale(0.1 -0.1)">
       <use xlink:href="#DejaVuSans-31"/>
       <use xlink:href="#DejaVuSans-30" transform="translate(63.623047 0)"/>
      </g>
     </g>
    </g>
    <g id="ytick_13">
     <g id="line2d_46">
      <g>
       <use xlink:href="#mdbf0eb2c99" x="319.545" y="235.743401" style="fill: #444444; stroke: #444444; stroke-width: 0.8"/>
      </g>
     </g>
     <g id="text_47">
      <!-- 20 -->
      <g style="fill: #444444" transform="translate(299.82 239.54262) scale(0.1 -0.1)">
       <use xlink:href="#DejaVuSans-32"/>
       <use xlink:href="#DejaVuSans-30" transform="translate(63.623047 0)"/>
      </g>
     </g>
    </g>
    <g id="ytick_14">
     <g id="line2d_47">
      <g>
       <use xlink:href="#mdbf0eb2c99" x="319.545" y="208.995102" style="fill: #444444; stroke: #444444; stroke-width: 0.8"/>
      </g>
     </g>
     <g id="text_48">
      <!-- 30 -->
      <g style="fill: #444444" transform="translate(299.82 212.794321) scale(0.1 -0.1)">
       <defs>
        <path id="DejaVuSans-33" d="M 2597 2516 
Q 3050 2419 3304 2112 
Q 3559 1806 3559 1356 
Q 3559 666 3084 287 
Q 2609 -91 1734 -91 
Q 1441 -91 1130 -33 
Q 819 25 488 141 
L 488 750 
Q 750 597 1062 519 
Q 1375 441 1716 441 
Q 2309 441 2620 675 
Q 2931 909 2931 1356 
Q 2931 1769 2642 2001 
Q 2353 2234 1838 2234 
L 1294 2234 
L 1294 2753 
L 1863 2753 
Q 2328 2753 2575 2939 
Q 2822 3125 2822 3475 
Q 2822 3834 2567 4026 
Q 2313 4219 1838 4219 
Q 1578 4219 1281 4162 
Q 984 4106 628 3988 
L 628 4550 
Q 988 4650 1302 4700 
Q 1616 4750 1894 4750 
Q 2613 4750 3031 4423 
Q 3450 4097 3450 3541 
Q 3450 3153 3228 2886 
Q 3006 2619 2597 2516 
z
" transform="scale(0.015625)"/>
       </defs>
       <use xlink:href="#DejaVuSans-33"/>
       <use xlink:href="#DejaVuSans-30" transform="translate(63.623047 0)"/>
      </g>
     </g>
    </g>
    <g id="ytick_15">
     <g id="line2d_48">
      <g>
       <use xlink:href="#mdbf0eb2c99" x="319.545" y="182.246803" style="fill: #444444; stroke: #444444; stroke-width: 0.8"/>
      </g>
     </g>
     <g id="text_49">
      <!-- 40 -->
      <g style="fill: #444444" transform="translate(299.82 186.046021) scale(0.1 -0.1)">
       <defs>
        <path id="DejaVuSans-34" d="M 2419 4116 
L 825 1625 
L 2419 1625 
L 2419 4116 
z
M 2253 4666 
L 3047 4666 
L 3047 1625 
L 3713 1625 
L 3713 1100 
L 3047 1100 
L 3047 0 
L 2419 0 
L 2419 1100 
L 313 1100 
L 313 1709 
L 2253 4666 
z
" transform="scale(0.015625)"/>
       </defs>
       <use xlink:href="#DejaVuSans-34"/>
       <use xlink:href="#DejaVuSans-30" transform="translate(63.623047 0)"/>
      </g>
     </g>
    </g>
   </g>
   <g id="line2d_49">
    <path d="M 431.2125 289.24 
L 431.2125 171.28 
" clip-path="url(#pfdb25aefd7)" style="fill: none; stroke: #888888; stroke-opacity: 0.5; stroke-width: 0.5; stroke-linecap: square"/>
   </g>
   <g id="patch_60">
    <path d="M 319.545 289.24 
L 319.545 171.28 
" style="fill: none; stroke: #444444; stroke-width: 0.8; stroke-linejoin: miter; stroke-linecap: square"/>
   </g>
   <g id="patch_61">
    <path d="M 319.545 289.24 
L 542.88 289.24 
" style="fill: none; stroke: #444444; stroke-width: 0.8; stroke-linejoin: miter; stroke-linecap: square"/>
   </g>
  </g>
 </g>
 <defs>
  <clipPath id="pec61c22074">
   <rect x="57.8" y="25.44" width="223.335" height="117.96"/>
  </clipPath>
  <clipPath id="pa920b926a7">
   <rect x="319.545" y="25.44" width="223.335" height="117.96"/>
  </clipPath>
  <clipPath id="pc3d7a4b0f8">
   <rect x="57.8" y="171.28" width="223.335" height="117.96"/>
  </clipPath>
  <clipPath id="pfdb25aefd7">
   <rect x="319.545" y="171.28" width="223.335" height="117.96"/>
  </clipPath>
 </defs>
</svg>
