<?xml version="1.0" encoding="utf-8" standalone="no"?>
<!DOCTYPE svg PUBLIC "-//W3C//DTD SVG 1.1//EN"
  "http://www.w3.org/Graphics/SVG/1.1/DTD/svg11.dtd">
<svg xmlns:xlink="http://www.w3.org/1999/xlink" width="504pt" height="540pt" viewBox="0 0 504 540" xmlns="http://www.w3.org/2000/svg" version="1.1">
 <metadata>
  <rdf:RDF xmlns:dc="http://purl.org/dc/elements/1.1/" xmlns:cc="http://creativecommons.org/ns#" xmlns:rdf="http://www.w3.org/1999/02/22-rdf-syntax-ns#">
   <cc:Work>
    <dc:type rdf:resource="http://purl.org/dc/dcmitype/StillImage"/>
    <dc:date>2026-05-01T14:56:56.233764</dc:date>
    <dc:format>image/svg+xml</dc:format>
    <dc:creator>
     <cc:Agent>
      <dc:title>Matplotlib v3.10.9, https://matplotlib.org/</dc:title>
     </cc:Agent>
    </dc:creator>
   </cc:Work>
  </rdf:RDF>
 </metadata>
 <defs>
  <style type="text/css">*{stroke-linejoin: round; stroke-linecap: butt}</style>
 </defs>
 <g id="figure_1">
  <g id="patch_1">
   <path d="M 0 540 
L 504 540 
L 504 0 
L 0 0 
L 0 540 
z
" style="fill: none"/>
  </g>
  <g id="axes_1">
   <g id="text_1">
    <!-- canonical -->
    <g style="fill: #222222" transform="translate(240.482266 11.880515) scale(0.11 -0.11)">
     <defs>
      <path id="DejaVuSans-Bold-63" d="M 3366 3391 
L 3366 2478 
Q 3138 2634 2908 2709 
Q 2678 2784 2431 2784 
Q 1963 2784 1702 2511 
Q 1441 2238 1441 1747 
Q 1441 1256 1702 982 
Q 1963 709 2431 709 
Q 2694 709 2930 787 
Q 3166 866 3366 1019 
L 3366 103 
Q 3103 6 2833 -42 
Q 2563 -91 2291 -91 
Q 1344 -91 809 395 
Q 275 881 275 1747 
Q 275 2613 809 3098 
Q 1344 3584 2291 3584 
Q 2566 3584 2833 3536 
Q 3100 3488 3366 3391 
z
" transform="scale(0.015625)"/>
      <path id="DejaVuSans-Bold-61" d="M 2106 1575 
Q 1756 1575 1579 1456 
Q 1403 1338 1403 1106 
Q 1403 894 1545 773 
Q 1688 653 1941 653 
Q 2256 653 2472 879 
Q 2688 1106 2688 1447 
L 2688 1575 
L 2106 1575 
z
M 3816 1997 
L 3816 0 
L 2688 0 
L 2688 519 
Q 2463 200 2181 54 
Q 1900 -91 1497 -91 
Q 953 -91 614 226 
Q 275 544 275 1050 
Q 275 1666 698 1953 
Q 1122 2241 2028 2241 
L 2688 2241 
L 2688 2328 
Q 2688 2594 2478 2717 
Q 2269 2841 1825 2841 
Q 1466 2841 1156 2769 
Q 847 2697 581 2553 
L 581 3406 
Q 941 3494 1303 3539 
Q 1666 3584 2028 3584 
Q 2975 3584 3395 3211 
Q 3816 2838 3816 1997 
z
" transform="scale(0.015625)"/>
      <path id="DejaVuSans-Bold-6e" d="M 4056 2131 
L 4056 0 
L 2931 0 
L 2931 347 
L 2931 1631 
Q 2931 2084 2911 2256 
Q 2891 2428 2841 2509 
Q 2775 2619 2662 2680 
Q 2550 2741 2406 2741 
Q 2056 2741 1856 2470 
Q 1656 2200 1656 1722 
L 1656 0 
L 538 0 
L 538 3500 
L 1656 3500 
L 1656 2988 
Q 1909 3294 2193 3439 
Q 2478 3584 2822 3584 
Q 3428 3584 3742 3212 
Q 4056 2841 4056 2131 
z
" transform="scale(0.015625)"/>
      <path id="DejaVuSans-Bold-6f" d="M 2203 2784 
Q 1831 2784 1636 2517 
Q 1441 2250 1441 1747 
Q 1441 1244 1636 976 
Q 1831 709 2203 709 
Q 2569 709 2762 976 
Q 2956 1244 2956 1747 
Q 2956 2250 2762 2517 
Q 2569 2784 2203 2784 
z
M 2203 3584 
Q 3106 3584 3614 3096 
Q 4122 2609 4122 1747 
Q 4122 884 3614 396 
Q 3106 -91 2203 -91 
Q 1297 -91 786 396 
Q 275 884 275 1747 
Q 275 2609 786 3096 
Q 1297 3584 2203 3584 
z
" transform="scale(0.015625)"/>
      <path id="DejaVuSans-Bold-69" d="M 538 3500 
L 1656 3500 
L 1656 0 
L 538 0 
L 538 3500 
z
M 538 4863 
L 1656 4863 
L 1656 3950 
L 538 3950 
L 538 4863 
z
" transform="scale(0.015625)"/>
      <path id="DejaVuSans-Bold-6c" d="M 538 4863 
L 1656 4863 
L 1656 0 
L 538 0 
L 538 4863 
z
" transform="scale(0.015625)"/>
     </defs>
     <use xlink:href="#DejaVuSans-Bold-63"/>
     <use xlink:href="#DejaVuSans-Bold-61" transform="translate(59.277344 0)"/>
     <use xlink:href="#DejaVuSans-Bold-6e" transform="translate(126.757812 0)"/>
     <use xlink:href="#DejaVuSans-Bold-6f" transform="translate(197.949219 0)"/>
     <use xlink:href="#DejaVuSans-Bold-6e" transform="translate(266.650391 0)"/>
     <use xlink:href="#DejaVuSans-Bold-69" transform="translate(337.841797 0)"/>
     <use xlink:href="#DejaVuSans-Bold-63" transform="translate(372.119141 0)"/>
     <use xlink:href="#DejaVuSans-Bold-61" transform="translate(431.396484 0)"/>
     <use xlink:href="#DejaVuSans-Bold-6c" transform="translate(498.876953 0)"/>
    </g>
   </g>
  </g>
  <g id="axes_2">
   <g id="patch_2">
    <path d="M 38.613678 166.814717 
L 254.120212 166.814717 
L 254.120212 20.690646 
L 38.613678 20.690646 
L 38.613678 166.814717 
z
" style="fill: none"/>
   </g>
   <g id="matplotlib.axis_1">
    <g id="xtick_1"/>
    <g id="xtick_2"/>
    <g id="xtick_3"/>
    <g id="xtick_4"/>
    <g id="xtick_5"/>
   </g>
   <g id="matplotlib.axis_2">
    <g id="ytick_1">
     <g id="line2d_1">
      <defs>
       <path id="m1d7ff0c410" d="M 0 0 
L -3.5 0 
" style="stroke: #444444; stroke-width: 0.8"/>
      </defs>
      <g>
       <use xlink:href="#m1d7ff0c410" x="38.613678" y="152.20231" style="fill: #444444; stroke: #444444; stroke-width: 0.8"/>
      </g>
     </g>
     <g id="text_2">
      <!-- 0 -->
      <g style="fill: #444444" transform="translate(25.251178 156.001529) scale(0.1 -0.1)">
       <defs>
        <path id="DejaVuSans-30" d="M 2034 4250 
Q 1547 4250 1301 3770 
Q 1056 3291 1056 2328 
Q 1056 1369 1301 889 
Q 1547 409 2034 409 
Q 2525 409 2770 889 
Q 3016 1369 3016 2328 
Q 3016 3291 2770 3770 
Q 2525 4250 2034 4250 
z
M 2034 4750 
Q 2819 4750 3233 4129 
Q 3647 3509 3647 2328 
Q 3647 1150 3233 529 
Q 2819 -91 2034 -91 
Q 1250 -91 836 529 
Q 422 1150 422 2328 
Q 422 3509 836 4129 
Q 1250 4750 2034 4750 
z
" transform="scale(0.015625)"/>
       </defs>
       <use xlink:href="#DejaVuSans-30"/>
      </g>
     </g>
    </g>
    <g id="ytick_2">
     <g id="line2d_2">
      <g>
       <use xlink:href="#m1d7ff0c410" x="38.613678" y="115.671292" style="fill: #444444; stroke: #444444; stroke-width: 0.8"/>
      </g>
     </g>
     <g id="text_3">
      <!-- 1 -->
      <g style="fill: #444444" transform="translate(25.251178 119.470511) scale(0.1 -0.1)">
       <defs>
        <path id="DejaVuSans-31" d="M 794 531 
L 1825 531 
L 1825 4091 
L 703 3866 
L 703 4441 
L 1819 4666 
L 2450 4666 
L 2450 531 
L 3481 531 
L 3481 0 
L 794 0 
L 794 531 
z
" transform="scale(0.015625)"/>
       </defs>
       <use xlink:href="#DejaVuSans-31"/>
      </g>
     </g>
    </g>
    <g id="ytick_3">
     <g id="line2d_3">
      <g>
       <use xlink:href="#m1d7ff0c410" x="38.613678" y="79.140274" style="fill: #444444; stroke: #444444; stroke-width: 0.8"/>
      </g>
     </g>
     <g id="text_4">
      <!-- 2 -->
      <g style="fill: #444444" transform="translate(25.251178 82.939493) scale(0.1 -0.1)">
       <defs>
        <path id="DejaVuSans-32" d="M 1228 531 
L 3431 531 
L 3431 0 
L 469 0 
L 469 531 
Q 828 903 1448 1529 
Q 2069 2156 2228 2338 
Q 2531 2678 2651 2914 
Q 2772 3150 2772 3378 
Q 2772 3750 2511 3984 
Q 2250 4219 1831 4219 
Q 1534 4219 1204 4116 
Q 875 4013 500 3803 
L 500 4441 
Q 881 4594 1212 4672 
Q 1544 4750 1819 4750 
Q 2544 4750 2975 4387 
Q 3406 4025 3406 3419 
Q 3406 3131 3298 2873 
Q 3191 2616 2906 2266 
Q 2828 2175 2409 1742 
Q 1991 1309 1228 531 
z
" transform="scale(0.015625)"/>
       </defs>
       <use xlink:href="#DejaVuSans-32"/>
      </g>
     </g>
    </g>
    <g id="ytick_4">
     <g id="line2d_4">
      <g>
       <use xlink:href="#m1d7ff0c410" x="38.613678" y="42.609256" style="fill: #444444; stroke: #444444; stroke-width: 0.8"/>
      </g>
     </g>
     <g id="text_5">
      <!-- 3 -->
      <g style="fill: #444444" transform="translate(25.251178 46.408475) scale(0.1 -0.1)">
       <defs>
        <path id="DejaVuSans-33" d="M 2597 2516 
Q 3050 2419 3304 2112 
Q 3559 1806 3559 1356 
Q 3559 666 3084 287 
Q 2609 -91 1734 -91 
Q 1441 -91 1130 -33 
Q 819 25 488 141 
L 488 750 
Q 750 597 1062 519 
Q 1375 441 1716 441 
Q 2309 441 2620 675 
Q 2931 909 2931 1356 
Q 2931 1769 2642 2001 
Q 2353 2234 1838 2234 
L 1294 2234 
L 1294 2753 
L 1863 2753 
Q 2328 2753 2575 2939 
Q 2822 3125 2822 3475 
Q 2822 3834 2567 4026 
Q 2313 4219 1838 4219 
Q 1578 4219 1281 4162 
Q 984 4106 628 3988 
L 628 4550 
Q 988 4650 1302 4700 
Q 1616 4750 1894 4750 
Q 2613 4750 3031 4423 
Q 3450 4097 3450 3541 
Q 3450 3153 3228 2886 
Q 3006 2619 2597 2516 
z
" transform="scale(0.015625)"/>
       </defs>
       <use xlink:href="#DejaVuSans-33"/>
      </g>
     </g>
    </g>
    <g id="text_6">
     <!-- z-score -->
     <g style="fill: #444444" transform="translate(19.379459 109.827525) rotate(-90) scale(0.09 -0.09)">
      <defs>
       <path id="DejaVuSans-7a" d="M 353 3500 
L 3084 3500 
L 3084 2975 
L 922 459 
L 3084 459 
L 3084 0 
L 275 0 
L 275 525 
L 2438 3041 
L 353 3041 
L 353 3500 
z
" transform="scale(0.015625)"/>
       <path id="DejaVuSans-2d" d="M 313 2009 
L 1997 2009 
L 1997 1497 
L 313 1497 
L 313 2009 
z
" transform="scale(0.015625)"/>
       <path id="DejaVuSans-73" d="M 2834 3397 
L 2834 2853 
Q 2591 2978 2328 3040 
Q 2066 3103 1784 3103 
Q 1356 3103 1142 2972 
Q 928 2841 928 2578 
Q 928 2378 1081 2264 
Q 1234 2150 1697 2047 
L 1894 2003 
Q 2506 1872 2764 1633 
Q 3022 1394 3022 966 
Q 3022 478 2636 193 
Q 2250 -91 1575 -91 
Q 1294 -91 989 -36 
Q 684 19 347 128 
L 347 722 
Q 666 556 975 473 
Q 1284 391 1588 391 
Q 1994 391 2212 530 
Q 2431 669 2431 922 
Q 2431 1156 2273 1281 
Q 2116 1406 1581 1522 
L 1381 1569 
Q 847 1681 609 1914 
Q 372 2147 372 2553 
Q 372 3047 722 3315 
Q 1072 3584 1716 3584 
Q 2034 3584 2315 3537 
Q 2597 3491 2834 3397 
z
" transform="scale(0.015625)"/>
       <path id="DejaVuSans-63" d="M 3122 3366 
L 3122 2828 
Q 2878 2963 2633 3030 
Q 2388 3097 2138 3097 
Q 1578 3097 1268 2742 
Q 959 2388 959 1747 
Q 959 1106 1268 751 
Q 1578 397 2138 397 
Q 2388 397 2633 464 
Q 2878 531 3122 666 
L 3122 134 
Q 2881 22 2623 -34 
Q 2366 -91 2075 -91 
Q 1284 -91 818 406 
Q 353 903 353 1747 
Q 353 2603 823 3093 
Q 1294 3584 2113 3584 
Q 2378 3584 2631 3529 
Q 2884 3475 3122 3366 
z
" transform="scale(0.015625)"/>
       <path id="DejaVuSans-6f" d="M 1959 3097 
Q 1497 3097 1228 2736 
Q 959 2375 959 1747 
Q 959 1119 1226 758 
Q 1494 397 1959 397 
Q 2419 397 2687 759 
Q 2956 1122 2956 1747 
Q 2956 2369 2687 2733 
Q 2419 3097 1959 3097 
z
M 1959 3584 
Q 2709 3584 3137 3096 
Q 3566 2609 3566 1747 
Q 3566 888 3137 398 
Q 2709 -91 1959 -91 
Q 1206 -91 779 398 
Q 353 888 353 1747 
Q 353 2609 779 3096 
Q 1206 3584 1959 3584 
z
" transform="scale(0.015625)"/>
       <path id="DejaVuSans-72" d="M 2631 2963 
Q 2534 3019 2420 3045 
Q 2306 3072 2169 3072 
Q 1681 3072 1420 2755 
Q 1159 2438 1159 1844 
L 1159 0 
L 581 0 
L 581 3500 
L 1159 3500 
L 1159 2956 
Q 1341 3275 1631 3429 
Q 1922 3584 2338 3584 
Q 2397 3584 2469 3576 
Q 2541 3569 2628 3553 
L 2631 2963 
z
" transform="scale(0.015625)"/>
       <path id="DejaVuSans-65" d="M 3597 1894 
L 3597 1613 
L 953 1613 
Q 991 1019 1311 708 
Q 1631 397 2203 397 
Q 2534 397 2845 478 
Q 3156 559 3463 722 
L 3463 178 
Q 3153 47 2828 -22 
Q 2503 -91 2169 -91 
Q 1331 -91 842 396 
Q 353 884 353 1716 
Q 353 2575 817 3079 
Q 1281 3584 2069 3584 
Q 2775 3584 3186 3129 
Q 3597 2675 3597 1894 
z
M 3022 2063 
Q 3016 2534 2758 2815 
Q 2500 3097 2075 3097 
Q 1594 3097 1305 2825 
Q 1016 2553 972 2059 
L 3022 2063 
z
" transform="scale(0.015625)"/>
      </defs>
      <use xlink:href="#DejaVuSans-7a"/>
      <use xlink:href="#DejaVuSans-2d" transform="translate(52.490234 0)"/>
      <use xlink:href="#DejaVuSans-73" transform="translate(88.574219 0)"/>
      <use xlink:href="#DejaVuSans-63" transform="translate(140.673828 0)"/>
      <use xlink:href="#DejaVuSans-6f" transform="translate(195.654297 0)"/>
      <use xlink:href="#DejaVuSans-72" transform="translate(256.835938 0)"/>
      <use xlink:href="#DejaVuSans-65" transform="translate(295.699219 0)"/>
     </g>
    </g>
   </g>
   <g id="line2d_5">
    <path d="M 38.613677 152.201902 
L 57.039887 152.094857 
L 61.846724 151.850798 
L 65.051282 151.474063 
L 67.454701 150.984841 
L 69.858119 150.222729 
L 71.460398 149.506963 
L 73.062677 148.577422 
L 74.664956 147.387128 
L 76.267236 145.88446 
L 77.869515 144.014568 
L 79.471794 141.721439 
L 81.074073 138.950692 
L 82.676352 135.653042 
L 84.278631 131.788361 
L 85.88091 127.330145 
L 87.483189 122.27012 
L 89.085468 116.622655 
L 91.488887 107.147259 
L 93.892305 96.711444 
L 101.102561 64.447053 
L 102.70484 58.281404 
L 104.307119 52.915914 
L 105.909398 48.531723 
L 106.710538 46.756861 
L 107.511677 45.282124 
L 108.312817 44.120861 
L 109.113956 43.283673 
L 109.915096 42.778251 
L 110.716235 42.609256 
L 111.517375 42.778251 
L 112.318515 43.283673 
L 113.119654 44.120861 
L 113.920794 45.282124 
L 114.721933 46.756861 
L 115.523073 48.531723 
L 117.125352 52.915914 
L 118.727631 58.281404 
L 120.32991 64.447053 
L 122.733328 74.758568 
L 130.744724 110.428574 
L 133.148142 119.517925 
L 134.750421 124.87504 
L 136.352701 129.634443 
L 137.95498 133.79361 
L 139.557259 137.370503 
L 141.159538 140.399013 
L 142.761817 142.924383 
L 144.364096 144.99892 
L 145.966375 146.678214 
L 147.568654 148.018 
L 149.170933 149.07173 
L 150.773212 149.888839 
L 152.375491 150.513652 
L 154.77891 151.173334 
L 157.182328 151.592486 
L 160.386887 151.91157 
L 165.193724 152.115065 
L 174.006259 152.195115 
L 234.091724 152.20231 
L 254.120212 152.20231 
L 254.120212 152.20231 
" clip-path="url(#pa0cde379f3)" style="fill: none; stroke: #3a3a3a; stroke-opacity: 0.95; stroke-width: 1.5; stroke-linecap: square"/>
   </g>
   <g id="line2d_6">
    <path d="M 110.716235 152.20231 
L 110.716235 42.609256 
" clip-path="url(#pa0cde379f3)" style="fill: none; stroke-dasharray: 1,1.65; stroke-dashoffset: 0; stroke: #c0392b; stroke-opacity: 0.75"/>
   </g>
   <g id="line2d_7">
    <path d="M 86.682049 166.814717 
L 86.682049 20.690646 
" clip-path="url(#pa0cde379f3)" style="fill: none; stroke-dasharray: 2.59,1.12; stroke-dashoffset: 0; stroke: #666666; stroke-opacity: 0.6; stroke-width: 0.7"/>
   </g>
   <g id="line2d_8">
    <path d="M 38.613678 152.20231 
L 254.120212 152.20231 
" clip-path="url(#pa0cde379f3)" style="fill: none; stroke: #888888; stroke-opacity: 0.4; stroke-width: 0.5; stroke-linecap: square"/>
   </g>
   <g id="patch_3">
    <path d="M 38.613678 166.814717 
L 38.613678 20.690646 
" style="fill: none; stroke: #444444; stroke-width: 0.8; stroke-linejoin: miter; stroke-linecap: square"/>
   </g>
   <g id="text_7">
    <!-- peak = 3.0 -->
    <g style="fill: #c0392b" transform="translate(192.595641 38.517768) scale(0.1 -0.1)">
     <defs>
      <path id="DejaVuSans-70" d="M 1159 525 
L 1159 -1331 
L 581 -1331 
L 581 3500 
L 1159 3500 
L 1159 2969 
Q 1341 3281 1617 3432 
Q 1894 3584 2278 3584 
Q 2916 3584 3314 3078 
Q 3713 2572 3713 1747 
Q 3713 922 3314 415 
Q 2916 -91 2278 -91 
Q 1894 -91 1617 61 
Q 1341 213 1159 525 
z
M 3116 1747 
Q 3116 2381 2855 2742 
Q 2594 3103 2138 3103 
Q 1681 3103 1420 2742 
Q 1159 2381 1159 1747 
Q 1159 1113 1420 752 
Q 1681 391 2138 391 
Q 2594 391 2855 752 
Q 3116 1113 3116 1747 
z
" transform="scale(0.015625)"/>
      <path id="DejaVuSans-61" d="M 2194 1759 
Q 1497 1759 1228 1600 
Q 959 1441 959 1056 
Q 959 750 1161 570 
Q 1363 391 1709 391 
Q 2188 391 2477 730 
Q 2766 1069 2766 1631 
L 2766 1759 
L 2194 1759 
z
M 3341 1997 
L 3341 0 
L 2766 0 
L 2766 531 
Q 2569 213 2275 61 
Q 1981 -91 1556 -91 
Q 1019 -91 701 211 
Q 384 513 384 1019 
Q 384 1609 779 1909 
Q 1175 2209 1959 2209 
L 2766 2209 
L 2766 2266 
Q 2766 2663 2505 2880 
Q 2244 3097 1772 3097 
Q 1472 3097 1187 3025 
Q 903 2953 641 2809 
L 641 3341 
Q 956 3463 1253 3523 
Q 1550 3584 1831 3584 
Q 2591 3584 2966 3190 
Q 3341 2797 3341 1997 
z
" transform="scale(0.015625)"/>
      <path id="DejaVuSans-6b" d="M 581 4863 
L 1159 4863 
L 1159 1991 
L 2875 3500 
L 3609 3500 
L 1753 1863 
L 3688 0 
L 2938 0 
L 1159 1709 
L 1159 0 
L 581 0 
L 581 4863 
z
" transform="scale(0.015625)"/>
      <path id="DejaVuSans-20" transform="scale(0.015625)"/>
      <path id="DejaVuSans-3d" d="M 678 2906 
L 4684 2906 
L 4684 2381 
L 678 2381 
L 678 2906 
z
M 678 1631 
L 4684 1631 
L 4684 1100 
L 678 1100 
L 678 1631 
z
" transform="scale(0.015625)"/>
      <path id="DejaVuSans-2e" d="M 684 794 
L 1344 794 
L 1344 0 
L 684 0 
L 684 794 
z
" transform="scale(0.015625)"/>
     </defs>
     <use xlink:href="#DejaVuSans-70"/>
     <use xlink:href="#DejaVuSans-65" transform="translate(63.476562 0)"/>
     <use xlink:href="#DejaVuSans-61" transform="translate(125 0)"/>
     <use xlink:href="#DejaVuSans-6b" transform="translate(186.279297 0)"/>
     <use xlink:href="#DejaVuSans-20" transform="translate(244.189453 0)"/>
     <use xlink:href="#DejaVuSans-3d" transform="translate(275.976562 0)"/>
     <use xlink:href="#DejaVuSans-20" transform="translate(359.765625 0)"/>
     <use xlink:href="#DejaVuSans-33" transform="translate(391.552734 0)"/>
     <use xlink:href="#DejaVuSans-2e" transform="translate(455.175781 0)"/>
     <use xlink:href="#DejaVuSans-30" transform="translate(486.962891 0)"/>
    </g>
   </g>
   <g id="line2d_9">
    <defs>
     <path id="mff9023796f" d="M 0 5 
C 1.326016 5 2.597899 4.473168 3.535534 3.535534 
C 4.473168 2.597899 5 1.326016 5 0 
C 5 -1.326016 4.473168 -2.597899 3.535534 -3.535534 
C 2.597899 -4.473168 1.326016 -5 0 -5 
C -1.326016 -5 -2.597899 -4.473168 -3.535534 -3.535534 
C -4.473168 -2.597899 -5 -1.326016 -5 0 
C -5 1.326016 -4.473168 2.597899 -3.535534 3.535534 
C -2.597899 4.473168 -1.326016 5 0 5 
z
" style="stroke: #c0392b"/>
    </defs>
    <g clip-path="url(#pa0cde379f3)">
     <use xlink:href="#mff9023796f" x="110.716235" y="42.609256" style="fill: #c0392b; stroke: #c0392b"/>
    </g>
   </g>
  </g>
  <g id="axes_3">
   <g id="patch_4">
    <path d="M 285.493226 166.814717 
L 500.99976 166.814717 
L 500.99976 20.690646 
L 285.493226 20.690646 
L 285.493226 166.814717 
z
" style="fill: none"/>
   </g>
   <g id="FillBetweenPolyCollection_1">
    <defs>
     <path id="meb78a6138b" d="M 333.561598 -415.12496 
L 333.561598 -387.79769 
L 334.362737 -387.79769 
L 335.163877 -387.79769 
L 335.965016 -387.79769 
L 336.766156 -387.79769 
L 337.567295 -387.79769 
L 338.368435 -387.79769 
L 339.169574 -387.79769 
L 339.970714 -387.79769 
L 340.771853 -387.79769 
L 341.572993 -387.79769 
L 342.374132 -387.79769 
L 343.175272 -387.79769 
L 343.976412 -387.79769 
L 344.777551 -387.79769 
L 345.578691 -387.79769 
L 346.37983 -387.79769 
L 347.18097 -387.79769 
L 347.982109 -387.79769 
L 348.783249 -387.79769 
L 349.584388 -387.79769 
L 350.385528 -387.79769 
L 351.186667 -387.79769 
L 351.987807 -387.79769 
L 352.788946 -387.79769 
L 353.590086 -387.79769 
L 354.391225 -387.79769 
L 355.192365 -387.79769 
L 355.993505 -387.79769 
L 356.794644 -387.79769 
L 357.595784 -387.79769 
L 358.396923 -387.79769 
L 359.198063 -387.79769 
L 359.999202 -387.79769 
L 360.800342 -387.79769 
L 361.601481 -387.79769 
L 362.402621 -387.79769 
L 363.20376 -387.79769 
L 364.0049 -387.79769 
L 364.806039 -387.79769 
L 365.607179 -387.79769 
L 366.408318 -387.79769 
L 367.209458 -387.79769 
L 368.010598 -387.79769 
L 368.811737 -387.79769 
L 369.612877 -387.79769 
L 370.414016 -387.79769 
L 371.215156 -387.79769 
L 372.016295 -387.79769 
L 372.817435 -387.79769 
L 373.618574 -387.79769 
L 374.419714 -387.79769 
L 375.220853 -387.79769 
L 376.021993 -387.79769 
L 376.823132 -387.79769 
L 377.624272 -387.79769 
L 378.425411 -387.79769 
L 379.226551 -387.79769 
L 380.027691 -387.79769 
L 380.82883 -387.79769 
L 381.62997 -387.79769 
L 382.431109 -387.79769 
L 383.232249 -387.79769 
L 384.033388 -387.79769 
L 384.834528 -387.79769 
L 385.635667 -387.79769 
L 386.436807 -387.79769 
L 387.237946 -387.79769 
L 388.039086 -387.79769 
L 388.840225 -387.79769 
L 389.641365 -387.79769 
L 390.442504 -387.79769 
L 391.243644 -387.79769 
L 392.044784 -387.79769 
L 392.845923 -387.79769 
L 393.647063 -387.79769 
L 394.448202 -387.79769 
L 395.249342 -387.79769 
L 396.050481 -387.79769 
L 396.851621 -387.79769 
L 397.65276 -387.79769 
L 398.4539 -387.79769 
L 399.255039 -387.79769 
L 400.056179 -387.79769 
L 400.857318 -387.79769 
L 401.658458 -387.79769 
L 402.459597 -387.79769 
L 403.260737 -387.79769 
L 404.061877 -387.79769 
L 404.863016 -387.79769 
L 405.664156 -387.79769 
L 406.465295 -387.79769 
L 407.266435 -387.79769 
L 408.067574 -387.79769 
L 408.868714 -387.79769 
L 409.669853 -387.79769 
L 410.470993 -387.79769 
L 411.272132 -387.79769 
L 412.073272 -387.79769 
L 412.874411 -387.79769 
L 413.675551 -387.79769 
L 414.47669 -387.79769 
L 415.27783 -387.79769 
L 416.07897 -387.79769 
L 416.880109 -387.79769 
L 417.681249 -387.79769 
L 418.482388 -387.79769 
L 419.283528 -387.79769 
L 420.084667 -387.79769 
L 420.885807 -387.79769 
L 421.686946 -387.79769 
L 422.488086 -387.79769 
L 423.289225 -387.79769 
L 424.090365 -387.79769 
L 424.891504 -387.79769 
L 425.692644 -387.79769 
L 426.493783 -387.79769 
L 427.294923 -387.79769 
L 428.096062 -387.79769 
L 428.897202 -387.79769 
L 429.698342 -387.79769 
L 430.499481 -387.79769 
L 431.300621 -387.79769 
L 432.10176 -387.79769 
L 432.9029 -387.79769 
L 433.704039 -387.79769 
L 434.505179 -387.79769 
L 435.306318 -387.79769 
L 436.107458 -387.79769 
L 436.908597 -387.79769 
L 437.709737 -387.79769 
L 438.510876 -387.79769 
L 439.312016 -387.79769 
L 440.113155 -387.79769 
L 440.914295 -387.79769 
L 441.715435 -387.79769 
L 442.516574 -387.79769 
L 443.317714 -387.79769 
L 444.118853 -387.79769 
L 444.919993 -387.79769 
L 445.721132 -387.79769 
L 446.522272 -387.79769 
L 447.323411 -387.79769 
L 448.124551 -387.79769 
L 448.92569 -387.79769 
L 449.72683 -387.79769 
L 450.527969 -387.79769 
L 451.329109 -387.79769 
L 452.130248 -387.79769 
L 452.931388 -387.79769 
L 453.732528 -387.79769 
L 454.533667 -387.79769 
L 455.334807 -387.79769 
L 456.135946 -387.79769 
L 456.937086 -387.79769 
L 457.738225 -387.79769 
L 458.539365 -387.79769 
L 459.340504 -387.79769 
L 460.141644 -387.79769 
L 460.942783 -387.79769 
L 461.743923 -387.79769 
L 462.545062 -387.79769 
L 463.346202 -387.79769 
L 464.147341 -387.79769 
L 464.948481 -387.79769 
L 465.749621 -387.79769 
L 466.55076 -387.79769 
L 467.3519 -387.79769 
L 468.153039 -387.79769 
L 468.954179 -387.79769 
L 469.755318 -387.79769 
L 470.556458 -387.79769 
L 471.357597 -387.79769 
L 472.158737 -387.79769 
L 472.959876 -387.79769 
L 473.761016 -387.79769 
L 474.562155 -387.79769 
L 475.363295 -387.79769 
L 476.164434 -387.79769 
L 476.965574 -387.79769 
L 477.766714 -387.79769 
L 478.567853 -387.79769 
L 479.368993 -387.79769 
L 480.170132 -387.79769 
L 480.971272 -387.79769 
L 481.772411 -387.79769 
L 482.573551 -387.79769 
L 483.37469 -387.79769 
L 484.17583 -387.79769 
L 484.976969 -387.79769 
L 485.778109 -387.79769 
L 486.579248 -387.79769 
L 487.380388 -387.79769 
L 488.181527 -387.79769 
L 488.982667 -387.79769 
L 489.783807 -387.79769 
L 490.584946 -387.79769 
L 491.386086 -387.79769 
L 492.187225 -387.79769 
L 492.988365 -387.79769 
L 493.789504 -387.79769 
L 494.590644 -387.79769 
L 495.391783 -387.79769 
L 496.192923 -387.79769 
L 496.994062 -387.79769 
L 497.795202 -387.79769 
L 498.596341 -387.79769 
L 499.397481 -387.79769 
L 500.19862 -387.79769 
L 500.99976 -387.79769 
L 500.99976 -387.79769 
L 500.99976 -387.79769 
L 500.19862 -387.79769 
L 499.397481 -387.79769 
L 498.596341 -387.79769 
L 497.795202 -387.79769 
L 496.994062 -387.79769 
L 496.192923 -387.79769 
L 495.391783 -387.79769 
L 494.590644 -387.79769 
L 493.789504 -387.79769 
L 492.988365 -387.79769 
L 492.187225 -387.79769 
L 491.386086 -387.79769 
L 490.584946 -387.79769 
L 489.783807 -387.79769 
L 488.982667 -387.79769 
L 488.181527 -387.79769 
L 487.380388 -387.79769 
L 486.579248 -387.79769 
L 485.778109 -387.79769 
L 484.976969 -387.79769 
L 484.17583 -387.79769 
L 483.37469 -387.79769 
L 482.573551 -387.79769 
L 481.772411 -387.79769 
L 480.971272 -387.79769 
L 480.170132 -387.79769 
L 479.368993 -387.79769 
L 478.567853 -387.79769 
L 477.766714 -387.79769 
L 476.965574 -387.79769 
L 476.164434 -387.79769 
L 475.363295 -387.79769 
L 474.562155 -387.79769 
L 473.761016 -387.79769 
L 472.959876 -387.79769 
L 472.158737 -387.79769 
L 471.357597 -387.79769 
L 470.556458 -387.79769 
L 469.755318 -387.79769 
L 468.954179 -387.79769 
L 468.153039 -387.79769 
L 467.3519 -387.79769 
L 466.55076 -387.79769 
L 465.749621 -387.79769 
L 464.948481 -387.79769 
L 464.147341 -387.79769 
L 463.346202 -387.79769 
L 462.545062 -387.79769 
L 461.743923 -387.79769 
L 460.942783 -387.79769 
L 460.141644 -387.79769 
L 459.340504 -387.79769 
L 458.539365 -387.79769 
L 457.738225 -387.79769 
L 456.937086 -387.79769 
L 456.135946 -387.79769 
L 455.334807 -387.79769 
L 454.533667 -387.79769 
L 453.732528 -387.79769 
L 452.931388 -387.79769 
L 452.130248 -387.79769 
L 451.329109 -387.79769 
L 450.527969 -387.79769 
L 449.72683 -387.79769 
L 448.92569 -387.79769 
L 448.124551 -387.79769 
L 447.323411 -387.79769 
L 446.522272 -387.79769 
L 445.721132 -387.797691 
L 444.919993 -387.797691 
L 444.118853 -387.797691 
L 443.317714 -387.797692 
L 442.516574 -387.797693 
L 441.715435 -387.797694 
L 440.914295 -387.797696 
L 440.113155 -387.797698 
L 439.312016 -387.797701 
L 438.510876 -387.797706 
L 437.709737 -387.797711 
L 436.908597 -387.797719 
L 436.107458 -387.79773 
L 435.306318 -387.797744 
L 434.505179 -387.797763 
L 433.704039 -387.797788 
L 432.9029 -387.797821 
L 432.10176 -387.797865 
L 431.300621 -387.797923 
L 430.499481 -387.797999 
L 429.698342 -387.798098 
L 428.897202 -387.798228 
L 428.096062 -387.798397 
L 427.294923 -387.798617 
L 426.493783 -387.7989 
L 425.692644 -387.799266 
L 424.891504 -387.799735 
L 424.090365 -387.800337 
L 423.289225 -387.801104 
L 422.488086 -387.802081 
L 421.686946 -387.803319 
L 420.885807 -387.804885 
L 420.084667 -387.806857 
L 419.283528 -387.809334 
L 418.482388 -387.812435 
L 417.681249 -387.816305 
L 416.880109 -387.821117 
L 416.07897 -387.827083 
L 415.27783 -387.834454 
L 414.47669 -387.843532 
L 413.675551 -387.854675 
L 412.874411 -387.868309 
L 412.073272 -387.884935 
L 411.272132 -387.905143 
L 410.470993 -387.929624 
L 409.669853 -387.959184 
L 408.868714 -387.994756 
L 408.067574 -388.037424 
L 407.266435 -388.08843 
L 406.465295 -388.149202 
L 405.664156 -388.221368 
L 404.863016 -388.306775 
L 404.061877 -388.407514 
L 403.260737 -388.525937 
L 402.459597 -388.664676 
L 401.658458 -388.826666 
L 400.857318 -389.015159 
L 400.056179 -389.233741 
L 399.255039 -389.486348 
L 398.4539 -389.777271 
L 397.65276 -390.111161 
L 396.851621 -390.493037 
L 396.050481 -390.92827 
L 395.249342 -391.422578 
L 394.448202 -391.982 
L 393.647063 -392.612872 
L 392.845923 -393.321786 
L 392.044784 -394.11554 
L 391.243644 -395.00108 
L 390.442504 -395.985432 
L 389.641365 -397.075617 
L 388.840225 -398.278561 
L 388.039086 -399.600987 
L 387.237946 -401.049308 
L 386.436807 -402.629497 
L 385.635667 -404.346958 
L 384.834528 -406.20639 
L 384.033388 -408.211639 
L 383.232249 -410.365557 
L 382.431109 -412.669855 
L 381.62997 -415.12496 
L 380.82883 -417.72988 
L 380.027691 -420.482075 
L 379.226551 -423.377345 
L 378.425411 -426.409729 
L 377.624272 -429.571426 
L 376.823132 -432.852741 
L 376.021993 -436.242052 
L 375.220853 -439.725808 
L 374.419714 -443.288556 
L 373.618574 -446.913006 
L 372.817435 -450.580118 
L 372.016295 -454.269237 
L 371.215156 -457.95825 
L 370.414016 -461.623785 
L 369.612877 -465.241432 
L 368.811737 -468.786003 
L 368.010598 -472.231805 
L 367.209458 -475.552947 
L 366.408318 -478.723654 
L 365.607179 -481.718596 
L 364.806039 -484.51322 
L 364.0049 -487.084086 
L 363.20376 -489.409189 
L 362.402621 -491.468277 
L 361.601481 -493.243139 
L 360.800342 -494.717876 
L 359.999202 -495.879139 
L 359.198063 -496.716327 
L 358.396923 -497.221749 
L 357.595784 -497.390744 
L 356.794644 -497.221749 
L 355.993505 -496.716327 
L 355.192365 -495.879139 
L 354.391225 -494.717876 
L 353.590086 -493.243139 
L 352.788946 -491.468277 
L 351.987807 -489.409189 
L 351.186667 -487.084086 
L 350.385528 -484.51322 
L 349.584388 -481.718596 
L 348.783249 -478.723654 
L 347.982109 -475.552947 
L 347.18097 -472.231805 
L 346.37983 -468.786003 
L 345.578691 -465.241432 
L 344.777551 -461.623785 
L 343.976412 -457.95825 
L 343.175272 -454.269237 
L 342.374132 -450.580118 
L 341.572993 -446.913006 
L 340.771853 -443.288556 
L 339.970714 -439.725808 
L 339.169574 -436.242052 
L 338.368435 -432.852741 
L 337.567295 -429.571426 
L 336.766156 -426.409729 
L 335.965016 -423.377345 
L 335.163877 -420.482075 
L 334.362737 -417.72988 
L 333.561598 -415.12496 
z
"/>
    </defs>
    <g clip-path="url(#p7bae71d2c9)">
     <use xlink:href="#meb78a6138b" x="0" y="540" style="fill: #2ca02c; fill-opacity: 0.32"/>
    </g>
   </g>
   <g id="matplotlib.axis_3">
    <g id="xtick_6"/>
    <g id="xtick_7"/>
    <g id="xtick_8"/>
    <g id="xtick_9"/>
    <g id="xtick_10"/>
   </g>
   <g id="matplotlib.axis_4">
    <g id="ytick_5"/>
    <g id="ytick_6"/>
    <g id="ytick_7"/>
    <g id="ytick_8"/>
   </g>
   <g id="line2d_10">
    <path d="M 285.493226 152.201902 
L 303.919435 152.094857 
L 308.726272 151.850798 
L 311.93083 151.474063 
L 314.334249 150.984841 
L 316.737667 150.222729 
L 318.339946 149.506963 
L 319.942226 148.577422 
L 321.544505 147.387128 
L 323.146784 145.88446 
L 324.749063 144.014568 
L 326.351342 141.721439 
L 327.953621 138.950692 
L 329.5559 135.653042 
L 331.158179 131.788361 
L 332.760458 127.330145 
L 334.362737 122.27012 
L 335.965016 116.622655 
L 338.368435 107.147259 
L 340.771853 96.711444 
L 347.982109 64.447053 
L 349.584388 58.281404 
L 351.186667 52.915914 
L 352.788946 48.531723 
L 353.590086 46.756861 
L 354.391225 45.282124 
L 355.192365 44.120861 
L 355.993505 43.283673 
L 356.794644 42.778251 
L 357.595784 42.609256 
L 358.396923 42.778251 
L 359.198063 43.283673 
L 359.999202 44.120861 
L 360.800342 45.282124 
L 361.601481 46.756861 
L 362.402621 48.531723 
L 364.0049 52.915914 
L 365.607179 58.281404 
L 367.209458 64.447053 
L 369.612877 74.758568 
L 377.624272 110.428574 
L 380.027691 119.517925 
L 381.62997 124.87504 
L 383.232249 129.634443 
L 384.834528 133.79361 
L 386.436807 137.370503 
L 388.039086 140.399013 
L 389.641365 142.924383 
L 391.243644 144.99892 
L 392.845923 146.678214 
L 394.448202 148.018 
L 396.050481 149.07173 
L 397.65276 149.888839 
L 399.255039 150.513652 
L 401.658458 151.173334 
L 404.061877 151.592486 
L 407.266435 151.91157 
L 412.073272 152.115065 
L 420.885807 152.195115 
L 480.971272 152.20231 
L 500.99976 152.20231 
L 500.99976 152.20231 
" clip-path="url(#p7bae71d2c9)" style="fill: none; stroke: #3a3a3a; stroke-opacity: 0.95; stroke-width: 1.5; stroke-linecap: square"/>
   </g>
   <g id="line2d_11">
    <path d="M 333.561598 166.814717 
L 333.561598 20.690646 
" clip-path="url(#p7bae71d2c9)" style="fill: none; stroke-dasharray: 2.59,1.12; stroke-dashoffset: 0; stroke: #666666; stroke-opacity: 0.6; stroke-width: 0.7"/>
   </g>
   <g id="line2d_12">
    <path d="M 285.493226 152.20231 
L 500.99976 152.20231 
" clip-path="url(#p7bae71d2c9)" style="fill: none; stroke: #888888; stroke-opacity: 0.4; stroke-width: 0.5; stroke-linecap: square"/>
   </g>
   <g id="text_8">
    <!-- AUC = 4.3 -->
    <g style="fill: #2ca02c" transform="translate(442.753314 38.517768) scale(0.1 -0.1)">
     <defs>
      <path id="DejaVuSans-41" d="M 2188 4044 
L 1331 1722 
L 3047 1722 
L 2188 4044 
z
M 1831 4666 
L 2547 4666 
L 4325 0 
L 3669 0 
L 3244 1197 
L 1141 1197 
L 716 0 
L 50 0 
L 1831 4666 
z
" transform="scale(0.015625)"/>
      <path id="DejaVuSans-55" d="M 556 4666 
L 1191 4666 
L 1191 1831 
Q 1191 1081 1462 751 
Q 1734 422 2344 422 
Q 2950 422 3222 751 
Q 3494 1081 3494 1831 
L 3494 4666 
L 4128 4666 
L 4128 1753 
Q 4128 841 3676 375 
Q 3225 -91 2344 -91 
Q 1459 -91 1007 375 
Q 556 841 556 1753 
L 556 4666 
z
" transform="scale(0.015625)"/>
      <path id="DejaVuSans-43" d="M 4122 4306 
L 4122 3641 
Q 3803 3938 3442 4084 
Q 3081 4231 2675 4231 
Q 1875 4231 1450 3742 
Q 1025 3253 1025 2328 
Q 1025 1406 1450 917 
Q 1875 428 2675 428 
Q 3081 428 3442 575 
Q 3803 722 4122 1019 
L 4122 359 
Q 3791 134 3420 21 
Q 3050 -91 2638 -91 
Q 1578 -91 968 557 
Q 359 1206 359 2328 
Q 359 3453 968 4101 
Q 1578 4750 2638 4750 
Q 3056 4750 3426 4639 
Q 3797 4528 4122 4306 
z
" transform="scale(0.015625)"/>
      <path id="DejaVuSans-34" d="M 2419 4116 
L 825 1625 
L 2419 1625 
L 2419 4116 
z
M 2253 4666 
L 3047 4666 
L 3047 1625 
L 3713 1625 
L 3713 1100 
L 3047 1100 
L 3047 0 
L 2419 0 
L 2419 1100 
L 313 1100 
L 313 1709 
L 2253 4666 
z
" transform="scale(0.015625)"/>
     </defs>
     <use xlink:href="#DejaVuSans-41"/>
     <use xlink:href="#DejaVuSans-55" transform="translate(68.408203 0)"/>
     <use xlink:href="#DejaVuSans-43" transform="translate(141.601562 0)"/>
     <use xlink:href="#DejaVuSans-20" transform="translate(211.425781 0)"/>
     <use xlink:href="#DejaVuSans-3d" transform="translate(243.212891 0)"/>
     <use xlink:href="#DejaVuSans-20" transform="translate(327.001953 0)"/>
     <use xlink:href="#DejaVuSans-34" transform="translate(358.789062 0)"/>
     <use xlink:href="#DejaVuSans-2e" transform="translate(422.412109 0)"/>
     <use xlink:href="#DejaVuSans-33" transform="translate(454.199219 0)"/>
    </g>
   </g>
  </g>
  <g id="axes_4">
   <g id="text_9">
    <!-- broad sustained -->
    <g style="fill: #222222" transform="translate(219.545313 181.695473) scale(0.11 -0.11)">
     <defs>
      <path id="DejaVuSans-Bold-62" d="M 2400 722 
Q 2759 722 2948 984 
Q 3138 1247 3138 1747 
Q 3138 2247 2948 2509 
Q 2759 2772 2400 2772 
Q 2041 2772 1848 2508 
Q 1656 2244 1656 1747 
Q 1656 1250 1848 986 
Q 2041 722 2400 722 
z
M 1656 2988 
Q 1888 3294 2169 3439 
Q 2450 3584 2816 3584 
Q 3463 3584 3878 3070 
Q 4294 2556 4294 1747 
Q 4294 938 3878 423 
Q 3463 -91 2816 -91 
Q 2450 -91 2169 54 
Q 1888 200 1656 506 
L 1656 0 
L 538 0 
L 538 4863 
L 1656 4863 
L 1656 2988 
z
" transform="scale(0.015625)"/>
      <path id="DejaVuSans-Bold-72" d="M 3138 2547 
Q 2991 2616 2845 2648 
Q 2700 2681 2553 2681 
Q 2122 2681 1889 2404 
Q 1656 2128 1656 1613 
L 1656 0 
L 538 0 
L 538 3500 
L 1656 3500 
L 1656 2925 
Q 1872 3269 2151 3426 
Q 2431 3584 2822 3584 
Q 2878 3584 2943 3579 
Q 3009 3575 3134 3559 
L 3138 2547 
z
" transform="scale(0.015625)"/>
      <path id="DejaVuSans-Bold-64" d="M 2919 2988 
L 2919 4863 
L 4044 4863 
L 4044 0 
L 2919 0 
L 2919 506 
Q 2688 197 2409 53 
Q 2131 -91 1766 -91 
Q 1119 -91 703 423 
Q 288 938 288 1747 
Q 288 2556 703 3070 
Q 1119 3584 1766 3584 
Q 2128 3584 2408 3439 
Q 2688 3294 2919 2988 
z
M 2181 722 
Q 2541 722 2730 984 
Q 2919 1247 2919 1747 
Q 2919 2247 2730 2509 
Q 2541 2772 2181 2772 
Q 1825 2772 1636 2509 
Q 1447 2247 1447 1747 
Q 1447 1247 1636 984 
Q 1825 722 2181 722 
z
" transform="scale(0.015625)"/>
      <path id="DejaVuSans-Bold-20" transform="scale(0.015625)"/>
      <path id="DejaVuSans-Bold-73" d="M 3272 3391 
L 3272 2541 
Q 2913 2691 2578 2766 
Q 2244 2841 1947 2841 
Q 1628 2841 1473 2761 
Q 1319 2681 1319 2516 
Q 1319 2381 1436 2309 
Q 1553 2238 1856 2203 
L 2053 2175 
Q 2913 2066 3209 1816 
Q 3506 1566 3506 1031 
Q 3506 472 3093 190 
Q 2681 -91 1863 -91 
Q 1516 -91 1145 -36 
Q 775 19 384 128 
L 384 978 
Q 719 816 1070 734 
Q 1422 653 1784 653 
Q 2113 653 2278 743 
Q 2444 834 2444 1013 
Q 2444 1163 2330 1236 
Q 2216 1309 1875 1350 
L 1678 1375 
Q 931 1469 631 1722 
Q 331 1975 331 2491 
Q 331 3047 712 3315 
Q 1094 3584 1881 3584 
Q 2191 3584 2531 3537 
Q 2872 3491 3272 3391 
z
" transform="scale(0.015625)"/>
      <path id="DejaVuSans-Bold-75" d="M 500 1363 
L 500 3500 
L 1625 3500 
L 1625 3150 
Q 1625 2866 1622 2436 
Q 1619 2006 1619 1863 
Q 1619 1441 1641 1255 
Q 1663 1069 1716 984 
Q 1784 875 1895 815 
Q 2006 756 2150 756 
Q 2500 756 2700 1025 
Q 2900 1294 2900 1772 
L 2900 3500 
L 4019 3500 
L 4019 0 
L 2900 0 
L 2900 506 
Q 2647 200 2364 54 
Q 2081 -91 1741 -91 
Q 1134 -91 817 281 
Q 500 653 500 1363 
z
" transform="scale(0.015625)"/>
      <path id="DejaVuSans-Bold-74" d="M 1759 4494 
L 1759 3500 
L 2913 3500 
L 2913 2700 
L 1759 2700 
L 1759 1216 
Q 1759 972 1856 886 
Q 1953 800 2241 800 
L 2816 800 
L 2816 0 
L 1856 0 
Q 1194 0 917 276 
Q 641 553 641 1216 
L 641 2700 
L 84 2700 
L 84 3500 
L 641 3500 
L 641 4494 
L 1759 4494 
z
" transform="scale(0.015625)"/>
      <path id="DejaVuSans-Bold-65" d="M 4031 1759 
L 4031 1441 
L 1416 1441 
Q 1456 1047 1700 850 
Q 1944 653 2381 653 
Q 2734 653 3104 758 
Q 3475 863 3866 1075 
L 3866 213 
Q 3469 63 3072 -14 
Q 2675 -91 2278 -91 
Q 1328 -91 801 392 
Q 275 875 275 1747 
Q 275 2603 792 3093 
Q 1309 3584 2216 3584 
Q 3041 3584 3536 3087 
Q 4031 2591 4031 1759 
z
M 2881 2131 
Q 2881 2450 2695 2645 
Q 2509 2841 2209 2841 
Q 1884 2841 1681 2658 
Q 1478 2475 1428 2131 
L 2881 2131 
z
" transform="scale(0.015625)"/>
     </defs>
     <use xlink:href="#DejaVuSans-Bold-62"/>
     <use xlink:href="#DejaVuSans-Bold-72" transform="translate(71.582031 0)"/>
     <use xlink:href="#DejaVuSans-Bold-6f" transform="translate(120.898438 0)"/>
     <use xlink:href="#DejaVuSans-Bold-61" transform="translate(189.599609 0)"/>
     <use xlink:href="#DejaVuSans-Bold-64" transform="translate(257.080078 0)"/>
     <use xlink:href="#DejaVuSans-Bold-20" transform="translate(328.662109 0)"/>
     <use xlink:href="#DejaVuSans-Bold-73" transform="translate(363.476562 0)"/>
     <use xlink:href="#DejaVuSans-Bold-75" transform="translate(422.998047 0)"/>
     <use xlink:href="#DejaVuSans-Bold-73" transform="translate(494.189453 0)"/>
     <use xlink:href="#DejaVuSans-Bold-74" transform="translate(553.710938 0)"/>
     <use xlink:href="#DejaVuSans-Bold-61" transform="translate(601.513672 0)"/>
     <use xlink:href="#DejaVuSans-Bold-69" transform="translate(668.994141 0)"/>
     <use xlink:href="#DejaVuSans-Bold-6e" transform="translate(703.271484 0)"/>
     <use xlink:href="#DejaVuSans-Bold-65" transform="translate(774.462891 0)"/>
     <use xlink:href="#DejaVuSans-Bold-64" transform="translate(842.285156 0)"/>
    </g>
   </g>
  </g>
  <g id="axes_5">
   <g id="patch_5">
    <path d="M 38.613678 336.629675 
L 254.120212 336.629675 
L 254.120212 190.505603 
L 38.613678 190.505603 
L 38.613678 336.629675 
z
" style="fill: none"/>
   </g>
   <g id="matplotlib.axis_5">
    <g id="xtick_11"/>
    <g id="xtick_12"/>
    <g id="xtick_13"/>
    <g id="xtick_14"/>
    <g id="xtick_15"/>
   </g>
   <g id="matplotlib.axis_6">
    <g id="ytick_9">
     <g id="line2d_13">
      <g>
       <use xlink:href="#m1d7ff0c410" x="38.613678" y="310.061662" style="fill: #444444; stroke: #444444; stroke-width: 0.8"/>
      </g>
     </g>
     <g id="text_10">
      <!-- 0.0 -->
      <g style="fill: #444444" transform="translate(15.710553 313.860881) scale(0.1 -0.1)">
       <use xlink:href="#DejaVuSans-30"/>
       <use xlink:href="#DejaVuSans-2e" transform="translate(63.623047 0)"/>
       <use xlink:href="#DejaVuSans-30" transform="translate(95.410156 0)"/>
      </g>
     </g>
    </g>
    <g id="ytick_10">
     <g id="line2d_14">
      <g>
       <use xlink:href="#m1d7ff0c410" x="38.613678" y="276.851646" style="fill: #444444; stroke: #444444; stroke-width: 0.8"/>
      </g>
     </g>
     <g id="text_11">
      <!-- 0.5 -->
      <g style="fill: #444444" transform="translate(15.710553 280.650864) scale(0.1 -0.1)">
       <defs>
        <path id="DejaVuSans-35" d="M 691 4666 
L 3169 4666 
L 3169 4134 
L 1269 4134 
L 1269 2991 
Q 1406 3038 1543 3061 
Q 1681 3084 1819 3084 
Q 2600 3084 3056 2656 
Q 3513 2228 3513 1497 
Q 3513 744 3044 326 
Q 2575 -91 1722 -91 
Q 1428 -91 1123 -41 
Q 819 9 494 109 
L 494 744 
Q 775 591 1075 516 
Q 1375 441 1709 441 
Q 2250 441 2565 725 
Q 2881 1009 2881 1497 
Q 2881 1984 2565 2268 
Q 2250 2553 1709 2553 
Q 1456 2553 1204 2497 
Q 953 2441 691 2322 
L 691 4666 
z
" transform="scale(0.015625)"/>
       </defs>
       <use xlink:href="#DejaVuSans-30"/>
       <use xlink:href="#DejaVuSans-2e" transform="translate(63.623047 0)"/>
       <use xlink:href="#DejaVuSans-35" transform="translate(95.410156 0)"/>
      </g>
     </g>
    </g>
    <g id="ytick_11">
     <g id="line2d_15">
      <g>
       <use xlink:href="#m1d7ff0c410" x="38.613678" y="243.641629" style="fill: #444444; stroke: #444444; stroke-width: 0.8"/>
      </g>
     </g>
     <g id="text_12">
      <!-- 1.0 -->
      <g style="fill: #444444" transform="translate(15.710553 247.440848) scale(0.1 -0.1)">
       <use xlink:href="#DejaVuSans-31"/>
       <use xlink:href="#DejaVuSans-2e" transform="translate(63.623047 0)"/>
       <use xlink:href="#DejaVuSans-30" transform="translate(95.410156 0)"/>
      </g>
     </g>
    </g>
    <g id="ytick_12">
     <g id="line2d_16">
      <g>
       <use xlink:href="#m1d7ff0c410" x="38.613678" y="210.431613" style="fill: #444444; stroke: #444444; stroke-width: 0.8"/>
      </g>
     </g>
     <g id="text_13">
      <!-- 1.5 -->
      <g style="fill: #444444" transform="translate(15.710553 214.230832) scale(0.1 -0.1)">
       <use xlink:href="#DejaVuSans-31"/>
       <use xlink:href="#DejaVuSans-2e" transform="translate(63.623047 0)"/>
       <use xlink:href="#DejaVuSans-35" transform="translate(95.410156 0)"/>
      </g>
     </g>
    </g>
    <g id="text_14">
     <!-- z-score -->
     <g style="fill: #444444" transform="translate(9.838834 279.642483) rotate(-90) scale(0.09 -0.09)">
      <use xlink:href="#DejaVuSans-7a"/>
      <use xlink:href="#DejaVuSans-2d" transform="translate(52.490234 0)"/>
      <use xlink:href="#DejaVuSans-73" transform="translate(88.574219 0)"/>
      <use xlink:href="#DejaVuSans-63" transform="translate(140.673828 0)"/>
      <use xlink:href="#DejaVuSans-6f" transform="translate(195.654297 0)"/>
      <use xlink:href="#DejaVuSans-72" transform="translate(256.835938 0)"/>
      <use xlink:href="#DejaVuSans-65" transform="translate(295.699219 0)"/>
     </g>
    </g>
   </g>
   <g id="line2d_17">
    <path d="M 38.613677 307.784876 
L 44.221654 306.871595 
L 49.028491 305.858816 
L 53.835329 304.592439 
L 57.841026 303.314078 
L 61.846724 301.807983 
L 65.852422 300.051905 
L 69.858119 298.02583 
L 73.863817 295.713202 
L 77.869515 293.102237 
L 81.875212 290.187284 
L 85.88091 286.970137 
L 89.886608 283.461253 
L 93.892305 279.680763 
L 98.699142 274.829398 
L 104.307119 268.830341 
L 123.534468 247.838904 
L 127.540166 243.933688 
L 130.744724 241.061015 
L 133.949282 238.457521 
L 137.15384 236.16239 
L 139.557259 234.664871 
L 141.960677 233.374063 
L 144.364096 232.301526 
L 146.767514 231.456971 
L 149.170933 230.848108 
L 151.574352 230.480528 
L 153.97777 230.357623 
L 156.381189 230.480528 
L 158.784607 230.848108 
L 161.188026 231.456971 
L 163.591445 232.301526 
L 165.994863 233.374063 
L 168.398282 234.664871 
L 170.8017 236.16239 
L 174.006259 238.457521 
L 177.210817 241.061015 
L 180.415375 243.933688 
L 184.421073 247.838904 
L 189.22791 252.872828 
L 196.438165 260.823582 
L 206.852979 272.295758 
L 212.460956 278.098995 
L 217.267793 282.72606 
L 221.273491 286.2912 
L 225.279189 289.567827 
L 229.284886 292.543624 
L 233.290584 295.215154 
L 237.296282 297.586683 
L 241.301979 299.668877 
L 245.307677 301.477446 
L 249.313375 303.031813 
L 253.319072 304.353872 
L 254.120212 304.592439 
L 254.120212 304.592439 
" clip-path="url(#p9e7a7f8f22)" style="fill: none; stroke: #3a3a3a; stroke-opacity: 0.95; stroke-width: 1.5; stroke-linecap: square"/>
   </g>
   <g id="line2d_18">
    <path d="M 153.97777 310.061662 
L 153.97777 230.357623 
" clip-path="url(#p9e7a7f8f22)" style="fill: none; stroke-dasharray: 1,1.65; stroke-dashoffset: 0; stroke: #c0392b; stroke-opacity: 0.75"/>
   </g>
   <g id="line2d_19">
    <path d="M 86.682049 336.629675 
L 86.682049 190.505603 
" clip-path="url(#p9e7a7f8f22)" style="fill: none; stroke-dasharray: 2.59,1.12; stroke-dashoffset: 0; stroke: #666666; stroke-opacity: 0.6; stroke-width: 0.7"/>
   </g>
   <g id="line2d_20">
    <path d="M 38.613678 310.061662 
L 254.120212 310.061662 
" clip-path="url(#p9e7a7f8f22)" style="fill: none; stroke: #888888; stroke-opacity: 0.4; stroke-width: 0.5; stroke-linecap: square"/>
   </g>
   <g id="patch_6">
    <path d="M 38.613678 336.629675 
L 38.613678 190.505603 
" style="fill: none; stroke: #444444; stroke-width: 0.8; stroke-linejoin: miter; stroke-linecap: square"/>
   </g>
   <g id="text_15">
    <!-- peak = 1.2 -->
    <g style="fill: #c0392b" transform="translate(192.595641 208.332726) scale(0.1 -0.1)">
     <use xlink:href="#DejaVuSans-70"/>
     <use xlink:href="#DejaVuSans-65" transform="translate(63.476562 0)"/>
     <use xlink:href="#DejaVuSans-61" transform="translate(125 0)"/>
     <use xlink:href="#DejaVuSans-6b" transform="translate(186.279297 0)"/>
     <use xlink:href="#DejaVuSans-20" transform="translate(244.189453 0)"/>
     <use xlink:href="#DejaVuSans-3d" transform="translate(275.976562 0)"/>
     <use xlink:href="#DejaVuSans-20" transform="translate(359.765625 0)"/>
     <use xlink:href="#DejaVuSans-31" transform="translate(391.552734 0)"/>
     <use xlink:href="#DejaVuSans-2e" transform="translate(455.175781 0)"/>
     <use xlink:href="#DejaVuSans-32" transform="translate(486.962891 0)"/>
    </g>
   </g>
   <g id="line2d_21">
    <g clip-path="url(#p9e7a7f8f22)">
     <use xlink:href="#mff9023796f" x="153.97777" y="230.357623" style="fill: #c0392b; stroke: #c0392b"/>
    </g>
   </g>
  </g>
  <g id="axes_6">
   <g id="patch_7">
    <path d="M 285.493226 336.629675 
L 500.99976 336.629675 
L 500.99976 190.505603 
L 285.493226 190.505603 
L 285.493226 336.629675 
z
" style="fill: none"/>
   </g>
   <g id="FillBetweenPolyCollection_2">
    <defs>
     <path id="m273da096e3" d="M 333.561598 -253.7088 
L 333.561598 -229.938338 
L 334.362737 -229.938338 
L 335.163877 -229.938338 
L 335.965016 -229.938338 
L 336.766156 -229.938338 
L 337.567295 -229.938338 
L 338.368435 -229.938338 
L 339.169574 -229.938338 
L 339.970714 -229.938338 
L 340.771853 -229.938338 
L 341.572993 -229.938338 
L 342.374132 -229.938338 
L 343.175272 -229.938338 
L 343.976412 -229.938338 
L 344.777551 -229.938338 
L 345.578691 -229.938338 
L 346.37983 -229.938338 
L 347.18097 -229.938338 
L 347.982109 -229.938338 
L 348.783249 -229.938338 
L 349.584388 -229.938338 
L 350.385528 -229.938338 
L 351.186667 -229.938338 
L 351.987807 -229.938338 
L 352.788946 -229.938338 
L 353.590086 -229.938338 
L 354.391225 -229.938338 
L 355.192365 -229.938338 
L 355.993505 -229.938338 
L 356.794644 -229.938338 
L 357.595784 -229.938338 
L 358.396923 -229.938338 
L 359.198063 -229.938338 
L 359.999202 -229.938338 
L 360.800342 -229.938338 
L 361.601481 -229.938338 
L 362.402621 -229.938338 
L 363.20376 -229.938338 
L 364.0049 -229.938338 
L 364.806039 -229.938338 
L 365.607179 -229.938338 
L 366.408318 -229.938338 
L 367.209458 -229.938338 
L 368.010598 -229.938338 
L 368.811737 -229.938338 
L 369.612877 -229.938338 
L 370.414016 -229.938338 
L 371.215156 -229.938338 
L 372.016295 -229.938338 
L 372.817435 -229.938338 
L 373.618574 -229.938338 
L 374.419714 -229.938338 
L 375.220853 -229.938338 
L 376.021993 -229.938338 
L 376.823132 -229.938338 
L 377.624272 -229.938338 
L 378.425411 -229.938338 
L 379.226551 -229.938338 
L 380.027691 -229.938338 
L 380.82883 -229.938338 
L 381.62997 -229.938338 
L 382.431109 -229.938338 
L 383.232249 -229.938338 
L 384.033388 -229.938338 
L 384.834528 -229.938338 
L 385.635667 -229.938338 
L 386.436807 -229.938338 
L 387.237946 -229.938338 
L 388.039086 -229.938338 
L 388.840225 -229.938338 
L 389.641365 -229.938338 
L 390.442504 -229.938338 
L 391.243644 -229.938338 
L 392.044784 -229.938338 
L 392.845923 -229.938338 
L 393.647063 -229.938338 
L 394.448202 -229.938338 
L 395.249342 -229.938338 
L 396.050481 -229.938338 
L 396.851621 -229.938338 
L 397.65276 -229.938338 
L 398.4539 -229.938338 
L 399.255039 -229.938338 
L 400.056179 -229.938338 
L 400.857318 -229.938338 
L 401.658458 -229.938338 
L 402.459597 -229.938338 
L 403.260737 -229.938338 
L 404.061877 -229.938338 
L 404.863016 -229.938338 
L 405.664156 -229.938338 
L 406.465295 -229.938338 
L 407.266435 -229.938338 
L 408.067574 -229.938338 
L 408.868714 -229.938338 
L 409.669853 -229.938338 
L 410.470993 -229.938338 
L 411.272132 -229.938338 
L 412.073272 -229.938338 
L 412.874411 -229.938338 
L 413.675551 -229.938338 
L 414.47669 -229.938338 
L 415.27783 -229.938338 
L 416.07897 -229.938338 
L 416.880109 -229.938338 
L 417.681249 -229.938338 
L 418.482388 -229.938338 
L 419.283528 -229.938338 
L 420.084667 -229.938338 
L 420.885807 -229.938338 
L 421.686946 -229.938338 
L 422.488086 -229.938338 
L 423.289225 -229.938338 
L 424.090365 -229.938338 
L 424.891504 -229.938338 
L 425.692644 -229.938338 
L 426.493783 -229.938338 
L 427.294923 -229.938338 
L 428.096062 -229.938338 
L 428.897202 -229.938338 
L 429.698342 -229.938338 
L 430.499481 -229.938338 
L 431.300621 -229.938338 
L 432.10176 -229.938338 
L 432.9029 -229.938338 
L 433.704039 -229.938338 
L 434.505179 -229.938338 
L 435.306318 -229.938338 
L 436.107458 -229.938338 
L 436.908597 -229.938338 
L 437.709737 -229.938338 
L 438.510876 -229.938338 
L 439.312016 -229.938338 
L 440.113155 -229.938338 
L 440.914295 -229.938338 
L 441.715435 -229.938338 
L 442.516574 -229.938338 
L 443.317714 -229.938338 
L 444.118853 -229.938338 
L 444.919993 -229.938338 
L 445.721132 -229.938338 
L 446.522272 -229.938338 
L 447.323411 -229.938338 
L 448.124551 -229.938338 
L 448.92569 -229.938338 
L 449.72683 -229.938338 
L 450.527969 -229.938338 
L 451.329109 -229.938338 
L 452.130248 -229.938338 
L 452.931388 -229.938338 
L 453.732528 -229.938338 
L 454.533667 -229.938338 
L 455.334807 -229.938338 
L 456.135946 -229.938338 
L 456.937086 -229.938338 
L 457.738225 -229.938338 
L 458.539365 -229.938338 
L 459.340504 -229.938338 
L 460.141644 -229.938338 
L 460.942783 -229.938338 
L 461.743923 -229.938338 
L 462.545062 -229.938338 
L 463.346202 -229.938338 
L 464.147341 -229.938338 
L 464.948481 -229.938338 
L 465.749621 -229.938338 
L 466.55076 -229.938338 
L 467.3519 -229.938338 
L 468.153039 -229.938338 
L 468.954179 -229.938338 
L 469.755318 -229.938338 
L 470.556458 -229.938338 
L 471.357597 -229.938338 
L 472.158737 -229.938338 
L 472.959876 -229.938338 
L 473.761016 -229.938338 
L 474.562155 -229.938338 
L 475.363295 -229.938338 
L 476.164434 -229.938338 
L 476.965574 -229.938338 
L 477.766714 -229.938338 
L 478.567853 -229.938338 
L 479.368993 -229.938338 
L 480.170132 -229.938338 
L 480.971272 -229.938338 
L 481.772411 -229.938338 
L 482.573551 -229.938338 
L 483.37469 -229.938338 
L 484.17583 -229.938338 
L 484.976969 -229.938338 
L 485.778109 -229.938338 
L 486.579248 -229.938338 
L 487.380388 -229.938338 
L 488.181527 -229.938338 
L 488.982667 -229.938338 
L 489.783807 -229.938338 
L 490.584946 -229.938338 
L 491.386086 -229.938338 
L 492.187225 -229.938338 
L 492.988365 -229.938338 
L 493.789504 -229.938338 
L 494.590644 -229.938338 
L 495.391783 -229.938338 
L 496.192923 -229.938338 
L 496.994062 -229.938338 
L 497.795202 -229.938338 
L 498.596341 -229.938338 
L 499.397481 -229.938338 
L 500.19862 -229.938338 
L 500.99976 -229.938338 
L 500.99976 -235.407561 
L 500.99976 -235.407561 
L 500.19862 -235.646128 
L 499.397481 -235.89306 
L 498.596341 -236.148544 
L 497.795202 -236.412769 
L 496.994062 -236.685922 
L 496.192923 -236.968187 
L 495.391783 -237.259749 
L 494.590644 -237.56079 
L 493.789504 -237.871487 
L 492.988365 -238.192017 
L 492.187225 -238.522554 
L 491.386086 -238.863267 
L 490.584946 -239.214322 
L 489.783807 -239.575879 
L 488.982667 -239.948095 
L 488.181527 -240.331123 
L 487.380388 -240.725107 
L 486.579248 -241.130188 
L 485.778109 -241.5465 
L 484.976969 -241.97417 
L 484.17583 -242.413317 
L 483.37469 -242.864053 
L 482.573551 -243.326484 
L 481.772411 -243.800703 
L 480.971272 -244.286798 
L 480.170132 -244.784846 
L 479.368993 -245.294915 
L 478.567853 -245.817062 
L 477.766714 -246.351332 
L 476.965574 -246.897763 
L 476.164434 -247.456376 
L 475.363295 -248.027185 
L 474.562155 -248.610189 
L 473.761016 -249.205375 
L 472.959876 -249.812716 
L 472.158737 -250.432173 
L 471.357597 -251.063691 
L 470.556458 -251.707204 
L 469.755318 -252.362627 
L 468.954179 -253.029863 
L 468.153039 -253.7088 
L 467.3519 -254.399309 
L 466.55076 -255.101246 
L 465.749621 -255.814451 
L 464.948481 -256.538747 
L 464.147341 -257.27394 
L 463.346202 -258.019821 
L 462.545062 -258.776163 
L 461.743923 -259.542722 
L 460.942783 -260.319237 
L 460.141644 -261.10543 
L 459.340504 -261.901005 
L 458.539365 -262.705648 
L 457.738225 -263.51903 
L 456.937086 -264.340803 
L 456.135946 -265.170602 
L 455.334807 -266.008043 
L 454.533667 -266.852729 
L 453.732528 -267.704242 
L 452.931388 -268.562149 
L 452.130248 -269.426001 
L 451.329109 -270.295332 
L 450.527969 -271.169659 
L 449.72683 -272.048484 
L 448.92569 -272.931295 
L 448.124551 -273.817563 
L 447.323411 -274.706746 
L 446.522272 -275.598286 
L 445.721132 -276.491613 
L 444.919993 -277.386144 
L 444.118853 -278.281282 
L 443.317714 -279.176418 
L 442.516574 -280.070935 
L 441.715435 -280.9642 
L 440.914295 -281.855575 
L 440.113155 -282.744409 
L 439.312016 -283.630044 
L 438.510876 -284.511814 
L 437.709737 -285.389046 
L 436.908597 -286.26106 
L 436.107458 -287.127172 
L 435.306318 -287.986693 
L 434.505179 -288.838929 
L 433.704039 -289.683186 
L 432.9029 -290.518764 
L 432.10176 -291.344967 
L 431.300621 -292.161096 
L 430.499481 -292.966453 
L 429.698342 -293.760343 
L 428.897202 -294.542075 
L 428.096062 -295.310959 
L 427.294923 -296.066312 
L 426.493783 -296.807458 
L 425.692644 -297.533725 
L 424.891504 -298.244452 
L 424.090365 -298.938985 
L 423.289225 -299.61668 
L 422.488086 -300.276906 
L 421.686946 -300.919041 
L 420.885807 -301.542479 
L 420.084667 -302.146626 
L 419.283528 -302.730903 
L 418.482388 -303.294746 
L 417.681249 -303.83761 
L 416.880109 -304.358966 
L 416.07897 -304.858302 
L 415.27783 -305.335129 
L 414.47669 -305.788973 
L 413.675551 -306.219386 
L 412.874411 -306.625937 
L 412.073272 -307.008221 
L 411.272132 -307.365853 
L 410.470993 -307.698474 
L 409.669853 -308.005747 
L 408.868714 -308.28736 
L 408.067574 -308.543029 
L 407.266435 -308.772492 
L 406.465295 -308.975516 
L 405.664156 -309.151892 
L 404.863016 -309.301442 
L 404.061877 -309.42401 
L 403.260737 -309.519472 
L 402.459597 -309.587729 
L 401.658458 -309.628712 
L 400.857318 -309.642377 
L 400.056179 -309.628712 
L 399.255039 -309.587729 
L 398.4539 -309.519472 
L 397.65276 -309.42401 
L 396.851621 -309.301442 
L 396.050481 -309.151892 
L 395.249342 -308.975516 
L 394.448202 -308.772492 
L 393.647063 -308.543029 
L 392.845923 -308.28736 
L 392.044784 -308.005747 
L 391.243644 -307.698474 
L 390.442504 -307.365853 
L 389.641365 -307.008221 
L 388.840225 -306.625937 
L 388.039086 -306.219386 
L 387.237946 -305.788973 
L 386.436807 -305.335129 
L 385.635667 -304.858302 
L 384.834528 -304.358966 
L 384.033388 -303.83761 
L 383.232249 -303.294746 
L 382.431109 -302.730903 
L 381.62997 -302.146626 
L 380.82883 -301.542479 
L 380.027691 -300.919041 
L 379.226551 -300.276906 
L 378.425411 -299.61668 
L 377.624272 -298.938985 
L 376.823132 -298.244452 
L 376.021993 -297.533725 
L 375.220853 -296.807458 
L 374.419714 -296.066312 
L 373.618574 -295.310959 
L 372.817435 -294.542075 
L 372.016295 -293.760343 
L 371.215156 -292.966453 
L 370.414016 -292.161096 
L 369.612877 -291.344967 
L 368.811737 -290.518764 
L 368.010598 -289.683186 
L 367.209458 -288.838929 
L 366.408318 -287.986693 
L 365.607179 -287.127172 
L 364.806039 -286.26106 
L 364.0049 -285.389046 
L 363.20376 -284.511814 
L 362.402621 -283.630044 
L 361.601481 -282.744409 
L 360.800342 -281.855575 
L 359.999202 -280.9642 
L 359.198063 -280.070935 
L 358.396923 -279.176418 
L 357.595784 -278.281282 
L 356.794644 -277.386144 
L 355.993505 -276.491613 
L 355.192365 -275.598286 
L 354.391225 -274.706746 
L 353.590086 -273.817563 
L 352.788946 -272.931295 
L 351.987807 -272.048484 
L 351.186667 -271.169659 
L 350.385528 -270.295332 
L 349.584388 -269.426001 
L 348.783249 -268.562149 
L 347.982109 -267.704242 
L 347.18097 -266.852729 
L 346.37983 -266.008043 
L 345.578691 -265.170602 
L 344.777551 -264.340803 
L 343.976412 -263.51903 
L 343.175272 -262.705648 
L 342.374132 -261.901005 
L 341.572993 -261.10543 
L 340.771853 -260.319237 
L 339.970714 -259.542722 
L 339.169574 -258.776163 
L 338.368435 -258.019821 
L 337.567295 -257.27394 
L 336.766156 -256.538747 
L 335.965016 -255.814451 
L 335.163877 -255.101246 
L 334.362737 -254.399309 
L 333.561598 -253.7088 
z
"/>
    </defs>
    <g clip-path="url(#p6a5bd1c38f)">
     <use xlink:href="#m273da096e3" x="0" y="540" style="fill: #2ca02c; fill-opacity: 0.32"/>
    </g>
   </g>
   <g id="matplotlib.axis_7">
    <g id="xtick_16"/>
    <g id="xtick_17"/>
    <g id="xtick_18"/>
    <g id="xtick_19"/>
    <g id="xtick_20"/>
   </g>
   <g id="matplotlib.axis_8">
    <g id="ytick_13"/>
    <g id="ytick_14"/>
    <g id="ytick_15"/>
    <g id="ytick_16"/>
   </g>
   <g id="line2d_22">
    <path d="M 285.493226 307.784876 
L 291.101202 306.871595 
L 295.90804 305.858816 
L 300.714877 304.592439 
L 304.720574 303.314078 
L 308.726272 301.807983 
L 312.73197 300.051905 
L 316.737667 298.02583 
L 320.743365 295.713202 
L 324.749063 293.102237 
L 328.75476 290.187284 
L 332.760458 286.970137 
L 336.766156 283.461253 
L 340.771853 279.680763 
L 345.578691 274.829398 
L 351.186667 268.830341 
L 370.414016 247.838904 
L 374.419714 243.933688 
L 377.624272 241.061015 
L 380.82883 238.457521 
L 384.033388 236.16239 
L 386.436807 234.664871 
L 388.840225 233.374063 
L 391.243644 232.301526 
L 393.647063 231.456971 
L 396.050481 230.848108 
L 398.4539 230.480528 
L 400.857318 230.357623 
L 403.260737 230.480528 
L 405.664156 230.848108 
L 408.067574 231.456971 
L 410.470993 232.301526 
L 412.874411 233.374063 
L 415.27783 234.664871 
L 417.681249 236.16239 
L 420.885807 238.457521 
L 424.090365 241.061015 
L 427.294923 243.933688 
L 431.300621 247.838904 
L 436.107458 252.872828 
L 443.317714 260.823582 
L 453.732528 272.295758 
L 459.340504 278.098995 
L 464.147341 282.72606 
L 468.153039 286.2912 
L 472.158737 289.567827 
L 476.164434 292.543624 
L 480.170132 295.215154 
L 484.17583 297.586683 
L 488.181527 299.668877 
L 492.187225 301.477446 
L 496.192923 303.031813 
L 500.19862 304.353872 
L 500.99976 304.592439 
L 500.99976 304.592439 
" clip-path="url(#p6a5bd1c38f)" style="fill: none; stroke: #3a3a3a; stroke-opacity: 0.95; stroke-width: 1.5; stroke-linecap: square"/>
   </g>
   <g id="line2d_23">
    <path d="M 333.561598 336.629675 
L 333.561598 190.505603 
" clip-path="url(#p6a5bd1c38f)" style="fill: none; stroke-dasharray: 2.59,1.12; stroke-dashoffset: 0; stroke: #666666; stroke-opacity: 0.6; stroke-width: 0.7"/>
   </g>
   <g id="line2d_24">
    <path d="M 285.493226 310.061662 
L 500.99976 310.061662 
" clip-path="url(#p6a5bd1c38f)" style="fill: none; stroke: #888888; stroke-opacity: 0.4; stroke-width: 0.5; stroke-linecap: square"/>
   </g>
   <g id="text_16">
    <!-- AUC = 5.0 -->
    <g style="fill: #2ca02c" transform="translate(442.753314 208.332726) scale(0.1 -0.1)">
     <use xlink:href="#DejaVuSans-41"/>
     <use xlink:href="#DejaVuSans-55" transform="translate(68.408203 0)"/>
     <use xlink:href="#DejaVuSans-43" transform="translate(141.601562 0)"/>
     <use xlink:href="#DejaVuSans-20" transform="translate(211.425781 0)"/>
     <use xlink:href="#DejaVuSans-3d" transform="translate(243.212891 0)"/>
     <use xlink:href="#DejaVuSans-20" transform="translate(327.001953 0)"/>
     <use xlink:href="#DejaVuSans-35" transform="translate(358.789062 0)"/>
     <use xlink:href="#DejaVuSans-2e" transform="translate(422.412109 0)"/>
     <use xlink:href="#DejaVuSans-30" transform="translate(454.199219 0)"/>
    </g>
   </g>
  </g>
  <g id="axes_7">
   <g id="text_17">
    <!-- real + artifact -->
    <g style="fill: #222222" transform="translate(226.397109 351.51043) scale(0.11 -0.11)">
     <defs>
      <path id="DejaVuSans-Bold-2b" d="M 3053 4013 
L 3053 2375 
L 4684 2375 
L 4684 1638 
L 3053 1638 
L 3053 0 
L 2309 0 
L 2309 1638 
L 678 1638 
L 678 2375 
L 2309 2375 
L 2309 4013 
L 3053 4013 
z
" transform="scale(0.015625)"/>
      <path id="DejaVuSans-Bold-66" d="M 2841 4863 
L 2841 4128 
L 2222 4128 
Q 1984 4128 1890 4042 
Q 1797 3956 1797 3744 
L 1797 3500 
L 2753 3500 
L 2753 2700 
L 1797 2700 
L 1797 0 
L 678 0 
L 678 2700 
L 122 2700 
L 122 3500 
L 678 3500 
L 678 3744 
Q 678 4316 997 4589 
Q 1316 4863 1984 4863 
L 2841 4863 
z
" transform="scale(0.015625)"/>
     </defs>
     <use xlink:href="#DejaVuSans-Bold-72"/>
     <use xlink:href="#DejaVuSans-Bold-65" transform="translate(49.316406 0)"/>
     <use xlink:href="#DejaVuSans-Bold-61" transform="translate(117.138672 0)"/>
     <use xlink:href="#DejaVuSans-Bold-6c" transform="translate(184.619141 0)"/>
     <use xlink:href="#DejaVuSans-Bold-20" transform="translate(218.896484 0)"/>
     <use xlink:href="#DejaVuSans-Bold-2b" transform="translate(253.710938 0)"/>
     <use xlink:href="#DejaVuSans-Bold-20" transform="translate(337.5 0)"/>
     <use xlink:href="#DejaVuSans-Bold-61" transform="translate(372.314453 0)"/>
     <use xlink:href="#DejaVuSans-Bold-72" transform="translate(439.794922 0)"/>
     <use xlink:href="#DejaVuSans-Bold-74" transform="translate(489.111328 0)"/>
     <use xlink:href="#DejaVuSans-Bold-69" transform="translate(536.914062 0)"/>
     <use xlink:href="#DejaVuSans-Bold-66" transform="translate(571.191406 0)"/>
     <use xlink:href="#DejaVuSans-Bold-61" transform="translate(614.697266 0)"/>
     <use xlink:href="#DejaVuSans-Bold-63" transform="translate(682.177734 0)"/>
     <use xlink:href="#DejaVuSans-Bold-74" transform="translate(741.455078 0)"/>
    </g>
   </g>
  </g>
  <g id="axes_8">
   <g id="patch_8">
    <path d="M 38.613678 507.611323 
L 254.120212 507.611323 
L 254.120212 361.487251 
L 38.613678 361.487251 
L 38.613678 507.611323 
z
" style="fill: none"/>
   </g>
   <g id="matplotlib.axis_9">
    <g id="xtick_21">
     <g id="line2d_25">
      <defs>
       <path id="m6ce17f65ab" d="M 0 0 
L 0 3.5 
" style="stroke: #444444; stroke-width: 0.8"/>
      </defs>
      <g>
       <use xlink:href="#m6ce17f65ab" x="38.613677" y="507.611323" style="fill: #444444; stroke: #444444; stroke-width: 0.8"/>
      </g>
     </g>
     <g id="text_18">
      <!-- −2 -->
      <g style="fill: #444444" transform="translate(31.242584 522.20976) scale(0.1 -0.1)">
       <defs>
        <path id="DejaVuSans-2212" d="M 678 2272 
L 4684 2272 
L 4684 1741 
L 678 1741 
L 678 2272 
z
" transform="scale(0.015625)"/>
       </defs>
       <use xlink:href="#DejaVuSans-2212"/>
       <use xlink:href="#DejaVuSans-32" transform="translate(83.789062 0)"/>
      </g>
     </g>
    </g>
    <g id="xtick_22">
     <g id="line2d_26">
      <g>
       <use xlink:href="#m6ce17f65ab" x="86.682049" y="507.611323" style="fill: #444444; stroke: #444444; stroke-width: 0.8"/>
      </g>
     </g>
     <g id="text_19">
      <!-- 0 -->
      <g style="fill: #444444" transform="translate(83.500799 522.20976) scale(0.1 -0.1)">
       <use xlink:href="#DejaVuSans-30"/>
      </g>
     </g>
    </g>
    <g id="xtick_23">
     <g id="line2d_27">
      <g>
       <use xlink:href="#m6ce17f65ab" x="134.750421" y="507.611323" style="fill: #444444; stroke: #444444; stroke-width: 0.8"/>
      </g>
     </g>
     <g id="text_20">
      <!-- 2 -->
      <g style="fill: #444444" transform="translate(131.569171 522.20976) scale(0.1 -0.1)">
       <use xlink:href="#DejaVuSans-32"/>
      </g>
     </g>
    </g>
    <g id="xtick_24">
     <g id="line2d_28">
      <g>
       <use xlink:href="#m6ce17f65ab" x="182.818793" y="507.611323" style="fill: #444444; stroke: #444444; stroke-width: 0.8"/>
      </g>
     </g>
     <g id="text_21">
      <!-- 4 -->
      <g style="fill: #444444" transform="translate(179.637543 522.20976) scale(0.1 -0.1)">
       <use xlink:href="#DejaVuSans-34"/>
      </g>
     </g>
    </g>
    <g id="xtick_25">
     <g id="line2d_29">
      <g>
       <use xlink:href="#m6ce17f65ab" x="230.887165" y="507.611323" style="fill: #444444; stroke: #444444; stroke-width: 0.8"/>
      </g>
     </g>
     <g id="text_22">
      <!-- 6 -->
      <g style="fill: #444444" transform="translate(227.705915 522.20976) scale(0.1 -0.1)">
       <defs>
        <path id="DejaVuSans-36" d="M 2113 2584 
Q 1688 2584 1439 2293 
Q 1191 2003 1191 1497 
Q 1191 994 1439 701 
Q 1688 409 2113 409 
Q 2538 409 2786 701 
Q 3034 994 3034 1497 
Q 3034 2003 2786 2293 
Q 2538 2584 2113 2584 
z
M 3366 4563 
L 3366 3988 
Q 3128 4100 2886 4159 
Q 2644 4219 2406 4219 
Q 1781 4219 1451 3797 
Q 1122 3375 1075 2522 
Q 1259 2794 1537 2939 
Q 1816 3084 2150 3084 
Q 2853 3084 3261 2657 
Q 3669 2231 3669 1497 
Q 3669 778 3244 343 
Q 2819 -91 2113 -91 
Q 1303 -91 875 529 
Q 447 1150 447 2328 
Q 447 3434 972 4092 
Q 1497 4750 2381 4750 
Q 2619 4750 2861 4703 
Q 3103 4656 3366 4563 
z
" transform="scale(0.015625)"/>
       </defs>
       <use xlink:href="#DejaVuSans-36"/>
      </g>
     </g>
    </g>
    <g id="text_23">
     <!-- time from event (s) -->
     <g style="fill: #444444" transform="translate(102.76757 535.128041) scale(0.09 -0.09)">
      <defs>
       <path id="DejaVuSans-74" d="M 1172 4494 
L 1172 3500 
L 2356 3500 
L 2356 3053 
L 1172 3053 
L 1172 1153 
Q 1172 725 1289 603 
Q 1406 481 1766 481 
L 2356 481 
L 2356 0 
L 1766 0 
Q 1100 0 847 248 
Q 594 497 594 1153 
L 594 3053 
L 172 3053 
L 172 3500 
L 594 3500 
L 594 4494 
L 1172 4494 
z
" transform="scale(0.015625)"/>
       <path id="DejaVuSans-69" d="M 603 3500 
L 1178 3500 
L 1178 0 
L 603 0 
L 603 3500 
z
M 603 4863 
L 1178 4863 
L 1178 4134 
L 603 4134 
L 603 4863 
z
" transform="scale(0.015625)"/>
       <path id="DejaVuSans-6d" d="M 3328 2828 
Q 3544 3216 3844 3400 
Q 4144 3584 4550 3584 
Q 5097 3584 5394 3201 
Q 5691 2819 5691 2113 
L 5691 0 
L 5113 0 
L 5113 2094 
Q 5113 2597 4934 2840 
Q 4756 3084 4391 3084 
Q 3944 3084 3684 2787 
Q 3425 2491 3425 1978 
L 3425 0 
L 2847 0 
L 2847 2094 
Q 2847 2600 2669 2842 
Q 2491 3084 2119 3084 
Q 1678 3084 1418 2786 
Q 1159 2488 1159 1978 
L 1159 0 
L 581 0 
L 581 3500 
L 1159 3500 
L 1159 2956 
Q 1356 3278 1631 3431 
Q 1906 3584 2284 3584 
Q 2666 3584 2933 3390 
Q 3200 3197 3328 2828 
z
" transform="scale(0.015625)"/>
       <path id="DejaVuSans-66" d="M 2375 4863 
L 2375 4384 
L 1825 4384 
Q 1516 4384 1395 4259 
Q 1275 4134 1275 3809 
L 1275 3500 
L 2222 3500 
L 2222 3053 
L 1275 3053 
L 1275 0 
L 697 0 
L 697 3053 
L 147 3053 
L 147 3500 
L 697 3500 
L 697 3744 
Q 697 4328 969 4595 
Q 1241 4863 1831 4863 
L 2375 4863 
z
" transform="scale(0.015625)"/>
       <path id="DejaVuSans-76" d="M 191 3500 
L 800 3500 
L 1894 563 
L 2988 3500 
L 3597 3500 
L 2284 0 
L 1503 0 
L 191 3500 
z
" transform="scale(0.015625)"/>
       <path id="DejaVuSans-6e" d="M 3513 2113 
L 3513 0 
L 2938 0 
L 2938 2094 
Q 2938 2591 2744 2837 
Q 2550 3084 2163 3084 
Q 1697 3084 1428 2787 
Q 1159 2491 1159 1978 
L 1159 0 
L 581 0 
L 581 3500 
L 1159 3500 
L 1159 2956 
Q 1366 3272 1645 3428 
Q 1925 3584 2291 3584 
Q 2894 3584 3203 3211 
Q 3513 2838 3513 2113 
z
" transform="scale(0.015625)"/>
       <path id="DejaVuSans-28" d="M 1984 4856 
Q 1566 4138 1362 3434 
Q 1159 2731 1159 2009 
Q 1159 1288 1364 580 
Q 1569 -128 1984 -844 
L 1484 -844 
Q 1016 -109 783 600 
Q 550 1309 550 2009 
Q 550 2706 781 3412 
Q 1013 4119 1484 4856 
L 1984 4856 
z
" transform="scale(0.015625)"/>
       <path id="DejaVuSans-29" d="M 513 4856 
L 1013 4856 
Q 1481 4119 1714 3412 
Q 1947 2706 1947 2009 
Q 1947 1309 1714 600 
Q 1481 -109 1013 -844 
L 513 -844 
Q 928 -128 1133 580 
Q 1338 1288 1338 2009 
Q 1338 2731 1133 3434 
Q 928 4138 513 4856 
z
" transform="scale(0.015625)"/>
      </defs>
      <use xlink:href="#DejaVuSans-74"/>
      <use xlink:href="#DejaVuSans-69" transform="translate(39.208984 0)"/>
      <use xlink:href="#DejaVuSans-6d" transform="translate(66.992188 0)"/>
      <use xlink:href="#DejaVuSans-65" transform="translate(164.404297 0)"/>
      <use xlink:href="#DejaVuSans-20" transform="translate(225.927734 0)"/>
      <use xlink:href="#DejaVuSans-66" transform="translate(257.714844 0)"/>
      <use xlink:href="#DejaVuSans-72" transform="translate(292.919922 0)"/>
      <use xlink:href="#DejaVuSans-6f" transform="translate(331.783203 0)"/>
      <use xlink:href="#DejaVuSans-6d" transform="translate(392.964844 0)"/>
      <use xlink:href="#DejaVuSans-20" transform="translate(490.376953 0)"/>
      <use xlink:href="#DejaVuSans-65" transform="translate(522.164062 0)"/>
      <use xlink:href="#DejaVuSans-76" transform="translate(583.6875 0)"/>
      <use xlink:href="#DejaVuSans-65" transform="translate(642.867188 0)"/>
      <use xlink:href="#DejaVuSans-6e" transform="translate(704.390625 0)"/>
      <use xlink:href="#DejaVuSans-74" transform="translate(767.769531 0)"/>
      <use xlink:href="#DejaVuSans-20" transform="translate(806.978516 0)"/>
      <use xlink:href="#DejaVuSans-28" transform="translate(838.765625 0)"/>
      <use xlink:href="#DejaVuSans-73" transform="translate(877.779297 0)"/>
      <use xlink:href="#DejaVuSans-29" transform="translate(929.878906 0)"/>
     </g>
    </g>
   </g>
   <g id="matplotlib.axis_10">
    <g id="ytick_17">
     <g id="line2d_30">
      <g>
       <use xlink:href="#m1d7ff0c410" x="38.613678" y="496.984136" style="fill: #444444; stroke: #444444; stroke-width: 0.8"/>
      </g>
     </g>
     <g id="text_24">
      <!-- 0 -->
      <g style="fill: #444444" transform="translate(25.251178 500.783355) scale(0.1 -0.1)">
       <use xlink:href="#DejaVuSans-30"/>
      </g>
     </g>
    </g>
    <g id="ytick_18">
     <g id="line2d_31">
      <g>
       <use xlink:href="#m1d7ff0c410" x="38.613678" y="470.416171" style="fill: #444444; stroke: #444444; stroke-width: 0.8"/>
      </g>
     </g>
     <g id="text_25">
      <!-- 1 -->
      <g style="fill: #444444" transform="translate(25.251178 474.21539) scale(0.1 -0.1)">
       <use xlink:href="#DejaVuSans-31"/>
      </g>
     </g>
    </g>
    <g id="ytick_19">
     <g id="line2d_32">
      <g>
       <use xlink:href="#m1d7ff0c410" x="38.613678" y="443.848206" style="fill: #444444; stroke: #444444; stroke-width: 0.8"/>
      </g>
     </g>
     <g id="text_26">
      <!-- 2 -->
      <g style="fill: #444444" transform="translate(25.251178 447.647425) scale(0.1 -0.1)">
       <use xlink:href="#DejaVuSans-32"/>
      </g>
     </g>
    </g>
    <g id="ytick_20">
     <g id="line2d_33">
      <g>
       <use xlink:href="#m1d7ff0c410" x="38.613678" y="417.280241" style="fill: #444444; stroke: #444444; stroke-width: 0.8"/>
      </g>
     </g>
     <g id="text_27">
      <!-- 3 -->
      <g style="fill: #444444" transform="translate(25.251178 421.07946) scale(0.1 -0.1)">
       <use xlink:href="#DejaVuSans-33"/>
      </g>
     </g>
    </g>
    <g id="ytick_21">
     <g id="line2d_34">
      <g>
       <use xlink:href="#m1d7ff0c410" x="38.613678" y="390.712276" style="fill: #444444; stroke: #444444; stroke-width: 0.8"/>
      </g>
     </g>
     <g id="text_28">
      <!-- 4 -->
      <g style="fill: #444444" transform="translate(25.251178 394.511495) scale(0.1 -0.1)">
       <use xlink:href="#DejaVuSans-34"/>
      </g>
     </g>
    </g>
    <g id="ytick_22">
     <g id="line2d_35">
      <g>
       <use xlink:href="#m1d7ff0c410" x="38.613678" y="364.144311" style="fill: #444444; stroke: #444444; stroke-width: 0.8"/>
      </g>
     </g>
     <g id="text_29">
      <!-- 5 -->
      <g style="fill: #444444" transform="translate(25.251178 367.94353) scale(0.1 -0.1)">
       <use xlink:href="#DejaVuSans-35"/>
      </g>
     </g>
    </g>
    <g id="text_30">
     <!-- z-score -->
     <g style="fill: #444444" transform="translate(19.379459 450.62413) rotate(-90) scale(0.09 -0.09)">
      <use xlink:href="#DejaVuSans-7a"/>
      <use xlink:href="#DejaVuSans-2d" transform="translate(52.490234 0)"/>
      <use xlink:href="#DejaVuSans-73" transform="translate(88.574219 0)"/>
      <use xlink:href="#DejaVuSans-63" transform="translate(140.673828 0)"/>
      <use xlink:href="#DejaVuSans-6f" transform="translate(195.654297 0)"/>
      <use xlink:href="#DejaVuSans-72" transform="translate(256.835938 0)"/>
      <use xlink:href="#DejaVuSans-65" transform="translate(295.699219 0)"/>
     </g>
    </g>
   </g>
   <g id="line2d_36">
    <path d="M 38.613677 496.984136 
L 80.272933 496.881427 
L 85.07977 496.624448 
L 88.284329 496.225209 
L 90.687747 495.716082 
L 93.091166 494.948482 
L 94.693445 494.254549 
L 96.295724 493.388553 
L 97.898003 492.331268 
L 99.500282 491.069181 
L 101.102561 489.597251 
L 103.50598 487.012884 
L 105.909398 484.05212 
L 113.119654 474.792707 
L 114.721933 473.157187 
L 116.324212 471.851918 
L 117.926491 470.942252 
L 119.52877 470.475146 
L 120.32991 470.416171 
L 121.131049 470.475146 
L 121.932189 470.651285 
L 123.534468 471.344214 
L 125.136747 472.458814 
L 126.739026 473.938327 
L 128.341305 475.710173 
L 130.744724 478.7344 
L 136.352701 486.061719 
L 138.756119 488.784001 
L 141.159538 491.069181 
L 142.761817 492.331268 
L 144.364096 493.388553 
L 145.966375 494.254549 
L 148.369794 495.237863 
L 150.773212 495.910751 
L 153.176631 496.350227 
L 156.381189 496.688993 
L 161.188026 496.902076 
L 169.199421 496.974045 
L 170.8017 496.874544 
L 171.60284 496.518983 
L 172.40398 495.282453 
L 173.205119 491.729558 
L 174.006259 483.334195 
L 174.807398 467.171707 
L 175.608538 442.246808 
L 176.409677 412.49971 
L 177.210817 387.368359 
L 178.011956 377.42803 
L 178.813096 387.368531 
L 179.614235 412.500068 
L 180.415375 442.247384 
L 181.216514 467.172552 
L 182.017654 483.335381 
L 182.818793 491.731184 
L 183.619933 495.28465 
L 184.421073 496.521925 
L 185.222212 496.878458 
L 186.824491 496.98085 
L 218.870072 496.984136 
L 254.120212 496.984136 
L 254.120212 496.984136 
" clip-path="url(#p54a348a96f)" style="fill: none; stroke: #3a3a3a; stroke-opacity: 0.95; stroke-width: 1.5; stroke-linecap: square"/>
   </g>
   <g id="line2d_37">
    <path d="M 178.011956 496.984136 
L 178.011956 377.42803 
" clip-path="url(#p54a348a96f)" style="fill: none; stroke-dasharray: 1,1.65; stroke-dashoffset: 0; stroke: #c0392b; stroke-opacity: 0.75"/>
   </g>
   <g id="line2d_38">
    <path d="M 86.682049 507.611323 
L 86.682049 361.487251 
" clip-path="url(#p54a348a96f)" style="fill: none; stroke-dasharray: 2.59,1.12; stroke-dashoffset: 0; stroke: #666666; stroke-opacity: 0.6; stroke-width: 0.7"/>
   </g>
   <g id="line2d_39">
    <path d="M 38.613678 496.984136 
L 254.120212 496.984136 
" clip-path="url(#p54a348a96f)" style="fill: none; stroke: #888888; stroke-opacity: 0.4; stroke-width: 0.5; stroke-linecap: square"/>
   </g>
   <g id="patch_9">
    <path d="M 38.613678 507.611322 
L 38.613678 361.487251 
" style="fill: none; stroke: #444444; stroke-width: 0.8; stroke-linejoin: miter; stroke-linecap: square"/>
   </g>
   <g id="patch_10">
    <path d="M 38.613677 507.611323 
L 254.120212 507.611323 
" style="fill: none; stroke: #444444; stroke-width: 0.8; stroke-linejoin: miter; stroke-linecap: square"/>
   </g>
   <g id="text_31">
    <!-- peak = 4.5 -->
    <g style="fill: #c0392b" transform="translate(192.595641 379.314373) scale(0.1 -0.1)">
     <use xlink:href="#DejaVuSans-70"/>
     <use xlink:href="#DejaVuSans-65" transform="translate(63.476562 0)"/>
     <use xlink:href="#DejaVuSans-61" transform="translate(125 0)"/>
     <use xlink:href="#DejaVuSans-6b" transform="translate(186.279297 0)"/>
     <use xlink:href="#DejaVuSans-20" transform="translate(244.189453 0)"/>
     <use xlink:href="#DejaVuSans-3d" transform="translate(275.976562 0)"/>
     <use xlink:href="#DejaVuSans-20" transform="translate(359.765625 0)"/>
     <use xlink:href="#DejaVuSans-34" transform="translate(391.552734 0)"/>
     <use xlink:href="#DejaVuSans-2e" transform="translate(455.175781 0)"/>
     <use xlink:href="#DejaVuSans-35" transform="translate(486.962891 0)"/>
    </g>
   </g>
   <g id="line2d_40">
    <g clip-path="url(#p54a348a96f)">
     <use xlink:href="#mff9023796f" x="178.011956" y="377.42803" style="fill: #c0392b; stroke: #c0392b"/>
    </g>
   </g>
  </g>
  <g id="axes_9">
   <g id="patch_11">
    <path d="M 285.493226 507.611323 
L 500.99976 507.611323 
L 500.99976 361.487251 
L 285.493226 361.487251 
L 285.493226 507.611323 
z
" style="fill: none"/>
   </g>
   <g id="FillBetweenPolyCollection_3">
    <defs>
     <path id="mdbf20bf9f7" d="M 333.561598 -43.543001 
L 333.561598 -43.015864 
L 334.362737 -43.015864 
L 335.163877 -43.015864 
L 335.965016 -43.015864 
L 336.766156 -43.015864 
L 337.567295 -43.015864 
L 338.368435 -43.015864 
L 339.169574 -43.015864 
L 339.970714 -43.015864 
L 340.771853 -43.015864 
L 341.572993 -43.015864 
L 342.374132 -43.015864 
L 343.175272 -43.015864 
L 343.976412 -43.015864 
L 344.777551 -43.015864 
L 345.578691 -43.015864 
L 346.37983 -43.015864 
L 347.18097 -43.015864 
L 347.982109 -43.015864 
L 348.783249 -43.015864 
L 349.584388 -43.015864 
L 350.385528 -43.015864 
L 351.186667 -43.015864 
L 351.987807 -43.015864 
L 352.788946 -43.015864 
L 353.590086 -43.015864 
L 354.391225 -43.015864 
L 355.192365 -43.015864 
L 355.993505 -43.015864 
L 356.794644 -43.015864 
L 357.595784 -43.015864 
L 358.396923 -43.015864 
L 359.198063 -43.015864 
L 359.999202 -43.015864 
L 360.800342 -43.015864 
L 361.601481 -43.015864 
L 362.402621 -43.015864 
L 363.20376 -43.015864 
L 364.0049 -43.015864 
L 364.806039 -43.015864 
L 365.607179 -43.015864 
L 366.408318 -43.015864 
L 367.209458 -43.015864 
L 368.010598 -43.015864 
L 368.811737 -43.015864 
L 369.612877 -43.015864 
L 370.414016 -43.015864 
L 371.215156 -43.015864 
L 372.016295 -43.015864 
L 372.817435 -43.015864 
L 373.618574 -43.015864 
L 374.419714 -43.015864 
L 375.220853 -43.015864 
L 376.021993 -43.015864 
L 376.823132 -43.015864 
L 377.624272 -43.015864 
L 378.425411 -43.015864 
L 379.226551 -43.015864 
L 380.027691 -43.015864 
L 380.82883 -43.015864 
L 381.62997 -43.015864 
L 382.431109 -43.015864 
L 383.232249 -43.015864 
L 384.033388 -43.015864 
L 384.834528 -43.015864 
L 385.635667 -43.015864 
L 386.436807 -43.015864 
L 387.237946 -43.015864 
L 388.039086 -43.015864 
L 388.840225 -43.015864 
L 389.641365 -43.015864 
L 390.442504 -43.015864 
L 391.243644 -43.015864 
L 392.044784 -43.015864 
L 392.845923 -43.015864 
L 393.647063 -43.015864 
L 394.448202 -43.015864 
L 395.249342 -43.015864 
L 396.050481 -43.015864 
L 396.851621 -43.015864 
L 397.65276 -43.015864 
L 398.4539 -43.015864 
L 399.255039 -43.015864 
L 400.056179 -43.015864 
L 400.857318 -43.015864 
L 401.658458 -43.015864 
L 402.459597 -43.015864 
L 403.260737 -43.015864 
L 404.061877 -43.015864 
L 404.863016 -43.015864 
L 405.664156 -43.015864 
L 406.465295 -43.015864 
L 407.266435 -43.015864 
L 408.067574 -43.015864 
L 408.868714 -43.015864 
L 409.669853 -43.015864 
L 410.470993 -43.015864 
L 411.272132 -43.015864 
L 412.073272 -43.015864 
L 412.874411 -43.015864 
L 413.675551 -43.015864 
L 414.47669 -43.015864 
L 415.27783 -43.015864 
L 416.07897 -43.015864 
L 416.880109 -43.015864 
L 417.681249 -43.015864 
L 418.482388 -43.015864 
L 419.283528 -43.015864 
L 420.084667 -43.015864 
L 420.885807 -43.015864 
L 421.686946 -43.015864 
L 422.488086 -43.015864 
L 423.289225 -43.015864 
L 424.090365 -43.015864 
L 424.891504 -43.015864 
L 425.692644 -43.015864 
L 426.493783 -43.015864 
L 427.294923 -43.015864 
L 428.096062 -43.015864 
L 428.897202 -43.015864 
L 429.698342 -43.015864 
L 430.499481 -43.015864 
L 431.300621 -43.015864 
L 432.10176 -43.015864 
L 432.9029 -43.015864 
L 433.704039 -43.015864 
L 434.505179 -43.015864 
L 435.306318 -43.015864 
L 436.107458 -43.015864 
L 436.908597 -43.015864 
L 437.709737 -43.015864 
L 438.510876 -43.015864 
L 439.312016 -43.015864 
L 440.113155 -43.015864 
L 440.914295 -43.015864 
L 441.715435 -43.015864 
L 442.516574 -43.015864 
L 443.317714 -43.015864 
L 444.118853 -43.015864 
L 444.919993 -43.015864 
L 445.721132 -43.015864 
L 446.522272 -43.015864 
L 447.323411 -43.015864 
L 448.124551 -43.015864 
L 448.92569 -43.015864 
L 449.72683 -43.015864 
L 450.527969 -43.015864 
L 451.329109 -43.015864 
L 452.130248 -43.015864 
L 452.931388 -43.015864 
L 453.732528 -43.015864 
L 454.533667 -43.015864 
L 455.334807 -43.015864 
L 456.135946 -43.015864 
L 456.937086 -43.015864 
L 457.738225 -43.015864 
L 458.539365 -43.015864 
L 459.340504 -43.015864 
L 460.141644 -43.015864 
L 460.942783 -43.015864 
L 461.743923 -43.015864 
L 462.545062 -43.015864 
L 463.346202 -43.015864 
L 464.147341 -43.015864 
L 464.948481 -43.015864 
L 465.749621 -43.015864 
L 466.55076 -43.015864 
L 467.3519 -43.015864 
L 468.153039 -43.015864 
L 468.954179 -43.015864 
L 469.755318 -43.015864 
L 470.556458 -43.015864 
L 471.357597 -43.015864 
L 472.158737 -43.015864 
L 472.959876 -43.015864 
L 473.761016 -43.015864 
L 474.562155 -43.015864 
L 475.363295 -43.015864 
L 476.164434 -43.015864 
L 476.965574 -43.015864 
L 477.766714 -43.015864 
L 478.567853 -43.015864 
L 479.368993 -43.015864 
L 480.170132 -43.015864 
L 480.971272 -43.015864 
L 481.772411 -43.015864 
L 482.573551 -43.015864 
L 483.37469 -43.015864 
L 484.17583 -43.015864 
L 484.976969 -43.015864 
L 485.778109 -43.015864 
L 486.579248 -43.015864 
L 487.380388 -43.015864 
L 488.181527 -43.015864 
L 488.982667 -43.015864 
L 489.783807 -43.015864 
L 490.584946 -43.015864 
L 491.386086 -43.015864 
L 492.187225 -43.015864 
L 492.988365 -43.015864 
L 493.789504 -43.015864 
L 494.590644 -43.015864 
L 495.391783 -43.015864 
L 496.192923 -43.015864 
L 496.994062 -43.015864 
L 497.795202 -43.015864 
L 498.596341 -43.015864 
L 499.397481 -43.015864 
L 500.19862 -43.015864 
L 500.99976 -43.015864 
L 500.99976 -43.015864 
L 500.99976 -43.015864 
L 500.19862 -43.015864 
L 499.397481 -43.015864 
L 498.596341 -43.015864 
L 497.795202 -43.015864 
L 496.994062 -43.015864 
L 496.192923 -43.015864 
L 495.391783 -43.015864 
L 494.590644 -43.015864 
L 493.789504 -43.015864 
L 492.988365 -43.015864 
L 492.187225 -43.015864 
L 491.386086 -43.015864 
L 490.584946 -43.015864 
L 489.783807 -43.015864 
L 488.982667 -43.015864 
L 488.181527 -43.015864 
L 487.380388 -43.015864 
L 486.579248 -43.015864 
L 485.778109 -43.015864 
L 484.976969 -43.015864 
L 484.17583 -43.015864 
L 483.37469 -43.015864 
L 482.573551 -43.015864 
L 481.772411 -43.015864 
L 480.971272 -43.015864 
L 480.170132 -43.015864 
L 479.368993 -43.015864 
L 478.567853 -43.015864 
L 477.766714 -43.015864 
L 476.965574 -43.015864 
L 476.164434 -43.015864 
L 475.363295 -43.015864 
L 474.562155 -43.015864 
L 473.761016 -43.015864 
L 472.959876 -43.015864 
L 472.158737 -43.015864 
L 471.357597 -43.015864 
L 470.556458 -43.015864 
L 469.755318 -43.015864 
L 468.954179 -43.015864 
L 468.153039 -43.015864 
L 467.3519 -43.015864 
L 466.55076 -43.015864 
L 465.749621 -43.015864 
L 464.948481 -43.015864 
L 464.147341 -43.015864 
L 463.346202 -43.015864 
L 462.545062 -43.015864 
L 461.743923 -43.015864 
L 460.942783 -43.015864 
L 460.141644 -43.015864 
L 459.340504 -43.015864 
L 458.539365 -43.015864 
L 457.738225 -43.015864 
L 456.937086 -43.015864 
L 456.135946 -43.015864 
L 455.334807 -43.015864 
L 454.533667 -43.015864 
L 453.732528 -43.015864 
L 452.931388 -43.015864 
L 452.130248 -43.015864 
L 451.329109 -43.015864 
L 450.527969 -43.015864 
L 449.72683 -43.015864 
L 448.92569 -43.015864 
L 448.124551 -43.015864 
L 447.323411 -43.015864 
L 446.522272 -43.015864 
L 445.721132 -43.015864 
L 444.919993 -43.015864 
L 444.118853 -43.015864 
L 443.317714 -43.015864 
L 442.516574 -43.015864 
L 441.715435 -43.015864 
L 440.914295 -43.015864 
L 440.113155 -43.015864 
L 439.312016 -43.015864 
L 438.510876 -43.015864 
L 437.709737 -43.015864 
L 436.908597 -43.015865 
L 436.107458 -43.01587 
L 435.306318 -43.015917 
L 434.505179 -43.016313 
L 433.704039 -43.01915 
L 432.9029 -43.036179 
L 432.10176 -43.121542 
L 431.300621 -43.478075 
L 430.499481 -44.71535 
L 429.698342 -48.268816 
L 428.897202 -56.664619 
L 428.096062 -72.827448 
L 427.294923 -97.752616 
L 426.493783 -127.499932 
L 425.692644 -152.631469 
L 424.891504 -162.57197 
L 424.090365 -152.631641 
L 423.289225 -127.50029 
L 422.488086 -97.753192 
L 421.686946 -72.828293 
L 420.885807 -56.665805 
L 420.084667 -48.270442 
L 419.283528 -44.717547 
L 418.482388 -43.481017 
L 417.681249 -43.125456 
L 416.880109 -43.041353 
L 416.07897 -43.025955 
L 415.27783 -43.025222 
L 414.47669 -43.027525 
L 413.675551 -43.030926 
L 412.874411 -43.035306 
L 412.073272 -43.040856 
L 411.272132 -43.047848 
L 410.470993 -43.056614 
L 409.669853 -43.067552 
L 408.868714 -43.081136 
L 408.067574 -43.097924 
L 407.266435 -43.118573 
L 406.465295 -43.143848 
L 405.664156 -43.174634 
L 404.863016 -43.211953 
L 404.061877 -43.25697 
L 403.260737 -43.311007 
L 402.459597 -43.375552 
L 401.658458 -43.452269 
L 400.857318 -43.543001 
L 400.056179 -43.649773 
L 399.255039 -43.774791 
L 398.4539 -43.920435 
L 397.65276 -44.089249 
L 396.851621 -44.283918 
L 396.050481 -44.50725 
L 395.249342 -44.762137 
L 394.448202 -45.051518 
L 393.647063 -45.37833 
L 392.845923 -45.745451 
L 392.044784 -46.155637 
L 391.243644 -46.611447 
L 390.442504 -47.115168 
L 389.641365 -47.668732 
L 388.840225 -48.273629 
L 388.039086 -48.930819 
L 387.237946 -49.640644 
L 386.436807 -50.402749 
L 385.635667 -51.215999 
L 384.834528 -52.078414 
L 384.033388 -52.987116 
L 383.232249 -53.938281 
L 382.431109 -54.927121 
L 381.62997 -55.94788 
L 380.82883 -56.993853 
L 380.027691 -58.057427 
L 379.226551 -59.130149 
L 378.425411 -60.202818 
L 377.624272 -61.2656 
L 376.823132 -62.308166 
L 376.021993 -63.319851 
L 375.220853 -64.289827 
L 374.419714 -65.207293 
L 373.618574 -66.061673 
L 372.817435 -66.842813 
L 372.016295 -67.541186 
L 371.215156 -68.148082 
L 370.414016 -68.655786 
L 369.612877 -69.057748 
L 368.811737 -69.348715 
L 368.010598 -69.524854 
L 367.209458 -69.583829 
L 366.408318 -69.524854 
L 365.607179 -69.348715 
L 364.806039 -69.057748 
L 364.0049 -68.655786 
L 363.20376 -68.148082 
L 362.402621 -67.541186 
L 361.601481 -66.842813 
L 360.800342 -66.061673 
L 359.999202 -65.207293 
L 359.198063 -64.289827 
L 358.396923 -63.319851 
L 357.595784 -62.308166 
L 356.794644 -61.2656 
L 355.993505 -60.202818 
L 355.192365 -59.130149 
L 354.391225 -58.057427 
L 353.590086 -56.993853 
L 352.788946 -55.94788 
L 351.987807 -54.927121 
L 351.186667 -53.938281 
L 350.385528 -52.987116 
L 349.584388 -52.078414 
L 348.783249 -51.215999 
L 347.982109 -50.402749 
L 347.18097 -49.640644 
L 346.37983 -48.930819 
L 345.578691 -48.273629 
L 344.777551 -47.668732 
L 343.976412 -47.115168 
L 343.175272 -46.611447 
L 342.374132 -46.155637 
L 341.572993 -45.745451 
L 340.771853 -45.37833 
L 339.970714 -45.051518 
L 339.169574 -44.762137 
L 338.368435 -44.50725 
L 337.567295 -44.283918 
L 336.766156 -44.089249 
L 335.965016 -43.920435 
L 335.163877 -43.774791 
L 334.362737 -43.649773 
L 333.561598 -43.543001 
z
"/>
    </defs>
    <g clip-path="url(#p497d78b165)">
     <use xlink:href="#mdbf20bf9f7" x="0" y="540" style="fill: #2ca02c; fill-opacity: 0.32"/>
    </g>
   </g>
   <g id="matplotlib.axis_11">
    <g id="xtick_26">
     <g id="line2d_41">
      <g>
       <use xlink:href="#m6ce17f65ab" x="285.493226" y="507.611323" style="fill: #444444; stroke: #444444; stroke-width: 0.8"/>
      </g>
     </g>
     <g id="text_32">
      <!-- −2 -->
      <g style="fill: #444444" transform="translate(278.122132 522.20976) scale(0.1 -0.1)">
       <use xlink:href="#DejaVuSans-2212"/>
       <use xlink:href="#DejaVuSans-32" transform="translate(83.789062 0)"/>
      </g>
     </g>
    </g>
    <g id="xtick_27">
     <g id="line2d_42">
      <g>
       <use xlink:href="#m6ce17f65ab" x="333.561598" y="507.611323" style="fill: #444444; stroke: #444444; stroke-width: 0.8"/>
      </g>
     </g>
     <g id="text_33">
      <!-- 0 -->
      <g style="fill: #444444" transform="translate(330.380348 522.20976) scale(0.1 -0.1)">
       <use xlink:href="#DejaVuSans-30"/>
      </g>
     </g>
    </g>
    <g id="xtick_28">
     <g id="line2d_43">
      <g>
       <use xlink:href="#m6ce17f65ab" x="381.62997" y="507.611323" style="fill: #444444; stroke: #444444; stroke-width: 0.8"/>
      </g>
     </g>
     <g id="text_34">
      <!-- 2 -->
      <g style="fill: #444444" transform="translate(378.44872 522.20976) scale(0.1 -0.1)">
       <use xlink:href="#DejaVuSans-32"/>
      </g>
     </g>
    </g>
    <g id="xtick_29">
     <g id="line2d_44">
      <g>
       <use xlink:href="#m6ce17f65ab" x="429.698342" y="507.611323" style="fill: #444444; stroke: #444444; stroke-width: 0.8"/>
      </g>
     </g>
     <g id="text_35">
      <!-- 4 -->
      <g style="fill: #444444" transform="translate(426.517092 522.20976) scale(0.1 -0.1)">
       <use xlink:href="#DejaVuSans-34"/>
      </g>
     </g>
    </g>
    <g id="xtick_30">
     <g id="line2d_45">
      <g>
       <use xlink:href="#m6ce17f65ab" x="477.766714" y="507.611323" style="fill: #444444; stroke: #444444; stroke-width: 0.8"/>
      </g>
     </g>
     <g id="text_36">
      <!-- 6 -->
      <g style="fill: #444444" transform="translate(474.585464 522.20976) scale(0.1 -0.1)">
       <use xlink:href="#DejaVuSans-36"/>
      </g>
     </g>
    </g>
    <g id="text_37">
     <!-- time from event (s) -->
     <g style="fill: #444444" transform="translate(349.647118 535.128041) scale(0.09 -0.09)">
      <use xlink:href="#DejaVuSans-74"/>
      <use xlink:href="#DejaVuSans-69" transform="translate(39.208984 0)"/>
      <use xlink:href="#DejaVuSans-6d" transform="translate(66.992188 0)"/>
      <use xlink:href="#DejaVuSans-65" transform="translate(164.404297 0)"/>
      <use xlink:href="#DejaVuSans-20" transform="translate(225.927734 0)"/>
      <use xlink:href="#DejaVuSans-66" transform="translate(257.714844 0)"/>
      <use xlink:href="#DejaVuSans-72" transform="translate(292.919922 0)"/>
      <use xlink:href="#DejaVuSans-6f" transform="translate(331.783203 0)"/>
      <use xlink:href="#DejaVuSans-6d" transform="translate(392.964844 0)"/>
      <use xlink:href="#DejaVuSans-20" transform="translate(490.376953 0)"/>
      <use xlink:href="#DejaVuSans-65" transform="translate(522.164062 0)"/>
      <use xlink:href="#DejaVuSans-76" transform="translate(583.6875 0)"/>
      <use xlink:href="#DejaVuSans-65" transform="translate(642.867188 0)"/>
      <use xlink:href="#DejaVuSans-6e" transform="translate(704.390625 0)"/>
      <use xlink:href="#DejaVuSans-74" transform="translate(767.769531 0)"/>
      <use xlink:href="#DejaVuSans-20" transform="translate(806.978516 0)"/>
      <use xlink:href="#DejaVuSans-28" transform="translate(838.765625 0)"/>
      <use xlink:href="#DejaVuSans-73" transform="translate(877.779297 0)"/>
      <use xlink:href="#DejaVuSans-29" transform="translate(929.878906 0)"/>
     </g>
    </g>
   </g>
   <g id="matplotlib.axis_12">
    <g id="ytick_23"/>
    <g id="ytick_24"/>
    <g id="ytick_25"/>
    <g id="ytick_26"/>
    <g id="ytick_27"/>
    <g id="ytick_28"/>
   </g>
   <g id="line2d_46">
    <path d="M 285.493226 496.984136 
L 327.152481 496.881427 
L 331.959319 496.624448 
L 335.163877 496.225209 
L 337.567295 495.716082 
L 339.970714 494.948482 
L 341.572993 494.254549 
L 343.175272 493.388553 
L 344.777551 492.331268 
L 346.37983 491.069181 
L 347.982109 489.597251 
L 350.385528 487.012884 
L 352.788946 484.05212 
L 359.999202 474.792707 
L 361.601481 473.157187 
L 363.20376 471.851918 
L 364.806039 470.942252 
L 366.408318 470.475146 
L 367.209458 470.416171 
L 368.010598 470.475146 
L 368.811737 470.651285 
L 370.414016 471.344214 
L 372.016295 472.458814 
L 373.618574 473.938327 
L 375.220853 475.710173 
L 377.624272 478.7344 
L 383.232249 486.061719 
L 385.635667 488.784001 
L 388.039086 491.069181 
L 389.641365 492.331268 
L 391.243644 493.388553 
L 392.845923 494.254549 
L 395.249342 495.237863 
L 397.65276 495.910751 
L 400.056179 496.350227 
L 403.260737 496.688993 
L 408.067574 496.902076 
L 416.07897 496.974045 
L 417.681249 496.874544 
L 418.482388 496.518983 
L 419.283528 495.282453 
L 420.084667 491.729558 
L 420.885807 483.334195 
L 421.686946 467.171707 
L 422.488086 442.246808 
L 423.289225 412.49971 
L 424.090365 387.368359 
L 424.891504 377.42803 
L 425.692644 387.368531 
L 426.493783 412.500068 
L 427.294923 442.247384 
L 428.096062 467.172552 
L 428.897202 483.335381 
L 429.698342 491.731184 
L 430.499481 495.28465 
L 431.300621 496.521925 
L 432.10176 496.878458 
L 433.704039 496.98085 
L 465.749621 496.984136 
L 500.99976 496.984136 
L 500.99976 496.984136 
" clip-path="url(#p497d78b165)" style="fill: none; stroke: #3a3a3a; stroke-opacity: 0.95; stroke-width: 1.5; stroke-linecap: square"/>
   </g>
   <g id="line2d_47">
    <path d="M 333.561598 507.611323 
L 333.561598 361.487251 
" clip-path="url(#p497d78b165)" style="fill: none; stroke-dasharray: 2.59,1.12; stroke-dashoffset: 0; stroke: #666666; stroke-opacity: 0.6; stroke-width: 0.7"/>
   </g>
   <g id="line2d_48">
    <path d="M 285.493226 496.984136 
L 500.99976 496.984136 
" clip-path="url(#p497d78b165)" style="fill: none; stroke: #888888; stroke-opacity: 0.4; stroke-width: 0.5; stroke-linecap: square"/>
   </g>
   <g id="patch_12">
    <path d="M 285.493226 507.611323 
L 500.99976 507.611323 
" style="fill: none; stroke: #444444; stroke-width: 0.8; stroke-linejoin: miter; stroke-linecap: square"/>
   </g>
   <g id="text_38">
    <!-- AUC = 2.2 -->
    <g style="fill: #2ca02c" transform="translate(442.753314 379.314373) scale(0.1 -0.1)">
     <use xlink:href="#DejaVuSans-41"/>
     <use xlink:href="#DejaVuSans-55" transform="translate(68.408203 0)"/>
     <use xlink:href="#DejaVuSans-43" transform="translate(141.601562 0)"/>
     <use xlink:href="#DejaVuSans-20" transform="translate(211.425781 0)"/>
     <use xlink:href="#DejaVuSans-3d" transform="translate(243.212891 0)"/>
     <use xlink:href="#DejaVuSans-20" transform="translate(327.001953 0)"/>
     <use xlink:href="#DejaVuSans-32" transform="translate(358.789062 0)"/>
     <use xlink:href="#DejaVuSans-2e" transform="translate(422.412109 0)"/>
     <use xlink:href="#DejaVuSans-32" transform="translate(454.199219 0)"/>
    </g>
   </g>
  </g>
 </g>
 <defs>
  <clipPath id="pa0cde379f3">
   <rect x="38.613678" y="20.690646" width="215.506534" height="146.124072"/>
  </clipPath>
  <clipPath id="p7bae71d2c9">
   <rect x="285.493226" y="20.690646" width="215.506534" height="146.124072"/>
  </clipPath>
  <clipPath id="p9e7a7f8f22">
   <rect x="38.613678" y="190.505603" width="215.506534" height="146.124072"/>
  </clipPath>
  <clipPath id="p6a5bd1c38f">
   <rect x="285.493226" y="190.505603" width="215.506534" height="146.124072"/>
  </clipPath>
  <clipPath id="p54a348a96f">
   <rect x="38.613678" y="361.487251" width="215.506534" height="146.124072"/>
  </clipPath>
  <clipPath id="p497d78b165">
   <rect x="285.493226" y="361.487251" width="215.506534" height="146.124072"/>
  </clipPath>
 </defs>
</svg>
