<?xml version="1.0" encoding="utf-8" standalone="no"?>
<!DOCTYPE svg PUBLIC "-//W3C//DTD SVG 1.1//EN"
  "http://www.w3.org/Graphics/SVG/1.1/DTD/svg11.dtd">
<svg xmlns:xlink="http://www.w3.org/1999/xlink" width="900pt" height="288pt" viewBox="0 0 900 288" xmlns="http://www.w3.org/2000/svg" version="1.1">
 <metadata>
  <rdf:RDF xmlns:dc="http://purl.org/dc/elements/1.1/" xmlns:cc="http://creativecommons.org/ns#" xmlns:rdf="http://www.w3.org/1999/02/22-rdf-syntax-ns#">
   <cc:Work>
    <dc:type rdf:resource="http://purl.org/dc/dcmitype/StillImage"/>
    <dc:date>2026-04-29T15:59:49.460850</dc:date>
    <dc:format>image/svg+xml</dc:format>
    <dc:creator>
     <cc:Agent>
      <dc:title>Matplotlib v3.10.9, https://matplotlib.org/</dc:title>
     </cc:Agent>
    </dc:creator>
   </cc:Work>
  </rdf:RDF>
 </metadata>
 <defs>
  <style type="text/css">*{stroke-linejoin: round; stroke-linecap: butt}</style>
 </defs>
 <g id="figure_1">
  <g id="patch_1">
   <path d="M 0 288 
L 900 288 
L 900 0 
L 0 0 
L 0 288 
z
" style="fill: none"/>
  </g>
  <g id="axes_1">
   <g id="patch_2">
    <path d="M 45.92 246.76 
L 444.6 246.76 
L 444.6 24.72 
L 45.92 24.72 
L 45.92 246.76 
z
" style="fill: none"/>
   </g>
   <g id="patch_3">
    <path d="M 18.737273 246.76 
L 109.346364 246.76 
L 109.346364 24.72 
L 18.737273 24.72 
z
" clip-path="url(#pcd9d12f570)" style="fill: #dcdcdc; opacity: 0.7"/>
   </g>
   <g id="text_1">
    <!-- window out -->
    <g style="fill: #777777" transform="translate(54.635682 114.420981) scale(0.08 -0.08)">
     <defs>
      <path id="DejaVuSans-Oblique-77" d="M 544 3500 
L 1113 3500 
L 1259 684 
L 2566 3500 
L 3231 3500 
L 3425 684 
L 4666 3500 
L 5241 3500 
L 3641 0 
L 2969 0 
L 2797 2900 
L 1459 0 
L 781 0 
L 544 3500 
z
" transform="scale(0.015625)"/>
      <path id="DejaVuSans-Oblique-69" d="M 1172 4863 
L 1747 4863 
L 1606 4134 
L 1031 4134 
L 1172 4863 
z
M 909 3500 
L 1484 3500 
L 800 0 
L 225 0 
L 909 3500 
z
" transform="scale(0.015625)"/>
      <path id="DejaVuSans-Oblique-6e" d="M 3566 2113 
L 3156 0 
L 2578 0 
L 2988 2091 
Q 3016 2238 3031 2350 
Q 3047 2463 3047 2528 
Q 3047 2791 2881 2937 
Q 2716 3084 2419 3084 
Q 1956 3084 1622 2776 
Q 1288 2469 1184 1941 
L 800 0 
L 225 0 
L 903 3500 
L 1478 3500 
L 1363 2950 
Q 1603 3253 1940 3418 
Q 2278 3584 2650 3584 
Q 3113 3584 3367 3334 
Q 3622 3084 3622 2631 
Q 3622 2519 3608 2391 
Q 3594 2263 3566 2113 
z
" transform="scale(0.015625)"/>
      <path id="DejaVuSans-Oblique-64" d="M 2675 525 
Q 2444 222 2128 65 
Q 1813 -91 1428 -91 
Q 903 -91 598 267 
Q 294 625 294 1247 
Q 294 1766 478 2236 
Q 663 2706 1013 3078 
Q 1244 3325 1534 3454 
Q 1825 3584 2144 3584 
Q 2481 3584 2739 3421 
Q 2997 3259 3138 2956 
L 3513 4863 
L 4091 4863 
L 3144 0 
L 2566 0 
L 2675 525 
z
M 891 1350 
Q 891 897 1095 644 
Q 1300 391 1663 391 
Q 1931 391 2161 520 
Q 2391 650 2566 903 
Q 2750 1166 2856 1509 
Q 2963 1853 2963 2188 
Q 2963 2622 2758 2865 
Q 2553 3109 2194 3109 
Q 1922 3109 1687 2981 
Q 1453 2853 1288 2613 
Q 1106 2353 998 2009 
Q 891 1666 891 1350 
z
" transform="scale(0.015625)"/>
      <path id="DejaVuSans-Oblique-6f" d="M 1625 -91 
Q 1009 -91 651 289 
Q 294 669 294 1325 
Q 294 1706 417 2101 
Q 541 2497 738 2766 
Q 1047 3184 1428 3384 
Q 1809 3584 2291 3584 
Q 2888 3584 3255 3212 
Q 3622 2841 3622 2241 
Q 3622 1825 3500 1412 
Q 3378 1000 3181 728 
Q 2875 309 2494 109 
Q 2113 -91 1625 -91 
z
M 891 1344 
Q 891 869 1089 633 
Q 1288 397 1691 397 
Q 2269 397 2648 901 
Q 3028 1406 3028 2181 
Q 3028 2634 2825 2865 
Q 2622 3097 2228 3097 
Q 1903 3097 1650 2945 
Q 1397 2794 1197 2484 
Q 1050 2253 970 1956 
Q 891 1659 891 1344 
z
" transform="scale(0.015625)"/>
      <path id="DejaVuSans-Oblique-20" transform="scale(0.015625)"/>
      <path id="DejaVuSans-Oblique-75" d="M 428 1388 
L 838 3500 
L 1416 3500 
L 1006 1409 
Q 975 1256 961 1147 
Q 947 1038 947 966 
Q 947 700 1109 554 
Q 1272 409 1569 409 
Q 2031 409 2368 721 
Q 2706 1034 2809 1563 
L 3194 3500 
L 3769 3500 
L 3091 0 
L 2516 0 
L 2631 550 
Q 2388 244 2052 76 
Q 1716 -91 1338 -91 
Q 878 -91 622 161 
Q 366 413 366 863 
Q 366 956 381 1097 
Q 397 1238 428 1388 
z
" transform="scale(0.015625)"/>
      <path id="DejaVuSans-Oblique-74" d="M 2706 3500 
L 2619 3053 
L 1472 3053 
L 1100 1153 
Q 1081 1047 1072 975 
Q 1063 903 1063 863 
Q 1063 663 1183 572 
Q 1303 481 1569 481 
L 2150 481 
L 2053 0 
L 1503 0 
Q 991 0 739 200 
Q 488 400 488 806 
Q 488 878 497 964 
Q 506 1050 525 1153 
L 897 3053 
L 409 3053 
L 500 3500 
L 978 3500 
L 1172 4494 
L 1747 4494 
L 1556 3500 
L 2706 3500 
z
" transform="scale(0.015625)"/>
     </defs>
     <use xlink:href="#DejaVuSans-Oblique-77"/>
     <use xlink:href="#DejaVuSans-Oblique-69" transform="translate(81.787109 0)"/>
     <use xlink:href="#DejaVuSans-Oblique-6e" transform="translate(109.570312 0)"/>
     <use xlink:href="#DejaVuSans-Oblique-64" transform="translate(172.949219 0)"/>
     <use xlink:href="#DejaVuSans-Oblique-6f" transform="translate(236.425781 0)"/>
     <use xlink:href="#DejaVuSans-Oblique-77" transform="translate(297.607422 0)"/>
     <use xlink:href="#DejaVuSans-Oblique-20" transform="translate(379.394531 0)"/>
     <use xlink:href="#DejaVuSans-Oblique-6f" transform="translate(411.181641 0)"/>
     <use xlink:href="#DejaVuSans-Oblique-75" transform="translate(472.363281 0)"/>
     <use xlink:href="#DejaVuSans-Oblique-74" transform="translate(535.742188 0)"/>
    </g>
    <!-- of recording -->
    <g style="fill: #777777" transform="translate(53.384432 123.379231) scale(0.08 -0.08)">
     <defs>
      <path id="DejaVuSans-Oblique-66" d="M 3059 4863 
L 2969 4384 
L 2419 4384 
Q 2106 4384 1964 4261 
Q 1822 4138 1753 3809 
L 1691 3500 
L 2638 3500 
L 2553 3053 
L 1606 3053 
L 1013 0 
L 434 0 
L 1031 3053 
L 481 3053 
L 563 3500 
L 1113 3500 
L 1159 3744 
Q 1278 4363 1576 4613 
Q 1875 4863 2516 4863 
L 3059 4863 
z
" transform="scale(0.015625)"/>
      <path id="DejaVuSans-Oblique-72" d="M 2853 2969 
Q 2766 3016 2653 3041 
Q 2541 3066 2413 3066 
Q 1953 3066 1609 2717 
Q 1266 2369 1153 1784 
L 800 0 
L 225 0 
L 909 3500 
L 1484 3500 
L 1375 2956 
Q 1603 3259 1920 3421 
Q 2238 3584 2597 3584 
Q 2691 3584 2781 3573 
Q 2872 3563 2963 3538 
L 2853 2969 
z
" transform="scale(0.015625)"/>
      <path id="DejaVuSans-Oblique-65" d="M 3078 2063 
Q 3088 2113 3092 2166 
Q 3097 2219 3097 2272 
Q 3097 2653 2873 2875 
Q 2650 3097 2266 3097 
Q 1838 3097 1509 2826 
Q 1181 2556 1013 2059 
L 3078 2063 
z
M 3578 1613 
L 903 1613 
Q 884 1494 878 1425 
Q 872 1356 872 1306 
Q 872 872 1139 634 
Q 1406 397 1894 397 
Q 2269 397 2603 481 
Q 2938 566 3225 728 
L 3116 159 
Q 2806 34 2476 -28 
Q 2147 -91 1806 -91 
Q 1078 -91 686 257 
Q 294 606 294 1247 
Q 294 1794 489 2264 
Q 684 2734 1063 3103 
Q 1306 3334 1642 3459 
Q 1978 3584 2356 3584 
Q 2950 3584 3301 3228 
Q 3653 2872 3653 2272 
Q 3653 2128 3634 1964 
Q 3616 1800 3578 1613 
z
" transform="scale(0.015625)"/>
      <path id="DejaVuSans-Oblique-63" d="M 3431 3366 
L 3316 2797 
Q 3109 2947 2876 3022 
Q 2644 3097 2394 3097 
Q 2119 3097 1870 3000 
Q 1622 2903 1453 2725 
Q 1184 2453 1037 2087 
Q 891 1722 891 1331 
Q 891 859 1127 628 
Q 1363 397 1844 397 
Q 2081 397 2348 469 
Q 2616 541 2906 684 
L 2797 116 
Q 2547 13 2283 -39 
Q 2019 -91 1741 -91 
Q 1044 -91 669 257 
Q 294 606 294 1253 
Q 294 1797 489 2255 
Q 684 2713 1069 3078 
Q 1331 3328 1684 3456 
Q 2038 3584 2456 3584 
Q 2700 3584 2940 3529 
Q 3181 3475 3431 3366 
z
" transform="scale(0.015625)"/>
      <path id="DejaVuSans-Oblique-67" d="M 3816 3500 
L 3219 434 
Q 3047 -456 2561 -893 
Q 2075 -1331 1253 -1331 
Q 950 -1331 690 -1286 
Q 431 -1241 206 -1147 
L 313 -588 
Q 525 -725 762 -790 
Q 1000 -856 1269 -856 
Q 1816 -856 2167 -557 
Q 2519 -259 2631 300 
L 2681 563 
Q 2441 288 2122 144 
Q 1803 0 1434 0 
Q 903 0 598 351 
Q 294 703 294 1319 
Q 294 1803 478 2267 
Q 663 2731 997 3091 
Q 1219 3328 1514 3456 
Q 1809 3584 2131 3584 
Q 2484 3584 2746 3420 
Q 3009 3256 3138 2956 
L 3238 3500 
L 3816 3500 
z
M 2950 2216 
Q 2950 2641 2750 2872 
Q 2550 3103 2181 3103 
Q 1953 3103 1747 3012 
Q 1541 2922 1394 2759 
Q 1156 2491 1023 2127 
Q 891 1763 891 1375 
Q 891 944 1092 712 
Q 1294 481 1672 481 
Q 2219 481 2584 976 
Q 2950 1472 2950 2216 
z
" transform="scale(0.015625)"/>
     </defs>
     <use xlink:href="#DejaVuSans-Oblique-6f"/>
     <use xlink:href="#DejaVuSans-Oblique-66" transform="translate(61.181641 0)"/>
     <use xlink:href="#DejaVuSans-Oblique-20" transform="translate(96.386719 0)"/>
     <use xlink:href="#DejaVuSans-Oblique-72" transform="translate(128.173828 0)"/>
     <use xlink:href="#DejaVuSans-Oblique-65" transform="translate(169.287109 0)"/>
     <use xlink:href="#DejaVuSans-Oblique-63" transform="translate(230.810547 0)"/>
     <use xlink:href="#DejaVuSans-Oblique-6f" transform="translate(285.791016 0)"/>
     <use xlink:href="#DejaVuSans-Oblique-72" transform="translate(346.972656 0)"/>
     <use xlink:href="#DejaVuSans-Oblique-64" transform="translate(388.085938 0)"/>
     <use xlink:href="#DejaVuSans-Oblique-69" transform="translate(451.5625 0)"/>
     <use xlink:href="#DejaVuSans-Oblique-6e" transform="translate(479.345703 0)"/>
     <use xlink:href="#DejaVuSans-Oblique-67" transform="translate(542.724609 0)"/>
    </g>
   </g>
   <g id="matplotlib.axis_1">
    <g id="xtick_1">
     <g id="line2d_1">
      <defs>
       <path id="m365732ad1f" d="M 0 0 
L 0 3.5 
" style="stroke: #444444; stroke-width: 0.8"/>
      </defs>
      <g>
       <use xlink:href="#m365732ad1f" x="64.041818" y="246.76" style="fill: #444444; stroke: #444444; stroke-width: 0.8"/>
      </g>
     </g>
     <g id="text_2">
      <!-- −5 -->
      <g style="fill: #444444" transform="translate(56.670724 261.358437) scale(0.1 -0.1)">
       <defs>
        <path id="DejaVuSans-2212" d="M 678 2272 
L 4684 2272 
L 4684 1741 
L 678 1741 
L 678 2272 
z
" transform="scale(0.015625)"/>
        <path id="DejaVuSans-35" d="M 691 4666 
L 3169 4666 
L 3169 4134 
L 1269 4134 
L 1269 2991 
Q 1406 3038 1543 3061 
Q 1681 3084 1819 3084 
Q 2600 3084 3056 2656 
Q 3513 2228 3513 1497 
Q 3513 744 3044 326 
Q 2575 -91 1722 -91 
Q 1428 -91 1123 -41 
Q 819 9 494 109 
L 494 744 
Q 775 591 1075 516 
Q 1375 441 1709 441 
Q 2250 441 2565 725 
Q 2881 1009 2881 1497 
Q 2881 1984 2565 2268 
Q 2250 2553 1709 2553 
Q 1456 2553 1204 2497 
Q 953 2441 691 2322 
L 691 4666 
z
" transform="scale(0.015625)"/>
       </defs>
       <use xlink:href="#DejaVuSans-2212"/>
       <use xlink:href="#DejaVuSans-35" transform="translate(83.789062 0)"/>
      </g>
     </g>
    </g>
    <g id="xtick_2">
     <g id="line2d_2">
      <g>
       <use xlink:href="#m365732ad1f" x="109.346364" y="246.76" style="fill: #444444; stroke: #444444; stroke-width: 0.8"/>
      </g>
     </g>
     <g id="text_3">
      <!-- 0 -->
      <g style="fill: #444444" transform="translate(106.165114 261.358437) scale(0.1 -0.1)">
       <defs>
        <path id="DejaVuSans-30" d="M 2034 4250 
Q 1547 4250 1301 3770 
Q 1056 3291 1056 2328 
Q 1056 1369 1301 889 
Q 1547 409 2034 409 
Q 2525 409 2770 889 
Q 3016 1369 3016 2328 
Q 3016 3291 2770 3770 
Q 2525 4250 2034 4250 
z
M 2034 4750 
Q 2819 4750 3233 4129 
Q 3647 3509 3647 2328 
Q 3647 1150 3233 529 
Q 2819 -91 2034 -91 
Q 1250 -91 836 529 
Q 422 1150 422 2328 
Q 422 3509 836 4129 
Q 1250 4750 2034 4750 
z
" transform="scale(0.015625)"/>
       </defs>
       <use xlink:href="#DejaVuSans-30"/>
      </g>
     </g>
    </g>
    <g id="xtick_3">
     <g id="line2d_3">
      <g>
       <use xlink:href="#m365732ad1f" x="154.650909" y="246.76" style="fill: #444444; stroke: #444444; stroke-width: 0.8"/>
      </g>
     </g>
     <g id="text_4">
      <!-- 5 -->
      <g style="fill: #444444" transform="translate(151.469659 261.358437) scale(0.1 -0.1)">
       <use xlink:href="#DejaVuSans-35"/>
      </g>
     </g>
    </g>
    <g id="xtick_4">
     <g id="line2d_4">
      <g>
       <use xlink:href="#m365732ad1f" x="199.955455" y="246.76" style="fill: #444444; stroke: #444444; stroke-width: 0.8"/>
      </g>
     </g>
     <g id="text_5">
      <!-- 10 -->
      <g style="fill: #444444" transform="translate(193.592955 261.358437) scale(0.1 -0.1)">
       <defs>
        <path id="DejaVuSans-31" d="M 794 531 
L 1825 531 
L 1825 4091 
L 703 3866 
L 703 4441 
L 1819 4666 
L 2450 4666 
L 2450 531 
L 3481 531 
L 3481 0 
L 794 0 
L 794 531 
z
" transform="scale(0.015625)"/>
       </defs>
       <use xlink:href="#DejaVuSans-31"/>
       <use xlink:href="#DejaVuSans-30" transform="translate(63.623047 0)"/>
      </g>
     </g>
    </g>
    <g id="xtick_5">
     <g id="line2d_5">
      <g>
       <use xlink:href="#m365732ad1f" x="245.26" y="246.76" style="fill: #444444; stroke: #444444; stroke-width: 0.8"/>
      </g>
     </g>
     <g id="text_6">
      <!-- 15 -->
      <g style="fill: #444444" transform="translate(238.8975 261.358437) scale(0.1 -0.1)">
       <use xlink:href="#DejaVuSans-31"/>
       <use xlink:href="#DejaVuSans-35" transform="translate(63.623047 0)"/>
      </g>
     </g>
    </g>
    <g id="xtick_6">
     <g id="line2d_6">
      <g>
       <use xlink:href="#m365732ad1f" x="290.564545" y="246.76" style="fill: #444444; stroke: #444444; stroke-width: 0.8"/>
      </g>
     </g>
     <g id="text_7">
      <!-- 20 -->
      <g style="fill: #444444" transform="translate(284.202045 261.358437) scale(0.1 -0.1)">
       <defs>
        <path id="DejaVuSans-32" d="M 1228 531 
L 3431 531 
L 3431 0 
L 469 0 
L 469 531 
Q 828 903 1448 1529 
Q 2069 2156 2228 2338 
Q 2531 2678 2651 2914 
Q 2772 3150 2772 3378 
Q 2772 3750 2511 3984 
Q 2250 4219 1831 4219 
Q 1534 4219 1204 4116 
Q 875 4013 500 3803 
L 500 4441 
Q 881 4594 1212 4672 
Q 1544 4750 1819 4750 
Q 2544 4750 2975 4387 
Q 3406 4025 3406 3419 
Q 3406 3131 3298 2873 
Q 3191 2616 2906 2266 
Q 2828 2175 2409 1742 
Q 1991 1309 1228 531 
z
" transform="scale(0.015625)"/>
       </defs>
       <use xlink:href="#DejaVuSans-32"/>
       <use xlink:href="#DejaVuSans-30" transform="translate(63.623047 0)"/>
      </g>
     </g>
    </g>
    <g id="xtick_7">
     <g id="line2d_7">
      <g>
       <use xlink:href="#m365732ad1f" x="335.869091" y="246.76" style="fill: #444444; stroke: #444444; stroke-width: 0.8"/>
      </g>
     </g>
     <g id="text_8">
      <!-- 25 -->
      <g style="fill: #444444" transform="translate(329.506591 261.358437) scale(0.1 -0.1)">
       <use xlink:href="#DejaVuSans-32"/>
       <use xlink:href="#DejaVuSans-35" transform="translate(63.623047 0)"/>
      </g>
     </g>
    </g>
    <g id="xtick_8">
     <g id="line2d_8">
      <g>
       <use xlink:href="#m365732ad1f" x="381.173636" y="246.76" style="fill: #444444; stroke: #444444; stroke-width: 0.8"/>
      </g>
     </g>
     <g id="text_9">
      <!-- 30 -->
      <g style="fill: #444444" transform="translate(374.811136 261.358437) scale(0.1 -0.1)">
       <defs>
        <path id="DejaVuSans-33" d="M 2597 2516 
Q 3050 2419 3304 2112 
Q 3559 1806 3559 1356 
Q 3559 666 3084 287 
Q 2609 -91 1734 -91 
Q 1441 -91 1130 -33 
Q 819 25 488 141 
L 488 750 
Q 750 597 1062 519 
Q 1375 441 1716 441 
Q 2309 441 2620 675 
Q 2931 909 2931 1356 
Q 2931 1769 2642 2001 
Q 2353 2234 1838 2234 
L 1294 2234 
L 1294 2753 
L 1863 2753 
Q 2328 2753 2575 2939 
Q 2822 3125 2822 3475 
Q 2822 3834 2567 4026 
Q 2313 4219 1838 4219 
Q 1578 4219 1281 4162 
Q 984 4106 628 3988 
L 628 4550 
Q 988 4650 1302 4700 
Q 1616 4750 1894 4750 
Q 2613 4750 3031 4423 
Q 3450 4097 3450 3541 
Q 3450 3153 3228 2886 
Q 3006 2619 2597 2516 
z
" transform="scale(0.015625)"/>
       </defs>
       <use xlink:href="#DejaVuSans-33"/>
       <use xlink:href="#DejaVuSans-30" transform="translate(63.623047 0)"/>
      </g>
     </g>
    </g>
    <g id="xtick_9">
     <g id="line2d_9">
      <g>
       <use xlink:href="#m365732ad1f" x="426.478182" y="246.76" style="fill: #444444; stroke: #444444; stroke-width: 0.8"/>
      </g>
     </g>
     <g id="text_10">
      <!-- 35 -->
      <g style="fill: #444444" transform="translate(420.115682 261.358437) scale(0.1 -0.1)">
       <use xlink:href="#DejaVuSans-33"/>
       <use xlink:href="#DejaVuSans-35" transform="translate(63.623047 0)"/>
      </g>
     </g>
    </g>
    <g id="text_11">
     <!-- time (s) -->
     <g style="fill: #444444" transform="translate(227.807734 274.276719) scale(0.09 -0.09)">
      <defs>
       <path id="DejaVuSans-74" d="M 1172 4494 
L 1172 3500 
L 2356 3500 
L 2356 3053 
L 1172 3053 
L 1172 1153 
Q 1172 725 1289 603 
Q 1406 481 1766 481 
L 2356 481 
L 2356 0 
L 1766 0 
Q 1100 0 847 248 
Q 594 497 594 1153 
L 594 3053 
L 172 3053 
L 172 3500 
L 594 3500 
L 594 4494 
L 1172 4494 
z
" transform="scale(0.015625)"/>
       <path id="DejaVuSans-69" d="M 603 3500 
L 1178 3500 
L 1178 0 
L 603 0 
L 603 3500 
z
M 603 4863 
L 1178 4863 
L 1178 4134 
L 603 4134 
L 603 4863 
z
" transform="scale(0.015625)"/>
       <path id="DejaVuSans-6d" d="M 3328 2828 
Q 3544 3216 3844 3400 
Q 4144 3584 4550 3584 
Q 5097 3584 5394 3201 
Q 5691 2819 5691 2113 
L 5691 0 
L 5113 0 
L 5113 2094 
Q 5113 2597 4934 2840 
Q 4756 3084 4391 3084 
Q 3944 3084 3684 2787 
Q 3425 2491 3425 1978 
L 3425 0 
L 2847 0 
L 2847 2094 
Q 2847 2600 2669 2842 
Q 2491 3084 2119 3084 
Q 1678 3084 1418 2786 
Q 1159 2488 1159 1978 
L 1159 0 
L 581 0 
L 581 3500 
L 1159 3500 
L 1159 2956 
Q 1356 3278 1631 3431 
Q 1906 3584 2284 3584 
Q 2666 3584 2933 3390 
Q 3200 3197 3328 2828 
z
" transform="scale(0.015625)"/>
       <path id="DejaVuSans-65" d="M 3597 1894 
L 3597 1613 
L 953 1613 
Q 991 1019 1311 708 
Q 1631 397 2203 397 
Q 2534 397 2845 478 
Q 3156 559 3463 722 
L 3463 178 
Q 3153 47 2828 -22 
Q 2503 -91 2169 -91 
Q 1331 -91 842 396 
Q 353 884 353 1716 
Q 353 2575 817 3079 
Q 1281 3584 2069 3584 
Q 2775 3584 3186 3129 
Q 3597 2675 3597 1894 
z
M 3022 2063 
Q 3016 2534 2758 2815 
Q 2500 3097 2075 3097 
Q 1594 3097 1305 2825 
Q 1016 2553 972 2059 
L 3022 2063 
z
" transform="scale(0.015625)"/>
       <path id="DejaVuSans-20" transform="scale(0.015625)"/>
       <path id="DejaVuSans-28" d="M 1984 4856 
Q 1566 4138 1362 3434 
Q 1159 2731 1159 2009 
Q 1159 1288 1364 580 
Q 1569 -128 1984 -844 
L 1484 -844 
Q 1016 -109 783 600 
Q 550 1309 550 2009 
Q 550 2706 781 3412 
Q 1013 4119 1484 4856 
L 1984 4856 
z
" transform="scale(0.015625)"/>
       <path id="DejaVuSans-73" d="M 2834 3397 
L 2834 2853 
Q 2591 2978 2328 3040 
Q 2066 3103 1784 3103 
Q 1356 3103 1142 2972 
Q 928 2841 928 2578 
Q 928 2378 1081 2264 
Q 1234 2150 1697 2047 
L 1894 2003 
Q 2506 1872 2764 1633 
Q 3022 1394 3022 966 
Q 3022 478 2636 193 
Q 2250 -91 1575 -91 
Q 1294 -91 989 -36 
Q 684 19 347 128 
L 347 722 
Q 666 556 975 473 
Q 1284 391 1588 391 
Q 1994 391 2212 530 
Q 2431 669 2431 922 
Q 2431 1156 2273 1281 
Q 2116 1406 1581 1522 
L 1381 1569 
Q 847 1681 609 1914 
Q 372 2147 372 2553 
Q 372 3047 722 3315 
Q 1072 3584 1716 3584 
Q 2034 3584 2315 3537 
Q 2597 3491 2834 3397 
z
" transform="scale(0.015625)"/>
       <path id="DejaVuSans-29" d="M 513 4856 
L 1013 4856 
Q 1481 4119 1714 3412 
Q 1947 2706 1947 2009 
Q 1947 1309 1714 600 
Q 1481 -109 1013 -844 
L 513 -844 
Q 928 -128 1133 580 
Q 1338 1288 1338 2009 
Q 1338 2731 1133 3434 
Q 928 4138 513 4856 
z
" transform="scale(0.015625)"/>
      </defs>
      <use xlink:href="#DejaVuSans-74"/>
      <use xlink:href="#DejaVuSans-69" transform="translate(39.208984 0)"/>
      <use xlink:href="#DejaVuSans-6d" transform="translate(66.992188 0)"/>
      <use xlink:href="#DejaVuSans-65" transform="translate(164.404297 0)"/>
      <use xlink:href="#DejaVuSans-20" transform="translate(225.927734 0)"/>
      <use xlink:href="#DejaVuSans-28" transform="translate(257.714844 0)"/>
      <use xlink:href="#DejaVuSans-73" transform="translate(296.728516 0)"/>
      <use xlink:href="#DejaVuSans-29" transform="translate(348.828125 0)"/>
     </g>
    </g>
   </g>
   <g id="matplotlib.axis_2">
    <g id="ytick_1">
     <g id="line2d_10">
      <defs>
       <path id="m57111ea78f" d="M 0 0 
L -3.5 0 
" style="stroke: #444444; stroke-width: 0.8"/>
      </defs>
      <g>
       <use xlink:href="#m57111ea78f" x="45.92" y="221.723902" style="fill: #444444; stroke: #444444; stroke-width: 0.8"/>
      </g>
     </g>
     <g id="text_12">
      <!-- −1 -->
      <g style="fill: #444444" transform="translate(24.177813 225.523121) scale(0.1 -0.1)">
       <use xlink:href="#DejaVuSans-2212"/>
       <use xlink:href="#DejaVuSans-31" transform="translate(83.789062 0)"/>
      </g>
     </g>
    </g>
    <g id="ytick_2">
     <g id="line2d_11">
      <g>
       <use xlink:href="#m57111ea78f" x="45.92" y="188.515401" style="fill: #444444; stroke: #444444; stroke-width: 0.8"/>
      </g>
     </g>
     <g id="text_13">
      <!-- 0 -->
      <g style="fill: #444444" transform="translate(32.5575 192.31462) scale(0.1 -0.1)">
       <use xlink:href="#DejaVuSans-30"/>
      </g>
     </g>
    </g>
    <g id="ytick_3">
     <g id="line2d_12">
      <g>
       <use xlink:href="#m57111ea78f" x="45.92" y="155.3069" style="fill: #444444; stroke: #444444; stroke-width: 0.8"/>
      </g>
     </g>
     <g id="text_14">
      <!-- 1 -->
      <g style="fill: #444444" transform="translate(32.5575 159.106119) scale(0.1 -0.1)">
       <use xlink:href="#DejaVuSans-31"/>
      </g>
     </g>
    </g>
    <g id="ytick_4">
     <g id="line2d_13">
      <g>
       <use xlink:href="#m57111ea78f" x="45.92" y="122.098399" style="fill: #444444; stroke: #444444; stroke-width: 0.8"/>
      </g>
     </g>
     <g id="text_15">
      <!-- 2 -->
      <g style="fill: #444444" transform="translate(32.5575 125.897618) scale(0.1 -0.1)">
       <use xlink:href="#DejaVuSans-32"/>
      </g>
     </g>
    </g>
    <g id="ytick_5">
     <g id="line2d_14">
      <g>
       <use xlink:href="#m57111ea78f" x="45.92" y="88.889898" style="fill: #444444; stroke: #444444; stroke-width: 0.8"/>
      </g>
     </g>
     <g id="text_16">
      <!-- 3 -->
      <g style="fill: #444444" transform="translate(32.5575 92.689117) scale(0.1 -0.1)">
       <use xlink:href="#DejaVuSans-33"/>
      </g>
     </g>
    </g>
    <g id="ytick_6">
     <g id="line2d_15">
      <g>
       <use xlink:href="#m57111ea78f" x="45.92" y="55.681397" style="fill: #444444; stroke: #444444; stroke-width: 0.8"/>
      </g>
     </g>
     <g id="text_17">
      <!-- 4 -->
      <g style="fill: #444444" transform="translate(32.5575 59.480616) scale(0.1 -0.1)">
       <defs>
        <path id="DejaVuSans-34" d="M 2419 4116 
L 825 1625 
L 2419 1625 
L 2419 4116 
z
M 2253 4666 
L 3047 4666 
L 3047 1625 
L 3713 1625 
L 3713 1100 
L 3047 1100 
L 3047 0 
L 2419 0 
L 2419 1100 
L 313 1100 
L 313 1709 
L 2253 4666 
z
" transform="scale(0.015625)"/>
       </defs>
       <use xlink:href="#DejaVuSans-34"/>
      </g>
     </g>
    </g>
    <g id="text_18">
     <!-- z-score -->
     <g style="fill: #444444" transform="translate(18.306094 151.814844) rotate(-90) scale(0.09 -0.09)">
      <defs>
       <path id="DejaVuSans-7a" d="M 353 3500 
L 3084 3500 
L 3084 2975 
L 922 459 
L 3084 459 
L 3084 0 
L 275 0 
L 275 525 
L 2438 3041 
L 353 3041 
L 353 3500 
z
" transform="scale(0.015625)"/>
       <path id="DejaVuSans-2d" d="M 313 2009 
L 1997 2009 
L 1997 1497 
L 313 1497 
L 313 2009 
z
" transform="scale(0.015625)"/>
       <path id="DejaVuSans-63" d="M 3122 3366 
L 3122 2828 
Q 2878 2963 2633 3030 
Q 2388 3097 2138 3097 
Q 1578 3097 1268 2742 
Q 959 2388 959 1747 
Q 959 1106 1268 751 
Q 1578 397 2138 397 
Q 2388 397 2633 464 
Q 2878 531 3122 666 
L 3122 134 
Q 2881 22 2623 -34 
Q 2366 -91 2075 -91 
Q 1284 -91 818 406 
Q 353 903 353 1747 
Q 353 2603 823 3093 
Q 1294 3584 2113 3584 
Q 2378 3584 2631 3529 
Q 2884 3475 3122 3366 
z
" transform="scale(0.015625)"/>
       <path id="DejaVuSans-6f" d="M 1959 3097 
Q 1497 3097 1228 2736 
Q 959 2375 959 1747 
Q 959 1119 1226 758 
Q 1494 397 1959 397 
Q 2419 397 2687 759 
Q 2956 1122 2956 1747 
Q 2956 2369 2687 2733 
Q 2419 3097 1959 3097 
z
M 1959 3584 
Q 2709 3584 3137 3096 
Q 3566 2609 3566 1747 
Q 3566 888 3137 398 
Q 2709 -91 1959 -91 
Q 1206 -91 779 398 
Q 353 888 353 1747 
Q 353 2609 779 3096 
Q 1206 3584 1959 3584 
z
" transform="scale(0.015625)"/>
       <path id="DejaVuSans-72" d="M 2631 2963 
Q 2534 3019 2420 3045 
Q 2306 3072 2169 3072 
Q 1681 3072 1420 2755 
Q 1159 2438 1159 1844 
L 1159 0 
L 581 0 
L 581 3500 
L 1159 3500 
L 1159 2956 
Q 1341 3275 1631 3429 
Q 1922 3584 2338 3584 
Q 2397 3584 2469 3576 
Q 2541 3569 2628 3553 
L 2631 2963 
z
" transform="scale(0.015625)"/>
      </defs>
      <use xlink:href="#DejaVuSans-7a"/>
      <use xlink:href="#DejaVuSans-2d" transform="translate(52.490234 0)"/>
      <use xlink:href="#DejaVuSans-73" transform="translate(88.574219 0)"/>
      <use xlink:href="#DejaVuSans-63" transform="translate(140.673828 0)"/>
      <use xlink:href="#DejaVuSans-6f" transform="translate(195.654297 0)"/>
      <use xlink:href="#DejaVuSans-72" transform="translate(256.835938 0)"/>
      <use xlink:href="#DejaVuSans-65" transform="translate(295.699219 0)"/>
     </g>
    </g>
   </g>
   <g id="line2d_16">
    <path d="M 109.346364 191.148034 
L 109.648394 183.202585 
L 109.950424 178.894915 
L 110.252455 196.89388 
L 110.554485 176.272697 
L 110.856515 181.785431 
L 111.158545 175.15409 
L 111.460576 180.53878 
L 111.762606 169.590963 
L 112.064636 193.325279 
L 112.366667 161.04336 
L 112.668697 166.900443 
L 112.970727 186.96096 
L 113.272758 171.344756 
L 113.574788 172.792187 
L 113.876818 197.105647 
L 114.178848 168.654186 
L 114.480879 181.034667 
L 114.782909 175.691316 
L 115.084939 178.234791 
L 115.38697 174.546582 
L 115.689 166.962052 
L 115.99103 164.7815 
L 116.293061 182.020941 
L 116.595091 164.898016 
L 116.897121 175.163962 
L 117.199152 171.945119 
L 117.803212 142.174181 
L 118.105242 142.087771 
L 118.407273 153.648569 
L 119.011333 150.348886 
L 119.615394 123.620915 
L 119.917424 131.082827 
L 120.219455 119.971602 
L 120.521485 121.046702 
L 120.823515 103.889869 
L 121.125545 141.342209 
L 121.427576 139.43302 
L 121.729606 113.631713 
L 122.031636 100.619756 
L 122.333667 109.531486 
L 122.635697 96.617764 
L 122.937727 112.09632 
L 123.239758 110.083671 
L 123.541788 100.881511 
L 123.843818 80.015149 
L 124.145848 79.091834 
L 124.447879 93.034143 
L 124.749909 80.379189 
L 125.051939 87.94753 
L 125.35397 78.333611 
L 125.656 89.885645 
L 125.95803 76.074989 
L 126.260061 82.926765 
L 126.562091 73.981225 
L 126.864121 80.390249 
L 127.166152 81.968434 
L 127.468182 70.967239 
L 127.770212 76.34354 
L 128.072242 72.55969 
L 128.374273 78.336652 
L 128.676303 67.241596 
L 128.978333 85.014573 
L 129.280364 67.999031 
L 129.582394 63.085261 
L 129.884424 83.546105 
L 130.186455 62.199418 
L 130.488485 61.152892 
L 131.092545 105.573233 
L 131.394576 111.331938 
L 131.696606 97.488962 
L 131.998636 77.814649 
L 132.300667 94.888623 
L 132.602697 95.949107 
L 132.904727 110.934599 
L 133.206758 119.974456 
L 133.508788 110.341234 
L 133.810818 130.9058 
L 134.414879 118.771584 
L 134.716909 127.60595 
L 135.018939 125.195623 
L 135.32097 139.691151 
L 135.623 130.70473 
L 135.92503 136.02868 
L 136.227061 162.896796 
L 136.529091 158.73484 
L 136.831121 157.829148 
L 137.133152 144.495452 
L 137.435182 151.190329 
L 138.039242 157.523266 
L 138.341273 154.377102 
L 138.643303 152.911203 
L 139.247364 186.286956 
L 139.549394 161.814677 
L 139.851424 173.667459 
L 140.153455 172.218151 
L 140.455485 176.250722 
L 140.757515 188.503724 
L 141.059545 194.372943 
L 141.361576 166.753903 
L 141.663606 166.312865 
L 141.965636 169.163889 
L 142.267667 178.455484 
L 142.569697 178.565913 
L 142.871727 187.294969 
L 143.173758 182.30645 
L 143.475788 188.387245 
L 143.777818 190.573897 
L 144.079848 182.364894 
L 144.381879 165.458261 
L 144.683909 207.486847 
L 144.985939 178.9602 
L 145.28797 178.416984 
L 145.59 200.668469 
L 145.89203 183.161745 
L 146.194061 185.847007 
L 146.496091 192.617065 
L 146.798121 193.166126 
L 147.100152 203.893404 
L 147.402182 167.84032 
L 147.704212 160.513628 
L 148.006242 169.462564 
L 148.308273 191.334382 
L 148.610303 184.745592 
L 148.912333 183.74817 
L 149.214364 197.638467 
L 149.516394 191.243827 
L 149.818424 182.083647 
L 150.120455 193.218408 
L 150.422485 208.802574 
L 150.724515 203.113626 
L 151.026545 185.434304 
L 151.328576 192.334823 
L 151.630606 191.90043 
L 151.932636 172.68656 
L 152.234667 187.473117 
L 152.536697 196.807026 
L 152.838727 189.231478 
L 153.140758 163.401865 
L 153.442788 201.581742 
L 153.744818 167.72395 
L 154.046848 171.741905 
L 154.348879 190.361562 
L 154.650909 192.407498 
L 154.952939 172.014905 
L 155.557 194.678854 
L 155.85903 167.324305 
L 156.161061 186.483098 
L 156.463091 184.65151 
L 157.067152 192.015359 
L 157.369182 187.07009 
L 157.671212 192.815633 
L 157.973242 182.615277 
L 158.275273 176.247012 
L 158.577303 175.901475 
L 158.879333 174.66732 
L 159.181364 171.133173 
L 159.483394 179.669569 
L 159.785424 195.541032 
L 160.087455 177.332081 
L 160.389485 207.683927 
L 160.993545 185.145003 
L 161.295576 208.069744 
L 161.597606 171.407707 
L 161.899636 200.339968 
L 162.201667 205.924284 
L 162.503697 197.365458 
L 162.805727 197.395445 
L 163.107758 188.820883 
L 163.409788 190.351059 
L 163.711818 176.53116 
L 164.013848 190.449914 
L 164.315879 186.474969 
L 164.617909 200.0219 
L 164.919939 182.735888 
L 165.524 211.160359 
L 165.82603 173.360957 
L 166.128061 200.794281 
L 166.430091 201.18098 
L 166.732121 198.704986 
L 167.034152 180.947476 
L 167.336182 206.222144 
L 168.242273 166.46732 
L 168.544303 191.882404 
L 168.846333 187.866531 
L 169.148364 198.595432 
L 169.450394 165.48691 
L 169.752424 190.149201 
L 170.054455 189.24257 
L 170.356485 186.810098 
L 170.658515 199.163532 
L 170.960545 188.633895 
L 171.262576 203.174985 
L 171.564606 171.210626 
L 171.866636 190.252723 
L 172.168667 190.431618 
L 172.470697 174.937491 
L 172.772727 202.647264 
L 173.074758 172.228633 
L 173.376788 170.821957 
L 173.678818 197.456529 
L 173.980848 180.48686 
L 174.282879 189.649525 
L 174.584909 178.255745 
L 175.18897 198.978039 
L 175.491 181.214881 
L 175.79303 191.054734 
L 176.095061 186.432047 
L 176.397091 177.166252 
L 176.699121 174.390294 
L 177.001152 181.20227 
L 177.303182 205.032993 
L 177.605212 180.444033 
L 177.907242 192.008124 
L 178.209273 176.052677 
L 178.511303 190.791664 
L 178.813333 171.941055 
L 179.115364 182.540366 
L 179.417394 188.514612 
L 179.719424 185.1067 
L 180.021455 209.01804 
L 180.323485 181.846054 
L 180.625515 187.179446 
L 180.927545 201.263454 
L 181.229576 183.784831 
L 181.531606 184.804677 
L 181.833636 184.358786 
L 182.135667 189.856617 
L 182.437697 179.350479 
L 182.739727 179.200212 
L 183.041758 187.42759 
L 183.343788 189.225742 
L 183.645818 193.789861 
L 183.947848 195.431885 
L 184.249879 181.404901 
L 184.853939 204.929637 
L 185.15597 185.656617 
L 185.458 175.643927 
L 185.76003 191.695521 
L 186.062061 178.424153 
L 186.364091 182.918956 
L 186.666121 200.233618 
L 186.968152 184.767343 
L 187.270182 189.781042 
L 187.572212 180.58593 
L 187.874242 220.89265 
L 188.176273 178.853282 
L 188.478303 179.897983 
L 188.780333 199.263788 
L 189.082364 176.081853 
L 189.384394 190.274041 
L 189.686424 186.370937 
L 190.290485 172.864616 
L 190.592515 186.497597 
L 190.894545 180.515405 
L 191.196576 183.328455 
L 191.498606 196.93996 
L 191.800636 169.395999 
L 192.404697 186.69408 
L 192.706727 175.916701 
L 193.008758 182.076453 
L 193.310788 194.81719 
L 193.612818 176.698399 
L 193.914848 187.603476 
L 194.216879 181.120526 
L 194.518909 177.209911 
L 194.820939 177.293904 
L 195.12297 166.441476 
L 195.425 185.978137 
L 195.72703 190.220364 
L 196.029061 196.687989 
L 196.331091 195.521611 
L 196.633121 180.459644 
L 196.935152 183.268933 
L 197.237182 198.216254 
L 197.841242 193.263056 
L 198.143273 170.041264 
L 198.445303 198.944447 
L 198.747333 183.897903 
L 199.049364 206.99378 
L 199.653424 171.970011 
L 199.955455 202.581917 
L 200.257485 174.680094 
L 200.559515 209.97377 
L 200.861545 187.40794 
L 201.163576 200.874451 
L 201.465606 188.294393 
L 201.767636 190.856383 
L 202.069667 178.62335 
L 202.371697 184.924767 
L 202.673727 186.116982 
L 202.975758 194.368904 
L 203.277788 182.860134 
L 203.579818 197.333665 
L 203.881848 195.511537 
L 204.183879 195.342973 
L 204.485909 181.478168 
L 204.787939 161.801841 
L 205.08997 188.814826 
L 205.392 165.764535 
L 205.69403 199.867847 
L 205.996061 195.000049 
L 206.298091 182.016758 
L 206.600121 180.982115 
L 206.902152 179.204591 
L 207.204182 169.72872 
L 207.506212 190.397935 
L 207.808242 175.439966 
L 208.110273 185.141743 
L 208.412303 220.834105 
L 208.714333 199.532195 
L 209.620424 181.827782 
L 209.922455 191.169737 
L 210.224485 172.752358 
L 210.526515 199.242833 
L 211.130576 177.299221 
L 211.432606 201.016556 
L 211.734636 173.395152 
L 212.036667 176.911116 
L 212.338697 189.851127 
L 212.640727 187.922699 
L 212.942758 188.984984 
L 213.244788 187.720482 
L 213.546818 173.508305 
L 213.848848 181.990407 
L 214.150879 203.947074 
L 214.452909 205.867746 
L 214.754939 180.990566 
L 215.05697 218.474958 
L 215.66103 195.149826 
L 215.963061 188.326368 
L 216.265091 172.395087 
L 216.567121 186.032794 
L 216.869152 147.334761 
L 217.171182 185.612107 
L 217.473212 178.16498 
L 217.775242 176.322044 
L 218.077273 189.35016 
L 218.379303 177.070456 
L 218.983364 185.388629 
L 219.285394 195.475925 
L 219.587424 193.094555 
L 219.889455 178.893132 
L 220.191485 188.553635 
L 220.493515 183.457682 
L 220.795545 183.453232 
L 221.097576 184.910928 
L 221.399606 187.967323 
L 221.701636 181.320768 
L 222.003667 178.50282 
L 222.305697 172.196829 
L 222.909758 194.663702 
L 223.211788 195.97991 
L 223.513818 180.738245 
L 223.815848 205.811039 
L 224.117879 194.154304 
L 224.419909 176.067595 
L 224.721939 191.959105 
L 225.02397 195.707659 
L 225.326 173.843305 
L 225.62803 218.88823 
L 225.930061 189.015704 
L 226.232091 193.436148 
L 226.534121 193.796834 
L 226.836152 177.61152 
L 227.138182 170.750191 
L 227.440212 174.99696 
L 227.742242 180.920462 
L 228.044273 184.354745 
L 228.346303 190.94652 
L 228.648333 188.090928 
L 228.950364 206.919627 
L 229.554424 181.219086 
L 229.856455 189.521032 
L 230.158485 178.566481 
L 230.460515 206.142476 
L 230.762545 194.640741 
L 231.064576 199.734388 
L 231.366606 175.93183 
L 231.668636 191.17116 
L 231.970667 191.529317 
L 232.272697 202.289608 
L 232.574727 193.956716 
L 232.876758 199.821072 
L 233.178788 194.740276 
L 233.480818 162.967007 
L 233.782848 201.495882 
L 234.084879 191.157351 
L 234.386909 198.498258 
L 234.688939 173.037776 
L 234.99097 199.417773 
L 235.293 198.214531 
L 235.897061 168.98833 
L 236.199091 185.500544 
L 236.501121 194.789011 
L 236.803152 217.794761 
L 237.105182 230.15575 
L 237.407212 189.153749 
L 237.709242 187.922986 
L 238.011273 174.536905 
L 238.615333 191.238134 
L 238.917364 173.363304 
L 239.219394 168.176502 
L 239.521424 195.768186 
L 239.823455 177.414576 
L 240.125485 174.307413 
L 240.427515 196.989126 
L 240.729545 181.550223 
L 241.031576 188.440059 
L 241.333606 174.408781 
L 241.635636 175.140997 
L 241.937667 212.531115 
L 242.541727 171.861123 
L 242.843758 181.781323 
L 243.145788 199.518845 
L 243.447818 193.059403 
L 243.749848 199.786298 
L 244.051879 183.404786 
L 244.353909 202.143929 
L 244.655939 172.654576 
L 244.95797 176.772402 
L 245.26 166.844567 
L 245.56203 173.560237 
L 245.864061 173.886001 
L 246.166091 174.709003 
L 246.468121 178.25494 
L 246.770152 206.858149 
L 247.072182 177.473357 
L 247.676242 210.504294 
L 247.978273 163.748853 
L 248.582333 199.349033 
L 248.884364 176.053054 
L 249.186394 173.590586 
L 249.488424 175.318554 
L 249.790455 159.327658 
L 250.092485 188.078761 
L 250.394515 163.397388 
L 250.696545 183.734024 
L 250.998576 165.368314 
L 251.300606 161.645363 
L 251.602636 173.027652 
L 251.904667 136.225953 
L 252.206697 184.525804 
L 252.508727 178.639641 
L 252.810758 164.58469 
L 253.112788 167.200901 
L 253.414818 141.140374 
L 253.716848 158.542441 
L 254.018879 133.566409 
L 254.320909 151.410713 
L 254.622939 133.996205 
L 254.92497 131.08409 
L 255.227 135.953366 
L 255.52903 125.837327 
L 255.831061 126.865383 
L 256.133091 103.095058 
L 256.435121 96.693751 
L 256.737152 124.966956 
L 257.341212 100.833153 
L 257.643242 104.291745 
L 257.945273 84.687749 
L 258.247303 73.633632 
L 258.549333 124.160911 
L 259.153394 79.497443 
L 259.455424 85.925525 
L 259.757455 97.604791 
L 260.361515 82.735628 
L 260.663545 62.741451 
L 260.965576 91.022542 
L 261.569636 59.218925 
L 261.871667 62.820975 
L 262.173697 75.457703 
L 262.475727 76.231138 
L 262.777758 93.145279 
L 263.079788 91.862035 
L 263.381818 82.116146 
L 263.683848 62.240944 
L 263.985879 62.883754 
L 264.287909 57.928501 
L 264.589939 63.332631 
L 264.89197 66.259762 
L 265.194 74.548105 
L 265.49603 87.441124 
L 265.798061 65.829067 
L 266.402121 105.477922 
L 266.704152 81.579474 
L 267.006182 88.387262 
L 267.308212 63.882341 
L 267.610242 98.202237 
L 267.912273 94.037591 
L 268.214303 114.679386 
L 268.516333 96.500946 
L 268.818364 104.660288 
L 269.120394 120.526331 
L 269.422424 111.593153 
L 269.724455 132.649522 
L 270.026485 114.432836 
L 270.328515 129.879468 
L 270.630545 123.669321 
L 270.932576 141.732057 
L 271.234606 143.348787 
L 271.536636 139.420071 
L 271.838667 130.892843 
L 272.140697 142.091712 
L 272.442727 174.206008 
L 272.744758 141.524103 
L 273.046788 153.319067 
L 273.348818 147.215404 
L 273.650848 143.682452 
L 273.952879 149.81913 
L 274.254909 170.211782 
L 274.556939 168.056765 
L 274.85897 160.004018 
L 275.161 155.950927 
L 275.46303 178.504894 
L 275.765061 178.578083 
L 276.067091 184.268429 
L 276.369121 169.449012 
L 276.671152 183.925499 
L 276.973182 149.679624 
L 277.275212 168.168673 
L 277.577242 165.124778 
L 277.879273 172.826802 
L 278.181303 187.745432 
L 278.483333 211.352802 
L 278.785364 165.331405 
L 279.087394 179.413919 
L 279.389424 205.701708 
L 279.691455 151.042955 
L 279.993485 175.921201 
L 280.295515 166.431991 
L 280.899576 206.565182 
L 281.201606 195.30142 
L 281.503636 177.193972 
L 281.805667 211.382546 
L 282.409727 173.701858 
L 282.711758 174.760727 
L 283.013788 186.527404 
L 283.315818 217.551702 
L 283.919879 172.747611 
L 284.221909 177.698383 
L 284.523939 192.577968 
L 284.82597 183.589593 
L 285.128 181.350122 
L 285.43003 192.729962 
L 285.732061 196.778266 
L 286.034091 196.391947 
L 286.336121 198.064848 
L 286.638152 189.152922 
L 286.940182 188.756263 
L 287.242212 181.482928 
L 287.544242 181.448432 
L 287.846273 189.916942 
L 288.148303 213.295232 
L 288.450333 181.81608 
L 288.752364 198.789891 
L 289.054394 168.054174 
L 289.356424 191.855349 
L 289.658455 162.167194 
L 289.960485 180.870405 
L 290.262515 168.773987 
L 290.564545 186.006687 
L 290.866576 182.316286 
L 291.168606 193.243291 
L 291.470636 193.806988 
L 291.772667 193.801026 
L 292.074697 179.586416 
L 292.376727 201.42849 
L 292.678758 176.405457 
L 292.980788 191.350947 
L 293.282818 180.993211 
L 293.584848 199.76616 
L 293.886879 187.614972 
L 294.188909 208.208402 
L 294.490939 195.853177 
L 294.79297 190.679915 
L 295.095 200.207249 
L 295.39703 191.109621 
L 295.699061 187.088878 
L 296.001091 186.887072 
L 296.303121 212.243192 
L 296.605152 192.011896 
L 296.907182 190.978882 
L 297.209212 198.393041 
L 297.511242 199.686273 
L 297.813273 166.152133 
L 298.115303 178.758973 
L 298.719364 174.622608 
L 299.021394 199.402895 
L 299.323424 191.491867 
L 299.625455 209.084923 
L 299.927485 186.322212 
L 300.229515 210.770015 
L 300.833576 179.860164 
L 301.135606 182.237824 
L 301.437636 199.92267 
L 301.739667 198.960402 
L 302.041697 173.369191 
L 302.645758 194.376119 
L 302.947788 186.838347 
L 303.249818 187.075476 
L 303.551848 201.026829 
L 303.853879 194.956184 
L 304.155909 212.984385 
L 304.457939 185.748163 
L 304.75997 187.553328 
L 305.062 176.458372 
L 305.36403 176.548142 
L 305.666061 193.794329 
L 305.968091 169.907429 
L 306.270121 197.017985 
L 306.572152 177.592941 
L 306.874182 194.551673 
L 307.176212 195.73146 
L 307.478242 202.96634 
L 307.780273 189.239368 
L 308.082303 162.28734 
L 308.384333 186.703445 
L 308.686364 183.017045 
L 308.988394 192.460675 
L 309.290424 182.646565 
L 309.592455 181.249421 
L 309.894485 182.954794 
L 310.196515 172.513476 
L 310.498545 188.776661 
L 310.800576 183.621073 
L 311.102606 170.478413 
L 311.404636 181.198196 
L 311.706667 197.173042 
L 312.008697 173.623627 
L 312.310727 181.001144 
L 312.612758 197.812353 
L 312.914788 197.497199 
L 313.216818 192.999293 
L 313.518848 178.814468 
L 313.820879 184.517235 
L 314.122909 176.941064 
L 314.424939 159.697018 
L 314.72697 168.200214 
L 315.029 187.069311 
L 315.33103 196.071496 
L 315.633061 172.158835 
L 315.935091 196.581968 
L 316.237121 197.412051 
L 316.539152 189.689431 
L 316.841182 185.064517 
L 317.143212 191.324456 
L 317.445242 185.268165 
L 317.747273 219.602507 
L 318.049303 192.632133 
L 318.351333 187.942685 
L 318.653364 180.097489 
L 318.955394 184.282805 
L 319.257424 190.970099 
L 319.559455 159.336985 
L 319.861485 176.892651 
L 320.465545 184.663646 
L 320.767576 182.943213 
L 321.069606 197.815544 
L 321.371636 200.198878 
L 321.673667 185.609717 
L 321.975697 206.808211 
L 322.277727 181.385059 
L 322.579758 192.819162 
L 322.881788 180.073174 
L 323.183818 186.921512 
L 323.485848 197.923335 
L 323.787879 196.500727 
L 324.089909 193.102283 
L 324.391939 173.159587 
L 324.69397 172.296482 
L 324.996 190.502266 
L 325.29803 186.75831 
L 325.600061 197.578859 
L 325.902091 171.89861 
L 326.506152 195.814317 
L 326.808182 203.532795 
L 327.412242 166.551201 
L 327.714273 187.265994 
L 328.016303 198.729806 
L 328.318333 198.436909 
L 328.620364 194.974048 
L 328.922394 214.784625 
L 329.224424 177.939234 
L 329.828485 209.68388 
L 330.130515 222.534394 
L 330.432545 184.505382 
L 330.734576 186.020671 
L 331.036606 171.948958 
L 331.338636 176.910563 
L 331.942697 208.492983 
L 332.244727 186.098972 
L 332.546758 195.202805 
L 332.848788 187.532886 
L 333.150818 206.983596 
L 333.452848 192.001079 
L 333.754879 191.160218 
L 334.056909 203.430207 
L 334.66097 214.315503 
L 334.963 187.672971 
L 335.26503 174.557384 
L 335.567061 188.983815 
L 335.869091 218.50568 
L 336.171121 189.113235 
L 336.473152 208.042532 
L 337.077212 168.445585 
L 337.379242 184.499885 
L 337.681273 218.640988 
L 337.983303 176.387066 
L 338.285333 184.702352 
L 338.587364 166.666041 
L 338.889394 182.706361 
L 339.191424 180.492262 
L 339.493455 209.425363 
L 339.795485 171.967435 
L 340.097515 202.959173 
L 340.399545 211.972596 
L 340.701576 182.664787 
L 341.003606 180.070375 
L 341.305636 171.733582 
L 341.607667 175.140133 
L 341.909697 184.249328 
L 342.211727 184.690444 
L 342.513758 178.515676 
L 342.815788 184.338773 
L 343.117818 183.199046 
L 343.419848 212.15305 
L 343.721879 189.796669 
L 344.023909 192.797565 
L 344.325939 182.606018 
L 344.62797 197.762345 
L 344.93 177.637405 
L 345.23203 179.85944 
L 345.534061 201.608369 
L 345.836091 188.218778 
L 346.138121 182.196593 
L 346.742182 216.591389 
L 347.044212 191.421399 
L 347.346242 185.674605 
L 347.648273 188.315497 
L 347.950303 175.914872 
L 348.252333 185.051317 
L 348.554364 169.784405 
L 348.856394 195.144861 
L 349.158424 169.295742 
L 349.460455 191.898567 
L 349.762485 182.693091 
L 350.064515 210.370246 
L 350.366545 197.53812 
L 350.668576 174.681186 
L 350.970606 187.739134 
L 351.272636 188.394964 
L 351.574667 202.558868 
L 351.876697 179.271817 
L 352.178727 200.127358 
L 352.480758 171.489907 
L 352.782788 181.362683 
L 353.084818 195.050277 
L 353.386848 198.038404 
L 353.688879 194.632063 
L 353.990909 184.119819 
L 354.292939 185.604081 
L 354.59497 207.339491 
L 354.897 184.472148 
L 355.19903 201.006773 
L 355.501061 167.121499 
L 355.803091 210.499495 
L 356.105121 177.597988 
L 356.407152 202.429892 
L 356.709182 184.065034 
L 357.011212 174.741526 
L 357.313242 183.024286 
L 357.615273 202.208458 
L 357.917303 206.469727 
L 358.219333 171.295755 
L 358.521364 197.936293 
L 358.823394 179.396766 
L 359.125424 174.560535 
L 359.427455 207.820529 
L 359.729485 165.493315 
L 360.031515 189.99538 
L 360.333545 190.825757 
L 360.635576 200.001299 
L 360.937606 185.805918 
L 361.239636 182.891594 
L 361.541667 176.230561 
L 362.145727 176.514851 
L 362.447758 189.798264 
L 362.749788 189.583436 
L 363.051818 187.010015 
L 363.353848 186.288086 
L 363.655879 173.702984 
L 363.957909 177.751848 
L 364.56197 199.236811 
L 364.864 210.785721 
L 365.16603 191.048739 
L 365.468061 188.288735 
L 365.770091 210.344402 
L 366.072121 192.708378 
L 366.374152 185.555764 
L 366.676182 185.987941 
L 366.978212 204.983301 
L 367.280242 196.316637 
L 367.582273 205.509243 
L 367.884303 178.596128 
L 368.186333 185.286208 
L 368.488364 158.19783 
L 368.790394 195.519895 
L 369.092424 170.797737 
L 369.394455 188.135489 
L 369.696485 187.51996 
L 369.998515 176.225287 
L 370.300545 211.032971 
L 370.602576 202.435066 
L 370.904606 170.77706 
L 371.206636 176.811628 
L 371.508667 166.714079 
L 372.112727 194.064803 
L 372.414758 178.523842 
L 372.716788 193.588843 
L 373.018818 189.299491 
L 373.320848 189.923325 
L 373.622879 198.592968 
L 373.924909 163.817716 
L 374.226939 180.085845 
L 374.52897 186.933812 
L 374.831 183.91251 
L 375.13303 195.138748 
L 375.435061 192.83588 
L 375.737091 187.085852 
L 376.039121 184.718521 
L 376.341152 213.759504 
L 376.643182 173.170241 
L 376.945212 212.415519 
L 377.247242 199.766489 
L 377.549273 204.760178 
L 377.851303 187.279217 
L 378.153333 209.110842 
L 378.455364 177.016516 
L 378.757394 180.48296 
L 379.059424 177.713848 
L 379.361455 179.240551 
L 379.663485 192.386368 
L 379.965515 185.705545 
L 380.267545 199.778952 
L 380.569576 193.630583 
L 380.871606 183.499405 
L 380.871606 183.499405 
" clip-path="url(#pcd9d12f570)" style="fill: none; stroke: #3a3a3a; stroke-opacity: 0.85; stroke-width: 0.7; stroke-linecap: square"/>
   </g>
   <g id="patch_4">
    <path d="M 45.92 246.76 
L 45.92 24.72 
" style="fill: none; stroke: #444444; stroke-width: 0.8; stroke-linejoin: miter; stroke-linecap: square"/>
   </g>
   <g id="patch_5">
    <path d="M 45.92 246.76 
L 444.6 246.76 
" style="fill: none; stroke: #444444; stroke-width: 0.8; stroke-linejoin: miter; stroke-linecap: square"/>
   </g>
   <g id="line2d_17">
    <path d="M 127.468182 246.76 
L 127.468182 24.72 
" clip-path="url(#pcd9d12f570)" style="fill: none; stroke: #c0392b; stroke-opacity: 0.9; stroke-width: 1.3; stroke-linecap: square"/>
   </g>
   <g id="line2d_18">
    <path d="M 263.381818 246.76 
L 263.381818 24.72 
" clip-path="url(#pcd9d12f570)" style="fill: none; stroke: #2ca02c; stroke-opacity: 0.9; stroke-width: 1.3; stroke-linecap: square"/>
   </g>
   <g id="line2d_19">
    <path d="M 109.346364 246.76 
L 109.346364 24.72 
" clip-path="url(#pcd9d12f570)" style="fill: none; stroke: #000000; stroke-opacity: 0.75; stroke-width: 1.4; stroke-linecap: square"/>
   </g>
   <g id="line2d_20">
    <path d="M 381.173636 246.76 
L 381.173636 24.72 
" clip-path="url(#pcd9d12f570)" style="fill: none; stroke: #000000; stroke-opacity: 0.75; stroke-width: 1.4; stroke-linecap: square"/>
   </g>
   <g id="text_19">
    <!-- edge rejection: extraction window clips past recording bounds -->
    <g style="fill: #222222" transform="translate(45.92 18.72) scale(0.1 -0.1)">
     <defs>
      <path id="DejaVuSans-64" d="M 2906 2969 
L 2906 4863 
L 3481 4863 
L 3481 0 
L 2906 0 
L 2906 525 
Q 2725 213 2448 61 
Q 2172 -91 1784 -91 
Q 1150 -91 751 415 
Q 353 922 353 1747 
Q 353 2572 751 3078 
Q 1150 3584 1784 3584 
Q 2172 3584 2448 3432 
Q 2725 3281 2906 2969 
z
M 947 1747 
Q 947 1113 1208 752 
Q 1469 391 1925 391 
Q 2381 391 2643 752 
Q 2906 1113 2906 1747 
Q 2906 2381 2643 2742 
Q 2381 3103 1925 3103 
Q 1469 3103 1208 2742 
Q 947 2381 947 1747 
z
" transform="scale(0.015625)"/>
      <path id="DejaVuSans-67" d="M 2906 1791 
Q 2906 2416 2648 2759 
Q 2391 3103 1925 3103 
Q 1463 3103 1205 2759 
Q 947 2416 947 1791 
Q 947 1169 1205 825 
Q 1463 481 1925 481 
Q 2391 481 2648 825 
Q 2906 1169 2906 1791 
z
M 3481 434 
Q 3481 -459 3084 -895 
Q 2688 -1331 1869 -1331 
Q 1566 -1331 1297 -1286 
Q 1028 -1241 775 -1147 
L 775 -588 
Q 1028 -725 1275 -790 
Q 1522 -856 1778 -856 
Q 2344 -856 2625 -561 
Q 2906 -266 2906 331 
L 2906 616 
Q 2728 306 2450 153 
Q 2172 0 1784 0 
Q 1141 0 747 490 
Q 353 981 353 1791 
Q 353 2603 747 3093 
Q 1141 3584 1784 3584 
Q 2172 3584 2450 3431 
Q 2728 3278 2906 2969 
L 2906 3500 
L 3481 3500 
L 3481 434 
z
" transform="scale(0.015625)"/>
      <path id="DejaVuSans-6a" d="M 603 3500 
L 1178 3500 
L 1178 -63 
Q 1178 -731 923 -1031 
Q 669 -1331 103 -1331 
L -116 -1331 
L -116 -844 
L 38 -844 
Q 366 -844 484 -692 
Q 603 -541 603 -63 
L 603 3500 
z
M 603 4863 
L 1178 4863 
L 1178 4134 
L 603 4134 
L 603 4863 
z
" transform="scale(0.015625)"/>
      <path id="DejaVuSans-6e" d="M 3513 2113 
L 3513 0 
L 2938 0 
L 2938 2094 
Q 2938 2591 2744 2837 
Q 2550 3084 2163 3084 
Q 1697 3084 1428 2787 
Q 1159 2491 1159 1978 
L 1159 0 
L 581 0 
L 581 3500 
L 1159 3500 
L 1159 2956 
Q 1366 3272 1645 3428 
Q 1925 3584 2291 3584 
Q 2894 3584 3203 3211 
Q 3513 2838 3513 2113 
z
" transform="scale(0.015625)"/>
      <path id="DejaVuSans-3a" d="M 750 794 
L 1409 794 
L 1409 0 
L 750 0 
L 750 794 
z
M 750 3309 
L 1409 3309 
L 1409 2516 
L 750 2516 
L 750 3309 
z
" transform="scale(0.015625)"/>
      <path id="DejaVuSans-78" d="M 3513 3500 
L 2247 1797 
L 3578 0 
L 2900 0 
L 1881 1375 
L 863 0 
L 184 0 
L 1544 1831 
L 300 3500 
L 978 3500 
L 1906 2253 
L 2834 3500 
L 3513 3500 
z
" transform="scale(0.015625)"/>
      <path id="DejaVuSans-61" d="M 2194 1759 
Q 1497 1759 1228 1600 
Q 959 1441 959 1056 
Q 959 750 1161 570 
Q 1363 391 1709 391 
Q 2188 391 2477 730 
Q 2766 1069 2766 1631 
L 2766 1759 
L 2194 1759 
z
M 3341 1997 
L 3341 0 
L 2766 0 
L 2766 531 
Q 2569 213 2275 61 
Q 1981 -91 1556 -91 
Q 1019 -91 701 211 
Q 384 513 384 1019 
Q 384 1609 779 1909 
Q 1175 2209 1959 2209 
L 2766 2209 
L 2766 2266 
Q 2766 2663 2505 2880 
Q 2244 3097 1772 3097 
Q 1472 3097 1187 3025 
Q 903 2953 641 2809 
L 641 3341 
Q 956 3463 1253 3523 
Q 1550 3584 1831 3584 
Q 2591 3584 2966 3190 
Q 3341 2797 3341 1997 
z
" transform="scale(0.015625)"/>
      <path id="DejaVuSans-77" d="M 269 3500 
L 844 3500 
L 1563 769 
L 2278 3500 
L 2956 3500 
L 3675 769 
L 4391 3500 
L 4966 3500 
L 4050 0 
L 3372 0 
L 2619 2869 
L 1863 0 
L 1184 0 
L 269 3500 
z
" transform="scale(0.015625)"/>
      <path id="DejaVuSans-6c" d="M 603 4863 
L 1178 4863 
L 1178 0 
L 603 0 
L 603 4863 
z
" transform="scale(0.015625)"/>
      <path id="DejaVuSans-70" d="M 1159 525 
L 1159 -1331 
L 581 -1331 
L 581 3500 
L 1159 3500 
L 1159 2969 
Q 1341 3281 1617 3432 
Q 1894 3584 2278 3584 
Q 2916 3584 3314 3078 
Q 3713 2572 3713 1747 
Q 3713 922 3314 415 
Q 2916 -91 2278 -91 
Q 1894 -91 1617 61 
Q 1341 213 1159 525 
z
M 3116 1747 
Q 3116 2381 2855 2742 
Q 2594 3103 2138 3103 
Q 1681 3103 1420 2742 
Q 1159 2381 1159 1747 
Q 1159 1113 1420 752 
Q 1681 391 2138 391 
Q 2594 391 2855 752 
Q 3116 1113 3116 1747 
z
" transform="scale(0.015625)"/>
      <path id="DejaVuSans-62" d="M 3116 1747 
Q 3116 2381 2855 2742 
Q 2594 3103 2138 3103 
Q 1681 3103 1420 2742 
Q 1159 2381 1159 1747 
Q 1159 1113 1420 752 
Q 1681 391 2138 391 
Q 2594 391 2855 752 
Q 3116 1113 3116 1747 
z
M 1159 2969 
Q 1341 3281 1617 3432 
Q 1894 3584 2278 3584 
Q 2916 3584 3314 3078 
Q 3713 2572 3713 1747 
Q 3713 922 3314 415 
Q 2916 -91 2278 -91 
Q 1894 -91 1617 61 
Q 1341 213 1159 525 
L 1159 0 
L 581 0 
L 581 4863 
L 1159 4863 
L 1159 2969 
z
" transform="scale(0.015625)"/>
      <path id="DejaVuSans-75" d="M 544 1381 
L 544 3500 
L 1119 3500 
L 1119 1403 
Q 1119 906 1312 657 
Q 1506 409 1894 409 
Q 2359 409 2629 706 
Q 2900 1003 2900 1516 
L 2900 3500 
L 3475 3500 
L 3475 0 
L 2900 0 
L 2900 538 
Q 2691 219 2414 64 
Q 2138 -91 1772 -91 
Q 1169 -91 856 284 
Q 544 659 544 1381 
z
M 1991 3584 
L 1991 3584 
z
" transform="scale(0.015625)"/>
     </defs>
     <use xlink:href="#DejaVuSans-65"/>
     <use xlink:href="#DejaVuSans-64" transform="translate(61.523438 0)"/>
     <use xlink:href="#DejaVuSans-67" transform="translate(125 0)"/>
     <use xlink:href="#DejaVuSans-65" transform="translate(188.476562 0)"/>
     <use xlink:href="#DejaVuSans-20" transform="translate(250 0)"/>
     <use xlink:href="#DejaVuSans-72" transform="translate(281.787109 0)"/>
     <use xlink:href="#DejaVuSans-65" transform="translate(320.650391 0)"/>
     <use xlink:href="#DejaVuSans-6a" transform="translate(382.173828 0)"/>
     <use xlink:href="#DejaVuSans-65" transform="translate(409.957031 0)"/>
     <use xlink:href="#DejaVuSans-63" transform="translate(471.480469 0)"/>
     <use xlink:href="#DejaVuSans-74" transform="translate(526.460938 0)"/>
     <use xlink:href="#DejaVuSans-69" transform="translate(565.669922 0)"/>
     <use xlink:href="#DejaVuSans-6f" transform="translate(593.453125 0)"/>
     <use xlink:href="#DejaVuSans-6e" transform="translate(654.634766 0)"/>
     <use xlink:href="#DejaVuSans-3a" transform="translate(718.013672 0)"/>
     <use xlink:href="#DejaVuSans-20" transform="translate(751.705078 0)"/>
     <use xlink:href="#DejaVuSans-65" transform="translate(783.492188 0)"/>
     <use xlink:href="#DejaVuSans-78" transform="translate(843.265625 0)"/>
     <use xlink:href="#DejaVuSans-74" transform="translate(902.445312 0)"/>
     <use xlink:href="#DejaVuSans-72" transform="translate(941.654297 0)"/>
     <use xlink:href="#DejaVuSans-61" transform="translate(982.767578 0)"/>
     <use xlink:href="#DejaVuSans-63" transform="translate(1044.046875 0)"/>
     <use xlink:href="#DejaVuSans-74" transform="translate(1099.027344 0)"/>
     <use xlink:href="#DejaVuSans-69" transform="translate(1138.236328 0)"/>
     <use xlink:href="#DejaVuSans-6f" transform="translate(1166.019531 0)"/>
     <use xlink:href="#DejaVuSans-6e" transform="translate(1227.201172 0)"/>
     <use xlink:href="#DejaVuSans-20" transform="translate(1290.580078 0)"/>
     <use xlink:href="#DejaVuSans-77" transform="translate(1322.367188 0)"/>
     <use xlink:href="#DejaVuSans-69" transform="translate(1404.154297 0)"/>
     <use xlink:href="#DejaVuSans-6e" transform="translate(1431.9375 0)"/>
     <use xlink:href="#DejaVuSans-64" transform="translate(1495.316406 0)"/>
     <use xlink:href="#DejaVuSans-6f" transform="translate(1558.792969 0)"/>
     <use xlink:href="#DejaVuSans-77" transform="translate(1619.974609 0)"/>
     <use xlink:href="#DejaVuSans-20" transform="translate(1701.761719 0)"/>
     <use xlink:href="#DejaVuSans-63" transform="translate(1733.548828 0)"/>
     <use xlink:href="#DejaVuSans-6c" transform="translate(1788.529297 0)"/>
     <use xlink:href="#DejaVuSans-69" transform="translate(1816.3125 0)"/>
     <use xlink:href="#DejaVuSans-70" transform="translate(1844.095703 0)"/>
     <use xlink:href="#DejaVuSans-73" transform="translate(1907.572266 0)"/>
     <use xlink:href="#DejaVuSans-20" transform="translate(1959.671875 0)"/>
     <use xlink:href="#DejaVuSans-70" transform="translate(1991.458984 0)"/>
     <use xlink:href="#DejaVuSans-61" transform="translate(2054.935547 0)"/>
     <use xlink:href="#DejaVuSans-73" transform="translate(2116.214844 0)"/>
     <use xlink:href="#DejaVuSans-74" transform="translate(2168.314453 0)"/>
     <use xlink:href="#DejaVuSans-20" transform="translate(2207.523438 0)"/>
     <use xlink:href="#DejaVuSans-72" transform="translate(2239.310547 0)"/>
     <use xlink:href="#DejaVuSans-65" transform="translate(2278.173828 0)"/>
     <use xlink:href="#DejaVuSans-63" transform="translate(2339.697266 0)"/>
     <use xlink:href="#DejaVuSans-6f" transform="translate(2394.677734 0)"/>
     <use xlink:href="#DejaVuSans-72" transform="translate(2455.859375 0)"/>
     <use xlink:href="#DejaVuSans-64" transform="translate(2495.222656 0)"/>
     <use xlink:href="#DejaVuSans-69" transform="translate(2558.699219 0)"/>
     <use xlink:href="#DejaVuSans-6e" transform="translate(2586.482422 0)"/>
     <use xlink:href="#DejaVuSans-67" transform="translate(2649.861328 0)"/>
     <use xlink:href="#DejaVuSans-20" transform="translate(2713.337891 0)"/>
     <use xlink:href="#DejaVuSans-62" transform="translate(2745.125 0)"/>
     <use xlink:href="#DejaVuSans-6f" transform="translate(2808.601562 0)"/>
     <use xlink:href="#DejaVuSans-75" transform="translate(2869.783203 0)"/>
     <use xlink:href="#DejaVuSans-6e" transform="translate(2933.162109 0)"/>
     <use xlink:href="#DejaVuSans-64" transform="translate(2996.541016 0)"/>
     <use xlink:href="#DejaVuSans-73" transform="translate(3060.017578 0)"/>
    </g>
   </g>
   <g id="legend_1">
    <g id="line2d_21">
     <path d="M 352.8325 35.19875 
L 360.8325 35.19875 
L 368.8325 35.19875 
" style="fill: none; stroke: #c0392b; stroke-width: 2; stroke-linecap: square"/>
    </g>
    <g id="text_20">
     <!-- rejected event -->
     <g style="fill: #222222" transform="translate(375.2325 37.99875) scale(0.08 -0.08)">
      <defs>
       <path id="DejaVuSans-76" d="M 191 3500 
L 800 3500 
L 1894 563 
L 2988 3500 
L 3597 3500 
L 2284 0 
L 1503 0 
L 191 3500 
z
" transform="scale(0.015625)"/>
      </defs>
      <use xlink:href="#DejaVuSans-72"/>
      <use xlink:href="#DejaVuSans-65" transform="translate(38.863281 0)"/>
      <use xlink:href="#DejaVuSans-6a" transform="translate(100.386719 0)"/>
      <use xlink:href="#DejaVuSans-65" transform="translate(128.169922 0)"/>
      <use xlink:href="#DejaVuSans-63" transform="translate(189.693359 0)"/>
      <use xlink:href="#DejaVuSans-74" transform="translate(244.673828 0)"/>
      <use xlink:href="#DejaVuSans-65" transform="translate(283.882812 0)"/>
      <use xlink:href="#DejaVuSans-64" transform="translate(345.40625 0)"/>
      <use xlink:href="#DejaVuSans-20" transform="translate(408.882812 0)"/>
      <use xlink:href="#DejaVuSans-65" transform="translate(440.669922 0)"/>
      <use xlink:href="#DejaVuSans-76" transform="translate(502.193359 0)"/>
      <use xlink:href="#DejaVuSans-65" transform="translate(561.373047 0)"/>
      <use xlink:href="#DejaVuSans-6e" transform="translate(622.896484 0)"/>
      <use xlink:href="#DejaVuSans-74" transform="translate(686.275391 0)"/>
     </g>
    </g>
    <g id="line2d_22">
     <path d="M 352.8325 46.94125 
L 360.8325 46.94125 
L 368.8325 46.94125 
" style="fill: none; stroke: #2ca02c; stroke-width: 2; stroke-linecap: square"/>
    </g>
    <g id="text_21">
     <!-- accepted event -->
     <g style="fill: #222222" transform="translate(375.2325 49.74125) scale(0.08 -0.08)">
      <use xlink:href="#DejaVuSans-61"/>
      <use xlink:href="#DejaVuSans-63" transform="translate(61.279297 0)"/>
      <use xlink:href="#DejaVuSans-63" transform="translate(116.259766 0)"/>
      <use xlink:href="#DejaVuSans-65" transform="translate(171.240234 0)"/>
      <use xlink:href="#DejaVuSans-70" transform="translate(232.763672 0)"/>
      <use xlink:href="#DejaVuSans-74" transform="translate(296.240234 0)"/>
      <use xlink:href="#DejaVuSans-65" transform="translate(335.449219 0)"/>
      <use xlink:href="#DejaVuSans-64" transform="translate(396.972656 0)"/>
      <use xlink:href="#DejaVuSans-20" transform="translate(460.449219 0)"/>
      <use xlink:href="#DejaVuSans-65" transform="translate(492.236328 0)"/>
      <use xlink:href="#DejaVuSans-76" transform="translate(553.759766 0)"/>
      <use xlink:href="#DejaVuSans-65" transform="translate(612.939453 0)"/>
      <use xlink:href="#DejaVuSans-6e" transform="translate(674.462891 0)"/>
      <use xlink:href="#DejaVuSans-74" transform="translate(737.841797 0)"/>
     </g>
    </g>
   </g>
  </g>
  <g id="axes_2">
   <g id="patch_6">
    <path d="M 490.52 246.76 
L 889.2 246.76 
L 889.2 24.72 
L 490.52 24.72 
L 490.52 246.76 
z
" style="fill: none"/>
   </g>
   <g id="matplotlib.axis_3">
    <g id="xtick_10">
     <g id="line2d_23">
      <g>
       <use xlink:href="#m365732ad1f" x="508.641818" y="246.76" style="fill: #444444; stroke: #444444; stroke-width: 0.8"/>
      </g>
     </g>
     <g id="text_22">
      <!-- −5 -->
      <g style="fill: #444444" transform="translate(501.270724 261.358437) scale(0.1 -0.1)">
       <use xlink:href="#DejaVuSans-2212"/>
       <use xlink:href="#DejaVuSans-35" transform="translate(83.789062 0)"/>
      </g>
     </g>
    </g>
    <g id="xtick_11">
     <g id="line2d_24">
      <g>
       <use xlink:href="#m365732ad1f" x="553.946364" y="246.76" style="fill: #444444; stroke: #444444; stroke-width: 0.8"/>
      </g>
     </g>
     <g id="text_23">
      <!-- 0 -->
      <g style="fill: #444444" transform="translate(550.765114 261.358437) scale(0.1 -0.1)">
       <use xlink:href="#DejaVuSans-30"/>
      </g>
     </g>
    </g>
    <g id="xtick_12">
     <g id="line2d_25">
      <g>
       <use xlink:href="#m365732ad1f" x="599.250909" y="246.76" style="fill: #444444; stroke: #444444; stroke-width: 0.8"/>
      </g>
     </g>
     <g id="text_24">
      <!-- 5 -->
      <g style="fill: #444444" transform="translate(596.069659 261.358437) scale(0.1 -0.1)">
       <use xlink:href="#DejaVuSans-35"/>
      </g>
     </g>
    </g>
    <g id="xtick_13">
     <g id="line2d_26">
      <g>
       <use xlink:href="#m365732ad1f" x="644.555455" y="246.76" style="fill: #444444; stroke: #444444; stroke-width: 0.8"/>
      </g>
     </g>
     <g id="text_25">
      <!-- 10 -->
      <g style="fill: #444444" transform="translate(638.192955 261.358437) scale(0.1 -0.1)">
       <use xlink:href="#DejaVuSans-31"/>
       <use xlink:href="#DejaVuSans-30" transform="translate(63.623047 0)"/>
      </g>
     </g>
    </g>
    <g id="xtick_14">
     <g id="line2d_27">
      <g>
       <use xlink:href="#m365732ad1f" x="689.86" y="246.76" style="fill: #444444; stroke: #444444; stroke-width: 0.8"/>
      </g>
     </g>
     <g id="text_26">
      <!-- 15 -->
      <g style="fill: #444444" transform="translate(683.4975 261.358437) scale(0.1 -0.1)">
       <use xlink:href="#DejaVuSans-31"/>
       <use xlink:href="#DejaVuSans-35" transform="translate(63.623047 0)"/>
      </g>
     </g>
    </g>
    <g id="xtick_15">
     <g id="line2d_28">
      <g>
       <use xlink:href="#m365732ad1f" x="735.164545" y="246.76" style="fill: #444444; stroke: #444444; stroke-width: 0.8"/>
      </g>
     </g>
     <g id="text_27">
      <!-- 20 -->
      <g style="fill: #444444" transform="translate(728.802045 261.358437) scale(0.1 -0.1)">
       <use xlink:href="#DejaVuSans-32"/>
       <use xlink:href="#DejaVuSans-30" transform="translate(63.623047 0)"/>
      </g>
     </g>
    </g>
    <g id="xtick_16">
     <g id="line2d_29">
      <g>
       <use xlink:href="#m365732ad1f" x="780.469091" y="246.76" style="fill: #444444; stroke: #444444; stroke-width: 0.8"/>
      </g>
     </g>
     <g id="text_28">
      <!-- 25 -->
      <g style="fill: #444444" transform="translate(774.106591 261.358437) scale(0.1 -0.1)">
       <use xlink:href="#DejaVuSans-32"/>
       <use xlink:href="#DejaVuSans-35" transform="translate(63.623047 0)"/>
      </g>
     </g>
    </g>
    <g id="xtick_17">
     <g id="line2d_30">
      <g>
       <use xlink:href="#m365732ad1f" x="825.773636" y="246.76" style="fill: #444444; stroke: #444444; stroke-width: 0.8"/>
      </g>
     </g>
     <g id="text_29">
      <!-- 30 -->
      <g style="fill: #444444" transform="translate(819.411136 261.358437) scale(0.1 -0.1)">
       <use xlink:href="#DejaVuSans-33"/>
       <use xlink:href="#DejaVuSans-30" transform="translate(63.623047 0)"/>
      </g>
     </g>
    </g>
    <g id="xtick_18">
     <g id="line2d_31">
      <g>
       <use xlink:href="#m365732ad1f" x="871.078182" y="246.76" style="fill: #444444; stroke: #444444; stroke-width: 0.8"/>
      </g>
     </g>
     <g id="text_30">
      <!-- 35 -->
      <g style="fill: #444444" transform="translate(864.715682 261.358437) scale(0.1 -0.1)">
       <use xlink:href="#DejaVuSans-33"/>
       <use xlink:href="#DejaVuSans-35" transform="translate(63.623047 0)"/>
      </g>
     </g>
    </g>
    <g id="text_31">
     <!-- time (s) -->
     <g style="fill: #444444" transform="translate(672.407734 274.276719) scale(0.09 -0.09)">
      <use xlink:href="#DejaVuSans-74"/>
      <use xlink:href="#DejaVuSans-69" transform="translate(39.208984 0)"/>
      <use xlink:href="#DejaVuSans-6d" transform="translate(66.992188 0)"/>
      <use xlink:href="#DejaVuSans-65" transform="translate(164.404297 0)"/>
      <use xlink:href="#DejaVuSans-20" transform="translate(225.927734 0)"/>
      <use xlink:href="#DejaVuSans-28" transform="translate(257.714844 0)"/>
      <use xlink:href="#DejaVuSans-73" transform="translate(296.728516 0)"/>
      <use xlink:href="#DejaVuSans-29" transform="translate(348.828125 0)"/>
     </g>
    </g>
   </g>
   <g id="matplotlib.axis_4">
    <g id="ytick_7">
     <g id="line2d_32">
      <g>
       <use xlink:href="#m57111ea78f" x="490.52" y="232.852545" style="fill: #444444; stroke: #444444; stroke-width: 0.8"/>
      </g>
     </g>
     <g id="text_32">
      <!-- −1 -->
      <g style="fill: #444444" transform="translate(468.777812 236.651764) scale(0.1 -0.1)">
       <use xlink:href="#DejaVuSans-2212"/>
       <use xlink:href="#DejaVuSans-31" transform="translate(83.789062 0)"/>
      </g>
     </g>
    </g>
    <g id="ytick_8">
     <g id="line2d_33">
      <g>
       <use xlink:href="#m57111ea78f" x="490.52" y="198.734603" style="fill: #444444; stroke: #444444; stroke-width: 0.8"/>
      </g>
     </g>
     <g id="text_33">
      <!-- 0 -->
      <g style="fill: #444444" transform="translate(477.1575 202.533822) scale(0.1 -0.1)">
       <use xlink:href="#DejaVuSans-30"/>
      </g>
     </g>
    </g>
    <g id="ytick_9">
     <g id="line2d_34">
      <g>
       <use xlink:href="#m57111ea78f" x="490.52" y="164.61666" style="fill: #444444; stroke: #444444; stroke-width: 0.8"/>
      </g>
     </g>
     <g id="text_34">
      <!-- 1 -->
      <g style="fill: #444444" transform="translate(477.1575 168.415879) scale(0.1 -0.1)">
       <use xlink:href="#DejaVuSans-31"/>
      </g>
     </g>
    </g>
    <g id="ytick_10">
     <g id="line2d_35">
      <g>
       <use xlink:href="#m57111ea78f" x="490.52" y="130.498718" style="fill: #444444; stroke: #444444; stroke-width: 0.8"/>
      </g>
     </g>
     <g id="text_35">
      <!-- 2 -->
      <g style="fill: #444444" transform="translate(477.1575 134.297936) scale(0.1 -0.1)">
       <use xlink:href="#DejaVuSans-32"/>
      </g>
     </g>
    </g>
    <g id="ytick_11">
     <g id="line2d_36">
      <g>
       <use xlink:href="#m57111ea78f" x="490.52" y="96.380775" style="fill: #444444; stroke: #444444; stroke-width: 0.8"/>
      </g>
     </g>
     <g id="text_36">
      <!-- 3 -->
      <g style="fill: #444444" transform="translate(477.1575 100.179994) scale(0.1 -0.1)">
       <use xlink:href="#DejaVuSans-33"/>
      </g>
     </g>
    </g>
    <g id="ytick_12">
     <g id="line2d_37">
      <g>
       <use xlink:href="#m57111ea78f" x="490.52" y="62.262832" style="fill: #444444; stroke: #444444; stroke-width: 0.8"/>
      </g>
     </g>
     <g id="text_37">
      <!-- 4 -->
      <g style="fill: #444444" transform="translate(477.1575 66.062051) scale(0.1 -0.1)">
       <use xlink:href="#DejaVuSans-34"/>
      </g>
     </g>
    </g>
    <g id="ytick_13">
     <g id="line2d_38">
      <g>
       <use xlink:href="#m57111ea78f" x="490.52" y="28.14489" style="fill: #444444; stroke: #444444; stroke-width: 0.8"/>
      </g>
     </g>
     <g id="text_38">
      <!-- 5 -->
      <g style="fill: #444444" transform="translate(477.1575 31.944109) scale(0.1 -0.1)">
       <use xlink:href="#DejaVuSans-35"/>
      </g>
     </g>
    </g>
    <g id="text_39">
     <!-- z-score -->
     <g style="fill: #444444" transform="translate(462.906094 151.814844) rotate(-90) scale(0.09 -0.09)">
      <use xlink:href="#DejaVuSans-7a"/>
      <use xlink:href="#DejaVuSans-2d" transform="translate(52.490234 0)"/>
      <use xlink:href="#DejaVuSans-73" transform="translate(88.574219 0)"/>
      <use xlink:href="#DejaVuSans-63" transform="translate(140.673828 0)"/>
      <use xlink:href="#DejaVuSans-6f" transform="translate(195.654297 0)"/>
      <use xlink:href="#DejaVuSans-72" transform="translate(256.835938 0)"/>
      <use xlink:href="#DejaVuSans-65" transform="translate(295.699219 0)"/>
     </g>
    </g>
   </g>
   <g id="line2d_39">
    <path d="M 553.946364 213.941306 
L 554.248394 202.368808 
L 554.550424 204.792152 
L 554.852455 188.130053 
L 555.154485 192.418973 
L 555.456515 204.019548 
L 556.060576 175.582201 
L 556.664636 197.61953 
L 556.966667 197.215018 
L 557.268697 210.356056 
L 557.570727 205.224715 
L 557.872758 195.402097 
L 558.174788 194.230692 
L 558.476818 215.828942 
L 558.778848 213.687748 
L 559.080879 213.461667 
L 559.382909 212.589026 
L 559.98697 200.746147 
L 560.289 212.988907 
L 560.59103 207.242333 
L 560.893061 222.555914 
L 561.195091 201.766953 
L 561.497121 196.162867 
L 562.101182 217.82272 
L 562.403212 170.481647 
L 562.705242 209.032237 
L 563.007273 194.112706 
L 563.309303 225.293982 
L 563.611333 208.197353 
L 563.913364 197.61185 
L 564.215394 200.23841 
L 564.517424 197.48722 
L 564.819455 198.661025 
L 565.121485 208.269378 
L 565.423515 210.134189 
L 565.725545 201.629573 
L 566.027576 207.225909 
L 566.329606 206.597531 
L 566.631636 194.570405 
L 566.933667 196.751642 
L 567.235697 204.950458 
L 567.537727 186.598671 
L 567.839758 200.310302 
L 568.141788 202.428929 
L 568.443818 189.647795 
L 568.745848 196.566657 
L 569.047879 218.425194 
L 569.349909 193.978453 
L 569.651939 218.681316 
L 569.95397 203.296923 
L 570.256 196.058012 
L 570.55803 191.729726 
L 570.860061 210.316659 
L 571.162091 203.880439 
L 571.766152 175.483532 
L 572.068182 176.012505 
L 572.370212 189.380458 
L 572.672242 179.550603 
L 572.974273 205.838361 
L 573.276303 202.073064 
L 573.578333 189.717815 
L 573.880364 189.721962 
L 574.182394 217.552168 
L 574.484424 185.302756 
L 574.786455 209.505028 
L 575.088485 200.624979 
L 575.390515 213.033867 
L 575.692545 203.502942 
L 575.994576 186.601804 
L 576.296606 214.7185 
L 577.202697 192.199104 
L 577.504727 178.818003 
L 577.806758 197.687376 
L 578.108788 186.628849 
L 578.410818 217.728525 
L 578.712848 205.492211 
L 579.014879 227.655079 
L 579.316909 185.406703 
L 579.618939 206.073114 
L 579.92097 191.913036 
L 580.223 211.788704 
L 580.52503 212.310177 
L 580.827061 211.255851 
L 581.431121 202.849409 
L 581.733152 219.722147 
L 582.035182 198.240101 
L 582.337212 192.52546 
L 582.639242 220.967777 
L 582.941273 217.790071 
L 583.243303 213.037264 
L 583.545333 210.283863 
L 583.847364 178.674943 
L 584.149394 190.491546 
L 584.451424 214.493292 
L 584.753455 166.934679 
L 585.357515 214.554449 
L 585.659545 219.55187 
L 585.961576 194.763749 
L 586.263606 219.313961 
L 586.565636 197.506711 
L 586.867667 188.975241 
L 587.169697 209.549046 
L 587.471727 208.298905 
L 587.773758 209.454696 
L 588.075788 183.820536 
L 588.377818 191.622211 
L 588.679848 193.503325 
L 588.981879 189.276495 
L 589.585939 207.073812 
L 589.88797 195.582226 
L 590.19 188.40136 
L 590.49203 201.138055 
L 590.794061 201.943495 
L 591.096091 210.592422 
L 591.398121 182.579156 
L 592.002182 196.638013 
L 592.304212 196.757515 
L 592.606242 194.52389 
L 592.908273 197.992129 
L 593.210303 187.189982 
L 593.512333 196.599665 
L 593.814364 189.743167 
L 594.418424 205.663492 
L 594.720455 185.134706 
L 595.022485 184.801853 
L 595.324515 180.357746 
L 595.626545 203.842956 
L 595.928576 206.293056 
L 596.230606 220.962208 
L 596.532636 198.060226 
L 596.834667 208.608559 
L 597.136697 184.395308 
L 597.438727 212.624718 
L 597.740758 187.308253 
L 598.042788 213.499174 
L 598.646848 183.557618 
L 598.948879 204.364854 
L 599.250909 194.076084 
L 599.552939 190.350274 
L 599.85497 214.852227 
L 600.157 171.747456 
L 600.45903 214.881177 
L 600.761061 202.298671 
L 601.063091 196.356082 
L 601.365121 193.826691 
L 601.667152 186.72488 
L 601.969182 184.479726 
L 602.271212 214.746447 
L 602.573242 200.745383 
L 602.875273 223.561894 
L 603.177303 195.441669 
L 603.479333 206.754206 
L 603.781364 194.56901 
L 604.083394 219.187551 
L 604.385424 212.215206 
L 604.687455 192.812759 
L 604.989485 190.125746 
L 605.291515 202.625077 
L 605.895576 205.451579 
L 606.499636 205.995659 
L 606.801667 168.095619 
L 607.405727 217.869391 
L 607.707758 203.912156 
L 608.009788 210.968979 
L 608.311818 196.845051 
L 608.613848 173.223982 
L 609.217909 197.011298 
L 609.519939 193.951648 
L 609.82197 200.231282 
L 610.124 210.806446 
L 610.42603 205.869915 
L 610.728061 185.462576 
L 611.030091 217.591354 
L 611.332121 183.496517 
L 611.634152 170.781167 
L 611.936182 197.881081 
L 612.238212 185.146575 
L 612.540242 196.42578 
L 612.842273 202.025744 
L 613.144303 223.061326 
L 613.446333 207.432686 
L 613.748364 180.11474 
L 614.050394 197.671304 
L 614.352424 202.437429 
L 614.654455 179.827051 
L 615.258515 222.14404 
L 615.560545 205.050065 
L 615.862576 180.543114 
L 616.164606 184.864943 
L 616.466636 202.502326 
L 616.768667 188.691478 
L 617.070697 199.89816 
L 617.372727 169.057978 
L 617.674758 189.514318 
L 617.976788 183.978419 
L 618.278818 192.412385 
L 618.580848 185.050062 
L 618.882879 189.826296 
L 619.486939 203.16206 
L 619.78897 201.864648 
L 620.091 199.195074 
L 620.39303 188.446246 
L 620.695061 189.751686 
L 620.997091 180.829219 
L 621.299121 199.570564 
L 621.601152 195.201179 
L 621.903182 222.544561 
L 622.205212 205.908364 
L 622.507242 205.362489 
L 622.809273 197.582409 
L 623.111303 195.971071 
L 623.413333 203.281366 
L 623.715364 192.77885 
L 624.017394 202.985652 
L 624.319424 197.564549 
L 624.621455 204.820464 
L 624.923485 194.887154 
L 625.225515 204.167071 
L 625.527545 199.622938 
L 626.131606 212.638218 
L 626.433636 180.961529 
L 626.735667 205.200979 
L 627.037697 183.1253 
L 627.339727 199.556401 
L 627.641758 195.505414 
L 627.943788 193.799835 
L 628.547848 214.005986 
L 628.849879 183.751439 
L 629.151909 189.844885 
L 629.453939 211.263665 
L 629.75597 199.515105 
L 630.058 197.574093 
L 630.36003 175.976577 
L 630.964091 186.938056 
L 631.266121 172.261662 
L 631.568152 179.194978 
L 631.870182 191.35935 
L 632.172212 197.639456 
L 632.474242 167.671609 
L 632.776273 197.891579 
L 633.078303 161.338055 
L 633.380333 194.929037 
L 633.682364 179.246732 
L 633.984394 154.497222 
L 634.286424 156.080246 
L 634.588455 150.153463 
L 634.890485 179.244855 
L 635.192515 162.356443 
L 635.494545 156.576976 
L 635.796576 157.840685 
L 636.098606 156.886087 
L 636.400636 143.181905 
L 636.702667 143.36608 
L 637.004697 151.610977 
L 637.910788 130.380752 
L 638.212818 129.67342 
L 638.514848 141.411468 
L 638.816879 118.61497 
L 639.118909 110.277373 
L 639.420939 94.117956 
L 639.72297 115.658055 
L 640.025 95.48146 
L 640.32703 109.825748 
L 640.629061 85.1353 
L 640.931091 98.873898 
L 641.233121 93.36639 
L 641.535152 94.56325 
L 641.837182 87.833419 
L 642.139212 85.361831 
L 642.441242 102.154141 
L 642.743273 75.987652 
L 643.045303 94.597112 
L 643.649364 68.999535 
L 643.951394 82.155001 
L 644.253424 86.947051 
L 644.555455 58.837943 
L 644.857485 62.271128 
L 645.159515 62.401426 
L 645.461545 67.399921 
L 645.763576 74.841787 
L 646.065606 79.329322 
L 646.367636 100.461467 
L 646.669667 95.914155 
L 646.971697 96.773092 
L 647.575758 61.944544 
L 648.179818 98.017974 
L 648.481848 81.800827 
L 648.783879 101.789069 
L 649.085909 106.630219 
L 649.387939 107.584136 
L 649.68997 96.374691 
L 649.992 97.739225 
L 650.596061 131.104688 
L 650.898091 111.379148 
L 651.200121 134.013848 
L 651.502152 138.388901 
L 651.804182 137.026265 
L 652.106212 145.698505 
L 652.408242 143.949656 
L 652.710273 116.777749 
L 653.012303 151.593737 
L 653.314333 142.724544 
L 653.616364 161.724171 
L 653.918394 155.075548 
L 654.522455 146.526247 
L 654.824485 147.527957 
L 655.126515 150.380636 
L 655.428545 158.475967 
L 655.730576 132.413861 
L 656.032606 141.661157 
L 656.334636 156.535974 
L 656.636667 152.374125 
L 656.938697 154.221855 
L 657.240727 148.105766 
L 657.542758 154.330815 
L 657.844788 136.452614 
L 658.146818 132.389164 
L 658.448848 143.3989 
L 658.750879 135.499337 
L 659.052909 144.597905 
L 659.354939 120.232888 
L 659.65697 137.662789 
L 659.959 124.272529 
L 660.26103 123.151154 
L 660.563061 135.953671 
L 660.865091 143.63805 
L 661.167121 128.08739 
L 661.469152 128.640551 
L 662.073212 111.08002 
L 662.375242 108.167093 
L 662.677273 110.743449 
L 662.979303 80.60783 
L 663.281333 113.323688 
L 663.583364 84.640643 
L 663.885394 84.656378 
L 664.187424 101.029229 
L 664.489455 64.93357 
L 664.791485 71.06304 
L 665.093515 81.105522 
L 665.395545 77.764202 
L 665.697576 81.220077 
L 665.999606 73.354853 
L 666.301636 86.016856 
L 666.603667 65.450514 
L 666.905697 66.802385 
L 667.509758 96.785616 
L 667.811788 65.574689 
L 668.415848 91.504298 
L 668.717879 64.514956 
L 669.019909 80.787543 
L 669.321939 103.199529 
L 669.62397 75.412915 
L 669.926 102.79784 
L 670.22803 113.805011 
L 670.530061 102.331525 
L 670.832091 98.503016 
L 671.134121 121.123605 
L 671.436152 73.077508 
L 671.738182 100.718521 
L 672.040212 104.630456 
L 672.342242 112.470728 
L 672.644273 109.451154 
L 672.946303 125.961574 
L 673.248333 122.378409 
L 673.550364 107.956423 
L 673.852394 128.227087 
L 674.154424 124.932405 
L 674.456455 132.913642 
L 674.758485 109.971304 
L 675.362545 132.406995 
L 675.664576 130.418899 
L 675.966606 137.35873 
L 676.268636 139.700632 
L 676.570667 111.871779 
L 676.872697 173.41987 
L 677.174727 149.576353 
L 677.476758 148.015865 
L 677.778788 137.693181 
L 678.080818 168.090298 
L 678.684879 145.106631 
L 678.986909 173.084236 
L 679.59097 122.087069 
L 679.893 159.142163 
L 680.19503 171.327304 
L 680.497061 136.896533 
L 680.799091 146.948762 
L 681.101121 116.271066 
L 681.403152 144.644133 
L 681.705182 145.385403 
L 682.007212 120.814984 
L 682.309242 117.025962 
L 682.611273 116.760611 
L 682.913303 99.564256 
L 683.215333 117.347087 
L 683.819394 125.238545 
L 684.121424 117.322512 
L 684.423455 118.440133 
L 684.725485 116.51376 
L 685.027515 119.969119 
L 685.329545 132.72104 
L 685.631576 95.840462 
L 685.933606 93.395277 
L 686.235636 116.401875 
L 686.537667 82.639043 
L 686.839697 125.0154 
L 687.141727 94.930359 
L 687.443758 85.056785 
L 687.745788 89.41212 
L 688.047818 74.405774 
L 688.349848 67.2246 
L 688.651879 66.235351 
L 688.953909 78.59262 
L 689.255939 59.701737 
L 689.55797 83.576535 
L 689.86 85.69352 
L 690.464061 88.432149 
L 690.766091 85.40393 
L 691.068121 97.446914 
L 691.370152 102.38974 
L 691.672182 64.970383 
L 691.974212 78.366023 
L 692.276242 75.481076 
L 692.578273 85.331078 
L 692.880303 104.843285 
L 693.182333 78.571698 
L 693.484364 88.056243 
L 693.786394 114.782687 
L 694.088424 93.702253 
L 694.390455 131.605003 
L 694.692485 96.882131 
L 694.994515 122.989942 
L 695.296545 103.396087 
L 695.598576 129.652872 
L 695.900606 109.581856 
L 696.202636 121.740115 
L 696.504667 122.229148 
L 696.806697 129.599656 
L 697.108727 129.955896 
L 697.712788 133.468111 
L 698.014818 174.041085 
L 698.316848 154.252258 
L 698.618879 159.217097 
L 698.920909 159.358084 
L 699.222939 160.249957 
L 699.52497 136.639409 
L 700.12903 183.774041 
L 700.431061 174.436069 
L 700.733091 159.303162 
L 701.035121 186.783319 
L 701.337152 172.653287 
L 701.639182 184.596074 
L 701.941212 174.849865 
L 702.243242 183.466382 
L 702.545273 182.986187 
L 702.847303 187.287558 
L 703.149333 195.589435 
L 703.451364 171.471753 
L 703.753394 183.22401 
L 704.055424 187.45896 
L 704.357455 171.008841 
L 704.659485 187.448195 
L 704.961515 192.081591 
L 705.263545 189.815462 
L 705.867606 203.538383 
L 706.169636 171.733084 
L 706.471667 204.629081 
L 706.773697 180.056717 
L 707.075727 189.951968 
L 707.377758 210.119527 
L 707.679788 199.329128 
L 707.981818 205.990555 
L 708.585879 186.972636 
L 708.887909 208.476688 
L 709.189939 208.422641 
L 709.49197 212.333624 
L 709.794 179.987667 
L 710.09603 196.45274 
L 710.398061 193.946208 
L 710.700091 196.203878 
L 711.002121 212.233514 
L 711.304152 178.070424 
L 711.606182 212.036444 
L 711.908212 225.186255 
L 712.210242 189.619624 
L 712.512273 209.628364 
L 712.814303 186.362037 
L 713.116333 190.059435 
L 713.418364 197.194431 
L 713.720394 190.29449 
L 714.022424 189.455146 
L 714.324455 204.911826 
L 714.626485 208.086573 
L 714.928515 214.559624 
L 715.230545 203.85171 
L 715.834606 212.124824 
L 716.136636 207.786848 
L 716.438667 167.796031 
L 717.042727 215.627503 
L 717.344758 178.630832 
L 717.646788 220.939533 
L 717.948818 200.355869 
L 718.250848 212.124594 
L 718.552879 211.962523 
L 718.854909 205.07159 
L 719.45897 185.016701 
L 719.761 221.39514 
L 720.06303 204.401558 
L 720.365061 209.425136 
L 720.667091 192.459631 
L 720.969121 189.01131 
L 721.271152 214.541853 
L 721.573182 209.124879 
L 721.875212 208.675213 
L 722.177242 190.034005 
L 722.479273 204.652445 
L 722.781303 209.030568 
L 723.083333 207.47446 
L 723.385364 208.242589 
L 723.687394 197.878019 
L 723.989424 177.405643 
L 724.291455 220.429886 
L 724.895515 194.428101 
L 725.197545 226.456143 
L 725.499576 194.319127 
L 725.801606 194.317098 
L 726.103636 198.787372 
L 726.405667 215.690109 
L 726.707697 177.271361 
L 727.009727 196.714596 
L 727.311758 202.246901 
L 727.613788 185.056285 
L 727.915818 217.999542 
L 728.217848 208.705882 
L 728.519879 222.307701 
L 728.821909 201.576071 
L 729.123939 197.865034 
L 729.42597 203.16387 
L 729.728 202.197121 
L 730.03003 190.938805 
L 730.332061 207.478423 
L 730.634091 202.923114 
L 730.936121 215.058663 
L 731.238152 192.128447 
L 731.540182 202.982909 
L 731.842212 179.232771 
L 732.144242 206.306376 
L 732.446273 192.679308 
L 732.748303 194.664335 
L 733.050333 214.642466 
L 733.352364 189.982038 
L 733.654394 193.151847 
L 733.956424 187.049219 
L 734.258455 188.021406 
L 734.560485 202.508136 
L 734.862515 179.819706 
L 735.164545 193.918354 
L 735.466576 189.322521 
L 735.768606 223.618762 
L 736.070636 222.687231 
L 736.372667 220.420316 
L 736.674697 200.065679 
L 736.976727 198.98517 
L 737.278758 191.65692 
L 737.580788 197.914011 
L 737.882818 219.18506 
L 738.184848 204.507652 
L 738.486879 181.238951 
L 738.788909 185.665401 
L 739.090939 217.876594 
L 739.39297 202.650363 
L 739.695 216.462062 
L 739.99703 194.07541 
L 740.299061 186.453687 
L 740.601091 188.945554 
L 740.903121 211.911308 
L 741.507182 200.668317 
L 741.809212 177.767374 
L 742.111242 195.139751 
L 742.413273 197.398557 
L 742.715303 197.178805 
L 743.017333 196.163146 
L 743.319364 208.963762 
L 743.621394 212.385857 
L 743.923424 205.331163 
L 744.225455 202.392847 
L 744.527485 206.524052 
L 744.829515 190.346266 
L 745.131545 198.529029 
L 745.433576 189.561225 
L 746.037636 228.616454 
L 746.641697 188.158551 
L 746.943727 196.570004 
L 747.245758 229.701029 
L 747.547788 205.696466 
L 747.849818 207.638269 
L 748.151848 202.440864 
L 748.453879 207.3774 
L 748.755909 199.926067 
L 749.057939 206.340988 
L 749.35997 204.915083 
L 749.662 187.734491 
L 750.266061 201.093496 
L 750.568091 215.870208 
L 750.870121 209.441256 
L 751.172152 206.341091 
L 751.474182 193.937019 
L 751.776212 218.768525 
L 752.078242 196.069392 
L 752.380273 182.355681 
L 752.682303 196.248141 
L 752.984333 215.615222 
L 753.286364 186.896058 
L 753.588394 198.528468 
L 753.890424 191.092217 
L 754.192455 187.387244 
L 754.494485 190.820057 
L 755.098545 209.400286 
L 755.400576 171.968158 
L 755.702606 208.609309 
L 756.004636 187.932674 
L 756.306667 209.555807 
L 756.608697 183.104729 
L 756.910727 175.339298 
L 757.212758 187.837659 
L 757.514788 207.27268 
L 757.816818 202.499177 
L 758.118848 180.532504 
L 758.420879 180.346923 
L 758.722909 190.569427 
L 759.024939 195.453313 
L 759.32697 179.258163 
L 759.629 191.684961 
L 759.93103 194.093781 
L 760.233061 187.562186 
L 760.535091 193.637248 
L 760.837121 183.915681 
L 761.139152 180.109061 
L 761.441182 192.115844 
L 761.743212 226.417884 
L 762.045242 198.002236 
L 762.347273 203.793604 
L 762.649303 211.955127 
L 762.951333 204.05293 
L 763.253364 182.422946 
L 763.555394 215.422972 
L 763.857424 202.686492 
L 764.159455 207.041825 
L 764.461485 216.467922 
L 764.763515 216.424201 
L 765.065545 191.994923 
L 765.367576 214.383732 
L 765.669606 176.359274 
L 765.971636 200.841302 
L 766.273667 194.320443 
L 766.575697 191.81817 
L 766.877727 217.371442 
L 767.179758 185.776299 
L 767.481788 196.543405 
L 767.783818 199.400148 
L 768.085848 191.790736 
L 768.387879 196.460627 
L 768.689909 197.982407 
L 768.991939 213.384387 
L 769.596 190.956187 
L 769.89803 208.258968 
L 770.200061 188.968353 
L 770.502091 202.672472 
L 770.804121 191.982065 
L 771.106152 197.982824 
L 771.408182 210.842138 
L 771.710212 201.101132 
L 772.314273 208.300408 
L 772.616303 208.653764 
L 772.918333 224.260186 
L 773.220364 202.50989 
L 773.522394 200.627721 
L 773.824424 211.44378 
L 774.126455 217.976385 
L 774.428485 191.1064 
L 774.730515 194.615205 
L 775.032545 185.534901 
L 775.334576 186.068086 
L 775.636606 210.523309 
L 775.938636 198.662823 
L 776.240667 200.446672 
L 776.542697 188.240476 
L 776.844727 210.2443 
L 777.146758 209.735545 
L 777.448788 183.790143 
L 777.750818 211.851609 
L 778.052848 197.487061 
L 778.354879 196.660049 
L 778.656909 216.452575 
L 778.958939 207.208494 
L 779.26097 209.031351 
L 779.563 205.155283 
L 779.86503 211.604038 
L 780.167061 187.781513 
L 780.469091 202.581158 
L 780.771121 187.597132 
L 781.073152 188.661947 
L 781.375182 219.526959 
L 781.677212 188.682896 
L 781.979242 205.225403 
L 782.281273 190.246273 
L 782.885333 183.2104 
L 783.187364 186.896624 
L 783.489394 200.196067 
L 783.791424 205.786096 
L 784.093455 197.356899 
L 784.395485 195.762243 
L 784.697515 198.045523 
L 784.999545 201.20754 
L 785.301576 191.694481 
L 785.603606 203.360582 
L 785.905636 195.397588 
L 786.207667 196.749798 
L 786.509697 185.253349 
L 786.811727 205.668985 
L 787.113758 205.784056 
L 787.415788 208.912047 
L 787.717818 189.29386 
L 788.019848 193.96476 
L 788.321879 201.745403 
L 788.623909 178.053295 
L 788.925939 209.3916 
L 789.22797 188.667304 
L 789.53 193.861953 
L 790.134061 211.226968 
L 790.436091 207.667997 
L 790.738121 188.512089 
L 791.040152 215.848306 
L 791.342182 202.00562 
L 791.644212 208.732564 
L 791.946242 198.482426 
L 792.248273 207.78554 
L 792.550303 204.563631 
L 792.852333 215.012466 
L 793.154364 196.937268 
L 793.456394 209.051135 
L 793.758424 198.57192 
L 794.060455 220.125514 
L 794.362485 214.007554 
L 794.664515 203.666374 
L 794.966545 208.221634 
L 795.268576 201.766452 
L 795.570606 206.650882 
L 795.872636 190.682879 
L 796.174667 193.162307 
L 796.476697 186.268167 
L 796.778727 191.356062 
L 797.080758 185.259868 
L 797.382788 185.374112 
L 797.986848 204.238879 
L 798.288879 199.620292 
L 798.590909 197.122215 
L 798.892939 207.823572 
L 799.19497 203.766334 
L 799.497 186.625325 
L 799.79903 190.167257 
L 800.101061 207.901536 
L 800.403091 210.459513 
L 800.705121 205.327815 
L 801.007152 218.444772 
L 801.309182 186.864786 
L 801.611212 193.877952 
L 801.913242 212.857222 
L 802.215273 202.119636 
L 802.517303 207.151086 
L 802.819333 183.701908 
L 803.121364 213.923226 
L 803.423394 207.112887 
L 803.725424 179.703933 
L 804.027455 179.011434 
L 804.329485 179.8437 
L 804.933545 204.168834 
L 805.235576 208.786492 
L 805.537606 189.541193 
L 805.839636 208.162797 
L 806.141667 200.139676 
L 806.443697 200.637452 
L 806.745727 186.799314 
L 807.047758 206.93556 
L 807.349788 186.957042 
L 807.651818 205.563818 
L 807.953848 204.679488 
L 808.255879 211.949238 
L 808.557909 195.866008 
L 808.859939 200.692418 
L 809.16197 197.588779 
L 809.464 202.589285 
L 809.76603 197.561734 
L 810.068061 179.042285 
L 810.370091 193.149168 
L 810.672121 186.660179 
L 810.974152 199.201302 
L 811.276182 198.970484 
L 811.880242 166.409584 
L 812.182273 205.439351 
L 812.484303 192.822914 
L 812.786333 204.204916 
L 813.088364 192.288973 
L 813.390394 196.167532 
L 813.994455 216.821711 
L 814.296485 217.778538 
L 814.598515 182.81847 
L 814.900545 197.775811 
L 815.202576 198.322614 
L 815.504606 191.517219 
L 815.806636 199.257894 
L 816.108667 173.267254 
L 816.410697 196.794046 
L 816.712727 186.30792 
L 817.014758 196.048596 
L 817.316788 215.774509 
L 817.618818 191.791498 
L 817.920848 195.066598 
L 818.222879 203.856896 
L 818.524909 182.012557 
L 818.826939 190.532844 
L 819.12897 188.668419 
L 819.431 212.892478 
L 819.73303 203.950424 
L 820.035061 218.413939 
L 820.337091 191.254692 
L 820.639121 185.644612 
L 820.941152 205.450466 
L 821.243182 170.701357 
L 821.545212 211.346073 
L 821.847242 195.443039 
L 822.149273 223.677309 
L 822.451303 222.395235 
L 822.753333 194.141156 
L 823.055364 196.944535 
L 823.357394 174.266909 
L 823.659424 195.529132 
L 823.961455 182.523018 
L 824.263485 207.498534 
L 824.565515 190.935354 
L 824.867545 181.524307 
L 825.169576 197.278938 
L 825.471606 181.539365 
L 825.471606 181.539365 
" clip-path="url(#p44ce929530)" style="fill: none; stroke: #3a3a3a; stroke-opacity: 0.85; stroke-width: 0.7; stroke-linecap: square"/>
   </g>
   <g id="patch_7">
    <path d="M 490.52 246.76 
L 490.52 24.72 
" style="fill: none; stroke: #444444; stroke-width: 0.8; stroke-linejoin: miter; stroke-linecap: square"/>
   </g>
   <g id="patch_8">
    <path d="M 490.52 246.76 
L 889.2 246.76 
" style="fill: none; stroke: #444444; stroke-width: 0.8; stroke-linejoin: miter; stroke-linecap: square"/>
   </g>
   <g id="line2d_40">
    <path d="M 644.555455 246.76 
L 644.555455 24.72 
" clip-path="url(#p44ce929530)" style="fill: none; stroke: #2ca02c; stroke-opacity: 0.9; stroke-width: 1.3; stroke-linecap: square"/>
   </g>
   <g id="line2d_41">
    <path d="M 667.207727 246.76 
L 667.207727 24.72 
" clip-path="url(#p44ce929530)" style="fill: none; stroke: #c0392b; stroke-opacity: 0.9; stroke-width: 1.3; stroke-linecap: square"/>
   </g>
   <g id="line2d_42">
    <path d="M 689.86 246.76 
L 689.86 24.72 
" clip-path="url(#p44ce929530)" style="fill: none; stroke: #c0392b; stroke-opacity: 0.9; stroke-width: 1.3; stroke-linecap: square"/>
   </g>
   <g id="text_40">
    <!-- burst rejection: events too close to a previous kept event -->
    <g style="fill: #222222" transform="translate(490.52 18.72) scale(0.1 -0.1)">
     <defs>
      <path id="DejaVuSans-6b" d="M 581 4863 
L 1159 4863 
L 1159 1991 
L 2875 3500 
L 3609 3500 
L 1753 1863 
L 3688 0 
L 2938 0 
L 1159 1709 
L 1159 0 
L 581 0 
L 581 4863 
z
" transform="scale(0.015625)"/>
     </defs>
     <use xlink:href="#DejaVuSans-62"/>
     <use xlink:href="#DejaVuSans-75" transform="translate(63.476562 0)"/>
     <use xlink:href="#DejaVuSans-72" transform="translate(126.855469 0)"/>
     <use xlink:href="#DejaVuSans-73" transform="translate(167.96875 0)"/>
     <use xlink:href="#DejaVuSans-74" transform="translate(220.068359 0)"/>
     <use xlink:href="#DejaVuSans-20" transform="translate(259.277344 0)"/>
     <use xlink:href="#DejaVuSans-72" transform="translate(291.064453 0)"/>
     <use xlink:href="#DejaVuSans-65" transform="translate(329.927734 0)"/>
     <use xlink:href="#DejaVuSans-6a" transform="translate(391.451172 0)"/>
     <use xlink:href="#DejaVuSans-65" transform="translate(419.234375 0)"/>
     <use xlink:href="#DejaVuSans-63" transform="translate(480.757812 0)"/>
     <use xlink:href="#DejaVuSans-74" transform="translate(535.738281 0)"/>
     <use xlink:href="#DejaVuSans-69" transform="translate(574.947266 0)"/>
     <use xlink:href="#DejaVuSans-6f" transform="translate(602.730469 0)"/>
     <use xlink:href="#DejaVuSans-6e" transform="translate(663.912109 0)"/>
     <use xlink:href="#DejaVuSans-3a" transform="translate(727.291016 0)"/>
     <use xlink:href="#DejaVuSans-20" transform="translate(760.982422 0)"/>
     <use xlink:href="#DejaVuSans-65" transform="translate(792.769531 0)"/>
     <use xlink:href="#DejaVuSans-76" transform="translate(854.292969 0)"/>
     <use xlink:href="#DejaVuSans-65" transform="translate(913.472656 0)"/>
     <use xlink:href="#DejaVuSans-6e" transform="translate(974.996094 0)"/>
     <use xlink:href="#DejaVuSans-74" transform="translate(1038.375 0)"/>
     <use xlink:href="#DejaVuSans-73" transform="translate(1077.583984 0)"/>
     <use xlink:href="#DejaVuSans-20" transform="translate(1129.683594 0)"/>
     <use xlink:href="#DejaVuSans-74" transform="translate(1161.470703 0)"/>
     <use xlink:href="#DejaVuSans-6f" transform="translate(1200.679688 0)"/>
     <use xlink:href="#DejaVuSans-6f" transform="translate(1261.861328 0)"/>
     <use xlink:href="#DejaVuSans-20" transform="translate(1323.042969 0)"/>
     <use xlink:href="#DejaVuSans-63" transform="translate(1354.830078 0)"/>
     <use xlink:href="#DejaVuSans-6c" transform="translate(1409.810547 0)"/>
     <use xlink:href="#DejaVuSans-6f" transform="translate(1437.59375 0)"/>
     <use xlink:href="#DejaVuSans-73" transform="translate(1498.775391 0)"/>
     <use xlink:href="#DejaVuSans-65" transform="translate(1550.875 0)"/>
     <use xlink:href="#DejaVuSans-20" transform="translate(1612.398438 0)"/>
     <use xlink:href="#DejaVuSans-74" transform="translate(1644.185547 0)"/>
     <use xlink:href="#DejaVuSans-6f" transform="translate(1683.394531 0)"/>
     <use xlink:href="#DejaVuSans-20" transform="translate(1744.576172 0)"/>
     <use xlink:href="#DejaVuSans-61" transform="translate(1776.363281 0)"/>
     <use xlink:href="#DejaVuSans-20" transform="translate(1837.642578 0)"/>
     <use xlink:href="#DejaVuSans-70" transform="translate(1869.429688 0)"/>
     <use xlink:href="#DejaVuSans-72" transform="translate(1932.90625 0)"/>
     <use xlink:href="#DejaVuSans-65" transform="translate(1971.769531 0)"/>
     <use xlink:href="#DejaVuSans-76" transform="translate(2033.292969 0)"/>
     <use xlink:href="#DejaVuSans-69" transform="translate(2092.472656 0)"/>
     <use xlink:href="#DejaVuSans-6f" transform="translate(2120.255859 0)"/>
     <use xlink:href="#DejaVuSans-75" transform="translate(2181.4375 0)"/>
     <use xlink:href="#DejaVuSans-73" transform="translate(2244.816406 0)"/>
     <use xlink:href="#DejaVuSans-20" transform="translate(2296.916016 0)"/>
     <use xlink:href="#DejaVuSans-6b" transform="translate(2328.703125 0)"/>
     <use xlink:href="#DejaVuSans-65" transform="translate(2382.988281 0)"/>
     <use xlink:href="#DejaVuSans-70" transform="translate(2444.511719 0)"/>
     <use xlink:href="#DejaVuSans-74" transform="translate(2507.988281 0)"/>
     <use xlink:href="#DejaVuSans-20" transform="translate(2547.197266 0)"/>
     <use xlink:href="#DejaVuSans-65" transform="translate(2578.984375 0)"/>
     <use xlink:href="#DejaVuSans-76" transform="translate(2640.507812 0)"/>
     <use xlink:href="#DejaVuSans-65" transform="translate(2699.6875 0)"/>
     <use xlink:href="#DejaVuSans-6e" transform="translate(2761.210938 0)"/>
     <use xlink:href="#DejaVuSans-74" transform="translate(2824.589844 0)"/>
    </g>
   </g>
  </g>
 </g>
 <defs>
  <clipPath id="pcd9d12f570">
   <rect x="45.92" y="24.72" width="398.68" height="222.04"/>
  </clipPath>
  <clipPath id="p44ce929530">
   <rect x="490.52" y="24.72" width="398.68" height="222.04"/>
  </clipPath>
 </defs>
</svg>
