<?xml version="1.0" encoding="utf-8" standalone="no"?>
<!DOCTYPE svg PUBLIC "-//W3C//DTD SVG 1.1//EN"
  "http://www.w3.org/Graphics/SVG/1.1/DTD/svg11.dtd">
<svg xmlns:xlink="http://www.w3.org/1999/xlink" width="504pt" height="216pt" viewBox="0 0 504 216" xmlns="http://www.w3.org/2000/svg" version="1.1">
 <metadata>
  <rdf:RDF xmlns:dc="http://purl.org/dc/elements/1.1/" xmlns:cc="http://creativecommons.org/ns#" xmlns:rdf="http://www.w3.org/1999/02/22-rdf-syntax-ns#">
   <cc:Work>
    <dc:type rdf:resource="http://purl.org/dc/dcmitype/StillImage"/>
    <dc:date>2026-05-01T14:56:56.528313</dc:date>
    <dc:format>image/svg+xml</dc:format>
    <dc:creator>
     <cc:Agent>
      <dc:title>Matplotlib v3.10.9, https://matplotlib.org/</dc:title>
     </cc:Agent>
    </dc:creator>
   </cc:Work>
  </rdf:RDF>
 </metadata>
 <defs>
  <style type="text/css">*{stroke-linejoin: round; stroke-linecap: butt}</style>
 </defs>
 <g id="figure_1">
  <g id="patch_1">
   <path d="M 0 216 
L 504 216 
L 504 0 
L 0 0 
L 0 216 
z
" style="fill: none"/>
  </g>
  <g id="axes_1">
   <g id="patch_2">
    <path d="M 37.45274 161.70053 
L 500.99976 161.70053 
L 500.99976 16.598677 
L 37.45274 16.598677 
L 37.45274 161.70053 
z
" style="fill: none"/>
   </g>
   <g id="patch_3">
    <path d="M 5.847261 161.70053 
L 111.198857 161.70053 
L 111.198857 16.598677 
L 5.847261 16.598677 
z
" clip-path="url(#pcfe3f68a99)" style="fill: #dcdcdc; opacity: 0.18"/>
   </g>
   <g id="text_1">
    <!-- window out -->
    <g style="fill: #777777" transform="translate(48.453611 80.203541) scale(0.09 -0.09)">
     <defs>
      <path id="DejaVuSans-Oblique-77" d="M 544 3500 
L 1113 3500 
L 1259 684 
L 2566 3500 
L 3231 3500 
L 3425 684 
L 4666 3500 
L 5241 3500 
L 3641 0 
L 2969 0 
L 2797 2900 
L 1459 0 
L 781 0 
L 544 3500 
z
" transform="scale(0.015625)"/>
      <path id="DejaVuSans-Oblique-69" d="M 1172 4863 
L 1747 4863 
L 1606 4134 
L 1031 4134 
L 1172 4863 
z
M 909 3500 
L 1484 3500 
L 800 0 
L 225 0 
L 909 3500 
z
" transform="scale(0.015625)"/>
      <path id="DejaVuSans-Oblique-6e" d="M 3566 2113 
L 3156 0 
L 2578 0 
L 2988 2091 
Q 3016 2238 3031 2350 
Q 3047 2463 3047 2528 
Q 3047 2791 2881 2937 
Q 2716 3084 2419 3084 
Q 1956 3084 1622 2776 
Q 1288 2469 1184 1941 
L 800 0 
L 225 0 
L 903 3500 
L 1478 3500 
L 1363 2950 
Q 1603 3253 1940 3418 
Q 2278 3584 2650 3584 
Q 3113 3584 3367 3334 
Q 3622 3084 3622 2631 
Q 3622 2519 3608 2391 
Q 3594 2263 3566 2113 
z
" transform="scale(0.015625)"/>
      <path id="DejaVuSans-Oblique-64" d="M 2675 525 
Q 2444 222 2128 65 
Q 1813 -91 1428 -91 
Q 903 -91 598 267 
Q 294 625 294 1247 
Q 294 1766 478 2236 
Q 663 2706 1013 3078 
Q 1244 3325 1534 3454 
Q 1825 3584 2144 3584 
Q 2481 3584 2739 3421 
Q 2997 3259 3138 2956 
L 3513 4863 
L 4091 4863 
L 3144 0 
L 2566 0 
L 2675 525 
z
M 891 1350 
Q 891 897 1095 644 
Q 1300 391 1663 391 
Q 1931 391 2161 520 
Q 2391 650 2566 903 
Q 2750 1166 2856 1509 
Q 2963 1853 2963 2188 
Q 2963 2622 2758 2865 
Q 2553 3109 2194 3109 
Q 1922 3109 1687 2981 
Q 1453 2853 1288 2613 
Q 1106 2353 998 2009 
Q 891 1666 891 1350 
z
" transform="scale(0.015625)"/>
      <path id="DejaVuSans-Oblique-6f" d="M 1625 -91 
Q 1009 -91 651 289 
Q 294 669 294 1325 
Q 294 1706 417 2101 
Q 541 2497 738 2766 
Q 1047 3184 1428 3384 
Q 1809 3584 2291 3584 
Q 2888 3584 3255 3212 
Q 3622 2841 3622 2241 
Q 3622 1825 3500 1412 
Q 3378 1000 3181 728 
Q 2875 309 2494 109 
Q 2113 -91 1625 -91 
z
M 891 1344 
Q 891 869 1089 633 
Q 1288 397 1691 397 
Q 2269 397 2648 901 
Q 3028 1406 3028 2181 
Q 3028 2634 2825 2865 
Q 2622 3097 2228 3097 
Q 1903 3097 1650 2945 
Q 1397 2794 1197 2484 
Q 1050 2253 970 1956 
Q 891 1659 891 1344 
z
" transform="scale(0.015625)"/>
      <path id="DejaVuSans-Oblique-20" transform="scale(0.015625)"/>
      <path id="DejaVuSans-Oblique-75" d="M 428 1388 
L 838 3500 
L 1416 3500 
L 1006 1409 
Q 975 1256 961 1147 
Q 947 1038 947 966 
Q 947 700 1109 554 
Q 1272 409 1569 409 
Q 2031 409 2368 721 
Q 2706 1034 2809 1563 
L 3194 3500 
L 3769 3500 
L 3091 0 
L 2516 0 
L 2631 550 
Q 2388 244 2052 76 
Q 1716 -91 1338 -91 
Q 878 -91 622 161 
Q 366 413 366 863 
Q 366 956 381 1097 
Q 397 1238 428 1388 
z
" transform="scale(0.015625)"/>
      <path id="DejaVuSans-Oblique-74" d="M 2706 3500 
L 2619 3053 
L 1472 3053 
L 1100 1153 
Q 1081 1047 1072 975 
Q 1063 903 1063 863 
Q 1063 663 1183 572 
Q 1303 481 1569 481 
L 2150 481 
L 2053 0 
L 1503 0 
Q 991 0 739 200 
Q 488 400 488 806 
Q 488 878 497 964 
Q 506 1050 525 1153 
L 897 3053 
L 409 3053 
L 500 3500 
L 978 3500 
L 1172 4494 
L 1747 4494 
L 1556 3500 
L 2706 3500 
z
" transform="scale(0.015625)"/>
     </defs>
     <use xlink:href="#DejaVuSans-Oblique-77"/>
     <use xlink:href="#DejaVuSans-Oblique-69" transform="translate(81.787109 0)"/>
     <use xlink:href="#DejaVuSans-Oblique-6e" transform="translate(109.570312 0)"/>
     <use xlink:href="#DejaVuSans-Oblique-64" transform="translate(172.949219 0)"/>
     <use xlink:href="#DejaVuSans-Oblique-6f" transform="translate(236.425781 0)"/>
     <use xlink:href="#DejaVuSans-Oblique-77" transform="translate(297.607422 0)"/>
     <use xlink:href="#DejaVuSans-Oblique-20" transform="translate(379.394531 0)"/>
     <use xlink:href="#DejaVuSans-Oblique-6f" transform="translate(411.181641 0)"/>
     <use xlink:href="#DejaVuSans-Oblique-75" transform="translate(472.363281 0)"/>
     <use xlink:href="#DejaVuSans-Oblique-74" transform="translate(535.742188 0)"/>
    </g>
    <!-- of recording -->
    <g style="fill: #777777" transform="translate(47.045955 90.281572) scale(0.09 -0.09)">
     <defs>
      <path id="DejaVuSans-Oblique-66" d="M 3059 4863 
L 2969 4384 
L 2419 4384 
Q 2106 4384 1964 4261 
Q 1822 4138 1753 3809 
L 1691 3500 
L 2638 3500 
L 2553 3053 
L 1606 3053 
L 1013 0 
L 434 0 
L 1031 3053 
L 481 3053 
L 563 3500 
L 1113 3500 
L 1159 3744 
Q 1278 4363 1576 4613 
Q 1875 4863 2516 4863 
L 3059 4863 
z
" transform="scale(0.015625)"/>
      <path id="DejaVuSans-Oblique-72" d="M 2853 2969 
Q 2766 3016 2653 3041 
Q 2541 3066 2413 3066 
Q 1953 3066 1609 2717 
Q 1266 2369 1153 1784 
L 800 0 
L 225 0 
L 909 3500 
L 1484 3500 
L 1375 2956 
Q 1603 3259 1920 3421 
Q 2238 3584 2597 3584 
Q 2691 3584 2781 3573 
Q 2872 3563 2963 3538 
L 2853 2969 
z
" transform="scale(0.015625)"/>
      <path id="DejaVuSans-Oblique-65" d="M 3078 2063 
Q 3088 2113 3092 2166 
Q 3097 2219 3097 2272 
Q 3097 2653 2873 2875 
Q 2650 3097 2266 3097 
Q 1838 3097 1509 2826 
Q 1181 2556 1013 2059 
L 3078 2063 
z
M 3578 1613 
L 903 1613 
Q 884 1494 878 1425 
Q 872 1356 872 1306 
Q 872 872 1139 634 
Q 1406 397 1894 397 
Q 2269 397 2603 481 
Q 2938 566 3225 728 
L 3116 159 
Q 2806 34 2476 -28 
Q 2147 -91 1806 -91 
Q 1078 -91 686 257 
Q 294 606 294 1247 
Q 294 1794 489 2264 
Q 684 2734 1063 3103 
Q 1306 3334 1642 3459 
Q 1978 3584 2356 3584 
Q 2950 3584 3301 3228 
Q 3653 2872 3653 2272 
Q 3653 2128 3634 1964 
Q 3616 1800 3578 1613 
z
" transform="scale(0.015625)"/>
      <path id="DejaVuSans-Oblique-63" d="M 3431 3366 
L 3316 2797 
Q 3109 2947 2876 3022 
Q 2644 3097 2394 3097 
Q 2119 3097 1870 3000 
Q 1622 2903 1453 2725 
Q 1184 2453 1037 2087 
Q 891 1722 891 1331 
Q 891 859 1127 628 
Q 1363 397 1844 397 
Q 2081 397 2348 469 
Q 2616 541 2906 684 
L 2797 116 
Q 2547 13 2283 -39 
Q 2019 -91 1741 -91 
Q 1044 -91 669 257 
Q 294 606 294 1253 
Q 294 1797 489 2255 
Q 684 2713 1069 3078 
Q 1331 3328 1684 3456 
Q 2038 3584 2456 3584 
Q 2700 3584 2940 3529 
Q 3181 3475 3431 3366 
z
" transform="scale(0.015625)"/>
      <path id="DejaVuSans-Oblique-67" d="M 3816 3500 
L 3219 434 
Q 3047 -456 2561 -893 
Q 2075 -1331 1253 -1331 
Q 950 -1331 690 -1286 
Q 431 -1241 206 -1147 
L 313 -588 
Q 525 -725 762 -790 
Q 1000 -856 1269 -856 
Q 1816 -856 2167 -557 
Q 2519 -259 2631 300 
L 2681 563 
Q 2441 288 2122 144 
Q 1803 0 1434 0 
Q 903 0 598 351 
Q 294 703 294 1319 
Q 294 1803 478 2267 
Q 663 2731 997 3091 
Q 1219 3328 1514 3456 
Q 1809 3584 2131 3584 
Q 2484 3584 2746 3420 
Q 3009 3256 3138 2956 
L 3238 3500 
L 3816 3500 
z
M 2950 2216 
Q 2950 2641 2750 2872 
Q 2550 3103 2181 3103 
Q 1953 3103 1747 3012 
Q 1541 2922 1394 2759 
Q 1156 2491 1023 2127 
Q 891 1763 891 1375 
Q 891 944 1092 712 
Q 1294 481 1672 481 
Q 2219 481 2584 976 
Q 2950 1472 2950 2216 
z
" transform="scale(0.015625)"/>
     </defs>
     <use xlink:href="#DejaVuSans-Oblique-6f"/>
     <use xlink:href="#DejaVuSans-Oblique-66" transform="translate(61.181641 0)"/>
     <use xlink:href="#DejaVuSans-Oblique-20" transform="translate(96.386719 0)"/>
     <use xlink:href="#DejaVuSans-Oblique-72" transform="translate(128.173828 0)"/>
     <use xlink:href="#DejaVuSans-Oblique-65" transform="translate(169.287109 0)"/>
     <use xlink:href="#DejaVuSans-Oblique-63" transform="translate(230.810547 0)"/>
     <use xlink:href="#DejaVuSans-Oblique-6f" transform="translate(285.791016 0)"/>
     <use xlink:href="#DejaVuSans-Oblique-72" transform="translate(346.972656 0)"/>
     <use xlink:href="#DejaVuSans-Oblique-64" transform="translate(388.085938 0)"/>
     <use xlink:href="#DejaVuSans-Oblique-69" transform="translate(451.5625 0)"/>
     <use xlink:href="#DejaVuSans-Oblique-6e" transform="translate(479.345703 0)"/>
     <use xlink:href="#DejaVuSans-Oblique-67" transform="translate(542.724609 0)"/>
    </g>
   </g>
   <g id="matplotlib.axis_1">
    <g id="xtick_1">
     <g id="line2d_1">
      <defs>
       <path id="m0bca6c18ed" d="M 0 0 
L 0 3.5 
" style="stroke: #444444; stroke-width: 0.8"/>
      </defs>
      <g>
       <use xlink:href="#m0bca6c18ed" x="58.523059" y="161.70053" style="fill: #444444; stroke: #444444; stroke-width: 0.8"/>
      </g>
     </g>
     <g id="text_2">
      <!-- −5 -->
      <g style="fill: #444444" transform="translate(51.151965 176.298968) scale(0.1 -0.1)">
       <defs>
        <path id="DejaVuSans-2212" d="M 678 2272 
L 4684 2272 
L 4684 1741 
L 678 1741 
L 678 2272 
z
" transform="scale(0.015625)"/>
        <path id="DejaVuSans-35" d="M 691 4666 
L 3169 4666 
L 3169 4134 
L 1269 4134 
L 1269 2991 
Q 1406 3038 1543 3061 
Q 1681 3084 1819 3084 
Q 2600 3084 3056 2656 
Q 3513 2228 3513 1497 
Q 3513 744 3044 326 
Q 2575 -91 1722 -91 
Q 1428 -91 1123 -41 
Q 819 9 494 109 
L 494 744 
Q 775 591 1075 516 
Q 1375 441 1709 441 
Q 2250 441 2565 725 
Q 2881 1009 2881 1497 
Q 2881 1984 2565 2268 
Q 2250 2553 1709 2553 
Q 1456 2553 1204 2497 
Q 953 2441 691 2322 
L 691 4666 
z
" transform="scale(0.015625)"/>
       </defs>
       <use xlink:href="#DejaVuSans-2212"/>
       <use xlink:href="#DejaVuSans-35" transform="translate(83.789062 0)"/>
      </g>
     </g>
    </g>
    <g id="xtick_2">
     <g id="line2d_2">
      <g>
       <use xlink:href="#m0bca6c18ed" x="111.198857" y="161.70053" style="fill: #444444; stroke: #444444; stroke-width: 0.8"/>
      </g>
     </g>
     <g id="text_3">
      <!-- 0 -->
      <g style="fill: #444444" transform="translate(108.017607 176.298968) scale(0.1 -0.1)">
       <defs>
        <path id="DejaVuSans-30" d="M 2034 4250 
Q 1547 4250 1301 3770 
Q 1056 3291 1056 2328 
Q 1056 1369 1301 889 
Q 1547 409 2034 409 
Q 2525 409 2770 889 
Q 3016 1369 3016 2328 
Q 3016 3291 2770 3770 
Q 2525 4250 2034 4250 
z
M 2034 4750 
Q 2819 4750 3233 4129 
Q 3647 3509 3647 2328 
Q 3647 1150 3233 529 
Q 2819 -91 2034 -91 
Q 1250 -91 836 529 
Q 422 1150 422 2328 
Q 422 3509 836 4129 
Q 1250 4750 2034 4750 
z
" transform="scale(0.015625)"/>
       </defs>
       <use xlink:href="#DejaVuSans-30"/>
      </g>
     </g>
    </g>
    <g id="xtick_3">
     <g id="line2d_3">
      <g>
       <use xlink:href="#m0bca6c18ed" x="163.874655" y="161.70053" style="fill: #444444; stroke: #444444; stroke-width: 0.8"/>
      </g>
     </g>
     <g id="text_4">
      <!-- 5 -->
      <g style="fill: #444444" transform="translate(160.693405 176.298968) scale(0.1 -0.1)">
       <use xlink:href="#DejaVuSans-35"/>
      </g>
     </g>
    </g>
    <g id="xtick_4">
     <g id="line2d_4">
      <g>
       <use xlink:href="#m0bca6c18ed" x="216.550452" y="161.70053" style="fill: #444444; stroke: #444444; stroke-width: 0.8"/>
      </g>
     </g>
     <g id="text_5">
      <!-- 10 -->
      <g style="fill: #444444" transform="translate(210.187952 176.298968) scale(0.1 -0.1)">
       <defs>
        <path id="DejaVuSans-31" d="M 794 531 
L 1825 531 
L 1825 4091 
L 703 3866 
L 703 4441 
L 1819 4666 
L 2450 4666 
L 2450 531 
L 3481 531 
L 3481 0 
L 794 0 
L 794 531 
z
" transform="scale(0.015625)"/>
       </defs>
       <use xlink:href="#DejaVuSans-31"/>
       <use xlink:href="#DejaVuSans-30" transform="translate(63.623047 0)"/>
      </g>
     </g>
    </g>
    <g id="xtick_5">
     <g id="line2d_5">
      <g>
       <use xlink:href="#m0bca6c18ed" x="269.22625" y="161.70053" style="fill: #444444; stroke: #444444; stroke-width: 0.8"/>
      </g>
     </g>
     <g id="text_6">
      <!-- 15 -->
      <g style="fill: #444444" transform="translate(262.86375 176.298968) scale(0.1 -0.1)">
       <use xlink:href="#DejaVuSans-31"/>
       <use xlink:href="#DejaVuSans-35" transform="translate(63.623047 0)"/>
      </g>
     </g>
    </g>
    <g id="xtick_6">
     <g id="line2d_6">
      <g>
       <use xlink:href="#m0bca6c18ed" x="321.902048" y="161.70053" style="fill: #444444; stroke: #444444; stroke-width: 0.8"/>
      </g>
     </g>
     <g id="text_7">
      <!-- 20 -->
      <g style="fill: #444444" transform="translate(315.539548 176.298968) scale(0.1 -0.1)">
       <defs>
        <path id="DejaVuSans-32" d="M 1228 531 
L 3431 531 
L 3431 0 
L 469 0 
L 469 531 
Q 828 903 1448 1529 
Q 2069 2156 2228 2338 
Q 2531 2678 2651 2914 
Q 2772 3150 2772 3378 
Q 2772 3750 2511 3984 
Q 2250 4219 1831 4219 
Q 1534 4219 1204 4116 
Q 875 4013 500 3803 
L 500 4441 
Q 881 4594 1212 4672 
Q 1544 4750 1819 4750 
Q 2544 4750 2975 4387 
Q 3406 4025 3406 3419 
Q 3406 3131 3298 2873 
Q 3191 2616 2906 2266 
Q 2828 2175 2409 1742 
Q 1991 1309 1228 531 
z
" transform="scale(0.015625)"/>
       </defs>
       <use xlink:href="#DejaVuSans-32"/>
       <use xlink:href="#DejaVuSans-30" transform="translate(63.623047 0)"/>
      </g>
     </g>
    </g>
    <g id="xtick_7">
     <g id="line2d_7">
      <g>
       <use xlink:href="#m0bca6c18ed" x="374.577845" y="161.70053" style="fill: #444444; stroke: #444444; stroke-width: 0.8"/>
      </g>
     </g>
     <g id="text_8">
      <!-- 25 -->
      <g style="fill: #444444" transform="translate(368.215345 176.298968) scale(0.1 -0.1)">
       <use xlink:href="#DejaVuSans-32"/>
       <use xlink:href="#DejaVuSans-35" transform="translate(63.623047 0)"/>
      </g>
     </g>
    </g>
    <g id="xtick_8">
     <g id="line2d_8">
      <g>
       <use xlink:href="#m0bca6c18ed" x="427.253643" y="161.70053" style="fill: #444444; stroke: #444444; stroke-width: 0.8"/>
      </g>
     </g>
     <g id="text_9">
      <!-- 30 -->
      <g style="fill: #444444" transform="translate(420.891143 176.298968) scale(0.1 -0.1)">
       <defs>
        <path id="DejaVuSans-33" d="M 2597 2516 
Q 3050 2419 3304 2112 
Q 3559 1806 3559 1356 
Q 3559 666 3084 287 
Q 2609 -91 1734 -91 
Q 1441 -91 1130 -33 
Q 819 25 488 141 
L 488 750 
Q 750 597 1062 519 
Q 1375 441 1716 441 
Q 2309 441 2620 675 
Q 2931 909 2931 1356 
Q 2931 1769 2642 2001 
Q 2353 2234 1838 2234 
L 1294 2234 
L 1294 2753 
L 1863 2753 
Q 2328 2753 2575 2939 
Q 2822 3125 2822 3475 
Q 2822 3834 2567 4026 
Q 2313 4219 1838 4219 
Q 1578 4219 1281 4162 
Q 984 4106 628 3988 
L 628 4550 
Q 988 4650 1302 4700 
Q 1616 4750 1894 4750 
Q 2613 4750 3031 4423 
Q 3450 4097 3450 3541 
Q 3450 3153 3228 2886 
Q 3006 2619 2597 2516 
z
" transform="scale(0.015625)"/>
       </defs>
       <use xlink:href="#DejaVuSans-33"/>
       <use xlink:href="#DejaVuSans-30" transform="translate(63.623047 0)"/>
      </g>
     </g>
    </g>
    <g id="xtick_9">
     <g id="line2d_9">
      <g>
       <use xlink:href="#m0bca6c18ed" x="479.929441" y="161.70053" style="fill: #444444; stroke: #444444; stroke-width: 0.8"/>
      </g>
     </g>
     <g id="text_10">
      <!-- 35 -->
      <g style="fill: #444444" transform="translate(473.566941 176.298968) scale(0.1 -0.1)">
       <use xlink:href="#DejaVuSans-33"/>
       <use xlink:href="#DejaVuSans-35" transform="translate(63.623047 0)"/>
      </g>
     </g>
    </g>
    <g id="text_11">
     <!-- time (s) -->
     <g style="fill: #444444" transform="translate(251.773984 189.217249) scale(0.09 -0.09)">
      <defs>
       <path id="DejaVuSans-74" d="M 1172 4494 
L 1172 3500 
L 2356 3500 
L 2356 3053 
L 1172 3053 
L 1172 1153 
Q 1172 725 1289 603 
Q 1406 481 1766 481 
L 2356 481 
L 2356 0 
L 1766 0 
Q 1100 0 847 248 
Q 594 497 594 1153 
L 594 3053 
L 172 3053 
L 172 3500 
L 594 3500 
L 594 4494 
L 1172 4494 
z
" transform="scale(0.015625)"/>
       <path id="DejaVuSans-69" d="M 603 3500 
L 1178 3500 
L 1178 0 
L 603 0 
L 603 3500 
z
M 603 4863 
L 1178 4863 
L 1178 4134 
L 603 4134 
L 603 4863 
z
" transform="scale(0.015625)"/>
       <path id="DejaVuSans-6d" d="M 3328 2828 
Q 3544 3216 3844 3400 
Q 4144 3584 4550 3584 
Q 5097 3584 5394 3201 
Q 5691 2819 5691 2113 
L 5691 0 
L 5113 0 
L 5113 2094 
Q 5113 2597 4934 2840 
Q 4756 3084 4391 3084 
Q 3944 3084 3684 2787 
Q 3425 2491 3425 1978 
L 3425 0 
L 2847 0 
L 2847 2094 
Q 2847 2600 2669 2842 
Q 2491 3084 2119 3084 
Q 1678 3084 1418 2786 
Q 1159 2488 1159 1978 
L 1159 0 
L 581 0 
L 581 3500 
L 1159 3500 
L 1159 2956 
Q 1356 3278 1631 3431 
Q 1906 3584 2284 3584 
Q 2666 3584 2933 3390 
Q 3200 3197 3328 2828 
z
" transform="scale(0.015625)"/>
       <path id="DejaVuSans-65" d="M 3597 1894 
L 3597 1613 
L 953 1613 
Q 991 1019 1311 708 
Q 1631 397 2203 397 
Q 2534 397 2845 478 
Q 3156 559 3463 722 
L 3463 178 
Q 3153 47 2828 -22 
Q 2503 -91 2169 -91 
Q 1331 -91 842 396 
Q 353 884 353 1716 
Q 353 2575 817 3079 
Q 1281 3584 2069 3584 
Q 2775 3584 3186 3129 
Q 3597 2675 3597 1894 
z
M 3022 2063 
Q 3016 2534 2758 2815 
Q 2500 3097 2075 3097 
Q 1594 3097 1305 2825 
Q 1016 2553 972 2059 
L 3022 2063 
z
" transform="scale(0.015625)"/>
       <path id="DejaVuSans-20" transform="scale(0.015625)"/>
       <path id="DejaVuSans-28" d="M 1984 4856 
Q 1566 4138 1362 3434 
Q 1159 2731 1159 2009 
Q 1159 1288 1364 580 
Q 1569 -128 1984 -844 
L 1484 -844 
Q 1016 -109 783 600 
Q 550 1309 550 2009 
Q 550 2706 781 3412 
Q 1013 4119 1484 4856 
L 1984 4856 
z
" transform="scale(0.015625)"/>
       <path id="DejaVuSans-73" d="M 2834 3397 
L 2834 2853 
Q 2591 2978 2328 3040 
Q 2066 3103 1784 3103 
Q 1356 3103 1142 2972 
Q 928 2841 928 2578 
Q 928 2378 1081 2264 
Q 1234 2150 1697 2047 
L 1894 2003 
Q 2506 1872 2764 1633 
Q 3022 1394 3022 966 
Q 3022 478 2636 193 
Q 2250 -91 1575 -91 
Q 1294 -91 989 -36 
Q 684 19 347 128 
L 347 722 
Q 666 556 975 473 
Q 1284 391 1588 391 
Q 1994 391 2212 530 
Q 2431 669 2431 922 
Q 2431 1156 2273 1281 
Q 2116 1406 1581 1522 
L 1381 1569 
Q 847 1681 609 1914 
Q 372 2147 372 2553 
Q 372 3047 722 3315 
Q 1072 3584 1716 3584 
Q 2034 3584 2315 3537 
Q 2597 3491 2834 3397 
z
" transform="scale(0.015625)"/>
       <path id="DejaVuSans-29" d="M 513 4856 
L 1013 4856 
Q 1481 4119 1714 3412 
Q 1947 2706 1947 2009 
Q 1947 1309 1714 600 
Q 1481 -109 1013 -844 
L 513 -844 
Q 928 -128 1133 580 
Q 1338 1288 1338 2009 
Q 1338 2731 1133 3434 
Q 928 4138 513 4856 
z
" transform="scale(0.015625)"/>
      </defs>
      <use xlink:href="#DejaVuSans-74"/>
      <use xlink:href="#DejaVuSans-69" transform="translate(39.208984 0)"/>
      <use xlink:href="#DejaVuSans-6d" transform="translate(66.992188 0)"/>
      <use xlink:href="#DejaVuSans-65" transform="translate(164.404297 0)"/>
      <use xlink:href="#DejaVuSans-20" transform="translate(225.927734 0)"/>
      <use xlink:href="#DejaVuSans-28" transform="translate(257.714844 0)"/>
      <use xlink:href="#DejaVuSans-73" transform="translate(296.728516 0)"/>
      <use xlink:href="#DejaVuSans-29" transform="translate(348.828125 0)"/>
     </g>
    </g>
   </g>
   <g id="matplotlib.axis_2">
    <g id="ytick_1">
     <g id="line2d_10">
      <defs>
       <path id="m625fda6527" d="M 0 0 
L -3.5 0 
" style="stroke: #444444; stroke-width: 0.8"/>
      </defs>
      <g>
       <use xlink:href="#m625fda6527" x="37.45274" y="158.078209" style="fill: #444444; stroke: #444444; stroke-width: 0.8"/>
      </g>
     </g>
     <g id="text_12">
      <!-- −1 -->
      <g style="fill: #444444" transform="translate(15.710553 161.877427) scale(0.1 -0.1)">
       <use xlink:href="#DejaVuSans-2212"/>
       <use xlink:href="#DejaVuSans-31" transform="translate(83.789062 0)"/>
      </g>
     </g>
    </g>
    <g id="ytick_2">
     <g id="line2d_11">
      <g>
       <use xlink:href="#m625fda6527" x="37.45274" y="133.131684" style="fill: #444444; stroke: #444444; stroke-width: 0.8"/>
      </g>
     </g>
     <g id="text_13">
      <!-- 0 -->
      <g style="fill: #444444" transform="translate(24.09024 136.930903) scale(0.1 -0.1)">
       <use xlink:href="#DejaVuSans-30"/>
      </g>
     </g>
    </g>
    <g id="ytick_3">
     <g id="line2d_12">
      <g>
       <use xlink:href="#m625fda6527" x="37.45274" y="108.185159" style="fill: #444444; stroke: #444444; stroke-width: 0.8"/>
      </g>
     </g>
     <g id="text_14">
      <!-- 1 -->
      <g style="fill: #444444" transform="translate(24.09024 111.984378) scale(0.1 -0.1)">
       <use xlink:href="#DejaVuSans-31"/>
      </g>
     </g>
    </g>
    <g id="ytick_4">
     <g id="line2d_13">
      <g>
       <use xlink:href="#m625fda6527" x="37.45274" y="83.238634" style="fill: #444444; stroke: #444444; stroke-width: 0.8"/>
      </g>
     </g>
     <g id="text_15">
      <!-- 2 -->
      <g style="fill: #444444" transform="translate(24.09024 87.037853) scale(0.1 -0.1)">
       <use xlink:href="#DejaVuSans-32"/>
      </g>
     </g>
    </g>
    <g id="ytick_5">
     <g id="line2d_14">
      <g>
       <use xlink:href="#m625fda6527" x="37.45274" y="58.29211" style="fill: #444444; stroke: #444444; stroke-width: 0.8"/>
      </g>
     </g>
     <g id="text_16">
      <!-- 3 -->
      <g style="fill: #444444" transform="translate(24.09024 62.091328) scale(0.1 -0.1)">
       <use xlink:href="#DejaVuSans-33"/>
      </g>
     </g>
    </g>
    <g id="ytick_6">
     <g id="line2d_15">
      <g>
       <use xlink:href="#m625fda6527" x="37.45274" y="33.345585" style="fill: #444444; stroke: #444444; stroke-width: 0.8"/>
      </g>
     </g>
     <g id="text_17">
      <!-- 4 -->
      <g style="fill: #444444" transform="translate(24.09024 37.144804) scale(0.1 -0.1)">
       <defs>
        <path id="DejaVuSans-34" d="M 2419 4116 
L 825 1625 
L 2419 1625 
L 2419 4116 
z
M 2253 4666 
L 3047 4666 
L 3047 1625 
L 3713 1625 
L 3713 1100 
L 3047 1100 
L 3047 0 
L 2419 0 
L 2419 1100 
L 313 1100 
L 313 1709 
L 2253 4666 
z
" transform="scale(0.015625)"/>
       </defs>
       <use xlink:href="#DejaVuSans-34"/>
      </g>
     </g>
    </g>
    <g id="text_18">
     <!-- z-score -->
     <g style="fill: #444444" transform="translate(9.838834 105.224447) rotate(-90) scale(0.09 -0.09)">
      <defs>
       <path id="DejaVuSans-7a" d="M 353 3500 
L 3084 3500 
L 3084 2975 
L 922 459 
L 3084 459 
L 3084 0 
L 275 0 
L 275 525 
L 2438 3041 
L 353 3041 
L 353 3500 
z
" transform="scale(0.015625)"/>
       <path id="DejaVuSans-2d" d="M 313 2009 
L 1997 2009 
L 1997 1497 
L 313 1497 
L 313 2009 
z
" transform="scale(0.015625)"/>
       <path id="DejaVuSans-63" d="M 3122 3366 
L 3122 2828 
Q 2878 2963 2633 3030 
Q 2388 3097 2138 3097 
Q 1578 3097 1268 2742 
Q 959 2388 959 1747 
Q 959 1106 1268 751 
Q 1578 397 2138 397 
Q 2388 397 2633 464 
Q 2878 531 3122 666 
L 3122 134 
Q 2881 22 2623 -34 
Q 2366 -91 2075 -91 
Q 1284 -91 818 406 
Q 353 903 353 1747 
Q 353 2603 823 3093 
Q 1294 3584 2113 3584 
Q 2378 3584 2631 3529 
Q 2884 3475 3122 3366 
z
" transform="scale(0.015625)"/>
       <path id="DejaVuSans-6f" d="M 1959 3097 
Q 1497 3097 1228 2736 
Q 959 2375 959 1747 
Q 959 1119 1226 758 
Q 1494 397 1959 397 
Q 2419 397 2687 759 
Q 2956 1122 2956 1747 
Q 2956 2369 2687 2733 
Q 2419 3097 1959 3097 
z
M 1959 3584 
Q 2709 3584 3137 3096 
Q 3566 2609 3566 1747 
Q 3566 888 3137 398 
Q 2709 -91 1959 -91 
Q 1206 -91 779 398 
Q 353 888 353 1747 
Q 353 2609 779 3096 
Q 1206 3584 1959 3584 
z
" transform="scale(0.015625)"/>
       <path id="DejaVuSans-72" d="M 2631 2963 
Q 2534 3019 2420 3045 
Q 2306 3072 2169 3072 
Q 1681 3072 1420 2755 
Q 1159 2438 1159 1844 
L 1159 0 
L 581 0 
L 581 3500 
L 1159 3500 
L 1159 2956 
Q 1341 3275 1631 3429 
Q 1922 3584 2338 3584 
Q 2397 3584 2469 3576 
Q 2541 3569 2628 3553 
L 2631 2963 
z
" transform="scale(0.015625)"/>
      </defs>
      <use xlink:href="#DejaVuSans-7a"/>
      <use xlink:href="#DejaVuSans-2d" transform="translate(52.490234 0)"/>
      <use xlink:href="#DejaVuSans-73" transform="translate(88.574219 0)"/>
      <use xlink:href="#DejaVuSans-63" transform="translate(140.673828 0)"/>
      <use xlink:href="#DejaVuSans-6f" transform="translate(195.654297 0)"/>
      <use xlink:href="#DejaVuSans-72" transform="translate(256.835938 0)"/>
      <use xlink:href="#DejaVuSans-65" transform="translate(295.699219 0)"/>
     </g>
    </g>
   </g>
   <g id="line2d_16">
    <path d="M 111.198857 134.877444 
L 111.550029 131.908451 
L 111.901201 130.355964 
L 112.252373 137.43315 
L 112.603545 129.602449 
L 112.954717 131.881265 
L 113.305889 129.48189 
L 113.657061 131.738554 
L 114.008233 127.699321 
L 114.359405 137.072877 
L 114.710577 124.818786 
L 115.061749 127.311897 
L 115.412921 135.303936 
L 115.764093 129.522861 
L 116.115265 130.34214 
L 116.466437 140.000858 
L 116.817609 129.27686 
L 117.168781 134.326143 
L 117.519953 132.521956 
L 117.871125 133.753348 
L 118.222297 132.559806 
L 118.573469 129.836788 
L 118.92464 129.169811 
L 119.275812 135.965531 
L 119.626984 129.436989 
L 119.978156 133.431445 
L 120.329328 132.147988 
L 121.031672 120.320561 
L 121.382844 119.980365 
L 121.734016 124.030317 
L 122.43636 121.555898 
L 123.138704 109.486893 
L 123.489876 111.278985 
L 123.841048 105.744677 
L 124.19222 104.766494 
L 124.543392 96.594203 
L 124.894564 109.373 
L 125.245736 106.805445 
L 125.596908 94.877651 
L 125.94808 87.773663 
L 126.299252 89.038003 
L 126.650424 81.787244 
L 127.001596 85.443427 
L 127.352768 82.30366 
L 127.70394 76.373531 
L 128.055112 65.951698 
L 128.406284 63.277845 
L 128.757456 66.419802 
L 129.108628 59.388579 
L 129.4598 60.301879 
L 129.810972 54.736831 
L 130.162144 57.535385 
L 130.513316 50.746326 
L 130.864488 52.172572 
L 131.21566 47.746948 
L 131.566832 49.519438 
L 131.918004 49.702587 
L 132.269176 45.309498 
L 132.620348 47.529488 
L 132.97152 46.494211 
L 133.322692 49.429607 
L 133.673864 46.112826 
L 134.025036 54.200009 
L 134.376208 49.079797 
L 134.72738 48.845844 
L 135.078552 58.60145 
L 135.429724 52.365078 
L 135.780896 54.102925 
L 136.48324 75.825707 
L 136.834412 80.410907 
L 137.185584 77.43787 
L 137.536756 72.199182 
L 137.887928 81.119215 
L 138.2391 83.79064 
L 138.941444 97.328081 
L 139.292616 95.566239 
L 139.643788 105.341039 
L 139.99496 104.232914 
L 140.346132 103.887533 
L 140.697304 108.694101 
L 141.048476 109.004545 
L 141.399648 115.695404 
L 141.75082 113.166536 
L 142.101991 116.023486 
L 142.453163 127.067548 
L 142.804335 125.995327 
L 143.155507 126.061827 
L 143.506679 121.217351 
L 143.857851 124.011232 
L 144.560195 126.616208 
L 144.911367 125.372381 
L 145.262539 124.719389 
L 145.964883 137.302695 
L 146.316055 127.641012 
L 146.667227 131.988823 
L 147.018399 131.180147 
L 147.369571 132.477933 
L 147.720743 136.945452 
L 148.071915 138.945116 
L 148.423087 128.009333 
L 148.774259 127.578861 
L 149.125431 128.428286 
L 149.476603 131.776026 
L 149.827775 131.58838 
L 150.178947 134.74315 
L 150.530119 132.611772 
L 150.881291 134.770699 
L 151.232463 135.439117 
L 151.583635 132.105132 
L 151.934807 125.424442 
L 152.285979 141.525595 
L 152.637151 130.381186 
L 152.988323 130.0596 
L 153.339495 138.555532 
L 153.690667 131.701792 
L 154.041839 132.658543 
L 154.393011 135.20224 
L 154.744183 135.350638 
L 155.095355 139.438624 
L 155.446527 125.460357 
L 155.797699 122.586165 
L 156.148871 126.005253 
L 156.500043 134.421764 
L 156.851215 131.847235 
L 157.202387 131.436687 
L 157.553559 136.78119 
L 157.904731 134.291877 
L 158.255903 130.736759 
L 158.607075 135.024603 
L 158.958247 141.033415 
L 159.309419 138.825397 
L 159.660591 131.986573 
L 160.011763 134.645133 
L 160.362935 134.471076 
L 160.714107 127.042795 
L 161.065279 132.750932 
L 161.416451 136.353222 
L 161.767623 133.42338 
L 162.118795 123.441847 
L 162.469967 138.189921 
L 162.821139 125.107612 
L 163.172311 126.65838 
L 163.523483 133.85057 
L 163.874655 134.639952 
L 164.225827 126.760702 
L 164.576999 132.036166 
L 164.92817 135.515322 
L 165.279342 124.946801 
L 165.630514 132.348148 
L 165.981686 131.640224 
L 166.68403 134.484682 
L 167.035202 132.573978 
L 167.386374 134.793553 
L 167.737546 130.852679 
L 168.088718 128.392301 
L 168.43989 128.258738 
L 168.791062 127.781883 
L 169.142234 126.41647 
L 169.493406 129.714352 
L 169.844578 135.846042 
L 170.19575 128.811245 
L 170.546922 140.53724 
L 171.249266 131.829616 
L 171.600438 140.686261 
L 171.95161 126.522388 
L 172.302782 137.699958 
L 172.653954 139.857377 
L 173.005126 136.550791 
L 173.356298 136.562373 
L 173.70747 133.249708 
L 174.058642 133.840869 
L 174.409814 128.501743 
L 174.760986 133.879058 
L 175.112158 132.343393 
L 175.46333 137.577061 
L 175.814502 130.898851 
L 176.516846 141.880248 
L 176.868018 127.276976 
L 177.21919 137.875458 
L 177.570362 138.024854 
L 177.921534 137.068288 
L 178.272706 130.207921 
L 178.623878 139.972437 
L 179.677394 124.613715 
L 180.028566 134.432478 
L 180.379738 132.881002 
L 180.73091 137.025963 
L 181.082082 124.234947 
L 181.433254 133.762879 
L 181.784426 133.412615 
L 182.135598 132.472864 
L 182.48677 137.245441 
L 182.837942 133.177462 
L 183.189114 138.79521 
L 183.540286 126.446225 
L 183.891458 133.802874 
L 184.24263 133.871988 
L 184.593802 127.886047 
L 184.944974 138.591332 
L 185.296146 126.839518 
L 185.647318 126.296068 
L 185.99849 136.585964 
L 186.349662 130.029969 
L 186.700834 133.569837 
L 187.052006 129.168009 
L 187.75435 137.173778 
L 188.105522 130.31123 
L 188.456693 134.11272 
L 188.807865 132.326809 
L 189.159037 128.747098 
L 189.510209 127.674646 
L 189.861381 130.306357 
L 190.212553 139.513025 
L 190.563725 130.013423 
L 190.914897 134.481048 
L 191.266069 128.316884 
L 191.617241 134.011086 
L 191.968413 126.728416 
L 192.319585 130.823312 
L 192.670757 133.131379 
L 193.021929 131.81478 
L 193.373101 141.052592 
L 193.724273 130.555074 
L 194.075445 132.615556 
L 194.426617 138.056716 
L 194.777789 131.304094 
L 195.128961 131.698097 
L 195.480133 131.525833 
L 195.831305 133.649844 
L 196.182477 129.590944 
L 196.533649 129.53289 
L 196.884821 132.711423 
L 197.235993 133.406114 
L 197.587165 135.169398 
L 197.938337 135.803771 
L 198.289509 130.384641 
L 198.991853 139.473095 
L 199.343025 132.027232 
L 199.694197 128.158969 
L 200.045369 134.360279 
L 200.396541 129.233071 
L 200.747713 130.969575 
L 201.098885 137.658853 
L 201.450057 131.683674 
L 201.801229 133.620646 
L 202.152401 130.068243 
L 202.503573 145.640183 
L 202.854745 129.398859 
L 203.205917 129.802464 
L 203.557089 137.284173 
L 203.908261 128.328156 
L 204.259433 133.81111 
L 204.610605 132.3032 
L 205.312949 127.085221 
L 205.664121 132.352133 
L 206.015293 130.040997 
L 206.366465 131.127779 
L 206.717637 136.386394 
L 207.068809 125.74517 
L 207.771153 132.428042 
L 208.122325 128.264352 
L 208.473497 130.644086 
L 208.824669 135.566292 
L 209.175841 128.56635 
L 209.527013 132.779374 
L 209.878185 130.274777 
L 210.229357 128.763965 
L 210.580529 128.796415 
L 210.931701 124.603731 
L 211.282872 132.151447 
L 211.634044 133.790372 
L 211.985216 136.289049 
L 212.336388 135.838435 
L 212.68756 130.019454 
L 213.038732 131.104784 
L 213.389904 136.879473 
L 214.092248 134.965874 
L 214.44342 125.994459 
L 214.794592 137.1608 
L 215.145764 131.347778 
L 215.496936 140.270548 
L 216.19928 126.739603 
L 216.550452 138.566086 
L 216.901624 127.786606 
L 217.252796 141.421825 
L 217.603968 132.703832 
L 217.95514 137.90643 
L 218.306312 133.0463 
L 218.657484 134.03609 
L 219.008656 129.310028 
L 219.359828 131.744492 
L 219.711 132.205088 
L 220.062172 135.393103 
L 220.413344 130.94685 
L 220.764516 136.538497 
L 221.115688 135.834543 
L 221.46686 135.769421 
L 221.818032 130.412947 
L 222.169204 122.811272 
L 222.520376 133.247362 
L 222.871548 124.342204 
L 223.22272 137.517543 
L 223.573892 135.636937 
L 223.925064 130.621023 
L 224.276236 130.221304 
L 224.627408 129.534582 
L 224.97858 125.873711 
L 225.329752 133.858974 
L 225.680924 128.080172 
L 226.032096 131.828318 
L 226.383268 145.617564 
L 226.73444 137.387868 
L 227.085612 135.29097 
L 227.436784 132.428223 
L 227.787956 130.548016 
L 228.139128 134.157149 
L 228.4903 127.041852 
L 228.841472 137.276077 
L 229.543816 128.798469 
L 229.894988 137.961331 
L 230.24616 127.290187 
L 230.597332 128.64853 
L 230.948504 133.647723 
L 231.299676 132.902702 
L 231.650848 133.3131 
L 232.00202 132.824578 
L 232.353192 127.333902 
L 232.704364 130.610843 
L 233.055536 139.093495 
L 233.406708 139.83552 
L 233.75788 130.224568 
L 234.109052 144.706141 
L 234.811395 135.694801 
L 235.162567 133.058653 
L 235.513739 126.903825 
L 235.864911 132.172563 
L 236.216083 117.222118 
L 236.567255 132.010036 
L 236.918427 129.132943 
L 237.269599 128.42095 
L 237.620771 133.454181 
L 237.971943 128.710089 
L 238.674287 131.923699 
L 239.025459 135.820785 
L 239.376631 134.900776 
L 239.727803 129.414254 
L 240.078975 133.146455 
L 240.430147 131.177704 
L 240.781319 131.175985 
L 241.132491 131.739146 
L 241.483663 132.919942 
L 241.834835 130.352138 
L 242.186007 129.263463 
L 242.537179 126.827231 
L 243.239523 135.506994 
L 243.590695 136.015493 
L 243.941867 130.127088 
L 244.293039 139.813613 
L 244.644211 135.310196 
L 244.995383 128.322648 
L 245.346555 134.462111 
L 245.697727 135.910313 
L 246.048899 127.463325 
L 246.400071 144.865803 
L 246.751243 133.32497 
L 247.102415 135.032747 
L 247.453587 135.172094 
L 247.804759 128.919124 
L 248.155931 126.268346 
L 248.507103 127.909027 
L 248.858275 130.197491 
L 249.209447 131.52428 
L 249.560619 134.070923 
L 249.911791 132.967708 
L 250.262963 140.241917 
L 250.965307 130.312884 
L 251.316479 133.520234 
L 251.667651 129.288106 
L 252.018823 139.941722 
L 252.369995 135.498204 
L 252.721167 137.466086 
L 253.072339 128.270328 
L 253.423511 134.157866 
L 253.774683 134.29628 
L 254.125855 138.453425 
L 254.477027 135.234198 
L 254.828199 137.499898 
L 255.179371 135.537112 
L 255.530543 123.262088 
L 255.881715 138.147349 
L 256.232887 134.15341 
L 256.584059 136.989722 
L 256.935231 127.153735 
L 257.286403 137.345665 
L 257.637575 136.881282 
L 258.339918 125.591428 
L 258.69109 131.971546 
L 259.042262 135.561053 
L 259.393434 144.450258 
L 259.744606 149.227268 
L 260.095778 133.388539 
L 260.44695 132.91524 
L 260.798122 127.746337 
L 261.500466 134.205494 
L 261.851638 127.304245 
L 262.20281 125.305667 
L 262.553982 135.971565 
L 262.905154 128.888263 
L 263.256326 127.696518 
L 263.607498 136.469454 
L 263.95867 130.516763 
L 264.309842 133.19247 
L 264.661014 127.787892 
L 265.012186 128.089606 
L 265.363358 142.556576 
L 266.065702 126.898542 
L 266.416874 130.764434 
L 266.768046 137.655286 
L 267.119218 135.203399 
L 267.47039 137.851901 
L 267.821562 131.57948 
L 268.172734 138.882811 
L 268.523906 127.561831 
L 268.875078 129.233358 
L 269.22625 125.488139 
L 269.577422 128.183264 
L 269.928594 128.42084 
L 270.279766 128.862332 
L 270.630938 130.368261 
L 270.98211 141.56776 
L 271.333282 130.377906 
L 272.035626 143.505615 
L 272.386798 125.646437 
L 273.089142 139.847957 
L 273.440314 131.089818 
L 273.791486 130.390507 
L 274.142658 131.318166 
L 274.49383 125.405859 
L 274.845002 136.781274 
L 275.196174 127.512226 
L 275.547346 135.629144 
L 275.898518 128.782564 
L 276.24969 127.5756 
L 276.600862 132.180148 
L 276.952034 118.137774 
L 277.303206 136.933249 
L 277.654378 134.745874 
L 278.00555 129.344291 
L 278.356722 130.315125 
L 278.707894 120.128572 
L 279.059066 126.644209 
L 279.410238 116.688256 
L 279.76141 123.165753 
L 280.112582 115.902208 
L 280.463754 114.113213 
L 280.814926 115.194273 
L 281.166097 110.343173 
L 281.517269 109.649634 
L 281.868441 99.224659 
L 282.219613 95.35807 
L 282.570785 104.737041 
L 283.273129 91.892924 
L 283.624301 91.269285 
L 283.975473 81.618554 
L 284.326645 75.169368 
L 284.677817 92.428155 
L 285.380161 70.487098 
L 285.731333 70.595494 
L 286.082505 72.747211 
L 286.784849 62.441114 
L 287.136021 52.574485 
L 287.487193 61.489867 
L 288.189537 45.687726 
L 288.540709 45.625822 
L 288.891881 49.287004 
L 289.243053 48.616171 
L 289.594225 54.447166 
L 289.945397 53.524842 
L 290.296569 49.616723 
L 290.647741 42.081147 
L 290.998913 42.756048 
L 291.350085 41.545202 
L 292.403601 51.609941 
L 292.754773 58.255392 
L 293.105945 51.756719 
L 293.808289 71.227282 
L 294.159461 64.23891 
L 294.510633 69.186147 
L 294.861805 62.079417 
L 295.212977 77.713434 
L 295.564149 78.466689 
L 295.915321 88.765101 
L 296.266493 84.003835 
L 296.617665 89.334666 
L 296.968837 97.541291 
L 297.320009 96.0499 
L 297.671181 106.014702 
L 298.022353 100.667331 
L 298.373525 108.178909 
L 298.724697 107.173239 
L 299.075869 115.393166 
L 299.427041 117.108481 
L 299.778213 116.533586 
L 300.129385 114.039327 
L 300.480557 119.029794 
L 300.831729 131.972397 
L 301.182901 119.7626 
L 301.534073 124.626232 
L 301.885245 122.475576 
L 302.236417 121.2291 
L 302.587589 123.639823 
L 302.938761 131.489889 
L 303.289933 130.570666 
L 303.641105 127.324098 
L 303.992277 125.582794 
L 304.343448 134.089045 
L 304.69462 133.885974 
L 305.045792 135.835604 
L 305.396964 129.850187 
L 305.748136 135.176719 
L 306.099308 121.678475 
L 306.45048 128.55591 
L 306.801652 127.11986 
L 307.152824 129.843401 
L 307.503996 135.365068 
L 307.855168 144.255138 
L 308.20634 126.257834 
L 308.557512 131.494283 
L 308.908684 141.459901 
L 309.259856 120.166889 
L 309.611028 129.615701 
L 309.9622 125.800629 
L 310.664544 141.045986 
L 311.015716 136.582667 
L 311.366888 129.486487 
L 311.71806 142.604505 
L 312.420404 127.894613 
L 312.771576 128.239969 
L 313.122748 132.729512 
L 313.47392 144.665657 
L 313.825092 134.272383 
L 314.176264 127.274385 
L 314.527436 129.153686 
L 314.878608 134.873165 
L 315.22978 131.375422 
L 315.580952 130.488415 
L 315.932124 134.866025 
L 316.283296 136.41382 
L 316.634468 136.250656 
L 316.98564 136.885044 
L 317.336812 133.431873 
L 317.687984 133.269966 
L 318.039156 130.452654 
L 318.390328 130.433092 
L 318.7415 133.699513 
L 319.092672 142.726946 
L 319.443844 130.561679 
L 319.795016 137.11614 
L 320.146188 125.239202 
L 320.49736 134.432265 
L 320.848532 122.960837 
L 321.199704 130.185048 
L 321.550876 125.510511 
L 321.902048 132.167087 
L 322.25322 130.740497 
L 322.604392 134.96129 
L 322.955564 135.178489 
L 323.306736 135.175713 
L 323.657908 129.683711 
L 324.00908 138.121777 
L 324.360252 128.454221 
L 324.711424 134.227996 
L 325.062596 130.226261 
L 325.413768 137.478792 
L 325.76494 132.784241 
L 326.116112 140.740138 
L 326.467284 135.966799 
L 326.818456 133.968125 
L 327.169627 137.648833 
L 327.520799 134.134056 
L 327.871971 132.58067 
L 328.223143 132.502682 
L 328.574315 142.298648 
L 328.925487 134.482555 
L 329.276659 134.083454 
L 329.627831 136.947802 
L 329.979003 137.447418 
L 330.330175 124.491965 
L 330.681347 129.362438 
L 331.383691 127.764405 
L 331.734863 137.337922 
L 332.086035 134.281605 
L 332.437207 141.078435 
L 332.788379 132.284378 
L 333.139551 141.729446 
L 333.841895 129.787855 
L 334.193067 130.70643 
L 334.544239 137.538724 
L 334.895411 137.166965 
L 335.246583 127.280157 
L 335.948927 135.395891 
L 336.300099 132.483778 
L 336.651271 132.575389 
L 337.002443 137.965299 
L 337.353615 135.619991 
L 337.704787 142.584935 
L 338.055959 132.0626 
L 338.407131 132.76 
L 338.758303 128.473619 
L 339.109475 128.5083 
L 339.460647 135.171124 
L 339.811819 125.942753 
L 340.162991 136.416538 
L 340.514163 128.911944 
L 340.865335 135.463713 
L 341.216507 135.919507 
L 341.567679 138.714602 
L 341.918851 133.411378 
L 342.270023 122.998838 
L 342.621195 132.43166 
L 342.972367 131.00747 
L 343.323539 134.655885 
L 343.674711 130.864341 
L 344.025883 130.324574 
L 344.377055 130.983421 
L 344.728227 126.949563 
L 345.079399 133.232618 
L 345.430571 131.240828 
L 345.781743 126.163345 
L 346.132915 130.304784 
L 346.484087 136.476443 
L 346.835259 127.378454 
L 347.186431 130.228655 
L 347.537603 136.723431 
L 347.888775 136.601676 
L 348.239947 134.863973 
L 348.591119 129.383863 
L 348.942291 131.587048 
L 349.293463 128.6601 
L 349.644635 121.998103 
L 349.995807 125.283195 
L 350.346978 132.573007 
L 350.69815 136.050876 
L 351.049322 126.812552 
L 351.400494 136.248089 
L 351.751666 136.56878 
L 352.102838 133.585254 
L 352.45401 131.798483 
L 352.805182 134.216923 
L 353.156354 131.877159 
L 353.507526 145.141754 
L 353.858698 134.722126 
L 354.20987 132.910423 
L 354.561042 129.879541 
L 354.912214 131.496479 
L 355.263386 134.080022 
L 355.614558 121.859009 
L 355.96573 128.641396 
L 356.668074 131.643612 
L 357.019246 130.978947 
L 357.370418 136.724664 
L 357.72159 137.645432 
L 358.072762 132.009113 
L 358.423934 140.198856 
L 358.775106 130.376976 
L 359.126278 134.794382 
L 359.47745 129.870147 
L 359.828622 132.515907 
L 360.179794 136.766308 
L 360.530966 136.216703 
L 360.882138 134.903761 
L 361.23331 127.199179 
L 361.584482 126.865731 
L 361.935654 133.899281 
L 362.286826 132.452856 
L 362.637998 136.633224 
L 362.98917 126.712018 
L 363.691514 135.951518 
L 364.042686 138.933445 
L 364.74503 124.646121 
L 365.096202 132.648993 
L 365.447374 137.077877 
L 365.798546 136.96472 
L 366.149718 135.626892 
L 366.50089 143.280432 
L 366.852062 129.045729 
L 367.554406 141.30983 
L 367.905578 146.274447 
L 368.25675 131.582469 
L 368.607922 132.16788 
L 368.959094 126.731469 
L 369.310266 128.648316 
L 370.01261 140.849744 
L 370.363782 132.19813 
L 370.714954 135.715269 
L 371.066126 132.752103 
L 371.417298 140.266613 
L 371.76847 134.478327 
L 372.119642 134.153472 
L 372.470814 138.893811 
L 373.173158 143.099194 
L 373.524329 132.806223 
L 373.875501 127.739199 
L 374.226673 133.312649 
L 374.577845 144.71801 
L 374.929017 133.362649 
L 375.280189 140.675718 
L 375.982533 125.37799 
L 376.333705 131.580345 
L 376.684877 144.770284 
L 377.036049 128.446071 
L 377.387221 131.658565 
L 377.738393 124.690488 
L 378.089565 130.887442 
L 378.440737 130.032056 
L 378.791909 141.209956 
L 379.143081 126.738608 
L 379.494253 138.711834 
L 379.845425 142.194044 
L 380.196597 130.871381 
L 380.547769 129.869065 
L 380.898941 126.648262 
L 381.250113 127.964335 
L 381.601285 131.483546 
L 381.952457 131.653965 
L 382.303629 129.268429 
L 382.654801 131.518102 
L 383.005973 131.077784 
L 383.357145 142.26376 
L 383.708317 133.626684 
L 384.059489 134.786038 
L 384.410661 130.848676 
L 384.761833 136.704112 
L 385.113005 128.929122 
L 385.464177 129.787574 
L 385.815349 138.189969 
L 386.166521 133.017088 
L 386.517693 130.6905 
L 387.220037 143.97845 
L 387.571209 134.254375 
L 387.922381 132.034182 
L 388.273553 133.054454 
L 388.624725 128.263645 
L 388.975897 131.793383 
L 389.327069 125.895225 
L 389.678241 135.692883 
L 390.029413 125.706436 
L 390.380585 134.438723 
L 390.731757 130.882315 
L 391.082929 141.574998 
L 391.434101 136.617485 
L 391.785273 127.787028 
L 392.136445 132.831784 
L 392.487617 133.085155 
L 392.838789 138.557181 
L 393.189961 129.560554 
L 393.541133 137.617801 
L 393.892305 126.554121 
L 394.243477 130.368331 
L 394.594649 135.656342 
L 394.945821 136.810763 
L 395.296993 135.494771 
L 395.648165 131.433512 
L 395.999337 132.006936 
L 396.350509 140.404108 
L 396.70168 131.569629 
L 397.052852 137.957551 
L 397.404024 124.866448 
L 397.755196 141.624932 
L 398.106368 128.913893 
L 398.45754 138.507353 
L 398.808712 131.412347 
L 399.159884 127.810339 
L 399.511056 131.010268 
L 399.862228 138.421805 
L 400.2134 140.068087 
L 400.564572 126.479113 
L 400.915744 136.771314 
L 401.266916 129.608826 
L 401.618088 127.740416 
L 401.96926 140.589951 
L 402.320432 124.237422 
L 402.671604 133.703453 
L 403.022776 134.024258 
L 403.373948 137.5691 
L 403.72512 132.084913 
L 404.076292 130.959004 
L 404.427464 128.385607 
L 405.129808 128.495438 
L 405.48098 133.6273 
L 405.832152 133.544304 
L 406.183324 132.550099 
L 406.534496 132.271192 
L 406.885668 127.409113 
L 407.23684 128.973335 
L 407.939184 137.273751 
L 408.290356 141.735511 
L 408.641528 134.110404 
L 408.9927 133.044115 
L 409.343872 141.565014 
L 409.695044 134.751582 
L 410.046216 131.988269 
L 410.397388 132.155235 
L 410.74856 139.493827 
L 411.099732 136.145582 
L 411.450904 139.697018 
L 411.802076 129.299511 
L 412.153248 131.88413 
L 412.50442 121.418913 
L 412.855592 135.837772 
L 413.206764 126.286711 
L 413.557936 132.98491 
L 413.909108 132.747109 
L 414.26028 128.383569 
L 414.611452 141.831033 
L 414.962624 138.509352 
L 415.313796 126.278723 
L 415.664968 128.610094 
L 416.01614 124.709047 
L 416.718484 135.275618 
L 417.069656 129.271584 
L 417.420828 135.091737 
L 417.772 133.434606 
L 418.123172 133.675615 
L 418.474344 137.025011 
L 418.825516 123.590077 
L 419.176688 129.875042 
L 419.52786 132.520659 
L 419.879031 131.353421 
L 420.230203 135.690521 
L 420.581375 134.800841 
L 420.932547 132.579397 
L 421.283719 131.664812 
L 421.634891 142.884391 
L 421.986063 127.203295 
L 422.337235 142.365161 
L 422.688407 137.478385 
L 423.039579 139.407627 
L 423.390751 132.654101 
L 423.741923 141.088445 
L 424.093095 128.68925 
L 424.444267 130.028462 
L 424.795439 128.958654 
L 425.146611 129.548475 
L 425.497783 134.627178 
L 425.848955 132.046135 
L 426.200127 137.4832 
L 426.551299 135.107863 
L 426.902471 131.193824 
L 426.902471 131.193824 
" clip-path="url(#pcfe3f68a99)" style="fill: none; stroke: #3a3a3a; stroke-opacity: 0.85; stroke-width: 0.7; stroke-linecap: square"/>
   </g>
   <g id="patch_4">
    <path d="M 37.45274 161.70053 
L 37.45274 16.598677 
" style="fill: none; stroke: #444444; stroke-width: 0.8; stroke-linejoin: miter; stroke-linecap: square"/>
   </g>
   <g id="patch_5">
    <path d="M 37.45274 161.70053 
L 500.99976 161.70053 
" style="fill: none; stroke: #444444; stroke-width: 0.8; stroke-linejoin: miter; stroke-linecap: square"/>
   </g>
   <g id="line2d_17">
    <path d="M 132.269176 161.70053 
L 132.269176 16.598677 
" clip-path="url(#pcfe3f68a99)" style="fill: none; stroke: #c0392b; stroke-opacity: 0.9; stroke-width: 1.3; stroke-linecap: square"/>
   </g>
   <g id="line2d_18">
    <path d="M 290.296569 161.70053 
L 290.296569 16.598677 
" clip-path="url(#pcfe3f68a99)" style="fill: none; stroke: #2ca02c; stroke-opacity: 0.9; stroke-width: 1.3; stroke-linecap: square"/>
   </g>
   <g id="line2d_19">
    <path d="M 111.198857 161.70053 
L 111.198857 16.598677 
" clip-path="url(#pcfe3f68a99)" style="fill: none; stroke: #000000; stroke-opacity: 0.75; stroke-width: 1.4; stroke-linecap: square"/>
   </g>
   <g id="line2d_20">
    <path d="M 427.253643 161.70053 
L 427.253643 16.598677 
" clip-path="url(#pcfe3f68a99)" style="fill: none; stroke: #000000; stroke-opacity: 0.75; stroke-width: 1.4; stroke-linecap: square"/>
   </g>
   <g id="text_19">
    <!-- edge rejection: window clips past recording bounds -->
    <g style="fill: #222222" transform="translate(140.562969 10.598677) scale(0.1 -0.1)">
     <defs>
      <path id="DejaVuSans-64" d="M 2906 2969 
L 2906 4863 
L 3481 4863 
L 3481 0 
L 2906 0 
L 2906 525 
Q 2725 213 2448 61 
Q 2172 -91 1784 -91 
Q 1150 -91 751 415 
Q 353 922 353 1747 
Q 353 2572 751 3078 
Q 1150 3584 1784 3584 
Q 2172 3584 2448 3432 
Q 2725 3281 2906 2969 
z
M 947 1747 
Q 947 1113 1208 752 
Q 1469 391 1925 391 
Q 2381 391 2643 752 
Q 2906 1113 2906 1747 
Q 2906 2381 2643 2742 
Q 2381 3103 1925 3103 
Q 1469 3103 1208 2742 
Q 947 2381 947 1747 
z
" transform="scale(0.015625)"/>
      <path id="DejaVuSans-67" d="M 2906 1791 
Q 2906 2416 2648 2759 
Q 2391 3103 1925 3103 
Q 1463 3103 1205 2759 
Q 947 2416 947 1791 
Q 947 1169 1205 825 
Q 1463 481 1925 481 
Q 2391 481 2648 825 
Q 2906 1169 2906 1791 
z
M 3481 434 
Q 3481 -459 3084 -895 
Q 2688 -1331 1869 -1331 
Q 1566 -1331 1297 -1286 
Q 1028 -1241 775 -1147 
L 775 -588 
Q 1028 -725 1275 -790 
Q 1522 -856 1778 -856 
Q 2344 -856 2625 -561 
Q 2906 -266 2906 331 
L 2906 616 
Q 2728 306 2450 153 
Q 2172 0 1784 0 
Q 1141 0 747 490 
Q 353 981 353 1791 
Q 353 2603 747 3093 
Q 1141 3584 1784 3584 
Q 2172 3584 2450 3431 
Q 2728 3278 2906 2969 
L 2906 3500 
L 3481 3500 
L 3481 434 
z
" transform="scale(0.015625)"/>
      <path id="DejaVuSans-6a" d="M 603 3500 
L 1178 3500 
L 1178 -63 
Q 1178 -731 923 -1031 
Q 669 -1331 103 -1331 
L -116 -1331 
L -116 -844 
L 38 -844 
Q 366 -844 484 -692 
Q 603 -541 603 -63 
L 603 3500 
z
M 603 4863 
L 1178 4863 
L 1178 4134 
L 603 4134 
L 603 4863 
z
" transform="scale(0.015625)"/>
      <path id="DejaVuSans-6e" d="M 3513 2113 
L 3513 0 
L 2938 0 
L 2938 2094 
Q 2938 2591 2744 2837 
Q 2550 3084 2163 3084 
Q 1697 3084 1428 2787 
Q 1159 2491 1159 1978 
L 1159 0 
L 581 0 
L 581 3500 
L 1159 3500 
L 1159 2956 
Q 1366 3272 1645 3428 
Q 1925 3584 2291 3584 
Q 2894 3584 3203 3211 
Q 3513 2838 3513 2113 
z
" transform="scale(0.015625)"/>
      <path id="DejaVuSans-3a" d="M 750 794 
L 1409 794 
L 1409 0 
L 750 0 
L 750 794 
z
M 750 3309 
L 1409 3309 
L 1409 2516 
L 750 2516 
L 750 3309 
z
" transform="scale(0.015625)"/>
      <path id="DejaVuSans-77" d="M 269 3500 
L 844 3500 
L 1563 769 
L 2278 3500 
L 2956 3500 
L 3675 769 
L 4391 3500 
L 4966 3500 
L 4050 0 
L 3372 0 
L 2619 2869 
L 1863 0 
L 1184 0 
L 269 3500 
z
" transform="scale(0.015625)"/>
      <path id="DejaVuSans-6c" d="M 603 4863 
L 1178 4863 
L 1178 0 
L 603 0 
L 603 4863 
z
" transform="scale(0.015625)"/>
      <path id="DejaVuSans-70" d="M 1159 525 
L 1159 -1331 
L 581 -1331 
L 581 3500 
L 1159 3500 
L 1159 2969 
Q 1341 3281 1617 3432 
Q 1894 3584 2278 3584 
Q 2916 3584 3314 3078 
Q 3713 2572 3713 1747 
Q 3713 922 3314 415 
Q 2916 -91 2278 -91 
Q 1894 -91 1617 61 
Q 1341 213 1159 525 
z
M 3116 1747 
Q 3116 2381 2855 2742 
Q 2594 3103 2138 3103 
Q 1681 3103 1420 2742 
Q 1159 2381 1159 1747 
Q 1159 1113 1420 752 
Q 1681 391 2138 391 
Q 2594 391 2855 752 
Q 3116 1113 3116 1747 
z
" transform="scale(0.015625)"/>
      <path id="DejaVuSans-61" d="M 2194 1759 
Q 1497 1759 1228 1600 
Q 959 1441 959 1056 
Q 959 750 1161 570 
Q 1363 391 1709 391 
Q 2188 391 2477 730 
Q 2766 1069 2766 1631 
L 2766 1759 
L 2194 1759 
z
M 3341 1997 
L 3341 0 
L 2766 0 
L 2766 531 
Q 2569 213 2275 61 
Q 1981 -91 1556 -91 
Q 1019 -91 701 211 
Q 384 513 384 1019 
Q 384 1609 779 1909 
Q 1175 2209 1959 2209 
L 2766 2209 
L 2766 2266 
Q 2766 2663 2505 2880 
Q 2244 3097 1772 3097 
Q 1472 3097 1187 3025 
Q 903 2953 641 2809 
L 641 3341 
Q 956 3463 1253 3523 
Q 1550 3584 1831 3584 
Q 2591 3584 2966 3190 
Q 3341 2797 3341 1997 
z
" transform="scale(0.015625)"/>
      <path id="DejaVuSans-62" d="M 3116 1747 
Q 3116 2381 2855 2742 
Q 2594 3103 2138 3103 
Q 1681 3103 1420 2742 
Q 1159 2381 1159 1747 
Q 1159 1113 1420 752 
Q 1681 391 2138 391 
Q 2594 391 2855 752 
Q 3116 1113 3116 1747 
z
M 1159 2969 
Q 1341 3281 1617 3432 
Q 1894 3584 2278 3584 
Q 2916 3584 3314 3078 
Q 3713 2572 3713 1747 
Q 3713 922 3314 415 
Q 2916 -91 2278 -91 
Q 1894 -91 1617 61 
Q 1341 213 1159 525 
L 1159 0 
L 581 0 
L 581 4863 
L 1159 4863 
L 1159 2969 
z
" transform="scale(0.015625)"/>
      <path id="DejaVuSans-75" d="M 544 1381 
L 544 3500 
L 1119 3500 
L 1119 1403 
Q 1119 906 1312 657 
Q 1506 409 1894 409 
Q 2359 409 2629 706 
Q 2900 1003 2900 1516 
L 2900 3500 
L 3475 3500 
L 3475 0 
L 2900 0 
L 2900 538 
Q 2691 219 2414 64 
Q 2138 -91 1772 -91 
Q 1169 -91 856 284 
Q 544 659 544 1381 
z
M 1991 3584 
L 1991 3584 
z
" transform="scale(0.015625)"/>
     </defs>
     <use xlink:href="#DejaVuSans-65"/>
     <use xlink:href="#DejaVuSans-64" transform="translate(61.523438 0)"/>
     <use xlink:href="#DejaVuSans-67" transform="translate(125 0)"/>
     <use xlink:href="#DejaVuSans-65" transform="translate(188.476562 0)"/>
     <use xlink:href="#DejaVuSans-20" transform="translate(250 0)"/>
     <use xlink:href="#DejaVuSans-72" transform="translate(281.787109 0)"/>
     <use xlink:href="#DejaVuSans-65" transform="translate(320.650391 0)"/>
     <use xlink:href="#DejaVuSans-6a" transform="translate(382.173828 0)"/>
     <use xlink:href="#DejaVuSans-65" transform="translate(409.957031 0)"/>
     <use xlink:href="#DejaVuSans-63" transform="translate(471.480469 0)"/>
     <use xlink:href="#DejaVuSans-74" transform="translate(526.460938 0)"/>
     <use xlink:href="#DejaVuSans-69" transform="translate(565.669922 0)"/>
     <use xlink:href="#DejaVuSans-6f" transform="translate(593.453125 0)"/>
     <use xlink:href="#DejaVuSans-6e" transform="translate(654.634766 0)"/>
     <use xlink:href="#DejaVuSans-3a" transform="translate(718.013672 0)"/>
     <use xlink:href="#DejaVuSans-20" transform="translate(751.705078 0)"/>
     <use xlink:href="#DejaVuSans-77" transform="translate(783.492188 0)"/>
     <use xlink:href="#DejaVuSans-69" transform="translate(865.279297 0)"/>
     <use xlink:href="#DejaVuSans-6e" transform="translate(893.0625 0)"/>
     <use xlink:href="#DejaVuSans-64" transform="translate(956.441406 0)"/>
     <use xlink:href="#DejaVuSans-6f" transform="translate(1019.917969 0)"/>
     <use xlink:href="#DejaVuSans-77" transform="translate(1081.099609 0)"/>
     <use xlink:href="#DejaVuSans-20" transform="translate(1162.886719 0)"/>
     <use xlink:href="#DejaVuSans-63" transform="translate(1194.673828 0)"/>
     <use xlink:href="#DejaVuSans-6c" transform="translate(1249.654297 0)"/>
     <use xlink:href="#DejaVuSans-69" transform="translate(1277.4375 0)"/>
     <use xlink:href="#DejaVuSans-70" transform="translate(1305.220703 0)"/>
     <use xlink:href="#DejaVuSans-73" transform="translate(1368.697266 0)"/>
     <use xlink:href="#DejaVuSans-20" transform="translate(1420.796875 0)"/>
     <use xlink:href="#DejaVuSans-70" transform="translate(1452.583984 0)"/>
     <use xlink:href="#DejaVuSans-61" transform="translate(1516.060547 0)"/>
     <use xlink:href="#DejaVuSans-73" transform="translate(1577.339844 0)"/>
     <use xlink:href="#DejaVuSans-74" transform="translate(1629.439453 0)"/>
     <use xlink:href="#DejaVuSans-20" transform="translate(1668.648438 0)"/>
     <use xlink:href="#DejaVuSans-72" transform="translate(1700.435547 0)"/>
     <use xlink:href="#DejaVuSans-65" transform="translate(1739.298828 0)"/>
     <use xlink:href="#DejaVuSans-63" transform="translate(1800.822266 0)"/>
     <use xlink:href="#DejaVuSans-6f" transform="translate(1855.802734 0)"/>
     <use xlink:href="#DejaVuSans-72" transform="translate(1916.984375 0)"/>
     <use xlink:href="#DejaVuSans-64" transform="translate(1956.347656 0)"/>
     <use xlink:href="#DejaVuSans-69" transform="translate(2019.824219 0)"/>
     <use xlink:href="#DejaVuSans-6e" transform="translate(2047.607422 0)"/>
     <use xlink:href="#DejaVuSans-67" transform="translate(2110.986328 0)"/>
     <use xlink:href="#DejaVuSans-20" transform="translate(2174.462891 0)"/>
     <use xlink:href="#DejaVuSans-62" transform="translate(2206.25 0)"/>
     <use xlink:href="#DejaVuSans-6f" transform="translate(2269.726562 0)"/>
     <use xlink:href="#DejaVuSans-75" transform="translate(2330.908203 0)"/>
     <use xlink:href="#DejaVuSans-6e" transform="translate(2394.287109 0)"/>
     <use xlink:href="#DejaVuSans-64" transform="translate(2457.666016 0)"/>
     <use xlink:href="#DejaVuSans-73" transform="translate(2521.142578 0)"/>
    </g>
   </g>
  </g>
  <g id="legend_1">
   <g id="line2d_21">
    <path d="M 150.182578 202.878281 
L 159.182578 202.878281 
L 168.182578 202.878281 
" style="fill: none; stroke: #c0392b; stroke-width: 2; stroke-linecap: square"/>
   </g>
   <g id="text_20">
    <!-- rejected event -->
    <g style="fill: #222222" transform="translate(175.382578 206.028281) scale(0.09 -0.09)">
     <defs>
      <path id="DejaVuSans-76" d="M 191 3500 
L 800 3500 
L 1894 563 
L 2988 3500 
L 3597 3500 
L 2284 0 
L 1503 0 
L 191 3500 
z
" transform="scale(0.015625)"/>
     </defs>
     <use xlink:href="#DejaVuSans-72"/>
     <use xlink:href="#DejaVuSans-65" transform="translate(38.863281 0)"/>
     <use xlink:href="#DejaVuSans-6a" transform="translate(100.386719 0)"/>
     <use xlink:href="#DejaVuSans-65" transform="translate(128.169922 0)"/>
     <use xlink:href="#DejaVuSans-63" transform="translate(189.693359 0)"/>
     <use xlink:href="#DejaVuSans-74" transform="translate(244.673828 0)"/>
     <use xlink:href="#DejaVuSans-65" transform="translate(283.882812 0)"/>
     <use xlink:href="#DejaVuSans-64" transform="translate(345.40625 0)"/>
     <use xlink:href="#DejaVuSans-20" transform="translate(408.882812 0)"/>
     <use xlink:href="#DejaVuSans-65" transform="translate(440.669922 0)"/>
     <use xlink:href="#DejaVuSans-76" transform="translate(502.193359 0)"/>
     <use xlink:href="#DejaVuSans-65" transform="translate(561.373047 0)"/>
     <use xlink:href="#DejaVuSans-6e" transform="translate(622.896484 0)"/>
     <use xlink:href="#DejaVuSans-74" transform="translate(686.275391 0)"/>
    </g>
   </g>
   <g id="line2d_22">
    <path d="M 258.678984 202.878281 
L 267.678984 202.878281 
L 276.678984 202.878281 
" style="fill: none; stroke: #2ca02c; stroke-width: 2; stroke-linecap: square"/>
   </g>
   <g id="text_21">
    <!-- accepted event -->
    <g style="fill: #222222" transform="translate(283.878984 206.028281) scale(0.09 -0.09)">
     <use xlink:href="#DejaVuSans-61"/>
     <use xlink:href="#DejaVuSans-63" transform="translate(61.279297 0)"/>
     <use xlink:href="#DejaVuSans-63" transform="translate(116.259766 0)"/>
     <use xlink:href="#DejaVuSans-65" transform="translate(171.240234 0)"/>
     <use xlink:href="#DejaVuSans-70" transform="translate(232.763672 0)"/>
     <use xlink:href="#DejaVuSans-74" transform="translate(296.240234 0)"/>
     <use xlink:href="#DejaVuSans-65" transform="translate(335.449219 0)"/>
     <use xlink:href="#DejaVuSans-64" transform="translate(396.972656 0)"/>
     <use xlink:href="#DejaVuSans-20" transform="translate(460.449219 0)"/>
     <use xlink:href="#DejaVuSans-65" transform="translate(492.236328 0)"/>
     <use xlink:href="#DejaVuSans-76" transform="translate(553.759766 0)"/>
     <use xlink:href="#DejaVuSans-65" transform="translate(612.939453 0)"/>
     <use xlink:href="#DejaVuSans-6e" transform="translate(674.462891 0)"/>
     <use xlink:href="#DejaVuSans-74" transform="translate(737.841797 0)"/>
    </g>
   </g>
  </g>
 </g>
 <defs>
  <clipPath id="pcfe3f68a99">
   <rect x="37.45274" y="16.598677" width="463.54702" height="145.101853"/>
  </clipPath>
 </defs>
</svg>
