<?xml version="1.0" encoding="utf-8" standalone="no"?>
<!DOCTYPE svg PUBLIC "-//W3C//DTD SVG 1.1//EN"
  "http://www.w3.org/Graphics/SVG/1.1/DTD/svg11.dtd">
<svg xmlns:xlink="http://www.w3.org/1999/xlink" width="504pt" height="216pt" viewBox="0 0 504 216" xmlns="http://www.w3.org/2000/svg" version="1.1">
 <metadata>
  <rdf:RDF xmlns:dc="http://purl.org/dc/elements/1.1/" xmlns:cc="http://creativecommons.org/ns#" xmlns:rdf="http://www.w3.org/1999/02/22-rdf-syntax-ns#">
   <cc:Work>
    <dc:type rdf:resource="http://purl.org/dc/dcmitype/StillImage"/>
    <dc:date>2026-05-01T14:56:56.630302</dc:date>
    <dc:format>image/svg+xml</dc:format>
    <dc:creator>
     <cc:Agent>
      <dc:title>Matplotlib v3.10.9, https://matplotlib.org/</dc:title>
     </cc:Agent>
    </dc:creator>
   </cc:Work>
  </rdf:RDF>
 </metadata>
 <defs>
  <style type="text/css">*{stroke-linejoin: round; stroke-linecap: butt}</style>
 </defs>
 <g id="figure_1">
  <g id="patch_1">
   <path d="M 0 216 
L 504 216 
L 504 0 
L 0 0 
L 0 216 
z
" style="fill: none"/>
  </g>
  <g id="axes_1">
   <g id="patch_2">
    <path d="M 37.45274 161.70053 
L 500.99976 161.70053 
L 500.99976 16.598677 
L 37.45274 16.598677 
L 37.45274 161.70053 
z
" style="fill: none"/>
   </g>
   <g id="matplotlib.axis_1">
    <g id="xtick_1">
     <g id="line2d_1">
      <defs>
       <path id="m2ea403d0ee" d="M 0 0 
L 0 3.5 
" style="stroke: #444444; stroke-width: 0.8"/>
      </defs>
      <g>
       <use xlink:href="#m2ea403d0ee" x="37.45274" y="161.70053" style="fill: #444444; stroke: #444444; stroke-width: 0.8"/>
      </g>
     </g>
     <g id="text_1">
      <!-- 0 -->
      <g style="fill: #444444" transform="translate(34.27149 176.298968) scale(0.1 -0.1)">
       <defs>
        <path id="DejaVuSans-30" d="M 2034 4250 
Q 1547 4250 1301 3770 
Q 1056 3291 1056 2328 
Q 1056 1369 1301 889 
Q 1547 409 2034 409 
Q 2525 409 2770 889 
Q 3016 1369 3016 2328 
Q 3016 3291 2770 3770 
Q 2525 4250 2034 4250 
z
M 2034 4750 
Q 2819 4750 3233 4129 
Q 3647 3509 3647 2328 
Q 3647 1150 3233 529 
Q 2819 -91 2034 -91 
Q 1250 -91 836 529 
Q 422 1150 422 2328 
Q 422 3509 836 4129 
Q 1250 4750 2034 4750 
z
" transform="scale(0.015625)"/>
       </defs>
       <use xlink:href="#DejaVuSans-30"/>
      </g>
     </g>
    </g>
    <g id="xtick_2">
     <g id="line2d_2">
      <g>
       <use xlink:href="#m2ea403d0ee" x="109.881962" y="161.70053" style="fill: #444444; stroke: #444444; stroke-width: 0.8"/>
      </g>
     </g>
     <g id="text_2">
      <!-- 5 -->
      <g style="fill: #444444" transform="translate(106.700712 176.298968) scale(0.1 -0.1)">
       <defs>
        <path id="DejaVuSans-35" d="M 691 4666 
L 3169 4666 
L 3169 4134 
L 1269 4134 
L 1269 2991 
Q 1406 3038 1543 3061 
Q 1681 3084 1819 3084 
Q 2600 3084 3056 2656 
Q 3513 2228 3513 1497 
Q 3513 744 3044 326 
Q 2575 -91 1722 -91 
Q 1428 -91 1123 -41 
Q 819 9 494 109 
L 494 744 
Q 775 591 1075 516 
Q 1375 441 1709 441 
Q 2250 441 2565 725 
Q 2881 1009 2881 1497 
Q 2881 1984 2565 2268 
Q 2250 2553 1709 2553 
Q 1456 2553 1204 2497 
Q 953 2441 691 2322 
L 691 4666 
z
" transform="scale(0.015625)"/>
       </defs>
       <use xlink:href="#DejaVuSans-35"/>
      </g>
     </g>
    </g>
    <g id="xtick_3">
     <g id="line2d_3">
      <g>
       <use xlink:href="#m2ea403d0ee" x="182.311184" y="161.70053" style="fill: #444444; stroke: #444444; stroke-width: 0.8"/>
      </g>
     </g>
     <g id="text_3">
      <!-- 10 -->
      <g style="fill: #444444" transform="translate(175.948684 176.298968) scale(0.1 -0.1)">
       <defs>
        <path id="DejaVuSans-31" d="M 794 531 
L 1825 531 
L 1825 4091 
L 703 3866 
L 703 4441 
L 1819 4666 
L 2450 4666 
L 2450 531 
L 3481 531 
L 3481 0 
L 794 0 
L 794 531 
z
" transform="scale(0.015625)"/>
       </defs>
       <use xlink:href="#DejaVuSans-31"/>
       <use xlink:href="#DejaVuSans-30" transform="translate(63.623047 0)"/>
      </g>
     </g>
    </g>
    <g id="xtick_4">
     <g id="line2d_4">
      <g>
       <use xlink:href="#m2ea403d0ee" x="254.740406" y="161.70053" style="fill: #444444; stroke: #444444; stroke-width: 0.8"/>
      </g>
     </g>
     <g id="text_4">
      <!-- 15 -->
      <g style="fill: #444444" transform="translate(248.377906 176.298968) scale(0.1 -0.1)">
       <use xlink:href="#DejaVuSans-31"/>
       <use xlink:href="#DejaVuSans-35" transform="translate(63.623047 0)"/>
      </g>
     </g>
    </g>
    <g id="xtick_5">
     <g id="line2d_5">
      <g>
       <use xlink:href="#m2ea403d0ee" x="327.169628" y="161.70053" style="fill: #444444; stroke: #444444; stroke-width: 0.8"/>
      </g>
     </g>
     <g id="text_5">
      <!-- 20 -->
      <g style="fill: #444444" transform="translate(320.807128 176.298968) scale(0.1 -0.1)">
       <defs>
        <path id="DejaVuSans-32" d="M 1228 531 
L 3431 531 
L 3431 0 
L 469 0 
L 469 531 
Q 828 903 1448 1529 
Q 2069 2156 2228 2338 
Q 2531 2678 2651 2914 
Q 2772 3150 2772 3378 
Q 2772 3750 2511 3984 
Q 2250 4219 1831 4219 
Q 1534 4219 1204 4116 
Q 875 4013 500 3803 
L 500 4441 
Q 881 4594 1212 4672 
Q 1544 4750 1819 4750 
Q 2544 4750 2975 4387 
Q 3406 4025 3406 3419 
Q 3406 3131 3298 2873 
Q 3191 2616 2906 2266 
Q 2828 2175 2409 1742 
Q 1991 1309 1228 531 
z
" transform="scale(0.015625)"/>
       </defs>
       <use xlink:href="#DejaVuSans-32"/>
       <use xlink:href="#DejaVuSans-30" transform="translate(63.623047 0)"/>
      </g>
     </g>
    </g>
    <g id="xtick_6">
     <g id="line2d_6">
      <g>
       <use xlink:href="#m2ea403d0ee" x="399.598849" y="161.70053" style="fill: #444444; stroke: #444444; stroke-width: 0.8"/>
      </g>
     </g>
     <g id="text_6">
      <!-- 25 -->
      <g style="fill: #444444" transform="translate(393.236349 176.298968) scale(0.1 -0.1)">
       <use xlink:href="#DejaVuSans-32"/>
       <use xlink:href="#DejaVuSans-35" transform="translate(63.623047 0)"/>
      </g>
     </g>
    </g>
    <g id="xtick_7">
     <g id="line2d_7">
      <g>
       <use xlink:href="#m2ea403d0ee" x="472.028071" y="161.70053" style="fill: #444444; stroke: #444444; stroke-width: 0.8"/>
      </g>
     </g>
     <g id="text_7">
      <!-- 30 -->
      <g style="fill: #444444" transform="translate(465.665571 176.298968) scale(0.1 -0.1)">
       <defs>
        <path id="DejaVuSans-33" d="M 2597 2516 
Q 3050 2419 3304 2112 
Q 3559 1806 3559 1356 
Q 3559 666 3084 287 
Q 2609 -91 1734 -91 
Q 1441 -91 1130 -33 
Q 819 25 488 141 
L 488 750 
Q 750 597 1062 519 
Q 1375 441 1716 441 
Q 2309 441 2620 675 
Q 2931 909 2931 1356 
Q 2931 1769 2642 2001 
Q 2353 2234 1838 2234 
L 1294 2234 
L 1294 2753 
L 1863 2753 
Q 2328 2753 2575 2939 
Q 2822 3125 2822 3475 
Q 2822 3834 2567 4026 
Q 2313 4219 1838 4219 
Q 1578 4219 1281 4162 
Q 984 4106 628 3988 
L 628 4550 
Q 988 4650 1302 4700 
Q 1616 4750 1894 4750 
Q 2613 4750 3031 4423 
Q 3450 4097 3450 3541 
Q 3450 3153 3228 2886 
Q 3006 2619 2597 2516 
z
" transform="scale(0.015625)"/>
       </defs>
       <use xlink:href="#DejaVuSans-33"/>
       <use xlink:href="#DejaVuSans-30" transform="translate(63.623047 0)"/>
      </g>
     </g>
    </g>
    <g id="text_8">
     <!-- time (s) -->
     <g style="fill: #444444" transform="translate(251.773984 189.217249) scale(0.09 -0.09)">
      <defs>
       <path id="DejaVuSans-74" d="M 1172 4494 
L 1172 3500 
L 2356 3500 
L 2356 3053 
L 1172 3053 
L 1172 1153 
Q 1172 725 1289 603 
Q 1406 481 1766 481 
L 2356 481 
L 2356 0 
L 1766 0 
Q 1100 0 847 248 
Q 594 497 594 1153 
L 594 3053 
L 172 3053 
L 172 3500 
L 594 3500 
L 594 4494 
L 1172 4494 
z
" transform="scale(0.015625)"/>
       <path id="DejaVuSans-69" d="M 603 3500 
L 1178 3500 
L 1178 0 
L 603 0 
L 603 3500 
z
M 603 4863 
L 1178 4863 
L 1178 4134 
L 603 4134 
L 603 4863 
z
" transform="scale(0.015625)"/>
       <path id="DejaVuSans-6d" d="M 3328 2828 
Q 3544 3216 3844 3400 
Q 4144 3584 4550 3584 
Q 5097 3584 5394 3201 
Q 5691 2819 5691 2113 
L 5691 0 
L 5113 0 
L 5113 2094 
Q 5113 2597 4934 2840 
Q 4756 3084 4391 3084 
Q 3944 3084 3684 2787 
Q 3425 2491 3425 1978 
L 3425 0 
L 2847 0 
L 2847 2094 
Q 2847 2600 2669 2842 
Q 2491 3084 2119 3084 
Q 1678 3084 1418 2786 
Q 1159 2488 1159 1978 
L 1159 0 
L 581 0 
L 581 3500 
L 1159 3500 
L 1159 2956 
Q 1356 3278 1631 3431 
Q 1906 3584 2284 3584 
Q 2666 3584 2933 3390 
Q 3200 3197 3328 2828 
z
" transform="scale(0.015625)"/>
       <path id="DejaVuSans-65" d="M 3597 1894 
L 3597 1613 
L 953 1613 
Q 991 1019 1311 708 
Q 1631 397 2203 397 
Q 2534 397 2845 478 
Q 3156 559 3463 722 
L 3463 178 
Q 3153 47 2828 -22 
Q 2503 -91 2169 -91 
Q 1331 -91 842 396 
Q 353 884 353 1716 
Q 353 2575 817 3079 
Q 1281 3584 2069 3584 
Q 2775 3584 3186 3129 
Q 3597 2675 3597 1894 
z
M 3022 2063 
Q 3016 2534 2758 2815 
Q 2500 3097 2075 3097 
Q 1594 3097 1305 2825 
Q 1016 2553 972 2059 
L 3022 2063 
z
" transform="scale(0.015625)"/>
       <path id="DejaVuSans-20" transform="scale(0.015625)"/>
       <path id="DejaVuSans-28" d="M 1984 4856 
Q 1566 4138 1362 3434 
Q 1159 2731 1159 2009 
Q 1159 1288 1364 580 
Q 1569 -128 1984 -844 
L 1484 -844 
Q 1016 -109 783 600 
Q 550 1309 550 2009 
Q 550 2706 781 3412 
Q 1013 4119 1484 4856 
L 1984 4856 
z
" transform="scale(0.015625)"/>
       <path id="DejaVuSans-73" d="M 2834 3397 
L 2834 2853 
Q 2591 2978 2328 3040 
Q 2066 3103 1784 3103 
Q 1356 3103 1142 2972 
Q 928 2841 928 2578 
Q 928 2378 1081 2264 
Q 1234 2150 1697 2047 
L 1894 2003 
Q 2506 1872 2764 1633 
Q 3022 1394 3022 966 
Q 3022 478 2636 193 
Q 2250 -91 1575 -91 
Q 1294 -91 989 -36 
Q 684 19 347 128 
L 347 722 
Q 666 556 975 473 
Q 1284 391 1588 391 
Q 1994 391 2212 530 
Q 2431 669 2431 922 
Q 2431 1156 2273 1281 
Q 2116 1406 1581 1522 
L 1381 1569 
Q 847 1681 609 1914 
Q 372 2147 372 2553 
Q 372 3047 722 3315 
Q 1072 3584 1716 3584 
Q 2034 3584 2315 3537 
Q 2597 3491 2834 3397 
z
" transform="scale(0.015625)"/>
       <path id="DejaVuSans-29" d="M 513 4856 
L 1013 4856 
Q 1481 4119 1714 3412 
Q 1947 2706 1947 2009 
Q 1947 1309 1714 600 
Q 1481 -109 1013 -844 
L 513 -844 
Q 928 -128 1133 580 
Q 1338 1288 1338 2009 
Q 1338 2731 1133 3434 
Q 928 4138 513 4856 
z
" transform="scale(0.015625)"/>
      </defs>
      <use xlink:href="#DejaVuSans-74"/>
      <use xlink:href="#DejaVuSans-69" transform="translate(39.208984 0)"/>
      <use xlink:href="#DejaVuSans-6d" transform="translate(66.992188 0)"/>
      <use xlink:href="#DejaVuSans-65" transform="translate(164.404297 0)"/>
      <use xlink:href="#DejaVuSans-20" transform="translate(225.927734 0)"/>
      <use xlink:href="#DejaVuSans-28" transform="translate(257.714844 0)"/>
      <use xlink:href="#DejaVuSans-73" transform="translate(296.728516 0)"/>
      <use xlink:href="#DejaVuSans-29" transform="translate(348.828125 0)"/>
     </g>
    </g>
   </g>
   <g id="matplotlib.axis_2">
    <g id="ytick_1">
     <g id="line2d_8">
      <defs>
       <path id="m19e932e145" d="M 0 0 
L -3.5 0 
" style="stroke: #444444; stroke-width: 0.8"/>
      </defs>
      <g>
       <use xlink:href="#m19e932e145" x="37.45274" y="161.039221" style="fill: #444444; stroke: #444444; stroke-width: 0.8"/>
      </g>
     </g>
     <g id="text_9">
      <!-- −1 -->
      <g style="fill: #444444" transform="translate(15.710553 164.83844) scale(0.1 -0.1)">
       <defs>
        <path id="DejaVuSans-2212" d="M 678 2272 
L 4684 2272 
L 4684 1741 
L 678 1741 
L 678 2272 
z
" transform="scale(0.015625)"/>
       </defs>
       <use xlink:href="#DejaVuSans-2212"/>
       <use xlink:href="#DejaVuSans-31" transform="translate(83.789062 0)"/>
      </g>
     </g>
    </g>
    <g id="ytick_2">
     <g id="line2d_9">
      <g>
       <use xlink:href="#m19e932e145" x="37.45274" y="136.397959" style="fill: #444444; stroke: #444444; stroke-width: 0.8"/>
      </g>
     </g>
     <g id="text_10">
      <!-- 0 -->
      <g style="fill: #444444" transform="translate(24.09024 140.197178) scale(0.1 -0.1)">
       <use xlink:href="#DejaVuSans-30"/>
      </g>
     </g>
    </g>
    <g id="ytick_3">
     <g id="line2d_10">
      <g>
       <use xlink:href="#m19e932e145" x="37.45274" y="111.756697" style="fill: #444444; stroke: #444444; stroke-width: 0.8"/>
      </g>
     </g>
     <g id="text_11">
      <!-- 1 -->
      <g style="fill: #444444" transform="translate(24.09024 115.555915) scale(0.1 -0.1)">
       <use xlink:href="#DejaVuSans-31"/>
      </g>
     </g>
    </g>
    <g id="ytick_4">
     <g id="line2d_11">
      <g>
       <use xlink:href="#m19e932e145" x="37.45274" y="87.115434" style="fill: #444444; stroke: #444444; stroke-width: 0.8"/>
      </g>
     </g>
     <g id="text_12">
      <!-- 2 -->
      <g style="fill: #444444" transform="translate(24.09024 90.914653) scale(0.1 -0.1)">
       <use xlink:href="#DejaVuSans-32"/>
      </g>
     </g>
    </g>
    <g id="ytick_5">
     <g id="line2d_12">
      <g>
       <use xlink:href="#m19e932e145" x="37.45274" y="62.474172" style="fill: #444444; stroke: #444444; stroke-width: 0.8"/>
      </g>
     </g>
     <g id="text_13">
      <!-- 3 -->
      <g style="fill: #444444" transform="translate(24.09024 66.273391) scale(0.1 -0.1)">
       <use xlink:href="#DejaVuSans-33"/>
      </g>
     </g>
    </g>
    <g id="ytick_6">
     <g id="line2d_13">
      <g>
       <use xlink:href="#m19e932e145" x="37.45274" y="37.83291" style="fill: #444444; stroke: #444444; stroke-width: 0.8"/>
      </g>
     </g>
     <g id="text_14">
      <!-- 4 -->
      <g style="fill: #444444" transform="translate(24.09024 41.632129) scale(0.1 -0.1)">
       <defs>
        <path id="DejaVuSans-34" d="M 2419 4116 
L 825 1625 
L 2419 1625 
L 2419 4116 
z
M 2253 4666 
L 3047 4666 
L 3047 1625 
L 3713 1625 
L 3713 1100 
L 3047 1100 
L 3047 0 
L 2419 0 
L 2419 1100 
L 313 1100 
L 313 1709 
L 2253 4666 
z
" transform="scale(0.015625)"/>
       </defs>
       <use xlink:href="#DejaVuSans-34"/>
      </g>
     </g>
    </g>
    <g id="text_15">
     <!-- z-score -->
     <g style="fill: #444444" transform="translate(9.838834 105.224447) rotate(-90) scale(0.09 -0.09)">
      <defs>
       <path id="DejaVuSans-7a" d="M 353 3500 
L 3084 3500 
L 3084 2975 
L 922 459 
L 3084 459 
L 3084 0 
L 275 0 
L 275 525 
L 2438 3041 
L 353 3041 
L 353 3500 
z
" transform="scale(0.015625)"/>
       <path id="DejaVuSans-2d" d="M 313 2009 
L 1997 2009 
L 1997 1497 
L 313 1497 
L 313 2009 
z
" transform="scale(0.015625)"/>
       <path id="DejaVuSans-63" d="M 3122 3366 
L 3122 2828 
Q 2878 2963 2633 3030 
Q 2388 3097 2138 3097 
Q 1578 3097 1268 2742 
Q 959 2388 959 1747 
Q 959 1106 1268 751 
Q 1578 397 2138 397 
Q 2388 397 2633 464 
Q 2878 531 3122 666 
L 3122 134 
Q 2881 22 2623 -34 
Q 2366 -91 2075 -91 
Q 1284 -91 818 406 
Q 353 903 353 1747 
Q 353 2603 823 3093 
Q 1294 3584 2113 3584 
Q 2378 3584 2631 3529 
Q 2884 3475 3122 3366 
z
" transform="scale(0.015625)"/>
       <path id="DejaVuSans-6f" d="M 1959 3097 
Q 1497 3097 1228 2736 
Q 959 2375 959 1747 
Q 959 1119 1226 758 
Q 1494 397 1959 397 
Q 2419 397 2687 759 
Q 2956 1122 2956 1747 
Q 2956 2369 2687 2733 
Q 2419 3097 1959 3097 
z
M 1959 3584 
Q 2709 3584 3137 3096 
Q 3566 2609 3566 1747 
Q 3566 888 3137 398 
Q 2709 -91 1959 -91 
Q 1206 -91 779 398 
Q 353 888 353 1747 
Q 353 2609 779 3096 
Q 1206 3584 1959 3584 
z
" transform="scale(0.015625)"/>
       <path id="DejaVuSans-72" d="M 2631 2963 
Q 2534 3019 2420 3045 
Q 2306 3072 2169 3072 
Q 1681 3072 1420 2755 
Q 1159 2438 1159 1844 
L 1159 0 
L 581 0 
L 581 3500 
L 1159 3500 
L 1159 2956 
Q 1341 3275 1631 3429 
Q 1922 3584 2338 3584 
Q 2397 3584 2469 3576 
Q 2541 3569 2628 3553 
L 2631 2963 
z
" transform="scale(0.015625)"/>
      </defs>
      <use xlink:href="#DejaVuSans-7a"/>
      <use xlink:href="#DejaVuSans-2d" transform="translate(52.490234 0)"/>
      <use xlink:href="#DejaVuSans-73" transform="translate(88.574219 0)"/>
      <use xlink:href="#DejaVuSans-63" transform="translate(140.673828 0)"/>
      <use xlink:href="#DejaVuSans-6f" transform="translate(195.654297 0)"/>
      <use xlink:href="#DejaVuSans-72" transform="translate(256.835938 0)"/>
      <use xlink:href="#DejaVuSans-65" transform="translate(295.699219 0)"/>
     </g>
    </g>
   </g>
   <g id="line2d_14">
    <path d="M 37.45274 138.151289 
L 37.935601 135.227384 
L 38.418463 133.705086 
L 38.901324 140.709903 
L 39.384186 132.99304 
L 39.867047 135.266667 
L 40.349909 132.925109 
L 40.83277 135.189668 
L 41.315632 131.243957 
L 41.798493 140.557309 
L 42.281355 128.520198 
L 42.764216 131.064846 
L 43.247078 139.059028 
L 43.729939 133.469839 
L 44.212801 134.425226 
L 44.695662 144.141166 
L 45.178524 133.757921 
L 45.661385 138.994454 
L 46.144247 137.506876 
L 46.627108 139.0698 
L 47.10997 138.296694 
L 47.592831 136.079785 
L 48.075693 135.968968 
L 48.558554 143.313464 
L 49.041416 137.589785 
L 49.524277 142.362771 
L 50.007138 142.034402 
L 50.49 137.936846 
L 50.972861 132.604337 
L 51.455723 133.599841 
L 51.938584 139.079876 
L 52.904307 140.067875 
L 53.87003 132.243516 
L 54.352892 136.3179 
L 54.835753 133.325243 
L 55.318615 134.998985 
L 55.801476 129.726253 
L 56.284338 145.29849 
L 56.767199 145.850006 
L 57.250061 137.278123 
L 57.732922 133.574634 
L 58.215784 138.21892 
L 58.698645 134.50944 
L 59.181507 141.603132 
L 59.664368 141.983862 
L 60.14723 139.576279 
L 60.630091 132.666333 
L 61.112952 133.309312 
L 61.595814 139.561539 
L 62.078675 135.594617 
L 62.561537 139.270212 
L 63.044398 136.308985 
L 63.52726 141.340339 
L 64.010121 136.604447 
L 64.492983 139.661342 
L 64.975844 136.594712 
L 65.458706 139.290046 
L 65.941567 140.042733 
L 66.424429 135.894841 
L 66.90729 137.896224 
L 67.390152 136.301835 
L 67.873013 138.256777 
L 68.355875 133.675741 
L 68.838736 140.01586 
L 69.321598 132.988206 
L 69.804459 130.490065 
L 70.287321 137.590563 
L 70.770182 128.65702 
L 71.253044 127.395323 
L 72.218767 142.419402 
L 72.701628 143.564088 
L 73.184489 137.177383 
L 73.667351 128.52063 
L 74.150212 133.849137 
L 74.633074 133.035148 
L 75.115935 137.51001 
L 75.598797 139.697392 
L 76.081658 134.74672 
L 76.56452 141.313674 
L 77.530243 134.126768 
L 78.013104 136.233184 
L 78.495966 134.064078 
L 78.978827 138.366447 
L 79.461689 133.732033 
L 79.94455 134.586339 
L 80.427412 143.693001 
L 80.910273 140.991909 
L 81.393135 139.569196 
L 81.875996 133.441273 
L 82.358858 134.994991 
L 82.841719 135.061655 
L 83.324581 135.527104 
L 83.807442 133.442631 
L 84.290303 132.037147 
L 84.773165 138.646476 
L 85.256026 143.18795 
L 85.738888 133.104676 
L 86.221749 136.911408 
L 86.704611 135.666088 
L 87.187472 136.532317 
L 87.670334 140.549999 
L 88.153195 142.140254 
L 88.636057 130.95335 
L 89.118918 130.132974 
L 89.60178 130.55633 
L 90.084641 133.416565 
L 90.567503 132.74334 
L 91.050364 135.319688 
L 91.533226 132.611894 
L 92.016087 134.068374 
L 92.498949 133.968129 
L 92.98181 129.819077 
L 93.464672 122.258056 
L 93.947533 137.083277 
L 94.430395 124.869264 
L 94.913256 123.208885 
L 95.396118 130.112456 
L 95.878979 121.700592 
L 96.36184 120.843378 
L 96.844702 121.388262 
L 97.327563 119.398355 
L 97.810425 121.129702 
L 98.293286 104.846731 
L 98.776148 99.366373 
L 99.259009 99.943026 
L 99.741871 105.305958 
L 100.224732 99.674697 
L 100.707594 96.058785 
L 101.190455 98.023999 
L 102.156178 85.205153 
L 102.63904 85.958153 
L 103.121901 88.411269 
L 103.604763 82.780221 
L 104.087624 72.640675 
L 104.570486 71.982557 
L 105.053347 68.661887 
L 105.536209 58.346225 
L 106.01907 61.21103 
L 106.501932 62.233509 
L 106.984793 57.072467 
L 107.467654 45.242979 
L 107.950516 58.162482 
L 108.433377 43.935416 
L 108.916239 44.522671 
L 109.3991 51.055073 
L 109.881962 51.643354 
L 110.364823 44.051961 
L 110.847685 49.834649 
L 111.330546 54.215766 
L 111.813408 45.081408 
L 112.296269 54.040287 
L 112.779131 55.311118 
L 113.744854 62.923537 
L 114.227715 63.809685 
L 114.710577 68.980361 
L 115.193438 68.236428 
L 115.6763 69.090269 
L 116.642023 75.321661 
L 117.124884 77.455033 
L 117.607746 84.194808 
L 118.090607 93.704019 
L 118.573469 90.150723 
L 119.05633 105.046801 
L 119.539191 104.105925 
L 120.022053 102.743337 
L 120.504914 114.441416 
L 120.987776 103.250418 
L 121.470637 116.931168 
L 121.953499 121.536116 
L 122.43636 120.574213 
L 122.919222 122.71901 
L 123.402083 121.410486 
L 123.884945 123.791384 
L 124.367806 120.152761 
L 124.850668 126.943916 
L 125.333529 126.758579 
L 125.816391 133.119946 
L 126.299252 127.584346 
L 127.264975 140.19816 
L 127.747837 126.498559 
L 128.230698 137.599283 
L 128.71356 138.29485 
L 129.196421 137.822777 
L 129.679283 131.45219 
L 130.162144 141.44382 
L 131.610728 127.026133 
L 132.09359 136.90016 
L 132.576451 135.513802 
L 133.059313 139.729187 
L 133.542174 127.194629 
L 134.025036 136.688017 
L 134.507897 136.409068 
L 134.990759 135.535314 
L 135.47362 140.293586 
L 135.956482 136.310895 
L 136.439343 141.888356 
L 136.922205 129.713178 
L 137.405066 136.997822 
L 137.887928 137.080323 
L 138.370789 131.178822 
L 138.853651 141.761867 
L 139.336512 130.160678 
L 139.819374 129.629166 
L 140.302235 139.797227 
L 140.785097 133.324589 
L 141.267958 136.823536 
L 141.75082 132.477394 
L 142.716542 140.387619 
L 143.199404 133.609826 
L 143.682265 137.365381 
L 144.165127 135.601757 
L 144.647988 132.06617 
L 145.13085 131.007076 
L 145.613711 133.606758 
L 146.096573 142.700892 
L 146.579434 133.317626 
L 147.062296 137.730648 
L 147.545157 131.64196 
L 148.028019 137.266519 
L 148.51088 130.072989 
L 148.993742 134.117794 
L 149.476603 136.39763 
L 149.959465 135.09715 
L 150.442326 144.221929 
L 150.925188 133.85287 
L 151.408049 135.888141 
L 151.890911 141.262721 
L 152.373772 134.59273 
L 152.856634 134.981913 
L 153.339495 134.811757 
L 153.822356 136.909777 
L 154.305218 132.900546 
L 154.788079 132.843202 
L 155.270941 135.982841 
L 155.753802 136.669031 
L 156.236664 138.410738 
L 156.719525 139.037348 
L 157.202387 133.684531 
L 157.685248 138.819255 
L 158.16811 142.661772 
L 158.650971 135.307022 
L 159.133833 131.486094 
L 159.616694 137.61152 
L 160.099556 132.547052 
L 160.582417 134.262308 
L 161.065279 140.869731 
L 161.54814 134.967668 
L 162.031002 136.880938 
L 162.513863 133.372005 
L 162.996725 148.753395 
L 163.479586 132.710811 
L 163.962448 133.109478 
L 164.445309 140.499636 
L 164.928171 131.65321 
L 165.411032 137.069071 
L 165.893893 135.579613 
L 166.376755 132.555933 
L 166.859616 130.425485 
L 167.342478 135.627947 
L 167.825339 133.345092 
L 168.308201 134.418576 
L 168.791062 139.612843 
L 169.273924 129.101831 
L 169.756785 132.932381 
L 170.239647 135.702927 
L 170.722508 131.590187 
L 171.20537 133.940801 
L 171.688231 138.802776 
L 172.171093 131.888489 
L 172.653954 136.049961 
L 173.136816 133.576011 
L 173.619677 132.083687 
L 174.102539 132.115739 
L 174.5854 127.97436 
L 175.068262 135.429717 
L 175.551123 137.048587 
L 176.033985 139.516689 
L 176.516846 139.071589 
L 176.999707 133.323813 
L 177.482569 134.395862 
L 177.96543 140.099888 
L 178.448292 138.981667 
L 178.931153 138.209705 
L 179.414015 129.34807 
L 179.896876 140.377772 
L 180.379738 134.635882 
L 180.862599 143.449467 
L 181.828322 130.084096 
L 182.311184 141.765862 
L 182.794045 131.118287 
L 183.276907 144.586657 
L 183.759768 135.975342 
L 184.24263 141.114279 
L 184.725491 136.31362 
L 185.208353 137.291298 
L 185.691214 132.623067 
L 186.174076 135.027742 
L 186.656937 135.482701 
L 187.139799 138.631706 
L 187.62266 134.23986 
L 188.105522 139.763084 
L 188.588383 139.067744 
L 189.071244 139.003419 
L 189.554106 133.71249 
L 190.036967 126.203835 
L 190.519829 136.512222 
L 191.00269 127.716033 
L 191.485552 140.73015 
L 191.968413 138.872556 
L 192.451275 133.918021 
L 192.934136 133.523192 
L 193.416998 132.844874 
L 193.899859 129.2288 
L 194.382721 137.11635 
L 194.865582 131.408261 
L 195.348444 135.110542 
L 195.831305 148.731054 
L 196.314167 140.602062 
L 196.797028 138.530823 
L 197.27989 135.703106 
L 197.762751 133.845906 
L 198.245613 137.410876 
L 198.728474 130.382646 
L 199.211336 140.491639 
L 200.177058 132.117768 
L 200.65992 141.168507 
L 201.142781 130.627942 
L 201.625643 131.969664 
L 202.108504 136.907683 
L 202.591366 136.171779 
L 203.074227 136.577156 
L 203.557089 136.094611 
L 204.03995 130.671122 
L 204.522812 133.907965 
L 205.005673 142.286818 
L 205.488535 143.019763 
L 205.971396 133.526417 
L 206.454258 147.830783 
L 207.419981 138.929712 
L 207.902842 136.325822 
L 208.385704 130.246309 
L 208.868565 135.450575 
L 209.351427 120.683073 
L 209.834288 135.290036 
L 210.31715 132.448149 
L 210.800011 131.744868 
L 211.282873 136.716509 
L 211.765734 132.030468 
L 212.731457 135.204752 
L 213.214318 139.054148 
L 213.69718 138.145394 
L 214.180041 132.726005 
L 214.662903 136.41253 
L 215.145764 134.467862 
L 215.628626 134.466152 
L 216.111487 135.022403 
L 216.594349 136.188726 
L 217.07721 133.652309 
L 217.560072 132.576909 
L 218.042933 130.170422 
L 219.008656 138.743756 
L 219.491518 139.245859 
L 219.974379 133.429273 
L 220.457241 142.996947 
L 220.940102 138.548203 
L 221.422964 131.645577 
L 221.905825 137.709134 
L 222.388687 139.138574 
L 222.871548 130.793569 
L 223.354409 147.981278 
L 223.837271 136.579271 
L 224.320132 138.263017 
L 224.802994 138.396579 
L 225.285855 132.214837 
L 225.768717 129.589674 
L 226.251578 131.201521 
L 226.73444 133.45079 
L 227.217301 134.747111 
L 227.700163 137.244576 
L 228.183024 136.132164 
L 228.665886 143.288904 
L 229.631609 133.401765 
L 230.11447 136.51537 
L 230.597332 132.268 
L 231.080193 142.709205 
L 231.563055 138.220123 
L 232.045916 140.04278 
L 232.528778 130.813415 
L 233.011639 136.453496 
L 233.494501 136.38069 
L 233.977362 140.237927 
L 234.460224 136.763562 
L 234.943085 138.654936 
L 235.425946 136.310338 
L 235.908808 123.712731 
L 236.391669 137.867847 
L 236.874531 133.290847 
L 237.357392 135.367477 
L 237.840254 124.82444 
L 238.323115 133.95227 
L 238.805977 132.432677 
L 239.7717 118.75769 
L 240.254561 123.580093 
L 240.737423 125.4905 
L 241.220284 132.473954 
L 241.703146 135.228892 
L 242.186007 117.450606 
L 242.668869 114.678855 
L 243.15173 107.099243 
L 244.117453 108.039749 
L 244.600315 98.27306 
L 245.083176 93.211176 
L 245.566038 100.536456 
L 246.048899 90.226058 
L 246.53176 85.653206 
L 247.014622 90.865871 
L 247.497483 81.503281 
L 247.980345 80.663516 
L 248.463206 71.874223 
L 248.946068 68.786743 
L 249.428929 79.791071 
L 250.394652 58.193147 
L 250.877514 59.234962 
L 251.360375 63.501523 
L 251.843237 58.807151 
L 252.326098 59.446217 
L 252.80896 51.593653 
L 253.291821 57.491676 
L 253.774683 45.350757 
L 254.257544 46.412644 
L 254.740406 42.500177 
L 255.223267 45.327013 
L 255.706129 46.100556 
L 256.18899 47.440915 
L 256.671852 50.184242 
L 257.154713 62.835448 
L 257.637575 53.68113 
L 258.603297 71.263295 
L 259.086159 56.275209 
L 260.051882 76.120441 
L 260.534743 70.558993 
L 261.017605 73.027141 
L 261.500466 77.133733 
L 261.983328 74.478474 
L 262.466189 88.858467 
L 262.949051 82.772499 
L 263.431912 93.755066 
L 263.914774 89.825026 
L 264.397635 91.309233 
L 264.880497 98.356985 
L 265.363358 86.792506 
L 265.84622 107.457939 
L 266.329081 107.182616 
L 266.811943 103.513291 
L 267.294804 105.918872 
L 267.777666 97.087599 
L 268.260527 104.54548 
L 268.743389 95.535615 
L 269.22625 102.574697 
L 269.709111 95.874841 
L 270.191973 94.43662 
L 270.674834 95.709898 
L 271.157696 91.024628 
L 271.640557 90.373053 
L 272.123419 80.063177 
L 272.60628 76.213096 
L 273.089142 85.455803 
L 274.054865 72.861417 
L 274.537726 72.410172 
L 275.020588 63.151967 
L 275.503449 57.185711 
L 275.986311 74.783786 
L 276.952034 54.701532 
L 277.434895 55.863707 
L 277.917757 59.22073 
L 278.88348 52.017418 
L 279.366341 43.997742 
L 279.849203 54.669449 
L 280.814926 43.128672 
L 281.297787 45.222008 
L 281.780648 51.036869 
L 282.26351 52.587136 
L 282.746371 60.543356 
L 283.229233 61.781344 
L 283.712094 59.991399 
L 284.194956 54.509314 
L 284.677817 56.999056 
L 285.160679 57.46063 
L 286.609263 71.144526 
L 287.092125 78.480751 
L 287.574986 72.571069 
L 288.540709 91.996545 
L 289.023571 84.766023 
L 289.506432 89.039372 
L 289.989294 81.121644 
L 290.472155 95.385115 
L 290.955017 94.673963 
L 291.437878 103.122267 
L 291.92074 96.434798 
L 292.403601 99.465342 
L 292.886462 105.096768 
L 293.369324 100.920949 
L 293.852185 107.845929 
L 294.335047 99.444445 
L 294.817908 103.557306 
L 295.30077 99.085233 
L 295.783631 103.570336 
L 296.266493 101.492421 
L 296.749354 97.03314 
L 297.232216 90.579037 
L 297.715077 91.440897 
L 298.197939 100.103795 
L 298.6808 83.893322 
L 299.163662 84.545283 
L 300.129385 72.99355 
L 300.612246 71.391238 
L 301.095108 75.280079 
L 301.577969 70.657549 
L 302.060831 63.919094 
L 302.543692 58.882363 
L 303.026554 64.213681 
L 303.509415 61.217674 
L 303.992277 60.650945 
L 304.475138 52.574085 
L 304.957999 56.020346 
L 305.440861 41.23994 
L 305.923722 46.967768 
L 306.406584 44.875475 
L 306.889445 47.288611 
L 307.372307 52.86267 
L 307.855168 62.156385 
L 308.33803 45.274829 
L 308.820891 51.711776 
L 309.303753 63.170644 
L 309.786614 44.081529 
L 310.269476 55.66013 
L 310.752337 54.410056 
L 311.71806 75.195557 
L 312.200922 73.926776 
L 312.683783 70.194606 
L 313.166645 86.53102 
L 314.132368 78.925639 
L 314.615229 82.746466 
L 315.098091 90.631664 
L 315.580952 105.815665 
L 316.063813 98.861997 
L 316.546675 95.158718 
L 317.029536 100.102022 
L 317.512398 108.700832 
L 317.995259 108.045081 
L 318.478121 109.80861 
L 318.960982 116.60638 
L 319.443844 120.439309 
L 319.926705 122.411389 
L 320.409567 125.00154 
L 320.892428 123.387536 
L 321.37529 124.862739 
L 321.858151 123.559513 
L 322.341013 124.871704 
L 322.823874 129.289882 
L 323.306736 139.26773 
L 323.789597 128.190701 
L 324.272459 135.49236 
L 324.75532 124.485728 
L 325.238182 134.198229 
L 325.721043 123.415171 
L 326.203905 131.023768 
L 326.686766 126.812262 
L 327.169628 133.733984 
L 327.652489 132.619381 
L 328.13535 137.037562 
L 328.618212 137.46163 
L 329.101073 137.6343 
L 329.583935 132.355635 
L 330.066796 140.811591 
L 330.549658 131.362274 
L 331.032519 137.147442 
L 331.515381 133.261704 
L 331.998242 140.479987 
L 332.481104 135.886977 
L 332.963965 143.781029 
L 333.446827 139.094556 
L 333.929688 137.143035 
L 334.41255 140.79672 
L 334.895411 137.339185 
L 335.378273 135.815998 
L 335.861134 135.747723 
L 336.343996 145.43064 
L 336.826857 137.715478 
L 337.309719 137.32534 
L 337.79258 140.157772 
L 338.275442 140.653668 
L 338.758303 127.858569 
L 339.241164 132.670823 
L 339.724026 131.98268 
L 340.206887 131.094165 
L 340.689749 140.551117 
L 341.17261 137.532632 
L 341.655472 144.246612 
L 342.138333 135.560401 
L 342.621195 144.890065 
L 343.104056 139.604825 
L 343.586918 133.094818 
L 344.069779 134.002219 
L 344.552641 140.750956 
L 345.035502 140.38378 
L 345.518364 130.617978 
L 346.484087 138.634432 
L 346.966948 135.757962 
L 347.44981 135.848458 
L 347.932671 141.172418 
L 348.415533 138.855811 
L 348.898394 145.735529 
L 349.381256 135.341954 
L 349.864117 136.030822 
L 350.346979 131.796892 
L 350.82984 131.831149 
L 351.312701 138.412443 
L 351.795563 129.296997 
L 352.278424 139.642618 
L 352.761286 132.229854 
L 353.244147 138.701452 
L 353.727009 139.151669 
L 354.20987 141.912561 
L 354.692732 136.674231 
L 355.175593 126.389106 
L 355.658455 135.706501 
L 356.141316 134.299739 
L 356.624178 137.903509 
L 357.107039 134.158361 
L 357.589901 133.625198 
L 358.072762 134.275983 
L 358.555624 130.291487 
L 359.038485 136.497658 
L 359.521347 134.530241 
L 360.004208 129.514889 
L 360.48707 133.605651 
L 360.969931 139.701789 
L 361.452793 130.71513 
L 361.935654 133.530454 
L 362.418515 139.945756 
L 362.901377 139.82549 
L 363.384238 138.109051 
L 363.8671 132.696 
L 364.349961 134.872224 
L 364.832823 131.981093 
L 365.315684 125.400616 
L 365.798546 128.645509 
L 366.281407 135.846118 
L 366.764269 139.28143 
L 367.24713 130.156153 
L 367.729992 139.47623 
L 368.212853 139.792997 
L 368.695715 136.845979 
L 369.178576 135.081072 
L 369.661438 137.469918 
L 370.144299 135.158786 
L 370.627161 148.261065 
L 371.110022 137.968939 
L 371.592884 136.179405 
L 372.075745 133.185612 
L 372.558607 134.782764 
L 373.041468 137.334693 
L 373.52433 125.263225 
L 374.007191 131.962618 
L 374.972914 134.928096 
L 375.455775 134.271564 
L 375.938637 139.946973 
L 376.421498 140.856474 
L 376.90436 135.289125 
L 377.387221 143.378652 
L 377.870083 133.676959 
L 378.352944 138.040311 
L 378.835806 133.176333 
L 379.318667 135.789717 
L 379.801529 139.988107 
L 380.28439 139.445228 
L 380.767252 138.148352 
L 381.250113 130.538048 
L 381.732975 130.20868 
L 382.215836 137.156164 
L 382.698698 135.727438 
L 383.181559 139.856652 
L 383.664421 130.056849 
L 384.147282 135.243913 
L 384.630144 139.183288 
L 385.113005 142.128725 
L 385.595866 134.024422 
L 386.078728 128.016232 
L 386.561589 135.921175 
L 387.044451 140.295864 
L 387.527312 140.184092 
L 388.010174 138.862634 
L 388.493035 146.42252 
L 388.975897 132.362003 
L 389.94162 144.476032 
L 390.424481 149.379899 
L 390.907343 134.867701 
L 391.390204 135.445949 
L 391.873066 130.076062 
L 392.355927 131.969453 
L 393.32165 144.021576 
L 393.804512 135.475829 
L 394.287373 138.94993 
L 394.770235 136.023023 
L 395.253096 143.445581 
L 395.735958 137.728123 
L 396.218819 137.407244 
L 396.701681 142.089577 
L 397.667403 146.2435 
L 398.150265 136.076481 
L 398.633126 131.07146 
L 399.115988 136.57671 
L 399.598849 147.842507 
L 400.081711 136.626098 
L 400.564572 143.84968 
L 401.530295 128.739145 
L 402.013157 134.865604 
L 402.496018 147.894141 
L 402.97888 131.769682 
L 403.461741 134.942867 
L 403.944603 128.060056 
L 404.427464 134.181179 
L 404.910326 133.33626 
L 405.393187 144.37738 
L 405.876049 130.083113 
L 406.35891 141.909826 
L 406.841772 145.349426 
L 407.324633 134.165314 
L 407.807495 133.175264 
L 408.290356 129.993873 
L 408.773217 131.293842 
L 409.256079 134.769989 
L 409.73894 134.938322 
L 410.221802 132.581978 
L 410.704663 134.804122 
L 411.187525 134.369192 
L 411.670386 145.418289 
L 412.153248 136.886902 
L 412.636109 138.032069 
L 413.118971 134.142888 
L 413.601832 139.926672 
L 414.084694 132.246822 
L 414.567555 133.09477 
L 415.050417 141.394348 
L 415.533278 136.284765 
L 416.01614 133.986647 
L 416.981863 147.111997 
L 417.464724 137.506913 
L 417.947586 135.313887 
L 418.430447 136.321674 
L 418.913309 131.589489 
L 419.39617 135.076035 
L 419.879031 129.25005 
L 420.361893 138.927818 
L 420.844754 129.063572 
L 421.327616 137.689004 
L 421.810477 134.176115 
L 422.293339 144.737956 
L 422.7762 139.841106 
L 423.259062 131.118704 
L 423.741923 136.101729 
L 424.224785 136.351999 
L 424.707646 141.757066 
L 425.190508 132.870528 
L 425.673369 140.829181 
L 426.156231 129.900884 
L 426.639092 133.66842 
L 427.121954 138.891723 
L 427.604815 140.032018 
L 428.087677 138.732129 
L 428.570538 134.720566 
L 429.0534 135.286972 
L 429.536261 143.58139 
L 430.019123 134.855014 
L 430.501984 141.164768 
L 430.984846 128.233853 
L 431.467707 144.787264 
L 431.950568 132.231761 
L 432.43343 141.70782 
L 432.916291 134.699621 
L 433.399153 131.141673 
L 433.882014 134.302421 
L 434.364876 141.623231 
L 434.847737 143.24932 
L 435.330599 129.826564 
L 435.81346 139.992731 
L 436.296322 132.917762 
L 436.779183 131.072042 
L 437.262045 143.764105 
L 437.744906 127.611357 
L 438.227768 136.961122 
L 438.710629 137.277418 
L 439.193491 140.778104 
L 439.676352 135.359985 
L 440.159214 134.246474 
L 440.642075 131.702744 
L 441.607798 131.805703 
L 442.09066 136.870688 
L 442.573521 136.78342 
L 443.056383 135.794559 
L 443.539244 135.510307 
L 444.022105 130.696533 
L 444.504967 132.227381 
L 444.987828 137.03635 
L 445.47069 140.385515 
L 445.953551 144.764222 
L 446.436413 137.196912 
L 446.919274 136.099575 
L 447.402136 144.461709 
L 447.884997 137.664621 
L 448.367859 134.853077 
L 448.85072 134.91806 
L 449.333582 142.045708 
L 449.816443 138.592302 
L 450.299305 141.924866 
L 450.782166 131.445064 
L 451.265028 133.749019 
L 451.747889 123.11733 
L 452.230751 137.01315 
L 452.713612 127.173131 
L 453.196474 133.316578 
L 453.679335 132.533688 
L 454.162197 127.591611 
L 454.645058 140.149547 
L 455.127919 136.041104 
L 455.610781 123.020754 
L 456.093642 124.262705 
L 456.576504 119.217652 
L 457.059365 123.695943 
L 457.542227 126.843746 
L 458.025088 119.278011 
L 458.50795 123.229975 
L 458.990811 119.629516 
L 459.473673 117.73422 
L 459.956534 118.738409 
L 460.439396 102.993945 
L 460.922257 106.562047 
L 461.405119 106.375733 
L 461.88798 102.272969 
L 462.370842 103.469345 
L 462.853703 99.380596 
L 463.819426 89.573954 
L 464.302288 97.20369 
L 464.785149 78.23223 
L 465.268011 89.726489 
L 465.750872 81.449528 
L 466.233734 79.970804 
L 466.716595 70.015807 
L 467.199456 75.198225 
L 467.682318 59.972492 
L 468.165179 58.521847 
L 468.648041 54.929407 
L 469.130902 53.244964 
L 469.613764 56.291429 
L 470.096625 52.093869 
L 470.579487 56.159563 
L 471.062348 52.868758 
L 471.54521 48.430835 
L 472.028071 55.801866 
L 472.510933 51.694859 
L 472.993794 53.166756 
L 473.476656 47.922378 
L 473.959517 50.820279 
L 474.442379 56.777257 
L 475.408102 50.451725 
L 476.373825 63.946387 
L 476.856686 66.774398 
L 477.339548 74.804177 
L 477.822409 76.182323 
L 478.30527 75.918202 
L 478.788132 78.933082 
L 479.270993 90.437537 
L 479.753855 93.124468 
L 480.719578 99.564332 
L 481.685301 101.68898 
L 482.168162 109.324041 
L 482.651024 110.139363 
L 483.133885 118.626943 
L 483.616747 113.545119 
L 484.099608 113.937486 
L 485.065331 126.420324 
L 485.548193 110.799727 
L 486.031054 126.915793 
L 486.513916 123.009305 
L 486.996777 136.07081 
L 487.479639 131.052034 
L 487.9625 128.311934 
L 488.445362 130.348426 
L 488.928223 130.265917 
L 489.411085 131.52932 
L 489.893946 135.823188 
L 490.376807 137.147779 
L 490.859669 134.536854 
L 491.34253 137.088325 
L 491.825392 137.260753 
L 492.308253 133.14004 
L 492.791115 134.244763 
L 493.273976 137.539139 
L 493.756838 130.932142 
L 494.239699 136.200555 
L 494.722561 137.133624 
L 495.205422 132.507388 
L 495.688284 135.177245 
L 496.171145 143.378349 
L 496.654007 134.364967 
L 497.136868 143.595009 
L 497.61973 137.92478 
L 498.102591 135.271493 
L 498.585453 133.692266 
L 499.068314 140.618828 
L 499.551176 138.246196 
L 500.516899 127.723973 
L 500.516899 127.723973 
" clip-path="url(#p649693fe54)" style="fill: none; stroke: #3a3a3a; stroke-opacity: 0.85; stroke-width: 0.7; stroke-linecap: square"/>
   </g>
   <g id="patch_3">
    <path d="M 37.45274 161.70053 
L 37.45274 16.598677 
" style="fill: none; stroke: #444444; stroke-width: 0.8; stroke-linejoin: miter; stroke-linecap: square"/>
   </g>
   <g id="patch_4">
    <path d="M 37.45274 161.70053 
L 500.99976 161.70053 
" style="fill: none; stroke: #444444; stroke-width: 0.8; stroke-linejoin: miter; stroke-linecap: square"/>
   </g>
   <g id="line2d_15">
    <path d="M 109.881962 161.70053 
L 109.881962 16.598677 
" clip-path="url(#p649693fe54)" style="fill: none; stroke: #2ca02c; stroke-opacity: 0.9; stroke-width: 1.3; stroke-linecap: square"/>
   </g>
   <g id="line2d_16">
    <path d="M 254.740406 161.70053 
L 254.740406 16.598677 
" clip-path="url(#p649693fe54)" style="fill: none; stroke: #2ca02c; stroke-opacity: 0.9; stroke-width: 1.3; stroke-linecap: square"/>
   </g>
   <g id="line2d_17">
    <path d="M 280.814926 161.70053 
L 280.814926 16.598677 
" clip-path="url(#p649693fe54)" style="fill: none; stroke: #c0392b; stroke-opacity: 0.9; stroke-width: 1.3; stroke-linecap: square"/>
   </g>
   <g id="line2d_18">
    <path d="M 306.889445 161.70053 
L 306.889445 16.598677 
" clip-path="url(#p649693fe54)" style="fill: none; stroke: #c0392b; stroke-opacity: 0.9; stroke-width: 1.3; stroke-linecap: square"/>
   </g>
   <g id="line2d_19">
    <path d="M 472.028071 161.70053 
L 472.028071 16.598677 
" clip-path="url(#p649693fe54)" style="fill: none; stroke: #2ca02c; stroke-opacity: 0.9; stroke-width: 1.3; stroke-linecap: square"/>
   </g>
   <g id="text_16">
    <!-- burst rejection: events too close to a previous kept event -->
    <g style="fill: #222222" transform="translate(126.036406 10.598677) scale(0.1 -0.1)">
     <defs>
      <path id="DejaVuSans-62" d="M 3116 1747 
Q 3116 2381 2855 2742 
Q 2594 3103 2138 3103 
Q 1681 3103 1420 2742 
Q 1159 2381 1159 1747 
Q 1159 1113 1420 752 
Q 1681 391 2138 391 
Q 2594 391 2855 752 
Q 3116 1113 3116 1747 
z
M 1159 2969 
Q 1341 3281 1617 3432 
Q 1894 3584 2278 3584 
Q 2916 3584 3314 3078 
Q 3713 2572 3713 1747 
Q 3713 922 3314 415 
Q 2916 -91 2278 -91 
Q 1894 -91 1617 61 
Q 1341 213 1159 525 
L 1159 0 
L 581 0 
L 581 4863 
L 1159 4863 
L 1159 2969 
z
" transform="scale(0.015625)"/>
      <path id="DejaVuSans-75" d="M 544 1381 
L 544 3500 
L 1119 3500 
L 1119 1403 
Q 1119 906 1312 657 
Q 1506 409 1894 409 
Q 2359 409 2629 706 
Q 2900 1003 2900 1516 
L 2900 3500 
L 3475 3500 
L 3475 0 
L 2900 0 
L 2900 538 
Q 2691 219 2414 64 
Q 2138 -91 1772 -91 
Q 1169 -91 856 284 
Q 544 659 544 1381 
z
M 1991 3584 
L 1991 3584 
z
" transform="scale(0.015625)"/>
      <path id="DejaVuSans-6a" d="M 603 3500 
L 1178 3500 
L 1178 -63 
Q 1178 -731 923 -1031 
Q 669 -1331 103 -1331 
L -116 -1331 
L -116 -844 
L 38 -844 
Q 366 -844 484 -692 
Q 603 -541 603 -63 
L 603 3500 
z
M 603 4863 
L 1178 4863 
L 1178 4134 
L 603 4134 
L 603 4863 
z
" transform="scale(0.015625)"/>
      <path id="DejaVuSans-6e" d="M 3513 2113 
L 3513 0 
L 2938 0 
L 2938 2094 
Q 2938 2591 2744 2837 
Q 2550 3084 2163 3084 
Q 1697 3084 1428 2787 
Q 1159 2491 1159 1978 
L 1159 0 
L 581 0 
L 581 3500 
L 1159 3500 
L 1159 2956 
Q 1366 3272 1645 3428 
Q 1925 3584 2291 3584 
Q 2894 3584 3203 3211 
Q 3513 2838 3513 2113 
z
" transform="scale(0.015625)"/>
      <path id="DejaVuSans-3a" d="M 750 794 
L 1409 794 
L 1409 0 
L 750 0 
L 750 794 
z
M 750 3309 
L 1409 3309 
L 1409 2516 
L 750 2516 
L 750 3309 
z
" transform="scale(0.015625)"/>
      <path id="DejaVuSans-76" d="M 191 3500 
L 800 3500 
L 1894 563 
L 2988 3500 
L 3597 3500 
L 2284 0 
L 1503 0 
L 191 3500 
z
" transform="scale(0.015625)"/>
      <path id="DejaVuSans-6c" d="M 603 4863 
L 1178 4863 
L 1178 0 
L 603 0 
L 603 4863 
z
" transform="scale(0.015625)"/>
      <path id="DejaVuSans-61" d="M 2194 1759 
Q 1497 1759 1228 1600 
Q 959 1441 959 1056 
Q 959 750 1161 570 
Q 1363 391 1709 391 
Q 2188 391 2477 730 
Q 2766 1069 2766 1631 
L 2766 1759 
L 2194 1759 
z
M 3341 1997 
L 3341 0 
L 2766 0 
L 2766 531 
Q 2569 213 2275 61 
Q 1981 -91 1556 -91 
Q 1019 -91 701 211 
Q 384 513 384 1019 
Q 384 1609 779 1909 
Q 1175 2209 1959 2209 
L 2766 2209 
L 2766 2266 
Q 2766 2663 2505 2880 
Q 2244 3097 1772 3097 
Q 1472 3097 1187 3025 
Q 903 2953 641 2809 
L 641 3341 
Q 956 3463 1253 3523 
Q 1550 3584 1831 3584 
Q 2591 3584 2966 3190 
Q 3341 2797 3341 1997 
z
" transform="scale(0.015625)"/>
      <path id="DejaVuSans-70" d="M 1159 525 
L 1159 -1331 
L 581 -1331 
L 581 3500 
L 1159 3500 
L 1159 2969 
Q 1341 3281 1617 3432 
Q 1894 3584 2278 3584 
Q 2916 3584 3314 3078 
Q 3713 2572 3713 1747 
Q 3713 922 3314 415 
Q 2916 -91 2278 -91 
Q 1894 -91 1617 61 
Q 1341 213 1159 525 
z
M 3116 1747 
Q 3116 2381 2855 2742 
Q 2594 3103 2138 3103 
Q 1681 3103 1420 2742 
Q 1159 2381 1159 1747 
Q 1159 1113 1420 752 
Q 1681 391 2138 391 
Q 2594 391 2855 752 
Q 3116 1113 3116 1747 
z
" transform="scale(0.015625)"/>
      <path id="DejaVuSans-6b" d="M 581 4863 
L 1159 4863 
L 1159 1991 
L 2875 3500 
L 3609 3500 
L 1753 1863 
L 3688 0 
L 2938 0 
L 1159 1709 
L 1159 0 
L 581 0 
L 581 4863 
z
" transform="scale(0.015625)"/>
     </defs>
     <use xlink:href="#DejaVuSans-62"/>
     <use xlink:href="#DejaVuSans-75" transform="translate(63.476562 0)"/>
     <use xlink:href="#DejaVuSans-72" transform="translate(126.855469 0)"/>
     <use xlink:href="#DejaVuSans-73" transform="translate(167.96875 0)"/>
     <use xlink:href="#DejaVuSans-74" transform="translate(220.068359 0)"/>
     <use xlink:href="#DejaVuSans-20" transform="translate(259.277344 0)"/>
     <use xlink:href="#DejaVuSans-72" transform="translate(291.064453 0)"/>
     <use xlink:href="#DejaVuSans-65" transform="translate(329.927734 0)"/>
     <use xlink:href="#DejaVuSans-6a" transform="translate(391.451172 0)"/>
     <use xlink:href="#DejaVuSans-65" transform="translate(419.234375 0)"/>
     <use xlink:href="#DejaVuSans-63" transform="translate(480.757812 0)"/>
     <use xlink:href="#DejaVuSans-74" transform="translate(535.738281 0)"/>
     <use xlink:href="#DejaVuSans-69" transform="translate(574.947266 0)"/>
     <use xlink:href="#DejaVuSans-6f" transform="translate(602.730469 0)"/>
     <use xlink:href="#DejaVuSans-6e" transform="translate(663.912109 0)"/>
     <use xlink:href="#DejaVuSans-3a" transform="translate(727.291016 0)"/>
     <use xlink:href="#DejaVuSans-20" transform="translate(760.982422 0)"/>
     <use xlink:href="#DejaVuSans-65" transform="translate(792.769531 0)"/>
     <use xlink:href="#DejaVuSans-76" transform="translate(854.292969 0)"/>
     <use xlink:href="#DejaVuSans-65" transform="translate(913.472656 0)"/>
     <use xlink:href="#DejaVuSans-6e" transform="translate(974.996094 0)"/>
     <use xlink:href="#DejaVuSans-74" transform="translate(1038.375 0)"/>
     <use xlink:href="#DejaVuSans-73" transform="translate(1077.583984 0)"/>
     <use xlink:href="#DejaVuSans-20" transform="translate(1129.683594 0)"/>
     <use xlink:href="#DejaVuSans-74" transform="translate(1161.470703 0)"/>
     <use xlink:href="#DejaVuSans-6f" transform="translate(1200.679688 0)"/>
     <use xlink:href="#DejaVuSans-6f" transform="translate(1261.861328 0)"/>
     <use xlink:href="#DejaVuSans-20" transform="translate(1323.042969 0)"/>
     <use xlink:href="#DejaVuSans-63" transform="translate(1354.830078 0)"/>
     <use xlink:href="#DejaVuSans-6c" transform="translate(1409.810547 0)"/>
     <use xlink:href="#DejaVuSans-6f" transform="translate(1437.59375 0)"/>
     <use xlink:href="#DejaVuSans-73" transform="translate(1498.775391 0)"/>
     <use xlink:href="#DejaVuSans-65" transform="translate(1550.875 0)"/>
     <use xlink:href="#DejaVuSans-20" transform="translate(1612.398438 0)"/>
     <use xlink:href="#DejaVuSans-74" transform="translate(1644.185547 0)"/>
     <use xlink:href="#DejaVuSans-6f" transform="translate(1683.394531 0)"/>
     <use xlink:href="#DejaVuSans-20" transform="translate(1744.576172 0)"/>
     <use xlink:href="#DejaVuSans-61" transform="translate(1776.363281 0)"/>
     <use xlink:href="#DejaVuSans-20" transform="translate(1837.642578 0)"/>
     <use xlink:href="#DejaVuSans-70" transform="translate(1869.429688 0)"/>
     <use xlink:href="#DejaVuSans-72" transform="translate(1932.90625 0)"/>
     <use xlink:href="#DejaVuSans-65" transform="translate(1971.769531 0)"/>
     <use xlink:href="#DejaVuSans-76" transform="translate(2033.292969 0)"/>
     <use xlink:href="#DejaVuSans-69" transform="translate(2092.472656 0)"/>
     <use xlink:href="#DejaVuSans-6f" transform="translate(2120.255859 0)"/>
     <use xlink:href="#DejaVuSans-75" transform="translate(2181.4375 0)"/>
     <use xlink:href="#DejaVuSans-73" transform="translate(2244.816406 0)"/>
     <use xlink:href="#DejaVuSans-20" transform="translate(2296.916016 0)"/>
     <use xlink:href="#DejaVuSans-6b" transform="translate(2328.703125 0)"/>
     <use xlink:href="#DejaVuSans-65" transform="translate(2382.988281 0)"/>
     <use xlink:href="#DejaVuSans-70" transform="translate(2444.511719 0)"/>
     <use xlink:href="#DejaVuSans-74" transform="translate(2507.988281 0)"/>
     <use xlink:href="#DejaVuSans-20" transform="translate(2547.197266 0)"/>
     <use xlink:href="#DejaVuSans-65" transform="translate(2578.984375 0)"/>
     <use xlink:href="#DejaVuSans-76" transform="translate(2640.507812 0)"/>
     <use xlink:href="#DejaVuSans-65" transform="translate(2699.6875 0)"/>
     <use xlink:href="#DejaVuSans-6e" transform="translate(2761.210938 0)"/>
     <use xlink:href="#DejaVuSans-74" transform="translate(2824.589844 0)"/>
    </g>
   </g>
  </g>
  <g id="legend_1">
   <g id="line2d_20">
    <path d="M 150.182578 202.878281 
L 159.182578 202.878281 
L 168.182578 202.878281 
" style="fill: none; stroke: #c0392b; stroke-width: 2; stroke-linecap: square"/>
   </g>
   <g id="text_17">
    <!-- rejected event -->
    <g style="fill: #222222" transform="translate(175.382578 206.028281) scale(0.09 -0.09)">
     <defs>
      <path id="DejaVuSans-64" d="M 2906 2969 
L 2906 4863 
L 3481 4863 
L 3481 0 
L 2906 0 
L 2906 525 
Q 2725 213 2448 61 
Q 2172 -91 1784 -91 
Q 1150 -91 751 415 
Q 353 922 353 1747 
Q 353 2572 751 3078 
Q 1150 3584 1784 3584 
Q 2172 3584 2448 3432 
Q 2725 3281 2906 2969 
z
M 947 1747 
Q 947 1113 1208 752 
Q 1469 391 1925 391 
Q 2381 391 2643 752 
Q 2906 1113 2906 1747 
Q 2906 2381 2643 2742 
Q 2381 3103 1925 3103 
Q 1469 3103 1208 2742 
Q 947 2381 947 1747 
z
" transform="scale(0.015625)"/>
     </defs>
     <use xlink:href="#DejaVuSans-72"/>
     <use xlink:href="#DejaVuSans-65" transform="translate(38.863281 0)"/>
     <use xlink:href="#DejaVuSans-6a" transform="translate(100.386719 0)"/>
     <use xlink:href="#DejaVuSans-65" transform="translate(128.169922 0)"/>
     <use xlink:href="#DejaVuSans-63" transform="translate(189.693359 0)"/>
     <use xlink:href="#DejaVuSans-74" transform="translate(244.673828 0)"/>
     <use xlink:href="#DejaVuSans-65" transform="translate(283.882812 0)"/>
     <use xlink:href="#DejaVuSans-64" transform="translate(345.40625 0)"/>
     <use xlink:href="#DejaVuSans-20" transform="translate(408.882812 0)"/>
     <use xlink:href="#DejaVuSans-65" transform="translate(440.669922 0)"/>
     <use xlink:href="#DejaVuSans-76" transform="translate(502.193359 0)"/>
     <use xlink:href="#DejaVuSans-65" transform="translate(561.373047 0)"/>
     <use xlink:href="#DejaVuSans-6e" transform="translate(622.896484 0)"/>
     <use xlink:href="#DejaVuSans-74" transform="translate(686.275391 0)"/>
    </g>
   </g>
   <g id="line2d_21">
    <path d="M 258.678984 202.878281 
L 267.678984 202.878281 
L 276.678984 202.878281 
" style="fill: none; stroke: #2ca02c; stroke-width: 2; stroke-linecap: square"/>
   </g>
   <g id="text_18">
    <!-- accepted event -->
    <g style="fill: #222222" transform="translate(283.878984 206.028281) scale(0.09 -0.09)">
     <use xlink:href="#DejaVuSans-61"/>
     <use xlink:href="#DejaVuSans-63" transform="translate(61.279297 0)"/>
     <use xlink:href="#DejaVuSans-63" transform="translate(116.259766 0)"/>
     <use xlink:href="#DejaVuSans-65" transform="translate(171.240234 0)"/>
     <use xlink:href="#DejaVuSans-70" transform="translate(232.763672 0)"/>
     <use xlink:href="#DejaVuSans-74" transform="translate(296.240234 0)"/>
     <use xlink:href="#DejaVuSans-65" transform="translate(335.449219 0)"/>
     <use xlink:href="#DejaVuSans-64" transform="translate(396.972656 0)"/>
     <use xlink:href="#DejaVuSans-20" transform="translate(460.449219 0)"/>
     <use xlink:href="#DejaVuSans-65" transform="translate(492.236328 0)"/>
     <use xlink:href="#DejaVuSans-76" transform="translate(553.759766 0)"/>
     <use xlink:href="#DejaVuSans-65" transform="translate(612.939453 0)"/>
     <use xlink:href="#DejaVuSans-6e" transform="translate(674.462891 0)"/>
     <use xlink:href="#DejaVuSans-74" transform="translate(737.841797 0)"/>
    </g>
   </g>
  </g>
 </g>
 <defs>
  <clipPath id="p649693fe54">
   <rect x="37.45274" y="16.598677" width="463.54702" height="145.101853"/>
  </clipPath>
 </defs>
</svg>
