<?xml version="1.0" encoding="utf-8" standalone="no"?>
<!DOCTYPE svg PUBLIC "-//W3C//DTD SVG 1.1//EN"
  "http://www.w3.org/Graphics/SVG/1.1/DTD/svg11.dtd">
<svg xmlns:xlink="http://www.w3.org/1999/xlink" width="972pt" height="475.2pt" viewBox="0 0 972 475.2" xmlns="http://www.w3.org/2000/svg" version="1.1">
 <metadata>
  <rdf:RDF xmlns:dc="http://purl.org/dc/elements/1.1/" xmlns:cc="http://creativecommons.org/ns#" xmlns:rdf="http://www.w3.org/1999/02/22-rdf-syntax-ns#">
   <cc:Work>
    <dc:type rdf:resource="http://purl.org/dc/dcmitype/StillImage"/>
    <dc:date>2026-05-01T17:37:17.575209</dc:date>
    <dc:format>image/svg+xml</dc:format>
    <dc:creator>
     <cc:Agent>
      <dc:title>Matplotlib v3.10.9, https://matplotlib.org/</dc:title>
     </cc:Agent>
    </dc:creator>
   </cc:Work>
  </rdf:RDF>
 </metadata>
 <defs>
  <style type="text/css">*{stroke-linejoin: round; stroke-linecap: butt}</style>
 </defs>
 <g id="figure_1">
  <g id="patch_1">
   <path d="M 0 475.2 
L 972 475.2 
L 972 0 
L 0 0 
L 0 475.2 
z
" style="fill: none"/>
  </g>
  <g id="axes_1">
   <g id="patch_2">
    <path d="M 77.76 118.603172 
L 318.06 118.603172 
L 318.06 57.024 
L 77.76 57.024 
L 77.76 118.603172 
z
" style="fill: none"/>
   </g>
   <g id="matplotlib.axis_1"/>
   <g id="matplotlib.axis_2">
    <g id="text_1">
     <!-- [Ca²⁺] -->
     <g style="fill: #222222" transform="translate(32.538281 90.848898) scale(0.11 -0.11)">
      <defs>
       <path id="DejaVuSans-5b" d="M 550 4863 
L 1875 4863 
L 1875 4416 
L 1125 4416 
L 1125 -397 
L 1875 -397 
L 1875 -844 
L 550 -844 
L 550 4863 
z
" transform="scale(0.015625)"/>
       <path id="DejaVuSans-43" d="M 4122 4306 
L 4122 3641 
Q 3803 3938 3442 4084 
Q 3081 4231 2675 4231 
Q 1875 4231 1450 3742 
Q 1025 3253 1025 2328 
Q 1025 1406 1450 917 
Q 1875 428 2675 428 
Q 3081 428 3442 575 
Q 3803 722 4122 1019 
L 4122 359 
Q 3791 134 3420 21 
Q 3050 -91 2638 -91 
Q 1578 -91 968 557 
Q 359 1206 359 2328 
Q 359 3453 968 4101 
Q 1578 4750 2638 4750 
Q 3056 4750 3426 4639 
Q 3797 4528 4122 4306 
z
" transform="scale(0.015625)"/>
       <path id="DejaVuSans-61" d="M 2194 1759 
Q 1497 1759 1228 1600 
Q 959 1441 959 1056 
Q 959 750 1161 570 
Q 1363 391 1709 391 
Q 2188 391 2477 730 
Q 2766 1069 2766 1631 
L 2766 1759 
L 2194 1759 
z
M 3341 1997 
L 3341 0 
L 2766 0 
L 2766 531 
Q 2569 213 2275 61 
Q 1981 -91 1556 -91 
Q 1019 -91 701 211 
Q 384 513 384 1019 
Q 384 1609 779 1909 
Q 1175 2209 1959 2209 
L 2766 2209 
L 2766 2266 
Q 2766 2663 2505 2880 
Q 2244 3097 1772 3097 
Q 1472 3097 1187 3025 
Q 903 2953 641 2809 
L 641 3341 
Q 956 3463 1253 3523 
Q 1550 3584 1831 3584 
Q 2591 3584 2966 3190 
Q 3341 2797 3341 1997 
z
" transform="scale(0.015625)"/>
       <path id="DejaVuSans-b2" d="M 838 2444 
L 2163 2444 
L 2163 2088 
L 294 2088 
L 294 2431 
Q 400 2528 597 2703 
Q 1672 3656 1672 3950 
Q 1672 4156 1509 4282 
Q 1347 4409 1081 4409 
Q 919 4409 728 4354 
Q 538 4300 313 4191 
L 313 4575 
Q 553 4663 761 4706 
Q 969 4750 1147 4750 
Q 1600 4750 1872 4544 
Q 2144 4338 2144 4000 
Q 2144 3566 1109 2678 
Q 934 2528 838 2444 
z
" transform="scale(0.015625)"/>
       <path id="DejaVuSans-207a" d="M 1853 4334 
L 1853 3359 
L 2950 3359 
L 2950 3063 
L 1853 3063 
L 1853 2088 
L 1525 2088 
L 1525 3063 
L 428 3063 
L 428 3359 
L 1525 3359 
L 1525 4334 
L 1853 4334 
z
" transform="scale(0.015625)"/>
       <path id="DejaVuSans-5d" d="M 1947 4863 
L 1947 -844 
L 622 -844 
L 622 -397 
L 1369 -397 
L 1369 4416 
L 622 4416 
L 622 4863 
L 1947 4863 
z
" transform="scale(0.015625)"/>
      </defs>
      <use xlink:href="#DejaVuSans-5b"/>
      <use xlink:href="#DejaVuSans-43" transform="translate(39.013672 0)"/>
      <use xlink:href="#DejaVuSans-61" transform="translate(108.837891 0)"/>
      <use xlink:href="#DejaVuSans-b2" transform="translate(170.117188 0)"/>
      <use xlink:href="#DejaVuSans-207a" transform="translate(210.205078 0)"/>
      <use xlink:href="#DejaVuSans-5d" transform="translate(262.988281 0)"/>
     </g>
    </g>
   </g>
   <g id="line2d_1">
    <path d="M 104.519465 118.603172 
L 104.519465 57.024 
" clip-path="url(#p8e0b2f6e46)" style="fill: none; stroke-dasharray: 0.8,1.32; stroke-dashoffset: 0; stroke: #888888; stroke-opacity: 0.65; stroke-width: 0.8"/>
   </g>
   <g id="line2d_2">
    <path d="M 177.305212 118.603172 
L 177.305212 57.024 
" clip-path="url(#p8e0b2f6e46)" style="fill: none; stroke-dasharray: 0.8,1.32; stroke-dashoffset: 0; stroke: #888888; stroke-opacity: 0.65; stroke-width: 0.8"/>
   </g>
   <g id="text_2">
    <!-- resting -->
    <g style="fill: #444444" transform="translate(89.80052 50.124668) scale(0.085 -0.085)">
     <defs>
      <path id="DejaVuSans-72" d="M 2631 2963 
Q 2534 3019 2420 3045 
Q 2306 3072 2169 3072 
Q 1681 3072 1420 2755 
Q 1159 2438 1159 1844 
L 1159 0 
L 581 0 
L 581 3500 
L 1159 3500 
L 1159 2956 
Q 1341 3275 1631 3429 
Q 1922 3584 2338 3584 
Q 2397 3584 2469 3576 
Q 2541 3569 2628 3553 
L 2631 2963 
z
" transform="scale(0.015625)"/>
      <path id="DejaVuSans-65" d="M 3597 1894 
L 3597 1613 
L 953 1613 
Q 991 1019 1311 708 
Q 1631 397 2203 397 
Q 2534 397 2845 478 
Q 3156 559 3463 722 
L 3463 178 
Q 3153 47 2828 -22 
Q 2503 -91 2169 -91 
Q 1331 -91 842 396 
Q 353 884 353 1716 
Q 353 2575 817 3079 
Q 1281 3584 2069 3584 
Q 2775 3584 3186 3129 
Q 3597 2675 3597 1894 
z
M 3022 2063 
Q 3016 2534 2758 2815 
Q 2500 3097 2075 3097 
Q 1594 3097 1305 2825 
Q 1016 2553 972 2059 
L 3022 2063 
z
" transform="scale(0.015625)"/>
      <path id="DejaVuSans-73" d="M 2834 3397 
L 2834 2853 
Q 2591 2978 2328 3040 
Q 2066 3103 1784 3103 
Q 1356 3103 1142 2972 
Q 928 2841 928 2578 
Q 928 2378 1081 2264 
Q 1234 2150 1697 2047 
L 1894 2003 
Q 2506 1872 2764 1633 
Q 3022 1394 3022 966 
Q 3022 478 2636 193 
Q 2250 -91 1575 -91 
Q 1294 -91 989 -36 
Q 684 19 347 128 
L 347 722 
Q 666 556 975 473 
Q 1284 391 1588 391 
Q 1994 391 2212 530 
Q 2431 669 2431 922 
Q 2431 1156 2273 1281 
Q 2116 1406 1581 1522 
L 1381 1569 
Q 847 1681 609 1914 
Q 372 2147 372 2553 
Q 372 3047 722 3315 
Q 1072 3584 1716 3584 
Q 2034 3584 2315 3537 
Q 2597 3491 2834 3397 
z
" transform="scale(0.015625)"/>
      <path id="DejaVuSans-74" d="M 1172 4494 
L 1172 3500 
L 2356 3500 
L 2356 3053 
L 1172 3053 
L 1172 1153 
Q 1172 725 1289 603 
Q 1406 481 1766 481 
L 2356 481 
L 2356 0 
L 1766 0 
Q 1100 0 847 248 
Q 594 497 594 1153 
L 594 3053 
L 172 3053 
L 172 3500 
L 594 3500 
L 594 4494 
L 1172 4494 
z
" transform="scale(0.015625)"/>
      <path id="DejaVuSans-69" d="M 603 3500 
L 1178 3500 
L 1178 0 
L 603 0 
L 603 3500 
z
M 603 4863 
L 1178 4863 
L 1178 4134 
L 603 4134 
L 603 4863 
z
" transform="scale(0.015625)"/>
      <path id="DejaVuSans-6e" d="M 3513 2113 
L 3513 0 
L 2938 0 
L 2938 2094 
Q 2938 2591 2744 2837 
Q 2550 3084 2163 3084 
Q 1697 3084 1428 2787 
Q 1159 2491 1159 1978 
L 1159 0 
L 581 0 
L 581 3500 
L 1159 3500 
L 1159 2956 
Q 1366 3272 1645 3428 
Q 1925 3584 2291 3584 
Q 2894 3584 3203 3211 
Q 3513 2838 3513 2113 
z
" transform="scale(0.015625)"/>
      <path id="DejaVuSans-67" d="M 2906 1791 
Q 2906 2416 2648 2759 
Q 2391 3103 1925 3103 
Q 1463 3103 1205 2759 
Q 947 2416 947 1791 
Q 947 1169 1205 825 
Q 1463 481 1925 481 
Q 2391 481 2648 825 
Q 2906 1169 2906 1791 
z
M 3481 434 
Q 3481 -459 3084 -895 
Q 2688 -1331 1869 -1331 
Q 1566 -1331 1297 -1286 
Q 1028 -1241 775 -1147 
L 775 -588 
Q 1028 -725 1275 -790 
Q 1522 -856 1778 -856 
Q 2344 -856 2625 -561 
Q 2906 -266 2906 331 
L 2906 616 
Q 2728 306 2450 153 
Q 2172 0 1784 0 
Q 1141 0 747 490 
Q 353 981 353 1791 
Q 353 2603 747 3093 
Q 1141 3584 1784 3584 
Q 2172 3584 2450 3431 
Q 2728 3278 2906 2969 
L 2906 3500 
L 3481 3500 
L 3481 434 
z
" transform="scale(0.015625)"/>
     </defs>
     <use xlink:href="#DejaVuSans-72"/>
     <use xlink:href="#DejaVuSans-65" transform="translate(38.863281 0)"/>
     <use xlink:href="#DejaVuSans-73" transform="translate(100.386719 0)"/>
     <use xlink:href="#DejaVuSans-74" transform="translate(152.486328 0)"/>
     <use xlink:href="#DejaVuSans-69" transform="translate(191.695312 0)"/>
     <use xlink:href="#DejaVuSans-6e" transform="translate(219.478516 0)"/>
     <use xlink:href="#DejaVuSans-67" transform="translate(282.857422 0)"/>
    </g>
   </g>
   <g id="text_3">
    <!-- peak -->
    <g style="fill: #444444" transform="translate(166.926579 50.124668) scale(0.085 -0.085)">
     <defs>
      <path id="DejaVuSans-70" d="M 1159 525 
L 1159 -1331 
L 581 -1331 
L 581 3500 
L 1159 3500 
L 1159 2969 
Q 1341 3281 1617 3432 
Q 1894 3584 2278 3584 
Q 2916 3584 3314 3078 
Q 3713 2572 3713 1747 
Q 3713 922 3314 415 
Q 2916 -91 2278 -91 
Q 1894 -91 1617 61 
Q 1341 213 1159 525 
z
M 3116 1747 
Q 3116 2381 2855 2742 
Q 2594 3103 2138 3103 
Q 1681 3103 1420 2742 
Q 1159 2381 1159 1747 
Q 1159 1113 1420 752 
Q 1681 391 2138 391 
Q 2594 391 2855 752 
Q 3116 1113 3116 1747 
z
" transform="scale(0.015625)"/>
      <path id="DejaVuSans-6b" d="M 581 4863 
L 1159 4863 
L 1159 1991 
L 2875 3500 
L 3609 3500 
L 1753 1863 
L 3688 0 
L 2938 0 
L 1159 1709 
L 1159 0 
L 581 0 
L 581 4863 
z
" transform="scale(0.015625)"/>
     </defs>
     <use xlink:href="#DejaVuSans-70"/>
     <use xlink:href="#DejaVuSans-65" transform="translate(63.476562 0)"/>
     <use xlink:href="#DejaVuSans-61" transform="translate(125 0)"/>
     <use xlink:href="#DejaVuSans-6b" transform="translate(186.279297 0)"/>
    </g>
   </g>
   <g id="line2d_3">
    <path d="M 77.76 112.457611 
L 141.982717 112.457611 
L 142.517906 99.162435 
L 143.053096 89.327888 
L 143.588285 82.12283 
L 144.123474 76.914334 
L 144.658664 73.220446 
L 145.193853 70.674205 
L 145.729042 68.996235 
L 146.264232 67.973867 
L 146.799421 67.445241 
L 147.33461 67.287195 
L 147.8698 67.406039 
L 148.404989 67.730528 
L 149.475367 68.792857 
L 151.080935 70.937815 
L 158.038396 80.922702 
L 160.714343 84.227793 
L 163.39029 87.193603 
L 166.066236 89.849651 
L 168.742183 92.226932 
L 171.953318 94.752209 
L 175.164454 96.962306 
L 178.37559 98.896531 
L 181.586726 100.589315 
L 185.333051 102.299068 
L 189.079376 103.762512 
L 193.360891 105.178697 
L 197.642405 106.364225 
L 202.459109 107.468768 
L 207.811002 108.462858 
L 213.698085 109.329162 
L 220.655546 110.114104 
L 228.683385 110.778415 
L 238.316793 111.332012 
L 250.090958 111.767273 
L 265.076258 112.087072 
L 286.483831 112.305278 
L 318.06 112.416554 
L 318.06 112.416554 
" clip-path="url(#p8e0b2f6e46)" style="fill: none; stroke: #222222; stroke-width: 2; stroke-linecap: square"/>
   </g>
  </g>
  <g id="axes_2">
   <g id="patch_3">
    <path d="M 77.76 261.261586 
L 318.06 261.261586 
L 318.06 158.629633 
L 77.76 158.629633 
L 77.76 261.261586 
z
" style="fill: none"/>
   </g>
   <g id="line2d_4">
    <path d="M 104.519465 261.261586 
L 104.519465 158.629633 
" clip-path="url(#p73fad44a10)" style="fill: none; stroke-dasharray: 0.8,1.32; stroke-dashoffset: 0; stroke: #888888; stroke-opacity: 0.65; stroke-width: 0.8"/>
   </g>
   <g id="line2d_5">
    <path d="M 177.305212 261.261586 
L 177.305212 158.629633 
" clip-path="url(#p73fad44a10)" style="fill: none; stroke-dasharray: 0.8,1.32; stroke-dashoffset: 0; stroke: #888888; stroke-opacity: 0.65; stroke-width: 0.8"/>
   </g>
   <g id="matplotlib.axis_3"/>
   <g id="matplotlib.axis_4">
    <g id="ytick_1">
     <g id="line2d_6">
      <defs>
       <path id="mbe563a75be" d="M 0 0 
L -3.5 0 
" style="stroke: #444444; stroke-width: 0.8"/>
      </defs>
      <g>
       <use xlink:href="#mbe563a75be" x="77.76" y="259.343232" style="fill: #444444; stroke: #444444; stroke-width: 0.8"/>
      </g>
     </g>
     <g id="text_4">
      <!-- 0 -->
      <g style="fill: #444444" transform="translate(65.03375 262.762528) scale(0.09 -0.09)">
       <defs>
        <path id="DejaVuSans-30" d="M 2034 4250 
Q 1547 4250 1301 3770 
Q 1056 3291 1056 2328 
Q 1056 1369 1301 889 
Q 1547 409 2034 409 
Q 2525 409 2770 889 
Q 3016 1369 3016 2328 
Q 3016 3291 2770 3770 
Q 2525 4250 2034 4250 
z
M 2034 4750 
Q 2819 4750 3233 4129 
Q 3647 3509 3647 2328 
Q 3647 1150 3233 529 
Q 2819 -91 2034 -91 
Q 1250 -91 836 529 
Q 422 1150 422 2328 
Q 422 3509 836 4129 
Q 1250 4750 2034 4750 
z
" transform="scale(0.015625)"/>
       </defs>
       <use xlink:href="#DejaVuSans-30"/>
      </g>
     </g>
    </g>
    <g id="ytick_2">
     <g id="line2d_7">
      <g>
       <use xlink:href="#mbe563a75be" x="77.76" y="211.384375" style="fill: #444444; stroke: #444444; stroke-width: 0.8"/>
      </g>
     </g>
     <g id="text_5">
      <!-- ½ -->
      <g style="fill: #444444" transform="translate(62.037031 214.803672) scale(0.09 -0.09)">
       <defs>
        <path id="DejaVuSans-bd" d="M 488 2431 
L 1125 2431 
L 1125 4341 
L 428 4213 
L 428 4575 
L 1147 4697 
L 1575 4697 
L 1575 2431 
L 2216 2431 
L 2216 2088 
L 488 2088 
L 488 2431 
z
M 4470 332 
L 5795 332 
L 5795 -24 
L 3926 -24 
L 3926 319 
Q 4032 416 4229 591 
Q 5304 1544 5304 1838 
Q 5304 2044 5141 2170 
Q 4979 2297 4713 2297 
Q 4551 2297 4360 2242 
Q 4170 2188 3945 2079 
L 3945 2463 
Q 4185 2551 4393 2594 
Q 4601 2638 4779 2638 
Q 5232 2638 5504 2432 
Q 5776 2226 5776 1888 
Q 5776 1454 4741 566 
Q 4566 416 4470 332 
z
M 4309 4750 
L 4809 4750 
L 1896 -91 
L 1396 -91 
L 4309 4750 
z
" transform="scale(0.015625)"/>
       </defs>
       <use xlink:href="#DejaVuSans-bd"/>
      </g>
     </g>
    </g>
    <g id="ytick_3">
     <g id="line2d_8">
      <g>
       <use xlink:href="#mbe563a75be" x="77.76" y="163.425519" style="fill: #444444; stroke: #444444; stroke-width: 0.8"/>
      </g>
     </g>
     <g id="text_6">
      <!-- 1 -->
      <g style="fill: #444444" transform="translate(65.03375 166.844816) scale(0.09 -0.09)">
       <defs>
        <path id="DejaVuSans-31" d="M 794 531 
L 1825 531 
L 1825 4091 
L 703 3866 
L 703 4441 
L 1819 4666 
L 2450 4666 
L 2450 531 
L 3481 531 
L 3481 0 
L 794 0 
L 794 531 
z
" transform="scale(0.015625)"/>
       </defs>
       <use xlink:href="#DejaVuSans-31"/>
      </g>
     </g>
    </g>
    <g id="text_7">
     <!-- fraction -->
     <g style="fill: #222222" transform="translate(11.624531 212.704984) scale(0.1 -0.1)">
      <defs>
       <path id="DejaVuSans-66" d="M 2375 4863 
L 2375 4384 
L 1825 4384 
Q 1516 4384 1395 4259 
Q 1275 4134 1275 3809 
L 1275 3500 
L 2222 3500 
L 2222 3053 
L 1275 3053 
L 1275 0 
L 697 0 
L 697 3053 
L 147 3053 
L 147 3500 
L 697 3500 
L 697 3744 
Q 697 4328 969 4595 
Q 1241 4863 1831 4863 
L 2375 4863 
z
" transform="scale(0.015625)"/>
       <path id="DejaVuSans-63" d="M 3122 3366 
L 3122 2828 
Q 2878 2963 2633 3030 
Q 2388 3097 2138 3097 
Q 1578 3097 1268 2742 
Q 959 2388 959 1747 
Q 959 1106 1268 751 
Q 1578 397 2138 397 
Q 2388 397 2633 464 
Q 2878 531 3122 666 
L 3122 134 
Q 2881 22 2623 -34 
Q 2366 -91 2075 -91 
Q 1284 -91 818 406 
Q 353 903 353 1747 
Q 353 2603 823 3093 
Q 1294 3584 2113 3584 
Q 2378 3584 2631 3529 
Q 2884 3475 3122 3366 
z
" transform="scale(0.015625)"/>
       <path id="DejaVuSans-6f" d="M 1959 3097 
Q 1497 3097 1228 2736 
Q 959 2375 959 1747 
Q 959 1119 1226 758 
Q 1494 397 1959 397 
Q 2419 397 2687 759 
Q 2956 1122 2956 1747 
Q 2956 2369 2687 2733 
Q 2419 3097 1959 3097 
z
M 1959 3584 
Q 2709 3584 3137 3096 
Q 3566 2609 3566 1747 
Q 3566 888 3137 398 
Q 2709 -91 1959 -91 
Q 1206 -91 779 398 
Q 353 888 353 1747 
Q 353 2609 779 3096 
Q 1206 3584 1959 3584 
z
" transform="scale(0.015625)"/>
      </defs>
      <use xlink:href="#DejaVuSans-66"/>
      <use xlink:href="#DejaVuSans-72" transform="translate(35.205078 0)"/>
      <use xlink:href="#DejaVuSans-61" transform="translate(76.318359 0)"/>
      <use xlink:href="#DejaVuSans-63" transform="translate(137.597656 0)"/>
      <use xlink:href="#DejaVuSans-74" transform="translate(192.578125 0)"/>
      <use xlink:href="#DejaVuSans-69" transform="translate(231.787109 0)"/>
      <use xlink:href="#DejaVuSans-6f" transform="translate(259.570312 0)"/>
      <use xlink:href="#DejaVuSans-6e" transform="translate(320.751953 0)"/>
     </g>
    </g>
   </g>
   <g id="patch_4">
    <path d="M 77.76 261.261586 
L 77.76 158.629633 
" style="fill: none; stroke: #bbbbbb; stroke-width: 0.8; stroke-linejoin: miter; stroke-linecap: square"/>
   </g>
   <g id="line2d_9">
    <path d="M 77.76 182.609061 
L 143.053096 182.641006 
L 144.123474 182.871946 
L 145.193853 183.371949 
L 146.264232 184.137848 
L 147.8698 185.701363 
L 149.475367 187.614467 
L 152.686503 191.88798 
L 155.897639 196.065145 
L 158.038396 198.560691 
L 160.179154 200.750363 
L 162.319911 202.613121 
L 164.460668 204.15068 
L 166.601425 205.378365 
L 168.742183 206.319055 
L 170.88294 206.999272 
L 173.023697 207.446701 
L 175.164454 207.688661 
L 177.840401 207.741699 
L 180.516347 207.561217 
L 183.727483 207.095225 
L 187.473808 206.28642 
L 191.755323 205.113223 
L 197.642405 203.236897 
L 221.725924 195.268285 
L 228.683385 193.324276 
L 235.640846 191.608633 
L 242.598307 190.118662 
L 250.090958 188.750816 
L 257.583608 187.604864 
L 265.611448 186.592604 
L 274.709666 185.674011 
L 284.878263 184.882158 
L 296.117238 184.232697 
L 309.496971 183.68921 
L 318.06 183.438388 
L 318.06 183.438388 
" clip-path="url(#p73fad44a10)" style="fill: none; stroke: #e76f51; stroke-width: 2; stroke-linecap: square"/>
   </g>
   <g id="line2d_10">
    <path d="M 77.76 240.159689 
L 143.053096 240.127745 
L 144.123474 239.896804 
L 145.193853 239.396801 
L 146.264232 238.630903 
L 147.8698 237.067387 
L 149.475367 235.154284 
L 152.686503 230.88077 
L 155.897639 226.703605 
L 158.038396 224.20806 
L 160.179154 222.018387 
L 162.319911 220.155629 
L 164.460668 218.61807 
L 166.601425 217.390386 
L 168.742183 216.449696 
L 170.88294 215.769478 
L 173.023697 215.322049 
L 175.164454 215.080089 
L 177.840401 215.027051 
L 180.516347 215.207533 
L 183.727483 215.673526 
L 187.473808 216.482331 
L 191.755323 217.655527 
L 197.642405 219.531853 
L 221.725924 227.500466 
L 228.683385 229.444475 
L 235.640846 231.160117 
L 242.598307 232.650088 
L 250.090958 234.017934 
L 257.583608 235.163886 
L 265.611448 236.176146 
L 274.709666 237.09474 
L 284.878263 237.886592 
L 296.117238 238.536053 
L 309.496971 239.07954 
L 318.06 239.330362 
L 318.06 239.330362 
" clip-path="url(#p73fad44a10)" style="fill: none; stroke: #2a9d8f; stroke-width: 2; stroke-linecap: square"/>
   </g>
  </g>
  <g id="axes_3">
   <g id="patch_5">
    <path d="M 77.76 403.92 
L 318.06 403.92 
L 318.06 301.288047 
L 77.76 301.288047 
L 77.76 403.92 
z
" style="fill: none"/>
   </g>
   <g id="line2d_11">
    <path d="M 104.519465 403.92 
L 104.519465 301.288047 
" clip-path="url(#p2e97e46fed)" style="fill: none; stroke-dasharray: 0.8,1.32; stroke-dashoffset: 0; stroke: #888888; stroke-opacity: 0.65; stroke-width: 0.8"/>
   </g>
   <g id="line2d_12">
    <path d="M 177.305212 403.92 
L 177.305212 301.288047 
" clip-path="url(#p2e97e46fed)" style="fill: none; stroke-dasharray: 0.8,1.32; stroke-dashoffset: 0; stroke: #888888; stroke-opacity: 0.65; stroke-width: 0.8"/>
   </g>
   <g id="matplotlib.axis_5">
    <g id="text_8">
     <!-- time  → -->
     <g style="fill: #444444" transform="translate(179.245938 415.518438) scale(0.1 -0.1)">
      <defs>
       <path id="DejaVuSans-6d" d="M 3328 2828 
Q 3544 3216 3844 3400 
Q 4144 3584 4550 3584 
Q 5097 3584 5394 3201 
Q 5691 2819 5691 2113 
L 5691 0 
L 5113 0 
L 5113 2094 
Q 5113 2597 4934 2840 
Q 4756 3084 4391 3084 
Q 3944 3084 3684 2787 
Q 3425 2491 3425 1978 
L 3425 0 
L 2847 0 
L 2847 2094 
Q 2847 2600 2669 2842 
Q 2491 3084 2119 3084 
Q 1678 3084 1418 2786 
Q 1159 2488 1159 1978 
L 1159 0 
L 581 0 
L 581 3500 
L 1159 3500 
L 1159 2956 
Q 1356 3278 1631 3431 
Q 1906 3584 2284 3584 
Q 2666 3584 2933 3390 
Q 3200 3197 3328 2828 
z
" transform="scale(0.015625)"/>
       <path id="DejaVuSans-20" transform="scale(0.015625)"/>
       <path id="DejaVuSans-2192" d="M 5050 2147 
L 5050 1866 
L 3822 638 
L 3447 1013 
L 4175 1741 
L 366 1741 
L 366 2272 
L 4175 2272 
L 3447 3000 
L 3822 3375 
L 5050 2147 
z
" transform="scale(0.015625)"/>
      </defs>
      <use xlink:href="#DejaVuSans-74"/>
      <use xlink:href="#DejaVuSans-69" transform="translate(39.208984 0)"/>
      <use xlink:href="#DejaVuSans-6d" transform="translate(66.992188 0)"/>
      <use xlink:href="#DejaVuSans-65" transform="translate(164.404297 0)"/>
      <use xlink:href="#DejaVuSans-20" transform="translate(225.927734 0)"/>
      <use xlink:href="#DejaVuSans-20" transform="translate(257.714844 0)"/>
      <use xlink:href="#DejaVuSans-2192" transform="translate(289.501953 0)"/>
     </g>
    </g>
   </g>
   <g id="matplotlib.axis_6">
    <g id="text_9">
     <!-- ΔF -->
     <g style="fill: #222222" transform="translate(51.908594 355.639336) scale(0.11 -0.11)">
      <defs>
       <path id="DejaVuSans-394" d="M 2188 4044 
L 906 525 
L 3472 525 
L 2188 4044 
z
M 50 0 
L 1831 4666 
L 2547 4666 
L 4325 0 
L 50 0 
z
" transform="scale(0.015625)"/>
       <path id="DejaVuSans-46" d="M 628 4666 
L 3309 4666 
L 3309 4134 
L 1259 4134 
L 1259 2759 
L 3109 2759 
L 3109 2228 
L 1259 2228 
L 1259 0 
L 628 0 
L 628 4666 
z
" transform="scale(0.015625)"/>
      </defs>
      <use xlink:href="#DejaVuSans-394"/>
      <use xlink:href="#DejaVuSans-46" transform="translate(68.408203 0)"/>
     </g>
    </g>
   </g>
   <g id="line2d_13">
    <path d="M 77.76 367.219836 
L 318.06 367.219836 
" clip-path="url(#p2e97e46fed)" style="fill: none; stroke: #dddddd; stroke-opacity: 0.7; stroke-width: 0.7; stroke-linecap: square"/>
   </g>
   <g id="patch_6">
    <path d="M 77.76 403.92 
L 77.76 301.288047 
" style="fill: none; stroke: #bbbbbb; stroke-width: 0.8; stroke-linejoin: miter; stroke-linecap: square"/>
   </g>
   <g id="patch_7">
    <path d="M 77.76 403.92 
L 318.06 403.92 
" style="fill: none; stroke: #bbbbbb; stroke-width: 0.8; stroke-linejoin: miter; stroke-linecap: square"/>
   </g>
   <g id="line2d_14">
    <path d="M 77.76 365.132437 
L 78.295189 369.282328 
L 78.830379 365.700518 
L 79.365568 371.00423 
L 79.900757 370.463705 
L 80.435947 371.27889 
L 80.971136 366.302723 
L 81.506325 368.112737 
L 82.041514 369.206603 
L 82.576704 368.568332 
L 83.111893 367.33029 
L 83.647082 368.041351 
L 84.182272 368.514264 
L 84.717461 366.659533 
L 85.25265 369.801105 
L 85.78784 368.64322 
L 86.323029 363.84833 
L 86.858218 366.137494 
L 87.393408 372.216375 
L 87.928597 362.7474 
L 88.463786 369.528794 
L 88.998976 362.457368 
L 89.534165 366.841085 
L 90.069354 364.391162 
L 90.604543 372.125361 
L 91.139733 369.322632 
L 91.674922 368.967493 
L 92.210111 368.745866 
L 92.745301 369.376391 
L 93.28049 368.954882 
L 93.815679 367.525366 
L 94.350869 368.909029 
L 95.421247 366.264342 
L 95.956437 372.176907 
L 96.491626 367.867747 
L 97.026815 369.932207 
L 98.097194 365.503514 
L 98.632383 371.134066 
L 99.167572 368.298736 
L 99.702762 364.637702 
L 100.237951 364.281518 
L 100.77314 368.690527 
L 101.30833 364.711547 
L 101.843519 366.384662 
L 102.378708 367.056704 
L 102.913898 368.617189 
L 103.449087 366.449647 
L 103.984276 365.311072 
L 104.519465 369.068161 
L 105.054655 365.900619 
L 105.589844 370.436275 
L 106.125033 370.512025 
L 106.660223 365.679685 
L 107.195412 367.828296 
L 107.730601 369.476426 
L 108.265791 366.242995 
L 108.80098 365.23603 
L 109.336169 367.075071 
L 109.871359 363.108517 
L 110.406548 369.126664 
L 110.941737 369.032505 
L 111.476927 364.643087 
L 112.012116 370.012137 
L 112.547305 365.223891 
L 113.082494 371.703593 
L 113.617684 369.981808 
L 114.152873 367.701107 
L 114.688062 368.347544 
L 115.223252 362.963597 
L 115.758441 369.877979 
L 116.29363 367.306738 
L 116.82882 366.780436 
L 117.364009 367.511496 
L 117.899198 364.054306 
L 118.434388 368.798853 
L 118.969577 368.653211 
L 119.504766 369.959981 
L 120.039955 364.771741 
L 120.575145 366.488412 
L 121.110334 366.44584 
L 121.645523 366.617138 
L 122.180713 370.298522 
L 122.715902 365.824851 
L 123.251091 366.320527 
L 123.786281 363.230582 
L 124.856659 369.376271 
L 125.391849 368.045485 
L 125.927038 362.217687 
L 126.462227 370.518674 
L 126.997416 370.959486 
L 127.532606 366.533131 
L 128.067795 363.194605 
L 129.138174 370.427088 
L 129.673363 361.128444 
L 130.208552 369.296742 
L 130.743742 364.911318 
L 131.278931 363.188504 
L 131.81412 366.922075 
L 132.34931 365.512462 
L 132.884499 363.092887 
L 133.419688 370.734497 
L 133.954878 365.007049 
L 134.490067 363.911349 
L 135.025256 363.703369 
L 135.560445 368.333708 
L 136.095635 365.927565 
L 136.630824 368.770023 
L 137.166013 368.840103 
L 137.701203 369.765198 
L 138.236392 365.447605 
L 138.771581 366.638196 
L 139.306771 364.04207 
L 139.84196 373.766689 
L 140.912339 366.271037 
L 141.447528 362.37603 
L 141.982717 369.149437 
L 142.517906 372.058689 
L 143.053096 368.80678 
L 143.588285 367.488891 
L 144.123474 365.17525 
L 144.658664 364.535268 
L 145.193853 365.995705 
L 145.729042 368.617211 
L 146.264232 363.022788 
L 146.799421 371.244428 
L 147.33461 369.913667 
L 147.8698 368.903298 
L 148.404989 372.629329 
L 148.940178 372.551912 
L 149.475367 370.881006 
L 150.010557 375.913776 
L 150.545746 374.711342 
L 151.080935 375.414015 
L 151.616125 369.511037 
L 152.686503 379.260774 
L 153.221693 376.074544 
L 153.756882 381.852227 
L 154.292071 378.544793 
L 154.827261 385.011747 
L 155.36245 379.219903 
L 155.897639 382.409567 
L 156.432829 386.342273 
L 156.968018 382.228078 
L 157.503207 381.734161 
L 158.038396 383.651874 
L 158.573586 384.877089 
L 159.108775 389.587379 
L 159.643964 384.35468 
L 160.179154 393.11144 
L 160.714343 389.27129 
L 161.249532 382.806871 
L 161.784722 392.550339 
L 162.319911 394.121632 
L 162.8551 392.248962 
L 163.39029 389.115044 
L 163.925479 390.79986 
L 164.460668 388.236624 
L 165.531047 394.580808 
L 166.066236 389.49848 
L 166.601425 393.896885 
L 167.136615 390.811325 
L 167.671804 389.103634 
L 168.206993 391.771153 
L 168.742183 389.828074 
L 169.277372 396.916664 
L 169.812561 394.950733 
L 170.347751 393.459827 
L 170.88294 397.343267 
L 171.418129 390.629696 
L 171.953318 391.013807 
L 172.488508 393.208493 
L 173.023697 392.953776 
L 173.558886 395.030077 
L 174.094076 397.657013 
L 175.699644 394.254772 
L 176.234833 395.272119 
L 176.770022 394.149706 
L 177.305212 398.526057 
L 177.840401 396.960288 
L 178.91078 392.21536 
L 179.445969 399.254911 
L 179.981158 393.839955 
L 180.516347 392.694939 
L 181.051537 394.799197 
L 181.586726 394.325718 
L 182.121915 395.559787 
L 182.657105 394.478219 
L 183.192294 395.294409 
L 183.727483 398.279856 
L 184.262673 390.359894 
L 185.333051 395.241588 
L 185.868241 390.067625 
L 186.40343 394.298163 
L 186.938619 391.657694 
L 187.473808 397.813209 
L 188.008998 394.740941 
L 188.544187 390.010577 
L 189.614566 387.50609 
L 190.149755 388.559205 
L 190.684944 387.371613 
L 191.220134 393.990557 
L 191.755323 395.777562 
L 192.290512 398.339387 
L 192.825702 391.289081 
L 193.360891 392.051454 
L 193.89608 387.001009 
L 194.431269 391.637143 
L 194.966459 386.340661 
L 195.501648 394.947843 
L 196.036837 385.560713 
L 196.572027 390.421277 
L 197.107216 386.242763 
L 197.642405 387.093956 
L 198.177595 392.006592 
L 198.712784 386.913736 
L 199.247973 390.871814 
L 199.783163 386.525247 
L 200.318352 387.156216 
L 200.853541 387.403798 
L 201.388731 388.814685 
L 201.92392 388.837124 
L 202.459109 387.781071 
L 202.994298 394.413596 
L 203.529488 384.823251 
L 204.064677 387.551361 
L 204.599866 386.526088 
L 205.135056 389.503555 
L 205.670245 385.877887 
L 206.205434 387.805056 
L 206.740624 381.913068 
L 207.275813 390.025692 
L 207.811002 382.444861 
L 208.346192 387.935372 
L 208.881381 384.496888 
L 209.951759 387.809934 
L 210.486949 390.645639 
L 211.022138 382.655128 
L 211.557327 389.316654 
L 212.092517 385.627869 
L 212.627706 380.489737 
L 213.162895 380.211795 
L 213.698085 382.94601 
L 214.233274 388.082698 
L 214.768463 383.737481 
L 215.303653 382.986298 
L 215.838842 385.243344 
L 216.374031 379.073511 
L 216.90922 381.967814 
L 217.44441 381.561659 
L 217.979599 382.553289 
L 218.514788 385.879915 
L 219.049978 384.493933 
L 219.585167 384.445642 
L 220.120356 378.144207 
L 220.655546 381.246592 
L 221.190735 379.914632 
L 222.261114 379.698943 
L 222.796303 375.985279 
L 223.331492 378.107344 
L 223.866682 379.467529 
L 224.401871 379.714153 
L 224.93706 375.893634 
L 225.472249 384.829771 
L 226.007439 375.890398 
L 226.542628 380.925151 
L 227.077817 377.940348 
L 227.613007 379.901616 
L 228.148196 378.893212 
L 228.683385 379.519344 
L 229.218575 388.820035 
L 229.753764 381.727832 
L 230.288953 380.729611 
L 231.359332 383.423132 
L 231.894521 376.601807 
L 232.42971 380.794304 
L 233.500089 374.309675 
L 234.035278 380.544547 
L 234.570468 377.887771 
L 235.105657 374.068769 
L 235.640846 377.986691 
L 236.176036 378.039202 
L 236.711225 382.819028 
L 237.246414 372.975033 
L 237.781604 377.319118 
L 238.316793 380.27052 
L 238.851982 374.027148 
L 239.387171 377.458553 
L 239.922361 376.362142 
L 240.45755 377.875829 
L 240.992739 373.865513 
L 241.527929 373.928733 
L 242.063118 376.987603 
L 242.598307 375.510128 
L 243.133497 371.117116 
L 243.668686 374.901695 
L 244.203875 376.49703 
L 244.739065 371.177311 
L 245.274254 376.808836 
L 245.809443 374.678237 
L 246.344633 378.160982 
L 247.415011 376.118524 
L 247.9502 372.911012 
L 248.48539 371.449185 
L 249.020579 375.491369 
L 249.555768 372.049214 
L 250.090958 374.307622 
L 250.626147 371.984461 
L 251.161336 376.051174 
L 251.696526 372.987889 
L 252.231715 374.080622 
L 252.766904 373.180585 
L 253.302094 366.474563 
L 253.837283 372.542621 
L 254.372472 369.326715 
L 254.907661 370.153437 
L 255.442851 377.33957 
L 255.97804 371.832363 
L 256.513229 369.882521 
L 257.048419 377.136353 
L 257.583608 374.959774 
L 258.118797 362.999275 
L 258.653987 372.274123 
L 259.189176 373.667209 
L 259.724365 372.258173 
L 260.259555 374.657973 
L 260.794744 371.893801 
L 261.329933 371.487222 
L 261.865122 372.838716 
L 262.400312 368.000433 
L 262.935501 367.108437 
L 263.47069 368.906658 
L 264.00588 373.905481 
L 264.541069 373.132526 
L 265.076258 375.371325 
L 265.611448 370.438197 
L 266.146637 372.803859 
L 267.217016 373.26452 
L 267.752205 370.632011 
L 268.287394 370.800763 
L 268.822584 374.398681 
L 269.357773 366.851811 
L 270.428151 374.810523 
L 270.963341 368.553624 
L 271.49853 373.27843 
L 272.033719 365.721988 
L 272.568909 366.996727 
L 273.104098 369.174044 
L 273.639287 364.089223 
L 274.174477 373.083927 
L 274.709666 369.672613 
L 276.315234 373.974914 
L 276.850423 367.193599 
L 277.385612 370.951035 
L 277.920802 372.906686 
L 278.455991 371.658316 
L 278.99118 361.432177 
L 279.52637 370.010325 
L 280.061559 372.014619 
L 280.596748 370.629875 
L 281.131938 366.628928 
L 281.667127 370.231571 
L 282.202316 370.407219 
L 282.737506 370.032554 
L 283.272695 371.26855 
L 283.807884 370.484762 
L 284.343073 365.851831 
L 284.878263 370.303069 
L 285.413452 369.884992 
L 285.948641 377.735302 
L 286.483831 367.622332 
L 287.01902 366.071031 
L 287.554209 371.422278 
L 288.089399 368.142596 
L 288.624588 372.484853 
L 289.159777 368.513208 
L 289.694967 368.36746 
L 290.230156 375.603969 
L 290.765345 366.257708 
L 291.300535 365.586404 
L 291.835724 369.65273 
L 292.370913 372.280747 
L 292.906102 369.205159 
L 293.441292 369.565897 
L 293.976481 366.503677 
L 294.51167 369.241493 
L 295.04686 369.412692 
L 295.582049 366.205405 
L 296.117238 367.131643 
L 296.652428 368.671099 
L 297.187617 370.829727 
L 297.722806 370.992714 
L 298.257996 370.733551 
L 298.793185 371.062399 
L 299.328374 369.825093 
L 299.863563 365.436037 
L 300.398753 369.669703 
L 300.933942 369.387347 
L 301.469131 374.41338 
L 302.004321 365.712102 
L 302.53951 369.647085 
L 303.074699 366.784106 
L 303.609889 367.141505 
L 304.145078 370.354153 
L 304.680267 367.113694 
L 305.215457 372.646521 
L 305.750646 370.400768 
L 306.285835 364.21252 
L 306.821024 371.03206 
L 307.356214 367.169246 
L 307.891403 368.303608 
L 308.426592 370.5685 
L 308.961782 364.151851 
L 309.496971 368.659726 
L 310.03216 366.14312 
L 310.56735 362.447936 
L 311.102539 372.469867 
L 311.637728 368.486976 
L 312.172918 365.648553 
L 312.708107 368.489635 
L 313.243296 364.895964 
L 313.778486 366.401048 
L 314.313675 367.529014 
L 314.848864 366.81342 
L 315.384053 370.396977 
L 315.919243 372.524405 
L 316.454432 373.275097 
L 316.989621 367.342516 
L 317.524811 370.943778 
L 318.06 364.287986 
L 318.06 364.287986 
" clip-path="url(#p2e97e46fed)" style="fill: none; stroke: #e76f51; stroke-width: 1.3; stroke-linecap: square"/>
   </g>
   <g id="line2d_15">
    <path d="M 77.76 370.597445 
L 78.295189 372.12571 
L 78.830379 372.890797 
L 79.365568 363.234889 
L 79.900757 367.052754 
L 80.435947 365.625937 
L 80.971136 370.691811 
L 81.506325 362.84649 
L 82.041514 371.44556 
L 82.576704 367.33191 
L 83.111893 368.490101 
L 83.647082 364.28772 
L 84.182272 370.450691 
L 84.717461 368.406438 
L 85.25265 368.119424 
L 85.78784 367.429524 
L 86.323029 367.196815 
L 86.858218 365.169515 
L 87.393408 364.546091 
L 87.928597 368.127196 
L 88.463786 367.610644 
L 88.998976 366.718258 
L 89.534165 366.084262 
L 90.069354 367.478429 
L 90.604543 365.657903 
L 91.139733 366.334535 
L 91.674922 364.886066 
L 92.210111 368.924485 
L 92.745301 366.563169 
L 93.28049 368.769982 
L 93.815679 372.177992 
L 94.886058 366.716618 
L 95.421247 368.599125 
L 95.956437 369.953831 
L 96.491626 365.265171 
L 97.026815 363.717079 
L 97.562004 365.258887 
L 98.097194 365.215011 
L 98.632383 370.878859 
L 99.167572 365.629578 
L 99.702762 362.525607 
L 100.237951 363.453252 
L 100.77314 366.884214 
L 101.30833 363.839958 
L 101.843519 367.816255 
L 102.378708 368.075129 
L 102.913898 365.816161 
L 103.449087 365.912626 
L 103.984276 368.855132 
L 104.519465 367.660409 
L 105.054655 364.110887 
L 105.589844 368.498074 
L 106.125033 366.678852 
L 106.660223 366.206111 
L 107.195412 364.373824 
L 107.730601 367.324595 
L 108.265791 366.298269 
L 108.80098 363.750552 
L 109.336169 368.438933 
L 109.871359 368.912051 
L 110.406548 371.044321 
L 110.941737 365.046044 
L 111.476927 368.437717 
L 112.012116 368.657271 
L 112.547305 372.146326 
L 113.082494 368.369947 
L 113.617684 369.832852 
L 114.152873 368.016698 
L 114.688062 368.107657 
L 115.223252 367.06887 
L 115.758441 362.607746 
L 116.29363 370.20072 
L 116.82882 367.375207 
L 117.364009 368.717963 
L 117.899198 367.962917 
L 118.434388 366.667967 
L 118.969577 364.653601 
L 119.504766 366.798733 
L 120.039955 366.488559 
L 120.575145 365.233903 
L 121.645523 368.235628 
L 122.180713 367.061806 
L 122.715902 366.657275 
L 123.251091 371.404014 
L 123.786281 364.862524 
L 124.32147 366.493148 
L 124.856659 365.00144 
L 125.391849 366.332568 
L 125.927038 370.346249 
L 126.997416 366.968559 
L 127.532606 370.295363 
L 128.067795 363.656582 
L 128.602984 370.223388 
L 129.138174 362.410332 
L 129.673363 366.134092 
L 130.208552 365.35832 
L 130.743742 370.172333 
L 131.278931 367.702667 
L 131.81412 367.909738 
L 132.34931 363.082574 
L 132.884499 361.405111 
L 133.419688 361.878503 
L 133.954878 373.49138 
L 134.490067 366.652917 
L 135.025256 370.232958 
L 135.560445 366.98086 
L 136.095635 367.96599 
L 136.630824 371.268343 
L 137.166013 370.010113 
L 137.701203 365.01446 
L 138.236392 367.147667 
L 138.771581 368.480114 
L 139.306771 366.473777 
L 139.84196 369.687649 
L 140.377149 365.100578 
L 140.912339 367.769224 
L 141.447528 363.903223 
L 141.982717 372.197148 
L 142.517906 365.863941 
L 143.588285 370.267876 
L 144.123474 368.871394 
L 144.658664 365.564697 
L 145.193853 363.466634 
L 145.729042 365.500876 
L 146.264232 363.908644 
L 146.799421 363.658942 
L 147.33461 362.592726 
L 147.8698 354.739158 
L 148.404989 356.627384 
L 148.940178 352.907582 
L 149.475367 356.745404 
L 150.010557 353.044187 
L 150.545746 352.911904 
L 151.080935 348.147527 
L 151.616125 348.668482 
L 152.151314 343.395375 
L 152.686503 345.664438 
L 153.221693 345.595675 
L 153.756882 345.64966 
L 154.292071 343.038479 
L 154.827261 337.826144 
L 155.36245 339.745879 
L 156.968018 330.670637 
L 157.503207 335.658601 
L 158.038396 332.158061 
L 158.573586 333.524398 
L 159.108775 328.495171 
L 159.643964 327.917862 
L 160.179154 326.105588 
L 160.714343 328.957409 
L 161.249532 325.694015 
L 161.784722 328.078662 
L 162.319911 320.85698 
L 162.8551 323.009137 
L 163.39029 322.545982 
L 163.925479 319.167822 
L 164.460668 317.333678 
L 164.995857 319.881003 
L 165.531047 317.655325 
L 166.066236 316.329623 
L 167.136615 318.450152 
L 167.671804 317.270646 
L 168.206993 312.885296 
L 168.742183 313.901845 
L 169.277372 317.09467 
L 169.812561 314.972608 
L 170.347751 311.480411 
L 170.88294 312.947757 
L 171.418129 314.82859 
L 171.953318 315.595445 
L 173.023697 307.530736 
L 173.558886 312.306021 
L 174.094076 313.995544 
L 174.629265 313.957599 
L 175.164454 308.851692 
L 175.699644 316.771232 
L 176.234833 312.783654 
L 176.770022 311.661421 
L 177.305212 313.126485 
L 177.840401 305.953136 
L 178.37559 310.954727 
L 178.91078 311.189376 
L 179.445969 308.876978 
L 179.981158 311.880854 
L 180.516347 316.431285 
L 181.051537 311.354465 
L 181.586726 313.464146 
L 182.121915 313.869042 
L 182.657105 309.151268 
L 183.192294 315.024858 
L 183.727483 312.818347 
L 184.262673 313.114031 
L 184.797862 312.545587 
L 185.333051 308.043568 
L 185.868241 316.222075 
L 186.40343 314.256827 
L 186.938619 311.444344 
L 187.473808 314.541702 
L 188.008998 316.898233 
L 188.544187 316.539721 
L 189.079376 312.512997 
L 189.614566 319.309097 
L 190.149755 311.655808 
L 190.684944 311.709388 
L 191.220134 316.621569 
L 191.755323 316.205276 
L 192.290512 316.332947 
L 192.825702 318.800432 
L 193.360891 317.354639 
L 193.89608 324.249088 
L 194.431269 323.51486 
L 194.966459 321.912621 
L 195.501648 321.75215 
L 196.036837 318.913662 
L 196.572027 320.114307 
L 197.107216 318.922263 
L 197.642405 321.433292 
L 198.177595 321.802747 
L 198.712784 321.013209 
L 199.247973 324.816171 
L 199.783163 325.423811 
L 200.318352 325.096351 
L 200.853541 327.60555 
L 201.388731 325.687473 
L 201.92392 325.350763 
L 202.459109 327.910304 
L 202.994298 327.847564 
L 203.529488 327.568549 
L 204.064677 323.424765 
L 204.599866 323.25019 
L 205.135056 329.357546 
L 205.670245 324.767412 
L 206.740624 331.160527 
L 207.275813 329.517673 
L 207.811002 331.168588 
L 208.346192 331.701564 
L 208.881381 333.803707 
L 209.41657 330.183244 
L 209.951759 335.094177 
L 210.486949 333.126699 
L 211.557327 327.57768 
L 212.092517 332.961989 
L 212.627706 332.783904 
L 213.162895 331.490933 
L 213.698085 334.294616 
L 214.233274 330.781451 
L 214.768463 340.646337 
L 215.303653 334.164697 
L 215.838842 337.70555 
L 216.90922 332.797341 
L 217.44441 336.511 
L 217.979599 338.128875 
L 218.514788 337.126907 
L 219.049978 338.925682 
L 219.585167 337.87699 
L 221.190735 342.864826 
L 221.725924 338.052861 
L 222.796303 343.724203 
L 223.331492 343.889698 
L 223.866682 340.843453 
L 224.401871 343.688076 
L 225.472249 339.17427 
L 226.007439 334.02599 
L 226.542628 341.774426 
L 227.077817 338.864488 
L 227.613007 347.402167 
L 228.683385 343.455178 
L 229.218575 343.085168 
L 229.753764 348.626791 
L 230.288953 342.138808 
L 230.824143 343.694385 
L 231.359332 344.506151 
L 231.894521 344.501777 
L 232.42971 347.358958 
L 232.9649 343.722384 
L 233.500089 346.087202 
L 234.035278 347.797508 
L 234.570468 345.753394 
L 235.105657 350.20576 
L 235.640846 348.806946 
L 236.176036 349.110428 
L 236.711225 347.669377 
L 237.246414 349.447882 
L 237.781604 348.249924 
L 238.316793 352.550827 
L 238.851982 352.469786 
L 239.387171 348.362481 
L 239.922361 349.880114 
L 240.45755 351.999179 
L 240.992739 349.565686 
L 241.527929 349.650164 
L 242.063118 348.104626 
L 242.598307 349.823716 
L 243.133497 353.094817 
L 243.668686 351.203548 
L 244.203875 348.837672 
L 244.739065 350.273787 
L 245.274254 353.650285 
L 245.809443 349.129954 
L 246.344633 354.314878 
L 246.879822 353.173889 
L 247.415011 357.608051 
L 247.9502 352.886747 
L 248.48539 352.491348 
L 249.020579 354.074174 
L 249.555768 353.754984 
L 250.090958 355.807462 
L 250.626147 352.787949 
L 251.161336 355.694662 
L 251.696526 353.012433 
L 252.231715 353.582274 
L 252.766904 354.637376 
L 253.302094 354.168516 
L 253.837283 354.411373 
L 254.372472 355.741408 
L 254.907661 359.414931 
L 255.442851 351.392808 
L 255.97804 349.862739 
L 256.513229 355.197899 
L 257.048419 357.997939 
L 257.583608 355.562294 
L 258.118797 359.842787 
L 258.653987 355.032345 
L 259.189176 352.377722 
L 259.724365 355.480701 
L 260.259555 355.493929 
L 260.794744 362.141819 
L 261.329933 358.068569 
L 261.865122 360.698248 
L 262.400312 353.09462 
L 262.935501 357.854024 
L 263.47069 358.546149 
L 264.00588 356.450051 
L 264.541069 355.214854 
L 265.076258 356.449141 
L 265.611448 360.146826 
L 266.146637 357.399475 
L 266.681826 357.049633 
L 267.217016 359.381799 
L 267.752205 356.845688 
L 268.287394 360.744903 
L 268.822584 357.449037 
L 269.357773 356.061591 
L 269.892962 357.993475 
L 270.428151 361.567003 
L 270.963341 358.102488 
L 271.49853 357.196204 
L 272.033719 357.66883 
L 272.568909 362.093628 
L 273.104098 359.848183 
L 273.639287 359.649968 
L 274.174477 351.852322 
L 274.709666 358.186014 
L 275.244855 360.715856 
L 275.780045 357.106071 
L 276.315234 360.871248 
L 276.850423 360.392566 
L 277.385612 356.175281 
L 277.920802 357.148234 
L 278.99118 362.721743 
L 279.52637 368.750444 
L 280.061559 360.615224 
L 280.596748 363.545048 
L 281.131938 358.277051 
L 281.667127 358.171858 
L 282.202316 364.689772 
L 282.737506 364.879329 
L 283.272695 362.653541 
L 283.807884 361.326703 
L 284.343073 359.219908 
L 284.878263 365.312788 
L 285.413452 367.588692 
L 285.948641 362.927603 
L 286.483831 363.591519 
L 287.01902 362.671053 
L 287.554209 358.626413 
L 288.089399 363.929234 
L 288.624588 359.882867 
L 289.159777 363.286399 
L 289.694967 361.474898 
L 290.230156 360.52167 
L 290.765345 363.199724 
L 291.300535 367.309191 
L 291.835724 365.788771 
L 292.370913 363.658009 
L 292.906102 367.350586 
L 293.441292 366.988762 
L 293.976481 364.843623 
L 294.51167 366.217078 
L 295.04686 361.571282 
L 295.582049 361.711709 
L 296.117238 370.560175 
L 296.652428 362.165539 
L 297.187617 365.812078 
L 297.722806 364.418269 
L 298.257996 360.145274 
L 298.793185 363.574833 
L 299.328374 364.731919 
L 299.863563 366.346783 
L 300.398753 363.692108 
L 300.933942 362.558189 
L 301.469131 361.875306 
L 302.004321 365.474653 
L 302.53951 358.875844 
L 303.074699 364.478199 
L 303.609889 359.333321 
L 304.145078 363.99736 
L 304.680267 359.695664 
L 305.215457 359.878336 
L 305.750646 366.517319 
L 306.285835 364.798507 
L 306.821024 364.884076 
L 307.356214 362.452071 
L 307.891403 366.86414 
L 308.426592 367.652851 
L 308.961782 356.307272 
L 309.496971 362.528874 
L 310.03216 361.362582 
L 310.56735 364.032111 
L 311.102539 363.652121 
L 311.637728 362.550457 
L 312.708107 365.286529 
L 313.243296 365.531458 
L 313.778486 360.891027 
L 314.313675 366.696404 
L 314.848864 362.996917 
L 315.384053 364.618281 
L 315.919243 365.537709 
L 316.454432 362.627725 
L 316.989621 366.178735 
L 317.524811 370.867559 
L 318.06 362.694184 
L 318.06 362.694184 
" clip-path="url(#p2e97e46fed)" style="fill: none; stroke: #2a9d8f; stroke-width: 1.3; stroke-linecap: square"/>
   </g>
   <g id="text_10">
    <!-- at 420 nm -->
    <g style="fill: #444444" transform="translate(172.124844 297.288047) scale(0.1 -0.1)">
     <defs>
      <path id="DejaVuSans-34" d="M 2419 4116 
L 825 1625 
L 2419 1625 
L 2419 4116 
z
M 2253 4666 
L 3047 4666 
L 3047 1625 
L 3713 1625 
L 3713 1100 
L 3047 1100 
L 3047 0 
L 2419 0 
L 2419 1100 
L 313 1100 
L 313 1709 
L 2253 4666 
z
" transform="scale(0.015625)"/>
      <path id="DejaVuSans-32" d="M 1228 531 
L 3431 531 
L 3431 0 
L 469 0 
L 469 531 
Q 828 903 1448 1529 
Q 2069 2156 2228 2338 
Q 2531 2678 2651 2914 
Q 2772 3150 2772 3378 
Q 2772 3750 2511 3984 
Q 2250 4219 1831 4219 
Q 1534 4219 1204 4116 
Q 875 4013 500 3803 
L 500 4441 
Q 881 4594 1212 4672 
Q 1544 4750 1819 4750 
Q 2544 4750 2975 4387 
Q 3406 4025 3406 3419 
Q 3406 3131 3298 2873 
Q 3191 2616 2906 2266 
Q 2828 2175 2409 1742 
Q 1991 1309 1228 531 
z
" transform="scale(0.015625)"/>
     </defs>
     <use xlink:href="#DejaVuSans-61"/>
     <use xlink:href="#DejaVuSans-74" transform="translate(61.279297 0)"/>
     <use xlink:href="#DejaVuSans-20" transform="translate(100.488281 0)"/>
     <use xlink:href="#DejaVuSans-34" transform="translate(132.275391 0)"/>
     <use xlink:href="#DejaVuSans-32" transform="translate(195.898438 0)"/>
     <use xlink:href="#DejaVuSans-30" transform="translate(259.521484 0)"/>
     <use xlink:href="#DejaVuSans-20" transform="translate(323.144531 0)"/>
     <use xlink:href="#DejaVuSans-6e" transform="translate(354.931641 0)"/>
     <use xlink:href="#DejaVuSans-6d" transform="translate(418.310547 0)"/>
    </g>
   </g>
   <g id="line2d_16">
    <path d="M 77.76 361.436505 
L 78.295189 366.810652 
L 78.830379 365.912942 
L 79.365568 362.674395 
L 80.435947 364.904218 
L 80.971136 368.736382 
L 81.506325 371.294964 
L 82.041514 365.715296 
L 82.576704 369.26749 
L 83.111893 363.911194 
L 83.647082 366.374894 
L 84.182272 370.200745 
L 84.717461 366.149031 
L 85.25265 364.383369 
L 85.78784 366.509819 
L 86.323029 370.349831 
L 86.858218 366.170614 
L 87.393408 365.791958 
L 87.928597 363.922983 
L 88.463786 364.331958 
L 88.998976 370.852539 
L 89.534165 369.210742 
L 90.069354 364.797201 
L 90.604543 374.00994 
L 91.139733 364.1112 
L 91.674922 370.577334 
L 92.210111 368.906787 
L 92.745301 361.446996 
L 93.28049 367.477744 
L 93.815679 368.427244 
L 94.350869 366.094285 
L 94.886058 367.595582 
L 95.421247 369.723247 
L 95.956437 366.220496 
L 96.491626 358.673285 
L 97.026815 363.541644 
L 97.562004 365.468371 
L 98.097194 366.190792 
L 98.632383 364.028967 
L 99.167572 364.723708 
L 99.702762 370.64647 
L 100.237951 365.191787 
L 100.77314 367.010903 
L 101.30833 360.357027 
L 101.843519 368.064064 
L 102.378708 362.213239 
L 102.913898 371.84216 
L 103.449087 365.968298 
L 103.984276 370.065343 
L 104.519465 370.729036 
L 105.054655 364.078828 
L 105.589844 371.152054 
L 106.125033 367.772225 
L 106.660223 370.027519 
L 107.195412 365.636295 
L 107.730601 366.109461 
L 108.265791 375.878182 
L 108.80098 364.414938 
L 109.336169 369.65717 
L 109.871359 359.189341 
L 110.406548 363.683185 
L 110.941737 363.393574 
L 111.476927 376.629203 
L 112.012116 360.205616 
L 113.082494 372.420699 
L 113.617684 365.891021 
L 114.152873 362.025522 
L 114.688062 373.388537 
L 115.223252 362.943616 
L 115.758441 368.396481 
L 116.29363 369.343813 
L 116.82882 368.779374 
L 117.364009 370.364075 
L 117.899198 366.342583 
L 118.434388 366.151182 
L 118.969577 363.057096 
L 119.504766 361.655848 
L 120.039955 368.389797 
L 120.575145 362.92472 
L 121.110334 371.678405 
L 121.645523 364.648715 
L 122.180713 371.427305 
L 122.715902 369.339106 
L 123.251091 364.783042 
L 123.786281 370.02671 
L 124.32147 365.235628 
L 124.856659 372.829474 
L 125.391849 369.923576 
L 125.927038 365.080429 
L 126.462227 361.316733 
L 126.997416 371.667175 
L 127.532606 361.036103 
L 128.067795 366.147069 
L 128.602984 358.375114 
L 129.138174 368.353793 
L 129.673363 369.1436 
L 130.208552 365.916845 
L 130.743742 371.379333 
L 131.278931 366.69188 
L 131.81412 367.430837 
L 132.34931 362.036819 
L 132.884499 365.856509 
L 133.419688 372.056533 
L 133.954878 372.279049 
L 134.490067 370.910613 
L 135.025256 375.199498 
L 135.560445 375.538026 
L 136.095635 358.961006 
L 136.630824 370.429065 
L 137.166013 362.172534 
L 137.701203 370.079035 
L 138.236392 368.769349 
L 138.771581 373.851118 
L 139.306771 362.250194 
L 139.84196 368.718043 
L 140.377149 360.664593 
L 140.912339 369.926362 
L 141.447528 362.151147 
L 141.982717 361.35755 
L 142.517906 373.063833 
L 143.053096 365.364055 
L 143.588285 371.095143 
L 144.123474 371.423982 
L 144.658664 366.189969 
L 145.729042 360.656749 
L 146.264232 366.839676 
L 146.799421 361.081669 
L 147.33461 362.187592 
L 147.8698 363.81164 
L 148.404989 366.816769 
L 148.940178 362.229456 
L 149.475367 347.801824 
L 150.010557 364.56616 
L 150.545746 360.781656 
L 151.080935 362.838423 
L 151.616125 353.096086 
L 152.151314 350.594707 
L 152.686503 351.625508 
L 153.221693 348.292856 
L 153.756882 355.626494 
L 154.292071 347.925037 
L 154.827261 357.032022 
L 155.36245 346.879054 
L 155.897639 346.395685 
L 156.432829 354.028817 
L 156.968018 347.124881 
L 157.503207 354.446664 
L 158.038396 355.06731 
L 158.573586 354.390383 
L 159.108775 352.636547 
L 159.643964 352.190607 
L 160.179154 347.539975 
L 160.714343 339.639344 
L 161.249532 347.036561 
L 161.784722 348.892967 
L 162.319911 342.338508 
L 162.8551 345.567573 
L 163.925479 342.160616 
L 164.460668 341.605553 
L 164.995857 345.698828 
L 165.531047 343.601195 
L 166.066236 338.578854 
L 166.601425 343.476537 
L 167.136615 342.649962 
L 167.671804 340.201677 
L 168.206993 339.491187 
L 168.742183 342.198607 
L 169.277372 338.481199 
L 169.812561 340.549963 
L 170.347751 345.569702 
L 170.88294 337.592609 
L 171.418129 343.500799 
L 171.953318 327.665594 
L 172.488508 338.6199 
L 173.023697 340.794622 
L 173.558886 336.184309 
L 174.094076 333.655509 
L 174.629265 333.391255 
L 175.164454 338.17545 
L 175.699644 335.07297 
L 176.234833 336.509345 
L 176.770022 338.947571 
L 177.305212 345.349776 
L 177.840401 339.223049 
L 178.37559 349.603205 
L 178.91078 342.907139 
L 179.445969 333.960598 
L 179.981158 338.739149 
L 180.516347 339.684741 
L 181.051537 343.069663 
L 181.586726 343.072365 
L 182.121915 342.477383 
L 182.657105 345.393038 
L 183.192294 349.011498 
L 183.727483 335.913823 
L 184.262673 333.53623 
L 184.797862 342.818222 
L 185.333051 337.32461 
L 185.868241 345.451033 
L 186.40343 339.257989 
L 186.938619 346.340603 
L 187.473808 337.305951 
L 188.008998 340.883099 
L 188.544187 346.350952 
L 189.079376 339.214664 
L 189.614566 334.968173 
L 190.149755 341.714713 
L 190.684944 342.070867 
L 191.220134 342.03654 
L 191.755323 341.754477 
L 192.290512 337.434507 
L 192.825702 337.45101 
L 193.360891 351.237561 
L 193.89608 338.153084 
L 194.431269 343.989387 
L 194.966459 336.697615 
L 195.501648 341.715751 
L 196.036837 339.900745 
L 196.572027 346.006527 
L 197.107216 349.505717 
L 197.642405 343.384323 
L 198.177595 340.685805 
L 198.712784 341.800204 
L 199.247973 341.815235 
L 199.783163 344.247705 
L 200.318352 342.478459 
L 200.853541 348.865522 
L 201.388731 346.341697 
L 201.92392 352.206998 
L 202.459109 346.396648 
L 202.994298 347.628654 
L 203.529488 346.378654 
L 204.064677 342.62136 
L 204.599866 346.750746 
L 205.135056 358.841831 
L 205.670245 341.924967 
L 206.205434 347.007398 
L 206.740624 344.713741 
L 207.275813 351.201643 
L 207.811002 344.919644 
L 208.346192 342.293942 
L 208.881381 355.118524 
L 209.41657 343.917219 
L 209.951759 352.790669 
L 210.486949 352.329218 
L 211.022138 349.438384 
L 211.557327 341.282894 
L 212.092517 357.086773 
L 212.627706 352.59985 
L 213.698085 347.819221 
L 214.233274 351.080534 
L 214.768463 349.096447 
L 215.303653 355.160815 
L 215.838842 348.101794 
L 216.374031 347.16115 
L 216.90922 355.99907 
L 217.44441 354.925595 
L 217.979599 350.356753 
L 218.514788 350.796339 
L 219.049978 350.190723 
L 219.585167 357.399578 
L 220.120356 354.253115 
L 220.655546 354.823376 
L 221.190735 347.574141 
L 221.725924 353.582789 
L 222.796303 357.197982 
L 223.331492 353.719773 
L 223.866682 349.092775 
L 224.401871 360.311634 
L 224.93706 353.765195 
L 225.472249 352.344288 
L 226.007439 346.542868 
L 226.542628 351.980085 
L 227.077817 349.42872 
L 228.148196 360.806047 
L 228.683385 361.095712 
L 229.218575 358.417419 
L 229.753764 355.127299 
L 230.288953 356.986228 
L 230.824143 357.86276 
L 231.359332 348.832129 
L 231.894521 365.936651 
L 232.42971 360.657453 
L 232.9649 346.918687 
L 233.500089 355.47101 
L 234.035278 359.564482 
L 234.570468 361.529827 
L 235.105657 353.889408 
L 235.640846 354.455302 
L 236.176036 354.141621 
L 236.711225 362.777606 
L 237.246414 357.137315 
L 237.781604 358.703052 
L 238.316793 356.156517 
L 238.851982 364.596278 
L 239.387171 355.80114 
L 239.922361 352.129927 
L 240.45755 363.979425 
L 240.992739 355.038525 
L 241.527929 351.930283 
L 242.598307 359.113458 
L 243.133497 358.506139 
L 243.668686 361.289035 
L 244.203875 358.365324 
L 244.739065 363.573032 
L 245.274254 359.256782 
L 245.809443 362.98556 
L 246.344633 365.560522 
L 246.879822 353.731384 
L 247.415011 367.403608 
L 247.9502 352.779393 
L 248.48539 368.926552 
L 249.020579 356.419117 
L 249.555768 359.54707 
L 250.090958 366.956554 
L 250.626147 362.560976 
L 251.161336 364.732348 
L 251.696526 364.557985 
L 252.231715 357.223105 
L 252.766904 365.652609 
L 253.302094 368.77586 
L 253.837283 356.55215 
L 254.372472 359.581455 
L 254.907661 361.240974 
L 255.442851 362.486306 
L 255.97804 358.602071 
L 256.513229 360.00193 
L 257.583608 364.071286 
L 258.118797 357.387375 
L 258.653987 355.938008 
L 259.189176 360.008765 
L 259.724365 349.845456 
L 260.259555 361.148882 
L 260.794744 361.38979 
L 261.329933 356.052586 
L 261.865122 361.095421 
L 262.400312 361.302431 
L 262.935501 363.885663 
L 263.47069 360.562295 
L 264.00588 369.410934 
L 264.541069 365.612283 
L 265.076258 367.107015 
L 265.611448 371.662749 
L 266.146637 358.425544 
L 266.681826 364.267317 
L 267.217016 366.565779 
L 267.752205 361.511625 
L 268.287394 368.173292 
L 268.822584 359.531228 
L 269.357773 357.520179 
L 269.892962 369.111514 
L 270.428151 358.534496 
L 270.963341 362.586087 
L 271.49853 358.868175 
L 273.104098 370.125877 
L 273.639287 368.214143 
L 274.174477 365.792069 
L 274.709666 359.521776 
L 275.780045 362.67919 
L 276.315234 357.998615 
L 276.850423 371.483134 
L 277.385612 368.827652 
L 277.920802 368.751316 
L 278.455991 363.877635 
L 278.99118 370.960786 
L 279.52637 366.618324 
L 280.061559 358.741792 
L 280.596748 360.277963 
L 281.131938 358.092534 
L 281.667127 366.717793 
L 282.202316 368.641417 
L 282.737506 363.406681 
L 283.272695 368.288782 
L 283.807884 364.94296 
L 284.343073 365.167929 
L 284.878263 362.487621 
L 285.413452 358.857065 
L 285.948641 359.102646 
L 286.483831 360.966427 
L 287.01902 365.633378 
L 287.554209 362.154646 
L 288.089399 366.410867 
L 289.159777 371.116877 
L 290.230156 362.967765 
L 290.765345 362.25284 
L 291.300535 364.891639 
L 291.835724 362.733642 
L 292.370913 367.414131 
L 292.906102 358.393234 
L 293.441292 364.565715 
L 293.976481 366.503222 
L 294.51167 362.535773 
L 295.04686 365.883996 
L 295.582049 363.921401 
L 296.117238 359.289632 
L 296.652428 368.603121 
L 297.187617 366.475065 
L 297.722806 366.093843 
L 298.257996 365.194329 
L 298.793185 357.717255 
L 299.328374 361.736127 
L 299.863563 360.131471 
L 300.398753 375.797389 
L 300.933942 363.42095 
L 301.469131 364.325049 
L 302.004321 363.279419 
L 302.53951 365.401873 
L 303.074699 368.188492 
L 303.609889 362.641935 
L 304.145078 366.340451 
L 304.680267 365.592868 
L 305.215457 368.013645 
L 305.750646 366.446201 
L 306.285835 363.504841 
L 306.821024 362.364322 
L 307.356214 365.830891 
L 307.891403 365.370065 
L 308.426592 366.551551 
L 308.961782 362.157453 
L 309.496971 367.535938 
L 310.03216 366.986413 
L 310.56735 365.391922 
L 311.102539 367.576744 
L 311.637728 364.681672 
L 312.172918 359.236757 
L 312.708107 365.930945 
L 313.243296 359.963537 
L 313.778486 362.150706 
L 314.313675 365.183497 
L 314.848864 363.122927 
L 315.384053 360.100176 
L 315.919243 369.367262 
L 316.454432 363.1037 
L 316.989621 360.951456 
L 317.524811 368.961311 
L 318.06 360.564262 
L 318.06 360.564262 
" clip-path="url(#p2e97e46fed)" style="fill: none; stroke: #b87333; stroke-width: 1.7; stroke-linecap: square"/>
   </g>
  </g>
  <g id="axes_4">
   <g id="patch_8">
    <path d="M 390.15 403.92 
L 942.84 403.92 
L 942.84 57.024 
L 390.15 57.024 
L 390.15 403.92 
z
" style="fill: none"/>
   </g>
   <g id="matplotlib.axis_7">
    <g id="text_11">
     <!-- calcium [Ca²⁺]  → -->
     <g style="fill: #444444" transform="translate(614.37 419.038125) scale(0.12 -0.12)">
      <defs>
       <path id="DejaVuSans-6c" d="M 603 4863 
L 1178 4863 
L 1178 0 
L 603 0 
L 603 4863 
z
" transform="scale(0.015625)"/>
       <path id="DejaVuSans-75" d="M 544 1381 
L 544 3500 
L 1119 3500 
L 1119 1403 
Q 1119 906 1312 657 
Q 1506 409 1894 409 
Q 2359 409 2629 706 
Q 2900 1003 2900 1516 
L 2900 3500 
L 3475 3500 
L 3475 0 
L 2900 0 
L 2900 538 
Q 2691 219 2414 64 
Q 2138 -91 1772 -91 
Q 1169 -91 856 284 
Q 544 659 544 1381 
z
M 1991 3584 
L 1991 3584 
z
" transform="scale(0.015625)"/>
      </defs>
      <use xlink:href="#DejaVuSans-63"/>
      <use xlink:href="#DejaVuSans-61" transform="translate(54.980469 0)"/>
      <use xlink:href="#DejaVuSans-6c" transform="translate(116.259766 0)"/>
      <use xlink:href="#DejaVuSans-63" transform="translate(144.042969 0)"/>
      <use xlink:href="#DejaVuSans-69" transform="translate(199.023438 0)"/>
      <use xlink:href="#DejaVuSans-75" transform="translate(226.806641 0)"/>
      <use xlink:href="#DejaVuSans-6d" transform="translate(290.185547 0)"/>
      <use xlink:href="#DejaVuSans-20" transform="translate(387.597656 0)"/>
      <use xlink:href="#DejaVuSans-5b" transform="translate(419.384766 0)"/>
      <use xlink:href="#DejaVuSans-43" transform="translate(458.398438 0)"/>
      <use xlink:href="#DejaVuSans-61" transform="translate(528.222656 0)"/>
      <use xlink:href="#DejaVuSans-b2" transform="translate(589.501953 0)"/>
      <use xlink:href="#DejaVuSans-207a" transform="translate(629.589844 0)"/>
      <use xlink:href="#DejaVuSans-5d" transform="translate(682.373047 0)"/>
      <use xlink:href="#DejaVuSans-20" transform="translate(721.386719 0)"/>
      <use xlink:href="#DejaVuSans-20" transform="translate(753.173828 0)"/>
      <use xlink:href="#DejaVuSans-2192" transform="translate(784.960938 0)"/>
     </g>
    </g>
   </g>
   <g id="matplotlib.axis_8">
    <g id="ytick_4">
     <g id="line2d_17">
      <g>
       <use xlink:href="#mbe563a75be" x="390.15" y="403.92" style="fill: #444444; stroke: #444444; stroke-width: 0.8"/>
      </g>
     </g>
     <g id="text_12">
      <!-- 0 -->
      <g style="fill: #444444" transform="translate(376.15125 408.099141) scale(0.11 -0.11)">
       <use xlink:href="#DejaVuSans-30"/>
      </g>
     </g>
    </g>
    <g id="ytick_5">
     <g id="line2d_18">
      <g>
       <use xlink:href="#mbe563a75be" x="390.15" y="256.930169" style="fill: #444444; stroke: #444444; stroke-width: 0.8"/>
      </g>
     </g>
     <g id="text_13">
      <!-- ½ -->
      <g style="fill: #444444" transform="translate(372.488594 261.10931) scale(0.11 -0.11)">
       <use xlink:href="#DejaVuSans-bd"/>
      </g>
     </g>
    </g>
    <g id="ytick_6">
     <g id="line2d_19">
      <g>
       <use xlink:href="#mbe563a75be" x="390.15" y="109.940339" style="fill: #444444; stroke: #444444; stroke-width: 0.8"/>
      </g>
     </g>
     <g id="text_14">
      <!-- 1 -->
      <g style="fill: #444444" transform="translate(376.15125 114.11948) scale(0.11 -0.11)">
       <use xlink:href="#DejaVuSans-31"/>
      </g>
     </g>
    </g>
    <g id="text_15">
     <!-- fraction -->
     <g style="fill: #222222" transform="translate(314.393594 233.78325) scale(0.12 -0.12)">
      <use xlink:href="#DejaVuSans-66"/>
      <use xlink:href="#DejaVuSans-72" transform="translate(35.205078 0)"/>
      <use xlink:href="#DejaVuSans-61" transform="translate(76.318359 0)"/>
      <use xlink:href="#DejaVuSans-63" transform="translate(137.597656 0)"/>
      <use xlink:href="#DejaVuSans-74" transform="translate(192.578125 0)"/>
      <use xlink:href="#DejaVuSans-69" transform="translate(231.787109 0)"/>
      <use xlink:href="#DejaVuSans-6f" transform="translate(259.570312 0)"/>
      <use xlink:href="#DejaVuSans-6e" transform="translate(320.751953 0)"/>
     </g>
    </g>
   </g>
   <g id="line2d_20">
    <path d="M 439.8921 403.92 
L 439.8921 57.024 
" clip-path="url(#pefb0170b49)" style="fill: none; stroke-dasharray: 0.8,1.32; stroke-dashoffset: 0; stroke: #888888; stroke-opacity: 0.65; stroke-width: 0.8"/>
   </g>
   <g id="line2d_21">
    <path d="M 735.58125 403.92 
L 735.58125 57.024 
" clip-path="url(#pefb0170b49)" style="fill: none; stroke-dasharray: 0.8,1.32; stroke-dashoffset: 0; stroke: #888888; stroke-opacity: 0.65; stroke-width: 0.8"/>
   </g>
   <g id="patch_9">
    <path d="M 390.15 403.92 
L 390.15 57.024 
" style="fill: none; stroke: #bbbbbb; stroke-width: 0.8; stroke-linejoin: miter; stroke-linecap: square"/>
   </g>
   <g id="patch_10">
    <path d="M 390.15 403.92 
L 942.84 403.92 
" style="fill: none; stroke: #bbbbbb; stroke-width: 0.8; stroke-linejoin: miter; stroke-linecap: square"/>
   </g>
   <g id="line2d_22">
    <path d="M 390.15 109.940339 
L 395.687976 110.034854 
L 400.118357 110.350747 
L 403.441142 110.781588 
L 406.763928 111.406806 
L 410.086713 112.24696 
L 413.409499 113.318995 
L 416.732285 114.636579 
L 420.05507 116.210267 
L 423.377856 118.047597 
L 426.700641 120.153146 
L 430.023427 122.528599 
L 433.346212 125.172819 
L 436.668998 128.081956 
L 439.991784 131.249577 
L 443.314569 134.666832 
L 447.74495 139.592069 
L 452.175331 144.90956 
L 456.605711 150.582454 
L 462.143687 158.110738 
L 467.681663 166.044328 
L 474.327234 175.973905 
L 483.187996 189.656319 
L 505.3399 224.069016 
L 513.093066 235.624171 
L 519.738637 245.170848 
L 526.384208 254.334713 
L 533.02978 263.081896 
L 538.567756 270.037633 
L 544.105731 276.683383 
L 549.643707 283.017559 
L 555.181683 289.042248 
L 560.719659 294.762493 
L 566.257635 300.185658 
L 571.795611 305.320875 
L 577.333587 310.178563 
L 582.871563 314.770034 
L 588.409539 319.10716 
L 593.947515 323.202105 
L 600.593086 327.813582 
L 607.238657 332.114869 
L 613.884228 336.126388 
L 620.5298 339.867818 
L 627.175371 343.357949 
L 633.820942 346.614582 
L 641.574108 350.14118 
L 649.327275 353.397552 
L 657.080441 356.406587 
L 664.833607 359.189313 
L 673.694369 362.11709 
L 682.55513 364.800482 
L 691.415892 367.262982 
L 701.384248 369.795456 
L 711.352605 372.101824 
L 722.428557 374.428034 
L 733.504509 376.53295 
L 745.688056 378.622498 
L 758.979198 380.664888 
L 773.377936 382.634358 
L 788.884269 384.511163 
L 805.498196 386.281227 
L 823.219719 387.935581 
L 842.048838 389.469651 
L 863.093146 390.955338 
L 886.352645 392.364003 
L 911.827335 393.676149 
L 939.517214 394.88037 
L 942.84 395.011525 
L 942.84 395.011525 
" clip-path="url(#pefb0170b49)" style="fill: none; stroke: #e76f51; stroke-width: 3; stroke-linecap: square"/>
   </g>
   <g id="line2d_23">
    <path d="M 390.15 403.92 
L 395.687976 403.825485 
L 400.118357 403.509592 
L 403.441142 403.078751 
L 406.763928 402.453533 
L 410.086713 401.613379 
L 413.409499 400.541344 
L 416.732285 399.22376 
L 420.05507 397.650072 
L 423.377856 395.812742 
L 426.700641 393.707193 
L 430.023427 391.33174 
L 433.346212 388.68752 
L 436.668998 385.778383 
L 439.991784 382.610762 
L 443.314569 379.193507 
L 447.74495 374.26827 
L 452.175331 368.950779 
L 456.605711 363.277885 
L 462.143687 355.749601 
L 467.681663 347.816011 
L 474.327234 337.886434 
L 483.187996 324.20402 
L 505.3399 289.791323 
L 513.093066 278.236168 
L 519.738637 268.689491 
L 526.384208 259.525626 
L 533.02978 250.778443 
L 538.567756 243.822706 
L 544.105731 237.176956 
L 549.643707 230.84278 
L 555.181683 224.818091 
L 560.719659 219.097846 
L 566.257635 213.674681 
L 571.795611 208.539464 
L 577.333587 203.681776 
L 582.871563 199.090305 
L 588.409539 194.753179 
L 593.947515 190.658234 
L 600.593086 186.046757 
L 607.238657 181.74547 
L 613.884228 177.733951 
L 620.5298 173.992521 
L 627.175371 170.50239 
L 633.820942 167.245757 
L 641.574108 163.719159 
L 649.327275 160.462787 
L 657.080441 157.453752 
L 664.833607 154.671026 
L 673.694369 151.743249 
L 682.55513 149.059857 
L 691.415892 146.597357 
L 701.384248 144.064883 
L 711.352605 141.758515 
L 722.428557 139.432305 
L 733.504509 137.327389 
L 745.688056 135.237841 
L 758.979198 133.195451 
L 773.377936 131.225981 
L 788.884269 129.349176 
L 805.498196 127.579112 
L 823.219719 125.924758 
L 842.048838 124.390688 
L 863.093146 122.905001 
L 886.352645 121.496336 
L 911.827335 120.18419 
L 939.517214 118.979969 
L 942.84 118.848814 
L 942.84 118.848814 
" clip-path="url(#pefb0170b49)" style="fill: none; stroke: #2a9d8f; stroke-width: 3; stroke-linecap: square"/>
   </g>
   <g id="text_16">
    <!-- resting -->
    <g style="fill: #444444" transform="translate(421.709873 84.238294) scale(0.105 -0.105)">
     <use xlink:href="#DejaVuSans-72"/>
     <use xlink:href="#DejaVuSans-65" transform="translate(38.863281 0)"/>
     <use xlink:href="#DejaVuSans-73" transform="translate(100.386719 0)"/>
     <use xlink:href="#DejaVuSans-74" transform="translate(152.486328 0)"/>
     <use xlink:href="#DejaVuSans-69" transform="translate(191.695312 0)"/>
     <use xlink:href="#DejaVuSans-6e" transform="translate(219.478516 0)"/>
     <use xlink:href="#DejaVuSans-67" transform="translate(282.857422 0)"/>
    </g>
   </g>
   <g id="text_17">
    <!-- peak -->
    <g style="fill: #444444" transform="translate(722.760586 84.238294) scale(0.105 -0.105)">
     <use xlink:href="#DejaVuSans-70"/>
     <use xlink:href="#DejaVuSans-65" transform="translate(63.476562 0)"/>
     <use xlink:href="#DejaVuSans-61" transform="translate(125 0)"/>
     <use xlink:href="#DejaVuSans-6b" transform="translate(186.279297 0)"/>
    </g>
   </g>
  </g>
  <g id="text_18">
   <!-- calcium event drives populations, populations drive fluorescence -->
   <g style="fill: #222222" transform="translate(77.76 24.69525) scale(0.12 -0.12)">
    <defs>
     <path id="DejaVuSans-76" d="M 191 3500 
L 800 3500 
L 1894 563 
L 2988 3500 
L 3597 3500 
L 2284 0 
L 1503 0 
L 191 3500 
z
" transform="scale(0.015625)"/>
     <path id="DejaVuSans-64" d="M 2906 2969 
L 2906 4863 
L 3481 4863 
L 3481 0 
L 2906 0 
L 2906 525 
Q 2725 213 2448 61 
Q 2172 -91 1784 -91 
Q 1150 -91 751 415 
Q 353 922 353 1747 
Q 353 2572 751 3078 
Q 1150 3584 1784 3584 
Q 2172 3584 2448 3432 
Q 2725 3281 2906 2969 
z
M 947 1747 
Q 947 1113 1208 752 
Q 1469 391 1925 391 
Q 2381 391 2643 752 
Q 2906 1113 2906 1747 
Q 2906 2381 2643 2742 
Q 2381 3103 1925 3103 
Q 1469 3103 1208 2742 
Q 947 2381 947 1747 
z
" transform="scale(0.015625)"/>
     <path id="DejaVuSans-2c" d="M 750 794 
L 1409 794 
L 1409 256 
L 897 -744 
L 494 -744 
L 750 256 
L 750 794 
z
" transform="scale(0.015625)"/>
    </defs>
    <use xlink:href="#DejaVuSans-63"/>
    <use xlink:href="#DejaVuSans-61" transform="translate(54.980469 0)"/>
    <use xlink:href="#DejaVuSans-6c" transform="translate(116.259766 0)"/>
    <use xlink:href="#DejaVuSans-63" transform="translate(144.042969 0)"/>
    <use xlink:href="#DejaVuSans-69" transform="translate(199.023438 0)"/>
    <use xlink:href="#DejaVuSans-75" transform="translate(226.806641 0)"/>
    <use xlink:href="#DejaVuSans-6d" transform="translate(290.185547 0)"/>
    <use xlink:href="#DejaVuSans-20" transform="translate(387.597656 0)"/>
    <use xlink:href="#DejaVuSans-65" transform="translate(419.384766 0)"/>
    <use xlink:href="#DejaVuSans-76" transform="translate(480.908203 0)"/>
    <use xlink:href="#DejaVuSans-65" transform="translate(540.087891 0)"/>
    <use xlink:href="#DejaVuSans-6e" transform="translate(601.611328 0)"/>
    <use xlink:href="#DejaVuSans-74" transform="translate(664.990234 0)"/>
    <use xlink:href="#DejaVuSans-20" transform="translate(704.199219 0)"/>
    <use xlink:href="#DejaVuSans-64" transform="translate(735.986328 0)"/>
    <use xlink:href="#DejaVuSans-72" transform="translate(799.462891 0)"/>
    <use xlink:href="#DejaVuSans-69" transform="translate(840.576172 0)"/>
    <use xlink:href="#DejaVuSans-76" transform="translate(868.359375 0)"/>
    <use xlink:href="#DejaVuSans-65" transform="translate(927.539062 0)"/>
    <use xlink:href="#DejaVuSans-73" transform="translate(989.0625 0)"/>
    <use xlink:href="#DejaVuSans-20" transform="translate(1041.162109 0)"/>
    <use xlink:href="#DejaVuSans-70" transform="translate(1072.949219 0)"/>
    <use xlink:href="#DejaVuSans-6f" transform="translate(1136.425781 0)"/>
    <use xlink:href="#DejaVuSans-70" transform="translate(1197.607422 0)"/>
    <use xlink:href="#DejaVuSans-75" transform="translate(1261.083984 0)"/>
    <use xlink:href="#DejaVuSans-6c" transform="translate(1324.462891 0)"/>
    <use xlink:href="#DejaVuSans-61" transform="translate(1352.246094 0)"/>
    <use xlink:href="#DejaVuSans-74" transform="translate(1413.525391 0)"/>
    <use xlink:href="#DejaVuSans-69" transform="translate(1452.734375 0)"/>
    <use xlink:href="#DejaVuSans-6f" transform="translate(1480.517578 0)"/>
    <use xlink:href="#DejaVuSans-6e" transform="translate(1541.699219 0)"/>
    <use xlink:href="#DejaVuSans-73" transform="translate(1605.078125 0)"/>
    <use xlink:href="#DejaVuSans-2c" transform="translate(1657.177734 0)"/>
    <use xlink:href="#DejaVuSans-20" transform="translate(1688.964844 0)"/>
    <use xlink:href="#DejaVuSans-70" transform="translate(1720.751953 0)"/>
    <use xlink:href="#DejaVuSans-6f" transform="translate(1784.228516 0)"/>
    <use xlink:href="#DejaVuSans-70" transform="translate(1845.410156 0)"/>
    <use xlink:href="#DejaVuSans-75" transform="translate(1908.886719 0)"/>
    <use xlink:href="#DejaVuSans-6c" transform="translate(1972.265625 0)"/>
    <use xlink:href="#DejaVuSans-61" transform="translate(2000.048828 0)"/>
    <use xlink:href="#DejaVuSans-74" transform="translate(2061.328125 0)"/>
    <use xlink:href="#DejaVuSans-69" transform="translate(2100.537109 0)"/>
    <use xlink:href="#DejaVuSans-6f" transform="translate(2128.320312 0)"/>
    <use xlink:href="#DejaVuSans-6e" transform="translate(2189.501953 0)"/>
    <use xlink:href="#DejaVuSans-73" transform="translate(2252.880859 0)"/>
    <use xlink:href="#DejaVuSans-20" transform="translate(2304.980469 0)"/>
    <use xlink:href="#DejaVuSans-64" transform="translate(2336.767578 0)"/>
    <use xlink:href="#DejaVuSans-72" transform="translate(2400.244141 0)"/>
    <use xlink:href="#DejaVuSans-69" transform="translate(2441.357422 0)"/>
    <use xlink:href="#DejaVuSans-76" transform="translate(2469.140625 0)"/>
    <use xlink:href="#DejaVuSans-65" transform="translate(2528.320312 0)"/>
    <use xlink:href="#DejaVuSans-20" transform="translate(2589.84375 0)"/>
    <use xlink:href="#DejaVuSans-66" transform="translate(2621.630859 0)"/>
    <use xlink:href="#DejaVuSans-6c" transform="translate(2656.835938 0)"/>
    <use xlink:href="#DejaVuSans-75" transform="translate(2684.619141 0)"/>
    <use xlink:href="#DejaVuSans-6f" transform="translate(2747.998047 0)"/>
    <use xlink:href="#DejaVuSans-72" transform="translate(2809.179688 0)"/>
    <use xlink:href="#DejaVuSans-65" transform="translate(2848.042969 0)"/>
    <use xlink:href="#DejaVuSans-73" transform="translate(2909.566406 0)"/>
    <use xlink:href="#DejaVuSans-63" transform="translate(2961.666016 0)"/>
    <use xlink:href="#DejaVuSans-65" transform="translate(3016.646484 0)"/>
    <use xlink:href="#DejaVuSans-6e" transform="translate(3078.169922 0)"/>
    <use xlink:href="#DejaVuSans-63" transform="translate(3141.548828 0)"/>
    <use xlink:href="#DejaVuSans-65" transform="translate(3196.529297 0)"/>
   </g>
  </g>
  <g id="legend_1">
   <g id="line2d_24">
    <path d="M 289.153125 451.116312 
L 299.153125 451.116312 
L 309.153125 451.116312 
" style="fill: none; stroke: #222222; stroke-width: 2; stroke-linecap: square"/>
   </g>
   <g id="text_19">
    <!-- calcium event -->
    <g style="fill: #222222" transform="translate(317.153125 454.616312) scale(0.1 -0.1)">
     <use xlink:href="#DejaVuSans-63"/>
     <use xlink:href="#DejaVuSans-61" transform="translate(54.980469 0)"/>
     <use xlink:href="#DejaVuSans-6c" transform="translate(116.259766 0)"/>
     <use xlink:href="#DejaVuSans-63" transform="translate(144.042969 0)"/>
     <use xlink:href="#DejaVuSans-69" transform="translate(199.023438 0)"/>
     <use xlink:href="#DejaVuSans-75" transform="translate(226.806641 0)"/>
     <use xlink:href="#DejaVuSans-6d" transform="translate(290.185547 0)"/>
     <use xlink:href="#DejaVuSans-20" transform="translate(387.597656 0)"/>
     <use xlink:href="#DejaVuSans-65" transform="translate(419.384766 0)"/>
     <use xlink:href="#DejaVuSans-76" transform="translate(480.908203 0)"/>
     <use xlink:href="#DejaVuSans-65" transform="translate(540.087891 0)"/>
     <use xlink:href="#DejaVuSans-6e" transform="translate(601.611328 0)"/>
     <use xlink:href="#DejaVuSans-74" transform="translate(664.990234 0)"/>
    </g>
   </g>
   <g id="line2d_25">
    <path d="M 407.573438 451.116312 
L 417.573438 451.116312 
L 427.573438 451.116312 
" style="fill: none; stroke: #e76f51; stroke-width: 2; stroke-linecap: square"/>
   </g>
   <g id="text_20">
    <!-- apo -->
    <g style="fill: #222222" transform="translate(435.573438 454.616312) scale(0.1 -0.1)">
     <use xlink:href="#DejaVuSans-61"/>
     <use xlink:href="#DejaVuSans-70" transform="translate(61.279297 0)"/>
     <use xlink:href="#DejaVuSans-6f" transform="translate(124.755859 0)"/>
    </g>
   </g>
   <g id="line2d_26">
    <path d="M 474.16875 451.116312 
L 484.16875 451.116312 
L 494.16875 451.116312 
" style="fill: none; stroke: #2a9d8f; stroke-width: 2; stroke-linecap: square"/>
   </g>
   <g id="text_21">
    <!-- bound -->
    <g style="fill: #222222" transform="translate(502.16875 454.616312) scale(0.1 -0.1)">
     <defs>
      <path id="DejaVuSans-62" d="M 3116 1747 
Q 3116 2381 2855 2742 
Q 2594 3103 2138 3103 
Q 1681 3103 1420 2742 
Q 1159 2381 1159 1747 
Q 1159 1113 1420 752 
Q 1681 391 2138 391 
Q 2594 391 2855 752 
Q 3116 1113 3116 1747 
z
M 1159 2969 
Q 1341 3281 1617 3432 
Q 1894 3584 2278 3584 
Q 2916 3584 3314 3078 
Q 3713 2572 3713 1747 
Q 3713 922 3314 415 
Q 2916 -91 2278 -91 
Q 1894 -91 1617 61 
Q 1341 213 1159 525 
L 1159 0 
L 581 0 
L 581 4863 
L 1159 4863 
L 1159 2969 
z
" transform="scale(0.015625)"/>
     </defs>
     <use xlink:href="#DejaVuSans-62"/>
     <use xlink:href="#DejaVuSans-6f" transform="translate(63.476562 0)"/>
     <use xlink:href="#DejaVuSans-75" transform="translate(124.658203 0)"/>
     <use xlink:href="#DejaVuSans-6e" transform="translate(188.037109 0)"/>
     <use xlink:href="#DejaVuSans-64" transform="translate(251.416016 0)"/>
    </g>
   </g>
   <g id="line2d_27">
    <path d="M 553.659375 451.116312 
L 563.659375 451.116312 
L 573.659375 451.116312 
" style="fill: none; stroke: #b87333; stroke-width: 2; stroke-linecap: square"/>
   </g>
   <g id="text_22">
    <!-- total ΔF (at 420 nm) -->
    <g style="fill: #222222" transform="translate(581.659375 454.616312) scale(0.1 -0.1)">
     <defs>
      <path id="DejaVuSans-28" d="M 1984 4856 
Q 1566 4138 1362 3434 
Q 1159 2731 1159 2009 
Q 1159 1288 1364 580 
Q 1569 -128 1984 -844 
L 1484 -844 
Q 1016 -109 783 600 
Q 550 1309 550 2009 
Q 550 2706 781 3412 
Q 1013 4119 1484 4856 
L 1984 4856 
z
" transform="scale(0.015625)"/>
      <path id="DejaVuSans-29" d="M 513 4856 
L 1013 4856 
Q 1481 4119 1714 3412 
Q 1947 2706 1947 2009 
Q 1947 1309 1714 600 
Q 1481 -109 1013 -844 
L 513 -844 
Q 928 -128 1133 580 
Q 1338 1288 1338 2009 
Q 1338 2731 1133 3434 
Q 928 4138 513 4856 
z
" transform="scale(0.015625)"/>
     </defs>
     <use xlink:href="#DejaVuSans-74"/>
     <use xlink:href="#DejaVuSans-6f" transform="translate(39.208984 0)"/>
     <use xlink:href="#DejaVuSans-74" transform="translate(100.390625 0)"/>
     <use xlink:href="#DejaVuSans-61" transform="translate(139.599609 0)"/>
     <use xlink:href="#DejaVuSans-6c" transform="translate(200.878906 0)"/>
     <use xlink:href="#DejaVuSans-20" transform="translate(228.662109 0)"/>
     <use xlink:href="#DejaVuSans-394" transform="translate(260.449219 0)"/>
     <use xlink:href="#DejaVuSans-46" transform="translate(328.857422 0)"/>
     <use xlink:href="#DejaVuSans-20" transform="translate(386.376953 0)"/>
     <use xlink:href="#DejaVuSans-28" transform="translate(418.164062 0)"/>
     <use xlink:href="#DejaVuSans-61" transform="translate(457.177734 0)"/>
     <use xlink:href="#DejaVuSans-74" transform="translate(518.457031 0)"/>
     <use xlink:href="#DejaVuSans-20" transform="translate(557.666016 0)"/>
     <use xlink:href="#DejaVuSans-34" transform="translate(589.453125 0)"/>
     <use xlink:href="#DejaVuSans-32" transform="translate(653.076172 0)"/>
     <use xlink:href="#DejaVuSans-30" transform="translate(716.699219 0)"/>
     <use xlink:href="#DejaVuSans-20" transform="translate(780.322266 0)"/>
     <use xlink:href="#DejaVuSans-6e" transform="translate(812.109375 0)"/>
     <use xlink:href="#DejaVuSans-6d" transform="translate(875.488281 0)"/>
     <use xlink:href="#DejaVuSans-29" transform="translate(972.900391 0)"/>
    </g>
   </g>
  </g>
 </g>
 <defs>
  <clipPath id="p8e0b2f6e46">
   <rect x="77.76" y="57.024" width="240.3" height="61.579172"/>
  </clipPath>
  <clipPath id="p73fad44a10">
   <rect x="77.76" y="158.629633" width="240.3" height="102.631953"/>
  </clipPath>
  <clipPath id="p2e97e46fed">
   <rect x="77.76" y="301.288047" width="240.3" height="102.631953"/>
  </clipPath>
  <clipPath id="pefb0170b49">
   <rect x="390.15" y="57.024" width="552.69" height="346.896"/>
  </clipPath>
 </defs>
</svg>
