<?xml version="1.0" encoding="utf-8" standalone="no"?>
<!DOCTYPE svg PUBLIC "-//W3C//DTD SVG 1.1//EN"
  "http://www.w3.org/Graphics/SVG/1.1/DTD/svg11.dtd">
<svg xmlns:xlink="http://www.w3.org/1999/xlink" width="792pt" height="388.8pt" viewBox="0 0 792 388.8" xmlns="http://www.w3.org/2000/svg" version="1.1">
 <metadata>
  <rdf:RDF xmlns:dc="http://purl.org/dc/elements/1.1/" xmlns:cc="http://creativecommons.org/ns#" xmlns:rdf="http://www.w3.org/1999/02/22-rdf-syntax-ns#">
   <cc:Work>
    <dc:type rdf:resource="http://purl.org/dc/dcmitype/StillImage"/>
    <dc:date>2026-05-04T16:59:42.662102</dc:date>
    <dc:format>image/svg+xml</dc:format>
    <dc:creator>
     <cc:Agent>
      <dc:title>Matplotlib v3.10.9, https://matplotlib.org/</dc:title>
     </cc:Agent>
    </dc:creator>
   </cc:Work>
  </rdf:RDF>
 </metadata>
 <defs>
  <style type="text/css">*{stroke-linejoin: round; stroke-linecap: butt}</style>
 </defs>
 <g id="figure_1">
  <g id="patch_1">
   <path d="M 0 388.8 
L 792 388.8 
L 792 0 
L 0 0 
L 0 388.8 
z
" style="fill: none"/>
  </g>
  <g id="axes_1">
   <g id="patch_2">
    <path d="M 79.2 165.517714 
L 378.782609 165.517714 
L 378.782609 54.432 
L 79.2 54.432 
L 79.2 165.517714 
z
" style="fill: none"/>
   </g>
   <g id="matplotlib.axis_1"/>
   <g id="matplotlib.axis_2">
    <g id="ytick_1">
     <g id="line2d_1">
      <defs>
       <path id="me33ba0a8fc" d="M 0 0 
L -3.5 0 
" style="stroke: #444444; stroke-width: 0.8"/>
      </defs>
      <g>
       <use xlink:href="#me33ba0a8fc" x="79.2" y="163.441346" style="fill: #444444; stroke: #444444; stroke-width: 0.8"/>
      </g>
     </g>
     <g id="text_1">
      <!-- 0 -->
      <g style="fill: #444444" transform="translate(66.47375 166.860643) scale(0.09 -0.09)">
       <defs>
        <path id="DejaVuSans-30" d="M 2034 4250 
Q 1547 4250 1301 3770 
Q 1056 3291 1056 2328 
Q 1056 1369 1301 889 
Q 1547 409 2034 409 
Q 2525 409 2770 889 
Q 3016 1369 3016 2328 
Q 3016 3291 2770 3770 
Q 2525 4250 2034 4250 
z
M 2034 4750 
Q 2819 4750 3233 4129 
Q 3647 3509 3647 2328 
Q 3647 1150 3233 529 
Q 2819 -91 2034 -91 
Q 1250 -91 836 529 
Q 422 1150 422 2328 
Q 422 3509 836 4129 
Q 1250 4750 2034 4750 
z
" transform="scale(0.015625)"/>
       </defs>
       <use xlink:href="#DejaVuSans-30"/>
      </g>
     </g>
    </g>
    <g id="ytick_2">
     <g id="line2d_2">
      <g>
       <use xlink:href="#me33ba0a8fc" x="79.2" y="111.532134" style="fill: #444444; stroke: #444444; stroke-width: 0.8"/>
      </g>
     </g>
     <g id="text_2">
      <!-- ½ -->
      <g style="fill: #444444" transform="translate(63.477031 114.95143) scale(0.09 -0.09)">
       <defs>
        <path id="DejaVuSans-bd" d="M 488 2431 
L 1125 2431 
L 1125 4341 
L 428 4213 
L 428 4575 
L 1147 4697 
L 1575 4697 
L 1575 2431 
L 2216 2431 
L 2216 2088 
L 488 2088 
L 488 2431 
z
M 4470 332 
L 5795 332 
L 5795 -24 
L 3926 -24 
L 3926 319 
Q 4032 416 4229 591 
Q 5304 1544 5304 1838 
Q 5304 2044 5141 2170 
Q 4979 2297 4713 2297 
Q 4551 2297 4360 2242 
Q 4170 2188 3945 2079 
L 3945 2463 
Q 4185 2551 4393 2594 
Q 4601 2638 4779 2638 
Q 5232 2638 5504 2432 
Q 5776 2226 5776 1888 
Q 5776 1454 4741 566 
Q 4566 416 4470 332 
z
M 4309 4750 
L 4809 4750 
L 1896 -91 
L 1396 -91 
L 4309 4750 
z
" transform="scale(0.015625)"/>
       </defs>
       <use xlink:href="#DejaVuSans-bd"/>
      </g>
     </g>
    </g>
    <g id="ytick_3">
     <g id="line2d_3">
      <g>
       <use xlink:href="#me33ba0a8fc" x="79.2" y="59.622921" style="fill: #444444; stroke: #444444; stroke-width: 0.8"/>
      </g>
     </g>
     <g id="text_3">
      <!-- 1 -->
      <g style="fill: #444444" transform="translate(66.47375 63.042218) scale(0.09 -0.09)">
       <defs>
        <path id="DejaVuSans-31" d="M 794 531 
L 1825 531 
L 1825 4091 
L 703 3866 
L 703 4441 
L 1819 4666 
L 2450 4666 
L 2450 531 
L 3481 531 
L 3481 0 
L 794 0 
L 794 531 
z
" transform="scale(0.015625)"/>
       </defs>
       <use xlink:href="#DejaVuSans-31"/>
      </g>
     </g>
    </g>
    <g id="text_4">
     <!-- state -->
     <g style="fill: #222222" transform="translate(26.145781 107.135326) scale(0.1 -0.1)">
      <defs>
       <path id="DejaVuSans-73" d="M 2834 3397 
L 2834 2853 
Q 2591 2978 2328 3040 
Q 2066 3103 1784 3103 
Q 1356 3103 1142 2972 
Q 928 2841 928 2578 
Q 928 2378 1081 2264 
Q 1234 2150 1697 2047 
L 1894 2003 
Q 2506 1872 2764 1633 
Q 3022 1394 3022 966 
Q 3022 478 2636 193 
Q 2250 -91 1575 -91 
Q 1294 -91 989 -36 
Q 684 19 347 128 
L 347 722 
Q 666 556 975 473 
Q 1284 391 1588 391 
Q 1994 391 2212 530 
Q 2431 669 2431 922 
Q 2431 1156 2273 1281 
Q 2116 1406 1581 1522 
L 1381 1569 
Q 847 1681 609 1914 
Q 372 2147 372 2553 
Q 372 3047 722 3315 
Q 1072 3584 1716 3584 
Q 2034 3584 2315 3537 
Q 2597 3491 2834 3397 
z
" transform="scale(0.015625)"/>
       <path id="DejaVuSans-74" d="M 1172 4494 
L 1172 3500 
L 2356 3500 
L 2356 3053 
L 1172 3053 
L 1172 1153 
Q 1172 725 1289 603 
Q 1406 481 1766 481 
L 2356 481 
L 2356 0 
L 1766 0 
Q 1100 0 847 248 
Q 594 497 594 1153 
L 594 3053 
L 172 3053 
L 172 3500 
L 594 3500 
L 594 4494 
L 1172 4494 
z
" transform="scale(0.015625)"/>
       <path id="DejaVuSans-61" d="M 2194 1759 
Q 1497 1759 1228 1600 
Q 959 1441 959 1056 
Q 959 750 1161 570 
Q 1363 391 1709 391 
Q 2188 391 2477 730 
Q 2766 1069 2766 1631 
L 2766 1759 
L 2194 1759 
z
M 3341 1997 
L 3341 0 
L 2766 0 
L 2766 531 
Q 2569 213 2275 61 
Q 1981 -91 1556 -91 
Q 1019 -91 701 211 
Q 384 513 384 1019 
Q 384 1609 779 1909 
Q 1175 2209 1959 2209 
L 2766 2209 
L 2766 2266 
Q 2766 2663 2505 2880 
Q 2244 3097 1772 3097 
Q 1472 3097 1187 3025 
Q 903 2953 641 2809 
L 641 3341 
Q 956 3463 1253 3523 
Q 1550 3584 1831 3584 
Q 2591 3584 2966 3190 
Q 3341 2797 3341 1997 
z
" transform="scale(0.015625)"/>
       <path id="DejaVuSans-65" d="M 3597 1894 
L 3597 1613 
L 953 1613 
Q 991 1019 1311 708 
Q 1631 397 2203 397 
Q 2534 397 2845 478 
Q 3156 559 3463 722 
L 3463 178 
Q 3153 47 2828 -22 
Q 2503 -91 2169 -91 
Q 1331 -91 842 396 
Q 353 884 353 1716 
Q 353 2575 817 3079 
Q 1281 3584 2069 3584 
Q 2775 3584 3186 3129 
Q 3597 2675 3597 1894 
z
M 3022 2063 
Q 3016 2534 2758 2815 
Q 2500 3097 2075 3097 
Q 1594 3097 1305 2825 
Q 1016 2553 972 2059 
L 3022 2063 
z
" transform="scale(0.015625)"/>
      </defs>
      <use xlink:href="#DejaVuSans-73"/>
      <use xlink:href="#DejaVuSans-74" transform="translate(52.099609 0)"/>
      <use xlink:href="#DejaVuSans-61" transform="translate(91.308594 0)"/>
      <use xlink:href="#DejaVuSans-74" transform="translate(152.587891 0)"/>
      <use xlink:href="#DejaVuSans-65" transform="translate(191.796875 0)"/>
     </g>
     <!-- fraction -->
     <g style="fill: #222222" transform="translate(13.064531 118.333138) scale(0.1 -0.1)">
      <defs>
       <path id="DejaVuSans-66" d="M 2375 4863 
L 2375 4384 
L 1825 4384 
Q 1516 4384 1395 4259 
Q 1275 4134 1275 3809 
L 1275 3500 
L 2222 3500 
L 2222 3053 
L 1275 3053 
L 1275 0 
L 697 0 
L 697 3053 
L 147 3053 
L 147 3500 
L 697 3500 
L 697 3744 
Q 697 4328 969 4595 
Q 1241 4863 1831 4863 
L 2375 4863 
z
" transform="scale(0.015625)"/>
       <path id="DejaVuSans-72" d="M 2631 2963 
Q 2534 3019 2420 3045 
Q 2306 3072 2169 3072 
Q 1681 3072 1420 2755 
Q 1159 2438 1159 1844 
L 1159 0 
L 581 0 
L 581 3500 
L 1159 3500 
L 1159 2956 
Q 1341 3275 1631 3429 
Q 1922 3584 2338 3584 
Q 2397 3584 2469 3576 
Q 2541 3569 2628 3553 
L 2631 2963 
z
" transform="scale(0.015625)"/>
       <path id="DejaVuSans-63" d="M 3122 3366 
L 3122 2828 
Q 2878 2963 2633 3030 
Q 2388 3097 2138 3097 
Q 1578 3097 1268 2742 
Q 959 2388 959 1747 
Q 959 1106 1268 751 
Q 1578 397 2138 397 
Q 2388 397 2633 464 
Q 2878 531 3122 666 
L 3122 134 
Q 2881 22 2623 -34 
Q 2366 -91 2075 -91 
Q 1284 -91 818 406 
Q 353 903 353 1747 
Q 353 2603 823 3093 
Q 1294 3584 2113 3584 
Q 2378 3584 2631 3529 
Q 2884 3475 3122 3366 
z
" transform="scale(0.015625)"/>
       <path id="DejaVuSans-69" d="M 603 3500 
L 1178 3500 
L 1178 0 
L 603 0 
L 603 3500 
z
M 603 4863 
L 1178 4863 
L 1178 4134 
L 603 4134 
L 603 4863 
z
" transform="scale(0.015625)"/>
       <path id="DejaVuSans-6f" d="M 1959 3097 
Q 1497 3097 1228 2736 
Q 959 2375 959 1747 
Q 959 1119 1226 758 
Q 1494 397 1959 397 
Q 2419 397 2687 759 
Q 2956 1122 2956 1747 
Q 2956 2369 2687 2733 
Q 2419 3097 1959 3097 
z
M 1959 3584 
Q 2709 3584 3137 3096 
Q 3566 2609 3566 1747 
Q 3566 888 3137 398 
Q 2709 -91 1959 -91 
Q 1206 -91 779 398 
Q 353 888 353 1747 
Q 353 2609 779 3096 
Q 1206 3584 1959 3584 
z
" transform="scale(0.015625)"/>
       <path id="DejaVuSans-6e" d="M 3513 2113 
L 3513 0 
L 2938 0 
L 2938 2094 
Q 2938 2591 2744 2837 
Q 2550 3084 2163 3084 
Q 1697 3084 1428 2787 
Q 1159 2491 1159 1978 
L 1159 0 
L 581 0 
L 581 3500 
L 1159 3500 
L 1159 2956 
Q 1366 3272 1645 3428 
Q 1925 3584 2291 3584 
Q 2894 3584 3203 3211 
Q 3513 2838 3513 2113 
z
" transform="scale(0.015625)"/>
      </defs>
      <use xlink:href="#DejaVuSans-66"/>
      <use xlink:href="#DejaVuSans-72" transform="translate(35.205078 0)"/>
      <use xlink:href="#DejaVuSans-61" transform="translate(76.318359 0)"/>
      <use xlink:href="#DejaVuSans-63" transform="translate(137.597656 0)"/>
      <use xlink:href="#DejaVuSans-74" transform="translate(192.578125 0)"/>
      <use xlink:href="#DejaVuSans-69" transform="translate(231.787109 0)"/>
      <use xlink:href="#DejaVuSans-6f" transform="translate(259.570312 0)"/>
      <use xlink:href="#DejaVuSans-6e" transform="translate(320.751953 0)"/>
     </g>
    </g>
   </g>
   <g id="patch_3">
    <path d="M 79.2 165.517714 
L 79.2 54.432 
" style="fill: none; stroke: #bbbbbb; stroke-width: 0.8; stroke-linejoin: miter; stroke-linecap: square"/>
   </g>
   <g id="patch_4">
    <path d="M 79.2 165.517714 
L 378.782609 165.517714 
" style="fill: none; stroke: #bbbbbb; stroke-width: 0.8; stroke-linejoin: miter; stroke-linecap: square"/>
   </g>
   <g id="line2d_4">
    <path d="M 79.2 59.622921 
L 84.002928 59.730927 
L 87.605123 60.0591 
L 90.606953 60.554336 
L 93.608783 61.28139 
L 96.610613 62.259236 
L 99.612442 63.498595 
L 102.614272 65.002246 
L 105.616102 66.765397 
L 108.617932 68.776243 
L 112.220127 71.490474 
L 115.822323 74.494403 
L 120.024885 78.300087 
L 125.428178 83.538787 
L 134.433667 92.674802 
L 142.838791 101.10753 
L 148.84245 106.82644 
L 154.245744 111.662036 
L 159.048671 115.678445 
L 163.851599 119.415898 
L 168.654526 122.87246 
L 173.457454 126.054059 
L 178.260382 128.972043 
L 183.063309 131.641212 
L 187.866237 134.078304 
L 193.26953 136.564492 
L 198.672824 138.804165 
L 204.676483 141.032836 
L 210.680143 143.017825 
L 217.284168 144.953494 
L 223.888194 146.662063 
L 231.092585 148.301579 
L 238.897343 149.850769 
L 247.302466 151.295056 
L 256.908321 152.707622 
L 267.114542 153.97877 
L 278.521495 155.171798 
L 291.12918 156.266115 
L 305.537963 157.289653 
L 321.747844 158.217378 
L 340.959554 159.085765 
L 363.173094 159.860552 
L 378.782609 160.295333 
L 378.782609 160.295333 
" clip-path="url(#pd32d47382e)" style="fill: none; stroke: #e76f51; stroke-width: 2.4; stroke-linecap: square"/>
   </g>
   <g id="line2d_5">
    <path d="M 79.2 163.441346 
L 84.002928 163.33334 
L 87.605123 163.005167 
L 90.606953 162.509931 
L 93.608783 161.782877 
L 96.610613 160.805031 
L 99.612442 159.565672 
L 102.614272 158.062021 
L 105.616102 156.29887 
L 108.617932 154.288024 
L 112.220127 151.573793 
L 115.822323 148.569864 
L 120.024885 144.76418 
L 125.428178 139.52548 
L 134.433667 130.389466 
L 142.838791 121.956737 
L 148.84245 116.237827 
L 154.245744 111.402231 
L 159.048671 107.385822 
L 163.851599 103.648369 
L 168.654526 100.191807 
L 173.457454 97.010208 
L 178.260382 94.092224 
L 183.063309 91.423055 
L 187.866237 88.985963 
L 193.26953 86.499775 
L 198.672824 84.260102 
L 204.676483 82.031431 
L 210.680143 80.046442 
L 217.284168 78.110773 
L 223.888194 76.402204 
L 231.092585 74.762688 
L 238.897343 73.213498 
L 247.302466 71.769211 
L 256.908321 70.356645 
L 267.114542 69.085497 
L 278.521495 67.892469 
L 291.12918 66.798152 
L 305.537963 65.774614 
L 321.747844 64.846889 
L 340.959554 63.978502 
L 363.173094 63.203715 
L 378.782609 62.768934 
L 378.782609 62.768934 
" clip-path="url(#pd32d47382e)" style="fill: none; stroke: #2a9d8f; stroke-width: 2.4; stroke-linecap: square"/>
   </g>
   <g id="text_5">
    <!-- A -->
    <g style="fill: #222222" transform="translate(49.241739 46.174121) scale(0.13 -0.13)">
     <defs>
      <path id="DejaVuSans-Bold-41" d="M 3419 850 
L 1538 850 
L 1241 0 
L 31 0 
L 1759 4666 
L 3194 4666 
L 4922 0 
L 3713 0 
L 3419 850 
z
M 1838 1716 
L 3116 1716 
L 2478 3572 
L 1838 1716 
z
" transform="scale(0.015625)"/>
     </defs>
     <use xlink:href="#DejaVuSans-Bold-41"/>
    </g>
   </g>
  </g>
  <g id="axes_2">
   <g id="patch_5">
    <path d="M 79.2 326.592 
L 378.782609 326.592 
L 378.782609 215.506286 
L 79.2 215.506286 
L 79.2 326.592 
z
" style="fill: none"/>
   </g>
   <g id="matplotlib.axis_3">
    <g id="text_6">
     <!-- calcium [Ca²⁺]  → -->
     <g style="fill: #444444" transform="translate(181.210054 340.950281) scale(0.11 -0.11)">
      <defs>
       <path id="DejaVuSans-6c" d="M 603 4863 
L 1178 4863 
L 1178 0 
L 603 0 
L 603 4863 
z
" transform="scale(0.015625)"/>
       <path id="DejaVuSans-75" d="M 544 1381 
L 544 3500 
L 1119 3500 
L 1119 1403 
Q 1119 906 1312 657 
Q 1506 409 1894 409 
Q 2359 409 2629 706 
Q 2900 1003 2900 1516 
L 2900 3500 
L 3475 3500 
L 3475 0 
L 2900 0 
L 2900 538 
Q 2691 219 2414 64 
Q 2138 -91 1772 -91 
Q 1169 -91 856 284 
Q 544 659 544 1381 
z
M 1991 3584 
L 1991 3584 
z
" transform="scale(0.015625)"/>
       <path id="DejaVuSans-6d" d="M 3328 2828 
Q 3544 3216 3844 3400 
Q 4144 3584 4550 3584 
Q 5097 3584 5394 3201 
Q 5691 2819 5691 2113 
L 5691 0 
L 5113 0 
L 5113 2094 
Q 5113 2597 4934 2840 
Q 4756 3084 4391 3084 
Q 3944 3084 3684 2787 
Q 3425 2491 3425 1978 
L 3425 0 
L 2847 0 
L 2847 2094 
Q 2847 2600 2669 2842 
Q 2491 3084 2119 3084 
Q 1678 3084 1418 2786 
Q 1159 2488 1159 1978 
L 1159 0 
L 581 0 
L 581 3500 
L 1159 3500 
L 1159 2956 
Q 1356 3278 1631 3431 
Q 1906 3584 2284 3584 
Q 2666 3584 2933 3390 
Q 3200 3197 3328 2828 
z
" transform="scale(0.015625)"/>
       <path id="DejaVuSans-20" transform="scale(0.015625)"/>
       <path id="DejaVuSans-5b" d="M 550 4863 
L 1875 4863 
L 1875 4416 
L 1125 4416 
L 1125 -397 
L 1875 -397 
L 1875 -844 
L 550 -844 
L 550 4863 
z
" transform="scale(0.015625)"/>
       <path id="DejaVuSans-43" d="M 4122 4306 
L 4122 3641 
Q 3803 3938 3442 4084 
Q 3081 4231 2675 4231 
Q 1875 4231 1450 3742 
Q 1025 3253 1025 2328 
Q 1025 1406 1450 917 
Q 1875 428 2675 428 
Q 3081 428 3442 575 
Q 3803 722 4122 1019 
L 4122 359 
Q 3791 134 3420 21 
Q 3050 -91 2638 -91 
Q 1578 -91 968 557 
Q 359 1206 359 2328 
Q 359 3453 968 4101 
Q 1578 4750 2638 4750 
Q 3056 4750 3426 4639 
Q 3797 4528 4122 4306 
z
" transform="scale(0.015625)"/>
       <path id="DejaVuSans-b2" d="M 838 2444 
L 2163 2444 
L 2163 2088 
L 294 2088 
L 294 2431 
Q 400 2528 597 2703 
Q 1672 3656 1672 3950 
Q 1672 4156 1509 4282 
Q 1347 4409 1081 4409 
Q 919 4409 728 4354 
Q 538 4300 313 4191 
L 313 4575 
Q 553 4663 761 4706 
Q 969 4750 1147 4750 
Q 1600 4750 1872 4544 
Q 2144 4338 2144 4000 
Q 2144 3566 1109 2678 
Q 934 2528 838 2444 
z
" transform="scale(0.015625)"/>
       <path id="DejaVuSans-207a" d="M 1853 4334 
L 1853 3359 
L 2950 3359 
L 2950 3063 
L 1853 3063 
L 1853 2088 
L 1525 2088 
L 1525 3063 
L 428 3063 
L 428 3359 
L 1525 3359 
L 1525 4334 
L 1853 4334 
z
" transform="scale(0.015625)"/>
       <path id="DejaVuSans-5d" d="M 1947 4863 
L 1947 -844 
L 622 -844 
L 622 -397 
L 1369 -397 
L 1369 4416 
L 622 4416 
L 622 4863 
L 1947 4863 
z
" transform="scale(0.015625)"/>
       <path id="DejaVuSans-2192" d="M 5050 2147 
L 5050 1866 
L 3822 638 
L 3447 1013 
L 4175 1741 
L 366 1741 
L 366 2272 
L 4175 2272 
L 3447 3000 
L 3822 3375 
L 5050 2147 
z
" transform="scale(0.015625)"/>
      </defs>
      <use xlink:href="#DejaVuSans-63"/>
      <use xlink:href="#DejaVuSans-61" transform="translate(54.980469 0)"/>
      <use xlink:href="#DejaVuSans-6c" transform="translate(116.259766 0)"/>
      <use xlink:href="#DejaVuSans-63" transform="translate(144.042969 0)"/>
      <use xlink:href="#DejaVuSans-69" transform="translate(199.023438 0)"/>
      <use xlink:href="#DejaVuSans-75" transform="translate(226.806641 0)"/>
      <use xlink:href="#DejaVuSans-6d" transform="translate(290.185547 0)"/>
      <use xlink:href="#DejaVuSans-20" transform="translate(387.597656 0)"/>
      <use xlink:href="#DejaVuSans-5b" transform="translate(419.384766 0)"/>
      <use xlink:href="#DejaVuSans-43" transform="translate(458.398438 0)"/>
      <use xlink:href="#DejaVuSans-61" transform="translate(528.222656 0)"/>
      <use xlink:href="#DejaVuSans-b2" transform="translate(589.501953 0)"/>
      <use xlink:href="#DejaVuSans-207a" transform="translate(629.589844 0)"/>
      <use xlink:href="#DejaVuSans-5d" transform="translate(682.373047 0)"/>
      <use xlink:href="#DejaVuSans-20" transform="translate(721.386719 0)"/>
      <use xlink:href="#DejaVuSans-20" transform="translate(753.173828 0)"/>
      <use xlink:href="#DejaVuSans-2192" transform="translate(784.960938 0)"/>
     </g>
    </g>
   </g>
   <g id="matplotlib.axis_4">
    <g id="text_7">
     <!-- fluorescence -->
     <g style="fill: #222222" transform="translate(3.55625 273.808518) scale(0.1 -0.1)">
      <use xlink:href="#DejaVuSans-66"/>
      <use xlink:href="#DejaVuSans-6c" transform="translate(35.205078 0)"/>
      <use xlink:href="#DejaVuSans-75" transform="translate(62.988281 0)"/>
      <use xlink:href="#DejaVuSans-6f" transform="translate(126.367188 0)"/>
      <use xlink:href="#DejaVuSans-72" transform="translate(187.548828 0)"/>
      <use xlink:href="#DejaVuSans-65" transform="translate(226.412109 0)"/>
      <use xlink:href="#DejaVuSans-73" transform="translate(287.935547 0)"/>
      <use xlink:href="#DejaVuSans-63" transform="translate(340.035156 0)"/>
      <use xlink:href="#DejaVuSans-65" transform="translate(395.015625 0)"/>
      <use xlink:href="#DejaVuSans-6e" transform="translate(456.539062 0)"/>
      <use xlink:href="#DejaVuSans-63" transform="translate(519.917969 0)"/>
      <use xlink:href="#DejaVuSans-65" transform="translate(574.898438 0)"/>
     </g>
    </g>
   </g>
   <g id="patch_6">
    <path d="M 79.2 326.592 
L 79.2 215.506286 
" style="fill: none; stroke: #bbbbbb; stroke-width: 0.8; stroke-linejoin: miter; stroke-linecap: square"/>
   </g>
   <g id="patch_7">
    <path d="M 79.2 326.592 
L 378.782609 326.592 
" style="fill: none; stroke: #bbbbbb; stroke-width: 0.8; stroke-linejoin: miter; stroke-linecap: square"/>
   </g>
   <g id="line2d_6">
    <path d="M 79.2 307.617732 
L 84.603294 307.511777 
L 88.205489 307.239133 
L 91.807685 306.74546 
L 95.409881 305.999017 
L 98.41171 305.170013 
L 102.013906 303.920361 
L 105.616102 302.396183 
L 109.218297 300.611491 
L 112.820493 298.589688 
L 117.023055 295.972786 
L 121.825982 292.713121 
L 128.430008 287.928454 
L 145.240254 275.58935 
L 151.243914 271.509204 
L 156.647207 268.080998 
L 162.050501 264.906197 
L 167.453795 261.991424 
L 172.857088 259.332859 
L 178.260382 256.919647 
L 183.663675 254.736611 
L 189.667335 252.559693 
L 195.670994 250.620262 
L 202.27502 248.731644 
L 208.879045 247.0693 
L 216.083436 245.480572 
L 223.888194 243.987254 
L 232.293317 242.603868 
L 241.899172 241.260987 
L 252.105393 240.062796 
L 263.512346 238.948637 
L 276.720397 237.893635 
L 291.729546 236.931727 
L 308.539793 236.080543 
L 328.351869 235.303323 
L 352.366507 234.594955 
L 378.782609 234.020571 
L 378.782609 234.020571 
" clip-path="url(#pec36e3ca27)" style="fill: none; stroke: #222222; stroke-width: 2.4; stroke-linecap: square"/>
   </g>
   <g id="text_8">
    <!-- B -->
    <g style="fill: #222222" transform="translate(49.241739 207.248406) scale(0.13 -0.13)">
     <defs>
      <path id="DejaVuSans-Bold-42" d="M 2456 2859 
Q 2741 2859 2887 2984 
Q 3034 3109 3034 3353 
Q 3034 3594 2887 3720 
Q 2741 3847 2456 3847 
L 1791 3847 
L 1791 2859 
L 2456 2859 
z
M 2497 819 
Q 2859 819 3042 972 
Q 3225 1125 3225 1434 
Q 3225 1738 3044 1889 
Q 2863 2041 2497 2041 
L 1791 2041 
L 1791 819 
L 2497 819 
z
M 3616 2497 
Q 4003 2384 4215 2081 
Q 4428 1778 4428 1338 
Q 4428 663 3972 331 
Q 3516 0 2584 0 
L 588 0 
L 588 4666 
L 2394 4666 
Q 3366 4666 3802 4372 
Q 4238 4078 4238 3431 
Q 4238 3091 4078 2852 
Q 3919 2613 3616 2497 
z
" transform="scale(0.015625)"/>
     </defs>
     <use xlink:href="#DejaVuSans-Bold-42"/>
    </g>
   </g>
  </g>
  <g id="axes_3">
   <g id="patch_8">
    <path d="M 468.657391 165.517714 
L 768.24 165.517714 
L 768.24 54.432 
L 468.657391 54.432 
L 468.657391 165.517714 
z
" style="fill: none"/>
   </g>
   <g id="matplotlib.axis_5"/>
   <g id="matplotlib.axis_6"/>
   <g id="patch_9">
    <path d="M 468.657391 165.517714 
L 468.657391 54.432 
" style="fill: none; stroke: #bbbbbb; stroke-width: 0.8; stroke-linejoin: miter; stroke-linecap: square"/>
   </g>
   <g id="patch_10">
    <path d="M 468.657391 165.517714 
L 768.24 165.517714 
" style="fill: none; stroke: #bbbbbb; stroke-width: 0.8; stroke-linejoin: miter; stroke-linecap: square"/>
   </g>
   <g id="line2d_7">
    <path d="M 468.657391 154.431433 
L 550.058456 154.327903 
L 550.725678 154.056119 
L 551.3929 153.57943 
L 552.060122 152.88122 
L 552.727344 151.958929 
L 554.061788 149.47667 
L 555.396231 146.251496 
L 556.730675 142.441631 
L 558.73234 135.981396 
L 567.406224 106.660859 
L 569.40789 100.861164 
L 571.409556 95.635867 
L 573.411221 91.008033 
L 575.412887 86.977707 
L 577.414552 83.529232 
L 579.416218 80.636615 
L 581.417883 78.267435 
L 583.419549 76.385641 
L 584.753992 75.38329 
L 586.088436 74.569532 
L 587.42288 73.933182 
L 588.757324 73.463245 
L 590.758989 73.046984 
L 592.760655 72.946286 
L 594.76232 73.12825 
L 596.763986 73.562036 
L 598.765651 74.218923 
L 600.767317 75.072308 
L 603.436204 76.473709 
L 606.105092 78.128388 
L 609.441201 80.482181 
L 613.444532 83.622083 
L 618.115085 87.577065 
L 626.121747 94.701815 
L 636.130075 103.569368 
L 642.802293 109.176783 
L 648.80729 113.91341 
L 654.145064 117.84295 
L 659.482839 121.493873 
L 664.820614 124.86264 
L 670.158389 127.952906 
L 675.496163 130.773457 
L 680.833938 133.336601 
L 686.171713 135.656919 
L 691.509488 137.750319 
L 697.514484 139.854731 
L 703.519481 141.716454 
L 709.524478 143.358533 
L 716.196696 144.952207 
L 723.536136 146.457146 
L 730.875577 147.735554 
L 738.882239 148.908191 
L 747.556123 149.957111 
L 757.56445 150.930694 
L 768.24 151.743603 
L 768.24 151.743603 
" clip-path="url(#pfe2d60e42c)" style="fill: none; stroke: #2ca02c; stroke-width: 2; stroke-linecap: square"/>
   </g>
   <g id="text_9">
    <!-- C -->
    <g style="fill: #222222" transform="translate(438.69913 46.174121) scale(0.13 -0.13)">
     <defs>
      <path id="DejaVuSans-Bold-43" d="M 4288 256 
Q 3956 84 3597 -3 
Q 3238 -91 2847 -91 
Q 1681 -91 1000 561 
Q 319 1213 319 2328 
Q 319 3447 1000 4098 
Q 1681 4750 2847 4750 
Q 3238 4750 3597 4662 
Q 3956 4575 4288 4403 
L 4288 3438 
Q 3953 3666 3628 3772 
Q 3303 3878 2944 3878 
Q 2300 3878 1931 3465 
Q 1563 3053 1563 2328 
Q 1563 1606 1931 1193 
Q 2300 781 2944 781 
Q 3303 781 3628 887 
Q 3953 994 4288 1222 
L 4288 256 
z
" transform="scale(0.015625)"/>
     </defs>
     <use xlink:href="#DejaVuSans-Bold-43"/>
    </g>
   </g>
   <g id="line2d_8">
    <path d="M 468.657391 154.431433 
L 548.724013 154.431433 
L 549.391235 130.447607 
L 550.058456 112.706582 
L 550.725678 99.709022 
L 551.3929 90.313158 
L 552.060122 83.64957 
L 552.727344 79.056281 
L 553.394566 76.029307 
L 554.061788 74.185006 
L 554.729009 73.231392 
L 555.396231 72.946286 
L 556.063453 73.160674 
L 556.730675 73.746035 
L 557.397897 74.604685 
L 558.73234 76.862932 
L 560.734006 80.94342 
L 566.739003 93.659874 
L 569.40789 98.787462 
L 572.076777 103.506267 
L 574.745665 107.832926 
L 577.414552 111.794687 
L 580.08344 115.420532 
L 582.752327 118.738339 
L 586.088436 122.491783 
L 589.424545 125.850562 
L 592.760655 128.856141 
L 596.096764 131.545655 
L 599.432873 133.952339 
L 602.768982 136.105935 
L 606.772313 138.393446 
L 610.775644 140.395415 
L 614.778976 142.147484 
L 618.782307 143.680849 
L 623.452859 145.229583 
L 628.123412 146.555206 
L 633.461187 147.83802 
L 639.466184 149.033203 
L 646.138402 150.108868 
L 653.477843 151.046262 
L 661.484505 151.838635 
L 670.825611 152.531865 
L 681.50116 153.100246 
L 694.845597 153.577902 
L 711.526143 153.941717 
L 734.211686 154.201389 
L 768.24 154.357369 
L 768.24 154.357369 
" clip-path="url(#pfe2d60e42c)" style="fill: none; stroke: #222222; stroke-width: 2; stroke-linecap: square"/>
   </g>
   <g id="legend_1">
    <g id="line2d_9">
     <path d="M 677.660625 66.220594 
L 686.660625 66.220594 
L 695.660625 66.220594 
" style="fill: none; stroke: #2ca02c; stroke-width: 2; stroke-linecap: square"/>
    </g>
    <g id="text_10">
     <!-- fluorescence -->
     <g style="fill: #222222" transform="translate(702.860625 69.370594) scale(0.09 -0.09)">
      <use xlink:href="#DejaVuSans-66"/>
      <use xlink:href="#DejaVuSans-6c" transform="translate(35.205078 0)"/>
      <use xlink:href="#DejaVuSans-75" transform="translate(62.988281 0)"/>
      <use xlink:href="#DejaVuSans-6f" transform="translate(126.367188 0)"/>
      <use xlink:href="#DejaVuSans-72" transform="translate(187.548828 0)"/>
      <use xlink:href="#DejaVuSans-65" transform="translate(226.412109 0)"/>
      <use xlink:href="#DejaVuSans-73" transform="translate(287.935547 0)"/>
      <use xlink:href="#DejaVuSans-63" transform="translate(340.035156 0)"/>
      <use xlink:href="#DejaVuSans-65" transform="translate(395.015625 0)"/>
      <use xlink:href="#DejaVuSans-6e" transform="translate(456.539062 0)"/>
      <use xlink:href="#DejaVuSans-63" transform="translate(519.917969 0)"/>
      <use xlink:href="#DejaVuSans-65" transform="translate(574.898438 0)"/>
     </g>
    </g>
    <g id="line2d_10">
     <path d="M 677.660625 79.430906 
L 686.660625 79.430906 
L 695.660625 79.430906 
" style="fill: none; stroke: #222222; stroke-width: 2; stroke-linecap: square"/>
    </g>
    <g id="text_11">
     <!-- [Ca²⁺] -->
     <g style="fill: #222222" transform="translate(702.860625 82.580906) scale(0.09 -0.09)">
      <use xlink:href="#DejaVuSans-5b"/>
      <use xlink:href="#DejaVuSans-43" transform="translate(39.013672 0)"/>
      <use xlink:href="#DejaVuSans-61" transform="translate(108.837891 0)"/>
      <use xlink:href="#DejaVuSans-b2" transform="translate(170.117188 0)"/>
      <use xlink:href="#DejaVuSans-207a" transform="translate(210.205078 0)"/>
      <use xlink:href="#DejaVuSans-5d" transform="translate(262.988281 0)"/>
     </g>
    </g>
   </g>
  </g>
  <g id="axes_4">
   <g id="patch_11">
    <path d="M 468.657391 326.592 
L 768.24 326.592 
L 768.24 215.506286 
L 468.657391 215.506286 
L 468.657391 326.592 
z
" style="fill: none"/>
   </g>
   <g id="matplotlib.axis_7">
    <g id="text_12">
     <!-- time  → -->
     <g style="fill: #444444" transform="translate(597.918227 340.950281) scale(0.11 -0.11)">
      <use xlink:href="#DejaVuSans-74"/>
      <use xlink:href="#DejaVuSans-69" transform="translate(39.208984 0)"/>
      <use xlink:href="#DejaVuSans-6d" transform="translate(66.992188 0)"/>
      <use xlink:href="#DejaVuSans-65" transform="translate(164.404297 0)"/>
      <use xlink:href="#DejaVuSans-20" transform="translate(225.927734 0)"/>
      <use xlink:href="#DejaVuSans-20" transform="translate(257.714844 0)"/>
      <use xlink:href="#DejaVuSans-2192" transform="translate(289.501953 0)"/>
     </g>
    </g>
   </g>
   <g id="matplotlib.axis_8">
    <g id="ytick_4">
     <g id="line2d_11">
      <g>
       <use xlink:href="#me33ba0a8fc" x="468.657391" y="324.515632" style="fill: #444444; stroke: #444444; stroke-width: 0.8"/>
      </g>
     </g>
     <g id="text_13">
      <!-- 0 -->
      <g style="fill: #444444" transform="translate(455.931141 327.934928) scale(0.09 -0.09)">
       <use xlink:href="#DejaVuSans-30"/>
      </g>
     </g>
    </g>
    <g id="ytick_5">
     <g id="line2d_12">
      <g>
       <use xlink:href="#me33ba0a8fc" x="468.657391" y="272.606419" style="fill: #444444; stroke: #444444; stroke-width: 0.8"/>
      </g>
     </g>
     <g id="text_14">
      <!-- ½ -->
      <g style="fill: #444444" transform="translate(452.934423 276.025716) scale(0.09 -0.09)">
       <use xlink:href="#DejaVuSans-bd"/>
      </g>
     </g>
    </g>
    <g id="ytick_6">
     <g id="line2d_13">
      <g>
       <use xlink:href="#me33ba0a8fc" x="468.657391" y="220.697207" style="fill: #444444; stroke: #444444; stroke-width: 0.8"/>
      </g>
     </g>
     <g id="text_15">
      <!-- 1 -->
      <g style="fill: #444444" transform="translate(455.931141 224.116504) scale(0.09 -0.09)">
       <use xlink:href="#DejaVuSans-31"/>
      </g>
     </g>
    </g>
    <g id="text_16">
     <!-- state -->
     <g style="fill: #222222" transform="translate(415.603173 268.209612) scale(0.1 -0.1)">
      <use xlink:href="#DejaVuSans-73"/>
      <use xlink:href="#DejaVuSans-74" transform="translate(52.099609 0)"/>
      <use xlink:href="#DejaVuSans-61" transform="translate(91.308594 0)"/>
      <use xlink:href="#DejaVuSans-74" transform="translate(152.587891 0)"/>
      <use xlink:href="#DejaVuSans-65" transform="translate(191.796875 0)"/>
     </g>
     <!-- fraction -->
     <g style="fill: #222222" transform="translate(402.521923 279.407424) scale(0.1 -0.1)">
      <use xlink:href="#DejaVuSans-66"/>
      <use xlink:href="#DejaVuSans-72" transform="translate(35.205078 0)"/>
      <use xlink:href="#DejaVuSans-61" transform="translate(76.318359 0)"/>
      <use xlink:href="#DejaVuSans-63" transform="translate(137.597656 0)"/>
      <use xlink:href="#DejaVuSans-74" transform="translate(192.578125 0)"/>
      <use xlink:href="#DejaVuSans-69" transform="translate(231.787109 0)"/>
      <use xlink:href="#DejaVuSans-6f" transform="translate(259.570312 0)"/>
      <use xlink:href="#DejaVuSans-6e" transform="translate(320.751953 0)"/>
     </g>
    </g>
   </g>
   <g id="patch_12">
    <path d="M 468.657391 326.592 
L 468.657391 215.506286 
" style="fill: none; stroke: #bbbbbb; stroke-width: 0.8; stroke-linejoin: miter; stroke-linecap: square"/>
   </g>
   <g id="patch_13">
    <path d="M 468.657391 326.592 
L 768.24 326.592 
" style="fill: none; stroke: #bbbbbb; stroke-width: 0.8; stroke-linejoin: miter; stroke-linecap: square"/>
   </g>
   <g id="line2d_14">
    <path d="M 468.657391 241.460892 
L 550.058456 241.495467 
L 551.3929 241.74543 
L 552.727344 242.286619 
L 554.061788 243.115604 
L 555.396231 244.192695 
L 557.397897 246.15742 
L 560.066784 249.15684 
L 566.071781 256.025349 
L 568.740668 258.726452 
L 571.409556 261.096487 
L 574.078443 263.112679 
L 576.74733 264.776887 
L 579.416218 266.105695 
L 582.085105 267.12387 
L 584.753992 267.860116 
L 587.42288 268.3444 
L 590.091767 268.606291 
L 592.760655 268.673988 
L 596.096764 268.525376 
L 599.432873 268.160846 
L 603.436204 267.495956 
L 608.106757 266.482857 
L 614.111754 264.925288 
L 622.785638 262.408298 
L 640.800627 257.124462 
L 649.474511 254.823435 
L 658.148395 252.756831 
L 666.155058 251.069162 
L 674.828942 249.474752 
L 683.502826 248.108541 
L 692.843931 246.868198 
L 702.852259 245.772558 
L 713.527809 244.830346 
L 725.537802 244.000531 
L 738.882239 243.305455 
L 754.228341 242.729995 
L 768.24 242.35853 
L 768.24 242.35853 
" clip-path="url(#p24fbe2570c)" style="fill: none; stroke: #e76f51; stroke-width: 2; stroke-linecap: square"/>
   </g>
   <g id="line2d_15">
    <path d="M 468.657391 303.751947 
L 550.058456 303.717371 
L 551.3929 303.467408 
L 552.727344 302.92622 
L 554.061788 302.097235 
L 555.396231 301.020143 
L 557.397897 299.055419 
L 560.066784 296.055998 
L 566.071781 289.187489 
L 568.740668 286.486387 
L 571.409556 284.116351 
L 574.078443 282.100159 
L 576.74733 280.435951 
L 579.416218 279.107143 
L 582.085105 278.088969 
L 584.753992 277.352722 
L 587.42288 276.868438 
L 590.091767 276.606548 
L 592.760655 276.538851 
L 596.096764 276.687462 
L 599.432873 277.051993 
L 603.436204 277.716883 
L 608.106757 278.729981 
L 614.111754 280.287551 
L 622.785638 282.80454 
L 640.800627 288.088377 
L 649.474511 290.389404 
L 658.148395 292.456007 
L 666.155058 294.143677 
L 674.828942 295.738086 
L 683.502826 297.104298 
L 692.843931 298.344641 
L 702.852259 299.44028 
L 713.527809 300.382493 
L 725.537802 301.212307 
L 738.882239 301.907383 
L 754.228341 302.482843 
L 768.24 302.854308 
L 768.24 302.854308 
" clip-path="url(#p24fbe2570c)" style="fill: none; stroke: #2a9d8f; stroke-width: 2; stroke-linecap: square"/>
   </g>
   <g id="text_17">
    <!-- D -->
    <g style="fill: #222222" transform="translate(438.69913 207.248406) scale(0.13 -0.13)">
     <defs>
      <path id="DejaVuSans-Bold-44" d="M 1791 3756 
L 1791 909 
L 2222 909 
Q 2959 909 3348 1275 
Q 3738 1641 3738 2338 
Q 3738 3031 3350 3393 
Q 2963 3756 2222 3756 
L 1791 3756 
z
M 588 4666 
L 1856 4666 
Q 2919 4666 3439 4514 
Q 3959 4363 4331 4000 
Q 4659 3684 4818 3271 
Q 4978 2859 4978 2338 
Q 4978 1809 4818 1395 
Q 4659 981 4331 666 
Q 3956 303 3431 151 
Q 2906 0 1856 0 
L 588 0 
L 588 4666 
z
" transform="scale(0.015625)"/>
     </defs>
     <use xlink:href="#DejaVuSans-Bold-44"/>
    </g>
   </g>
  </g>
  <g id="text_18">
   <!-- as a function of [Ca²⁺] -->
   <g style="fill: #222222" transform="translate(176.623047 30.251312) scale(0.11 -0.11)">
    <defs>
     <path id="DejaVuSans-Oblique-61" d="M 3438 1997 
L 3047 0 
L 2472 0 
L 2578 531 
Q 2325 219 2001 64 
Q 1678 -91 1281 -91 
Q 834 -91 548 182 
Q 263 456 263 884 
Q 263 1497 752 1853 
Q 1241 2209 2100 2209 
L 2900 2209 
L 2931 2363 
Q 2938 2388 2941 2417 
Q 2944 2447 2944 2509 
Q 2944 2788 2717 2942 
Q 2491 3097 2081 3097 
Q 1800 3097 1504 3025 
Q 1209 2953 897 2809 
L 997 3341 
Q 1322 3463 1633 3523 
Q 1944 3584 2234 3584 
Q 2853 3584 3176 3315 
Q 3500 3047 3500 2534 
Q 3500 2431 3484 2292 
Q 3469 2153 3438 1997 
z
M 2816 1759 
L 2241 1759 
Q 1534 1759 1195 1570 
Q 856 1381 856 984 
Q 856 709 1029 553 
Q 1203 397 1509 397 
Q 1978 397 2328 733 
Q 2678 1069 2791 1631 
L 2816 1759 
z
" transform="scale(0.015625)"/>
     <path id="DejaVuSans-Oblique-73" d="M 3200 3397 
L 3091 2853 
Q 2863 2978 2609 3040 
Q 2356 3103 2088 3103 
Q 1634 3103 1373 2948 
Q 1113 2794 1113 2528 
Q 1113 2219 1719 2053 
Q 1766 2041 1788 2034 
L 1972 1978 
Q 2547 1819 2739 1644 
Q 2931 1469 2931 1166 
Q 2931 609 2489 259 
Q 2047 -91 1331 -91 
Q 1053 -91 747 -37 
Q 441 16 72 128 
L 184 722 
Q 500 559 806 475 
Q 1113 391 1394 391 
Q 1816 391 2080 572 
Q 2344 753 2344 1031 
Q 2344 1331 1650 1516 
L 1591 1531 
L 1394 1581 
Q 956 1697 753 1886 
Q 550 2075 550 2369 
Q 550 2928 970 3256 
Q 1391 3584 2113 3584 
Q 2397 3584 2667 3537 
Q 2938 3491 3200 3397 
z
" transform="scale(0.015625)"/>
     <path id="DejaVuSans-Oblique-20" transform="scale(0.015625)"/>
     <path id="DejaVuSans-Oblique-66" d="M 3059 4863 
L 2969 4384 
L 2419 4384 
Q 2106 4384 1964 4261 
Q 1822 4138 1753 3809 
L 1691 3500 
L 2638 3500 
L 2553 3053 
L 1606 3053 
L 1013 0 
L 434 0 
L 1031 3053 
L 481 3053 
L 563 3500 
L 1113 3500 
L 1159 3744 
Q 1278 4363 1576 4613 
Q 1875 4863 2516 4863 
L 3059 4863 
z
" transform="scale(0.015625)"/>
     <path id="DejaVuSans-Oblique-75" d="M 428 1388 
L 838 3500 
L 1416 3500 
L 1006 1409 
Q 975 1256 961 1147 
Q 947 1038 947 966 
Q 947 700 1109 554 
Q 1272 409 1569 409 
Q 2031 409 2368 721 
Q 2706 1034 2809 1563 
L 3194 3500 
L 3769 3500 
L 3091 0 
L 2516 0 
L 2631 550 
Q 2388 244 2052 76 
Q 1716 -91 1338 -91 
Q 878 -91 622 161 
Q 366 413 366 863 
Q 366 956 381 1097 
Q 397 1238 428 1388 
z
" transform="scale(0.015625)"/>
     <path id="DejaVuSans-Oblique-6e" d="M 3566 2113 
L 3156 0 
L 2578 0 
L 2988 2091 
Q 3016 2238 3031 2350 
Q 3047 2463 3047 2528 
Q 3047 2791 2881 2937 
Q 2716 3084 2419 3084 
Q 1956 3084 1622 2776 
Q 1288 2469 1184 1941 
L 800 0 
L 225 0 
L 903 3500 
L 1478 3500 
L 1363 2950 
Q 1603 3253 1940 3418 
Q 2278 3584 2650 3584 
Q 3113 3584 3367 3334 
Q 3622 3084 3622 2631 
Q 3622 2519 3608 2391 
Q 3594 2263 3566 2113 
z
" transform="scale(0.015625)"/>
     <path id="DejaVuSans-Oblique-63" d="M 3431 3366 
L 3316 2797 
Q 3109 2947 2876 3022 
Q 2644 3097 2394 3097 
Q 2119 3097 1870 3000 
Q 1622 2903 1453 2725 
Q 1184 2453 1037 2087 
Q 891 1722 891 1331 
Q 891 859 1127 628 
Q 1363 397 1844 397 
Q 2081 397 2348 469 
Q 2616 541 2906 684 
L 2797 116 
Q 2547 13 2283 -39 
Q 2019 -91 1741 -91 
Q 1044 -91 669 257 
Q 294 606 294 1253 
Q 294 1797 489 2255 
Q 684 2713 1069 3078 
Q 1331 3328 1684 3456 
Q 2038 3584 2456 3584 
Q 2700 3584 2940 3529 
Q 3181 3475 3431 3366 
z
" transform="scale(0.015625)"/>
     <path id="DejaVuSans-Oblique-74" d="M 2706 3500 
L 2619 3053 
L 1472 3053 
L 1100 1153 
Q 1081 1047 1072 975 
Q 1063 903 1063 863 
Q 1063 663 1183 572 
Q 1303 481 1569 481 
L 2150 481 
L 2053 0 
L 1503 0 
Q 991 0 739 200 
Q 488 400 488 806 
Q 488 878 497 964 
Q 506 1050 525 1153 
L 897 3053 
L 409 3053 
L 500 3500 
L 978 3500 
L 1172 4494 
L 1747 4494 
L 1556 3500 
L 2706 3500 
z
" transform="scale(0.015625)"/>
     <path id="DejaVuSans-Oblique-69" d="M 1172 4863 
L 1747 4863 
L 1606 4134 
L 1031 4134 
L 1172 4863 
z
M 909 3500 
L 1484 3500 
L 800 0 
L 225 0 
L 909 3500 
z
" transform="scale(0.015625)"/>
     <path id="DejaVuSans-Oblique-6f" d="M 1625 -91 
Q 1009 -91 651 289 
Q 294 669 294 1325 
Q 294 1706 417 2101 
Q 541 2497 738 2766 
Q 1047 3184 1428 3384 
Q 1809 3584 2291 3584 
Q 2888 3584 3255 3212 
Q 3622 2841 3622 2241 
Q 3622 1825 3500 1412 
Q 3378 1000 3181 728 
Q 2875 309 2494 109 
Q 2113 -91 1625 -91 
z
M 891 1344 
Q 891 869 1089 633 
Q 1288 397 1691 397 
Q 2269 397 2648 901 
Q 3028 1406 3028 2181 
Q 3028 2634 2825 2865 
Q 2622 3097 2228 3097 
Q 1903 3097 1650 2945 
Q 1397 2794 1197 2484 
Q 1050 2253 970 1956 
Q 891 1659 891 1344 
z
" transform="scale(0.015625)"/>
     <path id="DejaVuSans-Oblique-5b" d="M 1363 4863 
L 2688 4863 
L 2597 4416 
L 1850 4416 
L 916 -397 
L 1663 -397 
L 1581 -844 
L 256 -844 
L 1363 4863 
z
" transform="scale(0.015625)"/>
     <path id="DejaVuSans-Oblique-43" d="M 4447 4306 
L 4319 3641 
Q 4019 3944 3683 4091 
Q 3347 4238 2956 4238 
Q 2422 4238 2017 3981 
Q 1613 3725 1319 3200 
Q 1131 2863 1032 2486 
Q 934 2109 934 1728 
Q 934 1091 1264 756 
Q 1594 422 2222 422 
Q 2656 422 3056 561 
Q 3456 700 3834 978 
L 3688 231 
Q 3316 72 2936 -9 
Q 2556 -91 2175 -91 
Q 1278 -91 773 396 
Q 269 884 269 1753 
Q 269 2309 461 2846 
Q 653 3384 1013 3828 
Q 1394 4300 1883 4525 
Q 2372 4750 3022 4750 
Q 3422 4750 3780 4639 
Q 4138 4528 4447 4306 
z
" transform="scale(0.015625)"/>
     <path id="DejaVuSans-Oblique-b2" d="M 2059 3406 
L 856 2444 
L 2234 2444 
L 2163 2088 
L 231 2088 
L 300 2431 
L 1619 3494 
Q 1803 3638 1893 3772 
Q 1984 3906 1984 4031 
Q 1984 4200 1853 4304 
Q 1722 4409 1503 4409 
Q 1331 4409 1125 4356 
Q 919 4303 659 4191 
L 738 4575 
Q 975 4663 1187 4706 
Q 1400 4750 1600 4750 
Q 1984 4750 2223 4572 
Q 2463 4394 2463 4116 
Q 2463 3922 2363 3745 
Q 2263 3569 2059 3406 
z
" transform="scale(0.015625)"/>
     <path id="DejaVuSans-Oblique-207a" d="M 1853 4334 
L 1853 3359 
L 2950 3359 
L 2950 3063 
L 1853 3063 
L 1853 2088 
L 1525 2088 
L 1525 3063 
L 428 3063 
L 428 3359 
L 1525 3359 
L 1525 4334 
L 1853 4334 
z
" transform="scale(0.015625)"/>
     <path id="DejaVuSans-Oblique-5d" d="M 2188 4863 
L 1081 -844 
L -244 -844 
L -159 -397 
L 588 -397 
L 1522 4416 
L 781 4416 
L 863 4863 
L 2188 4863 
z
" transform="scale(0.015625)"/>
    </defs>
    <use xlink:href="#DejaVuSans-Oblique-61"/>
    <use xlink:href="#DejaVuSans-Oblique-73" transform="translate(61.279297 0)"/>
    <use xlink:href="#DejaVuSans-Oblique-20" transform="translate(113.378906 0)"/>
    <use xlink:href="#DejaVuSans-Oblique-61" transform="translate(145.166016 0)"/>
    <use xlink:href="#DejaVuSans-Oblique-20" transform="translate(206.445312 0)"/>
    <use xlink:href="#DejaVuSans-Oblique-66" transform="translate(238.232422 0)"/>
    <use xlink:href="#DejaVuSans-Oblique-75" transform="translate(273.4375 0)"/>
    <use xlink:href="#DejaVuSans-Oblique-6e" transform="translate(336.816406 0)"/>
    <use xlink:href="#DejaVuSans-Oblique-63" transform="translate(400.195312 0)"/>
    <use xlink:href="#DejaVuSans-Oblique-74" transform="translate(455.175781 0)"/>
    <use xlink:href="#DejaVuSans-Oblique-69" transform="translate(494.384766 0)"/>
    <use xlink:href="#DejaVuSans-Oblique-6f" transform="translate(522.167969 0)"/>
    <use xlink:href="#DejaVuSans-Oblique-6e" transform="translate(583.349609 0)"/>
    <use xlink:href="#DejaVuSans-Oblique-20" transform="translate(646.728516 0)"/>
    <use xlink:href="#DejaVuSans-Oblique-6f" transform="translate(678.515625 0)"/>
    <use xlink:href="#DejaVuSans-Oblique-66" transform="translate(739.697266 0)"/>
    <use xlink:href="#DejaVuSans-Oblique-20" transform="translate(774.902344 0)"/>
    <use xlink:href="#DejaVuSans-Oblique-5b" transform="translate(806.689453 0)"/>
    <use xlink:href="#DejaVuSans-Oblique-43" transform="translate(845.703125 0)"/>
    <use xlink:href="#DejaVuSans-Oblique-61" transform="translate(915.527344 0)"/>
    <use xlink:href="#DejaVuSans-Oblique-b2" transform="translate(976.806641 0)"/>
    <use xlink:href="#DejaVuSans-Oblique-207a" transform="translate(1016.894531 0)"/>
    <use xlink:href="#DejaVuSans-Oblique-5d" transform="translate(1069.677734 0)"/>
   </g>
  </g>
  <g id="text_19">
   <!-- as a function of time -->
   <g style="fill: #222222" transform="translate(537.208203 30.251312) scale(0.11 -0.11)">
    <defs>
     <path id="DejaVuSans-Oblique-6d" d="M 5747 2113 
L 5338 0 
L 4763 0 
L 5166 2094 
Q 5191 2228 5203 2325 
Q 5216 2422 5216 2491 
Q 5216 2772 5059 2928 
Q 4903 3084 4622 3084 
Q 4203 3084 3875 2770 
Q 3547 2456 3450 1953 
L 3066 0 
L 2491 0 
L 2900 2094 
Q 2925 2209 2937 2307 
Q 2950 2406 2950 2484 
Q 2950 2769 2794 2926 
Q 2638 3084 2363 3084 
Q 1938 3084 1609 2770 
Q 1281 2456 1184 1953 
L 800 0 
L 225 0 
L 909 3500 
L 1484 3500 
L 1375 2956 
Q 1609 3263 1923 3423 
Q 2238 3584 2597 3584 
Q 2978 3584 3223 3384 
Q 3469 3184 3519 2828 
Q 3781 3197 4126 3390 
Q 4472 3584 4856 3584 
Q 5306 3584 5551 3325 
Q 5797 3066 5797 2591 
Q 5797 2488 5784 2364 
Q 5772 2241 5747 2113 
z
" transform="scale(0.015625)"/>
     <path id="DejaVuSans-Oblique-65" d="M 3078 2063 
Q 3088 2113 3092 2166 
Q 3097 2219 3097 2272 
Q 3097 2653 2873 2875 
Q 2650 3097 2266 3097 
Q 1838 3097 1509 2826 
Q 1181 2556 1013 2059 
L 3078 2063 
z
M 3578 1613 
L 903 1613 
Q 884 1494 878 1425 
Q 872 1356 872 1306 
Q 872 872 1139 634 
Q 1406 397 1894 397 
Q 2269 397 2603 481 
Q 2938 566 3225 728 
L 3116 159 
Q 2806 34 2476 -28 
Q 2147 -91 1806 -91 
Q 1078 -91 686 257 
Q 294 606 294 1247 
Q 294 1794 489 2264 
Q 684 2734 1063 3103 
Q 1306 3334 1642 3459 
Q 1978 3584 2356 3584 
Q 2950 3584 3301 3228 
Q 3653 2872 3653 2272 
Q 3653 2128 3634 1964 
Q 3616 1800 3578 1613 
z
" transform="scale(0.015625)"/>
    </defs>
    <use xlink:href="#DejaVuSans-Oblique-61"/>
    <use xlink:href="#DejaVuSans-Oblique-73" transform="translate(61.279297 0)"/>
    <use xlink:href="#DejaVuSans-Oblique-20" transform="translate(113.378906 0)"/>
    <use xlink:href="#DejaVuSans-Oblique-61" transform="translate(145.166016 0)"/>
    <use xlink:href="#DejaVuSans-Oblique-20" transform="translate(206.445312 0)"/>
    <use xlink:href="#DejaVuSans-Oblique-66" transform="translate(238.232422 0)"/>
    <use xlink:href="#DejaVuSans-Oblique-75" transform="translate(273.4375 0)"/>
    <use xlink:href="#DejaVuSans-Oblique-6e" transform="translate(336.816406 0)"/>
    <use xlink:href="#DejaVuSans-Oblique-63" transform="translate(400.195312 0)"/>
    <use xlink:href="#DejaVuSans-Oblique-74" transform="translate(455.175781 0)"/>
    <use xlink:href="#DejaVuSans-Oblique-69" transform="translate(494.384766 0)"/>
    <use xlink:href="#DejaVuSans-Oblique-6f" transform="translate(522.167969 0)"/>
    <use xlink:href="#DejaVuSans-Oblique-6e" transform="translate(583.349609 0)"/>
    <use xlink:href="#DejaVuSans-Oblique-20" transform="translate(646.728516 0)"/>
    <use xlink:href="#DejaVuSans-Oblique-6f" transform="translate(678.515625 0)"/>
    <use xlink:href="#DejaVuSans-Oblique-66" transform="translate(739.697266 0)"/>
    <use xlink:href="#DejaVuSans-Oblique-20" transform="translate(774.902344 0)"/>
    <use xlink:href="#DejaVuSans-Oblique-74" transform="translate(806.689453 0)"/>
    <use xlink:href="#DejaVuSans-Oblique-69" transform="translate(845.898438 0)"/>
    <use xlink:href="#DejaVuSans-Oblique-6d" transform="translate(873.681641 0)"/>
    <use xlink:href="#DejaVuSans-Oblique-65" transform="translate(971.09375 0)"/>
   </g>
  </g>
  <g id="legend_2">
   <g id="line2d_16">
    <path d="M 252.892969 366.444313 
L 262.892969 366.444313 
L 272.892969 366.444313 
" style="fill: none; stroke: #222222; stroke-width: 2; stroke-linecap: square"/>
   </g>
   <g id="text_20">
    <!-- calcium / fluorescence -->
    <g style="fill: #222222" transform="translate(280.892969 369.944313) scale(0.1 -0.1)">
     <defs>
      <path id="DejaVuSans-2f" d="M 1625 4666 
L 2156 4666 
L 531 -594 
L 0 -594 
L 1625 4666 
z
" transform="scale(0.015625)"/>
     </defs>
     <use xlink:href="#DejaVuSans-63"/>
     <use xlink:href="#DejaVuSans-61" transform="translate(54.980469 0)"/>
     <use xlink:href="#DejaVuSans-6c" transform="translate(116.259766 0)"/>
     <use xlink:href="#DejaVuSans-63" transform="translate(144.042969 0)"/>
     <use xlink:href="#DejaVuSans-69" transform="translate(199.023438 0)"/>
     <use xlink:href="#DejaVuSans-75" transform="translate(226.806641 0)"/>
     <use xlink:href="#DejaVuSans-6d" transform="translate(290.185547 0)"/>
     <use xlink:href="#DejaVuSans-20" transform="translate(387.597656 0)"/>
     <use xlink:href="#DejaVuSans-2f" transform="translate(419.384766 0)"/>
     <use xlink:href="#DejaVuSans-20" transform="translate(453.076172 0)"/>
     <use xlink:href="#DejaVuSans-66" transform="translate(484.863281 0)"/>
     <use xlink:href="#DejaVuSans-6c" transform="translate(520.068359 0)"/>
     <use xlink:href="#DejaVuSans-75" transform="translate(547.851562 0)"/>
     <use xlink:href="#DejaVuSans-6f" transform="translate(611.230469 0)"/>
     <use xlink:href="#DejaVuSans-72" transform="translate(672.412109 0)"/>
     <use xlink:href="#DejaVuSans-65" transform="translate(711.275391 0)"/>
     <use xlink:href="#DejaVuSans-73" transform="translate(772.798828 0)"/>
     <use xlink:href="#DejaVuSans-63" transform="translate(824.898438 0)"/>
     <use xlink:href="#DejaVuSans-65" transform="translate(879.878906 0)"/>
     <use xlink:href="#DejaVuSans-6e" transform="translate(941.402344 0)"/>
     <use xlink:href="#DejaVuSans-63" transform="translate(1004.78125 0)"/>
     <use xlink:href="#DejaVuSans-65" transform="translate(1059.761719 0)"/>
    </g>
   </g>
   <g id="line2d_17">
    <path d="M 413.021094 366.444313 
L 423.021094 366.444313 
L 433.021094 366.444313 
" style="fill: none; stroke: #e76f51; stroke-width: 2; stroke-linecap: square"/>
   </g>
   <g id="text_21">
    <!-- apo -->
    <g style="fill: #222222" transform="translate(441.021094 369.944313) scale(0.1 -0.1)">
     <defs>
      <path id="DejaVuSans-70" d="M 1159 525 
L 1159 -1331 
L 581 -1331 
L 581 3500 
L 1159 3500 
L 1159 2969 
Q 1341 3281 1617 3432 
Q 1894 3584 2278 3584 
Q 2916 3584 3314 3078 
Q 3713 2572 3713 1747 
Q 3713 922 3314 415 
Q 2916 -91 2278 -91 
Q 1894 -91 1617 61 
Q 1341 213 1159 525 
z
M 3116 1747 
Q 3116 2381 2855 2742 
Q 2594 3103 2138 3103 
Q 1681 3103 1420 2742 
Q 1159 2381 1159 1747 
Q 1159 1113 1420 752 
Q 1681 391 2138 391 
Q 2594 391 2855 752 
Q 3116 1113 3116 1747 
z
" transform="scale(0.015625)"/>
     </defs>
     <use xlink:href="#DejaVuSans-61"/>
     <use xlink:href="#DejaVuSans-70" transform="translate(61.279297 0)"/>
     <use xlink:href="#DejaVuSans-6f" transform="translate(124.755859 0)"/>
    </g>
   </g>
   <g id="line2d_18">
    <path d="M 479.616406 366.444313 
L 489.616406 366.444313 
L 499.616406 366.444313 
" style="fill: none; stroke: #2a9d8f; stroke-width: 2; stroke-linecap: square"/>
   </g>
   <g id="text_22">
    <!-- bound -->
    <g style="fill: #222222" transform="translate(507.616406 369.944313) scale(0.1 -0.1)">
     <defs>
      <path id="DejaVuSans-62" d="M 3116 1747 
Q 3116 2381 2855 2742 
Q 2594 3103 2138 3103 
Q 1681 3103 1420 2742 
Q 1159 2381 1159 1747 
Q 1159 1113 1420 752 
Q 1681 391 2138 391 
Q 2594 391 2855 752 
Q 3116 1113 3116 1747 
z
M 1159 2969 
Q 1341 3281 1617 3432 
Q 1894 3584 2278 3584 
Q 2916 3584 3314 3078 
Q 3713 2572 3713 1747 
Q 3713 922 3314 415 
Q 2916 -91 2278 -91 
Q 1894 -91 1617 61 
Q 1341 213 1159 525 
L 1159 0 
L 581 0 
L 581 4863 
L 1159 4863 
L 1159 2969 
z
" transform="scale(0.015625)"/>
      <path id="DejaVuSans-64" d="M 2906 2969 
L 2906 4863 
L 3481 4863 
L 3481 0 
L 2906 0 
L 2906 525 
Q 2725 213 2448 61 
Q 2172 -91 1784 -91 
Q 1150 -91 751 415 
Q 353 922 353 1747 
Q 353 2572 751 3078 
Q 1150 3584 1784 3584 
Q 2172 3584 2448 3432 
Q 2725 3281 2906 2969 
z
M 947 1747 
Q 947 1113 1208 752 
Q 1469 391 1925 391 
Q 2381 391 2643 752 
Q 2906 1113 2906 1747 
Q 2906 2381 2643 2742 
Q 2381 3103 1925 3103 
Q 1469 3103 1208 2742 
Q 947 2381 947 1747 
z
" transform="scale(0.015625)"/>
     </defs>
     <use xlink:href="#DejaVuSans-62"/>
     <use xlink:href="#DejaVuSans-6f" transform="translate(63.476562 0)"/>
     <use xlink:href="#DejaVuSans-75" transform="translate(124.658203 0)"/>
     <use xlink:href="#DejaVuSans-6e" transform="translate(188.037109 0)"/>
     <use xlink:href="#DejaVuSans-64" transform="translate(251.416016 0)"/>
    </g>
   </g>
  </g>
 </g>
 <defs>
  <clipPath id="pd32d47382e">
   <rect x="79.2" y="54.432" width="299.582609" height="111.085714"/>
  </clipPath>
  <clipPath id="pec36e3ca27">
   <rect x="79.2" y="215.506286" width="299.582609" height="111.085714"/>
  </clipPath>
  <clipPath id="pfe2d60e42c">
   <rect x="468.657391" y="54.432" width="299.582609" height="111.085714"/>
  </clipPath>
  <clipPath id="p24fbe2570c">
   <rect x="468.657391" y="215.506286" width="299.582609" height="111.085714"/>
  </clipPath>
 </defs>
</svg>
